<!-- Generator: Adobe Illustrator 21.0.0, SVG Export Plug-In  -->
<svg version="1.1"
	 xmlns="http://www.w3.org/2000/svg" xmlns:xlink="http://www.w3.org/1999/xlink" xmlns:a="http://ns.adobe.com/AdobeSVGViewerExtensions/3.0/"
	 x="0px" y="0px" width="792.7px" height="200.4px" viewBox="0 0 792.7 200.4" style="enable-background:new 0 0 792.7 200.4;"
	 xml:space="preserve">
<style type="text/css">
	.st0{fill:#FFFFFF;}
	.st1{fill:#FFF200;}
</style>
<defs>
</defs>
<g>
	<g>
		<path class="st0" d="M202.8,41c0-8.4,2.5-16.1,7.6-23.1c5.1-7,11.7-11.6,19.9-14c3.6-1.1,8-1.7,13-2c3.7-0.3,8.4-0.3,14-0.2
			c7.8,0.3,12,0.4,12.8,0.4v18.1c-1.7,0-4.2,0-7.4,0c-3.2,0-5.7,0-7.4,0c-13.1,0-22.3,3.6-27.7,10.8c-1.1,1.5-2.2,4-3.3,7.7
			c-1.1,3.7-1.7,6.3-1.7,8.1v7.6h43.7v18.9h-43.7V161h-19.9V41z"/>
		<path class="st0" d="M339.6,162.8c-18.5,0-34.4-6.2-47.7-18.7c-13.4-12.4-20.1-27.7-20.1-45.7c0-18.1,6.7-33.4,20.1-45.9
			c13.4-12.6,29.3-18.9,47.7-18.9c18.6,0,34.6,6.3,48.1,18.9C401.2,65,408,80.3,408,98.4c0,18.1-6.8,33.3-20.3,45.7
			C374.2,156.5,358.2,162.8,339.6,162.8z M339.6,52.2c-13.2,0-24.6,4.5-34.1,13.4c-9.5,9-14.2,19.9-14.2,32.7
			c0.1,12.8,4.9,23.6,14.4,32.3c9.5,8.7,20.8,13,33.9,13c13.2,0,24.6-4.3,34.2-13c9.6-8.7,14.4-19.5,14.5-32.3
			c0.1-12.8-4.6-23.7-14.3-32.7C364.3,56.7,352.8,52.2,339.6,52.2z"/>
		<path class="st0" d="M519.7,70.7c-11.4-12.3-24-18.5-37.9-18.5c-12.4,0-23.1,4.5-32.1,13.6c-9,9.1-13.4,19.9-13.4,32.5
			c0,12.4,4.5,23.1,13.4,32c9,8.9,19.7,13.3,32.1,13.3c9.5,0,18.1-2.5,25.8-7.6c7.7-5.1,13.1-12,16.3-20.7l13.6,13
			c-12.2,22.9-29.8,34.3-53,34.3c-19.1,0-35.1-5.9-47.9-17.7c-13.4-12.2-20.1-27.7-20.1-46.7c0-18.3,6.4-33.7,19.1-46.1
			c12.7-12.4,28.3-18.7,46.9-18.7c22.9,0,40.5,8.8,53,26.3L519.7,70.7z"/>
		<path class="st0" d="M542,107.6v-72H562v71c0,10.4,3.3,19.3,10,26.5c6.7,7.2,15.2,10.8,25.5,10.8c10.4,0,19-3.6,25.8-10.7
			c6.8-7.2,10.1-15.9,10.1-26.4V35.6h20.5V161h-20.5v-13.2c-6.7,5.2-12.5,8.8-17.5,10.8c-6,2.7-12.7,4-20.1,4
			c-15.1,0-27.9-5.4-38.3-16.1C547.2,135.6,542,122.7,542,107.6z"/>
		<path class="st0" d="M667.1,161v-20.9h85.6c4.9,0,9.2-1.7,12.8-5.1c3.6-3.4,5.4-7.6,5.4-12.5c0-4.9-1.8-9.1-5.3-12.5
			c-3.5-3.4-7.9-5.1-12.9-5.1h-52c-13.5,0-23.6-5.7-30.3-17c-3.2-5.5-4.8-11.4-4.8-17.7c0-9.5,3.4-17.7,10.1-24.5
			c6.8-6.8,14.9-10.2,24.6-10.2h87.3v20.3h-86.5c-4.1,0-7.7,1.4-10.6,4.2c-2.9,2.8-4.4,6.3-4.4,10.3c0,4.2,1.5,7.7,4.4,10.5
			c2.9,2.8,6.5,4.2,10.6,4.2H754c15.2,0,26.4,6.4,33.6,19.1c3.3,5.9,5,12.2,5,18.9c0,11.2-3.8,20.4-11.5,27.5
			c-7.7,7.1-17.1,10.6-28.2,10.6H667.1z"/>
	</g>
	<g>
		<path class="st0" d="M217.6,186.7c0,2.4-0.8,4.3-2.5,5.9c-1.7,1.6-3.7,2.4-6.1,2.4h-6.4v-20.8h2.6v4.3h4c1.6,0,3.1,0.4,4.4,1.2
			c1.3,0.8,2.4,1.9,3.1,3.3C217.3,184,217.6,185.3,217.6,186.7z M205.1,192.2h3.7c1.7,0,3.1-0.5,4.2-1.6c1.1-1,1.7-2.4,1.7-4
			c0-1.7-0.6-3.1-1.8-4.2c-1.2-1.1-2.6-1.7-4.3-1.7h-3.7V192.2z"/>
		<path class="st0" d="M252.4,185.4c-0.5-3.2-2.5-4.8-6-4.8c-1.7,0-3.2,0.6-4.5,1.8c-1.3,1.2-1.9,2.6-1.9,4.3c0,1.7,0.6,3.1,1.8,4.2
			c1.2,1.2,2.6,1.7,4.2,1.7c1.4,0,2.7-0.3,4-0.8c1.5-0.6,2.4-1.5,2.8-2.6l1.8,1.7c-0.7,1.4-1.9,2.4-3.5,3.1c-1.4,0.7-3,1-4.8,1
			c-2.5,0-4.6-0.8-6.3-2.4c-1.7-1.6-2.6-3.6-2.6-6c0-2.4,0.9-4.4,2.6-6c1.8-1.7,3.9-2.5,6.3-2.5c2.6,0,4.7,0.6,6.2,1.8
			c1.8,1.4,2.7,3.5,2.7,6.5c0,0.4,0,0.7,0,1.1h-12.6v-2.1L252.4,185.4L252.4,185.4z"/>
		<path class="st0" d="M277.9,194.9h-2.7v-20.8h2.7V194.9z"/>
		<path class="st0" d="M300.9,194.9h-2.7v-16.7h2.7V194.9z M298.3,175.4c0-0.4,0.1-0.7,0.4-0.9c0.3-0.3,0.6-0.4,0.9-0.4
			c0.4,0,0.7,0.1,0.9,0.4c0.3,0.3,0.4,0.6,0.4,0.9c0,0.4-0.1,0.7-0.4,0.9c-0.3,0.3-0.6,0.4-0.9,0.4c-0.4,0-0.7-0.1-0.9-0.4
			C298.4,176.1,298.3,175.8,298.3,175.4z"/>
		<path class="st0" d="M335.8,185.4c-0.5-3.2-2.5-4.8-6-4.8c-1.7,0-3.2,0.6-4.5,1.8c-1.3,1.2-1.9,2.6-1.9,4.3c0,1.7,0.6,3.1,1.8,4.2
			c1.2,1.2,2.6,1.7,4.2,1.7c1.4,0,2.7-0.3,4-0.8c1.5-0.6,2.4-1.5,2.8-2.6l1.8,1.7c-0.7,1.4-1.9,2.4-3.5,3.1c-1.4,0.7-3,1-4.8,1
			c-2.5,0-4.6-0.8-6.3-2.4c-1.7-1.6-2.6-3.6-2.6-6c0-2.4,0.9-4.4,2.6-6c1.8-1.7,3.9-2.5,6.3-2.5c2.6,0,4.7,0.6,6.2,1.8
			c1.8,1.4,2.7,3.5,2.7,6.5c0,0.4,0,0.7,0,1.1H326v-2.1L335.8,185.4L335.8,185.4z"/>
		<path class="st0" d="M358.3,178.4h2.6l4.7,12.9l4.7-12.9h2.6l-6.3,16.5h-2L358.3,178.4z"/>
		<path class="st0" d="M407.3,185.4c-0.5-3.2-2.5-4.8-6-4.8c-1.7,0-3.2,0.6-4.5,1.8c-1.3,1.2-1.9,2.6-1.9,4.3c0,1.7,0.6,3.1,1.8,4.2
			c1.2,1.2,2.6,1.7,4.2,1.7c1.4,0,2.7-0.3,4-0.8c1.5-0.6,2.4-1.5,2.8-2.6l1.8,1.7c-0.7,1.4-1.9,2.4-3.5,3.1c-1.4,0.7-3,1-4.8,1
			c-2.5,0-4.6-0.8-6.3-2.4c-1.7-1.6-2.6-3.6-2.6-6c0-2.4,0.9-4.4,2.6-6c1.8-1.7,3.9-2.5,6.3-2.5c2.6,0,4.7,0.6,6.2,1.8
			c1.8,1.4,2.7,3.5,2.7,6.5c0,0.4,0,0.7,0,1.1h-12.6v-2.1L407.3,185.4L407.3,185.4z"/>
		<path class="st0" d="M469.2,194.9v-14.1h-3.7c-1.7,0-3.1,0.6-4.3,1.7c-1.2,1.1-1.8,2.5-1.8,4.2c0,1.7,0.6,3.1,1.7,4.2
			c1.2,1.1,2.6,1.7,4.2,1.7c1,0,1.9-0.2,2.8-0.7v2.7c-1.1,0.4-2.1,0.6-2.9,0.6c-2.4,0-4.4-0.8-6.1-2.4c-1.7-1.6-2.5-3.6-2.5-5.9
			c0-1.3,0.3-2.6,0.9-3.8c0.7-1.4,1.8-2.5,3.1-3.3c1.3-0.8,2.8-1.2,4.4-1.2h6.6v16.5H469.2z"/>
		<path class="st0" d="M506.8,185.4v9.5h-2.6v-9.4c0-1.4-0.4-2.5-1.3-3.5c-0.9-0.9-2-1.4-3.4-1.4c-1.4,0-2.5,0.5-3.4,1.4
			c-0.9,0.9-1.3,2.1-1.3,3.5v9.4h-2.7v-16.5h2.7v1.7c0.9-0.7,1.6-1.2,2.3-1.4c0.8-0.4,1.7-0.5,2.6-0.5c2,0,3.6,0.7,5,2.1
			C506.1,181.7,506.8,183.4,506.8,185.4z"/>
		<path class="st0" d="M527.9,182.8c0.7-1.4,1.8-2.5,3.1-3.3c1.3-0.8,2.8-1.2,4.4-1.2h4v-4.3h2.6v20.8h-6.4c-2.4,0-4.4-0.8-6.1-2.4
			c-1.7-1.6-2.5-3.5-2.5-5.9C527,185.3,527.3,184,527.9,182.8z M539.4,180.8h-3.7c-1.7,0-3.1,0.6-4.3,1.7c-1.2,1.1-1.8,2.5-1.8,4.2
			c0,1.7,0.6,3,1.7,4c1.2,1,2.6,1.6,4.3,1.6h3.7V180.8z"/>
		<path class="st0" d="M591.6,194.9h-2.7v-16.7h2.7V194.9z M589,175.4c0-0.4,0.1-0.7,0.4-0.9c0.3-0.3,0.6-0.4,0.9-0.4
			c0.4,0,0.7,0.1,0.9,0.4c0.3,0.3,0.4,0.6,0.4,0.9c0,0.4-0.1,0.7-0.4,0.9c-0.3,0.3-0.6,0.4-0.9,0.4c-0.4,0-0.7-0.1-0.9-0.4
			C589.1,176.1,589,175.8,589,175.4z"/>
		<path class="st0" d="M626.6,185.4v9.5H624v-9.4c0-1.4-0.4-2.5-1.3-3.5c-0.9-0.9-2-1.4-3.4-1.4c-1.4,0-2.5,0.5-3.4,1.4
			c-0.9,0.9-1.3,2.1-1.3,3.5v9.4h-2.7v-16.5h2.7v1.7c0.9-0.7,1.6-1.2,2.3-1.4c0.8-0.4,1.7-0.5,2.6-0.5c2,0,3.6,0.7,5,2.1
			C625.9,181.7,626.6,183.4,626.6,185.4z"/>
		<path class="st0" d="M646.6,194.9v-2.7h11.2c0.7,0,1.2-0.2,1.7-0.7c0.5-0.4,0.7-1,0.7-1.6c0-0.6-0.2-1.2-0.7-1.6
			c-0.5-0.4-1-0.7-1.7-0.7H651c-1.8,0-3.1-0.7-4-2.2c-0.4-0.7-0.6-1.5-0.6-2.3c0-1.2,0.4-2.3,1.3-3.2c0.9-0.9,2-1.3,3.2-1.3h11.5
			v2.7H651c-0.5,0-1,0.2-1.4,0.6c-0.4,0.4-0.6,0.8-0.6,1.4c0,0.5,0.2,1,0.6,1.4c0.4,0.4,0.9,0.6,1.4,0.6h6.9c2,0,3.5,0.8,4.4,2.5
			c0.4,0.8,0.7,1.6,0.7,2.5c0,1.5-0.5,2.7-1.5,3.6c-1,0.9-2.2,1.4-3.7,1.4H646.6z"/>
		<path class="st0" d="M696.5,190.5c-0.7,1.4-1.7,2.5-3.1,3.3c-1.3,0.8-2.8,1.2-4.4,1.2h-4v5.5h-2.6v-22h6.4c2.4,0,4.4,0.8,6.1,2.4
			c1.7,1.6,2.5,3.6,2.5,5.9C697.4,188,697.1,189.3,696.5,190.5z M685,192.5h3.7c1.7,0,3.1-0.5,4.3-1.6c1.2-1.1,1.8-2.5,1.8-4.1
			c0-1.7-0.6-3-1.7-4.1c-1.1-1.1-2.6-1.6-4.2-1.6H685V192.5z"/>
		<path class="st0" d="M720.3,194.9h-2.7v-16.7h2.7V194.9z M717.7,175.4c0-0.4,0.1-0.7,0.4-0.9c0.3-0.3,0.6-0.4,0.9-0.4
			c0.4,0,0.7,0.1,0.9,0.4c0.3,0.3,0.4,0.6,0.4,0.9c0,0.4-0.1,0.7-0.4,0.9c-0.3,0.3-0.6,0.4-0.9,0.4c-0.4,0-0.7-0.1-0.9-0.4
			C717.8,176.1,717.7,175.8,717.7,175.4z"/>
		<path class="st0" d="M748.2,180.6c-1.4,0-2.5,0.5-3.4,1.4c-0.9,0.9-1.3,2.1-1.3,3.5v9.4h-2.7v-16.5h2.7v1.7
			c0.9-0.7,1.6-1.2,2.3-1.4c0.8-0.4,1.7-0.5,2.6-0.5c2.2,0,4.1,0.9,5.5,2.6l-2.3,1.3C750.7,181.1,749.6,180.6,748.2,180.6z"/>
		<path class="st0" d="M785.7,185.4c-0.5-3.2-2.5-4.8-6-4.8c-1.7,0-3.2,0.6-4.5,1.8c-1.3,1.2-1.9,2.6-1.9,4.3c0,1.7,0.6,3.1,1.8,4.2
			c1.2,1.2,2.6,1.7,4.2,1.7c1.4,0,2.7-0.3,4-0.8c1.5-0.6,2.4-1.5,2.8-2.6l1.8,1.7c-0.7,1.4-1.9,2.4-3.5,3.1c-1.4,0.7-3,1-4.8,1
			c-2.5,0-4.6-0.8-6.3-2.4c-1.7-1.6-2.6-3.6-2.6-6c0-2.4,0.9-4.4,2.6-6c1.8-1.7,3.9-2.5,6.3-2.5c2.6,0,4.7,0.6,6.2,1.8
			c1.8,1.4,2.7,3.5,2.7,6.5c0,0.4,0,0.7,0,1.1h-12.6v-2.1L785.7,185.4L785.7,185.4z"/>
	</g>
	<g>
		<path class="st1" d="M33.7,194c-14.4,0-24.4-4.1-29.9-12.3C1.3,178,0,174.2,0,170.3c0-4.2,1.4-8.6,4.3-13l49.7-76.6l98.8-1.8
			l-52.5,80.9c-1.6,2.4-2.2,4.5-2,6.3c0.1,0.8,0.4,1.5,0.8,2.2c1.4,2.3,4.1,3.4,8.1,3.4h27.3L120.3,194H33.7z M190.2,29.4
			c0,10.9-7.3,19.5-22,25.8c-12.7,5.4-27.5,8.2-44.6,8.4c-25,0.2-43.7-4.8-56.1-15.1c-4.6-3.8-6.9-8.6-6.9-14.3
			c0-10.7,7.2-19.3,21.7-25.6c12.4-5.4,27.1-8.2,44.2-8.5c25.2-0.4,44.1,4.6,56.7,14.9C187.9,18.8,190.2,23.6,190.2,29.4z"/>
	</g>
</g>
</svg>
