<svg xmlns="http://www.w3.org/2000/svg">
<defs>
<font id="GTSectraDisplay-Medium" horiz-adv-x="620" >
  <font-face 
    font-family="GT Sectra Display Medium"
    font-weight="500"
    font-stretch="normal"
    units-per-em="1000"
    panose-1="0 0 6 0 0 0 0 0 0 0"
    ascent="750"
    descent="-250"
    x-height="470"
    cap-height="700"
    bbox="-477 -247 1173 935"
    underline-thickness="50"
    underline-position="-150"
    unicode-range="U+000D-FB02"
  />
<missing-glyph horiz-adv-x="625" 
d="M432 -28l-24 18h-14l-8 8l7 76l-4 47l-61 1l-3 -52l-2 -56v-20l-15 -6l-8 6l-30 -10h-32l-1 11l11 11l50 21l-6 96l-98 -6l-147 140l-4 115l-13 10l-10 36v26l15 8l-3 78l92 -62l9 47l10 36l22 35l28 35l39 29l78 29h22l-68 22l4 17h7l79 -20l-4 51l16 12h32l19 -5
l29 -25l32 -8l32 -10l15 -13v-20l-20 -31l30 -28l28 -32l18 -34l15 -41l9 -54l-3 -41l-8 -35l-12 -31l-3 -156l-21 -7l-50 70l-27 -7l-19 -140l-32 4l-7 -4l-4 -94l30 -19l16 -14l-3 -15zM213 540l36 24h32l18 -12l8 3l4 14l7 5l10 -4v-18h8l10 22l11 8l-5 6l-3 8l1 21
l-30 -10l-10 -8l-8 5l4 21l14 10l11 11l38 -2l12 13l-4 8h-49l-45 -13l-53 -26l-29 -23l-25 -34l29 12l13 -15l-17 -20l-10 -3l17 -3h5zM391 625l-7 17l-8 -9v-19l12 -6zM449 564l6 6l-9 18l17 28l-15 9v5l-25 7v-20l-13 -5v-9l-9 -6l-3 -12l5 -6l19 11l8 -2l6 -24h13z
M533 418h23l6 11l-18 6l-5 9l9 42h7l14 -20l17 -1l-8 37l-19 50l-20 36l-23 28l-34 21h-11l17 -19l25 -10l11 -11l3 -33l-25 13l-15 -29l12 -8v-19l15 3l-12 26l15 -5l10 -20l-5 -12l-8 -7h-23l-3 11l-12 2l1 -22h-14l14 -18l-7 -10l-21 5l-3 -27l41 6l8 17l22 -2l6 -28
l-16 -13v-15l8 -6zM463 521l-2 9l-8 -4v-9l8 -3zM243 510l-4 12l-55 -24zM369 495l-48 25l-4 -12l49 -17zM72 434l57 -32l7 10l-68 38v18l59 -34l43 -28l28 -14l3 10l-103 64l-13 7l-41 33l2 -78l19 -17v-5h-21l19 -14l1 -11l-20 7l18 -18l-4 -7l3 -97l11 -12v180zM238 437
l16 12l6 12l2 13l-22 -4l6 -10l-12 -13l-14 -1l-6 8l1 4l14 2l-13 6l2 7l-20 -1l3 -19l14 -15l12 -6zM347 440l6 9l5 20l-30 2l7 -5l1 -11l-7 -11h-12l-5 7l11 8l-15 2v6l-23 4l3 -17l8 -14l20 -9l13 -1zM219 134l2 40l41 -3l3 9l-44 6v16l48 -6l1 9l-47 7l1 22l43 -3l3 6

<glyph glyph-name="fi" unicode="fi" horiz-adv-x="586" 
d="M25 13l62 7v429h-62v13h62v10q0 46 12 76.5t43 58.5l109 103h262v-118h-12l-99 33h-188l-4 -13q-6 -20 -7 -41t-1 -73v-36h191l101 18h13v-460l59 -7v-13h-232v13l58 7v429h-190v-429l94 -7v-13h-271v13z" />
    <glyph glyph-name="fl" unicode="fl" horiz-adv-x="580" 
d="M29 13l58 7v429h-62v13h62v10q0 46 13 77.5t42 57.5l109 103h256v-690l58 -7v-13h-231v13l58 7v429h-190v-429l94 -7v-13h-267v13zM392 462v163h-178l-4 -13q-5 -18 -6.5 -40.5t-1.5 -73.5v-36h190z" />
    <glyph glyph-name="f_f" unicode="ff" horiz-adv-x="638" 
d="M25 13l62 7v429h-62v13h62v4q0 45 13 75t42 57l109 103h166l-96 -85h-107l-4 -13q-5 -18 -6.5 -40.5t-1.5 -73.5v-27h190v10q0 46 13 77t42 58l109 103h107v-85h-144l-3 -13q-6 -18 -7.5 -40t-1.5 -74v-36h124v-13h-124v-429l98 -7v-13h-271v13l58 7v429h-190v-429l94 -7
v-13h-271v13z" />
    <glyph glyph-name="f_f_i" unicode="ffi" horiz-adv-x="891" 
d="M25 13l62 7v429h-62v13h62v4q0 45 13 75t42 57l109 103h166l-96 -85h-107l-4 -13q-5 -18 -6.5 -40.5t-1.5 -73.5v-27h190v10q0 46 13 77t42 58l109 103h262v-118h-12l-99 33h-188l-3 -13q-6 -18 -7.5 -40t-1.5 -74v-36h191l102 18h12v-460l59 -7v-13h-232v13l58 7v429
h-190v-429l94 -7v-13h-271v13l62 7v429h-190v-429l94 -7v-13h-271v13z" />
    <glyph glyph-name="f_f_l" unicode="ffl" horiz-adv-x="885" 
d="M25 13l62 7v429h-62v13h62v4q0 45 13 75t42 57l109 103h170l-96 -85h-111l-4 -13q-5 -18 -6.5 -40.5t-1.5 -73.5v-27h190v10q0 46 12.5 77.5t41.5 57.5l110 103h256v-690l58 -7v-13h-232v13l59 7v429h-190v-429l94 -7v-13h-267v13l58 7v429h-190v-429l94 -7v-13h-271v13z
M697 462v163h-178l-4 -13q-5 -18 -6.5 -40.5t-1.5 -73.5v-36h190z" />
    <glyph glyph-name="T_h.liga" unicode="Th" horiz-adv-x="1053" 
d="M139 13l88 7v664h-123l-78 -185h-13v201h548l102 13h13v-339l179 111q45 0 70 -13.5t35.5 -45t10.5 -88.5v-318l66 -7v-13h-227v13l42 7v323q0 38 -12.5 55t-40.5 17q-22 0 -39.5 -8t-50.5 -28l-33 -19v-340l43 -7v-13h-216v13l58 7v664h-205v-664l85 -7v-13h-302v13z
" />
    <glyph glyph-name="f_b.liga" unicode="fb" horiz-adv-x="867" 
d="M397 22v603h-183l-4 -13q-5 -18 -6.5 -40.5t-1.5 -73.5v-36h116v-13h-116v-429l98 -7v-13h-275v13l62 7v429h-62v13h62v10q0 46 13 77.5t42 57.5l109 103h261v-324l149 99q48 0 87 -25t62 -73t23 -114q0 -125 -64.5 -195t-187.5 -93q-108 0 -184 37zM649 31
q27 27 42.5 77.5t15.5 117.5q0 187 -99 187q-19 0 -33 -6.5t-42 -23.5l-21 -12v-330q13 -19 32 -28t45 -9q33 0 60 27z" />
    <glyph glyph-name="f_f_b.liga" unicode="ffb" horiz-adv-x="1172" 
d="M702 22v603h-183l-3 -13q-6 -18 -7.5 -40t-1.5 -74v-36h116v-13h-116v-429l98 -7v-13h-275v13l62 7v429h-190v-429l94 -7v-13h-271v13l62 7v429h-62v13h62v4q0 45 13 75t42 57l109 103h166l-96 -85h-107l-4 -13q-5 -18 -6.5 -40.5t-1.5 -73.5v-27h190v10q0 46 13 77
t42 58l109 103h261v-324l149 99q48 0 87 -25t62 -73t23 -114q0 -125 -64.5 -195t-187.5 -93q-108 0 -184 37zM954 31q27 27 42.5 77.5t15.5 117.5q0 187 -99 187q-19 0 -33 -6.5t-42 -23.5l-21 -12v-330q13 -19 32 -28t45 -9q33 0 60 27z" />
    <glyph glyph-name="f_f_h.liga" unicode="ffh" horiz-adv-x="1189" 
d="M25 13l62 7v429h-62v13h62v4q0 45 13 75t42 57l109 103h166l-96 -85h-107l-4 -13q-5 -18 -6.5 -40.5t-1.5 -73.5v-27h190v10q0 46 13 77t42 58l109 103h256v-336l179 111q47 0 72 -15.5t34.5 -47t9.5 -84.5v-318l66 -7v-13h-227v13l42 7v323q0 39 -13 55.5t-41 16.5
q-22 0 -39 -7.5t-50 -28.5l-33 -19v-340l43 -7v-13h-216v13l58 7v605h-178l-3 -13q-6 -18 -7.5 -40t-1.5 -74v-36h116v-13h-116v-429l98 -7v-13h-275v13l62 7v429h-190v-429l94 -7v-13h-271v13z" />
    <glyph glyph-name="f_f_j.liga" unicode="ffj" horiz-adv-x="873" 
d="M584 -134h104l2 18q7 59 7 110v455h-190v-429l98 -7v-13h-275v13l62 7v429h-190v-429l94 -7v-13h-271v13l62 7v429h-62v13h62v4q0 45 13 75t42 57l109 103h166l-96 -85h-107l-4 -13q-5 -18 -6.5 -40.5t-1.5 -73.5v-27h190v10q0 46 13 77t42 58l109 103h262v-118h-12
l-99 33h-188l-3 -13q-6 -18 -7.5 -40t-1.5 -74v-36h191l102 18h12v-456q0 -53 -12.5 -82.5t-49.5 -66.5l-101 -113h-65v104z" />
    <glyph glyph-name="f_f_k.liga" unicode="ffk" horiz-adv-x="1168" 
d="M25 13l62 7v429h-62v13h62v4q0 45 13 75t42 57l109 103h166l-96 -85h-107l-4 -13q-5 -18 -6.5 -40.5t-1.5 -73.5v-27h189v10q0 46 13 77t42 58l109 103h256v-444l229 184l-70 7v13h168v-13l-68 -7l-231 -181l87 17l198 -267l39 -6v-13h-172l-180 255v-235l58 -7v-13h-231
v13l58 7v605h-178l-3 -13q-6 -18 -7.5 -40t-1.5 -74v-36h116v-13h-116v-429l94 -7v-13h-267v13l58 7v429h-189v-429l94 -7v-13h-271v13z" />
    <glyph glyph-name="f_h.liga" unicode="fh" horiz-adv-x="884" 
d="M25 13l62 7v429h-62v13h62v10q0 46 13 77.5t42 57.5l109 103h256v-336l179 111q47 0 72 -15.5t34.5 -47t9.5 -84.5v-318l66 -7v-13h-228v13l43 7v323q0 39 -13 55.5t-41 16.5q-22 0 -39 -7.5t-50 -28.5l-33 -19v-340l43 -7v-13h-216v13l58 7v605h-178l-4 -13
q-5 -18 -6.5 -40.5t-1.5 -73.5v-36h116v-13h-116v-429l98 -7v-13h-275v13z" />
    <glyph glyph-name="f_j.liga" unicode="fj" horiz-adv-x="567" 
d="M279 -134h104l2 18q7 59 7 110v455h-190v-429l98 -7v-13h-275v13l62 7v429h-62v13h62v10q0 46 13 77.5t42 57.5l109 103h262v-118h-12l-99 33h-188l-4 -13q-5 -18 -6.5 -40.5t-1.5 -73.5v-36h191l101 18h13v-456q0 -53 -12.5 -82.5t-49.5 -66.5l-101 -113h-65v104z" />
    <glyph glyph-name="f_k.liga" unicode="fk" horiz-adv-x="864" 
d="M25 13l62 7v429h-62v13h62v10q0 46 13 77.5t42 57.5l109 103h256v-444l229 184l-70 7v13h168v-13l-69 -7l-230 -181l87 17l198 -267l39 -6v-13h-173l-179 255v-235l58 -7v-13h-231v13l58 7v605h-178l-4 -13q-5 -18 -6.5 -40.5t-1.5 -73.5v-36h116v-13h-116v-429l94 -7
v-13h-271v13z" />
    <glyph glyph-name="f_t.liga" unicode="ft" horiz-adv-x="650" 
d="M406 18q-25 33 -25 94v337h-179v-429l94 -7v-13h-271v13l62 7v429h-62v13h62v13q0 45 13 75t42 57l109 103h170l-96 -85h-111l-4 -13q-5 -18 -6.5 -40.5t-1.5 -73.5v-36h179v72l115 64v-136h135v-13h-135v-332q0 -32 15.5 -48t42.5 -16q22 0 40.5 5.5t43.5 18.5l6 -12
l-153 -80q-60 0 -85 33z" />
    <glyph glyph-name="f_y.liga" unicode="fy" horiz-adv-x="824" 
d="M371 -127h125l108 177l-104 -42l-164 449h-134v-437l98 -7v-13h-275v13l62 7v437h-62v13h62v10q0 43 13 71.5t42 55.5l109 103h107v-85h-144l-4 -13q-5 -16 -6.5 -39t-1.5 -67v-36h322v-13l-54 -7l139 -385l135 385l-64 7v13h139v-13l-53 -7l-144 -409l-128 -276h-123
v108z" />
    <glyph glyph-name="g_g.liga" unicode="gg" horiz-adv-x="1028" 
d="M69.5 -215.5q-51.5 27.5 -51.5 92.5v18l115 85q-48 11 -71 37.5t-23 62.5v17l102 78q-46 17 -73 53.5t-27 83.5q0 65 49.5 106t151.5 66q61 0 107 -26t63 -69l50 95h41l-16 -106h-65l-6 -6q8 -15 8 -36q-1 -66 -49.5 -107.5t-150.5 -68.5q-37 0 -70 11l-37 -37
q0 -53 56 -53h184q51 0 78.5 -28t27.5 -70q0 -75 -62.5 -129.5t-174.5 -96.5q-105 0 -156.5 27.5zM554 -215.5q-49 27.5 -49 92.5v18l107 85q-47 11 -69.5 37t-22.5 63v17l99 78q-48 17 -75.5 53.5t-27.5 83.5q0 65 49.5 106t151.5 66q61 0 107 -26t64 -69l49 95h47v-106
h-87l-6 -6q8 -15 8 -36q-1 -66 -49.5 -107.5t-150.5 -68.5q-34 0 -67 11l-37 -37q0 -53 56 -53h198q50 0 78 -28.5t28 -69.5q0 -75 -67 -129.5t-187 -96.5q-98 0 -147 27.5zM310 312q0 153 -85 153q-35 0 -52.5 -34t-17.5 -98q0 -152 84 -152q71 0 71 131zM785 312
q0 153 -85 153q-35 0 -52.5 -34t-17.5 -98q0 -152 85 -152q70 0 70 131zM360.5 -152.5q45.5 29.5 45.5 73.5q0 58 -71 58h-189q-35 -30 -35 -77q0 -39 34.5 -62t96.5 -23q73 1 118.5 30.5zM812 -169q41 14 63.5 37.5t22.5 52.5q0 58 -71 58h-202q-29 -30 -29 -77
q0 -40 32 -62.5t90 -22.5q53 0 94 14z" />
    <glyph glyph-name="k_y.liga" unicode="ky" horiz-adv-x="1017" 
d="M564 -127h126l107 177l-104 -42l-160 444h-70l-230 -183l87 17l198 -267l38 -6v-13h-172l-179 255v-235l58 -7v-13h-232v13l59 7v657l-58 -9l-2 14l162 31h13v-447l229 184l-70 7v13h353v-13l-54 -7l139 -385l135 385l-64 7v13h139v-13l-52 -7l-145 -409l-127 -276h-124
v108z" />
    <glyph glyph-name="t_t.liga" unicode="tt" horiz-adv-x="651" 
d="M102.5 16q-27.5 31 -27.5 96v337h-70v13h70v72l115 64v-136h192v72l115 64v-136h135v-13h-135v-332q0 -32 15 -48t43 -16q21 0 40 5.5t44 18.5l6 -12l-153 -80q-55 0 -82.5 31t-27.5 96v337h-192v-335q0 -30 14 -45.5t38 -15.5q20 0 39 5.5t44 18.5l6 -12l-146 -80
q-55 0 -82.5 31z" />
    <glyph glyph-name="t_y.liga" unicode="ty" horiz-adv-x="787" 
d="M334 -127h125l107 177l-104 -42l-163 449h-109v-340q0 -32 15.5 -48t42.5 -16q22 0 39.5 4.5t38.5 16.5l6 -12l-147 -77q-60 0 -85 33t-25 94v345h-70v13h70v64l115 64v-128h297v-13l-55 -7l139 -385l135 385l-63 7v13h139v-13l-53 -7l-144 -409l-128 -276h-123v108z" />
    <glyph glyph-name=".notdef" horiz-adv-x="625" 
d="M432 -28l-24 18h-14l-8 8l7 76l-4 47l-61 1l-3 -52l-2 -56v-20l-15 -6l-8 6l-30 -10h-32l-1 11l11 11l50 21l-6 96l-98 -6l-147 140l-4 115l-13 10l-10 36v26l15 8l-3 78l92 -62l9 47l10 36l22 35l28 35l39 29l78 29h22l-68 22l4 17h7l79 -20l-4 51l16 12h32l19 -5
l29 -25l32 -8l32 -10l15 -13v-20l-20 -31l30 -28l28 -32l18 -34l15 -41l9 -54l-3 -41l-8 -35l-12 -31l-3 -156l-21 -7l-50 70l-27 -7l-19 -140l-32 4l-7 -4l-4 -94l30 -19l16 -14l-3 -15zM213 540l36 24h32l18 -12l8 3l4 14l7 5l10 -4v-18h8l10 22l11 8l-5 6l-3 8l1 21
l-30 -10l-10 -8l-8 5l4 21l14 10l11 11l38 -2l12 13l-4 8h-49l-45 -13l-53 -26l-29 -23l-25 -34l29 12l13 -15l-17 -20l-10 -3l17 -3h5zM391 625l-7 17l-8 -9v-19l12 -6zM449 564l6 6l-9 18l17 28l-15 9v5l-25 7v-20l-13 -5v-9l-9 -6l-3 -12l5 -6l19 11l8 -2l6 -24h13z
M533 418h23l6 11l-18 6l-5 9l9 42h7l14 -20l17 -1l-8 37l-19 50l-20 36l-23 28l-34 21h-11l17 -19l25 -10l11 -11l3 -33l-25 13l-15 -29l12 -8v-19l15 3l-12 26l15 -5l10 -20l-5 -12l-8 -7h-23l-3 11l-12 2l1 -22h-14l14 -18l-7 -10l-21 5l-3 -27l41 6l8 17l22 -2l6 -28
l-16 -13v-15l8 -6zM463 521l-2 9l-8 -4v-9l8 -3zM243 510l-4 12l-55 -24zM369 495l-48 25l-4 -12l49 -17zM72 434l57 -32l7 10l-68 38v18l59 -34l43 -28l28 -14l3 10l-103 64l-13 7l-41 33l2 -78l19 -17v-5h-21l19 -14l1 -11l-20 7l18 -18l-4 -7l3 -97l11 -12v180zM238 437
l16 12l6 12l2 13l-22 -4l6 -10l-12 -13l-14 -1l-6 8l1 4l14 2l-13 6l2 7l-20 -1l3 -19l14 -15l12 -6zM347 440l6 9l5 20l-30 2l7 -5l1 -11l-7 -11h-12l-5 7l11 8l-15 2v6l-23 4l3 -17l8 -14l20 -9l13 -1zM219 134l2 40l41 -3l3 9l-44 6v16l48 -6l1 9l-47 7l1 22l43 -3l3 6
l-45 9l3 94h74l11 10h-79l2 9h74l8 7h-82l2 22l117 4l140 -4v11l-4 7h-205l-66 -3l-7 -9l-6 -44l-48 20l-11 -4l57 -27l1 -45l-5 -73v-91zM534 386l5 7v7l-10 -4v-10h5zM403 336l4 30l-54 5l-3 -35h53zM172 291l4 40l-66 39v-7l-2 -13l1 -27v-48l64 -44zM518 302l20 15
l13 13l11 18l-7 5h-14l-10 3l-14 7l-17 -3l-6 -48q1 1 7.5 -4.5t8.5 -7.5zM481 350l4 9h-48v-13zM461 221l4 36l-15 3l-1 8l20 1l5 3l-28 16l2 5l30 -6l-30 15l5 5l21 -5l4 10l3 19l-54 1l-1 -24v-6l-2 -31l19 -3l-8 -61l-48 3l-8 -6l51 -5l-2 -9h-49l-4 -5l53 -7l-6 -35
l27 -1zM364 302v10h-73v-10h73zM559 312l-6 -3l-33 -27l39 -48v78zM364 281l-72 7l-6 -13l78 -4v10zM354 250v6l-68 4v-10h68zM176 203l-74 50l20 -23l50 -41zM350 214l-64 4v-51l64 -6v53z" />
    <glyph glyph-name=".null" horiz-adv-x="0" 
 />
    <glyph glyph-name="nonmarkingreturn" unicode="&#xd;" horiz-adv-x="320" 
 />
    <glyph glyph-name="space" unicode=" " horiz-adv-x="238" 
 />
    <glyph glyph-name="exclam" unicode="!" horiz-adv-x="291" 
d="M90 397l-9 313h130l-9 -312l-45 -191h-23zM94 0l-6 57l10 46l72 5l27 -5l5 -55l-10 -48l-72 -6z" />
    <glyph glyph-name="quotedbl" unicode="&#x22;" horiz-adv-x="391" 
d="M49 639l20 66h83l20 -66l-57 -202h-8zM222 639l20 66h83l20 -66l-58 -202h-7z" />
    <glyph glyph-name="numbersign" unicode="#" horiz-adv-x="612" 
d="M179 207h-139l3 24h139l23 191h-139l4 24h138l26 209h26l-26 -209h174l26 209h26l-26 -209h138l-3 -24h-138l-24 -191h139l-4 -24h-137l-25 -207h-26l25 207h-174l-25 -207h-26zM382 231l23 191h-174l-24 -191h175z" />
    <glyph glyph-name="dollar" unicode="$" horiz-adv-x="546" 
d="M293 -5v-75h-15v71q-9 -3 -27 -7q-61 0 -108.5 14t-96.5 45v175h13l49 -120q35 -39 74 -62t85 -23h11v275l-112 71q-58 35 -86 70t-28 92q0 74 55.5 124t170.5 70v66h15v-65q53 -1 95 -9.5t88 -28.5v-171h-12l-58 135q-49 49 -113 53v-260l88 -55q63 -39 91.5 -79.5
t28.5 -98.5q0 -145 -208 -207zM278 444v251q-54 -2 -86.5 -31.5t-32.5 -78.5q0 -41 23.5 -69t73.5 -58zM369.5 54q28.5 32 28.5 80q0 44 -24 77t-81 67v-263q48 7 76.5 39z" />
    <glyph glyph-name="percent" unicode="%" horiz-adv-x="822" 
d="M649 705h30l-492 -710h-32zM92.5 401q-42.5 46 -42.5 121q0 79 46 121.5t137 60.5q70 0 112.5 -46.5t42.5 -121.5q0 -78 -47 -121.5t-138 -59.5q-68 0 -110.5 46zM279 408q18 36 18 103q0 85 -21.5 130.5t-64.5 45.5q-35 0 -53 -36.5t-18 -103.5q0 -84 21.5 -129.5
t63.5 -45.5q36 0 54 36zM477 42.5q-42 46.5 -42 121.5q0 78 46 120.5t137 61.5q69 0 111.5 -46.5t42.5 -121.5q0 -79 -46.5 -122.5t-137.5 -59.5q-69 0 -111 46.5zM664 49q18 36 18 103q0 84 -22 130t-64 46q-36 0 -54 -36.5t-18 -103.5q0 -84 22 -129.5t64 -45.5
q36 0 54 36z" />
    <glyph glyph-name="ampersand" unicode="&#x26;" horiz-adv-x="694" 
d="M156 5.5q-50 20.5 -80 58.5t-30 87q0 69 42.5 117.5t120.5 90.5q-52 60 -74 89t-30 51t-8 50q0 62 51.5 101.5t159.5 67.5q94 0 145.5 -37t51.5 -94q0 -51 -42 -91.5t-136 -89.5l156 -186l108 127l-69 7v13h159v-13l-65 -7l-122 -141l157 -186l48 -7v-13h-179l-105 121
q-26 -30 -67 -67t-82 -69q-60 0 -110 20.5zM371.5 492.5q13.5 42.5 13.5 95.5q0 48 -25 78t-66 30q-40 0 -62 -24.5t-22 -69.5q0 -33 23.5 -73.5t83.5 -110.5q41 32 54.5 74.5zM348.5 89.5q24.5 13.5 54.5 45.5l-184 213q-68 -47 -68 -128q0 -39 18.5 -72t50.5 -52.5
t71 -19.5q33 0 57.5 13.5z" />
    <glyph glyph-name="quotesingle" unicode="'" horiz-adv-x="215" 
d="M49 639l20 66h83l20 -66l-57 -202h-8z" />
    <glyph glyph-name="parenleft" unicode="(" horiz-adv-x="299" 
d="M141 -82.5q-50 72.5 -73 150.5t-23 175t23 175t73 150.5t136 152.5l7 -7q-85 -90 -122 -208t-37 -263q0 -144 37.5 -263t121.5 -208l-7 -7q-86 80 -136 152.5z" />
    <glyph glyph-name="parenright" unicode=")" horiz-adv-x="299" 
d="M15 -228q84 89 121 207.5t37 263.5t-37 263.5t-121 207.5l6 7q86 -80 136.5 -152.5t73.5 -151t23 -174.5t-23 -174.5t-73.5 -151t-136.5 -152.5z" />
    <glyph glyph-name="asterisk" unicode="*" horiz-adv-x="418" 
d="M75 466l129 93l-159 -1l32 100l128 -95l-49 152h105l-50 -152l129 94l33 -100l-161 2l130 -93l-84 -62l-50 152l-48 -152z" />
    <glyph glyph-name="plus" unicode="+" 
d="M297 242h-245v26h245v247h26v-247h245v-26h-245v-242h-26v242z" />
    <glyph glyph-name="comma" unicode="," horiz-adv-x="248" 
d="M98 -140l14 32q20 46 47 104l-39 -2l-29 6l-6 64l11 52l79 6l32 -6l6 -61l-11 -55l-92 -145z" />
    <glyph glyph-name="hyphen" unicode="-" horiz-adv-x="370" 
d="M33 297h305v-38h-305v38z" />
    <glyph glyph-name="period" unicode="." horiz-adv-x="238" 
d="M76 0l-6 64l11 52l81 6l30 -6l6 -61l-11 -55l-82 -6z" />
    <glyph glyph-name="slash" unicode="/" horiz-adv-x="461" 
d="M443 718h28l-451 -948h-30z" />
    <glyph glyph-name="zero" unicode="0" horiz-adv-x="575" 
d="M148 15q-51 30 -79.5 84.5t-28.5 125.5q0 111 68 172t201 88q67 0 118 -30t79.5 -85t28.5 -126q0 -112 -69 -174t-201 -85q-66 0 -117 30zM378.5 66.5q27.5 58.5 27.5 154.5q0 110 -30.5 174.5t-98.5 64.5q-58 0 -85.5 -58.5t-27.5 -153.5q0 -111 30.5 -175.5t97.5 -64.5
q59 0 86.5 58.5z" />
    <glyph glyph-name="one" unicode="1" horiz-adv-x="428" 
d="M31 13l134 7v399l-130 -46l-5 13l238 97h12v-463l130 -7v-13h-379v13z" />
    <glyph glyph-name="two" unicode="2" horiz-adv-x="490" 
d="M20 12l121 97q93 71 127.5 129.5t34.5 115.5q0 52 -22.5 78t-58.5 26q-18 0 -33 -5.5t-19 -6.5l-30 -142h-105v100l216 87q92 0 135.5 -35t43.5 -90q0 -66 -56 -125.5t-168 -116.5l-64 -28h318v-12l-32 -84h-400z" />
    <glyph glyph-name="three" unicode="3" horiz-adv-x="494" 
d="M30 -127h240q31 30 44 57.5t13 64.5q0 64 -51 103.5t-133 38.5l-4 13l57 35q61 32 85.5 67.5t24.5 91.5q0 47 -24.5 77t-63.5 30q-26 0 -54 -13l-39 -134h-98v102l248 85q70 0 113 -33.5t43 -86.5q0 -109 -189 -169q60 -2 107.5 -23t74.5 -56t27 -77q0 -61 -39.5 -105.5
t-135.5 -90.5l-165 -79h-81v102z" />
    <glyph glyph-name="four" unicode="4" horiz-adv-x="554" 
d="M295 -2h-273l-10 13l300 462h148v-12l-428 -447h263v160l116 67v-227h133v-16h-133v-225h-116v225z" />
    <glyph glyph-name="five" unicode="5" horiz-adv-x="487" 
d="M39 -124h195q48 37 69 78t21 93t-27.5 84t-79.5 32q-30 0 -53 -7t-61 -27l-39 -21l-7 5l40 363h351l-18 -99h-328l-28 -252l212 113q79 0 121.5 -41.5t42.5 -104.5q0 -74 -47 -127.5t-144 -104.5l-164 -86h-56v102z" />
    <glyph glyph-name="six" unicode="6" horiz-adv-x="564" 
d="M475 393.5q43 -55.5 43 -135.5q0 -98 -60.5 -169.5t-187.5 -103.5q-72 0 -123 37.5t-77.5 101t-26.5 140.5q0 100 40.5 190t126.5 159.5t216 106.5l4 -11q-101 -41 -156 -94.5t-76.5 -123.5t-23.5 -172l178 130q80 0 123 -55.5zM391 209q0 83 -22.5 126.5t-62.5 43.5
q-22 0 -42.5 -12t-64.5 -46l-25 -16v-13q0 -136 32 -209.5t83 -73.5q102 0 102 200z" />
    <glyph glyph-name="seven" unicode="7" horiz-adv-x="485" 
d="M87 -213l325 587h-392v102h436l9 -11l-291 -689h-87v11z" />
    <glyph glyph-name="eight" unicode="8" horiz-adv-x="559" 
d="M486.5 262q24.5 -37 24.5 -86q0 -76 -58 -121t-182 -70q-95 3 -159 47.5t-64 129.5q0 60 44 101.5t118 72.5l-50 40q-47 39 -73.5 76.5t-26.5 83.5q0 70 56 113t170 67q102 -4 158 -42t56 -108q0 -52 -40 -93t-122 -73l79 -64q45 -37 69.5 -74zM203 671q-26 -22 -26 -66
t29 -82.5t90 -88.5l28 -23q34 33 46.5 69t12.5 80q0 63 -31 98t-82 35q-41 0 -67 -22zM361 32.5q30 25.5 30 83.5q0 44 -21.5 76t-75.5 76l-70 56q-29 -31 -45 -67.5t-16 -75.5q0 -58 19 -97t48 -58t59 -19q42 0 72 25.5z" />
    <glyph glyph-name="nine" unicode="9" horiz-adv-x="565" 
d="M396.5 456q51.5 -35 80 -98.5t28.5 -147.5q0 -105 -46 -195.5t-132 -156.5t-205 -100l-5 11q132 60 192.5 150t64.5 238l-173 -131q-50 0 -88.5 24.5t-60.5 69t-22 103.5q0 98 63 167t185 101q67 0 118.5 -35zM374 171v10q0 124 -29.5 204.5t-91.5 80.5q-45 0 -70.5 -50
t-25.5 -143q0 -86 23.5 -130.5t70.5 -44.5q20 0 34.5 8.5t56.5 40.5z" />
    <glyph glyph-name="colon" unicode=":" horiz-adv-x="253" 
d="M81 363l-6 64l11 53l81 6l30 -6l6 -62l-11 -55l-82 -5zM81 0l-6 64l11 52l81 6l30 -6l6 -61l-11 -55l-82 -6z" />
    <glyph glyph-name="semicolon" unicode=";" horiz-adv-x="273" 
d="M81 363l-6 64l11 53l81 6l30 -6l6 -62l-11 -55l-82 -5zM88 -140l14 32q20 46 47 104l-39 -2l-29 6l-6 64l11 52l79 6l32 -6l6 -61l-11 -55l-92 -145z" />
    <glyph glyph-name="less" unicode="&#x3c;" 
d="M50 277v18l520 241v-29l-485 -221l485 -220v-28z" />
    <glyph glyph-name="equal" unicode="=" 
d="M50 354h520v-26h-520v26zM50 162h520v-26h-520v26z" />
    <glyph glyph-name="greater" unicode="&#x3e;" 
d="M50 66l485 220l-485 221v29l520 -241v-18l-520 -239v28z" />
    <glyph glyph-name="question" unicode="?" horiz-adv-x="424" 
d="M123 333l36 28q52 41 74.5 86.5t22.5 114.5q0 57 -26 93.5t-81 42.5l-60 -138h-42v137l111 13q72 -3 119.5 -25.5t70 -57.5t22.5 -75q0 -65 -35.5 -108.5t-110.5 -72.5l-52 -24l-10 -141h-23zM99 0l-6 57l10 46l72 5l27 -5l5 -55l-10 -48l-72 -6z" />
    <glyph glyph-name="at" unicode="@" horiz-adv-x="925" 
d="M239.5 -67.5q-90.5 46.5 -140 130t-49.5 189.5q0 95 43.5 178t121.5 145t179 95l97 30q124 0 212 -36t132.5 -100t44.5 -148q0 -88 -43 -161.5t-115.5 -119t-157.5 -51.5l-64 65l23 102l-142 -169q-32 4 -59.5 24.5t-44.5 55.5t-17 81q0 80 49 145t129 101l106 48
l116 -59l-79 -380q51 4 99.5 41.5t79.5 104t31 151.5q0 79 -36.5 142.5t-103.5 99.5t-154 36q-92 0 -174.5 -48.5t-133.5 -137.5t-51 -204t50.5 -194.5t131.5 -118.5t174 -39q94 0 191 59l5 -9q-57 -34 -123.5 -59.5t-118.5 -35.5q-118 0 -208.5 46.5zM527 271l39 170
l-90 55q-68 -38 -98 -95.5t-30 -114.5q0 -50 20 -82.5t58 -45.5z" />
    <glyph glyph-name="A" unicode="A" horiz-adv-x="699" 
d="M5 13l65 7l232 654l95 40l233 -694l64 -7v-13h-287v12l81 8l-74 229h-242l-79 -229l82 -8v-12h-170v13zM409 267l-111 343l-119 -343h230z" />
    <glyph glyph-name="B" unicode="B" horiz-adv-x="625" 
d="M26 13l72 7v660l-72 7v13h337q61 0 105 -21.5t66.5 -56.5t22.5 -76q0 -49 -28 -87.5t-77.5 -61t-113.5 -25.5q127 -3 189 -50.5t62 -121.5q0 -93 -69 -144t-189 -56h-305v13zM308 378q55 0 86 46.5t31 120.5q0 65 -29.5 103.5t-83.5 38.5l-85 -7v-302h81zM419.5 63
q37.5 50 37.5 132q0 81 -40.5 124t-104.5 43h-85v-342l76 -7q79 0 116.5 50z" />
    <glyph glyph-name="C" unicode="C" horiz-adv-x="684" 
d="M215.5 24.5q-81.5 40.5 -130.5 120t-49 190.5q0 168 99 266t272 115q71 0 125 -13t106 -38v-175h-13l-70 150q-28 29 -62 44.5t-82 15.5q-64 0 -116 -39t-82 -117.5t-30 -190.5q0 -99 25.5 -178t78.5 -125.5t132 -46.5q39 0 75.5 16t61.5 41l70 161h12v-176
q-61 -26 -114.5 -40t-128.5 -21q-98 0 -179.5 40.5z" />
    <glyph glyph-name="D" unicode="D" horiz-adv-x="725" 
d="M26 13l78 7v660l-78 7v13h323q106 0 182.5 -40t117 -115.5t40.5 -179.5q0 -160 -86.5 -258.5t-254.5 -106.5h-322v13zM447 56.5q49 43.5 76 122t27 181.5q0 150 -55.5 238.5t-169.5 88.5l-92 -7v-660l101 -7q64 0 113 43.5z" />
    <glyph glyph-name="E" unicode="E" horiz-adv-x="602" 
d="M26 13l72 7v660l-72 7v13h542v-185h-13l-71 169h-257v-309h143l46 121h12v-258h-12l-46 121h-143v-343h263l68 175h13v-191h-545v13z" />
    <glyph glyph-name="F" unicode="F" horiz-adv-x="579" 
d="M26 13l72 7v660l-72 7v13h540v-192h-13l-75 176h-251v-324h143l46 131h12v-278h-12l-46 131h-143v-324l81 -7v-13h-282v13z" />
    <glyph glyph-name="G" unicode="G" horiz-adv-x="723" 
d="M208 25.5q-79 41.5 -125.5 121t-46.5 188.5q0 167 99.5 266.5t277.5 114.5q129 0 225 -51v-175h-13l-71 150q-26 28 -60 44t-81 16q-69 0 -121 -44t-80.5 -123t-28.5 -183q0 -97 23.5 -176.5t72 -126.5t119.5 -47q39 0 70 14.5t49 37.5v243l-75 9v14h260v-14l-56 -9v-250
q-123 -55 -265 -61q-94 0 -173 41.5z" />
    <glyph glyph-name="H" unicode="H" horiz-adv-x="738" 
d="M26 13l72 7v660l-72 7v13h270v-13l-69 -7v-307h284v307l-69 7v13h270v-13l-72 -7v-660l72 -7v-13h-270v13l69 7v335h-284v-335l69 -7v-13h-270v13z" />
    <glyph glyph-name="I" unicode="I" horiz-adv-x="324" 
d="M26 13l72 7v660l-72 7v13h272v-13l-71 -7v-660l71 -7v-13h-272v13z" />
    <glyph glyph-name="J" unicode="J" horiz-adv-x="343" 
d="M2 -72h111l3 24q5 38 5 139v589l-93 7v13h293v-13l-71 -7v-548q0 -67 -25 -116t-68 -95l-87 -96h-68v103z" />
    <glyph glyph-name="K" unicode="K" horiz-adv-x="708" 
d="M698 13v-13h-197l-274 350v-330l69 -7v-13h-270v13l72 7v660l-72 7v13h270v-13l-69 -7v-312l330 312l-90 8v12h200v-12l-87 -8l-325 -310l95 30l294 -380z" />
    <glyph glyph-name="L" unicode="L" horiz-adv-x="566" 
d="M26 13l72 7v660l-72 7v13h272v-13l-71 -7v-660h236l80 176h13v-196h-530v13z" />
    <glyph glyph-name="M" unicode="M" horiz-adv-x="904" 
d="M26 13l72 7v660l-72 7v13h213l225 -568l211 568h203v-13l-73 -7v-660l73 -7v-13h-266v13l64 7v628l-241 -653h-64l-256 669v-644l72 -7v-13h-161v13z" />
    <glyph glyph-name="N" unicode="N" horiz-adv-x="684" 
d="M115 660v-640l78 -7v-13h-167v13l72 7v660l-72 7v13h221l338 -521v501l-77 7v13h166v-13l-72 -7v-685h-61z" />
    <glyph glyph-name="O" unicode="O" horiz-adv-x="765" 
d="M196.5 29.5q-76.5 45.5 -118.5 125.5t-42 181q0 160 88 254.5t269 125.5q99 0 175.5 -45.5t118.5 -125.5t42 -181q0 -160 -88 -254.5t-269 -125.5q-99 0 -175.5 45.5zM500.5 51q40.5 43 61 116t20.5 163q0 104 -28.5 186.5t-78.5 129t-113 46.5q-56 0 -96.5 -43
t-61.5 -116t-21 -163q0 -104 28.5 -186.5t78.5 -129t113 -46.5q57 0 97.5 43z" />
    <glyph glyph-name="P" unicode="P" horiz-adv-x="584" 
d="M26 13l72 7v660l-72 7v13h332q92 0 152.5 -46t60.5 -133q0 -62 -33 -102t-86.5 -62.5t-132.5 -41.5h-92v-295l76 -7v-13h-277v13zM294 331q41 0 72.5 23t49.5 64.5t18 93.5q0 78 -31.5 126.5t-95.5 48.5l-80 -7v-349h67z" />
    <glyph glyph-name="Q" unicode="Q" horiz-adv-x="765" 
d="M663 -143l44 -9l-1 -15h-159l-176 151q-98 0 -174.5 45.5t-118.5 125.5t-42 181q0 160 88 254.5t269 125.5q99 0 175.5 -45.5t118.5 -125.5t42 -181q0 -158 -85.5 -252t-262.5 -126l149 -19zM211.5 183.5q28.5 -82.5 78.5 -129t113 -46.5q57 0 97.5 43t61 116t20.5 163
q0 104 -28.5 186.5t-78.5 129t-113 46.5q-56 0 -96.5 -43t-61.5 -116t-21 -163q0 -104 28.5 -186.5z" />
    <glyph glyph-name="R" unicode="R" horiz-adv-x="658" 
d="M653 13v-13h-179l-186 332h-61v-312l66 -7v-13h-267v13l72 7v660l-72 7v13h335q87 0 146.5 -42.5t59.5 -129.5t-73 -134.5t-200 -60.5l148 -31l167 -282zM388 394q40 46 40 126q0 77 -35.5 121.5t-91.5 45.5l-74 -7v-332h46q75 0 115 46z" />
    <glyph glyph-name="S" unicode="S" horiz-adv-x="532" 
d="M136.5 -2q-47.5 14 -96.5 45v175h13l49 -120q35 -39 74 -62t85 -23q59 0 95 33t36 88q0 44 -24.5 77.5t-81.5 67.5l-126 80q-58 35 -86 70t-28 92q0 74 56.5 124.5t174.5 70.5q57 0 100.5 -8.5t92.5 -29.5v-171h-12l-58 135q-55 53 -124 53q-55 0 -89 -30t-34 -80
q0 -41 23.5 -69t73.5 -58l125 -78q63 -39 91.5 -79.5t28.5 -98.5q0 -159 -250 -218q-61 0 -108.5 14z" />
    <glyph glyph-name="T" unicode="T" horiz-adv-x="576" 
d="M136 13l88 7v664h-123l-78 -185h-13v201h556v-201h-13l-78 185h-122v-664l87 -7v-13h-304v13z" />
    <glyph glyph-name="U" unicode="U" horiz-adv-x="662" 
d="M147 53q-66 69 -66 190v437l-71 7v13h271v-13l-71 -7v-447q0 -89 47.5 -147t131.5 -58q49 0 86.5 27t58.5 74t21 104v447l-73 7v13h170v-13l-72 -7v-444q0 -102 -50 -165.5t-181 -86.5q-136 0 -202 69z" />
    <glyph glyph-name="V" unicode="V" horiz-adv-x="699" 
d="M69 680l-64 7v13h283v-12l-77 -8l196 -579l195 579l-81 8v12h173v-13l-70 -7l-224 -667l-87 -27z" />
    <glyph glyph-name="W" unicode="W" horiz-adv-x="1019" 
d="M67 680l-57 7v13h275v-13l-78 -7l173 -551l114 384l-55 167l-56 7v13h274v-13l-77 -7l172 -551l171 551l-83 7v13h169v-13l-64 -7l-209 -671l-72 -17l-160 488l-140 -471l-72 -17z" />
    <glyph glyph-name="X" unicode="X" horiz-adv-x="718" 
d="M10 13l99 7l200 289l-231 371l-59 8v12h277v-13l-66 -7l170 -273l183 273l-100 7v13h214v-13l-93 -7l-193 -290l231 -370l58 -7v-13h-279v13l69 7l-172 274l-187 -274l100 -7v-13h-221v13z" />
    <glyph glyph-name="Y" unicode="Y" horiz-adv-x="693" 
d="M188 13l103 7v253l-218 407l-68 7v13h300v-13l-83 -7l190 -369l190 369l-91 7v13h177v-13l-67 -7l-201 -394v-266l102 -7v-13h-334v13z" />
    <glyph glyph-name="Z" unicode="Z" horiz-adv-x="576" 
d="M16 9l387 675h-260l-86 -183h-13v199h510v-9l-385 -675h262l94 187h11v-203h-520v9z" />
    <glyph glyph-name="bracketleft" unicode="[" horiz-adv-x="314" 
d="M85 715h194v-13l-119 -7v-431v-474l119 -7v-13h-194v945z" />
    <glyph glyph-name="backslash" unicode="\" horiz-adv-x="425" 
d="M-28 718h28l453 -948h-30z" />
    <glyph glyph-name="bracketright" unicode="]" horiz-adv-x="306" 
d="M35 -217l120 7v487v418l-120 7v13h186v-945h-186v13z" />
    <glyph glyph-name="asciicircum" unicode="^" horiz-adv-x="367" 
d="M177 705h13l127 -245h-24l-109 219l-111 -219h-23z" />
    <glyph glyph-name="underscore" unicode="_" horiz-adv-x="565" 
d="M5 -71h555v-26h-555v26z" />
    <glyph glyph-name="grave" unicode="`" horiz-adv-x="600" 
d="M146 710h107l55 -161h-21z" />
    <glyph glyph-name="a" unicode="a" horiz-adv-x="491" 
d="M66.5 16.5q-38.5 31.5 -38.5 89.5q0 66 54 106l219 68v78q0 33 -4 52t-20.5 30t-50.5 11q-13 0 -24.5 -2t-27.5 -7l-22 -121h-107v81l197 83q66 0 104.5 -14t56 -46t17.5 -88v-218q0 -41 15 -89l50 6l1 -12l-160 -32l-23 85l-137 -92q-61 0 -99.5 31.5zM247.5 57.5
q17.5 7.5 31.5 17.5l22 15v178l-107 -41q-43 -36 -43 -92q0 -39 17.5 -62t45.5 -23q16 0 33.5 7.5z" />
    <glyph glyph-name="b" unicode="b" horiz-adv-x="539" 
d="M70 22v653l-58 -9l-2 16l162 31h13v-327l148 99q48 0 87 -25t62 -73t23 -114q0 -125 -64.5 -195t-187.5 -93q-109 0 -183 37zM321.5 31q26.5 27 42 77.5t15.5 117.5q0 187 -99 187q-19 0 -33 -6.5t-41 -23.5l-21 -12v-330q24 -37 77 -37q33 0 59.5 27z" />
    <glyph glyph-name="c" unicode="c" horiz-adv-x="449" 
d="M141.5 13q-51.5 28 -81 80.5t-29.5 121.5q0 76 33.5 133t89 91t122.5 46q32 0 72 -15.5t68 -37.5v-100h-93l-37 124q-14 6 -32 6q-51 0 -85 -42.5t-34 -131.5q0 -61 21.5 -110.5t59.5 -77.5t88 -28q33 0 59.5 9.5t56.5 30.5l4 -8q-41 -40 -79 -67t-87 -52
q-65 0 -116.5 28z" />
    <glyph glyph-name="d" unicode="d" horiz-adv-x="560" 
d="M123.5 15q-43.5 30 -68 82t-24.5 114q0 106 54 178.5t166 95.5q57 0 101 -27v219l-57 -9l-3 14l162 31h12v-592q0 -28 3 -46t13 -42l58 6l2 -13l-162 -34l-26 96l-134 -103q-53 0 -96.5 30zM294 65q13 6 39 24l19 12v326q-12 14 -30 23.5t-40 9.5q-62 -1 -93.5 -55
t-31.5 -148q0 -86 28.5 -142t76.5 -56q19 0 32 6z" />
    <glyph glyph-name="e" unicode="e" horiz-adv-x="474" 
d="M441 106q-45 -43 -84 -69.5t-94 -51.5q-63 0 -116 27t-84.5 79t-31.5 123q0 111 65 180t166 91q82 0 129.5 -47.5t47.5 -133.5v-32h-304q4 -90 52.5 -143t125.5 -53q32 0 61 10t60 29zM159.5 414.5q-24.5 -43.5 -24.5 -129.5h181v29q0 71 -18 107.5t-66 36.5t-72.5 -43.5
z" />
    <glyph glyph-name="f" unicode="f" horiz-adv-x="333" 
d="M25 13l62 7v429h-62v13h62v10q0 46 13 77.5t42 57.5l109 103h107v-85h-144l-4 -13q-5 -18 -6.5 -40.5t-1.5 -73.5v-36h123v-13h-123v-429l98 -7v-13h-275v13z" />
    <glyph glyph-name="g" unicode="g" horiz-adv-x="514" 
d="M69.5 -215.5q-51.5 27.5 -51.5 92.5v18l115 85q-48 11 -71 37.5t-23 62.5v17l102 78q-46 17 -73 53.5t-27 83.5q0 65 49.5 106t151.5 66q61 0 107 -26t63 -69l50 95h47v-106h-87l-6 -6q8 -15 8 -36q-1 -66 -49.5 -107.5t-150.5 -68.5q-37 0 -70 11l-37 -37q0 -53 56 -53
h201q50 0 78 -28.5t28 -69.5q0 -75 -67 -129.5t-187 -96.5q-105 0 -156.5 27.5zM310 312q0 153 -85 153q-35 0 -52.5 -34t-17.5 -98q0 -152 84 -152q71 0 71 131zM336 -169q41 14 64 37.5t23 52.5q0 58 -71 58h-206q-35 -30 -35 -77q0 -39 34.5 -62t96.5 -23q53 0 94 14z
" />
    <glyph glyph-name="h" unicode="h" horiz-adv-x="582" 
d="M31 13l59 7v657l-58 -9l-2 14l162 31h13v-339l179 111q49 0 74.5 -18.5t33.5 -49.5t8 -79v-318l65 -7v-13h-227v13l43 7v323q0 39 -13 55.5t-41 16.5q-22 0 -40 -8t-50 -28l-32 -19v-340l43 -7v-13h-217v13z" />
    <glyph glyph-name="i" unicode="i" horiz-adv-x="285" 
d="M33 13l58 7v420l-59 -12l-2 14l164 38h12v-460l59 -7v-13h-232v13zM93 586l-6 61l10 49l77 5l30 -5l5 -57l-10 -53l-78 -6z" />
    <glyph glyph-name="j" unicode="j" horiz-adv-x="271" 
d="M-20 -134h104l2 18q7 59 7 110v446l-59 -12l-2 14l163 38h13v-456q0 -53 -12.5 -82.5t-49.5 -66.5l-101 -113h-65v104zM94 586l-6 61l10 49l77 5l30 -5l5 -57l-10 -53l-78 -6z" />
    <glyph glyph-name="k" unicode="k" horiz-adv-x="561" 
d="M31 13l59 7v657l-58 -9l-2 14l162 31h13v-448l229 185l-70 7v13h167v-13l-68 -7l-230 -181l87 17l198 -267l38 -6v-13h-172l-179 255v-235l58 -7v-13h-232v13z" />
    <glyph glyph-name="l" unicode="l" horiz-adv-x="278" 
d="M31 13l59 7v657l-58 -9l-2 14l162 31h13v-693l58 -7v-13h-232v13z" />
    <glyph glyph-name="m" unicode="m" horiz-adv-x="862" 
d="M33 13l58 7v422l-59 -13l-2 13l164 38h12v-106l173 111q58 0 85.5 -27.5t28.5 -83.5l173 111q47 0 71.5 -15.5t34 -46.5t9.5 -83v-320l65 -7v-13h-227v13l43 7v322q0 40 -13.5 56.5t-41.5 16.5q-19 0 -39 -9.5t-45 -26.5l-29 -19v-340l43 -7v-13h-205v13l43 7v322
q0 40 -13.5 56.5t-41.5 16.5q-19 0 -39 -9.5t-45 -26.5l-30 -19v-340l44 -7v-13h-217v13z" />
    <glyph glyph-name="n" unicode="n" horiz-adv-x="583" 
d="M33 13l58 7v420l-59 -12l-2 14l164 38h12v-106l179 111q48 0 73 -15.5t34.5 -47t9.5 -84.5v-318l65 -7v-13h-227v13l43 7v323q0 39 -13 55.5t-41 16.5q-22 0 -40 -8t-50 -28l-33 -19v-340l44 -7v-13h-217v13z" />
    <glyph glyph-name="o" unicode="o" horiz-adv-x="532" 
d="M137 15.5q-50 30.5 -78 84.5t-28 123q0 112 66 173t185 89q63 0 113 -30.5t78 -84.5t28 -123q0 -112 -66 -173.5t-186 -88.5q-62 0 -112 30.5zM352 61q26 52 26 149q0 80 -16.5 136t-44.5 85t-63 29q-49 0 -74.5 -51.5t-25.5 -150.5q0 -75 16 -131.5t44 -87t63 -30.5
q49 0 75 52z" />
    <glyph glyph-name="p" unicode="p" horiz-adv-x="543" 
d="M17 -217l59 7v652l-59 -13l-2 13l158 38h13l4 -95l141 100q51 0 92.5 -28.5t65 -78.5t23.5 -113q0 -225 -220 -280q-62 0 -101 29v-224l89 -7v-13h-263v13zM353.5 66.5q32.5 55.5 32.5 150.5q0 85 -27 139.5t-77 54.5q-18 0 -30.5 -5.5t-25.5 -13.5t-19 -12l-16 -10v-323
q12 -17 31 -27t42 -10q57 1 89.5 56.5z" />
    <glyph glyph-name="q" unicode="q" horiz-adv-x="534" 
d="M264 -217l88 7v294l-141 -99q-49 0 -90 26t-65.5 75t-24.5 114q0 111 67 188.5t182 96.5q48 0 82.5 -8t65.5 -25l26 30h13v-692l62 -7v-13h-265v13zM295.5 65.5q14.5 5.5 36.5 20.5l20 12v325q-25 43 -73 43q-53 0 -87.5 -55.5t-34.5 -159.5q0 -83 25 -137t78 -54
q21 0 35.5 5.5z" />
    <glyph glyph-name="r" unicode="r" horiz-adv-x="385" 
d="M33 13l58 7v422l-59 -13l-2 13l158 38h13l5 -161l92 161h72v-120h-122l-42 -60v-280l88 -7v-13h-261v13z" />
    <glyph glyph-name="s" unicode="s" horiz-adv-x="393" 
d="M107.5 -4.5q-44.5 11.5 -75.5 28.5v140h12l57 -112q25 -23 46 -34.5t49 -11.5q38 0 58.5 18.5t20.5 45.5q0 32 -16 50.5t-61 46.5l-88 58q-39 25 -59.5 50t-20.5 67q0 101 166 143q49 0 82.5 -8.5t69.5 -25.5v-134h-13l-60 114q-21 19 -40 26.5t-44 7.5
q-31 0 -49.5 -16.5t-18.5 -44.5q0 -27 16.5 -44.5t58.5 -44.5l91 -58q42 -26 59.5 -52.5t17.5 -64.5q0 -54 -42.5 -95t-128.5 -61q-43 0 -87.5 11.5z" />
    <glyph glyph-name="t" unicode="t" horiz-adv-x="344" 
d="M100 18q-25 33 -25 94v337h-70v13h70v72l115 64v-136h135v-13h-135v-332q0 -32 15.5 -48t42.5 -16q22 0 40.5 5.5t43.5 18.5l6 -12l-153 -80q-60 0 -85 33z" />
    <glyph glyph-name="u" unicode="u" horiz-adv-x="559" 
d="M116 0.5q-26 15.5 -35.5 46.5t-9.5 85v309l-58 -7l-1 13l165 30h13v-349q0 -74 55 -74q19 0 34.5 6.5t42.5 22.5l36 22v336l-58 -7l-1 13l162 30h12v-346q0 -28 3 -49.5t10 -48.5l48 4l2 -13l-158 -30l-18 96l-169 -105q-49 0 -75 15.5z" />
    <glyph glyph-name="v" unicode="v" horiz-adv-x="529" 
d="M52 450l-47 7v13h232v-13l-55 -7l138 -387l131 387l-65 7v13h138v-13l-52 -7l-147 -431l-99 -38z" />
    <glyph glyph-name="w" unicode="w" horiz-adv-x="833" 
d="M51 450l-46 7v13h226v-13l-53 -7l129 -393l97 306l-29 87l-46 7v13h226v-13l-54 -7l130 -393l124 393l-65 7v13h138v-13l-51 -7l-136 -432l-108 -35l-118 343l-98 -308l-107 -35z" />
    <glyph glyph-name="x" unicode="x" horiz-adv-x="549" 
d="M14 13l67 7l148 188l-159 242l-47 7v13h228v-13l-37 -7l106 -164l122 164l-74 7v13h163v-13l-68 -7l-131 -180l163 -250l48 -7v-13h-231v13l40 7l-113 172l-135 -172l78 -7v-13h-168v13z" />
    <glyph glyph-name="y" unicode="y" horiz-adv-x="537" 
d="M84 -127h125l107 177l-103 -42l-161 442l-47 7v13h232v-13l-54 -7l138 -386l136 386l-64 7v13h139v-13l-53 -7l-144 -409l-128 -276h-123v108z" />
    <glyph glyph-name="z" unicode="z" horiz-adv-x="473" 
d="M31 10l282 448h-161l-80 -152h-13v164h389v-11l-276 -447h177l77 157h13v-169h-408v10z" />
    <glyph glyph-name="braceleft" unicode="{" horiz-adv-x="345" 
d="M154.5 -191.5q-38.5 38.5 -38.5 101.5v286l-66 55q31 13 45 32.5t17.5 42t3.5 58.5v191q0 62 39 101t97 39h48v-13h-43q-66 0 -66 -108v-202q0 -43 -16 -75.5t-59 -51.5l75 -54v-320q0 -58 20 -83t51 -25h43v-13h-52q-60 0 -98.5 38.5z" />
    <glyph glyph-name="bar" unicode="|" horiz-adv-x="246" 
d="M110 718h26v-963h-26v963z" />
    <glyph glyph-name="braceright" unicode="}" horiz-adv-x="345" 
d="M45 -217h42q67 0 67 108v231q0 44 16 76.5t59 51.5l-75 53v291q0 58 -20 83t-51 25h-43v13h52q60 0 98.5 -38.5t38.5 -101.5v-257l66 -54q-31 -13 -45 -33t-17.5 -42t-3.5 -58v-221q0 -62 -39.5 -101t-96.5 -39h-48v13z" />
    <glyph glyph-name="asciitilde" unicode="~" horiz-adv-x="668" 
d="M88 283l95 22l375 -64l48 74h12l-38 -77l-95 -25l-374 67l-48 -77h-13z" />
    <glyph glyph-name="uni00A0" unicode="&#xa0;" horiz-adv-x="209" 
 />
    <glyph glyph-name="exclamdown" unicode="&#xa1;" horiz-adv-x="273" 
d="M85 370l-5 55l10 48l72 6l27 -6l5 -57l-9 -46l-73 -6zM81 75l44 191h23l45 -190l9 -313h-130z" />
    <glyph glyph-name="cent" unicode="&#xa2;" horiz-adv-x="458" 
d="M355 38q-38 -27 -85 -51v-67h-16v65q-62 3 -110.5 32t-76 80t-27.5 118q0 104 60.5 171.5t153.5 91.5v66h16v-62l15 3q32 0 72 -15.5t68 -37.5v-100h-93l-37 124q-14 6 -32 6q-51 0 -85 -42.5t-34 -131.5q0 -61 21.5 -110.5t59.5 -77.5t88 -28q33 0 59.5 9.5t56.5 30.5
l4 -8q-40 -39 -78 -66z" />
    <glyph glyph-name="sterling" unicode="&#xa3;" horiz-adv-x="544" 
d="M504 170v-170h-464v13l72 10v337h-72v13h72v115q0 94 59.5 147t171.5 80q98 0 146 -40v-160h-13l-48 130q-21 24 -41 35t-50 11q-55 0 -82.5 -34t-27.5 -99v-185h160v-13h-160v-203q0 -63 -7.5 -90t-31.5 -49h235l68 152h13z" />
    <glyph glyph-name="currency" unicode="&#xa4;" 
d="M89 154l70 71q-23 26 -36 59.5t-13 70.5t13 70.5t36 59.5l-70 71l19 19l71 -70q56 50 131 50t131 -50l71 70l19 -19l-70 -71q23 -26 36 -59.5t13 -70.5t-13 -70.5t-36 -59.5l70 -71l-19 -19l-71 70q-56 -50 -131 -50t-131 50l-71 -70zM397.5 204q39.5 24 62 64t22.5 87
t-22.5 87t-62 64t-87.5 24t-87.5 -24t-62 -64t-22.5 -87t22.5 -87t62 -64t87.5 -24t87.5 24z" />
    <glyph glyph-name="yen" unicode="&#xa5;" horiz-adv-x="689" 
d="M669 687l-67 -7l-187 -395v-16h112v-12h-112v-86h112v-13h-112v-138l102 -7v-13h-333v13l102 7v138h-104v13h104v86h-104v12h104v4l-198 407l-68 7v13h299v-13l-81 -7l172 -369l173 369l-91 7v13h177v-13z" />
    <glyph glyph-name="brokenbar" unicode="&#xa6;" horiz-adv-x="246" 
d="M110 718h26v-430h-26v430zM110 185h26v-430h-26v430z" />
    <glyph glyph-name="section" unicode="&#xa7;" horiz-adv-x="547" 
d="M369 73l95 -65v-45q0 -153 -203 -208q-41 0 -85 13t-76 34v141h13l41 -107q30 -29 55.5 -44t62.5 -15q44 0 74 34.5t30 90.5v17l-176 120q-80 56 -112 102t-32 94t30 89t86 64q-42 38 -60 72.5t-18 74.5q0 68 51 115t145 66q109 0 162 -47v-130h-12l-48 110
q-40 47 -103 47q-52 0 -79 -26t-27 -72q0 -41 28.5 -77.5t102.5 -87.5l193 -129v-41q0 -129 -138 -190zM419 210l-182 127q-29 21 -54 41q-39 -27 -39 -80q0 -41 28.5 -75.5t108.5 -89.5l77 -52q61 37 61 114v15z" />
    <glyph glyph-name="dieresis" unicode="&#xa8;" horiz-adv-x="600" 
d="M114 586l-5 52l9 41l62 5l26 -5l6 -49l-10 -44l-63 -5zM290 586l-6 52l10 41l62 5l25 -5l6 -49l-10 -44l-62 -5z" />
    <glyph glyph-name="copyright" unicode="&#xa9;" horiz-adv-x="844" 
d="M236.5 30.5q-85.5 44.5 -136 128.5t-50.5 197q0 153 99 243.5t272 115.5q101 -1 186.5 -45.5t136 -128.5t50.5 -197q0 -153 -99 -243.5t-272 -115.5q-101 1 -186.5 45.5zM576.5 46q71.5 41 114 118t42.5 180q0 113 -49 192.5t-121 119t-140 39.5q-83 0 -154.5 -41
t-114.5 -118t-43 -180q0 -113 49 -192.5t121 -119t140 -39.5q84 0 155.5 41zM322.5 164q-51.5 23 -82.5 67.5t-31 108.5q0 97 62 152.5t174 66.5q46 0 79.5 -8t65.5 -25v-106h-10l-50 94q-16 17 -35.5 25.5t-46.5 8.5q-58 0 -94.5 -50.5t-36.5 -145.5q0 -89 34 -143.5
t100 -54.5q23 0 43.5 8.5t35.5 22.5l50 100h10v-107q-43 -17 -75.5 -25.5t-77.5 -11.5q-63 0 -114.5 23z" />
    <glyph glyph-name="ordfeminine" unicode="&#xaa;" horiz-adv-x="447" 
d="M74.5 338.5q-31.5 25.5 -31.5 71.5q0 54 45 85l179 54v65q0 25 -3.5 39t-16.5 22.5t-40 8.5q-19 0 -41 -7l-18 -98h-91v66l164 66q81 0 114.5 -25.5t33.5 -91.5v-173q0 -35 12 -70l40 5l2 -11l-135 -26l-19 66l-112 -72q-51 0 -82.5 25.5zM250 385l17 12v140l-84 -29
q-35 -27 -35 -73q0 -31 14 -49.5t36 -18.5q21 0 52 18z" />
    <glyph glyph-name="guillemotleft" unicode="&#xab;" horiz-adv-x="421" 
d="M15 235l182 220h17l-130 -220l130 -220h-18zM192 235l182 220h17l-130 -220l130 -220h-18z" />
    <glyph glyph-name="logicalnot" unicode="&#xac;" 
d="M541 327h-488v26h514v-174h-26v148z" />
    <glyph glyph-name="uni00AD" unicode="&#xad;" horiz-adv-x="370" 
d="M33 297h305v-38h-305v38z" />
    <glyph glyph-name="registered" unicode="&#xae;" horiz-adv-x="592" 
d="M421.5 654q57.5 -30 91.5 -87.5t34 -135.5q0 -105 -66.5 -167t-183.5 -79q-68 1 -126 31.5t-92 88t-34 134.5q0 105 66.5 167t183.5 79q69 -1 126.5 -31zM400 226.5q48 27.5 76.5 80t28.5 124.5q0 79 -33 133t-81 80.5t-94 26.5q-57 0 -105 -27.5t-76.5 -80t-28.5 -124.5
q0 -79 33 -133t81 -80.5t94 -26.5q57 0 105 27.5zM420 310l18 -2v-6h-83l-71 128h-25v-120l26 -2v-6h-114v6l27 2v253l-27 2v7h145q37 0 62.5 -16.5t25.5 -49.5t-29.5 -52t-83.5 -24l66 -13zM276 437q28 0 44 17.5t16 47.5q0 28 -14.5 45.5t-35.5 17.5l-27 -2v-126h17z" />
    <glyph glyph-name="macron" unicode="&#xaf;" horiz-adv-x="600" 
d="M106 648h288v-44h-288v44z" />
    <glyph glyph-name="degree" unicode="&#xb0;" horiz-adv-x="433" 
d="M138 461q-36 21 -57 57t-21 78q0 63 38 99.5t119 57.5q42 0 78 -21t57 -57t21 -78q0 -63 -38 -99t-119 -58q-42 0 -78 21zM297.5 516.5q31.5 32.5 31.5 79.5t-33 80.5t-79 33.5q-50 0 -82 -33t-32 -80q0 -46 33.5 -79.5t79.5 -33.5q50 0 81.5 32.5z" />
    <glyph glyph-name="plusminus" unicode="&#xb1;" 
d="M294 377h-245v26h245v248h26v-248h245v-26h-245v-241h-26v241zM48 26h525v-26h-525v26z" />
    <glyph glyph-name="uni00B2" unicode="&#xb2;" horiz-adv-x="384" 
d="M29 409l79 83q64 66 94.5 115.5t30.5 91.5q0 31 -16.5 52.5t-40.5 21.5q-15 0 -35 -5l-23 -98h-78v69l154 55q68 0 101 -26.5t33 -68.5q0 -52 -40.5 -97t-126.5 -95l-65 -37h244v-10l-22 -60h-282z" />
    <glyph glyph-name="uni00B3" unicode="&#xb3;" horiz-adv-x="365" 
d="M43 466h151q15 15 21.5 28t6.5 32q0 32 -28 52.5t-77 19.5l-3 10l38 24q36 19 47.5 36.5t11.5 46.5q0 25 -13.5 39.5t-35.5 14.5q-12 0 -26 -4l-24 -80h-71v59l159 50q52 0 76.5 -19.5t24.5 -45.5t-26.5 -48.5t-92.5 -36.5q43 0 72.5 -13.5t43.5 -33t14 -39.5
q0 -37 -25 -60t-85 -50l-114 -52h-45v70z" />
    <glyph glyph-name="acute" unicode="&#xb4;" horiz-adv-x="600" 
d="M205 710h107l-141 -161h-21z" />
    <glyph glyph-name="uni00B5" unicode="&#xb5;" 
d="M540 13v-13h-130l-46 83v8l-170 -106q-75 0 -99 46v-61l95 -200h-111v700h119v-342q0 -72 54 -72q19 0 33.5 6t40.5 21l38 22v365h115v-450q18 -3 61 -7z" />
    <glyph glyph-name="paragraph" unicode="&#xb6;" horiz-adv-x="494" 
d="M209 390q-45 0 -86.5 17t-67 50.5t-25.5 79.5q0 54 45 94.5t116 68.5h263v-13l-49 -7v-839h-26v843h-144v-843h-26v549z" />
    <glyph glyph-name="periodcentered" unicode="&#xb7;" horiz-adv-x="228" 
d="M60 350l-5 58l7 48l76 6l29 -6l6 -56l-8 -50l-76 -6z" />
    <glyph glyph-name="cedilla" unicode="&#xb8;" horiz-adv-x="600" 
d="M184 -199h81q12 10 19 26t7 33q0 28 -16.5 40.5t-44.5 15.5l57 86h14l-31 -46q38 -4 61 -25t23 -51q-1 -34 -27 -54.5t-70 -38.5l-75 -30h-27z" />
    <glyph glyph-name="uni00B9" unicode="&#xb9;" horiz-adv-x="301" 
d="M44 410l75 5v332l-78 -22l-3 9l155 58h10v-377l75 -5v-10h-234v10z" />
    <glyph glyph-name="ordmasculine" unicode="&#xba;" horiz-adv-x="479" 
d="M133 337q-41 24 -64.5 67t-23.5 98q0 90 54.5 138t153.5 71q52 0 93 -24t64 -67t23 -98q0 -91 -54.5 -139t-153.5 -70q-51 0 -92 24zM307.5 373.5q20.5 39.5 20.5 116.5q0 96 -28 147.5t-71 51.5q-39 0 -59 -39.5t-20 -118.5q0 -91 27.5 -144t70.5 -53q39 0 59.5 39.5z
" />
    <glyph glyph-name="guillemotright" unicode="&#xbb;" horiz-adv-x="421" 
d="M160 235l-130 220h17l182 -220l-181 -220h-18zM337 235l-130 220h17l182 -220l-181 -220h-18z" />
    <glyph glyph-name="onequarter" unicode="&#xbc;" horiz-adv-x="782" 
d="M44 325l75 5v332l-78 -22l-3 9l155 58h10v-377l75 -5v-10h-234v10zM528 710h30l-385 -760h-32zM594 120h-162l-7 9l180 256h107v-10l-273 -244h155v74l83 49v-124h79v-10h-79v-120h-83v120z" />
    <glyph glyph-name="onehalf" unicode="&#xbd;" horiz-adv-x="782" 
d="M44 325l75 5v332l-78 -22l-3 9l155 58h10v-377l75 -5v-10h-234v10zM528 710h30l-385 -760h-32zM427 9l79 83q64 66 94.5 115.5t30.5 91.5q0 31 -16.5 52.5t-40.5 21.5q-15 0 -35 -5l-23 -98h-78v69l154 55q68 0 101 -26.5t33 -68.5q0 -52 -40.5 -97t-126.5 -95l-65 -37
h244v-10l-22 -60h-282z" />
    <glyph glyph-name="threequarters" unicode="&#xbe;" horiz-adv-x="846" 
d="M43 381h151q15 15 21.5 28t6.5 32q0 32 -28 52.5t-77 19.5l-3 10l38 24q36 19 47.5 36.5t11.5 46.5q0 25 -13.5 39.5t-35.5 14.5q-12 0 -26 -4l-24 -80h-71v59l159 50q52 0 76.5 -19.5t24.5 -45.5t-26.5 -48.5t-92.5 -36.5q43 0 72.5 -13.5t43.5 -33t14 -39.5
q0 -37 -25 -60t-85 -50l-114 -52h-45v70zM592 710h30l-385 -760h-32zM658 120h-162l-7 9l180 256h107v-10l-273 -244h155v74l83 49v-124h79v-10h-79v-120h-83v120z" />
    <glyph glyph-name="questiondown" unicode="&#xbf;" horiz-adv-x="403" 
d="M290 468l6 -57l-10 -46l-72 -5l-27 5l-5 55l10 48l72 6zM266 135l-36 -28q-52 -41 -74.5 -86.5t-22.5 -114.5q0 -57 26 -93.5t81 -42.5l60 138h42v-137l-111 -13q-72 3 -119.5 25.5t-70 57.5t-22.5 75q0 65 35.5 108.5t110.5 72.5l52 24l10 141h23z" />
    <glyph glyph-name="Agrave" unicode="&#xc0;" horiz-adv-x="699" 
d="M229 904h108l46 -135h-17zM5 13l65 7l232 654l95 40l233 -694l64 -7v-13h-287v12l81 8l-74 229h-242l-79 -229l82 -8v-12h-170v13zM409 267l-111 343l-119 -343h230z" />
    <glyph glyph-name="Aacute" unicode="&#xc1;" horiz-adv-x="699" 
d="M383 904h107l-137 -135h-16zM5 13l65 7l232 654l95 40l233 -694l64 -7v-13h-287v12l81 8l-74 229h-242l-79 -229l82 -8v-12h-170v13zM409 267l-111 343l-119 -343h230z" />
    <glyph glyph-name="Acircumflex" unicode="&#xc2;" horiz-adv-x="699" 
d="M333 908h34l129 -139h-17l-129 79l-129 -79h-17zM5 13l65 7l232 654l95 40l233 -694l64 -7v-13h-287v12l81 8l-74 229h-242l-79 -229l82 -8v-12h-170v13zM409 267l-111 343l-119 -343h230z" />
    <glyph glyph-name="Atilde" unicode="&#xc3;" horiz-adv-x="699" 
d="M212 879l52 17l207 -76l36 78h11l-30 -117l-52 -17l-208 78l-35 -80h-11zM5 13l65 7l232 654l95 40l233 -694l64 -7v-13h-287v12l81 8l-74 229h-242l-79 -229l82 -8v-12h-170v13zM409 267l-111 343l-119 -343h230z" />
    <glyph glyph-name="Adieresis" unicode="&#xc4;" horiz-adv-x="699" 
d="M191 786l-5 52l9 41l63 5l25 -5l6 -49l-10 -44l-62 -5zM414 786l-5 52l9 41l63 5l25 -5l6 -49l-10 -44l-62 -5zM5 13l65 7l232 654l95 40l233 -694l64 -7v-13h-287v12l81 8l-74 229h-242l-79 -229l82 -8v-12h-170v13zM409 267l-111 343l-119 -343h230z" />
    <glyph glyph-name="Aring" unicode="&#xc5;" horiz-adv-x="699" 
d="M274 758.5q-32 24.5 -32 74.5q0 30 14 48.5t35.5 29.5t58.5 24q47 0 77.5 -24t30.5 -76q0 -43 -27 -63.5t-80 -37.5q-45 0 -77 24.5zM404.5 779q21.5 21 21.5 55t-21.5 55.5t-54.5 21.5t-54 -21.5t-21 -55.5t21 -55t54 -21t54.5 21zM5 13l65 7l232 654l95 40l233 -694
l64 -7v-13h-287v12l81 8l-74 229h-242l-79 -229l82 -8v-12h-170v13zM409 267l-111 343l-119 -343h230z" />
    <glyph glyph-name="AE" unicode="&#xc6;" horiz-adv-x="970" 
d="M5 13l65 7l423 680h447v-185h-13l-71 169h-236v-339h121l46 122h13v-258h-13l-46 120h-121v-313h241l69 175h13v-191h-524v13l72 7v309h-205l-190 -309l82 -8v-12h-173v13zM491 345v321l-195 -321h195z" />
    <glyph glyph-name="Ccedilla" unicode="&#xc7;" horiz-adv-x="684" 
d="M295 661q-52 -39 -82 -117.5t-30 -190.5q0 -99 25.5 -178t78.5 -125.5t132 -46.5q39 0 75.5 16t61.5 41l70 161h12v-176q-61 -26 -114.5 -40t-128.5 -21h-2l-19 -28q38 -4 61 -25t23 -51q-1 -34 -27 -54.5t-70 -38.5l-75 -30h-27l29 44h81q12 10 19 26t7 33
q0 28 -16.5 40.5t-44.5 15.5l45 68q-94 4 -172 45t-124.5 119.5t-46.5 186.5q0 168 99 266t272 115q71 0 125 -13t106 -38v-175h-13l-70 150q-28 29 -62 44.5t-82 15.5q-64 0 -116 -39z" />
    <glyph glyph-name="Egrave" unicode="&#xc8;" horiz-adv-x="602" 
d="M200 904h108l46 -135h-17zM26 13l72 7v660l-72 7v13h542v-185h-13l-71 169h-257v-309h143l46 121h12v-258h-12l-46 121h-143v-343h263l68 175h13v-191h-545v13z" />
    <glyph glyph-name="Eacute" unicode="&#xc9;" horiz-adv-x="602" 
d="M354 904h107l-137 -135h-16zM26 13l72 7v660l-72 7v13h542v-185h-13l-71 169h-257v-309h143l46 121h12v-258h-12l-46 121h-143v-343h263l68 175h13v-191h-545v13z" />
    <glyph glyph-name="Ecircumflex" unicode="&#xca;" horiz-adv-x="602" 
d="M304 908h34l129 -139h-17l-129 79l-129 -79h-17zM26 13l72 7v660l-72 7v13h542v-185h-13l-71 169h-257v-309h143l46 121h12v-258h-12l-46 121h-143v-343h263l68 175h13v-191h-545v13z" />
    <glyph glyph-name="Edieresis" unicode="&#xcb;" horiz-adv-x="602" 
d="M162 786l-5 52l9 41l63 5l25 -5l6 -49l-10 -44l-62 -5zM385 786l-5 52l9 41l63 5l25 -5l6 -49l-10 -44l-62 -5zM26 13l72 7v660l-72 7v13h542v-185h-13l-71 169h-257v-309h143l46 121h12v-258h-12l-46 121h-143v-343h263l68 175h13v-191h-545v13z" />
    <glyph glyph-name="Igrave" unicode="&#xcc;" horiz-adv-x="324" 
d="M41 904h108l46 -135h-17zM26 13l72 7v660l-72 7v13h272v-13l-71 -7v-660l71 -7v-13h-272v13z" />
    <glyph glyph-name="Iacute" unicode="&#xcd;" horiz-adv-x="324" 
d="M195 904h107l-137 -135h-16zM26 13l72 7v660l-72 7v13h272v-13l-71 -7v-660l71 -7v-13h-272v13z" />
    <glyph glyph-name="Icircumflex" unicode="&#xce;" horiz-adv-x="324" 
d="M145 908h34l129 -139h-17l-129 79l-129 -79h-17zM26 13l72 7v660l-72 7v13h272v-13l-71 -7v-660l71 -7v-13h-272v13z" />
    <glyph glyph-name="Idieresis" unicode="&#xcf;" horiz-adv-x="324" 
d="M3 786l-5 52l9 41l63 5l25 -5l6 -49l-10 -44l-62 -5zM226 786l-5 52l9 41l63 5l25 -5l6 -49l-10 -44l-62 -5zM26 13l72 7v660l-72 7v13h272v-13l-71 -7v-660l71 -7v-13h-272v13z" />
    <glyph glyph-name="Eth" unicode="&#xd0;" horiz-adv-x="725" 
d="M531.5 660q76.5 -40 117 -115.5t40.5 -179.5q0 -160 -86.5 -258.5t-254.5 -106.5h-322v13l78 7v340h-68v11h68v309l-78 7v13h323q106 0 182.5 -40zM447 56.5q49 43.5 76 122t27 181.5q0 150 -55.5 238.5t-169.5 88.5l-92 -7v-309h129v-11h-129v-340l101 -7q64 0 113 43.5
z" />
    <glyph glyph-name="Ntilde" unicode="&#xd1;" horiz-adv-x="684" 
d="M223 879l52 17l207 -76l36 78h11l-30 -117l-52 -17l-208 78l-35 -80h-11zM115 660v-640l78 -7v-13h-167v13l72 7v660l-72 7v13h221l338 -521v501l-77 7v13h166v-13l-72 -7v-685h-61z" />
    <glyph glyph-name="Ograve" unicode="&#xd2;" horiz-adv-x="765" 
d="M265 904h108l46 -135h-17zM196.5 29.5q-76.5 45.5 -118.5 125.5t-42 181q0 160 88 254.5t269 125.5q99 0 175.5 -45.5t118.5 -125.5t42 -181q0 -160 -88 -254.5t-269 -125.5q-99 0 -175.5 45.5zM500.5 51q40.5 43 61 116t20.5 163q0 104 -28.5 186.5t-78.5 129t-113 46.5
q-56 0 -96.5 -43t-61.5 -116t-21 -163q0 -104 28.5 -186.5t78.5 -129t113 -46.5q57 0 97.5 43z" />
    <glyph glyph-name="Oacute" unicode="&#xd3;" horiz-adv-x="765" 
d="M419 904h107l-137 -135h-16zM196.5 29.5q-76.5 45.5 -118.5 125.5t-42 181q0 160 88 254.5t269 125.5q99 0 175.5 -45.5t118.5 -125.5t42 -181q0 -160 -88 -254.5t-269 -125.5q-99 0 -175.5 45.5zM500.5 51q40.5 43 61 116t20.5 163q0 104 -28.5 186.5t-78.5 129
t-113 46.5q-56 0 -96.5 -43t-61.5 -116t-21 -163q0 -104 28.5 -186.5t78.5 -129t113 -46.5q57 0 97.5 43z" />
    <glyph glyph-name="Ocircumflex" unicode="&#xd4;" horiz-adv-x="765" 
d="M369 908h34l129 -139h-17l-129 79l-129 -79h-17zM196.5 29.5q-76.5 45.5 -118.5 125.5t-42 181q0 160 88 254.5t269 125.5q99 0 175.5 -45.5t118.5 -125.5t42 -181q0 -160 -88 -254.5t-269 -125.5q-99 0 -175.5 45.5zM500.5 51q40.5 43 61 116t20.5 163
q0 104 -28.5 186.5t-78.5 129t-113 46.5q-56 0 -96.5 -43t-61.5 -116t-21 -163q0 -104 28.5 -186.5t78.5 -129t113 -46.5q57 0 97.5 43z" />
    <glyph glyph-name="Otilde" unicode="&#xd5;" horiz-adv-x="765" 
d="M248 879l52 17l207 -76l36 78h11l-30 -117l-52 -17l-208 78l-35 -80h-11zM196.5 29.5q-76.5 45.5 -118.5 125.5t-42 181q0 160 88 254.5t269 125.5q99 0 175.5 -45.5t118.5 -125.5t42 -181q0 -160 -88 -254.5t-269 -125.5q-99 0 -175.5 45.5zM500.5 51q40.5 43 61 116
t20.5 163q0 104 -28.5 186.5t-78.5 129t-113 46.5q-56 0 -96.5 -43t-61.5 -116t-21 -163q0 -104 28.5 -186.5t78.5 -129t113 -46.5q57 0 97.5 43z" />
    <glyph glyph-name="Odieresis" unicode="&#xd6;" horiz-adv-x="765" 
d="M227 786l-5 52l9 41l63 5l25 -5l6 -49l-10 -44l-62 -5zM450 786l-5 52l9 41l63 5l25 -5l6 -49l-10 -44l-62 -5zM196.5 29.5q-76.5 45.5 -118.5 125.5t-42 181q0 160 88 254.5t269 125.5q99 0 175.5 -45.5t118.5 -125.5t42 -181q0 -160 -88 -254.5t-269 -125.5
q-99 0 -175.5 45.5zM500.5 51q40.5 43 61 116t20.5 163q0 104 -28.5 186.5t-78.5 129t-113 46.5q-56 0 -96.5 -43t-61.5 -116t-21 -163q0 -104 28.5 -186.5t78.5 -129t113 -46.5q57 0 97.5 43z" />
    <glyph glyph-name="multiply" unicode="&#xd7;" 
d="M114 44l177 178l-178 179l19 18l178 -179l177 178l18 -19l-177 -177l177 -176l-18 -19l-177 177l-177 -178z" />
    <glyph glyph-name="Oslash" unicode="&#xd8;" horiz-adv-x="765" 
d="M702.5 511q26.5 -67 26.5 -147q0 -160 -88 -254.5t-269 -125.5q-121 0 -208 68l-54 -67h-25l64 79q-54 48 -83.5 118t-29.5 154q0 160 88 254.5t269 125.5q65 0 120.5 -20t99.5 -58l62 77h24l-72 -89q49 -48 75.5 -115zM222 155l319 394q-30 68 -76 105.5t-103 37.5
q-56 0 -96.5 -43t-61.5 -116t-21 -163q0 -123 39 -215zM500.5 51q40.5 43 61 116t20.5 163q0 111 -33 199l-318 -394q30 -60 74.5 -93.5t97.5 -33.5q57 0 97.5 43z" />
    <glyph glyph-name="Ugrave" unicode="&#xd9;" horiz-adv-x="662" 
d="M249 904h108l46 -135h-17zM147 53q-66 69 -66 190v437l-71 7v13h271v-13l-71 -7v-447q0 -89 47.5 -147t131.5 -58q49 0 86.5 27t58.5 74t21 104v447l-73 7v13h170v-13l-72 -7v-444q0 -102 -50 -165.5t-181 -86.5q-136 0 -202 69z" />
    <glyph glyph-name="Uacute" unicode="&#xda;" horiz-adv-x="662" 
d="M403 904h107l-137 -135h-16zM147 53q-66 69 -66 190v437l-71 7v13h271v-13l-71 -7v-447q0 -89 47.5 -147t131.5 -58q49 0 86.5 27t58.5 74t21 104v447l-73 7v13h170v-13l-72 -7v-444q0 -102 -50 -165.5t-181 -86.5q-136 0 -202 69z" />
    <glyph glyph-name="Ucircumflex" unicode="&#xdb;" horiz-adv-x="662" 
d="M353 908h34l129 -139h-17l-129 79l-129 -79h-17zM147 53q-66 69 -66 190v437l-71 7v13h271v-13l-71 -7v-447q0 -89 47.5 -147t131.5 -58q49 0 86.5 27t58.5 74t21 104v447l-73 7v13h170v-13l-72 -7v-444q0 -102 -50 -165.5t-181 -86.5q-136 0 -202 69z" />
    <glyph glyph-name="Udieresis" unicode="&#xdc;" horiz-adv-x="662" 
d="M211 786l-5 52l9 41l63 5l25 -5l6 -49l-10 -44l-62 -5zM434 786l-5 52l9 41l63 5l25 -5l6 -49l-10 -44l-62 -5zM147 53q-66 69 -66 190v437l-71 7v13h271v-13l-71 -7v-447q0 -89 47.5 -147t131.5 -58q49 0 86.5 27t58.5 74t21 104v447l-73 7v13h170v-13l-72 -7v-444
q0 -102 -50 -165.5t-181 -86.5q-136 0 -202 69z" />
    <glyph glyph-name="Yacute" unicode="&#xdd;" horiz-adv-x="693" 
d="M430 904h107l-137 -135h-16zM188 13l103 7v253l-218 407l-68 7v13h300v-13l-83 -7l190 -369l190 369l-91 7v13h177v-13l-67 -7l-201 -394v-266l102 -7v-13h-334v13z" />
    <glyph glyph-name="Thorn" unicode="&#xde;" horiz-adv-x="586" 
d="M26 13l72 7v660l-72 7v13h279v-13l-78 -7v-126h130q93 0 154.5 -46.5t61.5 -135.5q0 -91 -66.5 -136.5t-187.5 -73.5h-92v-142l77 -7v-13h-278v13zM293 178q41 0 73 24t50 66.5t18 95.5q0 77 -32 125.5t-95 48.5h-80v-360h66z" />
    <glyph glyph-name="germandbls" unicode="&#xdf;" horiz-adv-x="593" 
d="M321 -6.5q-40 9.5 -72 23.5v145h12l53 -111q47 -45 95 -45q35 0 54 23.5t19 57.5q0 27 -16.5 51t-52.5 55l-68 58q-40 32 -59.5 59.5t-22.5 71.5l54 35q80 54 80 155q0 49 -23 84.5t-68 35.5q-50 0 -77 -38t-27 -107v-547h-177v13l62 7v426h-62v13l62 3v20q0 54 30 107
t88 79l111 50q94 0 148.5 -33.5t54.5 -98.5q0 -56 -47.5 -101t-125.5 -66q4 -23 22 -42t61 -53l72 -56q37 -29 54.5 -57.5t17.5 -65.5q0 -56 -47.5 -100.5t-123.5 -60.5q-41 0 -81 9.5z" />
    <glyph glyph-name="agrave" unicode="&#xe0;" horiz-adv-x="491" 
d="M66.5 16.5q-38.5 31.5 -38.5 89.5q0 66 54 106l219 68v78q0 33 -4 52t-20.5 30t-50.5 11q-13 0 -24.5 -2t-27.5 -7l-22 -121h-107v81l197 83q66 0 104.5 -14t56 -46t17.5 -88v-218q0 -41 15 -89l50 6l1 -12l-160 -32l-23 85l-137 -92q-61 0 -99.5 31.5zM247.5 57.5
q17.5 7.5 31.5 17.5l22 15v178l-107 -41q-43 -36 -43 -92q0 -39 17.5 -62t45.5 -23q16 0 33.5 7.5zM96 710h107l55 -161h-21z" />
    <glyph glyph-name="aacute" unicode="&#xe1;" horiz-adv-x="491" 
d="M66.5 16.5q-38.5 31.5 -38.5 89.5q0 66 54 106l219 68v78q0 33 -4 52t-20.5 30t-50.5 11q-13 0 -24.5 -2t-27.5 -7l-22 -121h-107v81l197 83q66 0 104.5 -14t56 -46t17.5 -88v-218q0 -41 15 -89l50 6l1 -12l-160 -32l-23 85l-137 -92q-61 0 -99.5 31.5zM247.5 57.5
q17.5 7.5 31.5 17.5l22 15v178l-107 -41q-43 -36 -43 -92q0 -39 17.5 -62t45.5 -23q16 0 33.5 7.5zM292 710h107l-141 -161h-21z" />
    <glyph glyph-name="acircumflex" unicode="&#xe2;" horiz-adv-x="491" 
d="M66.5 16.5q-38.5 31.5 -38.5 89.5q0 66 54 106l219 68v78q0 33 -4 52t-20.5 30t-50.5 11q-13 0 -24.5 -2t-27.5 -7l-22 -121h-107v81l197 83q66 0 104.5 -14t56 -46t17.5 -88v-218q0 -41 15 -89l50 6l1 -12l-160 -32l-23 85l-137 -92q-61 0 -99.5 31.5zM247.5 57.5
q17.5 7.5 31.5 17.5l22 15v178l-107 -41q-43 -36 -43 -92q0 -39 17.5 -62t45.5 -23q16 0 33.5 7.5zM230 710h38l123 -161h-25l-117 91l-117 -91h-25z" />
    <glyph glyph-name="atilde" unicode="&#xe3;" horiz-adv-x="491" 
d="M66.5 16.5q-38.5 31.5 -38.5 89.5q0 66 54 106l219 68v78q0 33 -4 52t-20.5 30t-50.5 11q-13 0 -24.5 -2t-27.5 -7l-22 -121h-107v81l197 83q66 0 104.5 -14t56 -46t17.5 -88v-218q0 -41 15 -89l50 6l1 -12l-160 -32l-23 85l-137 -92q-61 0 -99.5 31.5zM247.5 57.5
q17.5 7.5 31.5 17.5l22 15v178l-107 -41q-43 -36 -43 -92q0 -39 17.5 -62t45.5 -23q16 0 33.5 7.5zM125 648l-35 -78h-10l33 111l52 17l207 -75l34 77h11l-33 -111l-52 -17z" />
    <glyph glyph-name="adieresis" unicode="&#xe4;" horiz-adv-x="491" 
d="M66.5 16.5q-38.5 31.5 -38.5 89.5q0 66 54 106l219 68v78q0 33 -4 52t-20.5 30t-50.5 11q-13 0 -24.5 -2t-27.5 -7l-22 -121h-107v81l197 83q66 0 104.5 -14t56 -46t17.5 -88v-218q0 -41 15 -89l50 6l1 -12l-160 -32l-23 85l-137 -92q-61 0 -99.5 31.5zM247.5 57.5
q17.5 7.5 31.5 17.5l22 15v178l-107 -41q-43 -36 -43 -92q0 -39 17.5 -62t45.5 -23q16 0 33.5 7.5zM114 586l-5 52l9 41l62 5l26 -5l6 -49l-10 -44l-63 -5zM290 586l-6 52l10 41l62 5l25 -5l6 -49l-10 -44l-62 -5z" />
    <glyph glyph-name="aring" unicode="&#xe5;" horiz-adv-x="491" 
d="M66.5 16.5q-38.5 31.5 -38.5 89.5q0 66 54 106l219 68v78q0 33 -4 52t-20.5 30t-50.5 11q-13 0 -24.5 -2t-27.5 -7l-22 -121h-107v81l197 83q66 0 104.5 -14t56 -46t17.5 -88v-218q0 -41 15 -89l50 6l1 -12l-160 -32l-23 85l-137 -92q-61 0 -99.5 31.5zM247.5 57.5
q17.5 7.5 31.5 17.5l22 15v178l-107 -41q-43 -36 -43 -92q0 -39 17.5 -62t45.5 -23q16 0 33.5 7.5zM172 567.5q-32 24.5 -32 75.5q0 42 27 62.5t81 38.5q48 0 78.5 -23.5t30.5 -75.5q0 -43 -26.5 -63.5t-81.5 -38.5q-45 0 -77 24.5zM302.5 588.5q21.5 21.5 21.5 55.5
t-21.5 55.5t-54.5 21.5t-54 -21.5t-21 -55.5t21 -55.5t54 -21.5t54.5 21.5z" />
    <glyph glyph-name="ae" unicode="&#xe6;" horiz-adv-x="737" 
d="M704 104q-46 -42 -86 -68t-96 -51q-66 0 -119 28.5t-81 83.5l-156 -112q-61 0 -99.5 31.5t-38.5 89.5q0 66 54 106l214 68v78q0 32 -4 51t-18.5 30.5t-44.5 11.5q-17 0 -28 -2t-26 -7l-22 -123h-106v83l194 83q75 0 107.5 -13.5t46.5 -54.5q48 45 139 68q77 0 122 -48
t45 -133v-35h-294q1 -92 46 -142.5t119 -50.5q32 0 62 10t62 29zM430.5 410.5q-22.5 -47.5 -23.5 -129.5h171q0 90 -16 133.5t-61 43.5q-48 0 -70.5 -47.5zM305 103q-9 41 -9 90v75l-102 -41q-43 -36 -43 -92q0 -39 17.5 -62t44.5 -23q17 0 30 7t32 22z" />
    <glyph glyph-name="ccedilla" unicode="&#xe7;" horiz-adv-x="449" 
d="M301 -69q23 -21 23 -51q-1 -34 -27 -54.5t-70 -38.5l-75 -30h-27l29 44h81q12 10 19 26t7 33q0 28 -16.5 40.5t-44.5 15.5l46 69q-62 3 -110.5 31.5t-76.5 80t-28 118.5q0 76 33.5 133t89 91t122.5 46q32 0 72 -15.5t68 -37.5v-100h-93l-37 124q-14 6 -32 6
q-51 0 -85 -42.5t-34 -131.5q0 -61 21.5 -110.5t59.5 -77.5t88 -28q33 0 59.5 9.5t56.5 30.5l4 -8q-40 -39 -78 -66t-86 -52l-20 -30q38 -4 61 -25z" />
    <glyph glyph-name="egrave" unicode="&#xe8;" horiz-adv-x="474" 
d="M441 106q-45 -43 -84 -69.5t-94 -51.5q-63 0 -116 27t-84.5 79t-31.5 123q0 111 65 180t166 91q82 0 129.5 -47.5t47.5 -133.5v-32h-304q4 -90 52.5 -143t125.5 -53q32 0 61 10t60 29zM159.5 414.5q-24.5 -43.5 -24.5 -129.5h181v29q0 71 -18 107.5t-66 36.5t-72.5 -43.5
zM107 710h107l55 -161h-21z" />
    <glyph glyph-name="eacute" unicode="&#xe9;" horiz-adv-x="474" 
d="M441 106q-45 -43 -84 -69.5t-94 -51.5q-63 0 -116 27t-84.5 79t-31.5 123q0 111 65 180t166 91q82 0 129.5 -47.5t47.5 -133.5v-32h-304q4 -90 52.5 -143t125.5 -53q32 0 61 10t60 29zM159.5 414.5q-24.5 -43.5 -24.5 -129.5h181v29q0 71 -18 107.5t-66 36.5t-72.5 -43.5
zM303 710h107l-141 -161h-21z" />
    <glyph glyph-name="ecircumflex" unicode="&#xea;" horiz-adv-x="474" 
d="M441 106q-45 -43 -84 -69.5t-94 -51.5q-63 0 -116 27t-84.5 79t-31.5 123q0 111 65 180t166 91q82 0 129.5 -47.5t47.5 -133.5v-32h-304q4 -90 52.5 -143t125.5 -53q32 0 61 10t60 29zM159.5 414.5q-24.5 -43.5 -24.5 -129.5h181v29q0 71 -18 107.5t-66 36.5t-72.5 -43.5
zM241 710h38l123 -161h-25l-117 91l-117 -91h-25z" />
    <glyph glyph-name="edieresis" unicode="&#xeb;" horiz-adv-x="474" 
d="M441 106q-45 -43 -84 -69.5t-94 -51.5q-63 0 -116 27t-84.5 79t-31.5 123q0 111 65 180t166 91q82 0 129.5 -47.5t47.5 -133.5v-32h-304q4 -90 52.5 -143t125.5 -53q32 0 61 10t60 29zM159.5 414.5q-24.5 -43.5 -24.5 -129.5h181v29q0 71 -18 107.5t-66 36.5t-72.5 -43.5
zM125 586l-5 52l9 41l62 5l26 -5l6 -49l-10 -44l-63 -5zM301 586l-6 52l10 41l62 5l25 -5l6 -49l-10 -44l-62 -5z" />
    <glyph glyph-name="igrave" unicode="&#xec;" horiz-adv-x="285" 
d="M33 13l58 7v420l-59 -12l-2 14l164 38h12v-460l59 -7v-13h-232v13zM-4 710h107l55 -161h-21z" />
    <glyph glyph-name="iacute" unicode="&#xed;" horiz-adv-x="285" 
d="M33 13l58 7v420l-59 -12l-2 14l164 38h12v-460l59 -7v-13h-232v13zM192 710h107l-141 -161h-21z" />
    <glyph glyph-name="icircumflex" unicode="&#xee;" horiz-adv-x="285" 
d="M33 13l58 7v420l-59 -12l-2 14l164 38h12v-460l59 -7v-13h-232v13zM130 710h38l123 -161h-25l-117 91l-117 -91h-25z" />
    <glyph glyph-name="idieresis" unicode="&#xef;" horiz-adv-x="285" 
d="M33 13l58 7v420l-59 -12l-2 14l164 38h12v-460l59 -7v-13h-232v13zM14 586l-5 52l9 41l62 5l26 -5l6 -49l-10 -44l-63 -5zM190 586l-6 52l10 41l62 5l25 -5l6 -49l-10 -44l-62 -5z" />
    <glyph glyph-name="eth" unicode="&#xf0;" horiz-adv-x="540" 
d="M449.5 470.5q50.5 -93.5 50.5 -206.5q0 -76 -27 -140t-79 -101.5t-123 -37.5q-124 32 -185 102t-61 173q0 53 18 100t56.5 76.5t95.5 29.5l170 -102q-12 154 -100 246l-116 -57v12l108 53q-58 57 -147 93l4 9q104 -29 182 -83l105 51v-12l-94 -46q92 -66 142.5 -159.5z
M367 349l-32 17q-30 16 -49.5 23t-41.5 7q-92 0 -92 -178q0 -107 24 -157.5t75 -50.5q55 0 85.5 74.5t31.5 196.5q0 46 -1 68z" />
    <glyph glyph-name="ntilde" unicode="&#xf1;" horiz-adv-x="583" 
d="M33 13l58 7v420l-59 -12l-2 14l164 38h12v-106l179 111q48 0 73 -15.5t34.5 -47t9.5 -84.5v-318l65 -7v-13h-227v13l43 7v323q0 39 -13 55.5t-41 16.5q-22 0 -40 -8t-50 -28l-33 -19v-340l44 -7v-13h-217v13zM168 648l-35 -78h-10l33 111l52 17l207 -75l34 77h11
l-33 -111l-52 -17z" />
    <glyph glyph-name="ograve" unicode="&#xf2;" horiz-adv-x="532" 
d="M137 15.5q-50 30.5 -78 84.5t-28 123q0 112 66 173t185 89q63 0 113 -30.5t78 -84.5t28 -123q0 -112 -66 -173.5t-186 -88.5q-62 0 -112 30.5zM352 61q26 52 26 149q0 80 -16.5 136t-44.5 85t-63 29q-49 0 -74.5 -51.5t-25.5 -150.5q0 -75 16 -131.5t44 -87t63 -30.5
q49 0 75 52zM114 710h107l55 -161h-21z" />
    <glyph glyph-name="oacute" unicode="&#xf3;" horiz-adv-x="532" 
d="M137 15.5q-50 30.5 -78 84.5t-28 123q0 112 66 173t185 89q63 0 113 -30.5t78 -84.5t28 -123q0 -112 -66 -173.5t-186 -88.5q-62 0 -112 30.5zM352 61q26 52 26 149q0 80 -16.5 136t-44.5 85t-63 29q-49 0 -74.5 -51.5t-25.5 -150.5q0 -75 16 -131.5t44 -87t63 -30.5
q49 0 75 52zM310 710h107l-141 -161h-21z" />
    <glyph glyph-name="ocircumflex" unicode="&#xf4;" horiz-adv-x="532" 
d="M137 15.5q-50 30.5 -78 84.5t-28 123q0 112 66 173t185 89q63 0 113 -30.5t78 -84.5t28 -123q0 -112 -66 -173.5t-186 -88.5q-62 0 -112 30.5zM352 61q26 52 26 149q0 80 -16.5 136t-44.5 85t-63 29q-49 0 -74.5 -51.5t-25.5 -150.5q0 -75 16 -131.5t44 -87t63 -30.5
q49 0 75 52zM248 710h38l123 -161h-25l-117 91l-117 -91h-25z" />
    <glyph glyph-name="otilde" unicode="&#xf5;" horiz-adv-x="532" 
d="M137 15.5q-50 30.5 -78 84.5t-28 123q0 112 66 173t185 89q63 0 113 -30.5t78 -84.5t28 -123q0 -112 -66 -173.5t-186 -88.5q-62 0 -112 30.5zM352 61q26 52 26 149q0 80 -16.5 136t-44.5 85t-63 29q-49 0 -74.5 -51.5t-25.5 -150.5q0 -75 16 -131.5t44 -87t63 -30.5
q49 0 75 52zM143 648l-35 -78h-10l33 111l52 17l207 -75l34 77h11l-33 -111l-52 -17z" />
    <glyph glyph-name="odieresis" unicode="&#xf6;" horiz-adv-x="532" 
d="M137 15.5q-50 30.5 -78 84.5t-28 123q0 112 66 173t185 89q63 0 113 -30.5t78 -84.5t28 -123q0 -112 -66 -173.5t-186 -88.5q-62 0 -112 30.5zM352 61q26 52 26 149q0 80 -16.5 136t-44.5 85t-63 29q-49 0 -74.5 -51.5t-25.5 -150.5q0 -75 16 -131.5t44 -87t63 -30.5
q49 0 75 52zM132 586l-5 52l9 41l62 5l26 -5l6 -49l-10 -44l-63 -5zM308 586l-6 52l10 41l62 5l25 -5l6 -49l-10 -44l-62 -5z" />
    <glyph glyph-name="divide" unicode="&#xf7;" 
d="M262 383l-5 53l7 44l69 6l27 -6l5 -51l-7 -46l-69 -5zM47 265h526v-26h-526v26zM262 18l-5 54l7 44l69 5l27 -5l5 -52l-7 -46l-69 -5z" />
    <glyph glyph-name="oslash" unicode="&#xf8;" horiz-adv-x="532" 
d="M484 345q17 -45 17 -98q0 -112 -66 -173.5t-186 -88.5q-42 0 -79 14t-65 40l-43 -49h-19l52 59q-31 33 -47.5 77.5t-16.5 96.5q0 112 66 173t185 89q85 0 145 -54l46 53h17l-54 -62q31 -32 48 -77zM168 134l191 220q-15 52 -43 79t-62 27q-49 0 -74.5 -51.5t-25.5 -150.5
q0 -70 14 -124zM352 61q26 52 26 149q0 74 -14 128l-191 -220q16 -52 43 -80.5t61 -28.5q49 0 75 52z" />
    <glyph glyph-name="ugrave" unicode="&#xf9;" horiz-adv-x="559" 
d="M116 0.5q-26 15.5 -35.5 46.5t-9.5 85v309l-58 -7l-1 13l165 30h13v-349q0 -74 55 -74q19 0 34.5 6.5t42.5 22.5l36 22v336l-58 -7l-1 13l162 30h12v-346q0 -28 3 -49.5t10 -48.5l48 4l2 -13l-158 -30l-18 96l-169 -105q-49 0 -75 15.5zM127 710h107l55 -161h-21z" />
    <glyph glyph-name="uacute" unicode="&#xfa;" horiz-adv-x="559" 
d="M116 0.5q-26 15.5 -35.5 46.5t-9.5 85v309l-58 -7l-1 13l165 30h13v-349q0 -74 55 -74q19 0 34.5 6.5t42.5 22.5l36 22v336l-58 -7l-1 13l162 30h12v-346q0 -28 3 -49.5t10 -48.5l48 4l2 -13l-158 -30l-18 96l-169 -105q-49 0 -75 15.5zM323 710h107l-141 -161h-21z" />
    <glyph glyph-name="ucircumflex" unicode="&#xfb;" horiz-adv-x="559" 
d="M116 0.5q-26 15.5 -35.5 46.5t-9.5 85v309l-58 -7l-1 13l165 30h13v-349q0 -74 55 -74q19 0 34.5 6.5t42.5 22.5l36 22v336l-58 -7l-1 13l162 30h12v-346q0 -28 3 -49.5t10 -48.5l48 4l2 -13l-158 -30l-18 96l-169 -105q-49 0 -75 15.5zM261 710h38l123 -161h-25l-117 91
l-117 -91h-25z" />
    <glyph glyph-name="udieresis" unicode="&#xfc;" horiz-adv-x="559" 
d="M116 0.5q-26 15.5 -35.5 46.5t-9.5 85v309l-58 -7l-1 13l165 30h13v-349q0 -74 55 -74q19 0 34.5 6.5t42.5 22.5l36 22v336l-58 -7l-1 13l162 30h12v-346q0 -28 3 -49.5t10 -48.5l48 4l2 -13l-158 -30l-18 96l-169 -105q-49 0 -75 15.5zM145 586l-5 52l9 41l62 5l26 -5
l6 -49l-10 -44l-63 -5zM321 586l-6 52l10 41l62 5l25 -5l6 -49l-10 -44l-62 -5z" />
    <glyph glyph-name="yacute" unicode="&#xfd;" horiz-adv-x="537" 
d="M84 -127h125l107 177l-103 -42l-161 442l-47 7v13h232v-13l-54 -7l138 -386l136 386l-64 7v13h139v-13l-53 -7l-144 -409l-128 -276h-123v108zM312 710h107l-141 -161h-21z" />
    <glyph glyph-name="thorn" unicode="&#xfe;" horiz-adv-x="537" 
d="M19 -217l59 7v888l-59 -13l-2 14l164 33h12v-327l140 100q51 0 92.5 -28.5t65 -78.5t23.5 -113q0 -225 -220 -280q-62 0 -101 29v-224l89 -7v-13h-263v13zM355.5 66.5q32.5 55.5 32.5 150.5q0 86 -27 140t-78 54q-18 0 -30 -5.5t-25 -13.5t-19 -12l-16 -10v-323
q12 -17 31 -27t42 -10q57 1 89.5 56.5z" />
    <glyph glyph-name="ydieresis" unicode="&#xff;" horiz-adv-x="537" 
d="M84 -127h125l107 177l-103 -42l-161 442l-47 7v13h232v-13l-54 -7l138 -386l136 386l-64 7v13h139v-13l-53 -7l-144 -409l-128 -276h-123v108zM134 586l-5 52l9 41l62 5l26 -5l6 -49l-10 -44l-63 -5zM310 586l-6 52l10 41l62 5l25 -5l6 -49l-10 -44l-62 -5z" />
    <glyph glyph-name="Amacron" unicode="&#x100;" horiz-adv-x="699" 
d="M206 839h288v-44h-288v44zM5 13l65 7l232 654l95 40l233 -694l64 -7v-13h-287v12l81 8l-74 229h-242l-79 -229l82 -8v-12h-170v13zM409 267l-111 343l-119 -343h230z" />
    <glyph glyph-name="amacron" unicode="&#x101;" horiz-adv-x="491" 
d="M66.5 16.5q-38.5 31.5 -38.5 89.5q0 66 54 106l219 68v78q0 33 -4 52t-20.5 30t-50.5 11q-13 0 -24.5 -2t-27.5 -7l-22 -121h-107v81l197 83q66 0 104.5 -14t56 -46t17.5 -88v-218q0 -41 15 -89l50 6l1 -12l-160 -32l-23 85l-137 -92q-61 0 -99.5 31.5zM247.5 57.5
q17.5 7.5 31.5 17.5l22 15v178l-107 -41q-43 -36 -43 -92q0 -39 17.5 -62t45.5 -23q16 0 33.5 7.5zM105 648h288v-44h-288v44z" />
    <glyph glyph-name="Abreve" unicode="&#x102;" horiz-adv-x="699" 
d="M269.5 793q-38.5 35 -56.5 85l9 8q19 -27 51 -48.5t77 -21.5q44 0 73.5 20.5t52.5 50.5l9 -8q-15 -36 -42 -65.5t-80 -55.5q-55 0 -93.5 35zM5 13l65 7l232 654l95 40l233 -694l64 -7v-13h-287v12l81 8l-74 229h-242l-79 -229l82 -8v-12h-170v13zM409 267l-111 343
l-119 -343h230z" />
    <glyph glyph-name="abreve" unicode="&#x103;" horiz-adv-x="491" 
d="M66.5 16.5q-38.5 31.5 -38.5 89.5q0 66 54 106l219 68v78q0 33 -4 52t-20.5 30t-50.5 11q-13 0 -24.5 -2t-27.5 -7l-22 -121h-107v81l197 83q66 0 104.5 -14t56 -46t17.5 -88v-218q0 -41 15 -89l50 6l1 -12l-160 -32l-23 85l-137 -92q-61 0 -99.5 31.5zM247.5 57.5
q17.5 7.5 31.5 17.5l22 15v178l-107 -41q-43 -36 -43 -92q0 -39 17.5 -62t45.5 -23q16 0 33.5 7.5zM157.5 603q-41.5 38 -60.5 92l10 8q20 -28 55 -50.5t84 -22.5q46 0 76.5 21t55.5 52l10 -8q-15 -38 -44.5 -70t-85.5 -60q-59 0 -100.5 38z" />
    <glyph glyph-name="Aogonek" unicode="&#x104;" horiz-adv-x="699" 
d="M446 -117v-46q0 -71 114 -71v-9q-97 0 -139.5 24.5t-42.5 75.5v50l110 112l-74 230h-242l-79 -229l82 -8v-12h-170v13l65 7l232 654l95 40l233 -694l64 -7v-13h-199zM409 267l-111 343l-119 -343h230z" />
    <glyph glyph-name="aogonek" unicode="&#x105;" horiz-adv-x="491" 
d="M414 -234v-9q-97 0 -139.5 24.5t-42.5 75.5v50l92 94l-21 76l-137 -92q-61 0 -99.5 31.5t-38.5 89.5q0 66 54 106l219 68v78q0 33 -4 52t-20.5 30t-50.5 11q-13 0 -24.5 -2t-27.5 -7l-22 -121h-107v81l197 83q66 0 104.5 -14t56 -46t17.5 -88v-218q0 -41 15 -89l50 6
l1 -12l-139 -28l-47 -113v-46q0 -71 114 -71zM301 268l-107 -41q-43 -36 -43 -92q0 -39 17.5 -62t45.5 -23q16 0 33.5 7.5t31.5 17.5l22 15v178z" />
    <glyph glyph-name="Cacute" unicode="&#x106;" horiz-adv-x="684" 
d="M425 904h107l-137 -135h-16zM215.5 24.5q-81.5 40.5 -130.5 120t-49 190.5q0 168 99 266t272 115q71 0 125 -13t106 -38v-175h-13l-70 150q-28 29 -62 44.5t-82 15.5q-64 0 -116 -39t-82 -117.5t-30 -190.5q0 -99 25.5 -178t78.5 -125.5t132 -46.5q39 0 75.5 16t61.5 41
l70 161h12v-176q-61 -26 -114.5 -40t-128.5 -21q-98 0 -179.5 40.5z" />
    <glyph glyph-name="cacute" unicode="&#x107;" horiz-adv-x="449" 
d="M141.5 13q-51.5 28 -81 80.5t-29.5 121.5q0 76 33.5 133t89 91t122.5 46q32 0 72 -15.5t68 -37.5v-100h-93l-37 124q-14 6 -32 6q-51 0 -85 -42.5t-34 -131.5q0 -61 21.5 -110.5t59.5 -77.5t88 -28q33 0 59.5 9.5t56.5 30.5l4 -8q-41 -40 -79 -67t-87 -52
q-65 0 -116.5 28zM296 710h107l-141 -161h-21z" />
    <glyph glyph-name="Ccircumflex" unicode="&#x108;" horiz-adv-x="684" 
d="M375 908h34l129 -139h-17l-129 79l-129 -79h-17zM215.5 24.5q-81.5 40.5 -130.5 120t-49 190.5q0 168 99 266t272 115q71 0 125 -13t106 -38v-175h-13l-70 150q-28 29 -62 44.5t-82 15.5q-64 0 -116 -39t-82 -117.5t-30 -190.5q0 -99 25.5 -178t78.5 -125.5t132 -46.5
q39 0 75.5 16t61.5 41l70 161h12v-176q-61 -26 -114.5 -40t-128.5 -21q-98 0 -179.5 40.5z" />
    <glyph glyph-name="ccircumflex" unicode="&#x109;" horiz-adv-x="449" 
d="M141.5 13q-51.5 28 -81 80.5t-29.5 121.5q0 76 33.5 133t89 91t122.5 46q32 0 72 -15.5t68 -37.5v-100h-93l-37 124q-14 6 -32 6q-51 0 -85 -42.5t-34 -131.5q0 -61 21.5 -110.5t59.5 -77.5t88 -28q33 0 59.5 9.5t56.5 30.5l4 -8q-41 -40 -79 -67t-87 -52
q-65 0 -116.5 28zM234 710h38l123 -161h-25l-117 91l-117 -91h-25z" />
    <glyph glyph-name="Cdotaccent" unicode="&#x10a;" horiz-adv-x="684" 
d="M348 792l-6 55l10 45l75 6l27 -6l6 -53l-11 -47l-75 -6zM215.5 24.5q-81.5 40.5 -130.5 120t-49 190.5q0 168 99 266t272 115q71 0 125 -13t106 -38v-175h-13l-70 150q-28 29 -62 44.5t-82 15.5q-64 0 -116 -39t-82 -117.5t-30 -190.5q0 -99 25.5 -178t78.5 -125.5
t132 -46.5q39 0 75.5 16t61.5 41l70 161h12v-176q-61 -26 -114.5 -40t-128.5 -21q-98 0 -179.5 40.5z" />
    <glyph glyph-name="cdotaccent" unicode="&#x10b;" horiz-adv-x="449" 
d="M141.5 13q-51.5 28 -81 80.5t-29.5 121.5q0 76 33.5 133t89 91t122.5 46q32 0 72 -15.5t68 -37.5v-100h-93l-37 124q-14 6 -32 6q-51 0 -85 -42.5t-34 -131.5q0 -61 21.5 -110.5t59.5 -77.5t88 -28q33 0 59.5 9.5t56.5 30.5l4 -8q-41 -40 -79 -67t-87 -52
q-65 0 -116.5 28zM201 589l-5 53l9 44l73 5l26 -5l6 -52l-10 -45l-73 -6z" />
    <glyph glyph-name="Ccaron" unicode="&#x10c;" horiz-adv-x="684" 
d="M246 904h17l129 -80l129 80h17l-129 -140h-34zM215.5 24.5q-81.5 40.5 -130.5 120t-49 190.5q0 168 99 266t272 115q71 0 125 -13t106 -38v-175h-13l-70 150q-28 29 -62 44.5t-82 15.5q-64 0 -116 -39t-82 -117.5t-30 -190.5q0 -99 25.5 -178t78.5 -125.5t132 -46.5
q39 0 75.5 16t61.5 41l70 161h12v-176q-61 -26 -114.5 -40t-128.5 -21q-98 0 -179.5 40.5z" />
    <glyph glyph-name="ccaron" unicode="&#x10d;" horiz-adv-x="449" 
d="M141.5 13q-51.5 28 -81 80.5t-29.5 121.5q0 76 33.5 133t89 91t122.5 46q32 0 72 -15.5t68 -37.5v-100h-93l-37 124q-14 6 -32 6q-51 0 -85 -42.5t-34 -131.5q0 -61 21.5 -110.5t59.5 -77.5t88 -28q33 0 59.5 9.5t56.5 30.5l4 -8q-41 -40 -79 -67t-87 -52
q-65 0 -116.5 28zM115 710h25l113 -89l114 89h24l-118 -161h-39z" />
    <glyph glyph-name="Dcaron" unicode="&#x10e;" horiz-adv-x="725" 
d="M180 904h17l129 -80l129 80h17l-129 -140h-34zM26 13l78 7v660l-78 7v13h323q106 0 182.5 -40t117 -115.5t40.5 -179.5q0 -160 -86.5 -258.5t-254.5 -106.5h-322v13zM447 56.5q49 43.5 76 122t27 181.5q0 150 -55.5 238.5t-169.5 88.5l-92 -7v-660l101 -7q64 0 113 43.5z
" />
    <glyph glyph-name="dcaron" unicode="&#x10f;" horiz-adv-x="642" 
d="M123.5 15q-43.5 30 -68 82t-24.5 114q0 106 54 178.5t166 95.5q57 0 101 -27v219l-57 -9l-3 14l162 31h12v-592q0 -28 3 -46t13 -42l58 6l2 -13l-162 -34l-26 96l-134 -103q-53 0 -96.5 30zM294 65q13 6 39 24l19 12v326q-12 14 -30 23.5t-40 9.5q-62 -1 -93.5 -55
t-31.5 -148q0 -86 28.5 -142t76.5 -56q19 0 32 6zM523 440l40 89l28 63l-46 -3l-28 5l-6 62l10 49l78 5l31 -5l6 -58l-10 -53l-94 -158z" />
    <glyph glyph-name="Dcroat" unicode="&#x110;" horiz-adv-x="725" 
d="M531.5 660q76.5 -40 117 -115.5t40.5 -179.5q0 -160 -86.5 -258.5t-254.5 -106.5h-322v13l78 7v340h-68v11h68v309l-78 7v13h323q106 0 182.5 -40zM447 56.5q49 43.5 76 122t27 181.5q0 150 -55.5 238.5t-169.5 88.5l-92 -7v-309h129v-11h-129v-340l101 -7q64 0 113 43.5
z" />
    <glyph glyph-name="dcroat" unicode="&#x111;" horiz-adv-x="560" 
d="M542 26l-162 -34l-26 96l-134 -103q-53 0 -96.5 30t-68 82t-24.5 114q0 106 54 178.5t166 95.5q57 0 101 -27v121h-105v11h105v87l-57 -9l-3 14l162 31h12v-123h64v-11h-64v-458q0 -28 3 -46t13 -42l58 6zM352 427q-12 14 -30 23.5t-40 9.5q-62 -1 -93.5 -55t-31.5 -148
q0 -86 28.5 -142t76.5 -56q19 0 32 6t39 24l19 12v326z" />
    <glyph glyph-name="Emacron" unicode="&#x112;" horiz-adv-x="602" 
d="M177 839h288v-44h-288v44zM26 13l72 7v660l-72 7v13h542v-185h-13l-71 169h-257v-309h143l46 121h12v-258h-12l-46 121h-143v-343h263l68 175h13v-191h-545v13z" />
    <glyph glyph-name="emacron" unicode="&#x113;" horiz-adv-x="474" 
d="M441 106q-45 -43 -84 -69.5t-94 -51.5q-63 0 -116 27t-84.5 79t-31.5 123q0 111 65 180t166 91q82 0 129.5 -47.5t47.5 -133.5v-32h-304q4 -90 52.5 -143t125.5 -53q32 0 61 10t60 29zM159.5 414.5q-24.5 -43.5 -24.5 -129.5h181v29q0 71 -18 107.5t-66 36.5t-72.5 -43.5
zM116 648h288v-44h-288v44z" />
    <glyph glyph-name="Ebreve" unicode="&#x114;" horiz-adv-x="602" 
d="M240.5 793q-38.5 35 -56.5 85l9 8q19 -27 51 -48.5t77 -21.5q44 0 73.5 20.5t52.5 50.5l9 -8q-15 -36 -42 -65.5t-80 -55.5q-55 0 -93.5 35zM26 13l72 7v660l-72 7v13h542v-185h-13l-71 169h-257v-309h143l46 121h12v-258h-12l-46 121h-143v-343h263l68 175h13v-191h-545
v13z" />
    <glyph glyph-name="ebreve" unicode="&#x115;" horiz-adv-x="474" 
d="M441 106q-45 -43 -84 -69.5t-94 -51.5q-63 0 -116 27t-84.5 79t-31.5 123q0 111 65 180t166 91q82 0 129.5 -47.5t47.5 -133.5v-32h-304q4 -90 52.5 -143t125.5 -53q32 0 61 10t60 29zM159.5 414.5q-24.5 -43.5 -24.5 -129.5h181v29q0 71 -18 107.5t-66 36.5t-72.5 -43.5
zM168.5 603q-41.5 38 -60.5 92l10 8q20 -28 55 -50.5t84 -22.5q46 0 76.5 21t55.5 52l10 -8q-15 -38 -44.5 -70t-85.5 -60q-59 0 -100.5 38z" />
    <glyph glyph-name="Edotaccent" unicode="&#x116;" horiz-adv-x="602" 
d="M268 792l-6 55l10 45l75 6l27 -6l6 -53l-11 -47l-75 -6zM26 13l72 7v660l-72 7v13h542v-185h-13l-71 169h-257v-309h143l46 121h12v-258h-12l-46 121h-143v-343h263l68 175h13v-191h-545v13z" />
    <glyph glyph-name="edotaccent" unicode="&#x117;" horiz-adv-x="474" 
d="M441 106q-45 -43 -84 -69.5t-94 -51.5q-63 0 -116 27t-84.5 79t-31.5 123q0 111 65 180t166 91q82 0 129.5 -47.5t47.5 -133.5v-32h-304q4 -90 52.5 -143t125.5 -53q32 0 61 10t60 29zM159.5 414.5q-24.5 -43.5 -24.5 -129.5h181v29q0 71 -18 107.5t-66 36.5t-72.5 -43.5
zM208 589l-5 53l9 44l73 5l26 -5l6 -52l-10 -45l-73 -6z" />
    <glyph glyph-name="Eogonek" unicode="&#x118;" horiz-adv-x="602" 
d="M456 -117v-46q0 -71 114 -71v-9q-97 0 -139.5 24.5t-42.5 75.5v50l91 93h-453v13l72 7v660l-72 7v13h542v-185h-13l-71 169h-257v-309h143l46 121h12v-258h-12l-46 121h-143v-343h263l68 175h13v-191h-66z" />
    <glyph glyph-name="eogonek" unicode="&#x119;" horiz-adv-x="474" 
d="M362 -234v-9q-97 0 -139.5 24.5t-42.5 75.5v50l76 78q-62 2 -113 29.5t-81.5 78.5t-30.5 121q0 111 65 180t166 91q82 0 129.5 -47.5t47.5 -133.5v-32h-304q4 -90 52.5 -143t125.5 -53q32 0 61 10t60 29l7 -9q-39 -37 -71.5 -60.5t-71.5 -43.5l-50 -119v-46
q0 -71 114 -71zM159.5 414.5q-24.5 -43.5 -24.5 -129.5h181v29q0 71 -18 107.5t-66 36.5t-72.5 -43.5z" />
    <glyph glyph-name="Ecaron" unicode="&#x11a;" horiz-adv-x="602" 
d="M175 904h17l129 -80l129 80h17l-129 -140h-34zM26 13l72 7v660l-72 7v13h542v-185h-13l-71 169h-257v-309h143l46 121h12v-258h-12l-46 121h-143v-343h263l68 175h13v-191h-545v13z" />
    <glyph glyph-name="ecaron" unicode="&#x11b;" horiz-adv-x="474" 
d="M441 106q-45 -43 -84 -69.5t-94 -51.5q-63 0 -116 27t-84.5 79t-31.5 123q0 111 65 180t166 91q82 0 129.5 -47.5t47.5 -133.5v-32h-304q4 -90 52.5 -143t125.5 -53q32 0 61 10t60 29zM159.5 414.5q-24.5 -43.5 -24.5 -129.5h181v29q0 71 -18 107.5t-66 36.5t-72.5 -43.5
zM122 710h25l113 -89l114 89h24l-118 -161h-39z" />
    <glyph glyph-name="Gcircumflex" unicode="&#x11c;" horiz-adv-x="723" 
d="M390 908h34l129 -139h-17l-129 79l-129 -79h-17zM208 25.5q-79 41.5 -125.5 121t-46.5 188.5q0 167 99.5 266.5t277.5 114.5q129 0 225 -51v-175h-13l-71 150q-26 28 -60 44t-81 16q-69 0 -121 -44t-80.5 -123t-28.5 -183q0 -97 23.5 -176.5t72 -126.5t119.5 -47
q39 0 70 14.5t49 37.5v243l-75 9v14h260v-14l-56 -9v-250q-123 -55 -265 -61q-94 0 -173 41.5z" />
    <glyph glyph-name="gcircumflex" unicode="&#x11d;" horiz-adv-x="514" 
d="M69.5 -215.5q-51.5 27.5 -51.5 92.5v18l115 85q-48 11 -71 37.5t-23 62.5v17l102 78q-46 17 -73 53.5t-27 83.5q0 65 49.5 106t151.5 66q61 0 107 -26t63 -69l50 95h47v-106h-87l-6 -6q8 -15 8 -36q-1 -66 -49.5 -107.5t-150.5 -68.5q-37 0 -70 11l-37 -37q0 -53 56 -53
h201q50 0 78 -28.5t28 -69.5q0 -75 -67 -129.5t-187 -96.5q-105 0 -156.5 27.5zM310 312q0 153 -85 153q-35 0 -52.5 -34t-17.5 -98q0 -152 84 -152q71 0 71 131zM336 -169q41 14 64 37.5t23 52.5q0 58 -71 58h-206q-35 -30 -35 -77q0 -39 34.5 -62t96.5 -23q53 0 94 14z
M238 710h38l123 -161h-25l-117 91l-117 -91h-25z" />
    <glyph glyph-name="Gbreve" unicode="&#x11e;" horiz-adv-x="723" 
d="M326.5 793q-38.5 35 -56.5 85l9 8q19 -27 51 -48.5t77 -21.5q44 0 73.5 20.5t52.5 50.5l9 -8q-15 -36 -42 -65.5t-80 -55.5q-55 0 -93.5 35zM208 25.5q-79 41.5 -125.5 121t-46.5 188.5q0 167 99.5 266.5t277.5 114.5q129 0 225 -51v-175h-13l-71 150q-26 28 -60 44
t-81 16q-69 0 -121 -44t-80.5 -123t-28.5 -183q0 -97 23.5 -176.5t72 -126.5t119.5 -47q39 0 70 14.5t49 37.5v243l-75 9v14h260v-14l-56 -9v-250q-123 -55 -265 -61q-94 0 -173 41.5z" />
    <glyph glyph-name="gbreve" unicode="&#x11f;" horiz-adv-x="514" 
d="M69.5 -215.5q-51.5 27.5 -51.5 92.5v18l115 85q-48 11 -71 37.5t-23 62.5v17l102 78q-46 17 -73 53.5t-27 83.5q0 65 49.5 106t151.5 66q61 0 107 -26t63 -69l50 95h47v-106h-87l-6 -6q8 -15 8 -36q-1 -66 -49.5 -107.5t-150.5 -68.5q-37 0 -70 11l-37 -37q0 -53 56 -53
h201q50 0 78 -28.5t28 -69.5q0 -75 -67 -129.5t-187 -96.5q-105 0 -156.5 27.5zM310 312q0 153 -85 153q-35 0 -52.5 -34t-17.5 -98q0 -152 84 -152q71 0 71 131zM336 -169q41 14 64 37.5t23 52.5q0 58 -71 58h-206q-35 -30 -35 -77q0 -39 34.5 -62t96.5 -23q53 0 94 14z
M165.5 603q-41.5 38 -60.5 92l10 8q20 -28 55 -50.5t84 -22.5q46 0 76.5 21t55.5 52l10 -8q-15 -38 -44.5 -70t-85.5 -60q-59 0 -100.5 38z" />
    <glyph glyph-name="Gdotaccent" unicode="&#x120;" horiz-adv-x="723" 
d="M354 792l-6 55l10 45l75 6l27 -6l6 -53l-11 -47l-75 -6zM208 25.5q-79 41.5 -125.5 121t-46.5 188.5q0 167 99.5 266.5t277.5 114.5q129 0 225 -51v-175h-13l-71 150q-26 28 -60 44t-81 16q-69 0 -121 -44t-80.5 -123t-28.5 -183q0 -97 23.5 -176.5t72 -126.5t119.5 -47
q39 0 70 14.5t49 37.5v243l-75 9v14h260v-14l-56 -9v-250q-123 -55 -265 -61q-94 0 -173 41.5z" />
    <glyph glyph-name="gdotaccent" unicode="&#x121;" horiz-adv-x="514" 
d="M69.5 -215.5q-51.5 27.5 -51.5 92.5v18l115 85q-48 11 -71 37.5t-23 62.5v17l102 78q-46 17 -73 53.5t-27 83.5q0 65 49.5 106t151.5 66q61 0 107 -26t63 -69l50 95h47v-106h-87l-6 -6q8 -15 8 -36q-1 -66 -49.5 -107.5t-150.5 -68.5q-37 0 -70 11l-37 -37q0 -53 56 -53
h201q50 0 78 -28.5t28 -69.5q0 -75 -67 -129.5t-187 -96.5q-105 0 -156.5 27.5zM310 312q0 153 -85 153q-35 0 -52.5 -34t-17.5 -98q0 -152 84 -152q71 0 71 131zM336 -169q41 14 64 37.5t23 52.5q0 58 -71 58h-206q-35 -30 -35 -77q0 -39 34.5 -62t96.5 -23q53 0 94 14z
M205 589l-5 53l9 44l73 5l26 -5l6 -52l-10 -45l-73 -6z" />
    <glyph glyph-name="Gcommaaccent" unicode="&#x122;" horiz-adv-x="723" 
d="M208 25.5q-79 41.5 -125.5 121t-46.5 188.5q0 167 99.5 266.5t277.5 114.5q129 0 225 -51v-175h-13l-71 150q-26 28 -60 44t-81 16q-69 0 -121 -44t-80.5 -123t-28.5 -183q0 -97 23.5 -176.5t72 -126.5t119.5 -47q39 0 70 14.5t49 37.5v243l-75 9v14h260v-14l-56 -9v-250
q-123 -55 -265 -61q-94 0 -173 41.5zM334 -235l51 103l-43 35v43h109v-74l-104 -110z" />
    <glyph glyph-name="gcommaaccent" unicode="&#x123;" horiz-adv-x="514" 
d="M69.5 -215.5q-51.5 27.5 -51.5 92.5v18l115 85q-48 11 -71 37.5t-23 62.5v17l102 78q-46 17 -73 53.5t-27 83.5q0 65 49.5 106t151.5 66q61 0 107 -26t63 -69l50 95h47v-106h-87l-6 -6q8 -15 8 -36q-1 -66 -49.5 -107.5t-150.5 -68.5q-37 0 -70 11l-37 -37q0 -53 56 -53
h201q50 0 78 -28.5t28 -69.5q0 -75 -67 -129.5t-187 -96.5q-105 0 -156.5 27.5zM310 312q0 153 -85 153q-35 0 -52.5 -34t-17.5 -98q0 -152 84 -152q71 0 71 131zM336 -169q41 14 64 37.5t23 52.5q0 58 -71 58h-206q-35 -30 -35 -77q0 -39 34.5 -62t96.5 -23q53 0 94 14z
M198 622l105 93l12 -3l-54 -85l46 -34v-44h-109v73z" />
    <glyph glyph-name="Hcircumflex" unicode="&#x124;" horiz-adv-x="738" 
d="M352 908h34l129 -139h-17l-129 79l-129 -79h-17zM26 13l72 7v660l-72 7v13h270v-13l-69 -7v-307h284v307l-69 7v13h270v-13l-72 -7v-660l72 -7v-13h-270v13l69 7v335h-284v-335l69 -7v-13h-270v13z" />
    <glyph glyph-name="hcircumflex" unicode="&#x125;" horiz-adv-x="582" 
d="M130 908h34l129 -139h-17l-129 79l-129 -79h-17zM31 13l59 7v657l-58 -9l-2 14l162 31h13v-339l179 111q49 0 74.5 -18.5t33.5 -49.5t8 -79v-318l65 -7v-13h-227v13l43 7v323q0 39 -13 55.5t-41 16.5q-22 0 -40 -8t-50 -28l-32 -19v-340l43 -7v-13h-217v13z" />
    <glyph glyph-name="Hbar" unicode="&#x126;" horiz-adv-x="738" 
d="M640 680v-660l72 -7v-13h-270v13l69 7v335h-284v-335l69 -7v-13h-270v13l72 7v660l-72 7v13h270v-13l-69 -7v-184h284v184l-69 7v13h270v-13zM511 373v112h-284v-112h284z" />
    <glyph glyph-name="hbar" unicode="&#x127;" horiz-adv-x="582" 
d="M565 13v-13h-227v13l43 7v323q0 39 -13 55.5t-41 16.5q-22 0 -40 -8t-50 -28l-32 -19v-340l43 -7v-13h-217v13l59 7v553h-58v11h58v93l-58 -9l-2 14l162 31h13v-129h114v-11h-114v-199l179 111q49 0 74.5 -18.5t33.5 -49.5t8 -79v-318z" />
    <glyph glyph-name="Itilde" unicode="&#x128;" horiz-adv-x="324" 
d="M24 879l52 17l207 -76l36 78h11l-30 -117l-52 -17l-208 78l-35 -80h-11zM26 13l72 7v660l-72 7v13h272v-13l-71 -7v-660l71 -7v-13h-272v13z" />
    <glyph glyph-name="itilde" unicode="&#x129;" horiz-adv-x="285" 
d="M33 13l58 7v420l-59 -12l-2 14l164 38h12v-460l59 -7v-13h-232v13zM25 648l-35 -78h-10l33 111l52 17l207 -75l34 77h11l-33 -111l-52 -17z" />
    <glyph glyph-name="Imacron" unicode="&#x12a;" horiz-adv-x="324" 
d="M18 839h288v-44h-288v44zM26 13l72 7v660l-72 7v13h272v-13l-71 -7v-660l71 -7v-13h-272v13z" />
    <glyph glyph-name="imacron" unicode="&#x12b;" horiz-adv-x="285" 
d="M33 13l58 7v420l-59 -12l-2 14l164 38h12v-460l59 -7v-13h-232v13zM5 648h288v-44h-288v44z" />
    <glyph glyph-name="Ibreve" unicode="&#x12c;" horiz-adv-x="324" 
d="M81.5 793q-38.5 35 -56.5 85l9 8q19 -27 51 -48.5t77 -21.5q44 0 73.5 20.5t52.5 50.5l9 -8q-15 -36 -42 -65.5t-80 -55.5q-55 0 -93.5 35zM26 13l72 7v660l-72 7v13h272v-13l-71 -7v-660l71 -7v-13h-272v13z" />
    <glyph glyph-name="ibreve" unicode="&#x12d;" horiz-adv-x="285" 
d="M33 13l58 7v420l-59 -12l-2 14l164 38h12v-460l59 -7v-13h-232v13zM57.5 603q-41.5 38 -60.5 92l10 8q20 -28 55 -50.5t84 -22.5q46 0 76.5 21t55.5 52l10 -8q-15 -38 -44.5 -70t-85.5 -60q-59 0 -100.5 38z" />
    <glyph glyph-name="Iogonek" unicode="&#x12e;" horiz-adv-x="324" 
d="M227 680v-660l71 -7v-13h-119l-49 -117v-46q0 -71 114 -71v-9q-97 0 -139.5 24.5t-42.5 75.5v50l91 93h-127v13l72 7v660l-72 7v13h272v-13z" />
    <glyph glyph-name="iogonek" unicode="&#x12f;" horiz-adv-x="285" 
d="M93 586l-6 61l10 49l77 5l30 -5l5 -57l-10 -53l-78 -6zM114 -117v-46q0 -71 114 -71v-9q-97 0 -139.5 24.5t-42.5 75.5v50l91 93h-104v13l58 7v420l-59 -12l-2 14l164 38h12v-460l59 -7v-13h-102z" />
    <glyph glyph-name="Idotaccent" unicode="&#x130;" horiz-adv-x="324" 
d="M109 792l-6 55l10 45l75 6l27 -6l6 -53l-11 -47l-75 -6zM26 13l72 7v660l-72 7v13h272v-13l-71 -7v-660l71 -7v-13h-272v13z" />
    <glyph glyph-name="dotlessi" unicode="&#x131;" horiz-adv-x="285" 
d="M33 13l58 7v420l-59 -12l-2 14l164 38h12v-460l59 -7v-13h-232v13z" />
    <glyph glyph-name="IJ" unicode="&#x132;" horiz-adv-x="667" 
d="M26 13l72 7v660l-72 7v13h272v-13l-71 -7v-660l71 -7v-13h-272v13zM326 -72h111l3 24q5 38 5 139v589l-93 7v13h293v-13l-71 -7v-548q0 -67 -25 -116t-68 -95l-87 -96h-68v103z" />
    <glyph glyph-name="ij" unicode="&#x133;" horiz-adv-x="556" 
d="M33 13l58 7v420l-59 -12l-2 14l164 38h12v-460l59 -7v-13h-232v13zM93 586l-6 61l10 49l77 5l30 -5l5 -57l-10 -53l-78 -6zM265 -134h104l2 18q7 59 7 110v446l-59 -12l-2 14l163 38h13v-456q0 -53 -12.5 -82.5t-49.5 -66.5l-101 -113h-65v104zM379 586l-6 61l10 49l77 5
l30 -5l5 -57l-10 -53l-78 -6z" />
    <glyph glyph-name="Jcircumflex" unicode="&#x134;" horiz-adv-x="343" 
d="M155 908h34l129 -139h-17l-129 79l-129 -79h-17zM2 -72h111l3 24q5 38 5 139v589l-93 7v13h293v-13l-71 -7v-548q0 -67 -25 -116t-68 -95l-87 -96h-68v103z" />
    <glyph glyph-name="jcircumflex" unicode="&#x135;" horiz-adv-x="271" 
d="M-20 -134h104l2 18q7 59 7 110v446l-59 -12l-2 14l163 38h13v-456q0 -53 -12.5 -82.5t-49.5 -66.5l-101 -113h-65v104zM131 710h38l123 -161h-25l-117 91l-117 -91h-25z" />
    <glyph glyph-name="Kcommaaccent" unicode="&#x136;" horiz-adv-x="708" 
d="M698 13v-13h-197l-274 350v-330l69 -7v-13h-270v13l72 7v660l-72 7v13h270v-13l-69 -7v-312l330 312l-90 8v12h200v-12l-87 -8l-325 -310l95 30l294 -380zM302 -235l51 103l-43 35v43h109v-74l-104 -110z" />
    <glyph glyph-name="kcommaaccent" unicode="&#x137;" horiz-adv-x="561" 
d="M31 13l59 7v657l-58 -9l-2 14l162 31h13v-448l229 185l-70 7v13h167v-13l-68 -7l-230 -181l87 17l198 -267l38 -6v-13h-172l-179 255v-235l58 -7v-13h-232v13zM222 -235l51 103l-43 35v43h109v-74l-104 -110z" />
    <glyph glyph-name="kgreenlandic" unicode="&#x138;" horiz-adv-x="555" 
d="M31 13l59 7v413l-58 -9l-2 14l162 36h13v-207l232 183l-70 7v13h167v-13l-67 -7l-173 -137l218 -294l38 -6v-13h-172l-173 246v-226l58 -7v-13h-232v13z" />
    <glyph glyph-name="Lacute" unicode="&#x139;" horiz-adv-x="566" 
d="M204 904h107l-137 -135h-16zM26 13l72 7v660l-72 7v13h272v-13l-71 -7v-660h236l80 176h13v-196h-530v13z" />
    <glyph glyph-name="lacute" unicode="&#x13a;" horiz-adv-x="278" 
d="M172 904h107l-137 -135h-16zM31 13l59 7v657l-58 -9l-2 14l162 31h13v-693l58 -7v-13h-232v13z" />
    <glyph glyph-name="Lcommaaccent" unicode="&#x13b;" horiz-adv-x="566" 
d="M26 13l72 7v660l-72 7v13h272v-13l-71 -7v-660h236l80 176h13v-196h-530v13zM242 -235l51 103l-43 35v43h109v-74l-104 -110z" />
    <glyph glyph-name="lcommaaccent" unicode="&#x13c;" horiz-adv-x="278" 
d="M31 13l59 7v657l-58 -9l-2 14l162 31h13v-693l58 -7v-13h-232v13zM80 -235l51 103l-43 35v43h109v-74l-104 -110z" />
    <glyph glyph-name="Lcaron" unicode="&#x13d;" horiz-adv-x="566" 
d="M419 440l40 89l28 63l-46 -3l-28 5l-6 62l10 49l78 5l31 -5l6 -58l-10 -53l-94 -158zM26 13l72 7v660l-72 7v13h272v-13l-71 -7v-660h236l80 176h13v-196h-530v13z" />
    <glyph glyph-name="lcaron" unicode="&#x13e;" horiz-adv-x="389" 
d="M31 13l59 7v657l-58 -9l-2 14l162 31h13v-693l58 -7v-13h-232v13zM269 440l40 89l28 63l-46 -3l-28 5l-6 62l10 49l78 5l31 -5l6 -58l-10 -53l-94 -158z" />
    <glyph glyph-name="Ldot" unicode="&#x13f;" horiz-adv-x="566" 
d="M26 13l72 7v660l-72 7v13h272v-13l-71 -7v-660h236l80 176h13v-196h-530v13zM345 350l-5 58l7 48l76 6l29 -6l6 -56l-8 -50l-76 -6z" />
    <glyph glyph-name="ldot" unicode="&#x140;" horiz-adv-x="386" 
d="M31 13l59 7v657l-58 -9l-2 14l162 31h13v-693l58 -7v-13h-232v13zM270 350l-5 58l7 48l76 6l29 -6l6 -56l-8 -50l-76 -6z" />
    <glyph glyph-name="Lslash" unicode="&#x141;" horiz-adv-x="566" 
d="M556 196v-196h-530v13l72 7v314l-67 -33v17l67 33v329l-72 7v13h272v-13l-71 -7v-265l106 52v-16l-106 -53v-378h236l80 176h13z" />
    <glyph glyph-name="lslash" unicode="&#x142;" horiz-adv-x="278" 
d="M205 406v-386l58 -7v-13h-232v13l59 7v329l-70 -35v17l70 35v311l-58 -9l-2 14l162 31h13v-290l66 33v-17z" />
    <glyph glyph-name="Nacute" unicode="&#x143;" horiz-adv-x="684" 
d="M394 904h107l-137 -135h-16zM115 660v-640l78 -7v-13h-167v13l72 7v660l-72 7v13h221l338 -521v501l-77 7v13h166v-13l-72 -7v-685h-61z" />
    <glyph glyph-name="nacute" unicode="&#x144;" horiz-adv-x="583" 
d="M33 13l58 7v420l-59 -12l-2 14l164 38h12v-106l179 111q48 0 73 -15.5t34.5 -47t9.5 -84.5v-318l65 -7v-13h-227v13l43 7v323q0 39 -13 55.5t-41 16.5q-22 0 -40 -8t-50 -28l-33 -19v-340l44 -7v-13h-217v13zM335 710h107l-141 -161h-21z" />
    <glyph glyph-name="Ncommaaccent" unicode="&#x145;" horiz-adv-x="684" 
d="M115 660v-640l78 -7v-13h-167v13l72 7v660l-72 7v13h221l338 -521v501l-77 7v13h166v-13l-72 -7v-685h-61zM286 -235l51 103l-43 35v43h109v-74l-104 -110z" />
    <glyph glyph-name="ncommaaccent" unicode="&#x146;" horiz-adv-x="583" 
d="M33 13l58 7v420l-59 -12l-2 14l164 38h12v-106l179 111q48 0 73 -15.5t34.5 -47t9.5 -84.5v-318l65 -7v-13h-227v13l43 7v323q0 39 -13 55.5t-41 16.5q-22 0 -40 -8t-50 -28l-33 -19v-340l44 -7v-13h-217v13zM233 -235l51 103l-43 35v43h109v-74l-104 -110z" />
    <glyph glyph-name="Ncaron" unicode="&#x147;" horiz-adv-x="684" 
d="M215 904h17l129 -80l129 80h17l-129 -140h-34zM115 660v-640l78 -7v-13h-167v13l72 7v660l-72 7v13h221l338 -521v501l-77 7v13h166v-13l-72 -7v-685h-61z" />
    <glyph glyph-name="ncaron" unicode="&#x148;" horiz-adv-x="583" 
d="M33 13l58 7v420l-59 -12l-2 14l164 38h12v-106l179 111q48 0 73 -15.5t34.5 -47t9.5 -84.5v-318l65 -7v-13h-227v13l43 7v323q0 39 -13 55.5t-41 16.5q-22 0 -40 -8t-50 -28l-33 -19v-340l44 -7v-13h-217v13zM154 710h25l113 -89l114 89h24l-118 -161h-39z" />
    <glyph glyph-name="napostrophe" unicode="&#x149;" horiz-adv-x="583" 
d="M27 523l67 100l-47 43v44h109v-76l-117 -114zM33 13l58 7v420l-59 -12l-2 14l164 38h12v-106l179 111q48 0 73 -15.5t34.5 -47t9.5 -84.5v-318l65 -7v-13h-227v13l43 7v323q0 39 -13 55.5t-41 16.5q-22 0 -40 -8t-50 -28l-33 -19v-340l44 -7v-13h-217v13z" />
    <glyph glyph-name="Eng" unicode="&#x14a;" horiz-adv-x="684" 
d="M359 -136h102l81 102l48 29h-49l-426 665v-640l78 -7v-13h-167v13l72 7v660l-72 7v13h221l338 -521v501l-77 7v13h166v-13l-72 -7v-685l-133 -230h-110v99z" />
    <glyph glyph-name="eng" unicode="&#x14b;" horiz-adv-x="562" 
d="M269 -132h105l3 18q6 54 6 116v341q0 39 -13 55.5t-41 16.5q-22 0 -40 -8t-50 -28l-33 -19v-340l44 -7v-13h-217v13l58 7v420l-59 -12l-2 14l164 38h12v-106l179 111q48 0 73 -15.5t34.5 -47t9.5 -84.5v-293q0 -57 -14.5 -91.5t-58.5 -82.5l-89 -108h-71v105z" />
    <glyph glyph-name="Omacron" unicode="&#x14c;" horiz-adv-x="765" 
d="M242 839h288v-44h-288v44zM196.5 29.5q-76.5 45.5 -118.5 125.5t-42 181q0 160 88 254.5t269 125.5q99 0 175.5 -45.5t118.5 -125.5t42 -181q0 -160 -88 -254.5t-269 -125.5q-99 0 -175.5 45.5zM500.5 51q40.5 43 61 116t20.5 163q0 104 -28.5 186.5t-78.5 129t-113 46.5
q-56 0 -96.5 -43t-61.5 -116t-21 -163q0 -104 28.5 -186.5t78.5 -129t113 -46.5q57 0 97.5 43z" />
    <glyph glyph-name="omacron" unicode="&#x14d;" horiz-adv-x="532" 
d="M137 15.5q-50 30.5 -78 84.5t-28 123q0 112 66 173t185 89q63 0 113 -30.5t78 -84.5t28 -123q0 -112 -66 -173.5t-186 -88.5q-62 0 -112 30.5zM352 61q26 52 26 149q0 80 -16.5 136t-44.5 85t-63 29q-49 0 -74.5 -51.5t-25.5 -150.5q0 -75 16 -131.5t44 -87t63 -30.5
q49 0 75 52zM123 648h288v-44h-288v44z" />
    <glyph glyph-name="Obreve" unicode="&#x14e;" horiz-adv-x="765" 
d="M305.5 793q-38.5 35 -56.5 85l9 8q19 -27 51 -48.5t77 -21.5q44 0 73.5 20.5t52.5 50.5l9 -8q-15 -36 -42 -65.5t-80 -55.5q-55 0 -93.5 35zM196.5 29.5q-76.5 45.5 -118.5 125.5t-42 181q0 160 88 254.5t269 125.5q99 0 175.5 -45.5t118.5 -125.5t42 -181
q0 -160 -88 -254.5t-269 -125.5q-99 0 -175.5 45.5zM500.5 51q40.5 43 61 116t20.5 163q0 104 -28.5 186.5t-78.5 129t-113 46.5q-56 0 -96.5 -43t-61.5 -116t-21 -163q0 -104 28.5 -186.5t78.5 -129t113 -46.5q57 0 97.5 43z" />
    <glyph glyph-name="obreve" unicode="&#x14f;" horiz-adv-x="532" 
d="M137 15.5q-50 30.5 -78 84.5t-28 123q0 112 66 173t185 89q63 0 113 -30.5t78 -84.5t28 -123q0 -112 -66 -173.5t-186 -88.5q-62 0 -112 30.5zM352 61q26 52 26 149q0 80 -16.5 136t-44.5 85t-63 29q-49 0 -74.5 -51.5t-25.5 -150.5q0 -75 16 -131.5t44 -87t63 -30.5
q49 0 75 52zM175.5 603q-41.5 38 -60.5 92l10 8q20 -28 55 -50.5t84 -22.5q46 0 76.5 21t55.5 52l10 -8q-15 -38 -44.5 -70t-85.5 -60q-59 0 -100.5 38z" />
    <glyph glyph-name="Ohungarumlaut" unicode="&#x150;" horiz-adv-x="765" 
d="M196.5 29.5q-76.5 45.5 -118.5 125.5t-42 181q0 160 88 254.5t269 125.5q99 0 175.5 -45.5t118.5 -125.5t42 -181q0 -160 -88 -254.5t-269 -125.5q-99 0 -175.5 45.5zM500.5 51q40.5 43 61 116t20.5 163q0 104 -28.5 186.5t-78.5 129t-113 46.5q-56 0 -96.5 -43
t-61.5 -116t-21 -163q0 -104 28.5 -186.5t78.5 -129t113 -46.5q57 0 97.5 43zM355 904h119l-160 -135h-17zM520 904h118l-160 -135h-17z" />
    <glyph glyph-name="ohungarumlaut" unicode="&#x151;" horiz-adv-x="532" 
d="M137 15.5q-50 30.5 -78 84.5t-28 123q0 112 66 173t185 89q63 0 113 -30.5t78 -84.5t28 -123q0 -112 -66 -173.5t-186 -88.5q-62 0 -112 30.5zM352 61q26 52 26 149q0 80 -16.5 136t-44.5 85t-63 29q-49 0 -74.5 -51.5t-25.5 -150.5q0 -75 16 -131.5t44 -87t63 -30.5
q49 0 75 52zM233 710h117l-154 -161h-17zM394 710h116l-154 -161h-17z" />
    <glyph glyph-name="OE" unicode="&#x152;" horiz-adv-x="967" 
d="M202 31.5q-79 44.5 -122.5 124t-43.5 180.5q0 160 90 253t276 124l138 -13h396v-185h-12l-72 169h-240v-309h126l46 121h13v-258h-13l-46 121h-126v-343h246l68 175h13v-191h-454l-103 -13q-101 0 -180 44.5zM483 680l-110 12q-60 0 -103 -43t-65 -116.5t-22 -164.5
q0 -104 29 -185.5t80 -127t115 -45.5l76 10v660z" />
    <glyph glyph-name="oe" unicode="&#x153;" horiz-adv-x="836" 
d="M803 106q-47 -44 -85.5 -70t-92.5 -51q-59 0 -110 26t-80 74q-60 -73 -186 -100q-62 0 -112 30.5t-78 84.5t-28 123q0 112 66 173t185 89q57 0 103.5 -27t73.5 -75q28 39 71 64.5t94 37.5q82 0 129 -47.5t47 -133.5v-32h-303q2 -91 50.5 -143.5t127.5 -52.5q32 0 61 10
t60 29zM351 61.5q27 52.5 27 148.5q0 80 -16.5 136t-44.5 85t-63 29q-49 0 -75.5 -52t-26.5 -150q0 -75 16 -131.5t44.5 -87t63.5 -30.5q48 0 75 52.5zM522 411q-24 -47 -25 -126h180q0 89 -17 131t-66 42q-48 0 -72 -47z" />
    <glyph glyph-name="Racute" unicode="&#x154;" horiz-adv-x="658" 
d="M306 769h-16l46 135h107zM653 13v-13h-179l-186 332h-61v-312l66 -7v-13h-267v13l72 7v660l-72 7v13h335q87 0 146.5 -42.5t59.5 -129.5t-73 -134.5t-200 -60.5l148 -31l167 -282zM388 394q40 46 40 126q0 77 -35.5 121.5t-91.5 45.5l-74 -7v-332h46q75 0 115 46z" />
    <glyph glyph-name="racute" unicode="&#x155;" horiz-adv-x="385" 
d="M33 13l58 7v422l-59 -13l-2 13l158 38h13l5 -161l92 161h72v-120h-122l-42 -60v-280l88 -7v-13h-261v13zM236 710h107l-141 -161h-21z" />
    <glyph glyph-name="Rcommaaccent" unicode="&#x156;" horiz-adv-x="658" 
d="M653 13v-13h-179l-186 332h-61v-312l66 -7v-13h-267v13l72 7v660l-72 7v13h335q87 0 146.5 -42.5t59.5 -129.5t-73 -134.5t-200 -60.5l148 -31l167 -282zM388 394q40 46 40 126q0 77 -35.5 121.5t-91.5 45.5l-74 -7v-332h46q75 0 115 46zM298 -235l51 103l-43 35v43h109
v-74l-104 -110z" />
    <glyph glyph-name="rcommaaccent" unicode="&#x157;" horiz-adv-x="385" 
d="M33 13l58 7v422l-59 -13l-2 13l158 38h13l5 -161l92 161h72v-120h-122l-42 -60v-280l88 -7v-13h-261v13zM94 -235l51 103l-43 35v43h109v-74l-104 -110z" />
    <glyph glyph-name="Rcaron" unicode="&#x158;" horiz-adv-x="658" 
d="M286 764l-129 140h17l129 -80l129 80h17l-129 -140h-34zM653 13v-13h-179l-186 332h-61v-312l66 -7v-13h-267v13l72 7v660l-72 7v13h335q87 0 146.5 -42.5t59.5 -129.5t-73 -134.5t-200 -60.5l148 -31l167 -282zM388 394q40 46 40 126q0 77 -35.5 121.5t-91.5 45.5
l-74 -7v-332h46q75 0 115 46z" />
    <glyph glyph-name="rcaron" unicode="&#x159;" horiz-adv-x="385" 
d="M33 13l58 7v422l-59 -13l-2 13l158 38h13l5 -161l92 161h72v-120h-122l-42 -60v-280l88 -7v-13h-261v13zM55 710h25l113 -89l114 89h24l-118 -161h-39z" />
    <glyph glyph-name="Sacute" unicode="&#x15a;" horiz-adv-x="532" 
d="M312 904h107l-137 -135h-16zM136.5 -2q-47.5 14 -96.5 45v175h13l49 -120q35 -39 74 -62t85 -23q59 0 95 33t36 88q0 44 -24.5 77.5t-81.5 67.5l-126 80q-58 35 -86 70t-28 92q0 74 56.5 124.5t174.5 70.5q57 0 100.5 -8.5t92.5 -29.5v-171h-12l-58 135q-55 53 -124 53
q-55 0 -89 -30t-34 -80q0 -41 23.5 -69t73.5 -58l125 -78q63 -39 91.5 -79.5t28.5 -98.5q0 -159 -250 -218q-61 0 -108.5 14z" />
    <glyph glyph-name="sacute" unicode="&#x15b;" horiz-adv-x="393" 
d="M107.5 -4.5q-44.5 11.5 -75.5 28.5v140h12l57 -112q25 -23 46 -34.5t49 -11.5q38 0 58.5 18.5t20.5 45.5q0 32 -16 50.5t-61 46.5l-88 58q-39 25 -59.5 50t-20.5 67q0 101 166 143q49 0 82.5 -8.5t69.5 -25.5v-134h-13l-60 114q-21 19 -40 26.5t-44 7.5
q-31 0 -49.5 -16.5t-18.5 -44.5q0 -27 16.5 -44.5t58.5 -44.5l91 -58q42 -26 59.5 -52.5t17.5 -64.5q0 -54 -42.5 -95t-128.5 -61q-43 0 -87.5 11.5zM240 710h107l-141 -161h-21z" />
    <glyph glyph-name="Scircumflex" unicode="&#x15c;" horiz-adv-x="532" 
d="M262 908h34l129 -139h-17l-129 79l-129 -79h-17zM136.5 -2q-47.5 14 -96.5 45v175h13l49 -120q35 -39 74 -62t85 -23q59 0 95 33t36 88q0 44 -24.5 77.5t-81.5 67.5l-126 80q-58 35 -86 70t-28 92q0 74 56.5 124.5t174.5 70.5q57 0 100.5 -8.5t92.5 -29.5v-171h-12
l-58 135q-55 53 -124 53q-55 0 -89 -30t-34 -80q0 -41 23.5 -69t73.5 -58l125 -78q63 -39 91.5 -79.5t28.5 -98.5q0 -159 -250 -218q-61 0 -108.5 14z" />
    <glyph glyph-name="scircumflex" unicode="&#x15d;" horiz-adv-x="393" 
d="M107.5 -4.5q-44.5 11.5 -75.5 28.5v140h12l57 -112q25 -23 46 -34.5t49 -11.5q38 0 58.5 18.5t20.5 45.5q0 32 -16 50.5t-61 46.5l-88 58q-39 25 -59.5 50t-20.5 67q0 101 166 143q49 0 82.5 -8.5t69.5 -25.5v-134h-13l-60 114q-21 19 -40 26.5t-44 7.5
q-31 0 -49.5 -16.5t-18.5 -44.5q0 -27 16.5 -44.5t58.5 -44.5l91 -58q42 -26 59.5 -52.5t17.5 -64.5q0 -54 -42.5 -95t-128.5 -61q-43 0 -87.5 11.5zM178 710h38l123 -161h-25l-117 91l-117 -91h-25z" />
    <glyph glyph-name="Scedilla" unicode="&#x15e;" horiz-adv-x="532" 
d="M248 -15l-19 -29q38 -4 61 -25t23 -51q-1 -34 -27 -54.5t-70 -38.5l-75 -30h-27l29 44h81q12 10 19 26t7 33q0 28 -16.5 40.5t-44.5 15.5l45 68q-57 1 -102 15.5t-92 43.5v175h13l49 -120q35 -39 74 -62t85 -23q59 0 95 33t36 88q0 44 -24.5 77.5t-81.5 67.5l-126 80
q-58 35 -86 70t-28 92q0 74 56.5 124.5t174.5 70.5q57 0 100.5 -8.5t92.5 -29.5v-171h-12l-58 135q-55 53 -124 53q-55 0 -89 -30t-34 -80q0 -41 23.5 -69t73.5 -58l125 -78q63 -39 91.5 -79.5t28.5 -98.5q0 -158 -247 -217z" />
    <glyph glyph-name="scedilla" unicode="&#x15f;" horiz-adv-x="393" 
d="M348.5 204.5q17.5 -26.5 17.5 -64.5q0 -54 -42.5 -95t-128.5 -61h-2l-19 -28q38 -4 61 -25t23 -51q-1 -34 -27 -54.5t-70 -38.5l-75 -30h-27l29 44h81q12 10 19 26t7 33q0 28 -16.5 40.5t-44.5 15.5l45 68q-39 2 -78.5 13.5t-68.5 26.5v140h12l57 -112q25 -23 46 -34.5
t49 -11.5q38 0 58.5 18.5t20.5 45.5q0 32 -16 50.5t-61 46.5l-88 58q-39 25 -59.5 50t-20.5 67q0 101 166 143q49 0 82.5 -8.5t69.5 -25.5v-134h-13l-60 114q-21 19 -40 26.5t-44 7.5q-31 0 -49.5 -16.5t-18.5 -44.5q0 -27 16.5 -44.5t58.5 -44.5l91 -58q42 -26 59.5 -52.5z
" />
    <glyph glyph-name="Scaron" unicode="&#x160;" horiz-adv-x="532" 
d="M133 904h17l129 -80l129 80h17l-129 -140h-34zM136.5 -2q-47.5 14 -96.5 45v175h13l49 -120q35 -39 74 -62t85 -23q59 0 95 33t36 88q0 44 -24.5 77.5t-81.5 67.5l-126 80q-58 35 -86 70t-28 92q0 74 56.5 124.5t174.5 70.5q57 0 100.5 -8.5t92.5 -29.5v-171h-12l-58 135
q-55 53 -124 53q-55 0 -89 -30t-34 -80q0 -41 23.5 -69t73.5 -58l125 -78q63 -39 91.5 -79.5t28.5 -98.5q0 -159 -250 -218q-61 0 -108.5 14z" />
    <glyph glyph-name="scaron" unicode="&#x161;" horiz-adv-x="393" 
d="M107.5 -4.5q-44.5 11.5 -75.5 28.5v140h12l57 -112q25 -23 46 -34.5t49 -11.5q38 0 58.5 18.5t20.5 45.5q0 32 -16 50.5t-61 46.5l-88 58q-39 25 -59.5 50t-20.5 67q0 101 166 143q49 0 82.5 -8.5t69.5 -25.5v-134h-13l-60 114q-21 19 -40 26.5t-44 7.5
q-31 0 -49.5 -16.5t-18.5 -44.5q0 -27 16.5 -44.5t58.5 -44.5l91 -58q42 -26 59.5 -52.5t17.5 -64.5q0 -54 -42.5 -95t-128.5 -61q-43 0 -87.5 11.5zM59 710h25l113 -89l114 89h24l-118 -161h-39z" />
    <glyph glyph-name="uni0162" unicode="&#x162;" horiz-adv-x="576" 
d="M566 499h-13l-78 185h-122v-664l87 -7v-13h-145l-30 -44q38 -4 61 -25t23 -51q-1 -34 -27 -54.5t-70 -38.5l-75 -30h-27l29 44h81q12 10 19 26t7 33q0 28 -16.5 40.5t-44.5 15.5l56 84h-145v13l88 7v664h-123l-78 -185h-13v201h556v-201z" />
    <glyph glyph-name="uni0163" unicode="&#x163;" horiz-adv-x="344" 
d="M228 -69q23 -21 23 -51q-1 -34 -27 -54.5t-70 -38.5l-75 -30h-27l29 44h81q12 10 19 26t7 33q0 28 -16.5 40.5t-44.5 15.5l46 69q-53 4 -75.5 36.5t-22.5 90.5v337h-70v13h70v72l115 64v-136h135v-13h-135v-332q0 -32 15.5 -48t42.5 -16q22 0 40.5 5.5t43.5 18.5l6 -12
l-151 -79l-20 -30q38 -4 61 -25z" />
    <glyph glyph-name="Tcaron" unicode="&#x164;" horiz-adv-x="576" 
d="M142 904h17l129 -80l129 80h17l-129 -140h-34zM136 13l88 7v664h-123l-78 -185h-13v201h556v-201h-13l-78 185h-122v-664l87 -7v-13h-304v13z" />
    <glyph glyph-name="tcaron" unicode="&#x165;" horiz-adv-x="435" 
d="M333 474l20 44q32 72 40 88l-40 -2l-25 5l-5 53l9 42l67 4l27 -4l4 -50l-8 -45l-81 -139zM100 18q-25 33 -25 94v337h-70v13h70v72l115 64v-136h135v-13h-135v-332q0 -32 15.5 -48t42.5 -16q22 0 40.5 5.5t43.5 18.5l6 -12l-153 -80q-60 0 -85 33z" />
    <glyph glyph-name="Tbar" unicode="&#x166;" horiz-adv-x="576" 
d="M566 499h-13l-78 185h-122v-247h97v-11h-97v-406l87 -7v-13h-304v13l88 7v406h-98v11h98v247h-123l-78 -185h-13v201h556v-201z" />
    <glyph glyph-name="tbar" unicode="&#x167;" horiz-adv-x="344" 
d="M338 65l-153 -80q-60 0 -85 33t-25 94v192h-70v11h70v134h-70v13h70v72l115 64v-136h135v-13h-135v-134h113v-11h-113v-187q0 -32 15.5 -48t42.5 -16q22 0 40.5 5.5t43.5 18.5z" />
    <glyph glyph-name="Utilde" unicode="&#x168;" horiz-adv-x="662" 
d="M232 879l52 17l207 -76l36 78h11l-30 -117l-52 -17l-208 78l-35 -80h-11zM147 53q-66 69 -66 190v437l-71 7v13h271v-13l-71 -7v-447q0 -89 47.5 -147t131.5 -58q49 0 86.5 27t58.5 74t21 104v447l-73 7v13h170v-13l-72 -7v-444q0 -102 -50 -165.5t-181 -86.5
q-136 0 -202 69z" />
    <glyph glyph-name="utilde" unicode="&#x169;" horiz-adv-x="559" 
d="M116 0.5q-26 15.5 -35.5 46.5t-9.5 85v309l-58 -7l-1 13l165 30h13v-349q0 -74 55 -74q19 0 34.5 6.5t42.5 22.5l36 22v336l-58 -7l-1 13l162 30h12v-346q0 -28 3 -49.5t10 -48.5l48 4l2 -13l-158 -30l-18 96l-169 -105q-49 0 -75 15.5zM156 648l-35 -78h-10l33 111
l52 17l207 -75l34 77h11l-33 -111l-52 -17z" />
    <glyph glyph-name="Umacron" unicode="&#x16a;" horiz-adv-x="662" 
d="M226 839h288v-44h-288v44zM147 53q-66 69 -66 190v437l-71 7v13h271v-13l-71 -7v-447q0 -89 47.5 -147t131.5 -58q49 0 86.5 27t58.5 74t21 104v447l-73 7v13h170v-13l-72 -7v-444q0 -102 -50 -165.5t-181 -86.5q-136 0 -202 69z" />
    <glyph glyph-name="umacron" unicode="&#x16b;" horiz-adv-x="559" 
d="M116 0.5q-26 15.5 -35.5 46.5t-9.5 85v309l-58 -7l-1 13l165 30h13v-349q0 -74 55 -74q19 0 34.5 6.5t42.5 22.5l36 22v336l-58 -7l-1 13l162 30h12v-346q0 -28 3 -49.5t10 -48.5l48 4l2 -13l-158 -30l-18 96l-169 -105q-49 0 -75 15.5zM136 648h288v-44h-288v44z" />
    <glyph glyph-name="Ubreve" unicode="&#x16c;" horiz-adv-x="662" 
d="M289.5 793q-38.5 35 -56.5 85l9 8q19 -27 51 -48.5t77 -21.5q44 0 73.5 20.5t52.5 50.5l9 -8q-15 -36 -42 -65.5t-80 -55.5q-55 0 -93.5 35zM147 53q-66 69 -66 190v437l-71 7v13h271v-13l-71 -7v-447q0 -89 47.5 -147t131.5 -58q49 0 86.5 27t58.5 74t21 104v447l-73 7
v13h170v-13l-72 -7v-444q0 -102 -50 -165.5t-181 -86.5q-136 0 -202 69z" />
    <glyph glyph-name="ubreve" unicode="&#x16d;" horiz-adv-x="559" 
d="M116 0.5q-26 15.5 -35.5 46.5t-9.5 85v309l-58 -7l-1 13l165 30h13v-349q0 -74 55 -74q19 0 34.5 6.5t42.5 22.5l36 22v336l-58 -7l-1 13l162 30h12v-346q0 -28 3 -49.5t10 -48.5l48 4l2 -13l-158 -30l-18 96l-169 -105q-49 0 -75 15.5zM188.5 603q-41.5 38 -60.5 92
l10 8q20 -28 55 -50.5t84 -22.5q46 0 76.5 21t55.5 52l10 -8q-15 -38 -44.5 -70t-85.5 -60q-59 0 -100.5 38z" />
    <glyph glyph-name="Uring" unicode="&#x16e;" horiz-adv-x="662" 
d="M294 758.5q-32 24.5 -32 74.5q0 30 14 48.5t35.5 29.5t58.5 24q47 0 77.5 -24t30.5 -76q0 -43 -27 -63.5t-80 -37.5q-45 0 -77 24.5zM424.5 779q21.5 21 21.5 55t-21.5 55.5t-54.5 21.5t-54 -21.5t-21 -55.5t21 -55t54 -21t54.5 21zM147 53q-66 69 -66 190v437l-71 7v13
h271v-13l-71 -7v-447q0 -89 47.5 -147t131.5 -58q49 0 86.5 27t58.5 74t21 104v447l-73 7v13h170v-13l-72 -7v-444q0 -102 -50 -165.5t-181 -86.5q-136 0 -202 69z" />
    <glyph glyph-name="uring" unicode="&#x16f;" horiz-adv-x="559" 
d="M116 0.5q-26 15.5 -35.5 46.5t-9.5 85v309l-58 -7l-1 13l165 30h13v-349q0 -74 55 -74q19 0 34.5 6.5t42.5 22.5l36 22v336l-58 -7l-1 13l162 30h12v-346q0 -28 3 -49.5t10 -48.5l48 4l2 -13l-158 -30l-18 96l-169 -105q-49 0 -75 15.5zM203 567.5q-32 24.5 -32 75.5
q0 42 27 62.5t81 38.5q48 0 78.5 -23.5t30.5 -75.5q0 -43 -26.5 -63.5t-81.5 -38.5q-45 0 -77 24.5zM333.5 588.5q21.5 21.5 21.5 55.5t-21.5 55.5t-54.5 21.5t-54 -21.5t-21 -55.5t21 -55.5t54 -21.5t54.5 21.5z" />
    <glyph glyph-name="Uhungarumlaut" unicode="&#x170;" horiz-adv-x="662" 
d="M147 53q-66 69 -66 190v437l-71 7v13h271v-13l-71 -7v-447q0 -89 47.5 -147t131.5 -58q49 0 86.5 27t58.5 74t21 104v447l-73 7v13h170v-13l-72 -7v-444q0 -102 -50 -165.5t-181 -86.5q-136 0 -202 69zM339 904h119l-160 -135h-17zM504 904h118l-160 -135h-17z" />
    <glyph glyph-name="uhungarumlaut" unicode="&#x171;" horiz-adv-x="559" 
d="M116 0.5q-26 15.5 -35.5 46.5t-9.5 85v309l-58 -7l-1 13l165 30h13v-349q0 -74 55 -74q19 0 34.5 6.5t42.5 22.5l36 22v336l-58 -7l-1 13l162 30h12v-346q0 -28 3 -49.5t10 -48.5l48 4l2 -13l-158 -30l-18 96l-169 -105q-49 0 -75 15.5zM246 710h117l-154 -161h-17z
M407 710h116l-154 -161h-17z" />
    <glyph glyph-name="Uogonek" unicode="&#x172;" horiz-adv-x="662" 
d="M652 687l-72 -7v-444q0 -76 -26.5 -130.5t-93.5 -87.5l-56 -135v-46q0 -71 114 -71v-9q-97 0 -139.5 24.5t-42.5 75.5v50l97 99q-33 -13 -84 -22q-136 0 -202 69t-66 190v437l-71 7v13h271v-13l-71 -7v-447q0 -89 47.5 -147t131.5 -58q49 0 86.5 27t58.5 74t21 104v447
l-73 7v13h170v-13z" />
    <glyph glyph-name="uogonek" unicode="&#x173;" horiz-adv-x="559" 
d="M463 -234v-9q-97 0 -139.5 24.5t-42.5 75.5v50l95 97l-16 86l-169 -105q-49 0 -75 15.5t-35.5 46.5t-9.5 85v309l-58 -7l-1 13l165 30h13v-349q0 -74 55 -74q19 0 34.5 6.5t42.5 22.5l36 22v336l-58 -7l-1 13l162 30h12v-346q0 -28 3 -49.5t10 -48.5l48 4l2 -13l-139 -26
l-48 -115v-46q0 -71 114 -71z" />
    <glyph glyph-name="Wcircumflex" unicode="&#x174;" horiz-adv-x="1019" 
d="M493 908h34l129 -139h-17l-129 79l-129 -79h-17zM67 680l-57 7v13h275v-13l-78 -7l173 -551l114 384l-55 167l-56 7v13h274v-13l-77 -7l172 -551l171 551l-83 7v13h169v-13l-64 -7l-209 -671l-72 -17l-160 488l-140 -471l-72 -17z" />
    <glyph glyph-name="wcircumflex" unicode="&#x175;" horiz-adv-x="833" 
d="M51 450l-46 7v13h226v-13l-53 -7l129 -393l97 306l-29 87l-46 7v13h226v-13l-54 -7l130 -393l124 393l-65 7v13h138v-13l-51 -7l-136 -432l-108 -35l-118 343l-98 -308l-107 -35zM413 710h38l123 -161h-25l-117 91l-117 -91h-25z" />
    <glyph glyph-name="Ycircumflex" unicode="&#x176;" horiz-adv-x="693" 
d="M380 908h34l129 -139h-17l-129 79l-129 -79h-17zM188 13l103 7v253l-218 407l-68 7v13h300v-13l-83 -7l190 -369l190 369l-91 7v13h177v-13l-67 -7l-201 -394v-266l102 -7v-13h-334v13z" />
    <glyph glyph-name="ycircumflex" unicode="&#x177;" horiz-adv-x="537" 
d="M84 -127h125l107 177l-103 -42l-161 442l-47 7v13h232v-13l-54 -7l138 -386l136 386l-64 7v13h139v-13l-53 -7l-144 -409l-128 -276h-123v108zM250 710h38l123 -161h-25l-117 91l-117 -91h-25z" />
    <glyph glyph-name="Ydieresis" unicode="&#x178;" horiz-adv-x="693" 
d="M238 786l-5 52l9 41l63 5l25 -5l6 -49l-10 -44l-62 -5zM461 786l-5 52l9 41l63 5l25 -5l6 -49l-10 -44l-62 -5zM188 13l103 7v253l-218 407l-68 7v13h300v-13l-83 -7l190 -369l190 369l-91 7v13h177v-13l-67 -7l-201 -394v-266l102 -7v-13h-334v13z" />
    <glyph glyph-name="Zacute" unicode="&#x179;" horiz-adv-x="576" 
d="M321 904h107l-137 -135h-16zM16 9l387 675h-260l-86 -183h-13v199h510v-9l-385 -675h262l94 187h11v-203h-520v9z" />
    <glyph glyph-name="zacute" unicode="&#x17a;" horiz-adv-x="473" 
d="M31 10l282 448h-161l-80 -152h-13v164h389v-11l-276 -447h177l77 157h13v-169h-408v10zM288 710h107l-141 -161h-21z" />
    <glyph glyph-name="Zdotaccent" unicode="&#x17b;" horiz-adv-x="576" 
d="M235 792l-6 55l10 45l75 6l27 -6l6 -53l-11 -47l-75 -6zM16 9l387 675h-260l-86 -183h-13v199h510v-9l-385 -675h262l94 187h11v-203h-520v9z" />
    <glyph glyph-name="zdotaccent" unicode="&#x17c;" horiz-adv-x="473" 
d="M31 10l282 448h-161l-80 -152h-13v164h389v-11l-276 -447h177l77 157h13v-169h-408v10zM193 589l-5 53l9 44l73 5l26 -5l6 -52l-10 -45l-73 -6z" />
    <glyph glyph-name="Zcaron" unicode="&#x17d;" horiz-adv-x="576" 
d="M142 904h17l129 -80l129 80h17l-129 -140h-34zM16 9l387 675h-260l-86 -183h-13v199h510v-9l-385 -675h262l94 187h11v-203h-520v9z" />
    <glyph glyph-name="zcaron" unicode="&#x17e;" horiz-adv-x="473" 
d="M31 10l282 448h-161l-80 -152h-13v164h389v-11l-276 -447h177l77 157h13v-169h-408v10zM107 710h25l113 -89l114 89h24l-118 -161h-39z" />
    <glyph glyph-name="longs" unicode="&#x17f;" horiz-adv-x="333" 
d="M25 13l62 7v429h-62v13h62v10q0 46 13 76.5t42 58.5l109 103h107v-85h-144l-4 -13q-5 -18 -6.5 -40.5t-1.5 -73.5v-478l98 -7v-13h-275v13z" />
    <glyph glyph-name="florin" unicode="&#x192;" horiz-adv-x="335" 
d="M-20 -150h112l4 13q5 18 6.5 40.5t1.5 73.5v472h-62v13h62v10q0 45 13 76t41 59l110 103h92v-85h-129l-4 -13q-5 -18 -6.5 -40.5t-1.5 -73.5v-36h108v-13h-108v-446q0 -46 -13 -76.5t-42 -58.5l-109 -103h-75v85z" />
    <glyph glyph-name="AEacute" unicode="&#x1fc;" horiz-adv-x="970" 
d="M696 904h107l-137 -135h-16zM5 13l65 7l423 680h447v-185h-13l-71 169h-236v-339h121l46 122h13v-258h-13l-46 120h-121v-313h241l69 175h13v-191h-524v13l72 7v309h-205l-190 -309l82 -8v-12h-173v13zM491 345v321l-195 -321h195z" />
    <glyph glyph-name="aeacute" unicode="&#x1fd;" horiz-adv-x="737" 
d="M704 104q-46 -42 -86 -68t-96 -51q-66 0 -119 28.5t-81 83.5l-156 -112q-61 0 -99.5 31.5t-38.5 89.5q0 66 54 106l214 68v78q0 32 -4 51t-18.5 30.5t-44.5 11.5q-17 0 -28 -2t-26 -7l-22 -123h-106v83l194 83q75 0 107.5 -13.5t46.5 -54.5q48 45 139 68q77 0 122 -48
t45 -133v-35h-294q1 -92 46 -142.5t119 -50.5q32 0 62 10t62 29zM430.5 410.5q-22.5 -47.5 -23.5 -129.5h171q0 90 -16 133.5t-61 43.5q-48 0 -70.5 -47.5zM305 103q-9 41 -9 90v75l-102 -41q-43 -36 -43 -92q0 -39 17.5 -62t44.5 -23q17 0 30 7t32 22zM412 710h107
l-141 -161h-21z" />
    <glyph glyph-name="Oslashacute" unicode="&#x1fe;" horiz-adv-x="765" 
d="M386 769h-16l46 135h107zM702.5 511q26.5 -67 26.5 -147q0 -160 -88 -254.5t-269 -125.5q-121 0 -208 68l-54 -67h-25l64 79q-54 48 -83.5 118t-29.5 154q0 160 88 254.5t269 125.5q65 0 120.5 -20t99.5 -58l62 77h24l-72 -89q49 -48 75.5 -115zM222 155l319 394
q-30 68 -76 105.5t-103 37.5q-56 0 -96.5 -43t-61.5 -116t-21 -163q0 -123 39 -215zM500.5 51q40.5 43 61 116t20.5 163q0 111 -33 199l-318 -394q30 -60 74.5 -93.5t97.5 -33.5q57 0 97.5 43z" />
    <glyph glyph-name="oslashacute" unicode="&#x1ff;" horiz-adv-x="532" 
d="M484 345q17 -45 17 -98q0 -112 -66 -173.5t-186 -88.5q-42 0 -79 14t-65 40l-43 -49h-19l52 59q-31 33 -47.5 77.5t-16.5 96.5q0 112 66 173t185 89q85 0 145 -54l46 53h17l-54 -62q31 -32 48 -77zM168 134l191 220q-15 52 -43 79t-62 27q-49 0 -74.5 -51.5t-25.5 -150.5
q0 -70 14 -124zM352 61q26 52 26 149q0 74 -14 128l-191 -220q16 -52 43 -80.5t61 -28.5q49 0 75 52zM290 710h107l-141 -161h-21z" />
    <glyph glyph-name="Scommaaccent" unicode="&#x218;" horiz-adv-x="532" 
d="M136.5 -2q-47.5 14 -96.5 45v175h13l49 -120q35 -39 74 -62t85 -23q59 0 95 33t36 88q0 44 -24.5 77.5t-81.5 67.5l-126 80q-58 35 -86 70t-28 92q0 74 56.5 124.5t174.5 70.5q57 0 100.5 -8.5t92.5 -29.5v-171h-12l-58 135q-55 53 -124 53q-55 0 -89 -30t-34 -80
q0 -41 23.5 -69t73.5 -58l125 -78q63 -39 91.5 -79.5t28.5 -98.5q0 -159 -250 -218q-61 0 -108.5 14zM193 -235l51 103l-43 35v43h109v-74l-104 -110z" />
    <glyph glyph-name="scommaaccent" unicode="&#x219;" horiz-adv-x="393" 
d="M107.5 -4.5q-44.5 11.5 -75.5 28.5v140h12l57 -112q25 -23 46 -34.5t49 -11.5q38 0 58.5 18.5t20.5 45.5q0 32 -16 50.5t-61 46.5l-88 58q-39 25 -59.5 50t-20.5 67q0 101 166 143q49 0 82.5 -8.5t69.5 -25.5v-134h-13l-60 114q-21 19 -40 26.5t-44 7.5
q-31 0 -49.5 -16.5t-18.5 -44.5q0 -27 16.5 -44.5t58.5 -44.5l91 -58q42 -26 59.5 -52.5t17.5 -64.5q0 -54 -42.5 -95t-128.5 -61q-43 0 -87.5 11.5zM138 -235l51 103l-43 35v43h109v-74l-104 -110z" />
    <glyph glyph-name="uni021A" unicode="&#x21a;" horiz-adv-x="576" 
d="M136 13l88 7v664h-123l-78 -185h-13v201h556v-201h-13l-78 185h-122v-664l87 -7v-13h-304v13zM229 -235l51 103l-43 35v43h109v-74l-104 -110z" />
    <glyph glyph-name="uni021B" unicode="&#x21b;" horiz-adv-x="344" 
d="M100 18q-25 33 -25 94v337h-70v13h70v72l115 64v-136h135v-13h-135v-332q0 -32 15.5 -48t42.5 -16q22 0 40.5 5.5t43.5 18.5l6 -12l-153 -80q-60 0 -85 33zM131 -235l51 103l-43 35v43h109v-74l-104 -110z" />
    <glyph glyph-name="uni0237" unicode="&#x237;" horiz-adv-x="271" 
d="M-20 -134h104l2 18q7 59 7 110v446l-59 -12l-2 14l163 38h13v-456q0 -53 -12.5 -82.5t-49.5 -66.5l-101 -113h-65v104z" />
    <glyph glyph-name="uni02BC" unicode="&#x2bc;" horiz-adv-x="235" 
d="M62 440l40 89l28 63l-46 -3l-28 5l-6 62l10 49l78 5l31 -5l6 -58l-10 -53l-94 -158z" />
    <glyph glyph-name="circumflex" unicode="&#x2c6;" horiz-adv-x="600" 
d="M228 710h38l123 -161h-25l-117 91l-117 -91h-25z" />
    <glyph glyph-name="caron" unicode="&#x2c7;" horiz-adv-x="600" 
d="M108 710h25l113 -89l114 89h24l-118 -161h-39z" />
    <glyph glyph-name="breve" unicode="&#x2d8;" horiz-adv-x="600" 
d="M153.5 603q-41.5 38 -60.5 92l10 8q20 -28 55 -50.5t84 -22.5q46 0 76.5 21t55.5 52l10 -8q-15 -38 -44.5 -70t-85.5 -60q-59 0 -100.5 38z" />
    <glyph glyph-name="dotaccent" unicode="&#x2d9;" horiz-adv-x="600" 
d="M202 589l-5 53l9 44l73 5l26 -5l6 -52l-10 -45l-73 -6z" />
    <glyph glyph-name="ring" unicode="&#x2da;" horiz-adv-x="600" 
d="M166 567.5q-32 24.5 -32 75.5q0 42 27 62.5t81 38.5q48 0 78.5 -23.5t30.5 -75.5q0 -43 -26.5 -63.5t-81.5 -38.5q-45 0 -77 24.5zM296.5 588.5q21.5 21.5 21.5 55.5t-21.5 55.5t-54.5 21.5t-54 -21.5t-21 -55.5t21 -55.5t54 -21.5t54.5 21.5z" />
    <glyph glyph-name="ogonek" unicode="&#x2db;" horiz-adv-x="600" 
d="M213.5 -218.5q-42.5 24.5 -42.5 75.5v50l124 127h7l-63 -151v-46q0 -71 114 -71v-9q-97 0 -139.5 24.5z" />
    <glyph glyph-name="tilde" unicode="&#x2dc;" horiz-adv-x="600" 
d="M125 647l-35 -78h-10l33 111l52 17l207 -75l34 77h11l-33 -111l-52 -17z" />
    <glyph glyph-name="hungarumlaut" unicode="&#x2dd;" horiz-adv-x="600" 
d="M114 710h117l-154 -161h-17zM275 710h116l-154 -161h-17z" />
    <glyph glyph-name="gravecomb" unicode="&#x300;" horiz-adv-x="0" 
d="M-354 710h107l55 -161h-21z" />
    <glyph glyph-name="acutecomb" unicode="&#x301;" horiz-adv-x="0" 
d="M-295 710h107l-141 -161h-21z" />
    <glyph glyph-name="uni0302" unicode="&#x302;" horiz-adv-x="0" 
d="M-272 710h38l123 -161h-25l-117 91l-117 -91h-25z" />
    <glyph glyph-name="tildecomb" unicode="&#x303;" horiz-adv-x="0" 
d="M-375 647l-35 -78h-10l33 111l52 17l207 -75l34 77h11l-33 -111l-52 -17z" />
    <glyph glyph-name="uni0304" unicode="&#x304;" horiz-adv-x="0" 
d="M-394 648h288v-44h-288v44z" />
    <glyph glyph-name="uni0306" unicode="&#x306;" horiz-adv-x="0" 
d="M-346.5 603q-41.5 38 -60.5 92l10 8q20 -28 55 -50.5t84 -22.5q46 0 76.5 21t55.5 52l10 -8q-15 -38 -44.5 -70t-85.5 -60q-59 0 -100.5 38z" />
    <glyph glyph-name="uni0307" unicode="&#x307;" horiz-adv-x="0" 
d="M-298 589l-5 53l9 44l73 5l26 -5l6 -52l-10 -45l-73 -6z" />
    <glyph glyph-name="uni0308" unicode="&#x308;" horiz-adv-x="0" 
d="M-386 586l-5 52l9 41l62 5l26 -5l6 -49l-10 -44l-63 -5zM-210 586l-6 52l10 41l62 5l25 -5l6 -49l-10 -44l-62 -5z" />
    <glyph glyph-name="uni030A" unicode="&#x30a;" horiz-adv-x="0" 
d="M-334 567.5q-32 24.5 -32 75.5q0 42 27 62.5t81 38.5q48 0 78.5 -23.5t30.5 -75.5q0 -43 -26.5 -63.5t-81.5 -38.5q-45 0 -77 24.5zM-203.5 588.5q21.5 21.5 21.5 55.5t-21.5 55.5t-54.5 21.5t-54 -21.5t-21 -55.5t21 -55.5t54 -21.5t54.5 21.5z" />
    <glyph glyph-name="uni030B" unicode="&#x30b;" horiz-adv-x="0" 
d="M-386 710h117l-154 -161h-17zM-225 710h116l-154 -161h-17z" />
    <glyph glyph-name="uni030C" unicode="&#x30c;" horiz-adv-x="0" 
d="M-392 710h25l113 -89l114 89h24l-118 -161h-39z" />
    <glyph glyph-name="uni0312" unicode="&#x312;" horiz-adv-x="0" 
d="M-312 622l105 93l12 -3l-54 -85l46 -34v-44h-109v73z" />
    <glyph glyph-name="uni0326" unicode="&#x326;" horiz-adv-x="0" 
d="M-311 -235l51 103l-43 35v43h109v-74l-104 -110z" />
    <glyph glyph-name="uni0327" unicode="&#x327;" horiz-adv-x="0" 
d="M-316 -199h81q12 10 19 26t7 33q0 28 -16.5 40.5t-44.5 15.5l57 86h14l-31 -46q38 -4 61 -25t23 -51q-1 -34 -27 -54.5t-70 -38.5l-75 -30h-27z" />
    <glyph glyph-name="uni0328" unicode="&#x328;" horiz-adv-x="0" 
d="M-286.5 -218.5q-42.5 24.5 -42.5 75.5v50l124 127h7l-63 -151v-46q0 -71 114 -71v-9q-97 0 -139.5 24.5z" />
    <glyph glyph-name="uni0394" unicode="&#x394;" horiz-adv-x="700" 
d="M20 13l310 686l45 12l305 -698v-13h-660v13zM533 19l-239 570l-251 -570h490z" />
    <glyph glyph-name="uni03A9" unicode="&#x3a9;" horiz-adv-x="705" 
d="M40 174h13l30 -98h205v72q-68 8 -127 40.5t-95 88.5t-36 133q0 117 79.5 193t253.5 112q90 0 161.5 -37.5t111 -101.5t39.5 -142q0 -122 -68 -189t-190 -95v-74h201l34 98h13v-174h-270v165q52 11 91.5 68t39.5 179q0 81 -23.5 143.5t-65 96.5t-95.5 34q-49 0 -86 -32.5
t-57 -89t-20 -126.5q0 -77 18.5 -137t48.5 -94.5t64 -40.5v-166h-270v174z" />
    <glyph glyph-name="uni03BC" unicode="&#x3bc;" 
d="M540 13v-13h-130l-46 83v8l-170 -106q-75 0 -99 46v-61l95 -200h-111v700h119v-342q0 -72 54 -72q19 0 33.5 6t40.5 21l38 22v365h115v-450q18 -3 61 -7z" />
    <glyph glyph-name="pi" unicode="&#x3c0;" 
d="M139 454h-41l-57 -134h-12v150h562v-16h-89v-434q18 -3 61 -7v-13h-130l-46 83v371h-133v-454h-115v454z" />
    <glyph glyph-name="uni0E3F" unicode="&#xe3f;" horiz-adv-x="625" 
d="M527 321.5q62 -47.5 62 -121.5q0 -93 -69 -144t-189 -56h-1v-80h-16v80h-288v13l72 7v660l-72 7v13h288v81h16v-81h33q61 0 105 -21.5t66.5 -56.5t22.5 -76q0 -49 -28 -87.5t-77.5 -61t-113.5 -25.5q127 -3 189 -50.5zM227 378h81h6v309h-2l-85 -7v-302zM400.5 641.5
q-24.5 37.5 -70.5 44.5v-306q45 10 70 54.5t25 110.5q0 59 -24.5 96.5zM314 13v349h-2h-85v-342l76 -7h11zM426 72.5q31 48.5 31 122.5q0 75 -35 117.5t-92 48.5v-346q65 9 96 57.5z" />
    <glyph glyph-name="Wgrave" unicode="&#x1e80;" horiz-adv-x="1019" 
d="M389 904h108l46 -135h-17zM67 680l-57 7v13h275v-13l-78 -7l173 -551l114 384l-55 167l-56 7v13h274v-13l-77 -7l172 -551l171 551l-83 7v13h169v-13l-64 -7l-209 -671l-72 -17l-160 488l-140 -471l-72 -17z" />
    <glyph glyph-name="wgrave" unicode="&#x1e81;" horiz-adv-x="833" 
d="M51 450l-46 7v13h226v-13l-53 -7l129 -393l97 306l-29 87l-46 7v13h226v-13l-54 -7l130 -393l124 393l-65 7v13h138v-13l-51 -7l-136 -432l-108 -35l-118 343l-98 -308l-107 -35zM279 710h107l55 -161h-21z" />
    <glyph glyph-name="Wacute" unicode="&#x1e82;" horiz-adv-x="1019" 
d="M543 904h107l-137 -135h-16zM67 680l-57 7v13h275v-13l-78 -7l173 -551l114 384l-55 167l-56 7v13h274v-13l-77 -7l172 -551l171 551l-83 7v13h169v-13l-64 -7l-209 -671l-72 -17l-160 488l-140 -471l-72 -17z" />
    <glyph glyph-name="wacute" unicode="&#x1e83;" horiz-adv-x="833" 
d="M51 450l-46 7v13h226v-13l-53 -7l129 -393l97 306l-29 87l-46 7v13h226v-13l-54 -7l130 -393l124 393l-65 7v13h138v-13l-51 -7l-136 -432l-108 -35l-118 343l-98 -308l-107 -35zM475 710h107l-141 -161h-21z" />
    <glyph glyph-name="Wdieresis" unicode="&#x1e84;" horiz-adv-x="1019" 
d="M351 786l-5 52l9 41l63 5l25 -5l6 -49l-10 -44l-62 -5zM574 786l-5 52l9 41l63 5l25 -5l6 -49l-10 -44l-62 -5zM67 680l-57 7v13h275v-13l-78 -7l173 -551l114 384l-55 167l-56 7v13h274v-13l-77 -7l172 -551l171 551l-83 7v13h169v-13l-64 -7l-209 -671l-72 -17
l-160 488l-140 -471l-72 -17z" />
    <glyph glyph-name="wdieresis" unicode="&#x1e85;" horiz-adv-x="833" 
d="M51 450l-46 7v13h226v-13l-53 -7l129 -393l97 306l-29 87l-46 7v13h226v-13l-54 -7l130 -393l124 393l-65 7v13h138v-13l-51 -7l-136 -432l-108 -35l-118 343l-98 -308l-107 -35zM297 586l-5 52l9 41l62 5l26 -5l6 -49l-10 -44l-63 -5zM473 586l-6 52l10 41l62 5l25 -5
l6 -49l-10 -44l-62 -5z" />
    <glyph glyph-name="Ygrave" unicode="&#x1ef2;" horiz-adv-x="693" 
d="M276 904h108l46 -135h-17zM188 13l103 7v253l-218 407l-68 7v13h300v-13l-83 -7l190 -369l190 369l-91 7v13h177v-13l-67 -7l-201 -394v-266l102 -7v-13h-334v13z" />
    <glyph glyph-name="ygrave" unicode="&#x1ef3;" horiz-adv-x="537" 
d="M84 -127h125l107 177l-103 -42l-161 442l-47 7v13h232v-13l-54 -7l138 -386l136 386l-64 7v13h139v-13l-53 -7l-144 -409l-128 -276h-123v108zM116 710h107l55 -161h-21z" />
    <glyph glyph-name="uni2002" unicode="&#x2002;" horiz-adv-x="500" 
 />
    <glyph glyph-name="uni2003" unicode="&#x2003;" horiz-adv-x="1000" 
 />
    <glyph glyph-name="uni2004" unicode="&#x2004;" horiz-adv-x="0" 
 />
    <glyph glyph-name="uni2005" unicode="&#x2005;" horiz-adv-x="250" 
 />
    <glyph glyph-name="uni2009" unicode="&#x2009;" horiz-adv-x="135" 
 />
    <glyph glyph-name="uni200A" unicode="&#x200a;" horiz-adv-x="75" 
 />
    <glyph glyph-name="endash" unicode="&#x2013;" horiz-adv-x="470" 
d="M35 291h400v-26h-400v26z" />
    <glyph glyph-name="emdash" unicode="&#x2014;" horiz-adv-x="870" 
d="M35 291h800v-26h-800v26z" />
    <glyph glyph-name="quoteleft" unicode="&#x2018;" horiz-adv-x="240" 
d="M178 706l-40 -89l-28 -63l46 3l28 -5l6 -62l-10 -49l-78 -5l-31 5l-6 58l10 53l94 158z" />
    <glyph glyph-name="quoteright" unicode="&#x2019;" horiz-adv-x="235" 
d="M62 440l40 89l28 63l-46 -3l-28 5l-6 62l10 49l78 5l31 -5l6 -58l-10 -53l-94 -158z" />
    <glyph glyph-name="quotesinglbase" unicode="&#x201a;" horiz-adv-x="195" 
d="M52 -141l40 89l28 63l-46 -3l-28 5l-6 62l10 49l78 5l31 -5l6 -58l-10 -53l-94 -158z" />
    <glyph glyph-name="quotedblleft" unicode="&#x201c;" horiz-adv-x="371" 
d="M158 705l-40 -89l-28 -63l46 3l28 -5l6 -62l-10 -49l-78 -5l-31 5l-6 58l10 53l94 158zM329 705l-40 -89l-28 -63l46 3l28 -5l6 -62l-10 -49l-78 -5l-31 5l-6 58l10 53l94 158z" />
    <glyph glyph-name="quotedblright" unicode="&#x201d;" horiz-adv-x="371" 
d="M229 442l40 89l28 63l-46 -3l-28 5l-6 62l10 49l78 5l31 -5l6 -58l-10 -53l-94 -158zM57 442l40 89l28 63l-46 -3l-28 5l-6 62l10 49l78 5l31 -5l6 -58l-10 -53l-94 -158z" />
    <glyph glyph-name="quotedblbase" unicode="&#x201e;" horiz-adv-x="371" 
d="M229 -141l40 89l28 63l-46 -3l-28 5l-6 62l10 49l78 5l31 -5l6 -58l-10 -53l-94 -158zM57 -141l40 89l28 63l-46 -3l-28 5l-6 62l10 49l78 5l31 -5l6 -58l-10 -53l-94 -158z" />
    <glyph glyph-name="dagger" unicode="&#x2020;" horiz-adv-x="438" 
d="M191 222l-53 103l48 45l28 126l-189 -57v123l190 -58l-59 206h123l-59 -206l193 58v-123l-193 57l31 -126l47 -45l-52 -103l-25 -282h-5z" />
    <glyph glyph-name="daggerdbl" unicode="&#x2021;" horiz-adv-x="448" 
d="M220 151l-190 -58v123l189 -57l-28 126l-48 42l48 43l28 126l-189 -57v123l190 -58l-59 206h123l-59 -206l193 58v-123l-193 57l31 -126l47 -43l-47 -42l-31 -126l193 57v-123l-193 58l59 -206h-123z" />
    <glyph glyph-name="bullet" unicode="&#x2022;" horiz-adv-x="226" 
d="M55 246l-5 63l8 52l79 6l34 -6l5 -60l-8 -55l-78 -6z" />
    <glyph glyph-name="ellipsis" unicode="&#x2026;" horiz-adv-x="794" 
d="M81 0l-6 64l11 52l81 6l30 -6l6 -61l-11 -55l-82 -6zM339 0l-6 64l11 52l81 6l30 -6l6 -61l-11 -55l-81 -6zM597 0l-6 64l11 52l81 6l30 -6l6 -61l-11 -55l-81 -6z" />
    <glyph glyph-name="perthousand" unicode="&#x2030;" horiz-adv-x="1199" 
d="M649 705h30l-492 -710h-32zM92.5 401q-42.5 46 -42.5 121q0 79 46 121.5t137 60.5q70 0 112.5 -46.5t42.5 -121.5q0 -78 -47 -121.5t-138 -59.5q-68 0 -110.5 46zM279 408q18 36 18 103q0 85 -21.5 130.5t-64.5 45.5q-35 0 -53 -36.5t-18 -103.5q0 -84 21.5 -129.5
t63.5 -45.5q36 0 54 36zM477 42.5q-42 46.5 -42 121.5q0 78 46 120.5t137 61.5q69 0 111.5 -46.5t42.5 -121.5q0 -79 -46.5 -122.5t-137.5 -59.5q-69 0 -111 46.5zM854 42.5q-42 46.5 -42 121.5q0 78 46 120.5t137 61.5q69 0 111.5 -46.5t42.5 -121.5q0 -79 -46.5 -122.5
t-137.5 -59.5q-69 0 -111 46.5zM664 49q18 36 18 103q0 84 -22 130t-64 46q-36 0 -54 -36.5t-18 -103.5q0 -84 22 -129.5t64 -45.5q36 0 54 36zM1041 49q18 36 18 103q0 84 -22 130t-64 46q-36 0 -54 -36.5t-18 -103.5q0 -84 22 -129.5t64 -45.5q36 0 54 36z" />
    <glyph glyph-name="guilsinglleft" unicode="&#x2039;" horiz-adv-x="289" 
d="M50 235l182 220h17l-130 -220l130 -220h-18z" />
    <glyph glyph-name="guilsinglright" unicode="&#x203a;" horiz-adv-x="289" 
d="M180 235l-130 220h17l182 -220l-181 -220h-18z" />
    <glyph glyph-name="fraction" unicode="&#x2044;" horiz-adv-x="97" 
d="M227 710h30l-385 -760h-32z" />
    <glyph glyph-name="uni2070" unicode="&#x2070;" horiz-adv-x="419" 
d="M84.5 444q-40.5 53 -40.5 139q0 88 42.5 139t135.5 72q71 0 112 -53t41 -139q0 -88 -42.5 -139t-134.5 -72q-73 0 -113.5 53zM259 452q14 46 14 130q0 95 -15.5 146t-51.5 51q-33 0 -47 -45.5t-14 -129.5q0 -95 16 -146.5t52 -51.5q32 0 46 46z" />
    <glyph glyph-name="uni2074" unicode="&#x2074;" horiz-adv-x="384" 
d="M196 520h-162l-7 9l180 256h107v-10l-273 -244h155v74l83 49v-124h79v-10h-79v-120h-83v120z" />
    <glyph glyph-name="uni2075" unicode="&#x2075;" horiz-adv-x="347" 
d="M44 469h123q23 18 33.5 36.5t10.5 40.5q0 24 -16.5 42.5t-48.5 18.5q-17 0 -30 -3.5t-34 -12.5l-23 -11l-5 4l25 201h219l-15 -69h-201l-16 -125l134 68q50 0 75.5 -24.5t25.5 -57.5q0 -40 -28.5 -67t-82.5 -54l-113 -58h-33v71z" />
    <glyph glyph-name="uni2076" unicode="&#x2076;" horiz-adv-x="391" 
d="M322.5 618q24.5 -30 24.5 -71q0 -119 -154 -155q-68 0 -106 43t-38 111q0 85 58.5 151t182.5 99l3 -7q-60 -27 -92 -56.5t-44.5 -64.5t-13.5 -87l106 67q49 0 73.5 -30zM242 432.5q13 28.5 13 88.5q0 40 -11.5 60t-32.5 20q-11 0 -22 -5t-31 -17l-15 -8v-2
q1 -165 59 -165q27 0 40 28.5z" />
    <glyph glyph-name="uni2077" unicode="&#x2077;" horiz-adv-x="336" 
d="M66 408l200 307h-237v70h269l6 -8l-177 -377h-61v8z" />
    <glyph glyph-name="uni2078" unicode="&#x2078;" horiz-adv-x="389" 
d="M326.5 550q15.5 -21 15.5 -51q0 -43 -36.5 -67.5t-115.5 -39.5q-62 3 -102.5 26.5t-40.5 70.5q0 33 25 53.5t70 36.5l-25 18q-32 24 -48.5 44.5t-16.5 48.5q0 82 147 104q64 -3 100 -24t36 -60q0 -28 -23.5 -48.5t-73.5 -36.5l44 -32q29 -22 44.5 -43zM151 769.5
q-15 -10.5 -15 -31.5q0 -23 17 -43t51 -45l21 -15q27 26 27 73q0 36 -17.5 54t-46.5 18q-22 0 -37 -10.5zM239 417.5q16 12.5 16 39.5q0 23 -13 40.5t-43 39.5l-44 32q-13 -16 -20 -34.5t-7 -35.5q0 -50 21.5 -72t50.5 -22q23 0 39 12.5z" />
    <glyph glyph-name="uni2079" unicode="&#x2079;" horiz-adv-x="382" 
d="M294 753q38 -42 38 -110q0 -84 -60 -151t-181 -101l-3 7q83 39 115 87t32 119v1l-100 -66q-50 0 -75.5 31t-25.5 72q0 60 38.5 97t115.5 56q68 0 106 -42zM189.5 588q6.5 3 16.5 8.5t14 8.5l15 9q0 168 -57 168q-53 0 -53 -106q0 -46 12.5 -68.5t35.5 -22.5q10 0 16.5 3z
" />
    <glyph glyph-name="uni207A" unicode="&#x207a;" horiz-adv-x="410" 
d="M196 582h-146v16h146v135h17v-135h147v-16h-147v-132h-17v132z" />
    <glyph glyph-name="uni207B" unicode="&#x207b;" horiz-adv-x="416" 
d="M50 611h316v-15h-316v15z" />
    <glyph glyph-name="uni207C" unicode="&#x207c;" horiz-adv-x="413" 
d="M50 603h313v-15h-313v15zM50 582h313v-15h-313v15z" />
    <glyph glyph-name="uni207D" unicode="&#x207d;" horiz-adv-x="220" 
d="M83 444q-33 59 -33 140q0 80 33 140t113 123l4 -4q-95 -92 -95 -259t95 -259l-4 -5q-80 65 -113 124z" />
    <glyph glyph-name="uni207E" unicode="&#x207e;" horiz-adv-x="220" 
d="M20 325q95 92 95 259t-95 259l4 4q80 -63 113 -123t33 -140q0 -81 -33 -140t-113 -124z" />
    <glyph glyph-name="uni2080" unicode="&#x2080;" horiz-adv-x="419" 
d="M84.5 -106q-40.5 53 -40.5 139q0 88 42.5 139t135.5 72q71 0 112 -53t41 -139q0 -88 -42.5 -139t-134.5 -72q-73 0 -113.5 53zM259 -98q14 46 14 130q0 95 -15.5 146t-51.5 51q-33 0 -47 -45.5t-14 -129.5q0 -95 16 -146.5t52 -51.5q32 0 46 46z" />
    <glyph glyph-name="uni2081" unicode="&#x2081;" horiz-adv-x="301" 
d="M44 -140l75 5v332l-78 -22l-3 9l155 58h10v-377l75 -5v-10h-234v10z" />
    <glyph glyph-name="uni2082" unicode="&#x2082;" horiz-adv-x="384" 
d="M29 -141l79 83q64 66 94.5 115.5t30.5 91.5q0 31 -16.5 52.5t-40.5 21.5q-15 0 -35 -5l-23 -98h-78v69l154 55q68 0 101 -26.5t33 -68.5q0 -52 -40.5 -97t-126.5 -95l-65 -37h244v-10l-22 -60h-282z" />
    <glyph glyph-name="uni2083" unicode="&#x2083;" horiz-adv-x="365" 
d="M43 -84h151q15 15 21.5 28t6.5 32q0 32 -28 52.5t-77 19.5l-3 10l38 24q36 19 47.5 36.5t11.5 46.5q0 25 -13.5 39.5t-35.5 14.5q-12 0 -26 -4l-24 -80h-71v59l159 50q52 0 76.5 -19.5t24.5 -45.5t-26.5 -48.5t-92.5 -36.5q43 0 72.5 -13.5t43.5 -33t14 -39.5
q0 -37 -25 -60t-85 -50l-114 -52h-45v70z" />
    <glyph glyph-name="uni2084" unicode="&#x2084;" horiz-adv-x="384" 
d="M196 -30h-162l-7 9l180 256h107v-10l-273 -244h155v74l83 49v-124h79v-10h-79v-120h-83v120z" />
    <glyph glyph-name="uni2085" unicode="&#x2085;" horiz-adv-x="347" 
d="M44 -81h123q23 18 33.5 36.5t10.5 40.5q0 24 -16.5 42.5t-48.5 18.5q-17 0 -30 -3.5t-34 -12.5l-23 -11l-5 4l25 201h219l-15 -69h-201l-16 -125l134 68q50 0 75.5 -24.5t25.5 -57.5q0 -40 -28.5 -67t-82.5 -54l-113 -58h-33v71z" />
    <glyph glyph-name="uni2086" unicode="&#x2086;" horiz-adv-x="391" 
d="M322.5 68q24.5 -30 24.5 -71q0 -119 -154 -155q-68 0 -106 43t-38 111q0 85 58.5 151t182.5 99l3 -7q-60 -27 -92 -56.5t-44.5 -64.5t-13.5 -87l106 67q49 0 73.5 -30zM242 -117.5q13 28.5 13 88.5q0 40 -11.5 60t-32.5 20q-11 0 -22 -5t-31 -17l-15 -8v-2
q1 -165 59 -165q27 0 40 28.5z" />
    <glyph glyph-name="uni2087" unicode="&#x2087;" horiz-adv-x="336" 
d="M66 -142l200 307h-237v70h269l6 -8l-177 -377h-61v8z" />
    <glyph glyph-name="uni2088" unicode="&#x2088;" horiz-adv-x="389" 
d="M326.5 0q15.5 -21 15.5 -51q0 -43 -36.5 -67.5t-115.5 -39.5q-62 3 -102.5 26.5t-40.5 70.5q0 33 25 53.5t70 36.5l-25 18q-32 24 -48.5 44.5t-16.5 48.5q0 82 147 104q64 -3 100 -24t36 -60q0 -28 -23.5 -48.5t-73.5 -36.5l44 -32q29 -22 44.5 -43zM151 219.5
q-15 -10.5 -15 -31.5q0 -23 17 -43t51 -45l21 -15q27 26 27 73q0 36 -17.5 54t-46.5 18q-22 0 -37 -10.5zM239 -132.5q16 12.5 16 39.5q0 23 -13 40.5t-43 39.5l-44 32q-13 -16 -20 -34.5t-7 -35.5q0 -50 21.5 -72t50.5 -22q23 0 39 12.5z" />
    <glyph glyph-name="uni2089" unicode="&#x2089;" horiz-adv-x="382" 
d="M294 203q38 -42 38 -110q0 -84 -60 -151t-181 -101l-3 7q83 39 115 87t32 119v1l-100 -66q-50 0 -75.5 31t-25.5 72q0 60 38.5 97t115.5 56q68 0 106 -42zM189.5 38q6.5 3 16.5 8.5t14 8.5l15 9q0 168 -57 168q-53 0 -53 -106q0 -46 12.5 -68.5t35.5 -22.5q10 0 16.5 3z
" />
    <glyph glyph-name="uni208A" unicode="&#x208a;" horiz-adv-x="410" 
d="M196 32h-146v16h146v135h17v-135h147v-16h-147v-132h-17v132z" />
    <glyph glyph-name="uni208B" unicode="&#x208b;" horiz-adv-x="416" 
d="M50 61h316v-15h-316v15z" />
    <glyph glyph-name="uni208C" unicode="&#x208c;" horiz-adv-x="413" 
d="M50 53h313v-15h-313v15zM50 32h313v-15h-313v15z" />
    <glyph glyph-name="uni208D" unicode="&#x208d;" horiz-adv-x="220" 
d="M83 -106q-33 59 -33 140q0 80 33 140t113 123l4 -4q-95 -92 -95 -259t95 -259l-4 -5q-80 65 -113 124z" />
    <glyph glyph-name="uni208E" unicode="&#x208e;" horiz-adv-x="220" 
d="M20 -225q95 92 95 259t-95 259l4 4q80 -63 113 -123t33 -140q0 -81 -33 -140t-113 -124z" />
    <glyph glyph-name="uni20A9" unicode="&#x20a9;" horiz-adv-x="1019" 
d="M945 680l-88 -284h117v-12h-121l-16 -52h137v-13h-141l-97 -310l-72 -17l-107 327h-101l-92 -310l-72 -17l-107 327h-140v13h136l-17 52h-119v12h115l-93 284l-57 7v13h275v-13l-78 -7l89 -284h163l35 117l-55 167l-56 7v13h274v-13l-77 -7l89 -284h166l88 284l-83 7v13
h169v-13zM479 396h53l-28 84zM316 332h124l16 52h-156zM553 332l-18 52h-60l-15 -52h93zM831 384h-159l17 -52h126zM436 319h-116l60 -190zM811 319h-118l59 -190z" />
    <glyph glyph-name="Euro" unicode="&#x20ac;" horiz-adv-x="664" 
d="M624 93q-44 -37 -100.5 -66t-110.5 -42q-93 0 -163 37t-111 105.5t-48 160.5h-46v16h45q-1 9 -1 27q0 37 4 65h-48v16h51q22 126 108.5 205.5t218.5 99.5q53 0 105.5 -14t91.5 -38v-185h-13l-76 167q-46 52 -112 52q-54 0 -96 -35.5t-66.5 -100.5t-27.5 -151h277l-12 -16
h-266v-13q0 -46 4 -79h208l-12 -16h-194q17 -116 72 -179t140 -63q37 0 83 16.5t86 44.5z" />
    <glyph glyph-name="uni20AE" unicode="&#x20ae;" horiz-adv-x="576" 
d="M566 533h-13l-78 151h-122v-258l146 81v-18l-146 -81v-38l146 81v-18l-146 -81v-332l87 -7v-13h-304v13l88 7v260l-146 -81v18l146 81v38l-146 -81v18l146 81v330h-123l-78 -151h-13v167h556v-167z" />
    <glyph glyph-name="uni20B4" unicode="&#x20b4;" horiz-adv-x="532" 
d="M523 421v-13h-511v13h214l56 37q50 30 73.5 58t23.5 69q0 50 -34 80t-89 30q-69 0 -124 -53l-58 -135h-12v171q49 21 92.5 29.5t100.5 8.5q118 -20 174.5 -70.5t56.5 -124.5q0 -60 -40 -100h77zM12 341h511v-13h-203l-74 -49q-57 -34 -81.5 -67.5t-24.5 -77.5
q0 -55 36 -88t95 -33q46 0 85 23t74 62l49 120h13v-175q-49 -31 -96.5 -45t-108.5 -14q-250 59 -250 218q0 39 14 69t44 57h-83v13z" />
    <glyph glyph-name="uni20B8" unicode="&#x20b8;" horiz-adv-x="576" 
d="M10 700h556v-16h-556v16zM136 13l88 7v617h-123l-78 -133h-13v149h556v-149h-13l-78 133h-122v-617l87 -7v-13h-304v13z" />
    <glyph glyph-name="uni20B9" unicode="&#x20b9;" horiz-adv-x="485" 
d="M480 13v-13h-180l-186 332h-88v16h80q71 0 109.5 44t40.5 121h-230v16h230q-2 74 -38 114.5t-97 40.5h-95v16h428v-16h-166q49 -18 78 -57t29 -98h59v-16h-60q-6 -79 -77.5 -123t-192.5 -58l144 -30l167 -282z" />
    <glyph glyph-name="uni20BA" unicode="&#x20ba;" horiz-adv-x="625" 
d="M614 286l-53 -7q0 -139 -65 -207t-183 -72h-287v13l72 7v227l-84 -48v18l84 48v38l-84 -48v18l84 48v359l-72 7v13h275v-13l-74 -7v-286l220 124v-17l-220 -125v-38l220 125v-18l-220 -125v-300l58 -7q144 0 144 266l-60 7v13h245v-13z" />
    <glyph glyph-name="uni20BD" unicode="&#x20bd;" horiz-adv-x="550" 
d="M227 315v-45h203v-16h-203v-234l76 -7v-13h-277v13l72 7v234h-72v16h72v45h-71v16h71v349l-72 7v13h301q91 0 150.5 -46t59.5 -133q0 -62 -32.5 -102t-85 -62.5t-130.5 -41.5h-62zM227 331h36q61 0 98.5 50.5t37.5 130.5q0 78 -30.5 126.5t-92.5 48.5l-49 -7v-349z" />
    <glyph glyph-name="uni2113" unicode="&#x2113;" horiz-adv-x="475" 
d="M416 106l6 -9l-216 -114l-85 22v226l-81 -32v22q45 18 81 36v359l181 103q65 -2 99 -42.5t34 -115.5q0 -94 -50 -159t-157 -121v-251zM228 321q52 41 73.5 91t21.5 122q0 142 -61 142l-34 -23v-332z" />
    <glyph glyph-name="uni2116" unicode="&#x2116;" horiz-adv-x="974" 
d="M30 13l80 7v660l-84 7v13h213l263 -579v579h102v-13l-84 -7v-680h-97l-295 643v-643h-98v13zM663 109q-37 23 -58.5 64t-21.5 93q0 85 49 132.5t140 67.5q47 0 84.5 -23t59 -63.5t21.5 -93.5q0 -161 -190 -200q-47 0 -84 23zM823 145q20 38 20 111q0 88 -25.5 137.5
t-66.5 49.5q-35 0 -55 -37.5t-20 -110.5q0 -58 12.5 -100.5t33.5 -65t46 -22.5q35 0 55 38zM583 26h352v-26h-352v26z" />
    <glyph glyph-name="trademark" unicode="&#x2122;" horiz-adv-x="973" 
d="M121 324l52 4v362h-63l-50 -103h-10v113h337v-113h-10l-51 103h-62v-362l51 -4v-9h-194v9zM407 324l38 4v359l-38 4v9h138l128 -298l120 298h130v-9l-39 -4v-359l39 -4v-9h-165v9l34 4v335l-141 -351h-45l-149 363v-347l40 -4v-9h-90v9z" />
    <glyph glyph-name="uni2126" unicode="&#x2126;" horiz-adv-x="745" 
d="M60 174h13l30 -98h205v72q-68 8 -127 40.5t-95 88.5t-36 133q0 117 79.5 193t253.5 112q90 0 161.5 -37.5t111 -101.5t39.5 -142q0 -122 -68 -189t-190 -95v-74h201l34 98h13v-174h-270v165q52 11 91.5 68t39.5 179q0 81 -23.5 143.5t-65 96.5t-95.5 34q-49 0 -86 -32.5
t-57 -89t-20 -126.5q0 -77 18.5 -137t48.5 -94.5t64 -40.5v-166h-270v174z" />
    <glyph glyph-name="estimated" unicode="&#x212e;" horiz-adv-x="835" 
d="M223.5 30.5q-82.5 45.5 -128 125.5t-45.5 179q0 109 36.5 179t117.5 116t224 85q102 0 181.5 -40.5t125.5 -115.5t50 -175v-52h-585v-87q23 -108 78.5 -167.5t137.5 -59.5q85 0 140 54.5t74 147.5h143q-22 -71 -68.5 -115.5t-116.5 -71.5t-177 -48q-105 0 -187.5 45.5z
M632 388v82q-20 100 -76 155.5t-139 55.5q-164 0 -217 -175v-118h432z" />
    <glyph glyph-name="arrowleft" unicode="&#x2190;" horiz-adv-x="610" 
d="M50 295l270 252v-47l-204 -187h444v-36h-444l204 -187v-48z" />
    <glyph glyph-name="arrowup" unicode="&#x2191;" horiz-adv-x="606" 
d="M285 484l-187 -204h-48l253 270l253 -270h-48l-187 204v-444h-36v444z" />
    <glyph glyph-name="arrowright" unicode="&#x2192;" horiz-adv-x="610" 
d="M290 90l204 187h-444v36h444l-204 187v47l270 -252l-270 -253v48z" />
    <glyph glyph-name="arrowdown" unicode="&#x2193;" horiz-adv-x="606" 
d="M50 310h48l187 -204v444h36v-444l187 204h48l-253 -270z" />
    <glyph glyph-name="uni2196" unicode="&#x2196;" horiz-adv-x="473" 
d="M83 416v-279l-33 -33v371h371l-34 -33h-278l314 -315l-26 -25z" />
    <glyph glyph-name="uni2197" unicode="&#x2197;" horiz-adv-x="473" 
d="M50 127l314 315h-278l-34 33h371v-371l-33 33v279l-315 -314z" />
    <glyph glyph-name="uni2198" unicode="&#x2198;" horiz-adv-x="473" 
d="M86 120h278l-314 315l25 25l315 -313v278l33 34v-372h-371z" />
    <glyph glyph-name="uni2199" unicode="&#x2199;" horiz-adv-x="473" 
d="M50 459l33 -34v-278l314 313l26 -25l-314 -315h278l34 -33h-371v372z" />
    <glyph glyph-name="partialdiff" unicode="&#x2202;" 
d="M365 622q87 -65 135 -156.5t48 -201.5q0 -76 -27.5 -140t-79.5 -101.5t-123 -37.5q-124 32 -185 102t-61 173q0 53 18.5 100t57 76.5t94.5 29.5l170 -101q-11 128 -71.5 211.5t-182.5 134.5l4 9q116 -33 203 -98zM414 349l-32 17q-30 16 -49.5 23t-41.5 7
q-45 0 -68.5 -45t-23.5 -133q0 -107 24 -157.5t75 -50.5q55 0 85 74.5t32 196.5q0 47 -1 68z" />
    <glyph glyph-name="emptyset" unicode="&#x2205;" horiz-adv-x="600" 
d="M463 488q47 -55 47 -133q0 -56 -25 -102t-70.5 -72t-104.5 -26q-79 0 -134 47l-68 -67l-17 17l68 67q-49 57 -49 136q0 56 25 102t70.5 72t104.5 26q82 0 136 -49l68 67l17 -17zM178 239l249 247q-47 44 -117 44q-51 0 -90 -23.5t-60.5 -63.5t-21.5 -88q0 -68 40 -116z
M443 469l-248 -247q47 -42 115 -42q51 0 90 23.5t60.5 63.5t21.5 88q0 66 -39 114z" />
    <glyph glyph-name="uni2206" unicode="&#x2206;" horiz-adv-x="713" 
d="M26 13l310 686l45 12l305 -698v-13h-660v13zM539 19l-239 570l-251 -570h490z" />
    <glyph glyph-name="product" unicode="&#x220f;" horiz-adv-x="723" 
d="M20 -147l72 7v820l-72 7v13h683v-13l-80 -7v-820l72 -7v-13h-268v13l71 7v824h-281v-824l71 -7v-13h-268v13z" />
    <glyph glyph-name="summation" unicode="&#x2211;" 
d="M55 -149l300 388l-283 442l8 19h478v-169h-13l-79 153h-257l228 -359v-11l-289 -375h349l54 98h13v-197h-501z" />
    <glyph glyph-name="minus" unicode="&#x2212;" 
d="M47 291h526v-26h-526v26z" />
    <glyph glyph-name="radical" unicode="&#x221a;" 
d="M-26 444l-52 7v13h179l147 -396l284 808h166l-7 -24h-149l-297 -838l-89 -31z" />
    <glyph glyph-name="infinity" unicode="&#x221e;" horiz-adv-x="813" 
d="M99.5 174q-39.5 45 -39.5 113q0 56 36 100.5t120 82.5q54 0 103 -31.5t110 -97.5l49 52q72 77 140 77q63 0 99 -44t36 -111q0 -64 -34.5 -104.5t-121.5 -81.5q-53 0 -102.5 31t-108.5 96l-50 -56q-28 -32 -62.5 -51.5t-68.5 -19.5q-66 0 -105.5 45zM690.5 247.5
q31.5 22.5 31.5 65.5q0 40 -28.5 62t-85.5 22q-31 0 -64 -14t-62 -40l-30 -24q41 -42 85.5 -68t78.5 -26q43 0 74.5 22.5zM333 251l31 27q-47 48 -86 71.5t-76 24.5q-51 0 -81 -22t-30 -63q0 -38 31.5 -63.5t87.5 -25.5q66 0 123 51z" />
    <glyph glyph-name="integral" unicode="&#x222b;" 
d="M109 -150h120l3 13q5 18 6.5 40.5t1.5 73.5v495q0 46 13 76.5t42 58.5l109 103h107v-85h-144l-3 -13q-6 -18 -7.5 -40t-1.5 -74v-495q0 -45 -13 -76t-41 -59l-110 -103h-82v85z" />
    <glyph glyph-name="approxequal" unicode="&#x2248;" 
d="M64 358l95 22l375 -64l47 74h13l-38 -77l-95 -25l-374 67l-49 -77h-12zM64 173l95 22l375 -64l47 74h13l-38 -77l-95 -25l-374 67l-49 -77h-12z" />
    <glyph glyph-name="notequal" unicode="&#x2260;" 
d="M211 136h-161v26h183l139 166h-322v26h344l106 126h32l-106 -126h144v-26h-165l-139 -166h304v-26h-326l-113 -136h-33z" />
    <glyph glyph-name="lessequal" unicode="&#x2264;" 
d="M50 350v18l520 241v-29l-485 -221l485 -220v-29zM50 26h520v-26h-520v26z" />
    <glyph glyph-name="greaterequal" unicode="&#x2265;" 
d="M50 139l485 220l-485 221v29l520 -241v-18l-520 -240v29zM50 26h520v-26h-520v26z" />
    <glyph glyph-name="uni2460" unicode="&#x2460;" horiz-adv-x="816" 
d="M222.5 30.5q-85.5 44.5 -136 128.5t-50.5 197q0 153 99 243.5t272 115.5q101 -1 186.5 -45.5t136 -128.5t50.5 -197q0 -153 -99 -243.5t-272 -115.5q-101 1 -186.5 45.5zM562.5 46q71.5 41 114 118t42.5 180q0 113 -49 192.5t-121 119t-140 39.5q-83 0 -154.5 -41
t-114.5 -118t-43 -180q0 -113 49 -192.5t121 -119t140 -39.5q84 0 155.5 41zM296 177l76 5v332l-78 -22l-4 9l155 58h10v-377l76 -5v-10h-235v10z" />
    <glyph glyph-name="uni2461" unicode="&#x2461;" horiz-adv-x="816" 
d="M222.5 30.5q-85.5 44.5 -136 128.5t-50.5 197q0 153 99 243.5t272 115.5q101 -1 186.5 -45.5t136 -128.5t50.5 -197q0 -153 -99 -243.5t-272 -115.5q-101 1 -186.5 45.5zM562.5 46q71.5 41 114 118t42.5 180q0 113 -49 192.5t-121 119t-140 39.5q-83 0 -154.5 -41
t-114.5 -118t-43 -180q0 -113 49 -192.5t121 -119t140 -39.5q84 0 155.5 41zM254 177l79 83q64 66 94.5 115.5t30.5 91.5q0 31 -16.5 52.5t-39.5 21.5q-16 0 -36 -5l-22 -98h-78v69l154 55q68 0 100.5 -26.5t32.5 -68.5q0 -52 -40.5 -97.5t-126.5 -94.5l-64 -37h244v-10
l-23 -60h-282z" />
    <glyph glyph-name="uni2462" unicode="&#x2462;" horiz-adv-x="816" 
d="M222.5 30.5q-85.5 44.5 -136 128.5t-50.5 197q0 153 99 243.5t272 115.5q101 -1 186.5 -45.5t136 -128.5t50.5 -197q0 -153 -99 -243.5t-272 -115.5q-101 1 -186.5 45.5zM562.5 46q71.5 41 114 118t42.5 180q0 113 -49 192.5t-121 119t-140 39.5q-83 0 -154.5 -41
t-114.5 -118t-43 -180q0 -113 49 -192.5t121 -119t140 -39.5q84 0 155.5 41zM290 228h151q15 15 22 28.5t7 31.5q0 32 -28.5 52.5t-77.5 19.5l-3 10l39 23q35 20 47 37.5t12 45.5q0 25 -14 40t-36 15q-12 0 -26 -4l-24 -80h-71v59l160 50q52 0 76.5 -19.5t24.5 -45.5
t-27 -48.5t-92 -36.5q43 -1 72 -14.5t43 -33t14 -39.5q0 -36 -25 -59t-85 -51l-114 -51h-45v70z" />
    <glyph glyph-name="uni2463" unicode="&#x2463;" horiz-adv-x="816" 
d="M222.5 30.5q-85.5 44.5 -136 128.5t-50.5 197q0 153 99 243.5t272 115.5q101 -1 186.5 -45.5t136 -128.5t50.5 -197q0 -153 -99 -243.5t-272 -115.5q-101 1 -186.5 45.5zM562.5 46q71.5 41 114 118t42.5 180q0 113 -49 192.5t-121 119t-140 39.5q-83 0 -154.5 -41
t-114.5 -118t-43 -180q0 -113 49 -192.5t121 -119t140 -39.5q84 0 155.5 41zM388 281h-162l-7 9l181 257h106v-10l-273 -244h155v74l84 49v-124h78v-11h-78v-119h-84v119z" />
    <glyph glyph-name="uni2464" unicode="&#x2464;" horiz-adv-x="816" 
d="M222.5 30.5q-85.5 44.5 -136 128.5t-50.5 197q0 153 99 243.5t272 115.5q101 -1 186.5 -45.5t136 -128.5t50.5 -197q0 -153 -99 -243.5t-272 -115.5q-101 1 -186.5 45.5zM562.5 46q71.5 41 114 118t42.5 180q0 113 -49 192.5t-121 119t-140 39.5q-83 0 -154.5 -41
t-114.5 -118t-43 -180q0 -113 49 -192.5t121 -119t140 -39.5q84 0 155.5 41zM283 224h123q23 19 33.5 37.5t10.5 40.5q0 24 -16.5 42.5t-48.5 18.5q-17 0 -30 -3.5t-34 -12.5l-23 -11l-5 4l25 201h219l-15 -69h-201l-16 -125l134 67q50 0 75.5 -24t25.5 -57q0 -40 -28.5 -67
t-82.5 -54l-113 -58h-33v70z" />
    <glyph glyph-name="uni2465" unicode="&#x2465;" horiz-adv-x="816" 
d="M593.5 669.5q85.5 -44.5 136 -128.5t50.5 -197q0 -153 -99 -243.5t-272 -115.5q-101 1 -186.5 45.5t-136 128.5t-50.5 197q0 153 99 243.5t272 115.5q101 -1 186.5 -45.5zM562.5 46q71.5 41 114 118t42.5 180q0 113 -49 192.5t-121 119t-140 39.5q-83 0 -154.5 -41
t-114.5 -118t-43 -180q0 -113 49 -192.5t121 -119t140 -39.5q84 0 155.5 41zM522.5 382q24.5 -30 24.5 -71q0 -119 -154 -155q-68 0 -106 43t-38 111q0 85 58.5 151t182.5 99l3 -7q-60 -27 -92 -56.5t-44.5 -64.5t-13.5 -87l106 67q49 0 73.5 -30zM442 196.5
q13 28.5 13 88.5q0 40 -11.5 60t-32.5 20q-11 0 -22 -5t-31 -17l-15 -8v-2q1 -165 59 -165q27 0 40 28.5z" />
    <glyph glyph-name="uni2466" unicode="&#x2466;" horiz-adv-x="816" 
d="M222.5 30.5q-85.5 44.5 -136 128.5t-50.5 197q0 153 99 243.5t272 115.5q101 -1 186.5 -45.5t136 -128.5t50.5 -197q0 -153 -99 -243.5t-272 -115.5q-101 1 -186.5 45.5zM562.5 46q71.5 41 114 118t42.5 180q0 113 -49 192.5t-121 119t-140 39.5q-83 0 -154.5 -41
t-114.5 -118t-43 -180q0 -113 49 -192.5t121 -119t140 -39.5q84 0 155.5 41zM326 158l200 307h-237v70h269l6 -8l-177 -377h-61v8z" />
    <glyph glyph-name="uni2467" unicode="&#x2467;" horiz-adv-x="816" 
d="M593.5 669.5q85.5 -44.5 136 -128.5t50.5 -197q0 -153 -99 -243.5t-272 -115.5q-101 1 -186.5 45.5t-136 128.5t-50.5 197q0 153 99 243.5t272 115.5q101 -1 186.5 -45.5zM562.5 46q71.5 41 114 118t42.5 180q0 113 -49 192.5t-121 119t-140 39.5q-83 0 -154.5 -41
t-114.5 -118t-43 -180q0 -113 49 -192.5t121 -119t140 -39.5q84 0 155.5 41zM539.5 307q15.5 -21 15.5 -51q0 -43 -36 -67.5t-115 -39.5q-63 3 -103 26.5t-40 70.5q0 33 24.5 54t69.5 36l-25 18q-32 24 -48.5 44.5t-16.5 48.5q0 82 147 104q64 -3 100 -24t36 -60
q0 -28 -23.5 -48.5t-73.5 -36.5l44 -32q29 -22 44.5 -43zM364 526.5q-15 -10.5 -15 -31.5q0 -23 17 -43t51 -45l22 -16q26 26 26 74q0 36 -17.5 54t-46.5 18q-22 0 -37 -10.5zM452 174.5q16 12.5 16 39.5q0 23 -12.5 40.5t-42.5 39.5l-44 32q-13 -16 -20.5 -34.5t-7.5 -35.5
q0 -50 21.5 -72t50.5 -22q23 0 39 12.5z" />
    <glyph glyph-name="uni2468" unicode="&#x2468;" horiz-adv-x="816" 
d="M593.5 669.5q85.5 -44.5 136 -128.5t50.5 -197q0 -153 -99 -243.5t-272 -115.5q-101 1 -186.5 45.5t-136 128.5t-50.5 197q0 153 99 243.5t272 115.5q101 -1 186.5 -45.5zM562.5 46q71.5 41 114 118t42.5 180q0 113 -49 192.5t-121 119t-140 39.5q-83 0 -154.5 -41
t-114.5 -118t-43 -180q0 -113 49 -192.5t121 -119t140 -39.5q84 0 155.5 41zM526 504.5q38 -42.5 38 -109.5q0 -84 -60 -151.5t-181 -100.5l-3 7q83 39 115 87t33 119v1l-101 -67q-49 0 -75 31.5t-26 72.5q0 60 38.5 97t116.5 56q67 0 105 -42.5zM468 366q-1 168 -57 168
q-53 0 -53 -106q0 -91 47 -91q12 0 19 3t28 17z" />
    <glyph glyph-name="lozenge" unicode="&#x25ca;" 
d="M47 330l253 373l39 13l234 -349l-247 -371l-43 -14zM500 290l-227 342l-150 -227l226 -339z" />
    <glyph glyph-name="circle" unicode="&#x25cb;" horiz-adv-x="816" 
d="M222.5 30.5q-85.5 44.5 -136 128.5t-50.5 197q0 153 99 243.5t272 115.5q101 -1 186.5 -45.5t136 -128.5t50.5 -197q0 -153 -99 -243.5t-272 -115.5q-101 1 -186.5 45.5zM562.5 46q71.5 41 114 118t42.5 180q0 113 -49 192.5t-121 119t-140 39.5q-83 0 -154.5 -41
t-114.5 -118t-43 -180q0 -113 49 -192.5t121 -119t140 -39.5q84 0 155.5 41z" />
    <glyph glyph-name="uniF8FF" unicode="&#xf8ff;" horiz-adv-x="685" 
d="M462 -28l-24 18h-14l-8 8l7 76l-4 47l-61 1l-3 -52l-2 -56v-20l-15 -6l-8 6l-30 -10h-32l-1 11l11 11l50 21l-6 96l-98 -6l-147 140l-4 115l-13 10l-10 36v26l15 8l-3 78l92 -62l9 47l10 36l22 35l28 35l39 29l78 29h22l-68 22l4 17h7l79 -20l-4 51l16 12h32l19 -5
l29 -25l32 -8l32 -10l15 -13v-20l-20 -31l30 -28l28 -32l18 -34l15 -41l9 -54l-3 -41l-8 -35l-12 -31l-3 -156l-21 -7l-50 70l-27 -7l-19 -140l-32 4l-7 -4l-4 -94l30 -19l16 -14l-3 -15zM243 540l36 24h32l18 -12l8 3l4 14l7 5l10 -4v-18h8l10 22l11 8l-5 6l-3 8l1 21
l-30 -10l-10 -8l-8 5l4 21l14 10l11 11l38 -2l12 13l-4 8h-49l-45 -13l-53 -26l-29 -23l-25 -34l29 12l13 -15l-17 -20l-10 -3l17 -3h5zM421 625l-7 17l-8 -9v-19l12 -6zM479 564l6 6l-9 18l17 28l-15 9v5l-25 7v-20l-13 -5v-9l-9 -6l-3 -12l5 -6l19 11l8 -2l6 -24h13z
M563 418h23l6 11l-18 6l-5 9l9 42h7l14 -20l17 -1l-8 37l-19 50l-20 36l-23 28l-34 21h-11l17 -19l25 -10l11 -11l3 -33l-25 13l-15 -29l12 -8v-19l15 3l-12 26l15 -5l10 -20l-5 -12l-8 -7h-23l-3 11l-12 2l1 -22h-14l14 -18l-7 -10l-21 5l-3 -27l41 6l8 17l22 -2l6 -28
l-16 -13v-15l8 -6zM493 521l-2 9l-8 -4v-9l8 -3zM273 510l-4 12l-55 -24zM399 495l-48 25l-4 -12l49 -17zM102 434l57 -32l7 10l-68 38v18l59 -34l43 -28l28 -14l3 10l-103 64l-13 7l-41 33l2 -78l19 -17v-5h-21l19 -14l1 -11l-20 7l18 -18l-4 -7l3 -97l11 -12v180zM268 437
l16 12l6 12l2 13l-22 -4l6 -10l-12 -13l-14 -1l-6 8l1 4l14 2l-13 6l2 7l-20 -1l3 -19l14 -15l12 -6zM377 440l6 9l5 20l-30 2l7 -5l1 -11l-7 -11h-12l-5 7l11 8l-15 2v6l-23 4l3 -17l8 -14l20 -9l13 -1zM249 134l2 40l41 -3l3 9l-44 6v16l48 -6l1 9l-47 7l1 22l43 -3l3 6
l-45 9l3 94h74l11 10h-79l2 9h74l8 7h-82l2 22l117 4l140 -4v11l-4 7h-205l-66 -3l-7 -9l-6 -44l-48 20l-11 -4l57 -27l1 -45l-5 -73v-91zM564 386l5 7v7l-10 -4v-10h5zM433 336l4 30l-54 5l-3 -35h53zM202 291l4 40l-66 39v-7l-2 -13l1 -27v-48l64 -44zM548 302l20 15
l13 13l11 18l-7 5h-14l-10 3l-14 7l-17 -3l-6 -48q1 1 7.5 -4.5t8.5 -7.5zM511 350l4 9h-48v-13zM491 221l4 36l-15 3l-1 8l20 1l5 3l-28 16l2 5l30 -6l-30 15l5 5l21 -5l4 10l3 19l-54 1l-1 -24v-6l-2 -31l19 -3l-8 -61l-48 3l-8 -6l51 -5l-2 -9h-49l-4 -5l53 -7l-6 -35
l27 -1zM394 302v10h-73v-10h73zM589 312l-6 -3l-33 -27l39 -48v78zM394 281l-72 7l-6 -13l78 -4v10zM384 250v6l-68 4v-10h68zM206 203l-74 50l20 -23l50 -41zM380 214l-64 4v-51l64 -6v53z" />
    <glyph glyph-name="uni00A40301" horiz-adv-x="343" 
d="M205 904h107l-137 -135h-16zM2 -72h111l3 24q5 38 5 139v589l-93 7v13h293v-13l-71 -7v-548q0 -67 -25 -116t-68 -95l-87 -96h-68v103z" />
    <glyph glyph-name="uni006A0301" horiz-adv-x="271" 
d="M-20 -134h104l2 18q7 59 7 110v446l-59 -12l-2 14l163 38h13v-456q0 -53 -12.5 -82.5t-49.5 -66.5l-101 -113h-65v104zM193 710h107l-141 -161h-21z" />
    <glyph glyph-name="zero.zero" horiz-adv-x="575" 
d="M427 455q51 -30 79.5 -85t28.5 -126q0 -112 -69 -174t-201 -85q-66 0 -117 30t-79.5 84.5t-28.5 125.5q0 111 68 172t201 88q67 0 118 -30zM191.5 401.5q-27.5 -58.5 -27.5 -153.5q0 -86 18 -146l201 276q-32 82 -106 82q-58 0 -85.5 -58.5zM378.5 66.5
q27.5 58.5 27.5 154.5q0 86 -17 141l-200 -278q32 -76 103 -76q59 0 86.5 58.5z" />
    <glyph glyph-name="zero.tf" 
d="M170 15q-51 30 -79.5 84.5t-28.5 125.5q0 111 68 172t201 88q67 0 118 -30t79.5 -85t28.5 -126q0 -112 -69 -174t-201 -85q-66 0 -117 30zM400.5 66.5q27.5 58.5 27.5 154.5q0 110 -30.5 174.5t-98.5 64.5q-58 0 -85.5 -58.5t-27.5 -153.5q0 -111 30.5 -175.5t97.5 -64.5
q59 0 86.5 58.5z" />
    <glyph glyph-name="one.tf" 
d="M123 13l134 7v399l-130 -46l-5 13l238 97h12v-463l130 -7v-13h-379v13z" />
    <glyph glyph-name="two.tf" 
d="M89 12l121 97q93 71 127.5 129.5t34.5 115.5q0 52 -22.5 78t-58.5 26q-18 0 -33 -5.5t-19 -6.5l-30 -142h-105v100l216 87q92 0 135.5 -35t43.5 -90q0 -66 -56 -125.5t-168 -116.5l-64 -28h318v-12l-32 -84h-400z" />
    <glyph glyph-name="three.tf" 
d="M101 -127h240q31 30 44 57.5t13 64.5q0 64 -51 103.5t-133 38.5l-4 13l57 35q61 32 85.5 67.5t24.5 91.5q0 47 -24.5 77t-63.5 30q-26 0 -54 -13l-39 -134h-98v102l248 85q70 0 113 -33.5t43 -86.5q0 -109 -189 -169q60 -2 107.5 -23t74.5 -56t27 -77q0 -61 -39.5 -105.5
t-135.5 -90.5l-165 -79h-81v102z" />
    <glyph glyph-name="four.tf" 
d="M327 -2h-273l-10 13l300 462h148v-12l-428 -447h263v160l116 67v-227h133v-16h-133v-225h-116v225z" />
    <glyph glyph-name="five.tf" 
d="M102 -124h195q48 37 69 78t21 93t-27.5 84t-79.5 32q-30 0 -53 -7t-61 -27l-39 -21l-7 5l40 363h351l-18 -99h-328l-28 -252l212 113q79 0 121.5 -41.5t42.5 -104.5q0 -74 -47 -127.5t-144 -104.5l-164 -86h-56v102z" />
    <glyph glyph-name="six.tf" 
d="M504 393.5q43 -55.5 43 -135.5q0 -98 -60.5 -169.5t-187.5 -103.5q-72 0 -123 37.5t-77.5 101t-26.5 140.5q0 100 40.5 190t126.5 159.5t216 106.5l4 -11q-101 -41 -156 -94.5t-76.5 -123.5t-23.5 -172l178 130q80 0 123 -55.5zM420 209q0 83 -22.5 126.5t-62.5 43.5
q-22 0 -42.5 -12t-64.5 -46l-25 -16v-13q0 -136 32 -209.5t83 -73.5q102 0 102 200z" />
    <glyph glyph-name="seven.tf" 
d="M153 -213l325 587h-392v102h436l9 -11l-291 -689h-87v11z" />
    <glyph glyph-name="eight.tf" 
d="M516.5 262q24.5 -37 24.5 -86q0 -76 -58 -121t-182 -70q-95 3 -159 47.5t-64 129.5q0 60 44 101.5t118 72.5l-50 40q-47 39 -73.5 76.5t-26.5 83.5q0 70 56 113t170 67q102 -4 158 -42t56 -108q0 -52 -40 -93t-122 -73l79 -64q45 -37 69.5 -74zM233 671q-26 -22 -26 -66
t29 -82.5t90 -88.5l28 -23q34 33 46.5 69t12.5 80q0 63 -31 98t-82 35q-41 0 -67 -22zM391 32.5q30 25.5 30 83.5q0 44 -21.5 76t-75.5 76l-70 56q-29 -31 -45 -67.5t-16 -75.5q0 -58 19 -97t48 -58t59 -19q42 0 72 25.5z" />
    <glyph glyph-name="nine.tf" 
d="M437.5 456q51.5 -35 80 -98.5t28.5 -147.5q0 -105 -46 -195.5t-132 -156.5t-205 -100l-5 11q132 60 192.5 150t64.5 238l-173 -131q-50 0 -88.5 24.5t-60.5 69t-22 103.5q0 98 63 167t185 101q67 0 118.5 -35zM415 171v10q0 124 -29.5 204.5t-91.5 80.5q-45 0 -70.5 -50
t-25.5 -143q0 -86 23.5 -130.5t70.5 -44.5q20 0 34.5 8.5t56.5 40.5z" />
    <glyph glyph-name="zero.tf.zero" 
d="M449 455q51 -30 79.5 -85t28.5 -126q0 -112 -69 -174t-201 -85q-66 0 -117 30t-79.5 84.5t-28.5 125.5q0 111 68 172t201 88q67 0 118 -30zM213.5 401.5q-27.5 -58.5 -27.5 -153.5q0 -86 18 -146l201 276q-32 82 -106 82q-58 0 -85.5 -58.5zM400.5 66.5
q27.5 58.5 27.5 154.5q0 86 -17 141l-200 -278q32 -76 103 -76q59 0 86.5 58.5z" />
    <glyph glyph-name="dollar.tf" 
d="M330 -5v-75h-15v71q-9 -3 -27 -7q-61 0 -108.5 14t-96.5 45v175h13l49 -120q35 -39 74 -62t85 -23h11v275l-112 71q-58 35 -86 70t-28 92q0 74 55.5 124t170.5 70v66h15v-65q53 -1 95 -9.5t88 -28.5v-171h-12l-58 135q-49 49 -113 53v-260l88 -55q63 -39 91.5 -79.5
t28.5 -98.5q0 -145 -208 -207zM315 444v251q-54 -2 -86.5 -31.5t-32.5 -78.5q0 -41 23.5 -69t73.5 -58zM406.5 54q28.5 32 28.5 80q0 44 -24 77t-81 67v-263q48 7 76.5 39z" />
    <glyph glyph-name="cent.tf" 
d="M428 38q-38 -27 -85 -51v-67h-16v65q-62 3 -110.5 32t-76 80t-27.5 118q0 104 60.5 171.5t153.5 91.5v66h16v-62l15 3q32 0 72 -15.5t68 -37.5v-100h-93l-37 124q-14 6 -32 6q-51 0 -85 -42.5t-34 -131.5q0 -61 21.5 -110.5t59.5 -77.5t88 -28q33 0 59.5 9.5t56.5 30.5
l4 -8q-40 -39 -78 -66z" />
    <glyph glyph-name="sterling.tf" 
d="M541 170v-170h-464v13l72 10v337h-72v13h72v115q0 94 59.5 147t171.5 80q98 0 146 -40v-160h-13l-48 130q-21 24 -41 35t-50 11q-55 0 -82.5 -34t-27.5 -99v-185h160v-13h-160v-203q0 -63 -7.5 -90t-31.5 -49h235l68 152h13z" />
    <glyph glyph-name="florin.tf" 
d="M120 -150h112l4 13q5 18 6.5 40.5t1.5 73.5v472h-62v13h62v10q0 45 13 76t41 59l110 103h92v-85h-129l-4 -13q-5 -18 -6.5 -40.5t-1.5 -73.5v-36h108v-13h-108v-446q0 -46 -13 -76.5t-42 -58.5l-109 -103h-75v85z" />
    <glyph glyph-name="yen.tf" 
d="M634 687l-67 -7l-187 -395v-16h112v-12h-112v-86h112v-13h-112v-138l102 -7v-13h-333v13l102 7v138h-104v13h104v86h-104v12h104v4l-198 407l-68 7v13h299v-13l-81 -7l172 -369l173 369l-91 7v13h177v-13z" />
    <glyph glyph-name="Euro.tf" 
d="M600 93q-44 -37 -100.5 -66t-110.5 -42q-93 0 -163 37t-111 105.5t-48 160.5h-46v16h45q-1 9 -1 27q0 37 4 65h-48v16h51q22 126 108.5 205.5t218.5 99.5q53 0 105.5 -14t91.5 -38v-185h-13l-76 167q-46 52 -112 52q-54 0 -96 -35.5t-66.5 -100.5t-27.5 -151h277l-12 -16
h-266v-13q0 -46 4 -79h208l-12 -16h-194q17 -116 72 -179t140 -63q37 0 83 16.5t86 44.5z" />
    <glyph glyph-name="percent.tf" 
d="M493 705h25l-385 -710h-29zM57 401.5q-34 46.5 -34 120.5q0 72 35.5 116t111.5 66q55 0 89.5 -46.5t34.5 -121.5q0 -73 -36.5 -117t-112.5 -64q-54 0 -88 46.5zM200 410.5q14 38.5 14 100.5q0 70 -17 120t-45 56q-22 0 -36.5 -40.5t-14.5 -99.5q0 -73 16.5 -120t45.5 -55
q23 0 37 38.5zM360.5 43q-34.5 47 -34.5 121q0 71 35.5 115t111.5 67q55 0 89.5 -47t34.5 -121q0 -73 -36 -117.5t-112 -64.5q-54 0 -88.5 47zM504 51.5q14 38.5 14 100.5q0 73 -16.5 120.5t-45.5 55.5q-23 0 -37 -39.5t-14 -100.5q0 -71 16.5 -119t45.5 -56q23 0 37 38.5z
" />
    <glyph glyph-name="perthousand.tf" horiz-adv-x="600" 
d="M51.5 437q-30.5 42 -30.5 106q0 63 31.5 102t99.5 59q48 0 79 -42t31 -107q0 -64 -32.5 -103t-100.5 -57q-47 0 -77.5 42zM103.5 653q-12.5 -36 -12.5 -88q0 -65 14.5 -106.5t39.5 -48.5q21 0 33.5 34t12.5 89q0 63 -15 106.5t-40 49.5q-20 0 -32.5 -36zM510 521
l-436 -288h-44l436 288h44zM548.5 263.5q30.5 -41.5 30.5 -107.5q0 -64 -32 -103t-99 -57q-50 0 -80 48q-32 -32 -88 -48q-48 0 -78.5 41.5t-30.5 107.5q0 63 31.5 102t98.5 58q25 0 46.5 -13t35.5 -36q29 32 87 49q48 0 78.5 -41.5zM329 45.5q13 34.5 13 88.5
q0 62 -15.5 105t-40.5 50q-20 0 -32.5 -34.5t-12.5 -88.5q0 -63 15 -105t40 -50q20 0 33 34.5zM496.5 45.5q12.5 34.5 12.5 88.5q0 63 -15 105.5t-40 49.5q-20 0 -32.5 -34.5t-12.5 -88.5q0 -63 15 -105t40 -50q20 0 32.5 34.5z" />
    <glyph glyph-name="Aogonek.ss01" horiz-adv-x="699" 
d="M447 -79v-23q0 -35 23.5 -49.5t69.5 -14.5l-1 -11q-89 0 -123.5 20t-34.5 65v30l108 79l-75 232h-242l-79 -229l82 -8v-12h-170v13l65 7l232 654l95 40l233 -694l64 -7v-13h-196zM409 267l-111 343l-119 -343h230z" />
    <glyph glyph-name="Ccedilla.ss01" horiz-adv-x="684" 
d="M295 661q-52 -39 -82 -117.5t-30 -190.5q0 -99 25.5 -178t78.5 -125.5t132 -46.5q39 0 75.5 16t61.5 41l70 161h12v-176q-61 -26 -114.5 -40t-128.5 -21h-2l-16 -22q33 -3 57.5 -17t24.5 -38t-23.5 -38.5t-64.5 -25.5l-79 -23h-31l29 35h84q12 7 18.5 16.5t6.5 19.5
q0 16 -19 25t-51 10l48 58q-94 4 -171.5 45.5t-123.5 119.5t-46 186q0 168 99 266t272 115q71 0 125 -13t106 -38v-175h-13l-70 150q-28 29 -62 44.5t-82 15.5q-64 0 -116 -39z" />
    <glyph glyph-name="Eogonek.ss01" horiz-adv-x="602" 
d="M453 -79v-23q0 -35 23.5 -49.5t69.5 -14.5l-1 -11q-89 0 -123.5 20t-34.5 65v30l85 62h-446v13l72 7v660l-72 7v13h542v-185h-13l-71 169h-257v-309h143l46 121h12v-258h-12l-46 121h-143v-343h263l68 175h13v-191h-67z" />
    <glyph glyph-name="Gcommaaccent.ss01" horiz-adv-x="723" 
d="M208 25.5q-79 41.5 -125.5 121t-46.5 188.5q0 167 99.5 266.5t277.5 114.5q129 0 225 -51v-175h-13l-71 150q-26 28 -60 44t-81 16q-69 0 -121 -44t-80.5 -123t-28.5 -183q0 -97 23.5 -176.5t72 -126.5t119.5 -47q39 0 70 14.5t49 37.5v243l-75 9v14h260v-14l-56 -9v-250
q-123 -55 -265 -61q-94 0 -173 41.5zM352 -179l38 63l-47 29v33h106v-59l-88 -70z" />
    <glyph glyph-name="Iogonek.ss01" horiz-adv-x="324" 
d="M227 680v-660l71 -7v-13h-120l-51 -79v-23q0 -35 23.5 -49.5t69.5 -14.5l-1 -11q-89 0 -123.5 20t-34.5 65v30l85 62h-120v13l72 7v660l-72 7v13h272v-13z" />
    <glyph glyph-name="Kcommaaccent.ss01" horiz-adv-x="708" 
d="M698 13v-13h-197l-274 350v-330l69 -7v-13h-270v13l72 7v660l-72 7v13h270v-13l-69 -7v-312l330 312l-90 8v12h200v-12l-87 -8l-325 -310l95 30l294 -380zM311 -54h106v-59l-88 -70l-9 4l38 63l-47 29v33z" />
    <glyph glyph-name="Lcommaaccent.ss01" horiz-adv-x="566" 
d="M26 13l72 7v660l-72 7v13h272v-13l-71 -7v-660h236l80 176h13v-196h-530v13zM260 -179l38 63l-47 29v33h106v-59l-88 -70z" />
    <glyph glyph-name="Ncommaaccent.ss01" horiz-adv-x="684" 
d="M115 660v-640l78 -7v-13h-167v13l72 7v660l-72 7v13h221l338 -521v501l-77 7v13h166v-13l-72 -7v-685h-61zM304 -179l38 63l-47 29v33h106v-59l-88 -70z" />
    <glyph glyph-name="Eng.ss01" horiz-adv-x="684" 
d="M376 -126l103 3l66 93l45 25h-49l-426 665v-640l78 -7v-13h-167v13l72 7v660l-72 7v13h221l338 -521v501l-77 7v13h166v-13l-72 -7v-685l-92 -171h-134v50z" />
    <glyph glyph-name="Rcommaaccent.ss01" horiz-adv-x="658" 
d="M653 13v-13h-179l-186 332h-61v-312l66 -7v-13h-267v13l72 7v660l-72 7v13h335q87 0 146.5 -42.5t59.5 -129.5t-73 -134.5t-200 -60.5l148 -31l167 -282zM388 394q40 46 40 126q0 77 -35.5 121.5t-91.5 45.5l-74 -7v-332h46q75 0 115 46zM307 -54h106v-59l-88 -70l-9 4
l38 63l-47 29v33z" />
    <glyph glyph-name="Scedilla.ss01" horiz-adv-x="532" 
d="M248 -15l-16 -23q33 -3 57.5 -17t24.5 -38t-23.5 -38.5t-64.5 -25.5l-79 -23h-31l29 35h84q12 7 18.5 16.5t6.5 19.5q0 16 -19 25t-51 10l48 58q-56 1 -100.5 15.5t-91.5 43.5v175h13l49 -120q35 -39 74 -62t85 -23q59 0 95 33t36 88q0 44 -24.5 77.5t-81.5 67.5l-126 80
q-58 35 -86 70t-28 92q0 74 56.5 124.5t174.5 70.5q57 0 100.5 -8.5t92.5 -29.5v-171h-12l-58 135q-55 53 -124 53q-55 0 -89 -30t-34 -80q0 -41 23.5 -69t73.5 -58l125 -78q63 -39 91.5 -79.5t28.5 -98.5q0 -158 -247 -217z" />
    <glyph glyph-name="Scommaaccent.ss01" horiz-adv-x="532" 
d="M136.5 -2q-47.5 14 -96.5 45v175h13l49 -120q35 -39 74 -62t85 -23q59 0 95 33t36 88q0 44 -24.5 77.5t-81.5 67.5l-126 80q-58 35 -86 70t-28 92q0 74 56.5 124.5t174.5 70.5q57 0 100.5 -8.5t92.5 -29.5v-171h-12l-58 135q-55 53 -124 53q-55 0 -89 -30t-34 -80
q0 -41 23.5 -69t73.5 -58l125 -78q63 -39 91.5 -79.5t28.5 -98.5q0 -159 -250 -218q-61 0 -108.5 14zM211 -179l38 63l-47 29v33h106v-59l-88 -70z" />
    <glyph glyph-name="uni0162.ss01" horiz-adv-x="576" 
d="M566 499h-13l-78 185h-122v-664l87 -7v-13h-145l-27 -38q33 -3 57.5 -17t24.5 -38t-23.5 -38.5t-64.5 -25.5l-79 -23h-31l29 35h84q12 7 18.5 16.5t6.5 19.5q0 16 -19 25t-51 10l61 74h-145v13l88 7v664h-123l-78 -185h-13v201h556v-201z" />
    <glyph glyph-name="uni021A.ss01" horiz-adv-x="576" 
d="M136 13l88 7v664h-123l-78 -185h-13v201h556v-201h-13l-78 185h-122v-664l87 -7v-13h-304v13zM247 -179l38 63l-47 29v33h106v-59l-88 -70z" />
    <glyph glyph-name="Uogonek.ss01" horiz-adv-x="662" 
d="M652 687l-72 -7v-444q0 -74 -25.5 -128t-88.5 -87l-65 -100v-23q0 -35 23.5 -49.5t69.5 -14.5l-1 -11q-89 0 -123.5 20t-34.5 65v30l89 65q-30 -11 -75 -19q-136 0 -202 69t-66 190v437l-71 7v13h271v-13l-71 -7v-447q0 -89 47.5 -147t131.5 -58q49 0 86.5 27t58.5 74
t21 104v447l-73 7v13h170v-13z" />
    <glyph glyph-name="Aacute.ss02" horiz-adv-x="699" 
d="M365 850h105l-121 -107h-21zM5 13l65 7l232 654l95 40l233 -694l64 -7v-13h-287v12l81 8l-74 229h-242l-79 -229l82 -8v-12h-170v13zM409 267l-111 343l-119 -343h230z" />
    <glyph glyph-name="Abreve.ss02" horiz-adv-x="699" 
d="M271.5 774q-37.5 31 -55.5 74l10 8q18 -24 50 -43.5t75 -19.5t71.5 18.5t50.5 45.5l10 -8q-16 -33 -42.5 -59t-77.5 -47q-54 0 -91.5 31zM5 13l65 7l232 654l95 40l233 -694l64 -7v-13h-287v12l81 8l-74 229h-242l-79 -229l82 -8v-12h-170v13zM409 267l-111 343
l-119 -343h230z" />
    <glyph glyph-name="Acircumflex.ss02" horiz-adv-x="699" 
d="M333 860h34l123 -120h-21l-119 63l-118 -63h-22zM5 13l65 7l232 654l95 40l233 -694l64 -7v-13h-287v12l81 8l-74 229h-242l-79 -229l82 -8v-12h-170v13zM409 267l-111 343l-119 -343h230z" />
    <glyph glyph-name="Adieresis.ss02" horiz-adv-x="699" 
d="M207 766l-4 47l8 38l58 5l23 -5l6 -45l-10 -40l-57 -5zM406 766l-5 47l9 38l57 5l23 -5l6 -45l-9 -40l-58 -5zM5 13l65 7l232 654l95 40l233 -694l64 -7v-13h-287v12l81 8l-74 229h-242l-79 -229l82 -8v-12h-170v13zM409 267l-111 343l-119 -343h230z" />
    <glyph glyph-name="Agrave.ss02" horiz-adv-x="699" 
d="M216 850h105l40 -107h-24zM5 13l65 7l232 654l95 40l233 -694l64 -7v-13h-287v12l81 8l-74 229h-242l-79 -229l82 -8v-12h-170v13zM409 267l-111 343l-119 -343h230z" />
    <glyph glyph-name="Amacron.ss02" horiz-adv-x="699" 
d="M206 825h288v-35h-288v35zM5 13l65 7l232 654l95 40l233 -694l64 -7v-13h-287v12l81 8l-74 229h-242l-79 -229l82 -8v-12h-170v13zM409 267l-111 343l-119 -343h230z" />
    <glyph glyph-name="Aring.ss02" horiz-adv-x="699" 
d="M292.5 731q-24.5 17 -24.5 52q0 31 20 45t61 27q35 0 58.5 -17t23.5 -53q0 -23 -10.5 -36t-25 -19.5t-45.5 -15.5q-33 0 -57.5 17zM386 748q15 14 15 36q0 21 -15 36t-37 15t-36.5 -15t-14.5 -36q0 -22 14.5 -36t36.5 -14t37 14zM5 13l65 7l232 654l95 40l233 -694l64 -7
v-13h-287v12l81 8l-74 229h-242l-79 -229l82 -8v-12h-170v13zM409 267l-111 343l-119 -343h230z" />
    <glyph glyph-name="Atilde.ss02" horiz-adv-x="699" 
d="M223 844l55 17l192 -64l37 66h10l-41 -100l-55 -16l-193 66l-36 -68h-10zM5 13l65 7l232 654l95 40l233 -694l64 -7v-13h-287v12l81 8l-74 229h-242l-79 -229l82 -8v-12h-170v13zM409 267l-111 343l-119 -343h230z" />
    <glyph glyph-name="AEacute.ss02" horiz-adv-x="970" 
d="M678 850h105l-121 -107h-21zM5 13l65 7l423 680h447v-185h-13l-71 169h-236v-339h121l46 122h13v-258h-13l-46 120h-121v-313h241l69 175h13v-191h-524v13l72 7v309h-205l-190 -309l82 -8v-12h-173v13zM491 345v321l-195 -321h195z" />
    <glyph glyph-name="Cacute.ss02" horiz-adv-x="684" 
d="M411 850h106l-122 -107h-21zM215.5 24.5q-81.5 40.5 -130.5 120t-49 190.5q0 168 99 266t272 115q71 0 125 -13t106 -38v-175h-13l-70 150q-28 29 -62 44.5t-82 15.5q-64 0 -116 -39t-82 -117.5t-30 -190.5q0 -99 25.5 -178t78.5 -125.5t132 -46.5q39 0 75.5 16t61.5 41
l70 161h12v-176q-61 -26 -114.5 -40t-128.5 -21q-98 0 -179.5 40.5z" />
    <glyph glyph-name="Ccaron.ss02" horiz-adv-x="684" 
d="M252 863h20l120 -66l119 66h21l-122 -120h-37zM215.5 24.5q-81.5 40.5 -130.5 120t-49 190.5q0 168 99 266t272 115q71 0 125 -13t106 -38v-175h-13l-70 150q-28 29 -62 44.5t-82 15.5q-64 0 -116 -39t-82 -117.5t-30 -190.5q0 -99 25.5 -178t78.5 -125.5t132 -46.5
q39 0 75.5 16t61.5 41l70 161h12v-176q-61 -26 -114.5 -40t-128.5 -21q-98 0 -179.5 40.5z" />
    <glyph glyph-name="Ccircumflex.ss02" horiz-adv-x="684" 
d="M375 860h34l123 -120h-21l-119 63l-118 -63h-22zM215.5 24.5q-81.5 40.5 -130.5 120t-49 190.5q0 168 99 266t272 115q71 0 125 -13t106 -38v-175h-13l-70 150q-28 29 -62 44.5t-82 15.5q-64 0 -116 -39t-82 -117.5t-30 -190.5q0 -99 25.5 -178t78.5 -125.5t132 -46.5
q39 0 75.5 16t61.5 41l70 161h12v-176q-61 -26 -114.5 -40t-128.5 -21q-98 0 -179.5 40.5z" />
    <glyph glyph-name="Cdotaccent.ss02" horiz-adv-x="684" 
d="M347 761l-5 49l9 41l61 5l24 -5l6 -48l-10 -42l-61 -5zM215.5 24.5q-81.5 40.5 -130.5 120t-49 190.5q0 168 99 266t272 115q71 0 125 -13t106 -38v-175h-13l-70 150q-28 29 -62 44.5t-82 15.5q-64 0 -116 -39t-82 -117.5t-30 -190.5q0 -99 25.5 -178t78.5 -125.5
t132 -46.5q39 0 75.5 16t61.5 41l70 161h12v-176q-61 -26 -114.5 -40t-128.5 -21q-98 0 -179.5 40.5z" />
    <glyph glyph-name="Dcaron.ss02" horiz-adv-x="725" 
d="M186 863h20l120 -66l119 66h21l-122 -120h-37zM26 13l78 7v660l-78 7v13h323q106 0 182.5 -40t117 -115.5t40.5 -179.5q0 -160 -86.5 -258.5t-254.5 -106.5h-322v13zM447 56.5q49 43.5 76 122t27 181.5q0 150 -55.5 238.5t-169.5 88.5l-92 -7v-660l101 -7q64 0 113 43.5z
" />
    <glyph glyph-name="Eacute.ss02" horiz-adv-x="602" 
d="M336 850h105l-121 -107h-21zM26 13l72 7v660l-72 7v13h542v-185h-13l-71 169h-257v-309h143l46 121h12v-258h-12l-46 121h-143v-343h263l68 175h13v-191h-545v13z" />
    <glyph glyph-name="Ebreve.ss02" horiz-adv-x="602" 
d="M242.5 774q-37.5 31 -55.5 74l10 8q18 -24 50 -43.5t75 -19.5t71.5 18.5t50.5 45.5l10 -8q-16 -33 -42.5 -59t-77.5 -47q-54 0 -91.5 31zM26 13l72 7v660l-72 7v13h542v-185h-13l-71 169h-257v-309h143l46 121h12v-258h-12l-46 121h-143v-343h263l68 175h13v-191h-545v13
z" />
    <glyph glyph-name="Ecaron.ss02" horiz-adv-x="602" 
d="M181 863h20l120 -66l119 66h21l-122 -120h-37zM26 13l72 7v660l-72 7v13h542v-185h-13l-71 169h-257v-309h143l46 121h12v-258h-12l-46 121h-143v-343h263l68 175h13v-191h-545v13z" />
    <glyph glyph-name="Ecircumflex.ss02" horiz-adv-x="602" 
d="M304 860h34l123 -120h-21l-119 63l-118 -63h-22zM26 13l72 7v660l-72 7v13h542v-185h-13l-71 169h-257v-309h143l46 121h12v-258h-12l-46 121h-143v-343h263l68 175h13v-191h-545v13z" />
    <glyph glyph-name="Edieresis.ss02" horiz-adv-x="602" 
d="M178 766l-4 47l8 38l58 5l23 -5l6 -45l-10 -40l-57 -5zM377 766l-5 47l9 38l57 5l23 -5l6 -45l-9 -40l-58 -5zM26 13l72 7v660l-72 7v13h542v-185h-13l-71 169h-257v-309h143l46 121h12v-258h-12l-46 121h-143v-343h263l68 175h13v-191h-545v13z" />
    <glyph glyph-name="Edotaccent.ss02" horiz-adv-x="602" 
d="M276 761l-5 49l9 41l61 5l24 -5l6 -48l-10 -42l-61 -5zM26 13l72 7v660l-72 7v13h542v-185h-13l-71 169h-257v-309h143l46 121h12v-258h-12l-46 121h-143v-343h263l68 175h13v-191h-545v13z" />
    <glyph glyph-name="Egrave.ss02" horiz-adv-x="602" 
d="M187 850h105l40 -107h-24zM26 13l72 7v660l-72 7v13h542v-185h-13l-71 169h-257v-309h143l46 121h12v-258h-12l-46 121h-143v-343h263l68 175h13v-191h-545v13z" />
    <glyph glyph-name="Emacron.ss02" horiz-adv-x="602" 
d="M177 825h288v-35h-288v35zM26 13l72 7v660l-72 7v13h542v-185h-13l-71 169h-257v-309h143l46 121h12v-258h-12l-46 121h-143v-343h263l68 175h13v-191h-545v13z" />
    <glyph glyph-name="Gbreve.ss02" horiz-adv-x="723" 
d="M328.5 774q-37.5 31 -55.5 74l10 8q18 -24 50 -43.5t75 -19.5t71.5 18.5t50.5 45.5l10 -8q-16 -33 -42.5 -59t-77.5 -47q-54 0 -91.5 31zM208 25.5q-79 41.5 -125.5 121t-46.5 188.5q0 167 99.5 266.5t277.5 114.5q129 0 225 -51v-175h-13l-71 150q-26 28 -60 44t-81 16
q-69 0 -121 -44t-80.5 -123t-28.5 -183q0 -97 23.5 -176.5t72 -126.5t119.5 -47q39 0 70 14.5t49 37.5v243l-75 9v14h260v-14l-56 -9v-250q-123 -55 -265 -61q-94 0 -173 41.5z" />
    <glyph glyph-name="Gcircumflex.ss02" horiz-adv-x="723" 
d="M390 860h34l123 -120h-21l-119 63l-118 -63h-22zM208 25.5q-79 41.5 -125.5 121t-46.5 188.5q0 167 99.5 266.5t277.5 114.5q129 0 225 -51v-175h-13l-71 150q-26 28 -60 44t-81 16q-69 0 -121 -44t-80.5 -123t-28.5 -183q0 -97 23.5 -176.5t72 -126.5t119.5 -47
q39 0 70 14.5t49 37.5v243l-75 9v14h260v-14l-56 -9v-250q-123 -55 -265 -61q-94 0 -173 41.5z" />
    <glyph glyph-name="Gdotaccent.ss02" horiz-adv-x="723" 
d="M362 761l-5 49l9 41l61 5l24 -5l6 -48l-10 -42l-61 -5zM208 25.5q-79 41.5 -125.5 121t-46.5 188.5q0 167 99.5 266.5t277.5 114.5q129 0 225 -51v-175h-13l-71 150q-26 28 -60 44t-81 16q-69 0 -121 -44t-80.5 -123t-28.5 -183q0 -97 23.5 -176.5t72 -126.5t119.5 -47
q39 0 70 14.5t49 37.5v243l-75 9v14h260v-14l-56 -9v-250q-123 -55 -265 -61q-94 0 -173 41.5z" />
    <glyph glyph-name="Hcircumflex.ss02" horiz-adv-x="738" 
d="M352 860h34l123 -120h-21l-119 63l-118 -63h-22zM26 13l72 7v660l-72 7v13h270v-13l-69 -7v-307h284v307l-69 7v13h270v-13l-72 -7v-660l72 -7v-13h-270v13l69 7v335h-284v-335l69 -7v-13h-270v13z" />
    <glyph glyph-name="Iacute.ss02" horiz-adv-x="324" 
d="M177 850h105l-121 -107h-21zM26 13l72 7v660l-72 7v13h272v-13l-71 -7v-660l71 -7v-13h-272v13z" />
    <glyph glyph-name="Ibreve.ss02" horiz-adv-x="324" 
d="M83.5 774q-37.5 31 -55.5 74l10 8q18 -24 50 -43.5t75 -19.5t71.5 18.5t50.5 45.5l10 -8q-16 -33 -42.5 -59t-77.5 -47q-54 0 -91.5 31zM26 13l72 7v660l-72 7v13h272v-13l-71 -7v-660l71 -7v-13h-272v13z" />
    <glyph glyph-name="Icircumflex.ss02" horiz-adv-x="324" 
d="M145 860h34l123 -120h-21l-119 63l-118 -63h-22zM26 13l72 7v660l-72 7v13h272v-13l-71 -7v-660l71 -7v-13h-272v13z" />
    <glyph glyph-name="Idieresis.ss02" horiz-adv-x="324" 
d="M19 766l-4 47l8 38l58 5l23 -5l6 -45l-10 -40l-57 -5zM218 766l-5 47l9 38l57 5l23 -5l6 -45l-9 -40l-58 -5zM26 13l72 7v660l-72 7v13h272v-13l-71 -7v-660l71 -7v-13h-272v13z" />
    <glyph glyph-name="Idotaccent.ss02" horiz-adv-x="324" 
d="M117 761l-5 49l9 41l61 5l24 -5l6 -48l-10 -42l-61 -5zM26 13l72 7v660l-72 7v13h272v-13l-71 -7v-660l71 -7v-13h-272v13z" />
    <glyph glyph-name="Igrave.ss02" horiz-adv-x="324" 
d="M28 850h105l40 -107h-24zM26 13l72 7v660l-72 7v13h272v-13l-71 -7v-660l71 -7v-13h-272v13z" />
    <glyph glyph-name="Imacron.ss02" horiz-adv-x="324" 
d="M18 825h288v-35h-288v35zM26 13l72 7v660l-72 7v13h272v-13l-71 -7v-660l71 -7v-13h-272v13z" />
    <glyph glyph-name="Itilde.ss02" horiz-adv-x="324" 
d="M35 844l55 17l192 -64l37 66h10l-41 -100l-55 -16l-193 66l-36 -68h-10zM26 13l72 7v660l-72 7v13h272v-13l-71 -7v-660l71 -7v-13h-272v13z" />
    <glyph glyph-name="Jcircumflex.ss02" horiz-adv-x="343" 
d="M155 860h34l123 -120h-21l-119 63l-118 -63h-22zM2 -72h111l3 24q5 38 5 139v589l-93 7v13h293v-13l-71 -7v-548q0 -67 -25 -116t-68 -95l-87 -96h-68v103z" />
    <glyph glyph-name="Lacute.ss02" horiz-adv-x="566" 
d="M186 850h105l-121 -107h-21zM26 13l72 7v660l-72 7v13h272v-13l-71 -7v-660h236l80 176h13v-196h-530v13z" />
    <glyph glyph-name="Nacute.ss02" horiz-adv-x="684" 
d="M376 850h105l-121 -107h-21zM115 660v-640l78 -7v-13h-167v13l72 7v660l-72 7v13h221l338 -521v501l-77 7v13h166v-13l-72 -7v-685h-61z" />
    <glyph glyph-name="Ncaron.ss02" horiz-adv-x="684" 
d="M221 863h20l120 -66l119 66h21l-122 -120h-37zM115 660v-640l78 -7v-13h-167v13l72 7v660l-72 7v13h221l338 -521v501l-77 7v13h166v-13l-72 -7v-685h-61z" />
    <glyph glyph-name="Ntilde.ss02" horiz-adv-x="684" 
d="M234 844l55 17l192 -64l37 66h10l-41 -100l-55 -16l-193 66l-36 -68h-10zM115 660v-640l78 -7v-13h-167v13l72 7v660l-72 7v13h221l338 -521v501l-77 7v13h166v-13l-72 -7v-685h-61z" />
    <glyph glyph-name="Oacute.ss02" horiz-adv-x="765" 
d="M401 850h105l-121 -107h-21zM196.5 29.5q-76.5 45.5 -118.5 125.5t-42 181q0 160 88 254.5t269 125.5q99 0 175.5 -45.5t118.5 -125.5t42 -181q0 -160 -88 -254.5t-269 -125.5q-99 0 -175.5 45.5zM500.5 51q40.5 43 61 116t20.5 163q0 104 -28.5 186.5t-78.5 129
t-113 46.5q-56 0 -96.5 -43t-61.5 -116t-21 -163q0 -104 28.5 -186.5t78.5 -129t113 -46.5q57 0 97.5 43z" />
    <glyph glyph-name="Obreve.ss02" horiz-adv-x="765" 
d="M307.5 774q-37.5 31 -55.5 74l10 8q18 -24 50 -43.5t75 -19.5t71.5 18.5t50.5 45.5l10 -8q-16 -33 -42.5 -59t-77.5 -47q-54 0 -91.5 31zM196.5 29.5q-76.5 45.5 -118.5 125.5t-42 181q0 160 88 254.5t269 125.5q99 0 175.5 -45.5t118.5 -125.5t42 -181
q0 -160 -88 -254.5t-269 -125.5q-99 0 -175.5 45.5zM500.5 51q40.5 43 61 116t20.5 163q0 104 -28.5 186.5t-78.5 129t-113 46.5q-56 0 -96.5 -43t-61.5 -116t-21 -163q0 -104 28.5 -186.5t78.5 -129t113 -46.5q57 0 97.5 43z" />
    <glyph glyph-name="Ocircumflex.ss02" horiz-adv-x="765" 
d="M369 860h34l123 -120h-21l-119 63l-118 -63h-22zM196.5 29.5q-76.5 45.5 -118.5 125.5t-42 181q0 160 88 254.5t269 125.5q99 0 175.5 -45.5t118.5 -125.5t42 -181q0 -160 -88 -254.5t-269 -125.5q-99 0 -175.5 45.5zM500.5 51q40.5 43 61 116t20.5 163
q0 104 -28.5 186.5t-78.5 129t-113 46.5q-56 0 -96.5 -43t-61.5 -116t-21 -163q0 -104 28.5 -186.5t78.5 -129t113 -46.5q57 0 97.5 43z" />
    <glyph glyph-name="Odieresis.ss02" horiz-adv-x="765" 
d="M243 766l-4 47l8 38l58 5l23 -5l6 -45l-10 -40l-57 -5zM442 766l-5 47l9 38l57 5l23 -5l6 -45l-9 -40l-58 -5zM196.5 29.5q-76.5 45.5 -118.5 125.5t-42 181q0 160 88 254.5t269 125.5q99 0 175.5 -45.5t118.5 -125.5t42 -181q0 -160 -88 -254.5t-269 -125.5
q-99 0 -175.5 45.5zM500.5 51q40.5 43 61 116t20.5 163q0 104 -28.5 186.5t-78.5 129t-113 46.5q-56 0 -96.5 -43t-61.5 -116t-21 -163q0 -104 28.5 -186.5t78.5 -129t113 -46.5q57 0 97.5 43z" />
    <glyph glyph-name="Ograve.ss02" horiz-adv-x="765" 
d="M252 850h105l40 -107h-24zM196.5 29.5q-76.5 45.5 -118.5 125.5t-42 181q0 160 88 254.5t269 125.5q99 0 175.5 -45.5t118.5 -125.5t42 -181q0 -160 -88 -254.5t-269 -125.5q-99 0 -175.5 45.5zM500.5 51q40.5 43 61 116t20.5 163q0 104 -28.5 186.5t-78.5 129t-113 46.5
q-56 0 -96.5 -43t-61.5 -116t-21 -163q0 -104 28.5 -186.5t78.5 -129t113 -46.5q57 0 97.5 43z" />
    <glyph glyph-name="Ohungarumlaut.ss02" horiz-adv-x="765" 
d="M342 850h112l-149 -100h-23zM512 850h112l-149 -100h-23zM196.5 29.5q-76.5 45.5 -118.5 125.5t-42 181q0 160 88 254.5t269 125.5q99 0 175.5 -45.5t118.5 -125.5t42 -181q0 -160 -88 -254.5t-269 -125.5q-99 0 -175.5 45.5zM500.5 51q40.5 43 61 116t20.5 163
q0 104 -28.5 186.5t-78.5 129t-113 46.5q-56 0 -96.5 -43t-61.5 -116t-21 -163q0 -104 28.5 -186.5t78.5 -129t113 -46.5q57 0 97.5 43z" />
    <glyph glyph-name="Omacron.ss02" horiz-adv-x="765" 
d="M242 825h288v-35h-288v35zM196.5 29.5q-76.5 45.5 -118.5 125.5t-42 181q0 160 88 254.5t269 125.5q99 0 175.5 -45.5t118.5 -125.5t42 -181q0 -160 -88 -254.5t-269 -125.5q-99 0 -175.5 45.5zM500.5 51q40.5 43 61 116t20.5 163q0 104 -28.5 186.5t-78.5 129t-113 46.5
q-56 0 -96.5 -43t-61.5 -116t-21 -163q0 -104 28.5 -186.5t78.5 -129t113 -46.5q57 0 97.5 43z" />
    <glyph glyph-name="Oslashacute.ss02" horiz-adv-x="765" 
d="M382 743h-21l37 107h105zM702.5 511q26.5 -67 26.5 -147q0 -160 -88 -254.5t-269 -125.5q-121 0 -208 68l-54 -67h-25l64 79q-54 48 -83.5 118t-29.5 154q0 160 88 254.5t269 125.5q65 0 120.5 -20t99.5 -58l62 77h24l-72 -89q49 -48 75.5 -115zM222 155l319 394
q-30 68 -76 105.5t-103 37.5q-56 0 -96.5 -43t-61.5 -116t-21 -163q0 -123 39 -215zM500.5 51q40.5 43 61 116t20.5 163q0 111 -33 199l-318 -394q30 -60 74.5 -93.5t97.5 -33.5q57 0 97.5 43z" />
    <glyph glyph-name="Otilde.ss02" horiz-adv-x="765" 
d="M259 844l55 17l192 -64l37 66h10l-41 -100l-55 -16l-193 66l-36 -68h-10zM196.5 29.5q-76.5 45.5 -118.5 125.5t-42 181q0 160 88 254.5t269 125.5q99 0 175.5 -45.5t118.5 -125.5t42 -181q0 -160 -88 -254.5t-269 -125.5q-99 0 -175.5 45.5zM500.5 51q40.5 43 61 116
t20.5 163q0 104 -28.5 186.5t-78.5 129t-113 46.5q-56 0 -96.5 -43t-61.5 -116t-21 -163q0 -104 28.5 -186.5t78.5 -129t113 -46.5q57 0 97.5 43z" />
    <glyph glyph-name="Racute.ss02" horiz-adv-x="658" 
d="M302 743h-21l37 107h105zM653 13v-13h-179l-186 332h-61v-312l66 -7v-13h-267v13l72 7v660l-72 7v13h335q87 0 146.5 -42.5t59.5 -129.5t-73 -134.5t-200 -60.5l148 -31l167 -282zM388 394q40 46 40 126q0 77 -35.5 121.5t-91.5 45.5l-74 -7v-332h46q75 0 115 46z" />
    <glyph glyph-name="Rcaron.ss02" horiz-adv-x="658" 
d="M284 743l-121 120h20l120 -66l119 66h21l-122 -120h-37zM653 13v-13h-179l-186 332h-61v-312l66 -7v-13h-267v13l72 7v660l-72 7v13h335q87 0 146.5 -42.5t59.5 -129.5t-73 -134.5t-200 -60.5l148 -31l167 -282zM388 394q40 46 40 126q0 77 -35.5 121.5t-91.5 45.5
l-74 -7v-332h46q75 0 115 46z" />
    <glyph glyph-name="Sacute.ss02" horiz-adv-x="532" 
d="M294 850h105l-121 -107h-21zM136.5 -2q-47.5 14 -96.5 45v175h13l49 -120q35 -39 74 -62t85 -23q59 0 95 33t36 88q0 44 -24.5 77.5t-81.5 67.5l-126 80q-58 35 -86 70t-28 92q0 74 56.5 124.5t174.5 70.5q57 0 100.5 -8.5t92.5 -29.5v-171h-12l-58 135q-55 53 -124 53
q-55 0 -89 -30t-34 -80q0 -41 23.5 -69t73.5 -58l125 -78q63 -39 91.5 -79.5t28.5 -98.5q0 -159 -250 -218q-61 0 -108.5 14z" />
    <glyph glyph-name="Scaron.ss02" horiz-adv-x="532" 
d="M139 863h20l120 -66l119 66h21l-122 -120h-37zM136.5 -2q-47.5 14 -96.5 45v175h13l49 -120q35 -39 74 -62t85 -23q59 0 95 33t36 88q0 44 -24.5 77.5t-81.5 67.5l-126 80q-58 35 -86 70t-28 92q0 74 56.5 124.5t174.5 70.5q57 0 100.5 -8.5t92.5 -29.5v-171h-12l-58 135
q-55 53 -124 53q-55 0 -89 -30t-34 -80q0 -41 23.5 -69t73.5 -58l125 -78q63 -39 91.5 -79.5t28.5 -98.5q0 -159 -250 -218q-61 0 -108.5 14z" />
    <glyph glyph-name="Scircumflex.ss02" horiz-adv-x="532" 
d="M262 860h34l123 -120h-21l-119 63l-118 -63h-22zM136.5 -2q-47.5 14 -96.5 45v175h13l49 -120q35 -39 74 -62t85 -23q59 0 95 33t36 88q0 44 -24.5 77.5t-81.5 67.5l-126 80q-58 35 -86 70t-28 92q0 74 56.5 124.5t174.5 70.5q57 0 100.5 -8.5t92.5 -29.5v-171h-12
l-58 135q-55 53 -124 53q-55 0 -89 -30t-34 -80q0 -41 23.5 -69t73.5 -58l125 -78q63 -39 91.5 -79.5t28.5 -98.5q0 -159 -250 -218q-61 0 -108.5 14z" />
    <glyph glyph-name="Tcaron.ss02" horiz-adv-x="576" 
d="M148 863h20l120 -66l119 66h21l-122 -120h-37zM136 13l88 7v664h-123l-78 -185h-13v201h556v-201h-13l-78 185h-122v-664l87 -7v-13h-304v13z" />
    <glyph glyph-name="Uacute.ss02" horiz-adv-x="662" 
d="M385 850h105l-121 -107h-21zM147 53q-66 69 -66 190v437l-71 7v13h271v-13l-71 -7v-447q0 -89 47.5 -147t131.5 -58q49 0 86.5 27t58.5 74t21 104v447l-73 7v13h170v-13l-72 -7v-444q0 -102 -50 -165.5t-181 -86.5q-136 0 -202 69z" />
    <glyph glyph-name="Ubreve.ss02" horiz-adv-x="662" 
d="M291.5 774q-37.5 31 -55.5 74l10 8q18 -24 50 -43.5t75 -19.5t71.5 18.5t50.5 45.5l10 -8q-16 -33 -42.5 -59t-77.5 -47q-54 0 -91.5 31zM147 53q-66 69 -66 190v437l-71 7v13h271v-13l-71 -7v-447q0 -89 47.5 -147t131.5 -58q49 0 86.5 27t58.5 74t21 104v447l-73 7v13
h170v-13l-72 -7v-444q0 -102 -50 -165.5t-181 -86.5q-136 0 -202 69z" />
    <glyph glyph-name="Ucircumflex.ss02" horiz-adv-x="662" 
d="M353 860h34l123 -120h-21l-119 63l-118 -63h-22zM147 53q-66 69 -66 190v437l-71 7v13h271v-13l-71 -7v-447q0 -89 47.5 -147t131.5 -58q49 0 86.5 27t58.5 74t21 104v447l-73 7v13h170v-13l-72 -7v-444q0 -102 -50 -165.5t-181 -86.5q-136 0 -202 69z" />
    <glyph glyph-name="Udieresis.ss02" horiz-adv-x="662" 
d="M227 766l-4 47l8 38l58 5l23 -5l6 -45l-10 -40l-57 -5zM426 766l-5 47l9 38l57 5l23 -5l6 -45l-9 -40l-58 -5zM147 53q-66 69 -66 190v437l-71 7v13h271v-13l-71 -7v-447q0 -89 47.5 -147t131.5 -58q49 0 86.5 27t58.5 74t21 104v447l-73 7v13h170v-13l-72 -7v-444
q0 -102 -50 -165.5t-181 -86.5q-136 0 -202 69z" />
    <glyph glyph-name="Ugrave.ss02" horiz-adv-x="662" 
d="M236 850h105l40 -107h-24zM147 53q-66 69 -66 190v437l-71 7v13h271v-13l-71 -7v-447q0 -89 47.5 -147t131.5 -58q49 0 86.5 27t58.5 74t21 104v447l-73 7v13h170v-13l-72 -7v-444q0 -102 -50 -165.5t-181 -86.5q-136 0 -202 69z" />
    <glyph glyph-name="Uhungarumlaut.ss02" horiz-adv-x="662" 
d="M326 850h112l-149 -100h-23zM496 850h112l-149 -100h-23zM147 53q-66 69 -66 190v437l-71 7v13h271v-13l-71 -7v-447q0 -89 47.5 -147t131.5 -58q49 0 86.5 27t58.5 74t21 104v447l-73 7v13h170v-13l-72 -7v-444q0 -102 -50 -165.5t-181 -86.5q-136 0 -202 69z" />
    <glyph glyph-name="Umacron.ss02" horiz-adv-x="662" 
d="M226 825h288v-35h-288v35zM147 53q-66 69 -66 190v437l-71 7v13h271v-13l-71 -7v-447q0 -89 47.5 -147t131.5 -58q49 0 86.5 27t58.5 74t21 104v447l-73 7v13h170v-13l-72 -7v-444q0 -102 -50 -165.5t-181 -86.5q-136 0 -202 69z" />
    <glyph glyph-name="Uring.ss02" horiz-adv-x="662" 
d="M312.5 731q-24.5 17 -24.5 52q0 31 20 45t61 27q35 0 58.5 -17t23.5 -53q0 -23 -10.5 -36t-25 -19.5t-45.5 -15.5q-33 0 -57.5 17zM406 748q15 14 15 36q0 21 -15 36t-37 15t-36.5 -15t-14.5 -36q0 -22 14.5 -36t36.5 -14t37 14zM147 53q-66 69 -66 190v437l-71 7v13h271
v-13l-71 -7v-447q0 -89 47.5 -147t131.5 -58q49 0 86.5 27t58.5 74t21 104v447l-73 7v13h170v-13l-72 -7v-444q0 -102 -50 -165.5t-181 -86.5q-136 0 -202 69z" />
    <glyph glyph-name="Utilde.ss02" horiz-adv-x="662" 
d="M243 844l55 17l192 -64l37 66h10l-41 -100l-55 -16l-193 66l-36 -68h-10zM147 53q-66 69 -66 190v437l-71 7v13h271v-13l-71 -7v-447q0 -89 47.5 -147t131.5 -58q49 0 86.5 27t58.5 74t21 104v447l-73 7v13h170v-13l-72 -7v-444q0 -102 -50 -165.5t-181 -86.5
q-136 0 -202 69z" />
    <glyph glyph-name="Wacute.ss02" horiz-adv-x="1019" 
d="M525 850h105l-121 -107h-21zM67 680l-57 7v13h275v-13l-78 -7l173 -551l114 384l-55 167l-56 7v13h274v-13l-77 -7l172 -551l171 551l-83 7v13h169v-13l-64 -7l-209 -671l-72 -17l-160 488l-140 -471l-72 -17z" />
    <glyph glyph-name="Wcircumflex.ss02" horiz-adv-x="1019" 
d="M493 860h34l123 -120h-21l-119 63l-118 -63h-22zM67 680l-57 7v13h275v-13l-78 -7l173 -551l114 384l-55 167l-56 7v13h274v-13l-77 -7l172 -551l171 551l-83 7v13h169v-13l-64 -7l-209 -671l-72 -17l-160 488l-140 -471l-72 -17z" />
    <glyph glyph-name="Wdieresis.ss02" horiz-adv-x="1019" 
d="M367 766l-4 47l8 38l58 5l23 -5l6 -45l-10 -40l-57 -5zM566 766l-5 47l9 38l57 5l23 -5l6 -45l-9 -40l-58 -5zM67 680l-57 7v13h275v-13l-78 -7l173 -551l114 384l-55 167l-56 7v13h274v-13l-77 -7l172 -551l171 551l-83 7v13h169v-13l-64 -7l-209 -671l-72 -17l-160 488
l-140 -471l-72 -17z" />
    <glyph glyph-name="Wgrave.ss02" horiz-adv-x="1019" 
d="M376 850h105l40 -107h-24zM67 680l-57 7v13h275v-13l-78 -7l173 -551l114 384l-55 167l-56 7v13h274v-13l-77 -7l172 -551l171 551l-83 7v13h169v-13l-64 -7l-209 -671l-72 -17l-160 488l-140 -471l-72 -17z" />
    <glyph glyph-name="Yacute.ss02" horiz-adv-x="693" 
d="M412 850h105l-121 -107h-21zM188 13l103 7v253l-218 407l-68 7v13h300v-13l-83 -7l190 -369l190 369l-91 7v13h177v-13l-67 -7l-201 -394v-266l102 -7v-13h-334v13z" />
    <glyph glyph-name="Ycircumflex.ss02" horiz-adv-x="693" 
d="M380 860h34l123 -120h-21l-119 63l-118 -63h-22zM188 13l103 7v253l-218 407l-68 7v13h300v-13l-83 -7l190 -369l190 369l-91 7v13h177v-13l-67 -7l-201 -394v-266l102 -7v-13h-334v13z" />
    <glyph glyph-name="Ydieresis.ss02" horiz-adv-x="693" 
d="M254 766l-4 47l8 38l58 5l23 -5l6 -45l-10 -40l-57 -5zM453 766l-5 47l9 38l57 5l23 -5l6 -45l-9 -40l-58 -5zM188 13l103 7v253l-218 407l-68 7v13h300v-13l-83 -7l190 -369l190 369l-91 7v13h177v-13l-67 -7l-201 -394v-266l102 -7v-13h-334v13z" />
    <glyph glyph-name="Ygrave.ss02" horiz-adv-x="693" 
d="M263 850h105l40 -107h-24zM188 13l103 7v253l-218 407l-68 7v13h300v-13l-83 -7l190 -369l190 369l-91 7v13h177v-13l-67 -7l-201 -394v-266l102 -7v-13h-334v13z" />
    <glyph glyph-name="Zacute.ss02" horiz-adv-x="576" 
d="M303 850h105l-121 -107h-21zM16 9l387 675h-260l-86 -183h-13v199h510v-9l-385 -675h262l94 187h11v-203h-520v9z" />
    <glyph glyph-name="Zcaron.ss02" horiz-adv-x="576" 
d="M148 863h20l120 -66l119 66h21l-122 -120h-37zM16 9l387 675h-260l-86 -183h-13v199h510v-9l-385 -675h262l94 187h11v-203h-520v9z" />
    <glyph glyph-name="Zdotaccent.ss02" horiz-adv-x="576" 
d="M243 761l-5 49l9 41l61 5l24 -5l6 -48l-10 -42l-61 -5zM16 9l387 675h-260l-86 -183h-13v199h510v-9l-385 -675h262l94 187h11v-203h-520v9z" />
    <glyph glyph-name="aogonek.ss01" horiz-adv-x="491" 
d="M320.5 -151.5q23.5 -14.5 69.5 -14.5l-1 -11q-89 0 -123.5 20t-34.5 65v30l92 67l-20 72l-137 -92q-61 0 -99.5 31.5t-38.5 89.5q0 66 54 106l219 68v78q0 33 -4 52t-20.5 30t-50.5 11q-13 0 -24.5 -2t-27.5 -7l-22 -121h-107v81l197 83q66 0 104.5 -14t56 -46t17.5 -88
v-218q0 -41 15 -89l50 6l1 -12l-140 -28l-49 -75v-23q0 -35 23.5 -49.5zM301 268l-107 -41q-43 -36 -43 -92q0 -39 17.5 -62t45.5 -23q16 0 33.5 7.5t31.5 17.5l22 15v178z" />
    <glyph glyph-name="ccedilla.ss01" horiz-adv-x="449" 
d="M300.5 -55q24.5 -14 24.5 -38t-23.5 -38.5t-64.5 -25.5l-79 -23h-31l29 35h84q12 7 18.5 16.5t6.5 19.5q0 16 -19 25t-51 10l49 59q-61 4 -109.5 32.5t-76 79.5t-27.5 118q0 76 33.5 133t89 91t122.5 46q32 0 72 -15.5t68 -37.5v-100h-93l-37 124q-14 6 -32 6
q-51 0 -85 -42.5t-34 -131.5q0 -61 21.5 -110.5t59.5 -77.5t88 -28q33 0 59.5 9.5t56.5 30.5l4 -8q-40 -39 -78 -66t-86 -52l-17 -24q33 -3 57.5 -17z" />
    <glyph glyph-name="eogonek.ss01" horiz-adv-x="474" 
d="M268.5 -151.5q23.5 -14.5 69.5 -14.5l-1 -11q-89 0 -123.5 20t-34.5 65v30l65 48q-59 4 -107.5 32t-77 78t-28.5 118q0 111 65 180t166 91q82 0 129.5 -47.5t47.5 -133.5v-32h-304q4 -90 52.5 -143t125.5 -53q32 0 61 10t60 29l7 -9q-39 -37 -71.5 -60.5t-72.5 -43.5
l-52 -81v-23q0 -35 23.5 -49.5zM159.5 414.5q-24.5 -43.5 -24.5 -129.5h181v29q0 71 -18 107.5t-66 36.5t-72.5 -43.5z" />
    <glyph glyph-name="g.ss01" horiz-adv-x="514" 
d="M72 -157q-54 24 -54 82v17l115 78q-48 8 -71 33t-23 64v6l99 77q-45 17 -71 50t-26 76q0 59 50 97t151 61q64 0 111 -26t62 -68l47 94h47v-106h-89l-3 -4q6 -20 6 -32q0 -57 -49.5 -95t-149.5 -62q-34 0 -71 10l-33 -34q0 -23 16 -34.5t42 -11.5h188q52 0 83 -26.5
t31 -71.5q0 -61 -68 -115t-183 -83q-103 0 -157 24zM310 325q0 139 -85 139q-70 0 -70 -120q0 -139 84 -139q71 0 71 120zM373.5 -96.5q46.5 25.5 46.5 64.5q0 25 -17 37.5t-56 12.5h-200q-21 -17 -28.5 -34.5t-7.5 -38.5q0 -32 32.5 -49.5t98.5 -17.5q85 0 131.5 25.5z" />
    <glyph glyph-name="gbreve.ss01" horiz-adv-x="514" 
d="M72 -157q-54 24 -54 82v17l115 78q-48 8 -71 33t-23 64v6l99 77q-45 17 -71 50t-26 76q0 59 50 97t151 61q64 0 111 -26t62 -68l47 94h47v-106h-89l-3 -4q6 -20 6 -32q0 -57 -49.5 -95t-149.5 -62q-34 0 -71 10l-33 -34q0 -23 16 -34.5t42 -11.5h188q52 0 83 -26.5
t31 -71.5q0 -61 -68 -115t-183 -83q-103 0 -157 24zM310 325q0 139 -85 139q-70 0 -70 -120q0 -139 84 -139q71 0 71 120zM373.5 -96.5q46.5 25.5 46.5 64.5q0 25 -17 37.5t-56 12.5h-200q-21 -17 -28.5 -34.5t-7.5 -38.5q0 -32 32.5 -49.5t98.5 -17.5q85 0 131.5 25.5z
M165.5 603q-41.5 38 -60.5 92l10 8q20 -28 55 -50.5t84 -22.5q46 0 76.5 21t55.5 52l10 -8q-15 -38 -44.5 -70t-85.5 -60q-59 0 -100.5 38z" />
    <glyph glyph-name="gcircumflex.ss01" horiz-adv-x="514" 
d="M72 -157q-54 24 -54 82v17l115 78q-48 8 -71 33t-23 64v6l99 77q-45 17 -71 50t-26 76q0 59 50 97t151 61q64 0 111 -26t62 -68l47 94h47v-106h-89l-3 -4q6 -20 6 -32q0 -57 -49.5 -95t-149.5 -62q-34 0 -71 10l-33 -34q0 -23 16 -34.5t42 -11.5h188q52 0 83 -26.5
t31 -71.5q0 -61 -68 -115t-183 -83q-103 0 -157 24zM310 325q0 139 -85 139q-70 0 -70 -120q0 -139 84 -139q71 0 71 120zM373.5 -96.5q46.5 25.5 46.5 64.5q0 25 -17 37.5t-56 12.5h-200q-21 -17 -28.5 -34.5t-7.5 -38.5q0 -32 32.5 -49.5t98.5 -17.5q85 0 131.5 25.5z
M238 710h38l123 -161h-25l-117 91l-117 -91h-25z" />
    <glyph glyph-name="gcommaaccent.ss01" horiz-adv-x="514" 
d="M72 -157q-54 24 -54 82v17l115 78q-48 8 -71 33t-23 64v6l99 77q-45 17 -71 50t-26 76q0 59 50 97t151 61q64 0 111 -26t62 -68l47 94h47v-106h-89l-3 -4q6 -20 6 -32q0 -57 -49.5 -95t-149.5 -62q-34 0 -71 10l-33 -34q0 -23 16 -34.5t42 -11.5h188q52 0 83 -26.5
t31 -71.5q0 -61 -68 -115t-183 -83q-103 0 -157 24zM310 325q0 139 -85 139q-70 0 -70 -120q0 -139 84 -139q71 0 71 120zM373.5 -96.5q46.5 25.5 46.5 64.5q0 25 -17 37.5t-56 12.5h-200q-21 -17 -28.5 -34.5t-7.5 -38.5q0 -32 32.5 -49.5t98.5 -17.5q85 0 131.5 25.5z
M198 622l105 93l12 -3l-54 -85l46 -34v-44h-109v73z" />
    <glyph glyph-name="gdotaccent.ss01" horiz-adv-x="514" 
d="M72 -157q-54 24 -54 82v17l115 78q-48 8 -71 33t-23 64v6l99 77q-45 17 -71 50t-26 76q0 59 50 97t151 61q64 0 111 -26t62 -68l47 94h47v-106h-89l-3 -4q6 -20 6 -32q0 -57 -49.5 -95t-149.5 -62q-34 0 -71 10l-33 -34q0 -23 16 -34.5t42 -11.5h188q52 0 83 -26.5
t31 -71.5q0 -61 -68 -115t-183 -83q-103 0 -157 24zM310 325q0 139 -85 139q-70 0 -70 -120q0 -139 84 -139q71 0 71 120zM373.5 -96.5q46.5 25.5 46.5 64.5q0 25 -17 37.5t-56 12.5h-200q-21 -17 -28.5 -34.5t-7.5 -38.5q0 -32 32.5 -49.5t98.5 -17.5q85 0 131.5 25.5z
M205 589l-5 53l9 44l73 5l26 -5l6 -52l-10 -45l-73 -6z" />
    <glyph glyph-name="ij.ss01" horiz-adv-x="556" 
d="M33 13l58 7v420l-59 -12l-2 14l164 38h12v-460l59 -7v-13h-232v13zM93 586l-6 61l10 49l77 5l30 -5l5 -57l-10 -53l-78 -6zM265 -74h104l2 18q0 3 3.5 29.5t3.5 75.5v391l-59 -12l-2 14l163 38h13v-396q0 -53 -12.5 -82.5t-49.5 -66.5l-101 -113h-65v104zM382 586l-6 61
l10 49l77 5l30 -5l5 -57l-10 -53l-78 -6z" />
    <glyph glyph-name="iogonek.ss01" horiz-adv-x="285" 
d="M93 586l-6 61l10 49l77 5l30 -5l5 -57l-10 -53l-78 -6zM111 -79v-23q0 -35 23.5 -49.5t69.5 -14.5l-1 -11q-89 0 -123.5 20t-34.5 65v30l85 62h-97v13l58 7v420l-59 -12l-2 14l164 38h12v-460l59 -7v-13h-103z" />
    <glyph glyph-name="j.ss01" horiz-adv-x="271" 
d="M-20 -74h104l2 18q0 3 3.5 29.5t3.5 75.5v391l-59 -12l-2 14l163 38h13v-396q0 -53 -12.5 -82.5t-49.5 -66.5l-101 -113h-65v104zM97 586l-6 61l10 49l77 5l30 -5l5 -57l-10 -53l-78 -6z" />
    <glyph glyph-name="uni0237.ss01" horiz-adv-x="271" 
d="M-20 -74h104l2 18q0 3 3.5 29.5t3.5 75.5v391l-59 -12l-2 14l163 38h13v-396q0 -53 -12.5 -82.5t-49.5 -66.5l-101 -113h-65v104z" />
    <glyph glyph-name="kcommaaccent.ss01" horiz-adv-x="561" 
d="M31 13l59 7v657l-58 -9l-2 14l162 31h13v-448l229 185l-70 7v13h167v-13l-68 -7l-230 -181l87 17l198 -267l38 -6v-13h-172l-179 255v-235l58 -7v-13h-232v13zM240 -179l38 63l-47 29v33h106v-59l-88 -70z" />
    <glyph glyph-name="lcommaaccent.ss01" horiz-adv-x="278" 
d="M31 13l59 7v657l-58 -9l-2 14l162 31h13v-693l58 -7v-13h-232v13zM98 -179l38 63l-47 29v33h106v-59l-88 -70z" />
    <glyph glyph-name="ncommaaccent.ss01" horiz-adv-x="583" 
d="M33 13l58 7v420l-59 -12l-2 14l164 38h12v-106l179 111q48 0 73 -15.5t34.5 -47t9.5 -84.5v-318l65 -7v-13h-227v13l43 7v323q0 39 -13 55.5t-41 16.5q-22 0 -40 -8t-50 -28l-33 -19v-340l44 -7v-13h-217v13zM251 -179l38 63l-47 29v33h106v-59l-88 -70z" />
    <glyph glyph-name="eng.ss01" horiz-adv-x="562" 
d="M269 -78h105l3 17q6 54 6 113v291q0 39 -13 55.5t-41 16.5q-22 0 -40 -8t-50 -28l-33 -19v-340l44 -7v-13h-217v13l58 7v420l-59 -12l-2 14l164 38h12v-106l179 111q48 0 73 -15.5t34.5 -47t9.5 -84.5v-274q0 -37 -15 -62.5t-46 -58.5l-19 -22l-82 -96h-71v97z" />
    <glyph glyph-name="p.ss01" horiz-adv-x="543" 
d="M17 -157l59 7v592l-59 -13l-2 13l158 38h13l4 -95l141 100q51 0 92.5 -28.5t65 -78.5t23.5 -113q0 -225 -220 -280q-62 0 -101 29v-164l89 -7v-13h-263v13zM353.5 66.5q32.5 55.5 32.5 150.5q0 85 -27 139.5t-77 54.5q-18 0 -30.5 -5.5t-25.5 -13.5t-19 -12l-16 -10v-323
q12 -17 31 -27t42 -10q57 1 89.5 56.5z" />
    <glyph glyph-name="thorn.ss01" horiz-adv-x="537" 
d="M19 -157l59 7v828l-59 -13l-2 14l164 33h12v-327l140 100q51 0 92.5 -28.5t65 -78.5t23.5 -113q0 -225 -220 -280q-62 0 -101 29v-164l89 -7v-13h-263v13zM355.5 66.5q32.5 55.5 32.5 150.5q0 86 -27 140t-78 54q-18 0 -30 -5.5t-25 -13.5t-19 -12l-16 -10v-323
q12 -17 31 -27t42 -10q57 1 89.5 56.5z" />
    <glyph glyph-name="q.ss01" horiz-adv-x="534" 
d="M264 -157l88 7v234l-141 -99q-49 0 -90 26t-65.5 75t-24.5 114q0 111 67 188.5t182 96.5q48 0 82.5 -8t65.5 -25l26 30h13v-632l62 -7v-13h-265v13zM295.5 65.5q14.5 5.5 36.5 20.5l20 12v325q-25 43 -73 43q-53 0 -87.5 -55.5t-34.5 -159.5q0 -83 25 -137t78 -54
q21 0 35.5 5.5z" />
    <glyph glyph-name="rcommaaccent.ss01" horiz-adv-x="385" 
d="M33 13l58 7v422l-59 -13l-2 13l158 38h13l5 -161l92 161h72v-120h-122l-42 -60v-280l88 -7v-13h-261v13zM112 -179l38 63l-47 29v33h106v-59l-88 -70z" />
    <glyph glyph-name="scedilla.ss01" horiz-adv-x="393" 
d="M348.5 204.5q17.5 -26.5 17.5 -64.5q0 -54 -42.5 -95t-128.5 -61h-2l-16 -22q33 -3 57.5 -17t24.5 -38t-23.5 -38.5t-64.5 -25.5l-79 -23h-31l29 35h84q12 7 18.5 16.5t6.5 19.5q0 16 -19 25t-51 10l48 59q-39 2 -78 13t-67 26v140h12l57 -112q25 -23 46 -34.5t49 -11.5
q38 0 58.5 18.5t20.5 45.5q0 32 -16 50.5t-61 46.5l-88 58q-39 25 -59.5 50t-20.5 67q0 101 166 143q49 0 82.5 -8.5t69.5 -25.5v-134h-13l-60 114q-21 19 -40 26.5t-44 7.5q-31 0 -49.5 -16.5t-18.5 -44.5q0 -27 16.5 -44.5t58.5 -44.5l91 -58q42 -26 59.5 -52.5z" />
    <glyph glyph-name="scommaaccent.ss01" horiz-adv-x="393" 
d="M107.5 -4.5q-44.5 11.5 -75.5 28.5v140h12l57 -112q25 -23 46 -34.5t49 -11.5q38 0 58.5 18.5t20.5 45.5q0 32 -16 50.5t-61 46.5l-88 58q-39 25 -59.5 50t-20.5 67q0 101 166 143q49 0 82.5 -8.5t69.5 -25.5v-134h-13l-60 114q-21 19 -40 26.5t-44 7.5
q-31 0 -49.5 -16.5t-18.5 -44.5q0 -27 16.5 -44.5t58.5 -44.5l91 -58q42 -26 59.5 -52.5t17.5 -64.5q0 -54 -42.5 -95t-128.5 -61q-43 0 -87.5 11.5zM156 -179l38 63l-47 29v33h106v-59l-88 -70z" />
    <glyph glyph-name="uni0163.ss01" horiz-adv-x="344" 
d="M227.5 -55q24.5 -14 24.5 -38t-23.5 -38.5t-64.5 -25.5l-79 -23h-31l29 35h84q12 7 18.5 16.5t6.5 19.5q0 16 -19 25t-51 10l49 60q-52 4 -74 36.5t-22 89.5v337h-70v13h70v72l115 64v-136h135v-13h-135v-332q0 -32 15.5 -48t42.5 -16q22 0 40.5 5.5t43.5 18.5l6 -12
l-151 -79l-17 -24q33 -3 57.5 -17z" />
    <glyph glyph-name="uni021B.ss01" horiz-adv-x="344" 
d="M100 18q-25 33 -25 94v337h-70v13h70v72l115 64v-136h135v-13h-135v-332q0 -32 15.5 -48t42.5 -16q22 0 40.5 5.5t43.5 18.5l6 -12l-153 -80q-60 0 -85 33zM149 -179l38 63l-47 29v33h106v-59l-88 -70z" />
    <glyph glyph-name="uogonek.ss01" horiz-adv-x="559" 
d="M369.5 -151.5q23.5 -14.5 69.5 -14.5l-1 -11q-89 0 -123.5 20t-34.5 65v30l95 70l-15 82l-169 -105q-49 0 -75 15.5t-35.5 46.5t-9.5 85v309l-58 -7l-1 13l165 30h13v-349q0 -74 55 -74q19 0 34.5 6.5t42.5 22.5l36 22v336l-58 -7l-1 13l162 30h12v-346q0 -28 3 -49.5
t10 -48.5l48 4l2 -13l-140 -27l-50 -76v-23q0 -35 23.5 -49.5z" />
    <glyph glyph-name="y.ss01" horiz-adv-x="537" 
d="M84 -67h130l101 152l-104 -40l-159 405l-47 7v13h232v-13l-54 -7l139 -353l135 353l-64 7v13h139v-13l-53 -7l-142 -369l-132 -256h-121v108z" />
    <glyph glyph-name="yacute.ss01" horiz-adv-x="537" 
d="M84 -67h130l101 152l-104 -40l-159 405l-47 7v13h232v-13l-54 -7l139 -353l135 353l-64 7v13h139v-13l-53 -7l-142 -369l-132 -256h-121v108zM348 710h107l-141 -161h-21z" />
    <glyph glyph-name="ycircumflex.ss01" horiz-adv-x="537" 
d="M84 -67h130l101 152l-104 -40l-159 405l-47 7v13h232v-13l-54 -7l139 -353l135 353l-64 7v13h139v-13l-53 -7l-142 -369l-132 -256h-121v108zM286 710h38l123 -161h-25l-117 91l-117 -91h-25z" />
    <glyph glyph-name="ydieresis.ss01" horiz-adv-x="537" 
d="M84 -67h130l101 152l-104 -40l-159 405l-47 7v13h232v-13l-54 -7l139 -353l135 353l-64 7v13h139v-13l-53 -7l-142 -369l-132 -256h-121v108zM170 586l-5 52l9 41l62 5l26 -5l6 -49l-10 -44l-63 -5zM346 586l-6 52l10 41l62 5l25 -5l6 -49l-10 -44l-62 -5z" />
    <glyph glyph-name="ygrave.ss01" horiz-adv-x="537" 
d="M84 -67h130l101 152l-104 -40l-159 405l-47 7v13h232v-13l-54 -7l139 -353l135 353l-64 7v13h139v-13l-53 -7l-142 -369l-132 -256h-121v108zM152 710h107l55 -161h-21z" />
    <glyph glyph-name="hcircumflex.ss02" horiz-adv-x="582" 
d="M130 860h34l123 -120h-21l-119 63l-118 -63h-22zM31 13l59 7v657l-58 -9l-2 14l162 31h13v-339l179 111q49 0 74.5 -18.5t33.5 -49.5t8 -79v-318l65 -7v-13h-227v13l43 7v323q0 39 -13 55.5t-41 16.5q-22 0 -40 -8t-50 -28l-32 -19v-340l43 -7v-13h-217v13z" />
    <glyph glyph-name="lacute.ss02" horiz-adv-x="278" 
d="M154 850h105l-121 -107h-21zM31 13l59 7v657l-58 -9l-2 14l162 31h13v-693l58 -7v-13h-232v13z" />
    <glyph glyph-name="f_f_j.ss01.liga" horiz-adv-x="873" 
d="M584 -97h104l2 17q7 63 7 110v419h-190v-429l98 -7v-13h-275v13l62 7v429h-190v-429l94 -7v-13h-271v13l62 7v429h-62v13h62v4q0 45 13 75t42 57l109 103h166l-96 -85h-107l-4 -13q-5 -18 -6.5 -40.5t-1.5 -73.5v-27h190v10q0 46 13 77t42 58l109 103h262v-118h-12
l-99 33h-188l-3 -13q-6 -18 -7.5 -40t-1.5 -74v-36h191l102 18h12v-419q0 -53 -12.5 -82.5t-49.5 -66.5l-101 -113h-65v104z" />
    <glyph glyph-name="f_j.ss01.liga" horiz-adv-x="567" 
d="M279 -80h104l2 18q7 59 7 110v401h-190v-429l92 -7v-13h-269v13l62 7v429h-62v13h62v10q0 46 13 77.5t42 57.5l109 103h262v-118h-12l-99 33h-188l-4 -13q-5 -18 -6.5 -40.5t-1.5 -73.5v-36h191l101 18h13v-395q0 -53 -12.5 -82t-49.5 -66l-101 -113h-65v96z" />
    <glyph glyph-name="f_y.ss01.liga" horiz-adv-x="824" 
d="M371 -67h130l101 152l-106 -36l-160 408h-134v-437l98 -7v-13h-275v13l62 7v437h-62v13h62v10q0 43 13 71.5t42 55.5l109 103h107v-85h-144l-4 -13q-5 -16 -6.5 -39t-1.5 -67v-36h322v-13l-54 -7l139 -352l135 352l-64 7v13h139v-13l-53 -7l-142 -369l-132 -256h-121v108
z" />
    <glyph glyph-name="g_g.ss01.liga" horiz-adv-x="989" 
d="M69.5 -158.5q-51.5 23.5 -51.5 79.5v18l115 81q-48 11 -71 36t-23 60v18l102 67q-47 19 -73.5 48.5t-26.5 68.5q0 62 49.5 101.5t151.5 64.5q61 0 107 -26t63 -69l50 95h41l-16 -106h-65l-6 -6q8 -12 8 -30q-1 -58 -48.5 -93.5t-151.5 -62.5q-37 0 -70 11l-37 -27
q0 -53 56 -53h184q51 0 78.5 -28t27.5 -70q0 -126 -237 -201q-105 0 -156.5 23.5zM554 -158.5q-49 23.5 -49 79.5v18l107 81q-47 11 -69.5 36t-22.5 60v18l99 67q-49 19 -76 48.5t-27 68.5q0 62 49.5 101.5t151.5 64.5q61 0 107 -26t64 -69l49 95h47v-106h-87l-6 -6
q8 -12 8 -30q-1 -58 -48.5 -93.5t-151.5 -62.5q-34 0 -67 11l-37 -27q0 -53 56 -53h198q50 0 78 -28.5t28 -69.5q0 -66 -66 -116.5t-188 -84.5q-98 0 -147 23.5zM310 318q0 147 -85 147q-70 0 -70 -126q0 -132 84 -132q71 0 71 111zM785 318q0 147 -85 147q-70 0 -70 -126
q0 -132 85 -132q70 0 70 111zM360.5 -96.5q45.5 24.5 45.5 61.5q0 54 -71 54h-189q-35 -28 -35 -73q0 -32 34.5 -50t96.5 -18q73 1 118.5 25.5zM848 -96.5q50 24.5 50 61.5q0 54 -71 54h-202q-29 -28 -29 -73q0 -32 31.5 -50t90.5 -18q80 1 130 25.5z" />
    <glyph glyph-name="k_y.ss01.liga" horiz-adv-x="1017" 
d="M567 -75h127l101 160l-104 -40l-160 407h-67l-231 -183l87 17l198 -267l38 -6v-13h-172l-179 255v-235l58 -7v-13h-232v13l59 7v657l-58 -9l-2 14l162 31h13v-447l229 184l-70 7v13h353v-13l-54 -7l139 -352l135 352l-64 7v13h139v-13l-52 -7l-143 -369l-132 -256h-118
v100z" />
    <glyph glyph-name="t_y.ss01.liga" horiz-adv-x="787" 
d="M334 -67h125l107 153l-104 -42l-163 413h-109v-340q0 -32 15.5 -48t42.5 -16q22 0 39.5 4.5t38.5 16.5l6 -12l-147 -77q-60 0 -85 33t-25 94v345h-70v13h70v64l115 64v-128h297v-13l-55 -7l139 -349l135 349l-63 7v13h139v-13l-53 -7l-144 -372l-128 -253h-123v108z" />
    <glyph glyph-name="a.sc" horiz-adv-x="611" 
d="M21 13l50 6l189 464l89 35l192 -499l49 -6v-13h-245v12l66 7l-60 157h-195l-64 -157l66 -7v-12h-137v13zM347 192l-89 238l-96 -238h185z" />
    <glyph glyph-name="aacute.sc" horiz-adv-x="611" 
d="M351 710h106l-141 -145h-20zM21 13l50 6l189 464l89 35l192 -499l49 -6v-13h-245v12l66 7l-60 157h-195l-64 -157l66 -7v-12h-137v13zM347 192l-89 238l-96 -238h185z" />
    <glyph glyph-name="abreve.sc" horiz-adv-x="611" 
d="M219.5 603q-41.5 38 -60.5 92l10 8q20 -28 55 -50.5t84 -22.5q46 0 76.5 21t55.5 52l10 -8q-15 -38 -44.5 -70t-85.5 -60q-59 0 -100.5 38zM21 13l50 6l189 464l89 35l192 -499l49 -6v-13h-245v12l66 7l-60 157h-195l-64 -157l66 -7v-12h-137v13zM347 192l-89 238
l-96 -238h185z" />
    <glyph glyph-name="acircumflex.sc" horiz-adv-x="611" 
d="M287 711h38l119 -146h-21l-117 73l-117 -73h-21zM21 13l50 6l189 464l89 35l192 -499l49 -6v-13h-245v12l66 7l-60 157h-195l-64 -157l66 -7v-12h-137v13zM347 192l-89 238l-96 -238h185z" />
    <glyph glyph-name="adieresis.sc" horiz-adv-x="611" 
d="M171 592l-5 51l9 41l63 5l25 -5l6 -49l-10 -43l-63 -5zM347 592l-5 51l9 41l62 5l26 -5l6 -49l-11 -43l-62 -5zM21 13l50 6l189 464l89 35l192 -499l49 -6v-13h-245v12l66 7l-60 157h-195l-64 -157l66 -7v-12h-137v13zM347 192l-89 238l-96 -238h185z" />
    <glyph glyph-name="agrave.sc" horiz-adv-x="611" 
d="M154 710h106l55 -145h-20zM21 13l50 6l189 464l89 35l192 -499l49 -6v-13h-245v12l66 7l-60 157h-195l-64 -157l66 -7v-12h-137v13zM347 192l-89 238l-96 -238h185z" />
    <glyph glyph-name="amacron.sc" horiz-adv-x="611" 
d="M162 668h288v-44h-288v44zM21 13l50 6l189 464l89 35l192 -499l49 -6v-13h-245v12l66 7l-60 157h-195l-64 -157l66 -7v-12h-137v13zM347 192l-89 238l-96 -238h185z" />
    <glyph glyph-name="aogonek.sc" horiz-adv-x="611" 
d="M384 -120v-46q0 -72 113 -72v-9q-97 0 -139.5 25t-42.5 76v50l100 102l-64 170h-195l-64 -157l66 -7v-12h-137v13l50 6l189 464l89 35l192 -499l49 -6v-13h-156zM347 192l-89 238l-96 -238h185z" />
    <glyph glyph-name="aring.sc" horiz-adv-x="611" 
d="M229.5 567.5q-31.5 24.5 -31.5 75.5q0 42 27 62.5t81 38.5q47 0 77.5 -23.5t30.5 -75.5q0 -43 -26.5 -63.5t-80.5 -38.5q-46 0 -77.5 24.5zM360 588.5q21 21.5 21 55.5t-21 55.5t-54 21.5t-54 -21.5t-21 -55.5t21 -55.5t54 -21.5t54 21.5zM21 13l50 6l189 464l89 35
l192 -499l49 -6v-13h-245v12l66 7l-60 157h-195l-64 -157l66 -7v-12h-137v13zM347 192l-89 238l-96 -238h185z" />
    <glyph glyph-name="atilde.sc" horiz-adv-x="611" 
d="M182 643l-36 -76h-11l34 113l51 17l209 -74l35 76h11l-34 -114l-51 -16zM21 13l50 6l189 464l89 35l192 -499l49 -6v-13h-245v12l66 7l-60 157h-195l-64 -157l66 -7v-12h-137v13zM347 192l-89 238l-96 -238h185z" />
    <glyph glyph-name="ae.sc" horiz-adv-x="839" 
d="M21 13l50 6l350 488h377v-138h-12l-62 124h-188v-242h95l39 91h13v-195h-13l-39 90h-95v-223h193l58 129h12v-143h-435v13l54 6v218h-167l-157 -218l67 -7v-12h-140v13zM418 251v222l-158 -222h158z" />
    <glyph glyph-name="aeacute.sc" horiz-adv-x="839" 
d="M608 710h106l-141 -145h-20zM21 13l50 6l350 488h377v-138h-12l-62 124h-188v-242h95l39 91h13v-195h-13l-39 90h-95v-223h193l58 129h12v-143h-435v13l54 6v218h-167l-157 -218l67 -7v-12h-140v13zM418 251v222l-158 -222h158z" />
    <glyph glyph-name="b.sc" horiz-adv-x="551" 
d="M37 13l55 6v469l-55 6v13h283q51 0 87 -15.5t54.5 -41.5t18.5 -55q0 -53 -50 -87t-134 -38q106 -2 157.5 -37.5t51.5 -87.5q0 -66 -56 -103t-156 -42h-256v13zM270 276q42 0 66 32.5t24 85.5q0 46 -23 73t-64 27l-63 -6v-212h60zM356 48.5q29 35.5 29 93.5t-32 89t-81 31
h-62v-243l57 -6q60 0 89 35.5z" />
    <glyph glyph-name="c.sc" horiz-adv-x="602" 
d="M195.5 16.5q-68.5 28.5 -109 86t-40.5 138.5q0 123 81.5 193.5t228.5 84.5q60 0 104 -9t87 -27v-138h-12l-61 120q-22 19 -48.5 29t-64.5 10q-52 0 -93 -28t-64.5 -83.5t-23.5 -136.5q0 -114 47 -183t139 -69q32 0 60 10t48 27l61 127h13v-139q-53 -18 -96.5 -27
t-105.5 -14q-82 0 -150.5 28.5z" />
    <glyph glyph-name="cacute.sc" horiz-adv-x="602" 
d="M388 710h106l-141 -145h-20zM195.5 16.5q-68.5 28.5 -109 86t-40.5 138.5q0 123 81.5 193.5t228.5 84.5q60 0 104 -9t87 -27v-138h-12l-61 120q-22 19 -48.5 29t-64.5 10q-52 0 -93 -28t-64.5 -83.5t-23.5 -136.5q0 -114 47 -183t139 -69q32 0 60 10t48 27l61 127h13
v-139q-53 -18 -96.5 -27t-105.5 -14q-82 0 -150.5 28.5z" />
    <glyph glyph-name="ccaron.sc" horiz-adv-x="602" 
d="M226 711l117 -73l117 73h21l-119 -146h-38l-119 146h21zM195.5 16.5q-68.5 28.5 -109 86t-40.5 138.5q0 123 81.5 193.5t228.5 84.5q60 0 104 -9t87 -27v-138h-12l-61 120q-22 19 -48.5 29t-64.5 10q-52 0 -93 -28t-64.5 -83.5t-23.5 -136.5q0 -114 47 -183t139 -69
q32 0 60 10t48 27l61 127h13v-139q-53 -18 -96.5 -27t-105.5 -14q-82 0 -150.5 28.5z" />
    <glyph glyph-name="ccedilla.sc" horiz-adv-x="602" 
d="M453 2q-43 -9 -103 -14l-22 -32q38 -4 61 -25t23 -51q-1 -34 -27 -54.5t-70 -38.5l-75 -30h-27l29 44h81q12 10 19 26t7 33q0 28 -16.5 40.5t-44.5 15.5l48 72q-80 2 -146 31.5t-105 86t-39 135.5q0 123 81.5 193.5t228.5 84.5q60 0 104 -9t87 -27v-138h-12l-61 120
q-22 19 -48.5 29t-64.5 10q-52 0 -93 -28t-64.5 -83.5t-23.5 -136.5q0 -114 47 -183t139 -69q32 0 60 10t48 27l61 127h13v-139q-52 -18 -95 -27z" />
    <glyph glyph-name="ccircumflex.sc" horiz-adv-x="602" 
d="M324 711h38l119 -146h-21l-117 73l-117 -73h-21zM195.5 16.5q-68.5 28.5 -109 86t-40.5 138.5q0 123 81.5 193.5t228.5 84.5q60 0 104 -9t87 -27v-138h-12l-61 120q-22 19 -48.5 29t-64.5 10q-52 0 -93 -28t-64.5 -83.5t-23.5 -136.5q0 -114 47 -183t139 -69q32 0 60 10
t48 27l61 127h13v-139q-53 -18 -96.5 -27t-105.5 -14q-82 0 -150.5 28.5z" />
    <glyph glyph-name="cdotaccent.sc" horiz-adv-x="568" 
d="M286 567l-4 46l9 39l66 4l23 -4l5 -46l-9 -39l-66 -5zM179.5 16.5q-67.5 28.5 -108 85.5t-40.5 139q0 123 81 193.5t226 84.5q59 0 102.5 -8.5t86.5 -26.5v-141h-12l-61 121q-22 20 -48 30t-63 10q-51 0 -91 -28t-63 -83.5t-23 -136.5q0 -114 46.5 -183t136.5 -69
q30 0 57.5 10.5t47.5 27.5l61 128h13v-141q-54 -18 -96.5 -27.5t-103.5 -13.5q-81 0 -148.5 28.5z" />
    <glyph glyph-name="d.sc" horiz-adv-x="632" 
d="M37 13l59 6v469l-59 6v13h269q133 0 206.5 -64.5t73.5 -177.5q0 -116 -70.5 -186.5t-210.5 -78.5h-268v13zM379 44.5q39 31.5 60 87.5t21 130q0 106 -44 169t-134 63l-68 -6v-469l75 -6q51 0 90 31.5z" />
    <glyph glyph-name="eth.sc" horiz-adv-x="603" 
d="M512.5 442.5q73.5 -64.5 73.5 -177.5q0 -116 -70.5 -186.5t-210.5 -78.5h-268v13l59 6v239h-68v11h68v219l-59 6v13h269q133 0 206.5 -64.5zM379 44.5q39 31.5 60 87.5t21 130q0 106 -44 169t-134 63l-68 -6v-219h83v-11h-83v-239l75 -6q51 0 90 31.5z" />
    </font>
</defs>
</svg>
