<svg xmlns="http://www.w3.org/2000/svg">
<defs>
<font id="GTSectraDisplay-Super" horiz-adv-x="620" >
  <font-face 
    font-family="GT Sectra Display Super"
    font-weight="900"
    font-stretch="normal"
    units-per-em="1000"
    panose-1="0 0 10 0 0 0 0 0 0 0"
    ascent="750"
    descent="-250"
    x-height="485"
    cap-height="700"
    bbox="-503 -253 1349 965"
    underline-thickness="50"
    underline-position="-150"
    unicode-range="U+000D-FB02"
  />
<missing-glyph horiz-adv-x="625" 
d="M432 -28l-24 18h-14l-8 8l7 76l-4 47l-61 1l-3 -52l-2 -56v-20l-15 -6l-8 6l-30 -10h-32l-1 11l11 11l50 21l-6 96l-98 -6l-147 140l-4 115l-13 10l-10 36v26l15 8l-3 78l92 -62l9 47l10 36l22 35l28 35l39 29l78 29h22l-68 22l4 17h7l79 -20l-4 51l16 12h32l19 -5
l29 -25l32 -8l32 -10l15 -13v-20l-20 -31l30 -28l28 -32l18 -34l15 -41l9 -54l-3 -41l-8 -35l-12 -31l-3 -156l-21 -7l-50 70l-27 -7l-19 -140l-32 4l-7 -4l-4 -94l30 -19l16 -14l-3 -15zM213 540l36 24h32l18 -12l8 3l4 14l7 5l10 -4v-18h8l10 22l11 8l-5 6l-3 8l1 21
l-30 -10l-10 -8l-8 5l4 21l14 10l11 11l38 -2l12 13l-4 8h-49l-45 -13l-53 -26l-29 -23l-25 -34l29 12l13 -15l-17 -20l-10 -3l17 -3h5zM391 625l-7 17l-8 -9v-19l12 -6zM449 564l6 6l-9 18l17 28l-15 9v5l-25 7v-20l-13 -5v-9l-9 -6l-3 -12l5 -6l19 11l8 -2l6 -24h13z
M533 418h23l6 11l-18 6l-5 9l9 42h7l14 -20l17 -1l-8 37l-19 50l-20 36l-23 28l-34 21h-11l17 -19l25 -10l11 -11l3 -33l-25 13l-15 -29l12 -8v-19l15 3l-12 26l15 -5l10 -20l-5 -12l-8 -7h-23l-3 11l-12 2l1 -22h-14l14 -18l-7 -10l-21 5l-3 -27l41 6l8 17l22 -2l6 -28
l-16 -13v-15l8 -6zM463 521l-2 9l-8 -4v-9l8 -3zM243 510l-4 12l-55 -24zM369 495l-48 25l-4 -12l49 -17zM72 434l57 -32l7 10l-68 38v18l59 -34l43 -28l28 -14l3 10l-103 64l-13 7l-41 33l2 -78l19 -17v-5h-21l19 -14l1 -11l-20 7l18 -18l-4 -7l3 -97l11 -12v180zM238 437
l16 12l6 12l2 13l-22 -4l6 -10l-12 -13l-14 -1l-6 8l1 4l14 2l-13 6l2 7l-20 -1l3 -19l14 -15l12 -6zM347 440l6 9l5 20l-30 2l7 -5l1 -11l-7 -11h-12l-5 7l11 8l-15 2v6l-23 4l3 -17l8 -14l20 -9l13 -1zM219 134l2 40l41 -3l3 9l-44 6v16l48 -6l1 9l-47 7l1 22l43 -3l3 6

<glyph glyph-name="fi" unicode="fi" horiz-adv-x="685" 
d="M25 25l50 10v404h-50v25h50v6q0 33 24.5 69t69.5 68l141 103h315v-170h-25l-150 45h-165l-3 -16q-7 -39 -7 -90v-15h150l175 31h25v-460l40 -10v-25h-280v25l40 10v404h-150v-404l60 -10v-25h-310v25z" />
    <glyph glyph-name="fl" unicode="fl" horiz-adv-x="679" 
d="M35 25l40 10v404h-50v25h50v6q0 35 26 71t68 66l141 103h314v-675l40 -10v-25h-280v25l40 10v404h-149v-404l60 -10v-25h-300v25zM424 464v121h-139l-3 -16q-7 -42 -7 -90v-15h149z" />
    <glyph glyph-name="f_f" unicode="ff" horiz-adv-x="745" 
d="M25 25l50 10v404h-50v25h50v6q0 35 26 71t68 66l141 103h234l-164 -125h-95l-3 -16q-7 -42 -7 -90v-15h150v6q0 35 26 71t68 66l141 103h110v-125h-135l-3 -16q-7 -42 -7 -90v-15h122v-25h-122v-404l70 -10v-25h-310v25l40 10v404h-150v-404l60 -10v-25h-310v25z" />
    <glyph glyph-name="f_f_i" unicode="ffi" horiz-adv-x="1035" 
d="M25 25l50 10v404h-50v25h50v6q0 35 26 71t68 66l141 103h234l-164 -125h-95l-3 -16q-7 -42 -7 -90v-15h150v6q0 35 26 71t68 66l141 103h315v-170h-25l-150 45h-165l-3 -16q-7 -42 -7 -90v-15h151l174 31h25v-460l40 -10v-25h-280v25l40 10v404h-150v-404l60 -10v-25
h-310v25l50 10v404h-150v-404l60 -10v-25h-310v25z" />
    <glyph glyph-name="f_f_l" unicode="ffl" horiz-adv-x="1028" 
d="M25 25l50 10v404h-50v25h50v6q0 35 26 71t68 66l141 103h244l-164 -125h-105l-3 -16q-7 -42 -7 -90v-15h149v6q0 35 26 71t68 66l141 103h314v-675l40 -10v-25h-280v25l40 10v404h-149v-404l60 -10v-25h-300v25l40 10v404h-149v-404l60 -10v-25h-310v25zM773 464v121
h-139l-3 -16q-7 -42 -7 -90v-15h149z" />
    <glyph glyph-name="T_h.liga" unicode="Th" horiz-adv-x="1127" 
d="M106 25l80 10v640h-46l-105 -192h-25v217h562l175 10h25v-317l171 107q52 0 79 -13t38.5 -44t11.5 -89v-319l40 -10v-25h-275v25l25 10v323q0 17 -7 26t-20 9q-12 0 -22.5 -3.5t-25.5 -12.5l-15 -9v-333l25 -10v-25h-265v25l40 10v640h-166v-640l75 -10v-25h-375v25z" />
    <glyph glyph-name="f_b.liga" unicode="fb" horiz-adv-x="963" 
d="M424 20v565h-139l-3 -16q-7 -42 -7 -90v-15h102v-25h-102v-404l70 -10v-25h-320v25l50 10v404h-50v25h50v6q0 35 26 71t68 66l141 103h314v-316l139 106q77 0 126 -56.5t49 -157.5q0 -112 -67 -192.5t-213 -108.5q-130 0 -234 35zM718 206q0 109 -13 145.5t-37 36.5
q-8 0 -17.5 -4.5t-16.5 -8.5l-10 -6v-349q9 -8 23 -8q71 0 71 194z" />
    <glyph glyph-name="f_f_b.liga" unicode="ffb" horiz-adv-x="1313" 
d="M774 20v565h-139l-3 -16q-7 -42 -7 -90v-15h102v-25h-102v-404l70 -10v-25h-320v25l50 10v404h-150v-404l60 -10v-25h-310v25l50 10v404h-50v25h50v6q0 35 26 71t68 66l141 103h234l-164 -125h-95l-3 -16q-7 -42 -7 -90v-15h150v6q0 35 26 71t68 66l141 103h314v-316
l139 106q77 0 126 -56.5t49 -157.5q0 -112 -67 -192.5t-213 -108.5q-130 0 -234 35zM1068 206q0 109 -13 145.5t-37 36.5q-8 0 -17.5 -4.5t-16.5 -8.5l-10 -6v-349q9 -8 23 -8q71 0 71 194z" />
    <glyph glyph-name="f_f_h.liga" unicode="ffh" horiz-adv-x="1329" 
d="M25 25l50 10v404h-50v25h50v6q0 35 26 71t68 66l141 103h234l-164 -125h-95l-3 -16q-7 -42 -7 -90v-15h150v6q0 35 26 71t68 66l141 103h314v-317l171 107q54 0 81.5 -14t37.5 -45t10 -87v-319l40 -10v-25h-275v25l25 10v323q0 16 -7 25.5t-20 9.5q-14 0 -24 -4t-24 -12
l-15 -9v-333l25 -10v-25h-265v25l40 10v550h-139l-3 -16q-7 -42 -7 -90v-15h102v-25h-102v-404l70 -10v-25h-320v25l50 10v404h-150v-404l60 -10v-25h-310v25z" />
    <glyph glyph-name="f_f_j.liga" unicode="ffj" horiz-adv-x="1020" 
d="M680 -73h89l2 26q4 48 4 128v358h-150v-404l70 -10v-25h-320v25l50 10v404h-150v-404l60 -10v-25h-310v25l50 10v404h-50v25h50v6q0 35 26 71t68 66l141 103h234l-164 -125h-95l-3 -16q-7 -42 -7 -90v-15h150v6q0 35 26 71t68 66l141 103h315v-170h-25l-150 45h-165
l-3 -16q-7 -42 -7 -90v-15h150l175 31h25v-359q0 -68 -8.5 -109.5t-33.5 -77t-76 -81.5l-121 -108h-56v167z" />
    <glyph glyph-name="f_f_k.liga" unicode="ffk" horiz-adv-x="1354" 
d="M25 25l50 10v404h-50v25h50v6q0 35 26 71t68 66l141 103h234l-164 -125h-95l-3 -16q-7 -42 -7 -90v-15h149v6q0 35 26 71t68 66l141 103h314v-429l226 169l-66 10v25h191v-25l-70 -10l-233 -164l141 33l164 -284l23 -10v-25h-248l-128 264v-229l40 -10v-25h-280v25l40 10
v550h-139l-3 -16q-7 -42 -7 -90v-15h102v-25h-102v-404l60 -10v-25h-300v25l40 10v404h-149v-404l60 -10v-25h-310v25z" />
    <glyph glyph-name="f_h.liga" unicode="fh" horiz-adv-x="979" 
d="M25 25l50 10v404h-50v25h50v6q0 35 26 71t68 66l141 103h314v-317l171 107q54 0 81.5 -14t37.5 -45t10 -87v-319l40 -10v-25h-275v25l25 10v323q0 16 -7 25.5t-20 9.5q-14 0 -24 -4t-24 -12l-15 -9v-333l25 -10v-25h-265v25l40 10v550h-139l-3 -16q-7 -42 -7 -90v-15h102
v-25h-102v-404l70 -10v-25h-320v25z" />
    <glyph glyph-name="f_j.liga" unicode="fj" horiz-adv-x="670" 
d="M330 -73h89l2 26q4 48 4 128v358h-150v-404l70 -10v-25h-320v25l50 10v404h-50v25h50v6q0 35 26 71t68 66l141 103h315v-170h-25l-150 45h-165l-3 -16q-7 -42 -7 -90v-15h150l175 31h25v-359q0 -68 -8.5 -109.5t-33.5 -77t-76 -81.5l-121 -108h-56v167z" />
    <glyph glyph-name="f_k.liga" unicode="fk" horiz-adv-x="1005" 
d="M25 25l50 10v404h-50v25h50v6q0 35 26 71t68 66l141 103h314v-429l226 169l-66 10v25h191v-25l-70 -10l-233 -164l141 33l164 -284l23 -10v-25h-248l-128 264v-229l40 -10v-25h-280v25l40 10v550h-139l-3 -16q-7 -42 -7 -90v-15h102v-25h-102v-404l60 -10v-25h-310v25z
" />
    <glyph glyph-name="f_t.liga" unicode="ft" horiz-adv-x="747" 
d="M449 21.5q-34 36.5 -34 101.5v316h-140v-404l60 -10v-25h-310v25l50 10v404h-50v25h50v6q0 35 26 71t68 66l141 103h244l-164 -125h-105l-3 -16q-7 -42 -7 -90v-15h140v56l200 105v-161h109v-25h-109v-298q0 -25 14.5 -38.5t34.5 -13.5q17 0 30.5 3.5t37.5 13.5l10 -23
l-203 -98q-56 0 -90 36.5z" />
    <glyph glyph-name="f_y.liga" unicode="fy" horiz-adv-x="885" 
d="M384 -68h184l113 145l-183 -61l-157 444h-66v-425l70 -10v-25h-320v25l50 10v425h-50v25h50v6q0 28 25.5 56t68.5 60l141 103h110v-125h-135l-3 -16q-3 -15 -5 -35t-2 -36v-13h339v-25l-46 -10l120 -353l122 353l-46 10v25h116v-25l-31 -10l-137 -394l-146 -291h-182v167
z" />
    <glyph glyph-name="g_g.liga" unicode="gg" horiz-adv-x="1170" 
d="M76 -226q-61 19 -61 79v20l118 84q-47 11 -73 38.5t-26 66.5v30l110 90q-49 21 -76.5 59.5t-27.5 87.5q1 71 60 109t178 62q80 0 136 -34t70 -89l36 123h60l-40 -155h-51v-5q-1 -51 -28.5 -84t-77 -54.5t-130.5 -40.5q-48 0 -85 12l-22 -24q0 -9 8.5 -14.5t23.5 -5.5h246
q51 0 78 -32t27 -81q0 -65 -33 -111t-87 -77.5t-147 -72.5q-125 0 -186 19zM618.5 -225.5q-58.5 19.5 -58.5 78.5v20l114 84q-46 11 -71 38.5t-25 66.5v30l104 90q-53 21 -82 59.5t-29 87.5q1 71 60 109t178 62q80 0 136 -34t70 -89l36 123h60v-155h-91v-5q-1 -51 -28.5 -84
t-77 -54.5t-130.5 -40.5q-40 0 -78 12l-22 -24q0 -9 8.5 -14.5t23.5 -5.5h255q51 0 78 -32t27 -81q0 -65 -35 -111t-92 -77.5t-156 -72.5q-116 0 -174.5 19.5zM292.5 214.5q5.5 29.5 5.5 107.5q0 90 -9 123t-29 33q-19 0 -24.5 -29.5t-5.5 -107.5q0 -90 9 -123t29 -33
q19 0 24.5 29.5zM823.5 214.5q5.5 29.5 5.5 107.5q0 90 -9 123t-29 33q-19 0 -24.5 -29.5t-5.5 -107.5q0 -90 9 -123t29 -33q19 0 24.5 29.5zM439.5 -115q36.5 9 36.5 35q0 34 -37 34h-282q-7 -11 -7 -29q0 -25 39.5 -37t121.5 -12q92 0 128.5 9zM983 -115q40 9 40 35
q0 34 -37 34h-288q-7 -11 -7 -29q0 -25 37.5 -37t113.5 -12q101 0 141 9z" />
    <glyph glyph-name="k_y.liga" unicode="ky" horiz-adv-x="1143" 
d="M642 -68h184l113 145l-183 -61l-153 439h-50l-233 -169l141 33l164 -284l23 -10v-25h-248l-128 264v-229l40 -10v-25h-280v25l40 10v624l-39 -2l-3 28l217 25h25v-429l226 169l-66 10v25h440v-25l-46 -10l120 -353l122 353l-46 10v25h116v-25l-31 -10l-137 -394
l-146 -291h-182v167z" />
    <glyph glyph-name="t_t.liga" unicode="tt" horiz-adv-x="756" 
d="M94 21.5q-34 36.5 -34 101.5v316h-55v25h55v56l200 105v-161h164v56l199 105v-161h110v-25h-109v-298q0 -25 14.5 -38.5t34.5 -13.5q17 0 30.5 3.5t37.5 13.5l10 -23l-203 -98q-56 0 -90 36.5t-34 101.5v316h-164v-298q0 -25 14.5 -38.5t34.5 -13.5q17 0 30.5 3.5
t37.5 13.5l10 -23l-203 -98q-56 0 -90 36.5z" />
    <glyph glyph-name="t_y.liga" unicode="ty" horiz-adv-x="899" 
d="M398 -68h184l113 145l-183 -61l-157 444h-95v-319q0 -25 14.5 -38.5t34.5 -13.5q17 0 30.5 3.5t37.5 13.5l10 -23l-203 -98q-56 0 -90 36.5t-34 101.5v337h-55v25h55v35l200 105v-140h368v-25l-46 -10l120 -353l122 353l-46 10v25h116v-25l-31 -10l-137 -394l-146 -291
h-182v167z" />
    <glyph glyph-name=".notdef" horiz-adv-x="625" 
d="M432 -28l-24 18h-14l-8 8l7 76l-4 47l-61 1l-3 -52l-2 -56v-20l-15 -6l-8 6l-30 -10h-32l-1 11l11 11l50 21l-6 96l-98 -6l-147 140l-4 115l-13 10l-10 36v26l15 8l-3 78l92 -62l9 47l10 36l22 35l28 35l39 29l78 29h22l-68 22l4 17h7l79 -20l-4 51l16 12h32l19 -5
l29 -25l32 -8l32 -10l15 -13v-20l-20 -31l30 -28l28 -32l18 -34l15 -41l9 -54l-3 -41l-8 -35l-12 -31l-3 -156l-21 -7l-50 70l-27 -7l-19 -140l-32 4l-7 -4l-4 -94l30 -19l16 -14l-3 -15zM213 540l36 24h32l18 -12l8 3l4 14l7 5l10 -4v-18h8l10 22l11 8l-5 6l-3 8l1 21
l-30 -10l-10 -8l-8 5l4 21l14 10l11 11l38 -2l12 13l-4 8h-49l-45 -13l-53 -26l-29 -23l-25 -34l29 12l13 -15l-17 -20l-10 -3l17 -3h5zM391 625l-7 17l-8 -9v-19l12 -6zM449 564l6 6l-9 18l17 28l-15 9v5l-25 7v-20l-13 -5v-9l-9 -6l-3 -12l5 -6l19 11l8 -2l6 -24h13z
M533 418h23l6 11l-18 6l-5 9l9 42h7l14 -20l17 -1l-8 37l-19 50l-20 36l-23 28l-34 21h-11l17 -19l25 -10l11 -11l3 -33l-25 13l-15 -29l12 -8v-19l15 3l-12 26l15 -5l10 -20l-5 -12l-8 -7h-23l-3 11l-12 2l1 -22h-14l14 -18l-7 -10l-21 5l-3 -27l41 6l8 17l22 -2l6 -28
l-16 -13v-15l8 -6zM463 521l-2 9l-8 -4v-9l8 -3zM243 510l-4 12l-55 -24zM369 495l-48 25l-4 -12l49 -17zM72 434l57 -32l7 10l-68 38v18l59 -34l43 -28l28 -14l3 10l-103 64l-13 7l-41 33l2 -78l19 -17v-5h-21l19 -14l1 -11l-20 7l18 -18l-4 -7l3 -97l11 -12v180zM238 437
l16 12l6 12l2 13l-22 -4l6 -10l-12 -13l-14 -1l-6 8l1 4l14 2l-13 6l2 7l-20 -1l3 -19l14 -15l12 -6zM347 440l6 9l5 20l-30 2l7 -5l1 -11l-7 -11h-12l-5 7l11 8l-15 2v6l-23 4l3 -17l8 -14l20 -9l13 -1zM219 134l2 40l41 -3l3 9l-44 6v16l48 -6l1 9l-47 7l1 22l43 -3l3 6
l-45 9l3 94h74l11 10h-79l2 9h74l8 7h-82l2 22l117 4l140 -4v11l-4 7h-205l-66 -3l-7 -9l-6 -44l-48 20l-11 -4l57 -27l1 -45l-5 -73v-91zM534 386l5 7v7l-10 -4v-10h5zM403 336l4 30l-54 5l-3 -35h53zM172 291l4 40l-66 39v-7l-2 -13l1 -27v-48l64 -44zM518 302l20 15
l13 13l11 18l-7 5h-14l-10 3l-14 7l-17 -3l-6 -48q1 1 7.5 -4.5t8.5 -7.5zM481 350l4 9h-48v-13zM461 221l4 36l-15 3l-1 8l20 1l5 3l-28 16l2 5l30 -6l-30 15l5 5l21 -5l4 10l3 19l-54 1l-1 -24v-6l-2 -31l19 -3l-8 -61l-48 3l-8 -6l51 -5l-2 -9h-49l-4 -5l53 -7l-6 -35
l27 -1zM364 302v10h-73v-10h73zM559 312l-6 -3l-33 -27l39 -48v78zM364 281l-72 7l-6 -13l78 -4v10zM354 250v6l-68 4v-10h68zM176 203l-74 50l20 -23l50 -41zM350 214l-64 4v-51l64 -6v53z" />
    <glyph glyph-name=".null" horiz-adv-x="0" 
 />
    <glyph glyph-name="nonmarkingreturn" unicode="&#xd;" horiz-adv-x="320" 
 />
    <glyph glyph-name="space" unicode=" " horiz-adv-x="235" 
 />
    <glyph glyph-name="exclam" unicode="!" horiz-adv-x="375" 
d="M95 405l-15 305h215l-15 -304l-75 -171h-35zM109 0l-8 84l15 70l108 9l39 -9l9 -83l-17 -71l-107 -9z" />
    <glyph glyph-name="quotedbl" unicode="&#x22;" horiz-adv-x="478" 
d="M49 627l28 78h111l28 -78l-76 -231h-15zM263 627l28 78h111l28 -78l-76 -231h-15z" />
    <glyph glyph-name="numbersign" unicode="#" horiz-adv-x="627" 
d="M180 207h-140l4 30h140l22 179h-138l5 30h136l26 209h35l-26 -209h165l26 209h35l-26 -209h143l-5 -30h-141l-22 -179h140l-5 -30h-139l-25 -207h-35l25 207h-165l-25 -207h-35zM384 237l22 179h-165l-22 -179h165z" />
    <glyph glyph-name="dollar" unicode="$" horiz-adv-x="601" 
d="M499 78q-56 -53 -177 -84v-74h-25v68l-28 -6q-61 0 -112 14t-111 49v215h25l66 -150q35 -46 67.5 -71.5t72.5 -25.5q14 0 20 1v211l-141 104q-58 43 -84.5 82.5t-26.5 99.5q0 74 55 127t197 78v65h25v-63q67 0 99 -5t98 -25v-208h-25l-79 168q-20 23 -41.5 34t-49.5 11
h-2v-204l128 -94q58 -42 81.5 -82t23.5 -101q0 -81 -56 -134zM249 555q16 -23 48 -48v183q-29 -6 -46.5 -26t-17.5 -54q0 -32 16 -55zM363 53q15 22 15 52t-13 53.5t-43 47.5v-185q26 10 41 32z" />
    <glyph glyph-name="percent" unicode="%" horiz-adv-x="847" 
d="M649 705h39l-493 -710h-41zM129.5 370.5q-36.5 20.5 -58 58.5t-21.5 88q0 57 26.5 93.5t68 56.5t100.5 36q46 0 82.5 -20.5t58 -58.5t21.5 -88q0 -57 -26.5 -93.5t-68 -57t-101.5 -35.5q-45 0 -81.5 20.5zM255 400.5q7 26.5 7 94.5q0 92 -12.5 138t-28.5 46
q-12 0 -19 -27.5t-7 -96.5q0 -91 12 -136t28 -45q13 0 20 26.5zM519.5 20.5q-36.5 20.5 -58 58.5t-21.5 88q0 57 26.5 93.5t68 56.5t100.5 36q46 0 82.5 -20.5t58 -58.5t21.5 -88q0 -57 -26.5 -93.5t-68 -57t-101.5 -35.5q-45 0 -81.5 20.5zM645 50.5q7 26.5 7 94.5
q0 92 -12.5 138t-28.5 46q-12 0 -19 -27.5t-7 -96.5q0 -91 12 -136t28 -45q13 0 20 26.5z" />
    <glyph glyph-name="ampersand" unicode="&#x26;" horiz-adv-x="759" 
d="M175.5 7.5q-60.5 22.5 -95.5 64t-35 95.5q0 65 40.5 110.5t122.5 83.5q-45 49 -65.5 76t-28.5 51t-8 59q0 61 61.5 102t191.5 69q122 0 183 -31.5t61 -88.5q0 -35 -22.5 -61.5t-63 -49t-115.5 -55.5l147 -173l66 72l-71 10v25h190v-25l-74 -10l-91 -96l170 -200l25 -10
v-25h-224l-98 106q-63 -63 -132 -121q-74 0 -134.5 22.5zM406 593q0 40 -16.5 69t-45.5 29q-55 0 -55 -62q0 -66 94 -175q23 39 23 139zM420 131l-194 210q-16 -25 -16 -74q0 -38 19.5 -72t54.5 -54t77 -20q39 0 59 10z" />
    <glyph glyph-name="quotesingle" unicode="'" horiz-adv-x="260" 
d="M49 627l28 78h111l28 -78l-76 -231h-15z" />
    <glyph glyph-name="parenleft" unicode="(" horiz-adv-x="344" 
d="M159.5 -93.5q-59.5 70.5 -87 151.5t-27.5 186t27.5 186t87 151.5t159.5 144.5l10 -13q-159 -165 -159 -469t159 -469l-10 -13q-100 74 -159.5 144.5z" />
    <glyph glyph-name="parenright" unicode=")" horiz-adv-x="344" 
d="M15 -225q159 165 159 469t-159 469l10 13q100 -74 159.5 -144.5t87 -151.5t27.5 -186t-27.5 -186t-87 -151.5t-159.5 -144.5z" />
    <glyph glyph-name="asterisk" unicode="*" horiz-adv-x="474" 
d="M63 453l169 87l-187 -27l54 166l135 -134l-84 170h175l-87 -170l137 131l54 -166l-189 30l169 -87l-141 -103l-32 187l-32 -187z" />
    <glyph glyph-name="plus" unicode="+" 
d="M292 237h-240v35h240v243h35v-243h240v-35h-240v-237h-35v237z" />
    <glyph glyph-name="comma" unicode="," horiz-adv-x="302" 
d="M114 -145l65 139l-44 -3l-41 9l-9 89l16 75l115 9l41 -9l10 -88l-18 -77l-108 -155z" />
    <glyph glyph-name="hyphen" unicode="-" horiz-adv-x="370" 
d="M32 312h305v-65h-305v65z" />
    <glyph glyph-name="period" unicode="." horiz-adv-x="292" 
d="M79 0l-9 89l16 75l115 9l41 -9l10 -88l-18 -76l-114 -9z" />
    <glyph glyph-name="slash" unicode="/" horiz-adv-x="471" 
d="M443 718h38l-451 -948h-40z" />
    <glyph glyph-name="zero" unicode="0" horiz-adv-x="631" 
d="M164 15q-57 30 -90.5 85.5t-33.5 128.5q0 84 41 137t104.5 82t154.5 52q70 0 127.5 -30t90.5 -85.5t33 -128.5q0 -84 -40.5 -137t-104.5 -82t-156 -52q-69 0 -126 30zM359 70.5q12 52.5 12 157.5q0 116 -13.5 176.5t-51.5 60.5q-36 0 -47.5 -52.5t-11.5 -157.5
q0 -116 13.5 -176.5t50.5 -60.5q36 0 48 52.5z" />
    <glyph glyph-name="one" unicode="1" horiz-adv-x="466" 
d="M41 25l105 10v362l-113 -34l-8 25l296 112h25v-465l105 -10v-25h-410v25z" />
    <glyph glyph-name="two" unicode="2" horiz-adv-x="597" 
d="M20 22l179 150q67 56 96 105.5t29 98.5q0 37 -14 61t-39 24h-15l-40 -190h-183v134l286 95q112 0 165.5 -35t53.5 -94q0 -65 -58.5 -112t-182.5 -84l-102 -30h372v-25l-47 -120h-487z" />
    <glyph glyph-name="three" unicode="3" horiz-adv-x="578" 
d="M35 -68h281q13 21 17.5 40.5t4.5 51.5q0 54 -42.5 86.5t-111.5 30.5l-9 20l79 59q41 32 55.5 60t14.5 77q0 41 -18.5 65.5t-49.5 24.5h-11l-45 -161h-170v114l308 100q95 0 148.5 -30t53.5 -84q0 -53 -58 -89.5t-163 -49.5q67 0 120.5 -20.5t83.5 -57t30 -81.5t-17 -75.5
t-60 -59t-130 -67.5l-255 -114h-56v160z" />
    <glyph glyph-name="four" unicode="4" horiz-adv-x="624" 
d="M290 -6h-260l-15 20l298 471h256v-25l-525 -440h246v101l200 119v-221h124v-25h-124v-209h-200v209z" />
    <glyph glyph-name="five" unicode="5" horiz-adv-x="543" 
d="M30 -60h229q19 28 24.5 52.5t5.5 52.5q0 22 -12 45.5t-36.5 39.5t-60.5 16q-27 0 -47 -5.5t-43 -16.5l-33 -16l-13 9l48 368h398l-39 -160h-356l-27 -194l259 135q62 0 102.5 -23.5t59.5 -58.5t19 -70q0 -66 -47.5 -112t-129.5 -90l-246 -132h-55v160z" />
    <glyph glyph-name="six" unicode="6" horiz-adv-x="634" 
d="M553 404.5q41 -47.5 41 -133.5q0 -110 -70 -178.5t-212 -107.5q-83 0 -144.5 34t-94.5 98t-33 151q0 159 113 273.5t336 179.5l7 -17q-88 -55 -132.5 -100t-64.5 -102.5t-25 -151.5l165 102q73 0 114 -47.5zM360.5 60.5q13.5 53.5 13.5 151.5q0 75 -9 104.5t-34 29.5
q-8 0 -18.5 -4t-24.5 -11l-15 -8q-1 -21 -1 -67q0 -135 11.5 -192t37.5 -57t39.5 53.5z" />
    <glyph glyph-name="seven" unicode="7" horiz-adv-x="535" 
d="M69 -195l357 520h-406v160h479l16 -20l-309 -680h-137v20z" />
    <glyph glyph-name="eight" unicode="8" horiz-adv-x="651" 
d="M578 286.5q28 -41.5 28 -100.5q0 -56 -29.5 -93.5t-90 -63t-158.5 -44.5q-282 22 -282 178q0 60 40 92.5t118 55.5l-31 23q-45 34 -70.5 57.5t-41.5 54.5t-16 71q0 86 77 137t216 63q117 -9 189 -48.5t72 -110.5q0 -48 -39.5 -81t-131.5 -54l69 -54q53 -41 81 -82.5z
M263.5 674.5q-21.5 -14.5 -21.5 -48.5q0 -39 28 -71t76 -69l43 -34q13 35 13 107q0 71 -25.5 100.5t-63.5 29.5q-28 0 -49.5 -14.5zM401 86q0 41 -19 72.5t-60 62.5l-76 58q-11 -43 -11 -100q0 -168 100 -168q66 0 66 75z" />
    <glyph glyph-name="nine" unicode="9" horiz-adv-x="644" 
d="M512 427q72 -73 72 -202q0 -160 -115.5 -279.5t-333.5 -184.5l-7 17q89 57 134.5 104.5t65 105.5t23.5 150l-161 -108q-73 0 -116.5 49.5t-43.5 137.5q0 107 69.5 175.5t212.5 107.5q128 0 200 -73zM351 158q1 19 1 60q0 138 -12.5 199t-38.5 61q-24 0 -37.5 -49
t-13.5 -145q0 -81 11 -115.5t37 -34.5q8 0 15.5 3t13 6.5t8.5 5.5z" />
    <glyph glyph-name="colon" unicode=":" horiz-adv-x="307" 
d="M84 321l-9 89l16 75l115 9l41 -9l10 -88l-18 -76l-114 -9zM84 0l-9 89l16 75l115 9l41 -9l10 -88l-18 -76l-114 -9z" />
    <glyph glyph-name="semicolon" unicode=";" horiz-adv-x="327" 
d="M84 321l-9 89l16 75l115 9l41 -9l10 -88l-18 -76l-114 -9zM104 -145l65 139l-44 -3l-41 9l-9 89l16 75l115 9l41 -9l10 -88l-18 -77l-108 -155z" />
    <glyph glyph-name="less" unicode="&#x3c;" 
d="M50 272v30l520 246v-40l-472 -221l472 -221v-40z" />
    <glyph glyph-name="equal" unicode="=" 
d="M47 360h525v-35h-525v35zM47 165h525v-35h-525v35z" />
    <glyph glyph-name="greater" unicode="&#x3e;" 
d="M50 66l472 221l-472 221v40l520 -246v-30l-520 -246v40z" />
    <glyph glyph-name="question" unicode="?" horiz-adv-x="465" 
d="M118 321l25 23q38 35 55 87.5t17 131.5q0 51 -17 84t-46 42l-107 -183h-25v194l155 11q116 -12 173 -58t57 -120q0 -78 -50.5 -123t-155.5 -77l-12 -2l-27 -116h-35zM63 0l-8 84l15 70l108 9l39 -9l9 -83l-17 -71l-107 -9z" />
    <glyph glyph-name="at" unicode="@" horiz-adv-x="982" 
d="M249.5 -69q-95.5 45 -147.5 126t-52 186q0 95 47.5 182t132 151t191.5 95l103 29q204 0 308.5 -72.5t104.5 -201.5q0 -90 -45 -164t-124.5 -122.5t-179.5 -64.5l-89 62l24 98l-148 -162q-48 9 -79.5 51.5t-31.5 110.5q0 83 55 153t141 105l105 43l149 -45l-89 -391
q48 11 88.5 48.5t65 100.5t24.5 146q0 78 -37 139t-103.5 95t-150.5 34q-85 0 -161.5 -46.5t-123.5 -133t-47 -200.5q0 -113 51.5 -188.5t129.5 -111t160 -35.5q99 0 192 52l7 -16q-120 -66 -248 -98q-127 0 -222.5 45zM531 268l41 168l-95 45q-44 -31 -64 -78.5t-20 -97.5
q0 -81 57 -118z" />
    <glyph glyph-name="A" unicode="A" horiz-adv-x="711" 
d="M5 25l40 10l216 624l178 61l227 -685l40 -10v-25h-352v25l70 10l-61 199h-213l-66 -199l70 -10v-25h-149v25zM354 264l-93 305l-101 -305h194z" />
    <glyph glyph-name="B" unicode="B" horiz-adv-x="643" 
d="M20 25l40 10v630l-40 10v25h380q62 0 106.5 -22t67 -57.5t22.5 -74.5q0 -75 -59.5 -119.5t-194.5 -51.5q144 -5 207.5 -54.5t63.5 -120.5q0 -88 -65.5 -138t-187.5 -62h-340v25zM301 385q32 0 53.5 44.5t21.5 115.5q0 62 -16.5 96t-49.5 34l-30 -10v-280h21zM369.5 74.5
q23.5 49.5 23.5 123.5q0 79 -26.5 120.5t-65.5 41.5h-21v-325l30 -10q36 0 59.5 49.5z" />
    <glyph glyph-name="C" unicode="C" horiz-adv-x="716" 
d="M223 20q-89 38 -141 116t-52 193q0 176 104 271.5t306 117.5q79 0 128 -11t107 -37v-215h-25l-99 193q-38 44 -95 44q-81 0 -128.5 -86t-47.5 -252q0 -160 46 -252t129 -92q57 0 97 40l99 202h25v-217q-73 -25 -123 -36t-130 -17q-111 0 -200 38z" />
    <glyph glyph-name="D" unicode="D" horiz-adv-x="735" 
d="M20 25l40 10v630l-40 10v25h345q170 0 255 -88t85 -242q0 -161 -82.5 -255.5t-263.5 -114.5h-339v25zM400.5 68.5q36.5 43.5 55.5 120.5t19 176q0 139 -39.5 224.5t-120.5 85.5l-35 -10v-630l35 -10q49 0 85.5 43.5z" />
    <glyph glyph-name="E" unicode="E" horiz-adv-x="606" 
d="M20 25l40 10v630l-40 10v25h561v-200h-25l-87 175h-189v-295h80l55 133h25v-290h-25l-55 132h-80v-330h189l80 184h25v-209h-554v25z" />
    <glyph glyph-name="F" unicode="F" horiz-adv-x="586" 
d="M20 25l40 10v630l-40 10v25h556v-209h-25l-97 184h-174v-311h80l55 132h25v-290h-25l-55 133h-80v-304l65 -10v-25h-325v25z" />
    <glyph glyph-name="G" unicode="G" horiz-adv-x="735" 
d="M207 24q-80 42 -128.5 120.5t-48.5 182.5q0 178 105 273.5t312 117.5q74 0 122 -11t106 -37v-215h-25l-102 193q-19 23 -41.5 33.5t-55.5 10.5q-48 0 -87 -38.5t-61.5 -112.5t-22.5 -176q0 -164 32.5 -258.5t101.5 -94.5q14 0 23 3.5t18 11.5v266l-60 10v30h325v-30
l-45 -10v-253q-64 -24 -128 -36.5t-167 -21.5q-93 0 -173 42z" />
    <glyph glyph-name="H" unicode="H" horiz-adv-x="730" 
d="M20 25l40 10v630l-40 10v25h295v-25l-35 -10v-287h170v287l-35 10v25h295v-25l-40 -10v-630l40 -10v-25h-295v25l35 10v313h-170v-313l35 -10v-25h-295v25z" />
    <glyph glyph-name="I" unicode="I" horiz-adv-x="340" 
d="M20 25l40 10v630l-40 10v25h300v-25l-40 -10v-630l40 -10v-25h-300v25z" />
    <glyph glyph-name="J" unicode="J" horiz-adv-x="385" 
d="M5 -20h102l1 31q2 48 2 84v570l-72 10v25h332v-25l-40 -10v-455q0 -153 -171 -314l-76 -71h-78v155z" />
    <glyph glyph-name="K" unicode="K" horiz-adv-x="764" 
d="M20 25l40 10v630l-40 10v25h295v-25l-35 -10v-299l298 299l-90 11v24h228v-24l-98 -11l-290 -287l156 59l243 -402l27 -10v-25h-265l-209 342v-307l35 -10v-25h-295v25z" />
    <glyph glyph-name="L" unicode="L" horiz-adv-x="591" 
d="M20 25l40 10v630l-40 10v25h300v-25l-40 -10v-630h168l108 179h25v-214h-561v25z" />
    <glyph glyph-name="M" unicode="M" horiz-adv-x="928" 
d="M20 25l40 10v630l-40 10v25h282l177 -464l172 464h257v-25l-45 -10v-630l45 -10v-25h-305v25l40 10v552l-218 -592h-106l-229 634v-594l55 -10v-25h-125v25z" />
    <glyph glyph-name="N" unicode="N" horiz-adv-x="667" 
d="M90 626v-591l55 -10v-25h-125v25l40 10v630l-40 10v25h297l270 -391v356l-55 10v25h125v-25l-40 -10v-670h-109z" />
    <glyph glyph-name="O" unicode="O" horiz-adv-x="785" 
d="M194 25q-79 43 -121.5 123t-42.5 189q0 106 39 179t121 121t215 81q107 0 186 -43t121.5 -123t42.5 -189q0 -106 -39 -179t-121 -121t-215 -81q-107 0 -186 43zM484 101.5q21 86.5 21 218.5q0 107 -16.5 190t-46 129t-68.5 46q-51 0 -72.5 -87t-21.5 -217
q0 -108 16.5 -191t46 -129t68.5 -46q52 0 73 86.5z" />
    <glyph glyph-name="P" unicode="P" horiz-adv-x="613" 
d="M20 25l40 10v630l-40 10v25h365q92 0 155 -43.5t63 -133.5q0 -65 -34.5 -105.5t-93.5 -63.5t-154 -44h-41v-275l36 -10v-25h-296v25zM296 335q33 0 55 49t22 129q0 72 -18.5 117t-49.5 45l-25 -10v-330h16z" />
    <glyph glyph-name="Q" unicode="Q" horiz-adv-x="785" 
d="M760 -140l-4 -30h-193l-183 152q-107 0 -186 43t-121.5 123t-42.5 189q0 106 39 179t121 121t215 81q107 0 186 -43t121.5 -123t42.5 -189q0 -104 -37 -175.5t-114.5 -119.5t-203.5 -81h191l132 -111zM296.5 190q16.5 -83 46 -129t68.5 -46q52 0 73 86.5t21 218.5
q0 107 -16.5 190t-46 129t-68.5 46q-51 0 -72.5 -87t-21.5 -217q0 -108 16.5 -191z" />
    <glyph glyph-name="R" unicode="R" horiz-adv-x="687" 
d="M682 25v-25h-254l-133 330h-15v-295l36 -10v-25h-296v25l40 10v630l-40 10v25h385q88 0 145.5 -44t57.5 -127q0 -88 -73 -138.5t-221 -57.5l223 -43l114 -255zM351.5 399.5q21.5 44.5 21.5 119.5q0 65 -19.5 110.5t-48.5 45.5l-25 -10v-310h11q39 0 60.5 44.5z" />
    <glyph glyph-name="S" unicode="S" horiz-adv-x="566" 
d="M143 -4q-51 14 -111 49v215h25l66 -150q35 -46 67.5 -71.5t72.5 -25.5q45 0 73 25t28 67q0 33 -16.5 59t-57.5 56l-148 109q-58 43 -84.5 82.5t-26.5 99.5q0 76 58 129.5t207 77.5q76 0 108.5 -4.5t100.5 -25.5v-208h-25l-79 168q-20 23 -41.5 34t-49.5 11
q-39 0 -65 -20.5t-26 -62.5q0 -34 18.5 -58.5t56.5 -52.5l142 -104q58 -42 81.5 -82t23.5 -101q0 -89 -69 -145t-217 -85q-61 0 -112 14z" />
    <glyph glyph-name="T" unicode="T" horiz-adv-x="592" 
d="M106 25l80 10v640h-46l-105 -192h-25v217h572v-217h-25l-105 192h-46v-640l80 -10v-25h-380v25z" />
    <glyph glyph-name="U" unicode="U" horiz-adv-x="658" 
d="M132 49.5q-82 67.5 -82 184.5v431l-40 10v25h300v-25l-40 -10v-440q0 -77 41.5 -125t107.5 -48t107.5 48t41.5 125v440l-45 10v25h125v-25l-40 -10v-438q0 -62 -19.5 -107.5t-73.5 -81t-153 -56.5q-148 0 -230 67.5z" />
    <glyph glyph-name="V" unicode="V" horiz-adv-x="711" 
d="M44 665l-39 10v25h342v-25l-61 -10l162 -504l166 504l-66 10v25h158v-25l-53 -10l-212 -648l-160 -35z" />
    <glyph glyph-name="W" unicode="W" horiz-adv-x="1086" 
d="M49 665l-39 10v25h342v-25l-61 -10l147 -504l75 307l-64 197l-39 10v25h342v-25l-61 -10l147 -504l146 504l-66 10v25h158v-25l-53 -10l-192 -648l-160 -35l-140 429l-98 -394l-162 -35z" />
    <glyph glyph-name="X" unicode="X" horiz-adv-x="753" 
d="M10 25l88 10l196 256l-229 374l-35 12v23h328v-25l-35 -10l130 -212l154 212l-74 10v25h183v-25l-73 -10l-173 -240l240 -390l33 -10v-25h-326v25l35 10l-142 230l-174 -230l73 -10v-25h-199v25z" />
    <glyph glyph-name="Y" unicode="Y" horiz-adv-x="715" 
d="M176 25l83 10v237l-201 393l-53 10v25h376v-25l-66 -10l156 -342l156 342l-70 10v25h153v-25l-53 -10l-178 -391v-239l82 -10v-25h-385v25z" />
    <glyph glyph-name="Z" unicode="Z" 
d="M10 15l344 660h-182l-107 -194h-25v219h570v-15l-342 -660h170l122 199h20v-224h-570v15z" />
    <glyph glyph-name="bracketleft" unicode="[" horiz-adv-x="333" 
d="M85 715h213v-25l-93 -10v-404v-471l93 -10v-25h-213v945z" />
    <glyph glyph-name="backslash" unicode="\" horiz-adv-x="411" 
d="M-40 718h38l453 -948h-40z" />
    <glyph glyph-name="bracketright" unicode="]" horiz-adv-x="313" 
d="M35 -205l93 10v457v418l-93 10v25h193v-945h-193v25z" />
    <glyph glyph-name="asciicircum" unicode="^" horiz-adv-x="391" 
d="M183 705h25l133 -245h-36l-109 206l-110 -206h-36z" />
    <glyph glyph-name="underscore" unicode="_" horiz-adv-x="565" 
d="M5 -65h555v-35h-555v35z" />
    <glyph glyph-name="grave" unicode="`" horiz-adv-x="600" 
d="M145 710h160l40 -151h-45z" />
    <glyph glyph-name="a" unicode="a" horiz-adv-x="572" 
d="M70 18.5q-45 33.5 -45 98.5q0 35 13.5 66t42.5 51l228 62v120q0 32 -6 43t-25 11q-13 0 -25 -4l-16 -150h-188v102l236 82q80 0 127.5 -8t77 -39.5t29.5 -97.5v-217q0 -42 9 -81l36 3l3 -25l-223 -47l-29 77l-134 -80q-66 0 -111 33.5zM306 88l3 2v182l-40 -14
q-31 -30 -31 -94q0 -39 11 -62t29 -23q15 0 28 9z" />
    <glyph glyph-name="b" unicode="b" horiz-adv-x="591" 
d="M52 20v634l-39 -2l-3 33l217 25h25v-316l139 106q77 0 126 -56.5t49 -157.5q0 -112 -67 -192.5t-213 -108.5q-130 0 -234 35zM346 206q0 109 -13 145.5t-37 36.5q-8 0 -17.5 -4.5t-16.5 -8.5l-10 -6v-349q9 -8 23 -8q71 0 71 194z" />
    <glyph glyph-name="c" unicode="c" horiz-adv-x="491" 
d="M145 14q-56 29 -88 81.5t-32 120.5q0 76 36.5 135t98 96.5t137.5 52.5q40 0 82 -14.5t79 -41.5v-136h-162l-28 158q-5 3 -8 3q-11 0 -25 -14t-24.5 -44.5t-10.5 -77.5q0 -60 21 -106.5t58.5 -72t86.5 -25.5q30 0 48 4t45 15l7 -14q-59 -59 -97 -89t-98 -60q-70 0 -126 29
z" />
    <glyph glyph-name="d" unicode="d" horiz-adv-x="600" 
d="M125.5 13.5q-46.5 28.5 -73.5 81t-27 122.5q0 237 211 283q60 0 103 -28v187l-39 -2l-3 28l217 25h24v-571q0 -34 1.5 -50t8.5 -34h34l3 -25l-207 -42l-34 102l-116 -105q-56 0 -102.5 28.5zM334 110l5 3v337q-7 6 -20 6q-74 0 -74 -174q0 -179 61 -179q15 0 28 7z" />
    <glyph glyph-name="e" unicode="e" horiz-adv-x="514" 
d="M489 268h-281q15 -61 55.5 -95.5t100.5 -34.5q34 0 56.5 5.5t50.5 19.5l14 -19q-50 -57 -97.5 -92t-112.5 -67q-72 0 -128.5 29t-89 81.5t-32.5 120.5q0 75 36 134.5t97 97.5t136 52q46 0 90.5 -18.5t74.5 -59t30 -103.5v-51zM284 368q0 53 -9.5 74t-29.5 21
q-23 0 -34.5 -27.5t-11.5 -92.5q0 -29 4 -50h81v75z" />
    <glyph glyph-name="f" unicode="f" horiz-adv-x="395" 
d="M25 25l50 10v404h-50v25h50v6q0 35 26 71t68 66l141 103h110v-125h-135l-3 -16q-7 -42 -7 -90v-15h122v-25h-122v-404l70 -10v-25h-320v25z" />
    <glyph glyph-name="g" unicode="g" horiz-adv-x="585" 
d="M76 -226q-61 19 -61 79v20l118 84q-47 11 -73 38.5t-26 66.5v30l110 90q-49 21 -76.5 59.5t-27.5 87.5q1 71 60 109t178 62q80 0 136 -34t70 -89l36 123h60v-155h-91v-5q-1 -51 -28.5 -84t-77 -54.5t-130.5 -40.5q-48 0 -85 12l-22 -24q0 -9 8.5 -14.5t23.5 -5.5h262
q51 0 78 -32t27 -81q0 -65 -35 -111t-92 -77.5t-156 -72.5q-125 0 -186 19zM292.5 214.5q5.5 29.5 5.5 107.5q0 90 -9 123t-29 33q-19 0 -24.5 -29.5t-5.5 -107.5q0 -90 9 -123t29 -33q19 0 24.5 29.5zM452 -115q40 9 40 35q0 34 -37 34h-298q-7 -11 -7 -29q0 -25 39.5 -37
t121.5 -12q101 0 141 9z" />
    <glyph glyph-name="h" unicode="h" horiz-adv-x="627" 
d="M32 25l40 10v624l-39 -2l-3 28l217 25h25v-317l171 107q51 0 78.5 -12.5t39 -44t11.5 -89.5v-319l40 -10v-25h-275v25l25 10v323q0 16 -7 25.5t-20 9.5q-14 0 -24 -4t-24 -12l-15 -9v-333l25 -10v-25h-265v25z" />
    <glyph glyph-name="i" unicode="i" horiz-adv-x="332" 
d="M32 25l40 10v397l-39 -2l-3 28l217 37h25v-460l40 -10v-25h-280v25zM91 544l-10 90l15 70l115 9l44 -9l7 -82l-15 -78l-116 -8z" />
    <glyph glyph-name="j" unicode="j" horiz-adv-x="320" 
d="M-20 -73h89l2 26q4 48 4 128v351l-39 -2l-3 28l216 37h26v-359q0 -68 -8.5 -109.5t-33.5 -77t-76 -81.5l-121 -108h-56v167zM93 544l-10 90l15 70l115 9l44 -9l7 -82l-15 -78l-116 -8z" />
    <glyph glyph-name="k" unicode="k" horiz-adv-x="653" 
d="M32 25l40 10v624l-39 -2l-3 28l217 25h25v-430l226 170l-66 10v25h191v-25l-70 -10l-233 -164l141 33l164 -284l23 -10v-25h-248l-128 263v-228l40 -10v-25h-280v25z" />
    <glyph glyph-name="l" unicode="l" horiz-adv-x="327" 
d="M32 25l40 10v624l-39 -2l-3 28l217 25h25v-675l40 -10v-25h-280v25z" />
    <glyph glyph-name="m" unicode="m" horiz-adv-x="917" 
d="M32 25l40 10v400l-39 -2l-3 25l217 37h25v-102l171 107q64 0 92.5 -26t30.5 -81l172 107q51 0 77.5 -14t36.5 -44t10 -83v-324l40 -10v-25h-275v25l25 10v320q0 17 -7.5 27.5t-22.5 10.5q-16 0 -49 -22l-6 -4v-332l25 -10v-25h-260v25l25 10v320q0 38 -30 38
q-15 0 -49 -22l-6 -4v-332l25 -10v-25h-265v25z" />
    <glyph glyph-name="n" unicode="n" horiz-adv-x="627" 
d="M32 25l40 10v397l-39 -2l-3 28l217 37h25v-101l171 106q54 0 81.5 -14t37.5 -45t10 -87v-319l40 -10v-25h-275v25l25 10v323q0 16 -7 25.5t-20 9.5q-14 0 -24 -4t-24 -12l-15 -9v-333l25 -10v-25h-265v25z" />
    <glyph glyph-name="o" unicode="o" horiz-adv-x="571" 
d="M141 15q-54 30 -85 85.5t-31 128.5q0 84 38.5 137t99 82t147.5 52q66 0 120 -30t85 -85.5t31 -128.5q0 -84 -38.5 -137t-99 -82t-148.5 -52q-65 0 -119 30zM324 59q10 39 10 137q0 92 -8.5 152.5t-22 88.5t-28.5 28q-18 0 -28.5 -40.5t-10.5 -140.5q0 -132 17.5 -198
t41.5 -66q19 0 29 39z" />
    <glyph glyph-name="p" unicode="p" horiz-adv-x="596" 
d="M17 -205l40 10v630l-39 -2l-3 25l203 37h25l11 -97l129 102q53 0 95.5 -27t67.5 -79.5t25 -125.5q0 -109 -45 -179.5t-166 -103.5q-62 0 -103 27v-207l60 -10v-25h-300v25zM334.5 72q16.5 43 16.5 126q0 184 -61 184q-15 0 -28 -7l-5 -3v-337q8 -6 22 -6q39 0 55.5 43z
" />
    <glyph glyph-name="q" unicode="q" horiz-adv-x="592" 
d="M281 -205l58 10v284l-134 -104q-51 0 -92 25t-64.5 73.5t-23.5 115.5q0 112 65.5 193t207.5 108q116 0 179 -30l37 30h25v-695l48 -10v-25h-306v25zM319 102.5q8 3.5 14 7.5l6 4v347q-10 10 -27 10q-38 0 -52.5 -48.5t-14.5 -148.5q0 -83 12 -129t45 -46q9 0 17 3.5z" />
    <glyph glyph-name="r" unicode="r" horiz-adv-x="450" 
d="M32 25l40 10v400l-39 -2l-3 25l202 37h25l13 -183l69 183h96v-192h-151l-12 -25v-242l74 -11v-25h-314v25z" />
    <glyph glyph-name="s" unicode="s" horiz-adv-x="447" 
d="M121 -9.5q-53 8.5 -87 23.5v172h25l72 -133q27 -26 44.5 -35.5t42.5 -9.5t41.5 13t16.5 30q0 18 -12 31t-48 38l-116 81q-36 25 -55.5 55.5t-19.5 73.5q0 59 50 105.5t148 64.5q63 0 97 -5.5t79 -24.5v-155h-25l-91 136q-14 14 -26.5 19.5t-29.5 5.5q-19 0 -32 -11.5
t-13 -30.5q0 -20 13 -35.5t53 -43.5l114 -79q34 -23 49.5 -50.5t15.5 -66.5q0 -60 -46 -107t-147 -70q-60 0 -113 8.5z" />
    <glyph glyph-name="t" unicode="t" horiz-adv-x="392" 
d="M94 21.5q-34 36.5 -34 101.5v316h-55v25h55v56l200 105v-161h109v-25h-109v-298q0 -25 14.5 -38.5t34.5 -13.5q17 0 30.5 3.5t37.5 13.5l10 -23l-203 -98q-56 0 -90 36.5z" />
    <glyph glyph-name="u" unicode="u" horiz-adv-x="608" 
d="M101 0.5q-29 15.5 -40 48t-11 87.5v295l-35 -2v25l220 41h25v-360q0 -39 37 -39q16 0 42 14l6 3v318l-35 -2v25l211 41h24v-353q0 -28 2 -44.5t7 -36.5h31l3 -25l-218 -44l-20 96l-166 -103q-54 0 -83 15.5z" />
    <glyph glyph-name="v" unicode="v" horiz-adv-x="548" 
d="M30 450l-25 10v25h293v-25l-46 -10l115 -337l109 337l-46 10v25h113v-25l-30 -10l-139 -430l-177 -45z" />
    <glyph glyph-name="w" unicode="w" horiz-adv-x="872" 
d="M28 450l-23 10v25h279v-25l-43 -10l100 -355l73 263l-26 92l-23 10v25h279v-25l-43 -10l100 -355l99 355l-43 10v25h110v-25l-28 -10l-118 -431l-196 -40l-90 309l-74 -269l-196 -40z" />
    <glyph glyph-name="x" unicode="x" horiz-adv-x="610" 
d="M20 25l47 10l147 166l-175 249l-29 10v25h316v-25l-41 -10l91 -131l113 131l-40 10v25h123v-25l-48 -10l-130 -156l180 -259l31 -10v-25h-322v25l47 10l-99 141l-125 -141l57 -10v-25h-143v25z" />
    <glyph glyph-name="y" unicode="y" horiz-adv-x="570" 
d="M69 -68h184l113 145l-183 -61l-153 434l-25 10v25h294v-25l-46 -10l119 -354l123 354l-46 10v25h116v-25l-31 -10l-137 -394l-146 -291h-182v167z" />
    <glyph glyph-name="z" unicode="z" horiz-adv-x="538" 
d="M25 20l258 445h-95l-109 -183h-25v203h459v-20l-248 -445h104l106 201h25v-221h-475v20z" />
    <glyph glyph-name="braceleft" unicode="{" horiz-adv-x="370" 
d="M160.5 -191.5q-44.5 38.5 -44.5 101.5v285l-66 74q31 17 45 33t17.5 33.5t3.5 49.5v190q0 41 23 73t61.5 49.5t81.5 17.5h48v-25h-28q-66 0 -66 -105v-180q0 -50 -14.5 -80t-61.5 -48l76 -67v-310q0 -105 66 -105h28v-25h-58q-67 0 -111.5 38.5z" />
    <glyph glyph-name="bar" unicode="|" horiz-adv-x="255" 
d="M110 718h35v-963h-35v963z" />
    <glyph glyph-name="braceright" unicode="}" horiz-adv-x="370" 
d="M40 -205h28q66 0 66 105v240q0 50 14.5 80t61.5 48l-76 67v250q0 105 -66 105h-28v25h58q67 0 111.5 -38.5t44.5 -101.5v-225l66 -74q-31 -17 -45 -33t-17.5 -33.5t-3.5 -49.5v-250q0 -41 -23 -73t-61.5 -49.5t-81.5 -17.5h-48v25z" />
    <glyph glyph-name="asciitilde" unicode="~" horiz-adv-x="669" 
d="M87 285l98 37l356 -82l53 75h25l-37 -80l-98 -37l-356 82l-53 -75h-25z" />
    <glyph glyph-name="uni00A0" unicode="&#xa0;" horiz-adv-x="280" 
 />
    <glyph glyph-name="exclamdown" unicode="&#xa1;" horiz-adv-x="345" 
d="M97 326l-9 83l17 71l107 9l39 -9l8 -84l-15 -70l-108 -9zM80 74l75 171h35l75 -170l15 -305h-215z" />
    <glyph glyph-name="cent" unicode="&#xa2;" horiz-adv-x="506" 
d="M385 46q-37 -29 -96 -59v-67h-25v66q-65 4 -116 34t-79.5 81t-28.5 115q0 100 62 170.5t162 101.5v62h25v-55l23 5q40 0 82 -14.5t79 -41.5v-136h-162l-28 158q-5 3 -8 3q-11 0 -25 -14t-24.5 -44.5t-10.5 -77.5q0 -60 21 -106.5t58.5 -72t86.5 -25.5q30 0 48 4t45 15
l7 -14q-59 -59 -96 -88z" />
    <glyph glyph-name="sterling" unicode="&#xa3;" horiz-adv-x="555" 
d="M515 194v-194h-475v25l40 10v320h-40v25h40v120q0 64 46 109.5t110.5 71t123.5 34.5q93 0 152 -27v-188h-25l-55 147q-15 18 -31 28t-37 10q-43 0 -63.5 -26.5t-20.5 -73.5v-205h121v-25h-121v-176q0 -58 -9.5 -90.5t-33.5 -58.5h168l85 164h25z" />
    <glyph glyph-name="currency" unicode="&#xa4;" 
d="M84 157l70 70q-22 26 -34 59t-12 69t12 69t34 59l-70 70l28 27l69 -69q54 46 129 46t129 -46l69 69l28 -27l-70 -70q22 -26 34 -59t12 -69t-12 -69t-34 -59l70 -70l-28 -27l-69 69q-54 -46 -129 -46t-129 46l-69 -69zM395 210.5q37 22.5 57 61t20 83.5t-20 83.5t-57 61
t-85 22.5t-85 -22.5t-57 -61t-20 -83.5t20 -83.5t57 -61t85 -22.5t85 22.5z" />
    <glyph glyph-name="yen" unicode="&#xa5;" horiz-adv-x="727" 
d="M707 675l-53 -10l-175 -393v-8h117v-25h-117v-80h117v-25h-117v-99l82 -10v-25h-385v25l83 10v99h-108v25h108v80h-108v25h108v8l-186 393l-53 10v25h374v-25l-61 -10l141 -341l150 341l-70 10v25h153v-25z" />
    <glyph glyph-name="brokenbar" unicode="&#xa6;" horiz-adv-x="255" 
d="M110 718h35v-430h-35v430zM110 185h35v-430h-35v430z" />
    <glyph glyph-name="section" unicode="&#xa7;" horiz-adv-x="619" 
d="M539 189.5q-40 -52.5 -115 -88.5l108 -70v-46q0 -90 -61.5 -144t-180.5 -86q-52 0 -98 14.5t-71 34.5v161h25l32 -105q2 -4 16.5 -27.5t41.5 -38t63 -14.5q18 0 37 12t32 34t13 49v18l-203 131q-62 40 -90 86.5t-28 94.5q0 50 35.5 95t104.5 68q-101 68 -101 155
q0 69 57 120.5t157 74.5q64 0 108 -11t86 -33v-166h-25l-56 135q-23 27 -44 38.5t-46 11.5q-45 0 -66.5 -19t-21.5 -49q0 -31 17.5 -56t63.5 -54l250 -157v-37q0 -79 -40 -131.5zM431 211l-206 139q-22 -19 -22 -48q0 -27 13 -48t34.5 -38t63.5 -44l85 -55q32 31 32 79v15z
" />
    <glyph glyph-name="dieresis" unicode="&#xa8;" horiz-adv-x="600" 
d="M86 564l-7 70l13 58l86 7l35 -7l9 -69l-15 -59l-84 -7zM286 564l-7 70l13 58l86 7l35 -7l9 -69l-15 -59l-84 -7z" />
    <glyph glyph-name="copyright" unicode="&#xa9;" horiz-adv-x="862" 
d="M241 30.5q-87 44.5 -139 128.5t-52 197q0 153 101.5 243.5t278.5 115.5q104 -1 191 -45.5t139 -128.5t52 -197q0 -153 -101.5 -243.5t-278.5 -115.5q-104 1 -191 45.5zM579 52q68 40 108.5 115t40.5 177q0 111 -46.5 189t-115 116.5t-134.5 38.5q-80 0 -148 -40
t-109 -115.5t-41 -176.5q0 -111 46.5 -189t115.5 -116.5t134 -38.5q81 0 149 40zM276.5 192q-68.5 50 -68.5 146q0 194 253 221q49 0 79.5 -8.5t65.5 -28.5v-123h-15l-66 114q-24 31 -59 31q-47 0 -74.5 -48.5t-27.5 -142.5q0 -90 26.5 -142t74.5 -52q32 0 60 25l67 122h16
v-125q-50 -19 -80.5 -27.5t-77.5 -11.5q-105 0 -173.5 50z" />
    <glyph glyph-name="ordfeminine" unicode="&#xaa;" horiz-adv-x="509" 
d="M78 339.5q-37 26.5 -37 77.5q0 64 46 93l187 47v98q0 23 -5 30.5t-21 7.5q-13 0 -20 -2l-14 -120h-153v81l193 64q68 0 105.5 -5.5t62 -29.5t24.5 -77v-170q0 -34 7 -62l30 2l2 -21l-183 -38l-23 60l-110 -62q-54 0 -91 26.5zM271 395l2 1l1 142l-33 -9q-26 -23 -26 -73
q0 -31 9 -49t24 -18q11 0 23 6z" />
    <glyph glyph-name="guillemotleft" unicode="&#xab;" horiz-adv-x="451" 
d="M15 235l183 220h35l-127 -221l127 -219h-37zM203 235l183 220h35l-127 -221l127 -219h-37z" />
    <glyph glyph-name="logicalnot" unicode="&#xac;" 
d="M532 315h-480v35h515v-170h-35v135z" />
    <glyph glyph-name="uni00AD" unicode="&#xad;" horiz-adv-x="370" 
d="M32 312h305v-65h-305v65z" />
    <glyph glyph-name="registered" unicode="&#xae;" horiz-adv-x="592" 
d="M421.5 654q57.5 -30 91.5 -87.5t34 -135.5q0 -105 -66.5 -167t-183.5 -79q-68 1 -126 31.5t-92 88t-34 134.5q0 105 66.5 167t183.5 79q69 -1 126.5 -31zM400 228q48 26 76.5 77.5t28.5 125.5q0 81 -32.5 134t-80.5 78t-95 25q-57 0 -105 -26t-76.5 -77.5t-28.5 -125.5
q0 -80 32.5 -133.5t80.5 -78.5t95 -25q57 0 105 26zM448 311v-10h-107l-51 127h-17v-114l16 -3v-10h-120v10l17 3v244l-17 3v10h162q37 0 61.5 -17t24.5 -49q0 -34 -30.5 -54t-91.5 -22l92 -17l48 -98zM278 438q21 0 32.5 17t11.5 46q0 25 -11 42.5t-27 17.5l-11 -3v-120h5z
" />
    <glyph glyph-name="macron" unicode="&#xaf;" horiz-adv-x="600" 
d="M100 660h300v-80h-300v80z" />
    <glyph glyph-name="degree" unicode="&#xb0;" horiz-adv-x="441" 
d="M140.5 454q-36.5 22 -58.5 58.5t-22 79.5q0 64 39 101.5t122 59.5q43 0 79.5 -22t58.5 -58.5t22 -79.5q0 -64 -39 -101.5t-122 -59.5q-43 0 -79.5 22zM281.5 531.5q25.5 25.5 25.5 60.5q0 36 -25.5 61.5t-60.5 25.5q-36 0 -61.5 -25.5t-25.5 -60.5q0 -36 25.5 -61.5
t60.5 -25.5q36 0 61.5 25.5z" />
    <glyph glyph-name="plusminus" unicode="&#xb1;" 
d="M292 366h-240v35h240v243h35v-243h240v-35h-240v-237h-35v237zM47 35h525v-35h-525v35z" />
    <glyph glyph-name="uni00B2" unicode="&#xb2;" horiz-adv-x="419" 
d="M29 413l108 120q40 45 65.5 91t25.5 80q0 25 -11 45t-31 20q-5 0 -11 2l-24 -119h-116v80l180 63q78 0 114 -27t36 -72q0 -47 -43.5 -90t-126.5 -77l-77 -32h252v-16l-29 -81h-302z" />
    <glyph glyph-name="uni00B3" unicode="&#xb3;" horiz-adv-x="414" 
d="M44 490h170q7 12 9.5 21.5t2.5 24.5q0 29 -24.5 45.5t-66.5 15.5l-6 12l48 36q24 18 32.5 31.5t8.5 40.5q0 23 -11 35t-29 12q-1 0 -5 2l-28 -93h-104v65l187 57q66 0 94.5 -17.5t28.5 -44.5q0 -24 -29.5 -44.5t-104.5 -26.5q53 0 84.5 -15.5t44 -36t12.5 -36.5
q0 -29 -12.5 -46.5t-36.5 -31t-76 -35.5l-156 -67h-33v96z" />
    <glyph glyph-name="acute" unicode="&#xb4;" horiz-adv-x="600" 
d="M195 710h160l-155 -151h-45z" />
    <glyph glyph-name="uni00B5" unicode="&#xb5;" 
d="M575 25v-25h-186l-50 90l-170 -105q-69 0 -99 33v-48l125 -200h-150v715h210v-350q0 -18 9 -26t27 -8q19 0 33 9l11 6v369h200v-450z" />
    <glyph glyph-name="paragraph" unicode="&#xb6;" horiz-adv-x="554" 
d="M264 360q-55 0 -109 19t-89.5 58.5t-35.5 96.5q0 47 27 83.5t70 57.5t88 25h299v-25l-45 -10v-825h-35v835h-135v-835h-35v520z" />
    <glyph glyph-name="periodcentered" unicode="&#xb7;" horiz-adv-x="266" 
d="M62 332l-7 76l7 64l101 9l39 -9l9 -74l-9 -66l-101 -7z" />
    <glyph glyph-name="cedilla" unicode="&#xb8;" horiz-adv-x="600" 
d="M158 -180h91q13 19 13 40q0 27 -11.5 36t-35.5 14l66 96h25l-27 -36q44 -7 64.5 -29.5t20.5 -49.5q0 -25 -18 -43t-39 -28t-72 -30l-86 -35h-32z" />
    <glyph glyph-name="uni00B9" unicode="&#xb9;" horiz-adv-x="318" 
d="M48 416l62 6v309l-67 -16l-5 15l179 64h16v-372l62 -6v-16h-247v16z" />
    <glyph glyph-name="ordmasculine" unicode="&#xba;" horiz-adv-x="509" 
d="M136 336.5q-44 23.5 -69.5 67t-25.5 100.5q0 66 31.5 107.5t81 64t121.5 40.5q54 0 98 -23.5t69.5 -66.5t25.5 -100q0 -66 -31.5 -108t-81 -64.5t-121.5 -40.5q-54 0 -98 23.5zM286.5 371q8.5 29 8.5 106q0 107 -14.5 159t-34.5 52q-15 0 -23.5 -30.5t-8.5 -108.5
q0 -106 14 -156.5t34 -50.5q16 0 24.5 29z" />
    <glyph glyph-name="guillemotright" unicode="&#xbb;" horiz-adv-x="451" 
d="M157 234l-127 221h35l183 -220l-181 -220h-37zM345 234l-127 221h35l183 -220l-181 -220h-37z" />
    <glyph glyph-name="onequarter" unicode="&#xbc;" horiz-adv-x="838" 
d="M48 331l62 6v309l-67 -16l-5 15l179 64h16v-372l62 -6v-16h-247v16zM545 710h39l-385 -760h-41zM615 113h-156l-9 12l179 260h157v-16l-318 -241h147v47l123 73v-120h74v-15h-74v-113h-123v113z" />
    <glyph glyph-name="onehalf" unicode="&#xbd;" horiz-adv-x="843" 
d="M48 331l62 6v309l-67 -16l-5 15l179 64h16v-372l62 -6v-16h-247v16zM545 710h39l-385 -760h-41zM453 13l108 120q40 45 65.5 91t25.5 80q0 25 -11 45t-31 20q-5 0 -11 2l-24 -119h-116v80l180 63q78 0 114 -27t36 -72q0 -47 -43.5 -90t-126.5 -77l-77 -32h252v-16
l-29 -81h-302z" />
    <glyph glyph-name="threequarters" unicode="&#xbe;" horiz-adv-x="934" 
d="M44 405h170q7 12 9.5 21.5t2.5 24.5q0 29 -24.5 45.5t-66.5 15.5l-6 12l48 36q24 18 32.5 31.5t8.5 40.5q0 23 -11 35t-29 12q-1 0 -5 2l-28 -93h-104v65l187 57q66 0 94.5 -17.5t28.5 -44.5q0 -24 -29.5 -44.5t-104.5 -26.5q53 0 84.5 -15.5t44 -36t12.5 -36.5
q0 -29 -12.5 -46.5t-36.5 -31t-76 -35.5l-156 -67h-33v96zM641 710h39l-385 -760h-41zM711 113h-156l-9 12l179 260h157v-16l-318 -241h147v47l123 73v-120h74v-15h-74v-113h-123v113z" />
    <glyph glyph-name="questiondown" unicode="&#xbf;" horiz-adv-x="465" 
d="M362 472l8 -84l-15 -70l-108 -9l-39 9l-9 83l17 71l107 9zM307 151l-25 -23q-38 -35 -55 -87.5t-17 -131.5q0 -51 17 -84t46 -42l107 183h25v-194l-155 -11q-116 12 -173 58t-57 120q0 78 50.5 123t155.5 77l12 2l27 116h35z" />
    <glyph glyph-name="Agrave" unicode="&#xc0;" horiz-adv-x="711" 
d="M211 909h155l45 -138h-35zM5 25l40 10l216 624l178 61l227 -685l40 -10v-25h-352v25l70 10l-61 199h-213l-66 -199l70 -10v-25h-149v25zM354 264l-93 305l-101 -305h194z" />
    <glyph glyph-name="Aacute" unicode="&#xc1;" horiz-adv-x="711" 
d="M365 909h155l-165 -138h-35zM5 25l40 10l216 624l178 61l227 -685l40 -10v-25h-352v25l70 10l-61 199h-213l-66 -199l70 -10v-25h-149v25zM354 264l-93 305l-101 -305h194z" />
    <glyph glyph-name="Acircumflex" unicode="&#xc2;" horiz-adv-x="711" 
d="M316 909h80l132 -138h-35l-137 66l-137 -66h-35zM5 25l40 10l216 624l178 61l227 -685l40 -10v-25h-352v25l70 10l-61 199h-213l-66 -199l70 -10v-25h-149v25zM354 264l-93 305l-101 -305h194z" />
    <glyph glyph-name="Atilde" unicode="&#xc3;" horiz-adv-x="711" 
d="M212 899l33 10l226 -59l49 59h20l-39 -152l-34 -8l-228 62l-47 -62h-20zM5 25l40 10l216 624l178 61l227 -685l40 -10v-25h-352v25l70 10l-61 199h-213l-66 -199l70 -10v-25h-149v25zM354 264l-93 305l-101 -305h194z" />
    <glyph glyph-name="Adieresis" unicode="&#xc4;" horiz-adv-x="711" 
d="M171 761l-7 70l13 58l86 7l35 -7l9 -69l-15 -59l-84 -7zM411 761l-7 70l13 58l86 7l35 -7l9 -69l-15 -59l-84 -7zM5 25l40 10l216 624l178 61l227 -685l40 -10v-25h-352v25l70 10l-61 199h-213l-66 -199l70 -10v-25h-149v25zM354 264l-93 305l-101 -305h194z" />
    <glyph glyph-name="Aring" unicode="&#xc5;" horiz-adv-x="711" 
d="M270 768q-37 27 -37 85q0 44 33.5 70t89.5 42q57 0 90 -25.5t33 -86.5q0 -46 -32 -72.5t-88 -39.5q-52 0 -89 27zM412 798.5q23 21.5 23 54.5t-23 55t-56 22t-55.5 -22t-22.5 -55t22.5 -54.5t55.5 -21.5t56 21.5zM5 25l40 10l216 624l178 61l227 -685l40 -10v-25h-352v25
l70 10l-61 199h-213l-66 -199l70 -10v-25h-149v25zM354 264l-93 305l-101 -305h194z" />
    <glyph glyph-name="AE" unicode="&#xc6;" horiz-adv-x="1017" 
d="M5 25l40 10l433 665h514v-200h-25l-87 175h-189v-325h80l55 133h25v-290h-25l-55 132h-80v-300h189l80 184h25v-209h-554v25l40 10v290h-197l-185 -290l70 -10v-25h-154v25zM471 350v284l-181 -284h181z" />
    <glyph glyph-name="Ccedilla" unicode="&#xc7;" horiz-adv-x="716" 
d="M565 1q-46 -11 -112 -17l-11 -14q44 -7 64.5 -29.5t20.5 -49.5q0 -25 -18 -43t-39 -28t-72 -30l-86 -35h-32l41 65h91q13 19 13 40q0 27 -11.5 36t-35.5 14l50 72h-5q-111 0 -200 38t-141 116t-52 193q0 176 104 271.5t306 117.5q79 0 128 -11t107 -37v-215h-25l-99 193
q-38 44 -95 44q-81 0 -128.5 -86t-47.5 -252q0 -160 46 -252t129 -92q57 0 97 40l99 202h25v-217q-65 -23 -111 -34z" />
    <glyph glyph-name="Egrave" unicode="&#xc8;" horiz-adv-x="606" 
d="M178 909h155l45 -138h-35zM20 25l40 10v630l-40 10v25h561v-200h-25l-87 175h-189v-295h80l55 133h25v-290h-25l-55 132h-80v-330h189l80 184h25v-209h-554v25z" />
    <glyph glyph-name="Eacute" unicode="&#xc9;" horiz-adv-x="606" 
d="M332 909h155l-165 -138h-35zM20 25l40 10v630l-40 10v25h561v-200h-25l-87 175h-189v-295h80l55 133h25v-290h-25l-55 132h-80v-330h189l80 184h25v-209h-554v25z" />
    <glyph glyph-name="Ecircumflex" unicode="&#xca;" horiz-adv-x="606" 
d="M283 909h80l132 -138h-35l-137 66l-137 -66h-35zM20 25l40 10v630l-40 10v25h561v-200h-25l-87 175h-189v-295h80l55 133h25v-290h-25l-55 132h-80v-330h189l80 184h25v-209h-554v25z" />
    <glyph glyph-name="Edieresis" unicode="&#xcb;" horiz-adv-x="606" 
d="M138 761l-7 70l13 58l86 7l35 -7l9 -69l-15 -59l-84 -7zM378 761l-7 70l13 58l86 7l35 -7l9 -69l-15 -59l-84 -7zM20 25l40 10v630l-40 10v25h561v-200h-25l-87 175h-189v-295h80l55 133h25v-290h-25l-55 132h-80v-330h189l80 184h25v-209h-554v25z" />
    <glyph glyph-name="Igrave" unicode="&#xcc;" horiz-adv-x="340" 
d="M25 909h155l45 -138h-35zM20 25l40 10v630l-40 10v25h300v-25l-40 -10v-630l40 -10v-25h-300v25z" />
    <glyph glyph-name="Iacute" unicode="&#xcd;" horiz-adv-x="340" 
d="M179 909h155l-165 -138h-35zM20 25l40 10v630l-40 10v25h300v-25l-40 -10v-630l40 -10v-25h-300v25z" />
    <glyph glyph-name="Icircumflex" unicode="&#xce;" horiz-adv-x="340" 
d="M130 909h80l132 -138h-35l-137 66l-137 -66h-35zM20 25l40 10v630l-40 10v25h300v-25l-40 -10v-630l40 -10v-25h-300v25z" />
    <glyph glyph-name="Idieresis" unicode="&#xcf;" horiz-adv-x="340" 
d="M-15 761l-7 70l13 58l86 7l35 -7l9 -69l-15 -59l-84 -7zM225 761l-7 70l13 58l86 7l35 -7l9 -69l-15 -59l-84 -7zM20 25l40 10v630l-40 10v25h300v-25l-40 -10v-630l40 -10v-25h-300v25z" />
    <glyph glyph-name="Eth" unicode="&#xd0;" horiz-adv-x="735" 
d="M620 612q85 -88 85 -242q0 -161 -82.5 -255.5t-263.5 -114.5h-339v25l40 10v318h-30v20h30v292l-40 10v25h345q170 0 255 -88zM400.5 68.5q36.5 43.5 55.5 120.5t19 176q0 139 -39.5 224.5t-120.5 85.5l-35 -10v-292h100v-20h-100v-318l35 -10q49 0 85.5 43.5z" />
    <glyph glyph-name="Ntilde" unicode="&#xd1;" horiz-adv-x="667" 
d="M190 899l33 10l226 -59l49 59h20l-39 -152l-34 -8l-228 62l-47 -62h-20zM90 626v-591l55 -10v-25h-125v25l40 10v630l-40 10v25h297l270 -391v356l-55 10v25h125v-25l-40 -10v-670h-109z" />
    <glyph glyph-name="Ograve" unicode="&#xd2;" horiz-adv-x="785" 
d="M248 909h155l45 -138h-35zM194 25q-79 43 -121.5 123t-42.5 189q0 106 39 179t121 121t215 81q107 0 186 -43t121.5 -123t42.5 -189q0 -106 -39 -179t-121 -121t-215 -81q-107 0 -186 43zM484 101.5q21 86.5 21 218.5q0 107 -16.5 190t-46 129t-68.5 46q-51 0 -72.5 -87
t-21.5 -217q0 -108 16.5 -191t46 -129t68.5 -46q52 0 73 86.5z" />
    <glyph glyph-name="Oacute" unicode="&#xd3;" horiz-adv-x="785" 
d="M402 909h155l-165 -138h-35zM194 25q-79 43 -121.5 123t-42.5 189q0 106 39 179t121 121t215 81q107 0 186 -43t121.5 -123t42.5 -189q0 -106 -39 -179t-121 -121t-215 -81q-107 0 -186 43zM484 101.5q21 86.5 21 218.5q0 107 -16.5 190t-46 129t-68.5 46
q-51 0 -72.5 -87t-21.5 -217q0 -108 16.5 -191t46 -129t68.5 -46q52 0 73 86.5z" />
    <glyph glyph-name="Ocircumflex" unicode="&#xd4;" horiz-adv-x="785" 
d="M353 909h80l132 -138h-35l-137 66l-137 -66h-35zM194 25q-79 43 -121.5 123t-42.5 189q0 106 39 179t121 121t215 81q107 0 186 -43t121.5 -123t42.5 -189q0 -106 -39 -179t-121 -121t-215 -81q-107 0 -186 43zM484 101.5q21 86.5 21 218.5q0 107 -16.5 190t-46 129
t-68.5 46q-51 0 -72.5 -87t-21.5 -217q0 -108 16.5 -191t46 -129t68.5 -46q52 0 73 86.5z" />
    <glyph glyph-name="Otilde" unicode="&#xd5;" horiz-adv-x="785" 
d="M249 899l33 10l226 -59l49 59h20l-39 -152l-34 -8l-228 62l-47 -62h-20zM194 25q-79 43 -121.5 123t-42.5 189q0 106 39 179t121 121t215 81q107 0 186 -43t121.5 -123t42.5 -189q0 -106 -39 -179t-121 -121t-215 -81q-107 0 -186 43zM484 101.5q21 86.5 21 218.5
q0 107 -16.5 190t-46 129t-68.5 46q-51 0 -72.5 -87t-21.5 -217q0 -108 16.5 -191t46 -129t68.5 -46q52 0 73 86.5z" />
    <glyph glyph-name="Odieresis" unicode="&#xd6;" horiz-adv-x="785" 
d="M208 761l-7 70l13 58l86 7l35 -7l9 -69l-15 -59l-84 -7zM448 761l-7 70l13 58l86 7l35 -7l9 -69l-15 -59l-84 -7zM194 25q-79 43 -121.5 123t-42.5 189q0 106 39 179t121 121t215 81q107 0 186 -43t121.5 -123t42.5 -189q0 -106 -39 -179t-121 -121t-215 -81
q-107 0 -186 43zM484 101.5q21 86.5 21 218.5q0 107 -16.5 190t-46 129t-68.5 46q-51 0 -72.5 -87t-21.5 -217q0 -108 16.5 -191t46 -129t68.5 -46q52 0 73 86.5z" />
    <glyph glyph-name="multiply" unicode="&#xd7;" 
d="M116 42l170 169l-172 172l25 25l172 -172l169 170l25 -25l-170 -170l168 -167l-25 -25l-167 168l-170 -170z" />
    <glyph glyph-name="Oslash" unicode="&#xd8;" horiz-adv-x="785" 
d="M731.5 508.5q23.5 -65.5 23.5 -145.5q0 -106 -39 -179t-121 -121t-215 -81q-125 0 -212 59l-48 -56h-47l67 78q-54 46 -82 115.5t-28 158.5q0 106 39 179t121 121t215 81q143 0 233 -75l62 72h45l-81 -95q44 -46 67.5 -111.5zM289 236l205 240q-14 97 -46 153t-74 56
q-51 0 -72.5 -87t-21.5 -217q0 -79 9 -145zM484 101.5q21 86.5 21 218.5q0 52 -5 109l-204 -238q17 -83 46.5 -129.5t68.5 -46.5q52 0 73 86.5z" />
    <glyph glyph-name="Ugrave" unicode="&#xd9;" horiz-adv-x="658" 
d="M247 909h155l45 -138h-35zM132 49.5q-82 67.5 -82 184.5v431l-40 10v25h300v-25l-40 -10v-440q0 -77 41.5 -125t107.5 -48t107.5 48t41.5 125v440l-45 10v25h125v-25l-40 -10v-438q0 -62 -19.5 -107.5t-73.5 -81t-153 -56.5q-148 0 -230 67.5z" />
    <glyph glyph-name="Uacute" unicode="&#xda;" horiz-adv-x="658" 
d="M401 909h155l-165 -138h-35zM132 49.5q-82 67.5 -82 184.5v431l-40 10v25h300v-25l-40 -10v-440q0 -77 41.5 -125t107.5 -48t107.5 48t41.5 125v440l-45 10v25h125v-25l-40 -10v-438q0 -62 -19.5 -107.5t-73.5 -81t-153 -56.5q-148 0 -230 67.5z" />
    <glyph glyph-name="Ucircumflex" unicode="&#xdb;" horiz-adv-x="658" 
d="M352 909h80l132 -138h-35l-137 66l-137 -66h-35zM132 49.5q-82 67.5 -82 184.5v431l-40 10v25h300v-25l-40 -10v-440q0 -77 41.5 -125t107.5 -48t107.5 48t41.5 125v440l-45 10v25h125v-25l-40 -10v-438q0 -62 -19.5 -107.5t-73.5 -81t-153 -56.5q-148 0 -230 67.5z" />
    <glyph glyph-name="Udieresis" unicode="&#xdc;" horiz-adv-x="658" 
d="M207 761l-7 70l13 58l86 7l35 -7l9 -69l-15 -59l-84 -7zM447 761l-7 70l13 58l86 7l35 -7l9 -69l-15 -59l-84 -7zM132 49.5q-82 67.5 -82 184.5v431l-40 10v25h300v-25l-40 -10v-440q0 -77 41.5 -125t107.5 -48t107.5 48t41.5 125v440l-45 10v25h125v-25l-40 -10v-438
q0 -62 -19.5 -107.5t-73.5 -81t-153 -56.5q-148 0 -230 67.5z" />
    <glyph glyph-name="Yacute" unicode="&#xdd;" horiz-adv-x="715" 
d="M447 909h155l-165 -138h-35zM176 25l83 10v237l-201 393l-53 10v25h376v-25l-66 -10l156 -342l156 342l-70 10v25h153v-25l-53 -10l-178 -391v-239l82 -10v-25h-385v25z" />
    <glyph glyph-name="Thorn" unicode="&#xde;" horiz-adv-x="613" 
d="M20 25l40 10v630l-40 10v25h300v-25l-40 -10v-103h105q93 0 155.5 -46t62.5 -140q0 -67 -34.5 -109t-93.5 -66t-154 -46h-41v-120l40 -10v-25h-300v25zM296 180q34 0 55.5 51t21.5 135q0 77 -18.5 124t-49.5 47h-25v-357h16z" />
    <glyph glyph-name="germandbls" unicode="&#xdf;" horiz-adv-x="683" 
d="M305 4v177h25l62 -130q18 -21 35.5 -32t37.5 -11t32 16t12 38q0 36 -66 96l-80 72q-34 29 -50 55t-19 76l42 46q35 39 49 76.5t14 83.5q0 50 -14.5 81t-40.5 31q-33 0 -51 -30.5t-18 -74.5v-574h-250v25l50 10v404h-50v25h50v6q0 46 35.5 94t88.5 73l170 81
q118 0 179 -31t61 -100q0 -96 -190 -159q3 -13 15.5 -24.5t39.5 -31.5l36 -27l81 -64q72 -56 72 -131q0 -126 -186 -168q-104 0 -172 22z" />
    <glyph glyph-name="agrave" unicode="&#xe0;" horiz-adv-x="572" 
d="M70 18.5q-45 33.5 -45 98.5q0 35 13.5 66t42.5 51l228 62v120q0 32 -6 43t-25 11q-13 0 -25 -4l-16 -150h-188v102l236 82q80 0 127.5 -8t77 -39.5t29.5 -97.5v-217q0 -42 9 -81l36 3l3 -25l-223 -47l-29 77l-134 -80q-66 0 -111 33.5zM306 88l3 2v182l-40 -14
q-31 -30 -31 -94q0 -39 11 -62t29 -23q15 0 28 9zM114 710h160l40 -151h-45z" />
    <glyph glyph-name="aacute" unicode="&#xe1;" horiz-adv-x="572" 
d="M70 18.5q-45 33.5 -45 98.5q0 35 13.5 66t42.5 51l228 62v120q0 32 -6 43t-25 11q-13 0 -25 -4l-16 -150h-188v102l236 82q80 0 127.5 -8t77 -39.5t29.5 -97.5v-217q0 -42 9 -81l36 3l3 -25l-223 -47l-29 77l-134 -80q-66 0 -111 33.5zM306 88l3 2v182l-40 -14
q-31 -30 -31 -94q0 -39 11 -62t29 -23q15 0 28 9zM310 710h160l-155 -151h-45z" />
    <glyph glyph-name="acircumflex" unicode="&#xe2;" horiz-adv-x="572" 
d="M70 18.5q-45 33.5 -45 98.5q0 35 13.5 66t42.5 51l228 62v120q0 32 -6 43t-25 11q-13 0 -25 -4l-16 -150h-188v102l236 82q80 0 127.5 -8t77 -39.5t29.5 -97.5v-217q0 -42 9 -81l36 3l3 -25l-223 -47l-29 77l-134 -80q-66 0 -111 33.5zM306 88l3 2v182l-40 -14
q-31 -30 -31 -94q0 -39 11 -62t29 -23q15 0 28 9zM248 710h90l117 -151h-55l-107 82l-107 -82h-55z" />
    <glyph glyph-name="atilde" unicode="&#xe3;" horiz-adv-x="572" 
d="M70 18.5q-45 33.5 -45 98.5q0 35 13.5 66t42.5 51l228 62v120q0 32 -6 43t-25 11q-13 0 -25 -4l-16 -150h-188v102l236 82q80 0 127.5 -8t77 -39.5t29.5 -97.5v-217q0 -42 9 -81l36 3l3 -25l-223 -47l-29 77l-134 -80q-66 0 -111 33.5zM306 88l3 2v182l-40 -14
q-31 -30 -31 -94q0 -39 11 -62t29 -23q15 0 28 9zM172 619l-46 -58h-18l46 136l36 10l224 -57l45 58h19l-46 -137l-36 -10z" />
    <glyph glyph-name="adieresis" unicode="&#xe4;" horiz-adv-x="572" 
d="M70 18.5q-45 33.5 -45 98.5q0 35 13.5 66t42.5 51l228 62v120q0 32 -6 43t-25 11q-13 0 -25 -4l-16 -150h-188v102l236 82q80 0 127.5 -8t77 -39.5t29.5 -97.5v-217q0 -42 9 -81l36 3l3 -25l-223 -47l-29 77l-134 -80q-66 0 -111 33.5zM306 88l3 2v182l-40 -14
q-31 -30 -31 -94q0 -39 11 -62t29 -23q15 0 28 9zM128 564l-7 70l13 58l86 7l35 -7l9 -69l-15 -59l-84 -7zM328 564l-7 70l13 58l86 7l35 -7l9 -69l-15 -59l-84 -7z" />
    <glyph glyph-name="aring" unicode="&#xe5;" horiz-adv-x="572" 
d="M70 18.5q-45 33.5 -45 98.5q0 35 13.5 66t42.5 51l228 62v120q0 32 -6 43t-25 11q-13 0 -25 -4l-16 -150h-188v102l236 82q80 0 127.5 -8t77 -39.5t29.5 -97.5v-217q0 -42 9 -81l36 3l3 -25l-223 -47l-29 77l-134 -80q-66 0 -111 33.5zM306 88l3 2v182l-40 -14
q-31 -30 -31 -94q0 -39 11 -62t29 -23q15 0 28 9zM207 577q-37 27 -37 85q0 44 33.5 70t89.5 42q57 0 90 -25.5t33 -86.5q0 -46 -32 -72.5t-88 -39.5q-52 0 -89 27zM349 607.5q23 21.5 23 54.5t-23 55t-56 22t-55.5 -22t-22.5 -55t22.5 -54.5t55.5 -21.5t56 21.5z" />
    <glyph glyph-name="ae" unicode="&#xe6;" horiz-adv-x="798" 
d="M773 268h-284q14 -61 55.5 -95.5t103.5 -34.5q34 0 56.5 5.5t50.5 19.5l14 -19q-50 -57 -97.5 -92t-112.5 -67q-66 0 -120.5 26.5t-87.5 74.5l-170 -101q-66 0 -111 33.5t-45 98.5q0 35 13.5 66t42.5 51l228 62v120q0 32 -6 43t-25 11q-13 0 -25 -4l-16 -155h-188v107
l236 82q86 0 125 -7.5t64 -26.5q46 23 104 34q46 0 90.5 -18.5t74.5 -59t30 -103.5v-51zM568 293q0 68 -3 103.5t-11 51t-23 15.5q-21 0 -34.5 -34t-13.5 -101q0 -13 2 -35h83zM309 272l-40 -14q-31 -30 -31 -94q0 -39 11 -62t29 -23q13 0 28 10l3 2v94v87z" />
    <glyph glyph-name="ccedilla" unicode="&#xe7;" horiz-adv-x="491" 
d="M325.5 -59.5q20.5 -22.5 20.5 -49.5q0 -25 -18 -43t-39 -28t-72 -30l-86 -35h-32l41 65h91q13 19 13 40q0 27 -11.5 36t-35.5 14l52 76q-65 4 -116 34t-79.5 81t-28.5 115q0 76 36.5 135t98 96.5t137.5 52.5q40 0 82 -14.5t79 -41.5v-136h-162l-28 158q-5 3 -8 3
q-11 0 -25 -14t-24.5 -44.5t-10.5 -77.5q0 -60 21 -106.5t58.5 -72t86.5 -25.5q30 0 48 4t45 15l7 -14q-59 -59 -96.5 -88.5t-96.5 -59.5l-12 -16q44 -7 64.5 -29.5z" />
    <glyph glyph-name="egrave" unicode="&#xe8;" horiz-adv-x="514" 
d="M489 268h-281q15 -61 55.5 -95.5t100.5 -34.5q34 0 56.5 5.5t50.5 19.5l14 -19q-50 -57 -97.5 -92t-112.5 -67q-72 0 -128.5 29t-89 81.5t-32.5 120.5q0 75 36 134.5t97 97.5t136 52q46 0 90.5 -18.5t74.5 -59t30 -103.5v-51zM284 368q0 53 -9.5 74t-29.5 21
q-23 0 -34.5 -27.5t-11.5 -92.5q0 -29 4 -50h81v75zM105 710h160l40 -151h-45z" />
    <glyph glyph-name="eacute" unicode="&#xe9;" horiz-adv-x="514" 
d="M489 268h-281q15 -61 55.5 -95.5t100.5 -34.5q34 0 56.5 5.5t50.5 19.5l14 -19q-50 -57 -97.5 -92t-112.5 -67q-72 0 -128.5 29t-89 81.5t-32.5 120.5q0 75 36 134.5t97 97.5t136 52q46 0 90.5 -18.5t74.5 -59t30 -103.5v-51zM284 368q0 53 -9.5 74t-29.5 21
q-23 0 -34.5 -27.5t-11.5 -92.5q0 -29 4 -50h81v75zM301 710h160l-155 -151h-45z" />
    <glyph glyph-name="ecircumflex" unicode="&#xea;" horiz-adv-x="514" 
d="M489 268h-281q15 -61 55.5 -95.5t100.5 -34.5q34 0 56.5 5.5t50.5 19.5l14 -19q-50 -57 -97.5 -92t-112.5 -67q-72 0 -128.5 29t-89 81.5t-32.5 120.5q0 75 36 134.5t97 97.5t136 52q46 0 90.5 -18.5t74.5 -59t30 -103.5v-51zM284 368q0 53 -9.5 74t-29.5 21
q-23 0 -34.5 -27.5t-11.5 -92.5q0 -29 4 -50h81v75zM239 710h90l117 -151h-55l-107 82l-107 -82h-55z" />
    <glyph glyph-name="edieresis" unicode="&#xeb;" horiz-adv-x="514" 
d="M489 268h-281q15 -61 55.5 -95.5t100.5 -34.5q34 0 56.5 5.5t50.5 19.5l14 -19q-50 -57 -97.5 -92t-112.5 -67q-72 0 -128.5 29t-89 81.5t-32.5 120.5q0 75 36 134.5t97 97.5t136 52q46 0 90.5 -18.5t74.5 -59t30 -103.5v-51zM284 368q0 53 -9.5 74t-29.5 21
q-23 0 -34.5 -27.5t-11.5 -92.5q0 -29 4 -50h81v75zM119 564l-7 70l13 58l86 7l35 -7l9 -69l-15 -59l-84 -7zM319 564l-7 70l13 58l86 7l35 -7l9 -69l-15 -59l-84 -7z" />
    <glyph glyph-name="igrave" unicode="&#xec;" horiz-adv-x="332" 
d="M32 25l40 10v397l-39 -2l-3 28l217 37h25v-460l40 -10v-25h-280v25zM-7 710h160l40 -151h-45z" />
    <glyph glyph-name="iacute" unicode="&#xed;" horiz-adv-x="332" 
d="M32 25l40 10v397l-39 -2l-3 28l217 37h25v-460l40 -10v-25h-280v25zM189 710h160l-155 -151h-45z" />
    <glyph glyph-name="icircumflex" unicode="&#xee;" horiz-adv-x="332" 
d="M32 25l40 10v397l-39 -2l-3 28l217 37h25v-460l40 -10v-25h-280v25zM127 710h90l117 -151h-55l-107 82l-107 -82h-55z" />
    <glyph glyph-name="idieresis" unicode="&#xef;" horiz-adv-x="332" 
d="M32 25l40 10v397l-39 -2l-3 28l217 37h25v-460l40 -10v-25h-280v25zM7 564l-7 70l13 58l86 7l35 -7l9 -69l-15 -59l-84 -7zM207 564l-7 70l13 58l86 7l35 -7l9 -69l-15 -59l-84 -7z" />
    <glyph glyph-name="eth" unicode="&#xf0;" horiz-adv-x="619" 
d="M579 268q0 -86 -32.5 -150t-94 -98.5t-145.5 -34.5q-139 38 -210.5 105t-71.5 185q0 75 37.5 126t117.5 51l165 -103q-3 76 -19 130t-51 99l-84 -41v23l71 34q-45 52 -139 110l7 17q122 -38 213 -88l100 48v-21l-80 -39q216 -133 216 -353zM346 323l-15 8q-28 15 -44 15
q-22 0 -32 -27.5t-10 -92.5q0 -219 53 -219q16 0 25.5 19.5t15 67.5t6.5 135q2 66 1 94z" />
    <glyph glyph-name="ntilde" unicode="&#xf1;" horiz-adv-x="627" 
d="M32 25l40 10v397l-39 -2l-3 28l217 37h25v-101l171 106q54 0 81.5 -14t37.5 -45t10 -87v-319l40 -10v-25h-275v25l25 10v323q0 16 -7 25.5t-20 9.5q-14 0 -24 -4t-24 -12l-15 -9v-333l25 -10v-25h-265v25zM193 619l-46 -58h-18l46 136l36 10l224 -57l45 58h19l-46 -137
l-36 -10z" />
    <glyph glyph-name="ograve" unicode="&#xf2;" horiz-adv-x="571" 
d="M141 15q-54 30 -85 85.5t-31 128.5q0 84 38.5 137t99 82t147.5 52q66 0 120 -30t85 -85.5t31 -128.5q0 -84 -38.5 -137t-99 -82t-148.5 -52q-65 0 -119 30zM324 59q10 39 10 137q0 92 -8.5 152.5t-22 88.5t-28.5 28q-18 0 -28.5 -40.5t-10.5 -140.5q0 -132 17.5 -198
t41.5 -66q19 0 29 39zM107 710h160l40 -151h-45z" />
    <glyph glyph-name="oacute" unicode="&#xf3;" horiz-adv-x="571" 
d="M141 15q-54 30 -85 85.5t-31 128.5q0 84 38.5 137t99 82t147.5 52q66 0 120 -30t85 -85.5t31 -128.5q0 -84 -38.5 -137t-99 -82t-148.5 -52q-65 0 -119 30zM324 59q10 39 10 137q0 92 -8.5 152.5t-22 88.5t-28.5 28q-18 0 -28.5 -40.5t-10.5 -140.5q0 -132 17.5 -198
t41.5 -66q19 0 29 39zM303 710h160l-155 -151h-45z" />
    <glyph glyph-name="ocircumflex" unicode="&#xf4;" horiz-adv-x="571" 
d="M141 15q-54 30 -85 85.5t-31 128.5q0 84 38.5 137t99 82t147.5 52q66 0 120 -30t85 -85.5t31 -128.5q0 -84 -38.5 -137t-99 -82t-148.5 -52q-65 0 -119 30zM324 59q10 39 10 137q0 92 -8.5 152.5t-22 88.5t-28.5 28q-18 0 -28.5 -40.5t-10.5 -140.5q0 -132 17.5 -198
t41.5 -66q19 0 29 39zM241 710h90l117 -151h-55l-107 82l-107 -82h-55z" />
    <glyph glyph-name="otilde" unicode="&#xf5;" horiz-adv-x="571" 
d="M141 15q-54 30 -85 85.5t-31 128.5q0 84 38.5 137t99 82t147.5 52q66 0 120 -30t85 -85.5t31 -128.5q0 -84 -38.5 -137t-99 -82t-148.5 -52q-65 0 -119 30zM324 59q10 39 10 137q0 92 -8.5 152.5t-22 88.5t-28.5 28q-18 0 -28.5 -40.5t-10.5 -140.5q0 -132 17.5 -198
t41.5 -66q19 0 29 39zM165 619l-46 -58h-18l46 136l36 10l224 -57l45 58h19l-46 -137l-36 -10z" />
    <glyph glyph-name="odieresis" unicode="&#xf6;" horiz-adv-x="571" 
d="M141 15q-54 30 -85 85.5t-31 128.5q0 84 38.5 137t99 82t147.5 52q66 0 120 -30t85 -85.5t31 -128.5q0 -84 -38.5 -137t-99 -82t-148.5 -52q-65 0 -119 30zM324 59q10 39 10 137q0 92 -8.5 152.5t-22 88.5t-28.5 28q-18 0 -28.5 -40.5t-10.5 -140.5q0 -132 17.5 -198
t41.5 -66q19 0 29 39zM121 564l-7 70l13 58l86 7l35 -7l9 -69l-15 -59l-84 -7zM321 564l-7 70l13 58l86 7l35 -7l9 -69l-15 -59l-84 -7z" />
    <glyph glyph-name="divide" unicode="&#xf7;" 
d="M240 375l-7 76l7 64l101 9l39 -9l9 -74l-9 -66l-101 -7zM47 280h525v-35h-525v35zM240 0l-7 76l7 64l101 9l39 -9l9 -74l-9 -66l-101 -7z" />
    <glyph glyph-name="oslash" unicode="&#xf8;" horiz-adv-x="571" 
d="M527.5 357q18.5 -46 18.5 -101q0 -84 -38.5 -137t-99 -82t-148.5 -52q-87 0 -150 51l-42 -46h-28l55 60q-33 32 -51.5 77.5t-18.5 101.5q0 84 38.5 137t99 82t147.5 52q89 0 152 -52l38 42h26l-50 -54q33 -33 51.5 -79zM238 205l92 100q-6 80 -21.5 120t-33.5 40
t-28.5 -40.5t-10.5 -140.5q0 -31 2 -79zM324 59q10 39 10 137q0 32 -2 82l-92 -100q6 -80 21.5 -119t33.5 -39q19 0 29 39z" />
    <glyph glyph-name="ugrave" unicode="&#xf9;" horiz-adv-x="608" 
d="M101 0.5q-29 15.5 -40 48t-11 87.5v295l-35 -2v25l220 41h25v-360q0 -39 37 -39q16 0 42 14l6 3v318l-35 -2v25l211 41h24v-353q0 -28 2 -44.5t7 -36.5h31l3 -25l-218 -44l-20 96l-166 -103q-54 0 -83 15.5zM125 710h160l40 -151h-45z" />
    <glyph glyph-name="uacute" unicode="&#xfa;" horiz-adv-x="608" 
d="M101 0.5q-29 15.5 -40 48t-11 87.5v295l-35 -2v25l220 41h25v-360q0 -39 37 -39q16 0 42 14l6 3v318l-35 -2v25l211 41h24v-353q0 -28 2 -44.5t7 -36.5h31l3 -25l-218 -44l-20 96l-166 -103q-54 0 -83 15.5zM321 710h160l-155 -151h-45z" />
    <glyph glyph-name="ucircumflex" unicode="&#xfb;" horiz-adv-x="608" 
d="M101 0.5q-29 15.5 -40 48t-11 87.5v295l-35 -2v25l220 41h25v-360q0 -39 37 -39q16 0 42 14l6 3v318l-35 -2v25l211 41h24v-353q0 -28 2 -44.5t7 -36.5h31l3 -25l-218 -44l-20 96l-166 -103q-54 0 -83 15.5zM259 710h90l117 -151h-55l-107 82l-107 -82h-55z" />
    <glyph glyph-name="udieresis" unicode="&#xfc;" horiz-adv-x="608" 
d="M101 0.5q-29 15.5 -40 48t-11 87.5v295l-35 -2v25l220 41h25v-360q0 -39 37 -39q16 0 42 14l6 3v318l-35 -2v25l211 41h24v-353q0 -28 2 -44.5t7 -36.5h31l3 -25l-218 -44l-20 96l-166 -103q-54 0 -83 15.5zM139 564l-7 70l13 58l86 7l35 -7l9 -69l-15 -59l-84 -7z
M339 564l-7 70l13 58l86 7l35 -7l9 -69l-15 -59l-84 -7z" />
    <glyph glyph-name="yacute" unicode="&#xfd;" horiz-adv-x="570" 
d="M69 -68h184l113 145l-183 -61l-153 434l-25 10v25h294v-25l-46 -10l119 -354l123 354l-46 10v25h116v-25l-31 -10l-137 -394l-146 -291h-182v167zM302 710h160l-155 -151h-45z" />
    <glyph glyph-name="thorn" unicode="&#xfe;" horiz-adv-x="581" 
d="M22 -205l40 10v854l-39 -2l-3 28l217 25h25v-310l126 100q53 0 95.5 -27t67.5 -79.5t25 -125.5q0 -109 -45 -179.5t-166 -103.5q-62 0 -103 27v-207l60 -10v-25h-300v25zM339.5 72q16.5 43 16.5 126q0 184 -61 184q-15 0 -28 -7l-5 -3v-337q8 -6 22 -6q39 0 55.5 43z" />
    <glyph glyph-name="ydieresis" unicode="&#xff;" horiz-adv-x="570" 
d="M69 -68h184l113 145l-183 -61l-153 434l-25 10v25h294v-25l-46 -10l119 -354l123 354l-46 10v25h116v-25l-31 -10l-137 -394l-146 -291h-182v167zM120 564l-7 70l13 58l86 7l35 -7l9 -69l-15 -59l-84 -7zM320 564l-7 70l13 58l86 7l35 -7l9 -69l-15 -59l-84 -7z" />
    <glyph glyph-name="Amacron" unicode="&#x100;" horiz-adv-x="711" 
d="M206 868h300v-80h-300v80zM5 25l40 10l216 624l178 61l227 -685l40 -10v-25h-352v25l70 10l-61 199h-213l-66 -199l70 -10v-25h-149v25zM354 264l-93 305l-101 -305h194z" />
    <glyph glyph-name="amacron" unicode="&#x101;" horiz-adv-x="572" 
d="M70 18.5q-45 33.5 -45 98.5q0 35 13.5 66t42.5 51l228 62v120q0 32 -6 43t-25 11q-13 0 -25 -4l-16 -150h-188v102l236 82q80 0 127.5 -8t77 -39.5t29.5 -97.5v-217q0 -42 9 -81l36 3l3 -25l-223 -47l-29 77l-134 -80q-66 0 -111 33.5zM306 88l3 2v182l-40 -14
q-31 -30 -31 -94q0 -39 11 -62t29 -23q15 0 28 9zM143 660h300v-80h-300v80z" />
    <glyph glyph-name="Abreve" unicode="&#x102;" horiz-adv-x="711" 
d="M265.5 800q-46.5 36 -69.5 90l19 15q62 -59 143 -59q48 0 79 16.5t59 42.5l19 -15q-22 -47 -49 -72t-93 -54q-61 0 -107.5 36zM5 25l40 10l216 624l178 61l227 -685l40 -10v-25h-352v25l70 10l-61 199h-213l-66 -199l70 -10v-25h-149v25zM354 264l-93 305l-101 -305h194z
" />
    <glyph glyph-name="abreve" unicode="&#x103;" horiz-adv-x="572" 
d="M70 18.5q-45 33.5 -45 98.5q0 35 13.5 66t42.5 51l228 62v120q0 32 -6 43t-25 11q-13 0 -25 -4l-16 -150h-188v102l236 82q80 0 127.5 -8t77 -39.5t29.5 -97.5v-217q0 -42 9 -81l36 3l3 -25l-223 -47l-29 77l-134 -80q-66 0 -111 33.5zM306 88l3 2v182l-40 -14
q-31 -30 -31 -94q0 -39 11 -62t29 -23q15 0 28 9zM202.5 600q-46.5 36 -69.5 90l19 15q62 -59 143 -59q48 0 79 16.5t59 42.5l19 -15q-22 -47 -49 -72t-93 -54q-61 0 -107.5 36z" />
    <glyph glyph-name="Aogonek" unicode="&#x104;" horiz-adv-x="711" 
d="M405 -100v-50q0 -37 20 -58.5t83 -21.5v-15q-116 0 -165.5 23.5t-49.5 72.5v74l131 107l-61 202h-213l-66 -199l70 -10v-25h-149v25l40 10l216 624l178 61l227 -685l40 -10v-25h-269zM354 264l-93 305l-101 -305h194z" />
    <glyph glyph-name="aogonek" unicode="&#x105;" horiz-adv-x="572" 
d="M371 -208.5q20 -21.5 83 -21.5v-15q-116 0 -165.5 23.5t-49.5 72.5v74l98 81l-22 59l-134 -80q-66 0 -111 33.5t-45 98.5q0 35 13.5 66t42.5 51l228 62v120q0 32 -6 43t-25 11q-13 0 -25 -4l-16 -150h-188v102l236 82q80 0 127.5 -8t77 -39.5t29.5 -97.5v-217
q0 -42 9 -81l36 3l3 -25l-185 -39l-31 -96v-50q0 -37 20 -58.5zM309 272l-40 -14q-31 -30 -31 -94q0 -39 11 -62t29 -23q15 0 28 9l3 2v182z" />
    <glyph glyph-name="Cacute" unicode="&#x106;" horiz-adv-x="716" 
d="M432 909h155l-165 -138h-35zM223 20q-89 38 -141 116t-52 193q0 176 104 271.5t306 117.5q79 0 128 -11t107 -37v-215h-25l-99 193q-38 44 -95 44q-81 0 -128.5 -86t-47.5 -252q0 -160 46 -252t129 -92q57 0 97 40l99 202h25v-217q-73 -25 -123 -36t-130 -17
q-111 0 -200 38z" />
    <glyph glyph-name="cacute" unicode="&#x107;" horiz-adv-x="491" 
d="M145 14q-56 29 -88 81.5t-32 120.5q0 76 36.5 135t98 96.5t137.5 52.5q40 0 82 -14.5t79 -41.5v-136h-162l-28 158q-5 3 -8 3q-11 0 -25 -14t-24.5 -44.5t-10.5 -77.5q0 -60 21 -106.5t58.5 -72t86.5 -25.5q30 0 48 4t45 15l7 -14q-59 -59 -97 -89t-98 -60q-70 0 -126 29
zM293 710h160l-155 -151h-45z" />
    <glyph glyph-name="Ccircumflex" unicode="&#x108;" horiz-adv-x="716" 
d="M383 909h80l132 -138h-35l-137 66l-137 -66h-35zM223 20q-89 38 -141 116t-52 193q0 176 104 271.5t306 117.5q79 0 128 -11t107 -37v-215h-25l-99 193q-38 44 -95 44q-81 0 -128.5 -86t-47.5 -252q0 -160 46 -252t129 -92q57 0 97 40l99 202h25v-217q-73 -25 -123 -36
t-130 -17q-111 0 -200 38z" />
    <glyph glyph-name="ccircumflex" unicode="&#x109;" horiz-adv-x="491" 
d="M145 14q-56 29 -88 81.5t-32 120.5q0 76 36.5 135t98 96.5t137.5 52.5q40 0 82 -14.5t79 -41.5v-136h-162l-28 158q-5 3 -8 3q-11 0 -25 -14t-24.5 -44.5t-10.5 -77.5q0 -60 21 -106.5t58.5 -72t86.5 -25.5q30 0 48 4t45 15l7 -14q-59 -59 -97 -89t-98 -60q-70 0 -126 29
zM231 710h90l117 -151h-55l-107 82l-107 -82h-55z" />
    <glyph glyph-name="Cdotaccent" unicode="&#x10a;" horiz-adv-x="716" 
d="M356 773l-7 74l14 63l109 7l36 -7l8 -75l-15 -62l-108 -8zM223 20q-89 38 -141 116t-52 193q0 176 104 271.5t306 117.5q79 0 128 -11t107 -37v-215h-25l-99 193q-38 44 -95 44q-81 0 -128.5 -86t-47.5 -252q0 -160 46 -252t129 -92q57 0 97 40l99 202h25v-217
q-73 -25 -123 -36t-130 -17q-111 0 -200 38z" />
    <glyph glyph-name="cdotaccent" unicode="&#x10b;" horiz-adv-x="491" 
d="M145 14q-56 29 -88 81.5t-32 120.5q0 76 36.5 135t98 96.5t137.5 52.5q40 0 82 -14.5t79 -41.5v-136h-162l-28 158q-5 3 -8 3q-11 0 -25 -14t-24.5 -44.5t-10.5 -77.5q0 -60 21 -106.5t58.5 -72t86.5 -25.5q30 0 48 4t45 15l7 -14q-59 -59 -97 -89t-98 -60q-70 0 -126 29
zM204 569l-7 69l13 60l103 6l34 -6l8 -71l-15 -58l-101 -8z" />
    <glyph glyph-name="Ccaron" unicode="&#x10c;" horiz-adv-x="716" 
d="M251 909h35l137 -66l137 66h35l-132 -138h-80zM223 20q-89 38 -141 116t-52 193q0 176 104 271.5t306 117.5q79 0 128 -11t107 -37v-215h-25l-99 193q-38 44 -95 44q-81 0 -128.5 -86t-47.5 -252q0 -160 46 -252t129 -92q57 0 97 40l99 202h25v-217q-73 -25 -123 -36
t-130 -17q-111 0 -200 38z" />
    <glyph glyph-name="ccaron" unicode="&#x10d;" horiz-adv-x="491" 
d="M145 14q-56 29 -88 81.5t-32 120.5q0 76 36.5 135t98 96.5t137.5 52.5q40 0 82 -14.5t79 -41.5v-136h-162l-28 158q-5 3 -8 3q-11 0 -25 -14t-24.5 -44.5t-10.5 -77.5q0 -60 21 -106.5t58.5 -72t86.5 -25.5q30 0 48 4t45 15l7 -14q-59 -59 -97 -89t-98 -60q-70 0 -126 29
zM124 710h55l97 -74l97 74h55l-107 -151h-90z" />
    <glyph glyph-name="Dcaron" unicode="&#x10e;" horiz-adv-x="735" 
d="M166 909h35l137 -66l137 66h35l-132 -138h-80zM20 25l40 10v630l-40 10v25h345q170 0 255 -88t85 -242q0 -161 -82.5 -255.5t-263.5 -114.5h-339v25zM400.5 68.5q36.5 43.5 55.5 120.5t19 176q0 139 -39.5 224.5t-120.5 85.5l-35 -10v-630l35 -10q49 0 85.5 43.5z" />
    <glyph glyph-name="dcaron" unicode="&#x10f;" horiz-adv-x="745" 
d="M125.5 13.5q-46.5 28.5 -73.5 81t-27 122.5q0 237 211 283q60 0 103 -28v187l-39 -2l-3 28l217 25h24v-571q0 -34 1.5 -50t8.5 -34h34l3 -25l-207 -42l-34 102l-116 -105q-56 0 -102.5 28.5zM334 110l5 3v337q-7 6 -20 6q-74 0 -74 -174q0 -179 61 -179q15 0 28 7z
M591 403l83 145l-61 -4l-38 8l-8 84l14 67l108 7l41 -7l7 -78l-13 -73l-114 -157z" />
    <glyph glyph-name="Dcroat" unicode="&#x110;" horiz-adv-x="735" 
d="M620 612q85 -88 85 -242q0 -161 -82.5 -255.5t-263.5 -114.5h-339v25l40 10v318h-30v20h30v292l-40 10v25h345q170 0 255 -88zM400.5 68.5q36.5 43.5 55.5 120.5t19 176q0 139 -39.5 224.5t-120.5 85.5l-35 -10v-292h100v-20h-100v-318l35 -10q49 0 85.5 43.5z" />
    <glyph glyph-name="dcroat" unicode="&#x111;" horiz-adv-x="600" 
d="M585 30l-207 -42l-34 102l-116 -105q-56 0 -102.5 28.5t-73.5 81t-27 122.5q0 237 211 283q60 0 103 -28v100h-92v20h92v67l-39 -2l-3 28l217 25h24v-118h44v-20h-44v-433q0 -34 1.5 -50t8.5 -34h34zM339 450q-7 6 -20 6q-74 0 -74 -174q0 -179 61 -179q15 0 28 7l5 3
v337z" />
    <glyph glyph-name="Emacron" unicode="&#x112;" horiz-adv-x="606" 
d="M173 868h300v-80h-300v80zM20 25l40 10v630l-40 10v25h561v-200h-25l-87 175h-189v-295h80l55 133h25v-290h-25l-55 132h-80v-330h189l80 184h25v-209h-554v25z" />
    <glyph glyph-name="emacron" unicode="&#x113;" horiz-adv-x="514" 
d="M489 268h-281q15 -61 55.5 -95.5t100.5 -34.5q34 0 56.5 5.5t50.5 19.5l14 -19q-50 -57 -97.5 -92t-112.5 -67q-72 0 -128.5 29t-89 81.5t-32.5 120.5q0 75 36 134.5t97 97.5t136 52q46 0 90.5 -18.5t74.5 -59t30 -103.5v-51zM284 368q0 53 -9.5 74t-29.5 21
q-23 0 -34.5 -27.5t-11.5 -92.5q0 -29 4 -50h81v75zM134 660h300v-80h-300v80z" />
    <glyph glyph-name="Ebreve" unicode="&#x114;" horiz-adv-x="606" 
d="M232.5 800q-46.5 36 -69.5 90l19 15q62 -59 143 -59q48 0 79 16.5t59 42.5l19 -15q-22 -47 -49 -72t-93 -54q-61 0 -107.5 36zM20 25l40 10v630l-40 10v25h561v-200h-25l-87 175h-189v-295h80l55 133h25v-290h-25l-55 132h-80v-330h189l80 184h25v-209h-554v25z" />
    <glyph glyph-name="ebreve" unicode="&#x115;" horiz-adv-x="514" 
d="M489 268h-281q15 -61 55.5 -95.5t100.5 -34.5q34 0 56.5 5.5t50.5 19.5l14 -19q-50 -57 -97.5 -92t-112.5 -67q-72 0 -128.5 29t-89 81.5t-32.5 120.5q0 75 36 134.5t97 97.5t136 52q46 0 90.5 -18.5t74.5 -59t30 -103.5v-51zM284 368q0 53 -9.5 74t-29.5 21
q-23 0 -34.5 -27.5t-11.5 -92.5q0 -29 4 -50h81v75zM193.5 600q-46.5 36 -69.5 90l19 15q62 -59 143 -59q48 0 79 16.5t59 42.5l19 -15q-22 -47 -49 -72t-93 -54q-61 0 -107.5 36z" />
    <glyph glyph-name="Edotaccent" unicode="&#x116;" horiz-adv-x="606" 
d="M246 773l-7 74l14 63l109 7l36 -7l8 -75l-15 -62l-108 -8zM20 25l40 10v630l-40 10v25h561v-200h-25l-87 175h-189v-295h80l55 133h25v-290h-25l-55 132h-80v-330h189l80 184h25v-209h-554v25z" />
    <glyph glyph-name="edotaccent" unicode="&#x117;" horiz-adv-x="514" 
d="M489 268h-281q15 -61 55.5 -95.5t100.5 -34.5q34 0 56.5 5.5t50.5 19.5l14 -19q-50 -57 -97.5 -92t-112.5 -67q-72 0 -128.5 29t-89 81.5t-32.5 120.5q0 75 36 134.5t97 97.5t136 52q46 0 90.5 -18.5t74.5 -59t30 -103.5v-51zM284 368q0 53 -9.5 74t-29.5 21
q-23 0 -34.5 -27.5t-11.5 -92.5q0 -29 4 -50h81v75zM212 569l-7 69l13 60l103 6l34 -6l8 -71l-15 -58l-101 -8z" />
    <glyph glyph-name="Eogonek" unicode="&#x118;" horiz-adv-x="606" 
d="M280 675v-295h80l55 133h25v-290h-25l-55 132h-80v-330h189l80 184h25v-209h-76l-32 -100v-50q0 -37 20 -58.5t83 -21.5v-15q-116 0 -165.5 23.5t-49.5 72.5v74l92 75h-426v25l40 10v630l-40 10v25h561v-200h-25l-87 175h-189z" />
    <glyph glyph-name="eogonek" unicode="&#x119;" horiz-adv-x="514" 
d="M489 268h-281q15 -61 55.5 -95.5t100.5 -34.5q34 0 56.5 5.5t50.5 19.5l14 -19q-37 -41 -71 -70.5t-74 -53.5l-38 -120v-50q0 -37 20 -58.5t83 -21.5v-15q-116 0 -165.5 23.5t-49.5 72.5v74l74 60q-69 2 -123.5 32t-85 81.5t-30.5 117.5q0 75 36 134.5t97 97.5t136 52
q46 0 90.5 -18.5t74.5 -59t30 -103.5v-51zM284 368q0 53 -9.5 74t-29.5 21q-23 0 -34.5 -27.5t-11.5 -92.5q0 -29 4 -50h81v75z" />
    <glyph glyph-name="Ecaron" unicode="&#x11a;" horiz-adv-x="606" 
d="M151 909h35l137 -66l137 66h35l-132 -138h-80zM20 25l40 10v630l-40 10v25h561v-200h-25l-87 175h-189v-295h80l55 133h25v-290h-25l-55 132h-80v-330h189l80 184h25v-209h-554v25z" />
    <glyph glyph-name="ecaron" unicode="&#x11b;" horiz-adv-x="514" 
d="M489 268h-281q15 -61 55.5 -95.5t100.5 -34.5q34 0 56.5 5.5t50.5 19.5l14 -19q-50 -57 -97.5 -92t-112.5 -67q-72 0 -128.5 29t-89 81.5t-32.5 120.5q0 75 36 134.5t97 97.5t136 52q46 0 90.5 -18.5t74.5 -59t30 -103.5v-51zM284 368q0 53 -9.5 74t-29.5 21
q-23 0 -34.5 -27.5t-11.5 -92.5q0 -29 4 -50h81v75zM132 710h55l97 -74l97 74h55l-107 -151h-90z" />
    <glyph glyph-name="Gcircumflex" unicode="&#x11c;" horiz-adv-x="735" 
d="M392 909h80l132 -138h-35l-137 66l-137 -66h-35zM207 24q-80 42 -128.5 120.5t-48.5 182.5q0 178 105 273.5t312 117.5q74 0 122 -11t106 -37v-215h-25l-102 193q-19 23 -41.5 33.5t-55.5 10.5q-48 0 -87 -38.5t-61.5 -112.5t-22.5 -176q0 -164 32.5 -258.5t101.5 -94.5
q14 0 23 3.5t18 11.5v266l-60 10v30h325v-30l-45 -10v-253q-64 -24 -128 -36.5t-167 -21.5q-93 0 -173 42z" />
    <glyph glyph-name="gcircumflex" unicode="&#x11d;" horiz-adv-x="585" 
d="M76 -226q-61 19 -61 79v20l118 84q-47 11 -73 38.5t-26 66.5v30l110 90q-49 21 -76.5 59.5t-27.5 87.5q1 71 60 109t178 62q80 0 136 -34t70 -89l36 123h60v-155h-91v-5q-1 -51 -28.5 -84t-77 -54.5t-130.5 -40.5q-48 0 -85 12l-22 -24q0 -9 8.5 -14.5t23.5 -5.5h262
q51 0 78 -32t27 -81q0 -65 -35 -111t-92 -77.5t-156 -72.5q-125 0 -186 19zM292.5 214.5q5.5 29.5 5.5 107.5q0 90 -9 123t-29 33q-19 0 -24.5 -29.5t-5.5 -107.5q0 -90 9 -123t29 -33q19 0 24.5 29.5zM452 -115q40 9 40 35q0 34 -37 34h-298q-7 -11 -7 -29q0 -25 39.5 -37
t121.5 -12q101 0 141 9zM248 710h90l117 -151h-55l-107 82l-107 -82h-55z" />
    <glyph glyph-name="Gbreve" unicode="&#x11e;" horiz-adv-x="735" 
d="M341.5 800q-46.5 36 -69.5 90l19 15q62 -59 143 -59q48 0 79 16.5t59 42.5l19 -15q-22 -47 -49 -72t-93 -54q-61 0 -107.5 36zM207 24q-80 42 -128.5 120.5t-48.5 182.5q0 178 105 273.5t312 117.5q74 0 122 -11t106 -37v-215h-25l-102 193q-19 23 -41.5 33.5t-55.5 10.5
q-48 0 -87 -38.5t-61.5 -112.5t-22.5 -176q0 -164 32.5 -258.5t101.5 -94.5q14 0 23 3.5t18 11.5v266l-60 10v30h325v-30l-45 -10v-253q-64 -24 -128 -36.5t-167 -21.5q-93 0 -173 42z" />
    <glyph glyph-name="gbreve" unicode="&#x11f;" horiz-adv-x="585" 
d="M76 -226q-61 19 -61 79v20l118 84q-47 11 -73 38.5t-26 66.5v30l110 90q-49 21 -76.5 59.5t-27.5 87.5q1 71 60 109t178 62q80 0 136 -34t70 -89l36 123h60v-155h-91v-5q-1 -51 -28.5 -84t-77 -54.5t-130.5 -40.5q-48 0 -85 12l-22 -24q0 -9 8.5 -14.5t23.5 -5.5h262
q51 0 78 -32t27 -81q0 -65 -35 -111t-92 -77.5t-156 -72.5q-125 0 -186 19zM292.5 214.5q5.5 29.5 5.5 107.5q0 90 -9 123t-29 33q-19 0 -24.5 -29.5t-5.5 -107.5q0 -90 9 -123t29 -33q19 0 24.5 29.5zM452 -115q40 9 40 35q0 34 -37 34h-298q-7 -11 -7 -29q0 -25 39.5 -37
t121.5 -12q101 0 141 9zM202.5 600q-46.5 36 -69.5 90l19 15q62 -59 143 -59q48 0 79 16.5t59 42.5l19 -15q-22 -47 -49 -72t-93 -54q-61 0 -107.5 36z" />
    <glyph glyph-name="Gdotaccent" unicode="&#x120;" horiz-adv-x="735" 
d="M355 773l-7 74l14 63l109 7l36 -7l8 -75l-15 -62l-108 -8zM207 24q-80 42 -128.5 120.5t-48.5 182.5q0 178 105 273.5t312 117.5q74 0 122 -11t106 -37v-215h-25l-102 193q-19 23 -41.5 33.5t-55.5 10.5q-48 0 -87 -38.5t-61.5 -112.5t-22.5 -176q0 -164 32.5 -258.5
t101.5 -94.5q14 0 23 3.5t18 11.5v266l-60 10v30h325v-30l-45 -10v-253q-64 -24 -128 -36.5t-167 -21.5q-93 0 -173 42z" />
    <glyph glyph-name="gdotaccent" unicode="&#x121;" horiz-adv-x="585" 
d="M76 -226q-61 19 -61 79v20l118 84q-47 11 -73 38.5t-26 66.5v30l110 90q-49 21 -76.5 59.5t-27.5 87.5q1 71 60 109t178 62q80 0 136 -34t70 -89l36 123h60v-155h-91v-5q-1 -51 -28.5 -84t-77 -54.5t-130.5 -40.5q-48 0 -85 12l-22 -24q0 -9 8.5 -14.5t23.5 -5.5h262
q51 0 78 -32t27 -81q0 -65 -35 -111t-92 -77.5t-156 -72.5q-125 0 -186 19zM292.5 214.5q5.5 29.5 5.5 107.5q0 90 -9 123t-29 33q-19 0 -24.5 -29.5t-5.5 -107.5q0 -90 9 -123t29 -33q19 0 24.5 29.5zM452 -115q40 9 40 35q0 34 -37 34h-298q-7 -11 -7 -29q0 -25 39.5 -37
t121.5 -12q101 0 141 9zM221 569l-7 69l13 60l103 6l34 -6l8 -71l-15 -58l-101 -8z" />
    <glyph glyph-name="Gcommaaccent" unicode="&#x122;" horiz-adv-x="735" 
d="M207 24q-80 42 -128.5 120.5t-48.5 182.5q0 178 105 273.5t312 117.5q74 0 122 -11t106 -37v-215h-25l-102 193q-19 23 -41.5 33.5t-55.5 10.5q-48 0 -87 -38.5t-61.5 -112.5t-22.5 -176q0 -164 32.5 -258.5t101.5 -94.5q14 0 23 3.5t18 11.5v266l-60 10v30h325v-30
l-45 -10v-253q-64 -24 -128 -36.5t-167 -21.5q-93 0 -173 42zM316 -241l58 96l-58 55v40h170v-80l-146 -115z" />
    <glyph glyph-name="gcommaaccent" unicode="&#x123;" horiz-adv-x="585" 
d="M76 -226q-61 19 -61 79v20l118 84q-47 11 -73 38.5t-26 66.5v30l110 90q-49 21 -76.5 59.5t-27.5 87.5q1 71 60 109t178 62q80 0 136 -34t70 -89l36 123h60v-155h-91v-5q-1 -51 -28.5 -84t-77 -54.5t-130.5 -40.5q-48 0 -85 12l-22 -24q0 -9 8.5 -14.5t23.5 -5.5h262
q51 0 78 -32t27 -81q0 -65 -35 -111t-92 -77.5t-156 -72.5q-125 0 -186 19zM292.5 214.5q5.5 29.5 5.5 107.5q0 90 -9 123t-29 33q-19 0 -24.5 -29.5t-5.5 -107.5q0 -90 9 -123t29 -33q19 0 24.5 29.5zM452 -115q40 9 40 35q0 34 -37 34h-298q-7 -11 -7 -29q0 -25 39.5 -37
t121.5 -12q101 0 141 9zM208 629l146 90l24 -5l-58 -68l58 -52v-35h-170v70z" />
    <glyph glyph-name="Hcircumflex" unicode="&#x124;" horiz-adv-x="730" 
d="M325 909h80l132 -138h-35l-137 66l-137 -66h-35zM20 25l40 10v630l-40 10v25h295v-25l-35 -10v-287h170v287l-35 10v25h295v-25l-40 -10v-630l40 -10v-25h-295v25l35 10v313h-170v-313l35 -10v-25h-295v25z" />
    <glyph glyph-name="hcircumflex" unicode="&#x125;" horiz-adv-x="627" 
d="M133 909h80l132 -138h-35l-137 66l-137 -66h-35zM32 25l40 10v624l-39 -2l-3 28l217 25h25v-317l171 107q51 0 78.5 -12.5t39 -44t11.5 -89.5v-319l40 -10v-25h-275v25l25 10v323q0 16 -7 25.5t-20 9.5q-14 0 -24 -4t-24 -12l-15 -9v-333l25 -10v-25h-265v25z" />
    <glyph glyph-name="Hbar" unicode="&#x126;" horiz-adv-x="730" 
d="M670 665v-630l40 -10v-25h-295v25l35 10v313h-170v-313l35 -10v-25h-295v25l40 10v630l-40 10v25h295v-25l-35 -10v-160h170v160l-35 10v25h295v-25zM450 378v107h-170v-107h170z" />
    <glyph glyph-name="hbar" unicode="&#x127;" horiz-adv-x="627" 
d="M612 25v-25h-275v25l25 10v323q0 16 -7 25.5t-20 9.5q-14 0 -24 -4t-24 -12l-15 -9v-333l25 -10v-25h-265v25l40 10v532h-42v20h42v72l-39 -2l-3 28l217 25h25v-123h63v-20h-63v-174l171 107q51 0 78.5 -12.5t39 -44t11.5 -89.5v-319z" />
    <glyph glyph-name="Itilde" unicode="&#x128;" horiz-adv-x="340" 
d="M26 899l33 10l226 -59l49 59h20l-39 -152l-34 -8l-228 62l-47 -62h-20zM20 25l40 10v630l-40 10v25h300v-25l-40 -10v-630l40 -10v-25h-300v25z" />
    <glyph glyph-name="itilde" unicode="&#x129;" horiz-adv-x="332" 
d="M32 25l40 10v397l-39 -2l-3 28l217 37h25v-460l40 -10v-25h-280v25zM51 619l-46 -58h-18l46 136l36 10l224 -57l45 58h19l-46 -137l-36 -10z" />
    <glyph glyph-name="Imacron" unicode="&#x12a;" horiz-adv-x="340" 
d="M20 868h300v-80h-300v80zM20 25l40 10v630l-40 10v25h300v-25l-40 -10v-630l40 -10v-25h-300v25z" />
    <glyph glyph-name="imacron" unicode="&#x12b;" horiz-adv-x="332" 
d="M32 25l40 10v397l-39 -2l-3 28l217 37h25v-460l40 -10v-25h-280v25zM22 660h300v-80h-300v80z" />
    <glyph glyph-name="Ibreve" unicode="&#x12c;" horiz-adv-x="340" 
d="M79.5 800q-46.5 36 -69.5 90l19 15q62 -59 143 -59q48 0 79 16.5t59 42.5l19 -15q-22 -47 -49 -72t-93 -54q-61 0 -107.5 36zM20 25l40 10v630l-40 10v25h300v-25l-40 -10v-630l40 -10v-25h-300v25z" />
    <glyph glyph-name="ibreve" unicode="&#x12d;" horiz-adv-x="332" 
d="M32 25l40 10v397l-39 -2l-3 28l217 37h25v-460l40 -10v-25h-280v25zM81.5 600q-46.5 36 -69.5 90l19 15q62 -59 143 -59q48 0 79 16.5t59 42.5l19 -15q-22 -47 -49 -72t-93 -54q-61 0 -107.5 36z" />
    <glyph glyph-name="Iogonek" unicode="&#x12e;" horiz-adv-x="340" 
d="M280 665v-630l40 -10v-25h-119l-32 -100v-50q0 -37 20 -58.5t83 -21.5v-15q-116 0 -165.5 23.5t-49.5 72.5v74l92 75h-129v25l40 10v630l-40 10v25h300v-25z" />
    <glyph glyph-name="iogonek" unicode="&#x12f;" horiz-adv-x="332" 
d="M91 544l-10 90l15 70l115 9l44 -9l7 -82l-15 -78l-116 -8zM167 -100v-50q0 -37 20 -58.5t83 -21.5v-15q-116 0 -165.5 23.5t-49.5 72.5v74l92 75h-115v25l40 10v397l-39 -2l-3 28l217 37h25v-460l40 -10v-25h-113z" />
    <glyph glyph-name="Idotaccent" unicode="&#x130;" horiz-adv-x="340" 
d="M93 773l-7 74l14 63l109 7l36 -7l8 -75l-15 -62l-108 -8zM20 25l40 10v630l-40 10v25h300v-25l-40 -10v-630l40 -10v-25h-300v25z" />
    <glyph glyph-name="dotlessi" unicode="&#x131;" horiz-adv-x="332" 
d="M32 25l40 10v397l-39 -2l-3 28l217 37h25v-460l40 -10v-25h-280v25z" />
    <glyph glyph-name="IJ" unicode="&#x132;" horiz-adv-x="725" 
d="M20 25l40 10v630l-40 10v25h300v-25l-40 -10v-630l40 -10v-25h-300v25zM345 -20h102l1 31q2 48 2 84v570l-72 10v25h332v-25l-40 -10v-455q0 -153 -171 -314l-76 -71h-78v155z" />
    <glyph glyph-name="ij" unicode="&#x133;" horiz-adv-x="652" 
d="M32 25l40 10v397l-39 -2l-3 28l217 37h25v-460l40 -10v-25h-280v25zM91 544l-10 90l15 70l115 9l44 -9l7 -82l-15 -78l-116 -8zM312 -73h89l2 26q4 48 4 128v351l-39 -2l-3 28l216 37h26v-359q0 -68 -8.5 -109.5t-33.5 -77t-76 -81.5l-121 -108h-56v167zM425 544l-10 90
l15 70l115 9l44 -9l7 -82l-15 -78l-116 -8z" />
    <glyph glyph-name="Jcircumflex" unicode="&#x134;" horiz-adv-x="385" 
d="M153 909h80l132 -138h-35l-137 66l-137 -66h-35zM5 -20h102l1 31q2 48 2 84v570l-72 10v25h332v-25l-40 -10v-455q0 -153 -171 -314l-76 -71h-78v155z" />
    <glyph glyph-name="jcircumflex" unicode="&#x135;" horiz-adv-x="320" 
d="M-20 -73h89l2 26q4 48 4 128v351l-39 -2l-3 28l216 37h26v-359q0 -68 -8.5 -109.5t-33.5 -77t-76 -81.5l-121 -108h-56v167zM129 710h90l117 -151h-55l-107 82l-107 -82h-55z" />
    <glyph glyph-name="Kcommaaccent" unicode="&#x136;" horiz-adv-x="764" 
d="M20 25l40 10v630l-40 10v25h295v-25l-35 -10v-299l298 299l-90 11v24h228v-24l-98 -11l-290 -287l156 59l243 -402l27 -10v-25h-265l-209 342v-307l35 -10v-25h-295v25zM315 -241l58 96l-58 55v40h170v-80l-146 -115z" />
    <glyph glyph-name="kcommaaccent" unicode="&#x137;" horiz-adv-x="653" 
d="M32 25l40 10v624l-39 -2l-3 28l217 25h25v-430l226 170l-66 10v25h191v-25l-70 -10l-233 -164l141 33l164 -284l23 -10v-25h-248l-128 263v-228l40 -10v-25h-280v25zM242 -241l58 96l-58 55v40h170v-80l-146 -115z" />
    <glyph glyph-name="kgreenlandic" unicode="&#x138;" horiz-adv-x="653" 
d="M32 25l40 10v397l-39 -2l-3 28l217 37h25v-216l226 171l-66 10v25h191v-25l-70 -10l-129 -95l201 -320l23 -10v-25h-248l-128 242v-207l40 -10v-25h-280v25z" />
    <glyph glyph-name="Lacute" unicode="&#x139;" horiz-adv-x="591" 
d="M205 909h155l-165 -138h-35zM20 25l40 10v630l-40 10v25h300v-25l-40 -10v-630h168l108 179h25v-214h-561v25z" />
    <glyph glyph-name="lacute" unicode="&#x13a;" horiz-adv-x="327" 
d="M173 909h155l-165 -138h-35zM32 25l40 10v624l-39 -2l-3 28l217 25h25v-675l40 -10v-25h-280v25z" />
    <glyph glyph-name="Lcommaaccent" unicode="&#x13b;" horiz-adv-x="591" 
d="M20 25l40 10v630l-40 10v25h300v-25l-40 -10v-630h168l108 179h25v-214h-561v25zM221 -241l58 96l-58 55v40h170v-80l-146 -115z" />
    <glyph glyph-name="lcommaaccent" unicode="&#x13c;" horiz-adv-x="327" 
d="M32 25l40 10v624l-39 -2l-3 28l217 25h25v-675l40 -10v-25h-280v25zM79 -241l58 96l-58 55v40h170v-80l-146 -115z" />
    <glyph glyph-name="Lcaron" unicode="&#x13d;" horiz-adv-x="591" 
d="M438 403l83 145l-61 -4l-38 8l-8 84l14 67l108 7l41 -7l7 -78l-13 -73l-114 -157zM20 25l40 10v630l-40 10v25h300v-25l-40 -10v-630h168l108 179h25v-214h-561v25z" />
    <glyph glyph-name="lcaron" unicode="&#x13e;" horiz-adv-x="485" 
d="M32 25l40 10v624l-39 -2l-3 28l217 25h25v-675l40 -10v-25h-280v25zM331 403l83 145l-61 -4l-38 8l-8 84l14 67l108 7l41 -7l7 -78l-13 -73l-114 -157z" />
    <glyph glyph-name="Ldot" unicode="&#x13f;" horiz-adv-x="591" 
d="M20 25l40 10v630l-40 10v25h300v-25l-40 -10v-630h168l108 179h25v-214h-561v25zM386 332l-7 76l7 64l101 9l39 -9l9 -74l-9 -66l-101 -7z" />
    <glyph glyph-name="ldot" unicode="&#x140;" horiz-adv-x="464" 
d="M32 25l40 10v624l-39 -2l-3 28l217 25h25v-675l40 -10v-25h-280v25zM314 332l-7 76l7 64l101 9l39 -9l9 -74l-9 -66l-101 -7z" />
    <glyph glyph-name="Lslash" unicode="&#x141;" horiz-adv-x="591" 
d="M581 214v-214h-561v25l40 10v265l-30 -15v30l30 15v335l-40 10v25h300v-25l-40 -10v-226l80 40v-30l-80 -40v-374h168l108 179h25z" />
    <glyph glyph-name="lslash" unicode="&#x142;" horiz-adv-x="327" 
d="M272 419v-384l40 -10v-25h-280v25l40 10v285l-70 -35v30l70 35v309l-39 -2l-3 28l217 25h25v-261l60 30v-30z" />
    <glyph glyph-name="Nacute" unicode="&#x143;" horiz-adv-x="667" 
d="M343 909h155l-165 -138h-35zM90 626v-591l55 -10v-25h-125v25l40 10v630l-40 10v25h297l270 -391v356l-55 10v25h125v-25l-40 -10v-670h-109z" />
    <glyph glyph-name="nacute" unicode="&#x144;" horiz-adv-x="627" 
d="M32 25l40 10v397l-39 -2l-3 28l217 37h25v-101l171 106q54 0 81.5 -14t37.5 -45t10 -87v-319l40 -10v-25h-275v25l25 10v323q0 16 -7 25.5t-20 9.5q-14 0 -24 -4t-24 -12l-15 -9v-333l25 -10v-25h-265v25zM331 710h160l-155 -151h-45z" />
    <glyph glyph-name="Ncommaaccent" unicode="&#x145;" horiz-adv-x="667" 
d="M90 626v-591l55 -10v-25h-125v25l40 10v630l-40 10v25h297l270 -391v356l-55 10v25h125v-25l-40 -10v-670h-109zM249 -241l58 96l-58 55v40h170v-80l-146 -115z" />
    <glyph glyph-name="ncommaaccent" unicode="&#x146;" horiz-adv-x="627" 
d="M32 25l40 10v397l-39 -2l-3 28l217 37h25v-101l171 106q54 0 81.5 -14t37.5 -45t10 -87v-319l40 -10v-25h-275v25l25 10v323q0 16 -7 25.5t-20 9.5q-14 0 -24 -4t-24 -12l-15 -9v-333l25 -10v-25h-265v25zM229 -241l58 96l-58 55v40h170v-80l-146 -115z" />
    <glyph glyph-name="Ncaron" unicode="&#x147;" horiz-adv-x="667" 
d="M162 909h35l137 -66l137 66h35l-132 -138h-80zM90 626v-591l55 -10v-25h-125v25l40 10v630l-40 10v25h297l270 -391v356l-55 10v25h125v-25l-40 -10v-670h-109z" />
    <glyph glyph-name="ncaron" unicode="&#x148;" horiz-adv-x="627" 
d="M32 25l40 10v397l-39 -2l-3 28l217 37h25v-101l171 106q54 0 81.5 -14t37.5 -45t10 -87v-319l40 -10v-25h-275v25l25 10v323q0 16 -7 25.5t-20 9.5q-14 0 -24 -4t-24 -12l-15 -9v-333l25 -10v-25h-265v25zM162 710h55l97 -74l97 74h55l-107 -151h-90z" />
    <glyph glyph-name="napostrophe" unicode="&#x149;" horiz-adv-x="627" 
d="M25 530l57 85l-49 55v40h153v-80l-137 -104zM32 25l40 10v397l-39 -2l-3 28l217 37h25v-101l171 106q54 0 81.5 -14t37.5 -45t10 -87v-319l40 -10v-25h-275v25l25 10v323q0 16 -7 25.5t-20 9.5q-14 0 -24 -4t-24 -12l-15 -9v-333l25 -10v-25h-265v25z" />
    <glyph glyph-name="Eng" unicode="&#x14a;" horiz-adv-x="667" 
d="M343 -78h164l49 53l36 20h-84l-418 631v-591l55 -10v-25h-125v25l40 10v630l-40 10v25h297l270 -391v356l-55 10v25h125v-25l-40 -10v-670l-117 -230h-157v157z" />
    <glyph glyph-name="eng" unicode="&#x14b;" horiz-adv-x="632" 
d="M267 -88h89l2 26q4 54 4 143v277q0 16 -7 25.5t-20 9.5q-14 0 -24 -4t-24 -12l-15 -9v-333l25 -10v-25h-265v25l40 10v397l-39 -2l-3 28l217 37h25v-101l171 106q54 0 81.5 -14t37.5 -45t10 -87v-218q0 -68 -8.5 -109.5t-33.5 -77t-76 -81.5l-121 -108h-66v152z" />
    <glyph glyph-name="Omacron" unicode="&#x14c;" horiz-adv-x="785" 
d="M243 868h300v-80h-300v80zM194 25q-79 43 -121.5 123t-42.5 189q0 106 39 179t121 121t215 81q107 0 186 -43t121.5 -123t42.5 -189q0 -106 -39 -179t-121 -121t-215 -81q-107 0 -186 43zM484 101.5q21 86.5 21 218.5q0 107 -16.5 190t-46 129t-68.5 46q-51 0 -72.5 -87
t-21.5 -217q0 -108 16.5 -191t46 -129t68.5 -46q52 0 73 86.5z" />
    <glyph glyph-name="omacron" unicode="&#x14d;" horiz-adv-x="571" 
d="M141 15q-54 30 -85 85.5t-31 128.5q0 84 38.5 137t99 82t147.5 52q66 0 120 -30t85 -85.5t31 -128.5q0 -84 -38.5 -137t-99 -82t-148.5 -52q-65 0 -119 30zM324 59q10 39 10 137q0 92 -8.5 152.5t-22 88.5t-28.5 28q-18 0 -28.5 -40.5t-10.5 -140.5q0 -132 17.5 -198
t41.5 -66q19 0 29 39zM136 660h300v-80h-300v80z" />
    <glyph glyph-name="Obreve" unicode="&#x14e;" horiz-adv-x="785" 
d="M302.5 800q-46.5 36 -69.5 90l19 15q62 -59 143 -59q48 0 79 16.5t59 42.5l19 -15q-22 -47 -49 -72t-93 -54q-61 0 -107.5 36zM194 25q-79 43 -121.5 123t-42.5 189q0 106 39 179t121 121t215 81q107 0 186 -43t121.5 -123t42.5 -189q0 -106 -39 -179t-121 -121t-215 -81
q-107 0 -186 43zM484 101.5q21 86.5 21 218.5q0 107 -16.5 190t-46 129t-68.5 46q-51 0 -72.5 -87t-21.5 -217q0 -108 16.5 -191t46 -129t68.5 -46q52 0 73 86.5z" />
    <glyph glyph-name="obreve" unicode="&#x14f;" horiz-adv-x="571" 
d="M141 15q-54 30 -85 85.5t-31 128.5q0 84 38.5 137t99 82t147.5 52q66 0 120 -30t85 -85.5t31 -128.5q0 -84 -38.5 -137t-99 -82t-148.5 -52q-65 0 -119 30zM324 59q10 39 10 137q0 92 -8.5 152.5t-22 88.5t-28.5 28q-18 0 -28.5 -40.5t-10.5 -140.5q0 -132 17.5 -198
t41.5 -66q19 0 29 39zM195.5 600q-46.5 36 -69.5 90l19 15q62 -59 143 -59q48 0 79 16.5t59 42.5l19 -15q-22 -47 -49 -72t-93 -54q-61 0 -107.5 36z" />
    <glyph glyph-name="Ohungarumlaut" unicode="&#x150;" horiz-adv-x="785" 
d="M194 25q-79 43 -121.5 123t-42.5 189q0 106 39 179t121 121t215 81q107 0 186 -43t121.5 -123t42.5 -189q0 -106 -39 -179t-121 -121t-215 -81q-107 0 -186 43zM484 101.5q21 86.5 21 218.5q0 107 -16.5 190t-46 129t-68.5 46q-51 0 -72.5 -87t-21.5 -217
q0 -108 16.5 -191t46 -129t68.5 -46q52 0 73 86.5zM326 909h155l-165 -138h-35zM526 909h155l-165 -138h-35z" />
    <glyph glyph-name="ohungarumlaut" unicode="&#x151;" horiz-adv-x="571" 
d="M141 15q-54 30 -85 85.5t-31 128.5q0 84 38.5 137t99 82t147.5 52q66 0 120 -30t85 -85.5t31 -128.5q0 -84 -38.5 -137t-99 -82t-148.5 -52q-65 0 -119 30zM324 59q10 39 10 137q0 92 -8.5 152.5t-22 88.5t-28.5 28q-18 0 -28.5 -40.5t-10.5 -140.5q0 -132 17.5 -198
t41.5 -66q19 0 29 39zM208 710h150l-150 -151h-35zM399 710h150l-150 -151h-35z" />
    <glyph glyph-name="OE" unicode="&#x152;" horiz-adv-x="1036" 
d="M203.5 25q-83.5 43 -128.5 123t-45 189q0 106 41 179t126 121t223 81l142 -18h449v-200h-25l-87 175h-189v-295h80l55 133h25v-290h-25l-55 132h-80v-330h189l80 184h25v-209h-509l-95 -18q-113 0 -196.5 43zM490 665l-96 20q-60 0 -87 -90t-27 -219q0 -108 16.5 -189.5
t46 -126.5t68.5 -45l79 20v630z" />
    <glyph glyph-name="oe" unicode="&#x153;" horiz-adv-x="857" 
d="M832 268h-284q14 -61 55.5 -95.5t103.5 -34.5q34 0 56.5 5.5t50.5 19.5l14 -19q-50 -57 -97.5 -92t-112.5 -67q-55 0 -102 17.5t-81 49.5q-62 -38 -175 -67q-65 0 -119 30t-85 85.5t-31 128.5q0 84 38.5 137t99 82t147.5 52q50 0 93.5 -17.5t75.5 -49.5q67 50 158 67
q46 0 90.5 -18.5t74.5 -59t30 -103.5v-51zM324 59q10 39 10 137q0 92 -8.5 152.5t-22 88.5t-28.5 28q-18 0 -28.5 -40.5t-10.5 -140.5q0 -132 17.5 -198t41.5 -66q19 0 29 39zM627 293q0 68 -3 103.5t-11 51t-23 15.5q-21 0 -34.5 -34t-13.5 -101q0 -13 2 -35h83z" />
    <glyph glyph-name="Racute" unicode="&#x154;" horiz-adv-x="687" 
d="M323 771h-35l45 138h155zM682 25v-25h-254l-133 330h-15v-295l36 -10v-25h-296v25l40 10v630l-40 10v25h385q88 0 145.5 -44t57.5 -127q0 -88 -73 -138.5t-221 -57.5l223 -43l114 -255zM351.5 399.5q21.5 44.5 21.5 119.5q0 65 -19.5 110.5t-48.5 45.5l-25 -10v-310h11
q39 0 60.5 44.5z" />
    <glyph glyph-name="racute" unicode="&#x155;" horiz-adv-x="450" 
d="M32 25l40 10v400l-39 -2l-3 25l202 37h25l13 -183l69 183h96v-192h-151l-12 -25v-242l74 -11v-25h-314v25zM242 710h160l-155 -151h-45z" />
    <glyph glyph-name="Rcommaaccent" unicode="&#x156;" horiz-adv-x="687" 
d="M682 25v-25h-254l-133 330h-15v-295l36 -10v-25h-296v25l40 10v630l-40 10v25h385q88 0 145.5 -44t57.5 -127q0 -88 -73 -138.5t-221 -57.5l223 -43l114 -255zM351.5 399.5q21.5 44.5 21.5 119.5q0 65 -19.5 110.5t-48.5 45.5l-25 -10v-310h11q39 0 60.5 44.5zM279 -241
l58 96l-58 55v40h170v-80l-146 -115z" />
    <glyph glyph-name="rcommaaccent" unicode="&#x157;" horiz-adv-x="450" 
d="M32 25l40 10v400l-39 -2l-3 25l202 37h25l13 -183l69 183h96v-192h-151l-12 -25v-242l74 -11v-25h-314v25zM100 -241l58 96l-58 55v40h170v-80l-146 -115z" />
    <glyph glyph-name="Rcaron" unicode="&#x158;" horiz-adv-x="687" 
d="M284 771l-132 138h35l137 -66l137 66h35l-132 -138h-80zM682 25v-25h-254l-133 330h-15v-295l36 -10v-25h-296v25l40 10v630l-40 10v25h385q88 0 145.5 -44t57.5 -127q0 -88 -73 -138.5t-221 -57.5l223 -43l114 -255zM351.5 399.5q21.5 44.5 21.5 119.5q0 65 -19.5 110.5
t-48.5 45.5l-25 -10v-310h11q39 0 60.5 44.5z" />
    <glyph glyph-name="rcaron" unicode="&#x159;" horiz-adv-x="450" 
d="M32 25l40 10v400l-39 -2l-3 25l202 37h25l13 -183l69 183h96v-192h-151l-12 -25v-242l74 -11v-25h-314v25zM73 710h55l97 -74l97 74h55l-107 -151h-90z" />
    <glyph glyph-name="Sacute" unicode="&#x15a;" horiz-adv-x="566" 
d="M310 909h155l-165 -138h-35zM143 -4q-51 14 -111 49v215h25l66 -150q35 -46 67.5 -71.5t72.5 -25.5q45 0 73 25t28 67q0 33 -16.5 59t-57.5 56l-148 109q-58 43 -84.5 82.5t-26.5 99.5q0 76 58 129.5t207 77.5q76 0 108.5 -4.5t100.5 -25.5v-208h-25l-79 168
q-20 23 -41.5 34t-49.5 11q-39 0 -65 -20.5t-26 -62.5q0 -34 18.5 -58.5t56.5 -52.5l142 -104q58 -42 81.5 -82t23.5 -101q0 -89 -69 -145t-217 -85q-61 0 -112 14z" />
    <glyph glyph-name="sacute" unicode="&#x15b;" horiz-adv-x="447" 
d="M121 -9.5q-53 8.5 -87 23.5v172h25l72 -133q27 -26 44.5 -35.5t42.5 -9.5t41.5 13t16.5 30q0 18 -12 31t-48 38l-116 81q-36 25 -55.5 55.5t-19.5 73.5q0 59 50 105.5t148 64.5q63 0 97 -5.5t79 -24.5v-155h-25l-91 136q-14 14 -26.5 19.5t-29.5 5.5q-19 0 -32 -11.5
t-13 -30.5q0 -20 13 -35.5t53 -43.5l114 -79q34 -23 49.5 -50.5t15.5 -66.5q0 -60 -46 -107t-147 -70q-60 0 -113 8.5zM241 710h160l-155 -151h-45z" />
    <glyph glyph-name="Scircumflex" unicode="&#x15c;" horiz-adv-x="566" 
d="M261 909h80l132 -138h-35l-137 66l-137 -66h-35zM143 -4q-51 14 -111 49v215h25l66 -150q35 -46 67.5 -71.5t72.5 -25.5q45 0 73 25t28 67q0 33 -16.5 59t-57.5 56l-148 109q-58 43 -84.5 82.5t-26.5 99.5q0 76 58 129.5t207 77.5q76 0 108.5 -4.5t100.5 -25.5v-208h-25
l-79 168q-20 23 -41.5 34t-49.5 11q-39 0 -65 -20.5t-26 -62.5q0 -34 18.5 -58.5t56.5 -52.5l142 -104q58 -42 81.5 -82t23.5 -101q0 -89 -69 -145t-217 -85q-61 0 -112 14z" />
    <glyph glyph-name="scircumflex" unicode="&#x15d;" horiz-adv-x="447" 
d="M121 -9.5q-53 8.5 -87 23.5v172h25l72 -133q27 -26 44.5 -35.5t42.5 -9.5t41.5 13t16.5 30q0 18 -12 31t-48 38l-116 81q-36 25 -55.5 55.5t-19.5 73.5q0 59 50 105.5t148 64.5q63 0 97 -5.5t79 -24.5v-155h-25l-91 136q-14 14 -26.5 19.5t-29.5 5.5q-19 0 -32 -11.5
t-13 -30.5q0 -20 13 -35.5t53 -43.5l114 -79q34 -23 49.5 -50.5t15.5 -66.5q0 -60 -46 -107t-147 -70q-60 0 -113 8.5zM179 710h90l117 -151h-55l-107 82l-107 -82h-55z" />
    <glyph glyph-name="Scedilla" unicode="&#x15e;" horiz-adv-x="566" 
d="M473.5 68q-67.5 -56 -212.5 -85l-10 -13q44 -7 64.5 -29.5t20.5 -49.5q0 -25 -18 -43t-39 -28t-72 -30l-86 -35h-32l41 65h91q13 19 13 40q0 27 -11.5 36t-35.5 14l50 72q-54 2 -101.5 16t-103.5 47v215h25l66 -150q35 -46 67.5 -71.5t72.5 -25.5q45 0 73 25t28 67
q0 33 -16.5 59t-57.5 56l-148 109q-58 43 -84.5 82.5t-26.5 99.5q0 76 58 129.5t207 77.5q76 0 108.5 -4.5t100.5 -25.5v-208h-25l-79 168q-20 23 -41.5 34t-49.5 11q-39 0 -65 -20.5t-26 -62.5q0 -34 18.5 -58.5t56.5 -52.5l142 -104q58 -42 81.5 -82t23.5 -101
q0 -88 -67.5 -144z" />
    <glyph glyph-name="scedilla" unicode="&#x15f;" horiz-adv-x="447" 
d="M221 -18l-9 -12q44 -7 64.5 -29.5t20.5 -49.5q0 -25 -18 -43t-39 -28t-72 -30l-86 -35h-32l41 65h91q13 19 13 40q0 27 -11.5 36t-35.5 14l50 73q-49 2 -92.5 10.5t-71.5 20.5v172h25l72 -133q27 -26 44.5 -35.5t42.5 -9.5t41.5 13t16.5 30q0 18 -12 31t-48 38l-116 81
q-36 25 -55.5 55.5t-19.5 73.5q0 59 50 105.5t148 64.5q63 0 97 -5.5t79 -24.5v-155h-25l-91 136q-14 14 -26.5 19.5t-29.5 5.5q-19 0 -32 -11.5t-13 -30.5q0 -20 13 -35.5t53 -43.5l114 -79q34 -23 49.5 -50.5t15.5 -66.5q0 -60 -46 -107t-147 -70h-13z" />
    <glyph glyph-name="Scaron" unicode="&#x160;" horiz-adv-x="566" 
d="M129 909h35l137 -66l137 66h35l-132 -138h-80zM143 -4q-51 14 -111 49v215h25l66 -150q35 -46 67.5 -71.5t72.5 -25.5q45 0 73 25t28 67q0 33 -16.5 59t-57.5 56l-148 109q-58 43 -84.5 82.5t-26.5 99.5q0 76 58 129.5t207 77.5q76 0 108.5 -4.5t100.5 -25.5v-208h-25
l-79 168q-20 23 -41.5 34t-49.5 11q-39 0 -65 -20.5t-26 -62.5q0 -34 18.5 -58.5t56.5 -52.5l142 -104q58 -42 81.5 -82t23.5 -101q0 -89 -69 -145t-217 -85q-61 0 -112 14z" />
    <glyph glyph-name="scaron" unicode="&#x161;" horiz-adv-x="447" 
d="M121 -9.5q-53 8.5 -87 23.5v172h25l72 -133q27 -26 44.5 -35.5t42.5 -9.5t41.5 13t16.5 30q0 18 -12 31t-48 38l-116 81q-36 25 -55.5 55.5t-19.5 73.5q0 59 50 105.5t148 64.5q63 0 97 -5.5t79 -24.5v-155h-25l-91 136q-14 14 -26.5 19.5t-29.5 5.5q-19 0 -32 -11.5
t-13 -30.5q0 -20 13 -35.5t53 -43.5l114 -79q34 -23 49.5 -50.5t15.5 -66.5q0 -60 -46 -107t-147 -70q-60 0 -113 8.5zM72 710h55l97 -74l97 74h55l-107 -151h-90z" />
    <glyph glyph-name="uni0162" unicode="&#x162;" horiz-adv-x="592" 
d="M582 483h-25l-105 192h-46v-640l80 -10v-25h-179l-23 -30q44 -7 64.5 -29.5t20.5 -49.5q0 -25 -18 -43t-39 -28t-72 -30l-86 -35h-32l41 65h91q13 19 13 40q0 27 -11.5 36t-35.5 14l62 90h-176v25l80 10v640h-46l-105 -192h-25v217h572v-217z" />
    <glyph glyph-name="uni0163" unicode="&#x163;" horiz-adv-x="392" 
d="M258.5 -59.5q20.5 -22.5 20.5 -49.5q0 -25 -18 -43t-39 -28t-72 -30l-86 -35h-32l41 65h91q13 19 13 40q0 27 -11.5 36t-35.5 14l52 75q-55 1 -88.5 37.5t-33.5 100.5v316h-55v25h55v56l200 105v-161h109v-25h-109v-298q0 -25 14.5 -38.5t34.5 -13.5q17 0 30.5 3.5
t37.5 13.5l10 -23l-170 -82l-23 -31q44 -7 64.5 -29.5z" />
    <glyph glyph-name="Tcaron" unicode="&#x164;" horiz-adv-x="592" 
d="M124 909h35l137 -66l137 66h35l-132 -138h-80zM106 25l80 10v640h-46l-105 -192h-25v217h572v-217h-25l-105 192h-46v-640l80 -10v-25h-380v25z" />
    <glyph glyph-name="tcaron" unicode="&#x165;" horiz-adv-x="509" 
d="M387 463l68 118l-50 -3l-31 6l-6 69l11 54l88 6l33 -6l6 -63l-11 -60l-92 -127zM94 21.5q-34 36.5 -34 101.5v316h-55v25h55v56l200 105v-161h109v-25h-109v-298q0 -25 14.5 -38.5t34.5 -13.5q17 0 30.5 3.5t37.5 13.5l10 -23l-203 -98q-56 0 -90 36.5z" />
    <glyph glyph-name="Tbar" unicode="&#x166;" horiz-adv-x="592" 
d="M582 483h-25l-105 192h-46v-236h65v-20h-65v-384l80 -10v-25h-380v25l80 10v384h-65v20h65v236h-46l-105 -192h-25v217h572v-217z" />
    <glyph glyph-name="tbar" unicode="&#x167;" horiz-adv-x="392" 
d="M387 83l-203 -98q-56 0 -90 36.5t-34 101.5v172h-55v20h55v124h-55v25h55v56l200 105v-161h109v-25h-109v-124h55v-20h-55v-154q0 -25 14.5 -38.5t34.5 -13.5q17 0 30.5 3.5t37.5 13.5z" />
    <glyph glyph-name="Utilde" unicode="&#x168;" horiz-adv-x="658" 
d="M248 899l33 10l226 -59l49 59h20l-39 -152l-34 -8l-228 62l-47 -62h-20zM132 49.5q-82 67.5 -82 184.5v431l-40 10v25h300v-25l-40 -10v-440q0 -77 41.5 -125t107.5 -48t107.5 48t41.5 125v440l-45 10v25h125v-25l-40 -10v-438q0 -62 -19.5 -107.5t-73.5 -81t-153 -56.5
q-148 0 -230 67.5z" />
    <glyph glyph-name="utilde" unicode="&#x169;" horiz-adv-x="608" 
d="M101 0.5q-29 15.5 -40 48t-11 87.5v295l-35 -2v25l220 41h25v-360q0 -39 37 -39q16 0 42 14l6 3v318l-35 -2v25l211 41h24v-353q0 -28 2 -44.5t7 -36.5h31l3 -25l-218 -44l-20 96l-166 -103q-54 0 -83 15.5zM183 619l-46 -58h-18l46 136l36 10l224 -57l45 58h19l-46 -137
l-36 -10z" />
    <glyph glyph-name="Umacron" unicode="&#x16a;" horiz-adv-x="658" 
d="M242 868h300v-80h-300v80zM132 49.5q-82 67.5 -82 184.5v431l-40 10v25h300v-25l-40 -10v-440q0 -77 41.5 -125t107.5 -48t107.5 48t41.5 125v440l-45 10v25h125v-25l-40 -10v-438q0 -62 -19.5 -107.5t-73.5 -81t-153 -56.5q-148 0 -230 67.5z" />
    <glyph glyph-name="umacron" unicode="&#x16b;" horiz-adv-x="608" 
d="M101 0.5q-29 15.5 -40 48t-11 87.5v295l-35 -2v25l220 41h25v-360q0 -39 37 -39q16 0 42 14l6 3v318l-35 -2v25l211 41h24v-353q0 -28 2 -44.5t7 -36.5h31l3 -25l-218 -44l-20 96l-166 -103q-54 0 -83 15.5zM154 660h300v-80h-300v80z" />
    <glyph glyph-name="Ubreve" unicode="&#x16c;" horiz-adv-x="658" 
d="M301.5 800q-46.5 36 -69.5 90l19 15q62 -59 143 -59q48 0 79 16.5t59 42.5l19 -15q-22 -47 -49 -72t-93 -54q-61 0 -107.5 36zM132 49.5q-82 67.5 -82 184.5v431l-40 10v25h300v-25l-40 -10v-440q0 -77 41.5 -125t107.5 -48t107.5 48t41.5 125v440l-45 10v25h125v-25
l-40 -10v-438q0 -62 -19.5 -107.5t-73.5 -81t-153 -56.5q-148 0 -230 67.5z" />
    <glyph glyph-name="ubreve" unicode="&#x16d;" horiz-adv-x="608" 
d="M101 0.5q-29 15.5 -40 48t-11 87.5v295l-35 -2v25l220 41h25v-360q0 -39 37 -39q16 0 42 14l6 3v318l-35 -2v25l211 41h24v-353q0 -28 2 -44.5t7 -36.5h31l3 -25l-218 -44l-20 96l-166 -103q-54 0 -83 15.5zM213.5 600q-46.5 36 -69.5 90l19 15q62 -59 143 -59
q48 0 79 16.5t59 42.5l19 -15q-22 -47 -49 -72t-93 -54q-61 0 -107.5 36z" />
    <glyph glyph-name="Uring" unicode="&#x16e;" horiz-adv-x="658" 
d="M306 768q-37 27 -37 85q0 44 33.5 70t89.5 42q57 0 90 -25.5t33 -86.5q0 -46 -32 -72.5t-88 -39.5q-52 0 -89 27zM448 798.5q23 21.5 23 54.5t-23 55t-56 22t-55.5 -22t-22.5 -55t22.5 -54.5t55.5 -21.5t56 21.5zM132 49.5q-82 67.5 -82 184.5v431l-40 10v25h300v-25
l-40 -10v-440q0 -77 41.5 -125t107.5 -48t107.5 48t41.5 125v440l-45 10v25h125v-25l-40 -10v-438q0 -62 -19.5 -107.5t-73.5 -81t-153 -56.5q-148 0 -230 67.5z" />
    <glyph glyph-name="uring" unicode="&#x16f;" horiz-adv-x="608" 
d="M101 0.5q-29 15.5 -40 48t-11 87.5v295l-35 -2v25l220 41h25v-360q0 -39 37 -39q16 0 42 14l6 3v318l-35 -2v25l211 41h24v-353q0 -28 2 -44.5t7 -36.5h31l3 -25l-218 -44l-20 96l-166 -103q-54 0 -83 15.5zM218 577q-37 27 -37 85q0 44 33.5 70t89.5 42q57 0 90 -25.5
t33 -86.5q0 -46 -32 -72.5t-88 -39.5q-52 0 -89 27zM360 607.5q23 21.5 23 54.5t-23 55t-56 22t-55.5 -22t-22.5 -55t22.5 -54.5t55.5 -21.5t56 21.5z" />
    <glyph glyph-name="Uhungarumlaut" unicode="&#x170;" horiz-adv-x="658" 
d="M132 49.5q-82 67.5 -82 184.5v431l-40 10v25h300v-25l-40 -10v-440q0 -77 41.5 -125t107.5 -48t107.5 48t41.5 125v440l-45 10v25h125v-25l-40 -10v-438q0 -62 -19.5 -107.5t-73.5 -81t-153 -56.5q-148 0 -230 67.5zM325 909h155l-165 -138h-35zM525 909h155l-165 -138
h-35z" />
    <glyph glyph-name="uhungarumlaut" unicode="&#x171;" horiz-adv-x="608" 
d="M101 0.5q-29 15.5 -40 48t-11 87.5v295l-35 -2v25l220 41h25v-360q0 -39 37 -39q16 0 42 14l6 3v318l-35 -2v25l211 41h24v-353q0 -28 2 -44.5t7 -36.5h31l3 -25l-218 -44l-20 96l-166 -103q-54 0 -83 15.5zM226 710h150l-150 -151h-35zM417 710h150l-150 -151h-35z" />
    <glyph glyph-name="Uogonek" unicode="&#x172;" horiz-adv-x="658" 
d="M648 675l-40 -10v-438q0 -68 -24.5 -117t-88.5 -83l-41 -127v-50q0 -37 20 -58.5t83 -21.5v-15q-116 0 -165.5 23.5t-49.5 72.5v74l94 77q-40 -13 -74 -20q-148 0 -230 67.5t-82 184.5v431l-40 10v25h300v-25l-40 -10v-440q0 -77 41.5 -125t107.5 -48t107.5 48t41.5 125
v440l-45 10v25h125v-25z" />
    <glyph glyph-name="uogonek" unicode="&#x173;" horiz-adv-x="608" 
d="M395 -208.5q20 -21.5 83 -21.5v-15q-116 0 -165.5 23.5t-49.5 72.5v74l103 85l-16 78l-166 -103q-54 0 -83 15.5t-40 48t-11 87.5v295l-35 -2v25l220 41h25v-360q0 -39 37 -39q16 0 42 14l6 3v318l-35 -2v25l211 41h24v-353q0 -28 2 -44.5t7 -36.5h31l3 -25l-181 -37
l-32 -99v-50q0 -37 20 -58.5z" />
    <glyph glyph-name="Wcircumflex" unicode="&#x174;" horiz-adv-x="1086" 
d="M503 909h80l132 -138h-35l-137 66l-137 -66h-35zM49 665l-39 10v25h342v-25l-61 -10l147 -504l75 307l-64 197l-39 10v25h342v-25l-61 -10l147 -504l146 504l-66 10v25h158v-25l-53 -10l-192 -648l-160 -35l-140 429l-98 -394l-162 -35z" />
    <glyph glyph-name="wcircumflex" unicode="&#x175;" horiz-adv-x="872" 
d="M28 450l-23 10v25h279v-25l-43 -10l100 -355l73 263l-26 92l-23 10v25h279v-25l-43 -10l100 -355l99 355l-43 10v25h110v-25l-28 -10l-118 -431l-196 -40l-90 309l-74 -269l-196 -40zM431 710h90l117 -151h-55l-107 82l-107 -82h-55z" />
    <glyph glyph-name="Ycircumflex" unicode="&#x176;" horiz-adv-x="715" 
d="M398 909h80l132 -138h-35l-137 66l-137 -66h-35zM176 25l83 10v237l-201 393l-53 10v25h376v-25l-66 -10l156 -342l156 342l-70 10v25h153v-25l-53 -10l-178 -391v-239l82 -10v-25h-385v25z" />
    <glyph glyph-name="ycircumflex" unicode="&#x177;" horiz-adv-x="570" 
d="M69 -68h184l113 145l-183 -61l-153 434l-25 10v25h294v-25l-46 -10l119 -354l123 354l-46 10v25h116v-25l-31 -10l-137 -394l-146 -291h-182v167zM240 710h90l117 -151h-55l-107 82l-107 -82h-55z" />
    <glyph glyph-name="Ydieresis" unicode="&#x178;" horiz-adv-x="715" 
d="M253 761l-7 70l13 58l86 7l35 -7l9 -69l-15 -59l-84 -7zM493 761l-7 70l13 58l86 7l35 -7l9 -69l-15 -59l-84 -7zM176 25l83 10v237l-201 393l-53 10v25h376v-25l-66 -10l156 -342l156 342l-70 10v25h153v-25l-53 -10l-178 -391v-239l82 -10v-25h-385v25z" />
    <glyph glyph-name="Zacute" unicode="&#x179;" 
d="M319 909h155l-165 -138h-35zM10 15l344 660h-182l-107 -194h-25v219h570v-15l-342 -660h170l122 199h20v-224h-570v15z" />
    <glyph glyph-name="zacute" unicode="&#x17a;" horiz-adv-x="538" 
d="M25 20l258 445h-95l-109 -183h-25v203h459v-20l-248 -445h104l106 201h25v-221h-475v20zM306 710h160l-155 -151h-45z" />
    <glyph glyph-name="Zdotaccent" unicode="&#x17b;" 
d="M233 773l-7 74l14 63l109 7l36 -7l8 -75l-15 -62l-108 -8zM10 15l344 660h-182l-107 -194h-25v219h570v-15l-342 -660h170l122 199h20v-224h-570v15z" />
    <glyph glyph-name="zdotaccent" unicode="&#x17c;" horiz-adv-x="538" 
d="M25 20l258 445h-95l-109 -183h-25v203h459v-20l-248 -445h104l106 201h25v-221h-475v20zM217 569l-7 69l13 60l103 6l34 -6l8 -71l-15 -58l-101 -8z" />
    <glyph glyph-name="Zcaron" unicode="&#x17d;" 
d="M138 909h35l137 -66l137 66h35l-132 -138h-80zM10 15l344 660h-182l-107 -194h-25v219h570v-15l-342 -660h170l122 199h20v-224h-570v15z" />
    <glyph glyph-name="zcaron" unicode="&#x17e;" horiz-adv-x="538" 
d="M25 20l258 445h-95l-109 -183h-25v203h459v-20l-248 -445h104l106 201h25v-221h-475v20zM137 710h55l97 -74l97 74h55l-107 -151h-90z" />
    <glyph glyph-name="longs" unicode="&#x17f;" horiz-adv-x="395" 
d="M25 25l50 10v404h-50v25h50v6q0 35 26 71t68 66l141 103h110v-125h-135l-3 -16q-7 -42 -7 -90v-444l70 -10v-25h-320v25z" />
    <glyph glyph-name="florin" unicode="&#x192;" horiz-adv-x="445" 
d="M-20 -110h135l3 16q7 42 7 90v443h-50v25h50v6q0 35 26 71t68 66l141 103h110v-125h-135l-3 -16q-7 -42 -7 -90v-15h122v-25h-122v-434q0 -35 -26 -71t-68 -66l-141 -103h-110v125z" />
    <glyph glyph-name="AEacute" unicode="&#x1fc;" horiz-adv-x="1017" 
d="M674 909h155l-165 -138h-35zM5 25l40 10l433 665h514v-200h-25l-87 175h-189v-325h80l55 133h25v-290h-25l-55 132h-80v-300h189l80 184h25v-209h-554v25l40 10v290h-197l-185 -290l70 -10v-25h-154v25zM471 350v284l-181 -284h181z" />
    <glyph glyph-name="aeacute" unicode="&#x1fd;" horiz-adv-x="798" 
d="M773 268h-284q14 -61 55.5 -95.5t103.5 -34.5q34 0 56.5 5.5t50.5 19.5l14 -19q-50 -57 -97.5 -92t-112.5 -67q-66 0 -120.5 26.5t-87.5 74.5l-170 -101q-66 0 -111 33.5t-45 98.5q0 35 13.5 66t42.5 51l228 62v120q0 32 -6 43t-25 11q-13 0 -25 -4l-16 -155h-188v107
l236 82q86 0 125 -7.5t64 -26.5q46 23 104 34q46 0 90.5 -18.5t74.5 -59t30 -103.5v-51zM568 293q0 68 -3 103.5t-11 51t-23 15.5q-21 0 -34.5 -34t-13.5 -101q0 -13 2 -35h83zM309 272l-40 -14q-31 -30 -31 -94q0 -39 11 -62t29 -23q13 0 28 10l3 2v94v87zM416 710h160
l-155 -151h-45z" />
    <glyph glyph-name="Oslashacute" unicode="&#x1fe;" horiz-adv-x="785" 
d="M392 771h-35l45 138h155zM731.5 508.5q23.5 -65.5 23.5 -145.5q0 -106 -39 -179t-121 -121t-215 -81q-125 0 -212 59l-48 -56h-47l67 78q-54 46 -82 115.5t-28 158.5q0 106 39 179t121 121t215 81q143 0 233 -75l62 72h45l-81 -95q44 -46 67.5 -111.5zM289 236l205 240
q-14 97 -46 153t-74 56q-51 0 -72.5 -87t-21.5 -217q0 -79 9 -145zM484 101.5q21 86.5 21 218.5q0 52 -5 109l-204 -238q17 -83 46.5 -129.5t68.5 -46.5q52 0 73 86.5z" />
    <glyph glyph-name="oslashacute" unicode="&#x1ff;" horiz-adv-x="571" 
d="M527.5 357q18.5 -46 18.5 -101q0 -84 -38.5 -137t-99 -82t-148.5 -52q-87 0 -150 51l-42 -46h-28l55 60q-33 32 -51.5 77.5t-18.5 101.5q0 84 38.5 137t99 82t147.5 52q89 0 152 -52l38 42h26l-50 -54q33 -33 51.5 -79zM238 205l92 100q-6 80 -21.5 120t-33.5 40
t-28.5 -40.5t-10.5 -140.5q0 -31 2 -79zM324 59q10 39 10 137q0 32 -2 82l-92 -100q6 -80 21.5 -119t33.5 -39q19 0 29 39zM283 710h160l-155 -151h-45z" />
    <glyph glyph-name="Scommaaccent" unicode="&#x218;" horiz-adv-x="566" 
d="M143 -4q-51 14 -111 49v215h25l66 -150q35 -46 67.5 -71.5t72.5 -25.5q45 0 73 25t28 67q0 33 -16.5 59t-57.5 56l-148 109q-58 43 -84.5 82.5t-26.5 99.5q0 76 58 129.5t207 77.5q76 0 108.5 -4.5t100.5 -25.5v-208h-25l-79 168q-20 23 -41.5 34t-49.5 11
q-39 0 -65 -20.5t-26 -62.5q0 -34 18.5 -58.5t56.5 -52.5l142 -104q58 -42 81.5 -82t23.5 -101q0 -89 -69 -145t-217 -85q-61 0 -112 14zM178 -241l58 96l-58 55v40h170v-80l-146 -115z" />
    <glyph glyph-name="scommaaccent" unicode="&#x219;" horiz-adv-x="447" 
d="M121 -9.5q-53 8.5 -87 23.5v172h25l72 -133q27 -26 44.5 -35.5t42.5 -9.5t41.5 13t16.5 30q0 18 -12 31t-48 38l-116 81q-36 25 -55.5 55.5t-19.5 73.5q0 59 50 105.5t148 64.5q63 0 97 -5.5t79 -24.5v-155h-25l-91 136q-14 14 -26.5 19.5t-29.5 5.5q-19 0 -32 -11.5
t-13 -30.5q0 -20 13 -35.5t53 -43.5l114 -79q34 -23 49.5 -50.5t15.5 -66.5q0 -60 -46 -107t-147 -70q-60 0 -113 8.5zM139 -241l58 96l-58 55v40h170v-80l-146 -115z" />
    <glyph glyph-name="uni021A" unicode="&#x21a;" horiz-adv-x="592" 
d="M106 25l80 10v640h-46l-105 -192h-25v217h572v-217h-25l-105 192h-46v-640l80 -10v-25h-380v25zM211 -241l58 96l-58 55v40h170v-80l-146 -115z" />
    <glyph glyph-name="uni021B" unicode="&#x21b;" horiz-adv-x="392" 
d="M94 21.5q-34 36.5 -34 101.5v316h-55v25h55v56l200 105v-161h109v-25h-109v-298q0 -25 14.5 -38.5t34.5 -13.5q17 0 30.5 3.5t37.5 13.5l10 -23l-203 -98q-56 0 -90 36.5zM121 -241l58 96l-58 55v40h170v-80l-146 -115z" />
    <glyph glyph-name="uni0237" unicode="&#x237;" horiz-adv-x="320" 
d="M-20 -73h89l2 26q4 48 4 128v351l-39 -2l-3 28l216 37h26v-359q0 -68 -8.5 -109.5t-33.5 -77t-76 -81.5l-121 -108h-56v167z" />
    <glyph glyph-name="uni02BC" unicode="&#x2bc;" horiz-adv-x="280" 
d="M74 403l83 145l-61 -4l-38 8l-8 84l14 67l108 7l41 -7l7 -78l-13 -73l-114 -157z" />
    <glyph glyph-name="circumflex" unicode="&#x2c6;" horiz-adv-x="600" 
d="M205 710h90l117 -151h-55l-107 82l-107 -82h-55z" />
    <glyph glyph-name="caron" unicode="&#x2c7;" horiz-adv-x="600" 
d="M98 710h55l97 -74l97 74h55l-107 -151h-90z" />
    <glyph glyph-name="breve" unicode="&#x2d8;" horiz-adv-x="600" 
d="M158.5 600q-46.5 36 -69.5 90l19 15q62 -59 143 -59q48 0 79 16.5t59 42.5l19 -15q-22 -47 -49 -72t-93 -54q-61 0 -107.5 36z" />
    <glyph glyph-name="dotaccent" unicode="&#x2d9;" horiz-adv-x="600" 
d="M181 569l-7 69l13 60l103 6l34 -6l8 -71l-15 -58l-101 -8z" />
    <glyph glyph-name="ring" unicode="&#x2da;" horiz-adv-x="600" 
d="M146 577q-37 27 -37 85q0 44 33.5 70t89.5 42q57 0 90 -25.5t33 -86.5q0 -46 -32 -72.5t-88 -39.5q-52 0 -89 27zM288 607.5q23 21.5 23 54.5t-23 55t-56 22t-55.5 -22t-22.5 -55t22.5 -54.5t55.5 -21.5t56 21.5z" />
    <glyph glyph-name="ogonek" unicode="&#x2db;" horiz-adv-x="600" 
d="M191.5 -221.5q-49.5 23.5 -49.5 72.5v74l149 122h10l-47 -147v-50q0 -37 20 -58.5t83 -21.5v-15q-116 0 -165.5 23.5z" />
    <glyph glyph-name="tilde" unicode="&#x2dc;" horiz-adv-x="600" 
d="M126 617l-46 -58h-18l46 136l36 10l224 -57l45 58h19l-46 -137l-36 -10z" />
    <glyph glyph-name="hungarumlaut" unicode="&#x2dd;" horiz-adv-x="600" 
d="M99 710h150l-150 -151h-35zM290 710h150l-150 -151h-35z" />
    <glyph glyph-name="gravecomb" unicode="&#x300;" horiz-adv-x="0" 
d="M-355 710h160l40 -151h-45z" />
    <glyph glyph-name="acutecomb" unicode="&#x301;" horiz-adv-x="0" 
d="M-305 710h160l-155 -151h-45z" />
    <glyph glyph-name="uni0302" unicode="&#x302;" horiz-adv-x="0" 
d="M-295 710h90l117 -151h-55l-107 82l-107 -82h-55z" />
    <glyph glyph-name="tildecomb" unicode="&#x303;" horiz-adv-x="0" 
d="M-374 617l-46 -58h-18l46 136l36 10l224 -57l45 58h19l-46 -137l-36 -10z" />
    <glyph glyph-name="uni0304" unicode="&#x304;" horiz-adv-x="0" 
d="M-400 660h300v-80h-300v80z" />
    <glyph glyph-name="uni0306" unicode="&#x306;" horiz-adv-x="0" 
d="M-341.5 600q-46.5 36 -69.5 90l19 15q62 -59 143 -59q48 0 79 16.5t59 42.5l19 -15q-22 -47 -49 -72t-93 -54q-61 0 -107.5 36z" />
    <glyph glyph-name="uni0307" unicode="&#x307;" horiz-adv-x="0" 
d="M-319 569l-7 69l13 60l103 6l34 -6l8 -71l-15 -58l-101 -8z" />
    <glyph glyph-name="uni0308" unicode="&#x308;" horiz-adv-x="0" 
d="M-414 564l-7 70l13 58l86 7l35 -7l9 -69l-15 -59l-84 -7zM-214 564l-7 70l13 58l86 7l35 -7l9 -69l-15 -59l-84 -7z" />
    <glyph glyph-name="uni030A" unicode="&#x30a;" horiz-adv-x="0" 
d="M-354 577q-37 27 -37 85q0 44 33.5 70t89.5 42q57 0 90 -25.5t33 -86.5q0 -46 -32 -72.5t-88 -39.5q-52 0 -89 27zM-212 607.5q23 21.5 23 54.5t-23 55t-56 22t-55.5 -22t-22.5 -55t22.5 -54.5t55.5 -21.5t56 21.5z" />
    <glyph glyph-name="uni030B" unicode="&#x30b;" horiz-adv-x="0" 
d="M-401 710h150l-150 -151h-35zM-210 710h150l-150 -151h-35z" />
    <glyph glyph-name="uni030C" unicode="&#x30c;" horiz-adv-x="0" 
d="M-402 710h55l97 -74l97 74h55l-107 -151h-90z" />
    <glyph glyph-name="uni0312" unicode="&#x312;" horiz-adv-x="0" 
d="M-331 629l146 90l24 -5l-58 -68l58 -52v-35h-170v70z" />
    <glyph glyph-name="uni0326" unicode="&#x326;" horiz-adv-x="0" 
d="M-334 -241l58 96l-58 55v40h170v-80l-146 -115z" />
    <glyph glyph-name="uni0327" unicode="&#x327;" horiz-adv-x="0" 
d="M-342 -180h91q13 19 13 40q0 27 -11.5 36t-35.5 14l66 96h25l-27 -36q44 -7 64.5 -29.5t20.5 -49.5q0 -25 -18 -43t-39 -28t-72 -30l-86 -35h-32z" />
    <glyph glyph-name="uni0328" unicode="&#x328;" horiz-adv-x="0" 
d="M-308.5 -221.5q-49.5 23.5 -49.5 72.5v74l149 122h10l-47 -147v-50q0 -37 20 -58.5t83 -21.5v-15q-116 0 -165.5 23.5z" />
    <glyph glyph-name="uni0394" unicode="&#x394;" horiz-adv-x="718" 
d="M20 25l329 680h25l324 -680v-25h-678v25zM453 25l-199 431l-208 -431h407z" />
    <glyph glyph-name="uni03A9" unicode="&#x3a9;" horiz-adv-x="760" 
d="M55 180h25l10 -65h250v34q-83 8 -153.5 39.5t-113.5 87.5t-43 134q0 119 86.5 196t273.5 109q99 0 176.5 -36.5t120.5 -99.5t43 -139q0 -127 -82.5 -193t-227.5 -95v-37h240l20 65h25v-180h-310v190q32 11 56 61t24 158q0 122 -29 196.5t-77 74.5q-39 0 -61.5 -67.5
t-22.5 -171.5q0 -69 12 -124t31 -88t37 -39v-190h-310v180z" />
    <glyph glyph-name="uni03BC" unicode="&#x3bc;" 
d="M575 25v-25h-186l-50 90l-170 -105q-69 0 -99 33v-48l125 -200h-150v715h210v-350q0 -18 9 -26t27 -8q19 0 33 9l11 6v369h200v-450z" />
    <glyph glyph-name="pi" unicode="&#x3c0;" 
d="M98 460h-19l-55 -140h-23v165h617v-25h-40v-425l40 -10v-25h-186l-54 96v364h-80v-460h-200v460z" />
    <glyph glyph-name="uni0E3F" unicode="&#xe3f;" horiz-adv-x="643" 
d="M549.5 320.5q63.5 -49.5 63.5 -120.5q0 -88 -65.5 -138t-187.5 -62h-22v-80h-25v80h-293v25l40 10v630l-40 10v25h293v81h25v-81h62q62 0 106.5 -22t67 -57.5t22.5 -74.5q0 -75 -59.5 -119.5t-194.5 -51.5q144 -5 207.5 -54.5zM280 385h21q4 0 12 2v288h-3l-30 -10v-280z
M338 667v-263q18 20 28 56.5t10 84.5q0 97 -38 122zM313 25v334q-4 1 -12 1h-21v-325l30 -10h3zM378 95.5q15 44.5 15 102.5t-15 96t-40 55v-315q25 17 40 61.5z" />
    <glyph glyph-name="Wgrave" unicode="&#x1e80;" horiz-adv-x="1086" 
d="M398 909h155l45 -138h-35zM49 665l-39 10v25h342v-25l-61 -10l147 -504l75 307l-64 197l-39 10v25h342v-25l-61 -10l147 -504l146 504l-66 10v25h158v-25l-53 -10l-192 -648l-160 -35l-140 429l-98 -394l-162 -35z" />
    <glyph glyph-name="wgrave" unicode="&#x1e81;" horiz-adv-x="872" 
d="M28 450l-23 10v25h279v-25l-43 -10l100 -355l73 263l-26 92l-23 10v25h279v-25l-43 -10l100 -355l99 355l-43 10v25h110v-25l-28 -10l-118 -431l-196 -40l-90 309l-74 -269l-196 -40zM297 710h160l40 -151h-45z" />
    <glyph glyph-name="Wacute" unicode="&#x1e82;" horiz-adv-x="1086" 
d="M552 909h155l-165 -138h-35zM49 665l-39 10v25h342v-25l-61 -10l147 -504l75 307l-64 197l-39 10v25h342v-25l-61 -10l147 -504l146 504l-66 10v25h158v-25l-53 -10l-192 -648l-160 -35l-140 429l-98 -394l-162 -35z" />
    <glyph glyph-name="wacute" unicode="&#x1e83;" horiz-adv-x="872" 
d="M28 450l-23 10v25h279v-25l-43 -10l100 -355l73 263l-26 92l-23 10v25h279v-25l-43 -10l100 -355l99 355l-43 10v25h110v-25l-28 -10l-118 -431l-196 -40l-90 309l-74 -269l-196 -40zM493 710h160l-155 -151h-45z" />
    <glyph glyph-name="Wdieresis" unicode="&#x1e84;" horiz-adv-x="1086" 
d="M358 761l-7 70l13 58l86 7l35 -7l9 -69l-15 -59l-84 -7zM598 761l-7 70l13 58l86 7l35 -7l9 -69l-15 -59l-84 -7zM49 665l-39 10v25h342v-25l-61 -10l147 -504l75 307l-64 197l-39 10v25h342v-25l-61 -10l147 -504l146 504l-66 10v25h158v-25l-53 -10l-192 -648l-160 -35
l-140 429l-98 -394l-162 -35z" />
    <glyph glyph-name="wdieresis" unicode="&#x1e85;" horiz-adv-x="872" 
d="M28 450l-23 10v25h279v-25l-43 -10l100 -355l73 263l-26 92l-23 10v25h279v-25l-43 -10l100 -355l99 355l-43 10v25h110v-25l-28 -10l-118 -431l-196 -40l-90 309l-74 -269l-196 -40zM311 564l-7 70l13 58l86 7l35 -7l9 -69l-15 -59l-84 -7zM511 564l-7 70l13 58l86 7
l35 -7l9 -69l-15 -59l-84 -7z" />
    <glyph glyph-name="Ygrave" unicode="&#x1ef2;" horiz-adv-x="715" 
d="M293 909h155l45 -138h-35zM176 25l83 10v237l-201 393l-53 10v25h376v-25l-66 -10l156 -342l156 342l-70 10v25h153v-25l-53 -10l-178 -391v-239l82 -10v-25h-385v25z" />
    <glyph glyph-name="ygrave" unicode="&#x1ef3;" horiz-adv-x="570" 
d="M69 -68h184l113 145l-183 -61l-153 434l-25 10v25h294v-25l-46 -10l119 -354l123 354l-46 10v25h116v-25l-31 -10l-137 -394l-146 -291h-182v167zM106 710h160l40 -151h-45z" />
    <glyph glyph-name="uni2002" unicode="&#x2002;" horiz-adv-x="500" 
 />
    <glyph glyph-name="uni2003" unicode="&#x2003;" horiz-adv-x="1000" 
 />
    <glyph glyph-name="uni2004" unicode="&#x2004;" horiz-adv-x="0" 
 />
    <glyph glyph-name="uni2005" unicode="&#x2005;" horiz-adv-x="250" 
 />
    <glyph glyph-name="uni2009" unicode="&#x2009;" horiz-adv-x="135" 
 />
    <glyph glyph-name="uni200A" unicode="&#x200a;" horiz-adv-x="75" 
 />
    <glyph glyph-name="endash" unicode="&#x2013;" horiz-adv-x="470" 
d="M35 297h400v-35h-400v35z" />
    <glyph glyph-name="emdash" unicode="&#x2014;" horiz-adv-x="870" 
d="M35 297h800v-35h-800v35z" />
    <glyph glyph-name="quoteleft" unicode="&#x2018;" horiz-adv-x="285" 
d="M211 697l-83 -145l61 4l38 -8l8 -84l-14 -67l-108 -7l-41 7l-7 78l13 73l114 157z" />
    <glyph glyph-name="quoteright" unicode="&#x2019;" horiz-adv-x="280" 
d="M74 403l83 145l-61 -4l-38 8l-8 84l14 67l108 7l41 -7l7 -78l-13 -73l-114 -157z" />
    <glyph glyph-name="quotesinglbase" unicode="&#x201a;" horiz-adv-x="240" 
d="M64 -146l83 145l-61 -4l-38 8l-8 84l14 67l108 7l41 -7l7 -78l-13 -73l-114 -157z" />
    <glyph glyph-name="quotedblleft" unicode="&#x201c;" horiz-adv-x="458" 
d="M191 696l-83 -145l61 4l38 -8l8 -84l-14 -67l-108 -7l-41 7l-7 78l13 73l114 157zM404 696l-83 -145l61 4l38 -8l8 -84l-14 -67l-108 -7l-41 7l-7 78l13 73l114 157z" />
    <glyph glyph-name="quotedblright" unicode="&#x201d;" horiz-adv-x="458" 
d="M282 404l83 145l-61 -4l-38 8l-8 84l14 67l108 7l41 -7l7 -78l-13 -73l-114 -157zM69 404l83 145l-61 -4l-38 8l-8 84l14 67l108 7l41 -7l7 -78l-13 -73l-114 -157z" />
    <glyph glyph-name="quotedblbase" unicode="&#x201e;" horiz-adv-x="458" 
d="M282 -146l83 145l-61 -4l-38 8l-8 84l14 67l108 7l41 -7l7 -78l-13 -73l-114 -157zM69 -146l83 145l-61 -4l-38 8l-8 84l14 67l108 7l41 -7l7 -78l-13 -73l-114 -157z" />
    <glyph glyph-name="dagger" unicode="&#x2020;" horiz-adv-x="450" 
d="M177 216l-77 103l72 51l46 125l-193 -84v175l193 -87l-84 211h175l-87 -211l203 87v-175l-203 84l51 -125l72 -51l-77 -103l-43 -276h-5z" />
    <glyph glyph-name="daggerdbl" unicode="&#x2021;" horiz-adv-x="460" 
d="M223 151l-193 -87v175l193 -84l-46 125l-72 45l72 45l46 125l-193 -84v175l193 -87l-84 211h175l-87 -211l203 87v-175l-203 84l51 -125l72 -45l-72 -45l-51 -125l203 84v-175l-203 87l87 -211h-175z" />
    <glyph glyph-name="bullet" unicode="&#x2022;" horiz-adv-x="265" 
d="M57 228l-7 80l7 71l102 7l49 -7l7 -79l-7 -72l-102 -7z" />
    <glyph glyph-name="ellipsis" unicode="&#x2026;" horiz-adv-x="914" 
d="M84 0l-9 89l16 75l115 9l41 -9l10 -88l-18 -76l-114 -9zM375 0l-9 89l16 75l115 9l41 -9l10 -88l-18 -76l-114 -9zM666 0l-9 89l16 75l115 9l41 -9l10 -88l-18 -76l-114 -9z" />
    <glyph glyph-name="perthousand" unicode="&#x2030;" horiz-adv-x="1241" 
d="M649 705h39l-493 -710h-41zM129.5 370.5q-36.5 20.5 -58 58.5t-21.5 88q0 57 26.5 93.5t68 56.5t100.5 36q46 0 82.5 -20.5t58 -58.5t21.5 -88q0 -57 -26.5 -93.5t-68 -57t-101.5 -35.5q-45 0 -81.5 20.5zM255 400.5q7 26.5 7 94.5q0 92 -12.5 138t-28.5 46
q-12 0 -19 -27.5t-7 -96.5q0 -91 12 -136t28 -45q13 0 20 26.5zM519.5 20.5q-36.5 20.5 -58 58.5t-21.5 88q0 57 26.5 93.5t68 56.5t100.5 36q46 0 82.5 -20.5t58 -58.5t21.5 -88q0 -57 -26.5 -93.5t-68 -57t-101.5 -35.5q-45 0 -81.5 20.5zM913.5 20.5q-36.5 20.5 -58 58.5
t-21.5 88q0 57 26.5 93.5t68 56.5t100.5 36q46 0 82.5 -20.5t58 -58.5t21.5 -88q0 -57 -26.5 -93.5t-68 -57t-101.5 -35.5q-45 0 -81.5 20.5zM645 50.5q7 26.5 7 94.5q0 92 -12.5 138t-28.5 46q-12 0 -19 -27.5t-7 -96.5q0 -91 12 -136t28 -45q13 0 20 26.5zM1039 50.5
q7 26.5 7 94.5q0 92 -12.5 138t-28.5 46q-12 0 -19 -27.5t-7 -96.5q0 -91 12 -136t28 -45q13 0 20 26.5z" />
    <glyph glyph-name="guilsinglleft" unicode="&#x2039;" horiz-adv-x="308" 
d="M50 235l183 220h35l-127 -221l127 -219h-37z" />
    <glyph glyph-name="guilsinglright" unicode="&#x203a;" horiz-adv-x="308" 
d="M177 234l-127 221h35l183 -220l-181 -220h-37z" />
    <glyph glyph-name="fraction" unicode="&#x2044;" horiz-adv-x="106" 
d="M227 710h39l-385 -760h-41z" />
    <glyph glyph-name="uni2070" unicode="&#x2070;" horiz-adv-x="460" 
d="M89.5 442.5q-45.5 52.5 -45.5 138.5q0 87 47 136.5t153 77.5q81 0 126.5 -52.5t45.5 -138.5q0 -87 -46.5 -136.5t-149.5 -77.5q-85 0 -130.5 52.5zM259 449q6 40 6 133q0 101 -7 147.5t-29 46.5q-21 0 -27.5 -40t-6.5 -132q0 -102 7 -148.5t29 -46.5t28 40z" />
    <glyph glyph-name="uni2074" unicode="&#x2074;" horiz-adv-x="414" 
d="M191 513h-156l-9 12l179 260h157v-16l-318 -241h147v47l123 73v-120h74v-15h-74v-113h-123v113z" />
    <glyph glyph-name="uni2075" unicode="&#x2075;" horiz-adv-x="377" 
d="M44 494h139q16 22 16 47q0 18 -17.5 36t-49.5 18q-15 0 -26 -2.5t-26 -8.5l-20 -8l-8 6l29 203h241l-24 -97h-215l-16 -98l157 77q54 0 81.5 -26.5t27.5 -57.5q0 -34 -27.5 -57.5t-77.5 -49.5l-152 -79h-32v97z" />
    <glyph glyph-name="uni2076" unicode="&#x2076;" horiz-adv-x="429" 
d="M362.5 622q22.5 -27 22.5 -68q0 -68 -42.5 -104.5t-127.5 -57.5q-78 0 -121.5 41t-43.5 115q0 85 65.5 147t206.5 102l4 -11q-55 -33 -82.5 -59t-38.5 -55.5t-13 -75.5l100 53q48 0 70.5 -27zM250 526q0 33 -5.5 46t-18.5 13q-16 0 -24 -2l-10 -3v-13q1 -67 3.5 -102
t8 -48.5t16.5 -13.5q30 0 30 123z" />
    <glyph glyph-name="uni2077" unicode="&#x2077;" horiz-adv-x="360" 
d="M58 412l215 276h-244v97h289l10 -12l-186 -373h-84v12z" />
    <glyph glyph-name="uni2078" unicode="&#x2078;" horiz-adv-x="434" 
d="M370.5 561q16.5 -23 16.5 -57q0 -46 -39 -71t-129 -41q-77 6 -124 28t-47 70q0 32 22.5 48.5t68.5 28.5l-15 10q-41 30 -59 50.5t-18 53.5q0 50 47 79.5t131 34.5q71 -7 114.5 -28.5t43.5 -60.5q0 -25 -23.5 -42.5t-77.5 -27.5l39 -28q33 -24 49.5 -47zM168 747
q0 -20 15.5 -36t44.5 -37l28 -20q6 17 6 53q0 71 -52 71q-42 0 -42 -31zM261 443q0 22 -11.5 39t-35.5 33l-46 31q-4 -24 -4 -48q0 -56 17 -73.5t42 -17.5q38 0 38 36z" />
    <glyph glyph-name="uni2079" unicode="&#x2079;" horiz-adv-x="420" 
d="M326.5 758q43.5 -39 43.5 -112q0 -86 -67 -151.5t-205 -104.5l-4 10q54 34 81.5 62t38 57.5t11.5 73.5l-94 -55q-48 0 -72 28.5t-24 69.5q0 68 42.5 104t127.5 57q78 0 121.5 -39zM208 601.5l10 2.5l7 1v33q0 61 -2.5 92t-7.5 43t-15 12q-30 0 -30 -105q0 -45 6 -62.5
t21 -17.5q5 0 11 1.5z" />
    <glyph glyph-name="uni207A" unicode="&#x207a;" horiz-adv-x="409" 
d="M194 580h-144v20h144v133h21v-133h144v-20h-144v-130h-21v130z" />
    <glyph glyph-name="uni207B" unicode="&#x207b;" horiz-adv-x="415" 
d="M50 615h315v-19h-315v19z" />
    <glyph glyph-name="uni207C" unicode="&#x207c;" horiz-adv-x="415" 
d="M50 648h315v-19h-315v19zM50 541h315v-20h-315v20z" />
    <glyph glyph-name="uni207D" unicode="&#x207d;" horiz-adv-x="241" 
d="M87.5 439.5q-37.5 59.5 -37.5 144.5t38 145t127 120l6 -7q-96 -90 -96 -258q0 -166 96 -258l-6 -7q-90 61 -127.5 120.5z" />
    <glyph glyph-name="uni207E" unicode="&#x207e;" horiz-adv-x="241" 
d="M20 326q95 91 95 258q0 169 -95 258l6 7q89 -60 127 -120t38 -145t-37.5 -144.5t-127.5 -120.5z" />
    <glyph glyph-name="uni2080" unicode="&#x2080;" horiz-adv-x="460" 
d="M89.5 -107.5q-45.5 52.5 -45.5 138.5q0 87 47 136.5t153 77.5q81 0 126.5 -52.5t45.5 -138.5q0 -87 -46.5 -136.5t-149.5 -77.5q-85 0 -130.5 52.5zM259 -101q6 40 6 133q0 101 -7 147.5t-29 46.5q-21 0 -27.5 -40t-6.5 -132q0 -102 7 -148.5t29 -46.5t28 40z" />
    <glyph glyph-name="uni2081" unicode="&#x2081;" horiz-adv-x="318" 
d="M48 -134l62 6v309l-67 -16l-5 15l179 64h16v-372l62 -6v-16h-247v16z" />
    <glyph glyph-name="uni2082" unicode="&#x2082;" horiz-adv-x="419" 
d="M29 -137l108 120q40 45 65.5 91t25.5 80q0 25 -11 45t-31 20q-5 0 -11 2l-24 -119h-116v80l180 63q78 0 114 -27t36 -72q0 -47 -43.5 -90t-126.5 -77l-77 -32h252v-16l-29 -81h-302z" />
    <glyph glyph-name="uni2083" unicode="&#x2083;" horiz-adv-x="414" 
d="M44 -60h170q7 12 9.5 21.5t2.5 24.5q0 29 -24.5 45.5t-66.5 15.5l-6 12l48 36q24 18 32.5 31.5t8.5 40.5q0 23 -11 35t-29 12q-1 0 -5 2l-28 -93h-104v65l187 57q66 0 94.5 -17.5t28.5 -44.5q0 -24 -29.5 -44.5t-104.5 -26.5q53 0 84.5 -15.5t44 -36t12.5 -36.5
q0 -29 -12.5 -46.5t-36.5 -31t-76 -35.5l-156 -67h-33v96z" />
    <glyph glyph-name="uni2084" unicode="&#x2084;" horiz-adv-x="414" 
d="M191 -37h-156l-9 12l179 260h157v-16l-318 -241h147v47l123 73v-120h74v-15h-74v-113h-123v113z" />
    <glyph glyph-name="uni2085" unicode="&#x2085;" horiz-adv-x="377" 
d="M44 -56h139q16 22 16 47q0 18 -17.5 36t-49.5 18q-15 0 -26 -2.5t-26 -8.5l-20 -8l-8 6l29 203h241l-24 -97h-215l-16 -98l157 77q54 0 81.5 -26.5t27.5 -57.5q0 -34 -27.5 -57.5t-77.5 -49.5l-152 -79h-32v97z" />
    <glyph glyph-name="uni2086" unicode="&#x2086;" horiz-adv-x="429" 
d="M362.5 72q22.5 -27 22.5 -68q0 -68 -42.5 -104.5t-127.5 -57.5q-78 0 -121.5 41t-43.5 115q0 85 65.5 147t206.5 102l4 -11q-55 -33 -82.5 -59t-38.5 -55.5t-13 -75.5l100 53q48 0 70.5 -27zM250 -24q0 33 -5.5 46t-18.5 13q-16 0 -24 -2l-10 -3v-13q1 -67 3.5 -102
t8 -48.5t16.5 -13.5q30 0 30 123z" />
    <glyph glyph-name="uni2087" unicode="&#x2087;" horiz-adv-x="360" 
d="M58 -138l215 276h-244v97h289l10 -12l-186 -373h-84v12z" />
    <glyph glyph-name="uni2088" unicode="&#x2088;" horiz-adv-x="434" 
d="M370.5 11q16.5 -23 16.5 -57q0 -46 -39 -71t-129 -41q-77 6 -124 28t-47 70q0 32 22.5 48.5t68.5 28.5l-15 10q-41 30 -59 50.5t-18 53.5q0 50 47 79.5t131 34.5q71 -7 114.5 -28.5t43.5 -60.5q0 -25 -23.5 -42.5t-77.5 -27.5l39 -28q33 -24 49.5 -47zM168 197
q0 -20 15.5 -36t44.5 -37l28 -20q6 17 6 53q0 71 -52 71q-42 0 -42 -31zM261 -107q0 22 -11.5 39t-35.5 33l-46 31q-4 -24 -4 -48q0 -56 17 -73.5t42 -17.5q38 0 38 36z" />
    <glyph glyph-name="uni2089" unicode="&#x2089;" horiz-adv-x="420" 
d="M326.5 208q43.5 -39 43.5 -112q0 -86 -67 -151.5t-205 -104.5l-4 10q54 34 81.5 62t38 57.5t11.5 73.5l-94 -55q-48 0 -72 28.5t-24 69.5q0 68 42.5 104t127.5 57q78 0 121.5 -39zM208 51.5l10 2.5l7 1v33q0 61 -2.5 92t-7.5 43t-15 12q-30 0 -30 -105q0 -45 6 -62.5
t21 -17.5q5 0 11 1.5z" />
    <glyph glyph-name="uni208A" unicode="&#x208a;" horiz-adv-x="409" 
d="M194 30h-144v20h144v133h21v-133h144v-20h-144v-130h-21v130z" />
    <glyph glyph-name="uni208B" unicode="&#x208b;" horiz-adv-x="415" 
d="M50 65h315v-19h-315v19z" />
    <glyph glyph-name="uni208C" unicode="&#x208c;" horiz-adv-x="415" 
d="M50 98h315v-19h-315v19zM50 -9h315v-20h-315v20z" />
    <glyph glyph-name="uni208D" unicode="&#x208d;" horiz-adv-x="241" 
d="M87.5 -110.5q-37.5 59.5 -37.5 144.5t38 145t127 120l6 -7q-96 -90 -96 -258q0 -166 96 -258l-6 -7q-90 61 -127.5 120.5z" />
    <glyph glyph-name="uni208E" unicode="&#x208e;" horiz-adv-x="241" 
d="M20 -224q95 91 95 258q0 169 -95 258l6 7q89 -60 127 -120t38 -145t-37.5 -144.5t-127.5 -120.5z" />
    <glyph glyph-name="uni20A9" unicode="&#x20a9;" horiz-adv-x="1086" 
d="M1023 665l-87 -294h108v-25h-116l-11 -40h127v-25h-135l-78 -264l-160 -35l-98 299h-74l-66 -264l-162 -35l-97 299h-132v25h124l-13 40h-111v25h103l-96 294l-39 10v25h342v-25l-61 -10l86 -294h112l24 97l-64 197l-39 10v25h342v-25l-61 -10l86 -294h122l85 294l-66 10
v25h158v-25zM521 371h23l-13 40zM396 306h77l10 40h-99zM565 306l-13 40h-37l-10 -40h60zM892 346h-108l12 -40h84zM467 281h-64l35 -120zM873 281h-70l35 -120z" />
    <glyph glyph-name="Euro" unicode="&#x20ac;" horiz-adv-x="686" 
d="M646 95q-41 -31 -104 -63t-112 -47q-166 0 -257 79t-99 221h-29v25h28v2q0 43 7 78h-35v25h40q28 118 120 194.5t230 105.5q99 0 208 -45v-220h-25l-99 202q-20 21 -38 30.5t-41 9.5q-65 0 -100 -72.5t-37 -204.5h203l-23 -25h-180q0 -30 4 -80h132l-23 -25h-106
q15 -107 58.5 -163.5t109.5 -56.5t156 52z" />
    <glyph glyph-name="uni20AE" unicode="&#x20ae;" horiz-adv-x="592" 
d="M582 523h-25l-105 152h-46v-219l113 61v-29l-113 -61v-36l113 61v-29l-113 -61v-327l80 -10v-25h-380v25l80 10v208l-112 -60v29l112 60v36l-112 -60v29l112 60v338h-46l-105 -152h-25v177h572v-177z" />
    <glyph glyph-name="uni20B4" unicode="&#x20b4;" horiz-adv-x="566" 
d="M570 434v-25h-576v25h189l89 65q38 28 56.5 52.5t18.5 58.5q0 42 -26 62.5t-65 20.5q-28 0 -49.5 -11t-41.5 -34l-79 -168h-25v208q68 21 100.5 25.5t108.5 4.5q149 -24 207 -77.5t58 -129.5q0 -44 -15 -77h50zM-6 329h576v-25h-180l-114 -84q-41 -30 -57.5 -56
t-16.5 -59q0 -42 28 -67t73 -25q40 0 72.5 25.5t67.5 71.5l66 150h25v-215q-60 -35 -111 -49t-112 -14q-148 29 -217 85t-69 145q0 54 19 92h-50v25z" />
    <glyph glyph-name="uni20B8" unicode="&#x20b8;" horiz-adv-x="592" 
d="M10 700h572v-25h-572v25zM106 25l80 10v582h-46l-105 -152h-25v177h572v-177h-25l-105 152h-46v-582l80 -10v-25h-380v25z" />
    <glyph glyph-name="uni20B9" unicode="&#x20b9;" horiz-adv-x="487" 
d="M482 25v-25h-254l-133 330h-75v25h87q32 0 51 39.5t21 109.5h-159v25h159q-2 65 -24 105.5t-66 40.5h-69v25h445v-25h-134q39 -21 61 -58t22 -88h51v-25h-53q-18 -155 -285 -173l210 -41l114 -255z" />
    <glyph glyph-name="uni20BA" unicode="&#x20ba;" horiz-adv-x="643" 
d="M673 277l-40 -10q0 -97 -31.5 -153t-90.5 -81.5t-151 -32.5h-340v25l40 10v189l-72 -41v29l72 41v36l-72 -41v29l72 41v347l-40 10v25h300v-25l-40 -10v-222l183 104v-29l-183 -104v-36l183 104v-29l-183 -104v-314l30 -10q103 0 103 242l-40 10v25h300v-25z" />
    <glyph glyph-name="uni20BD" unicode="&#x20bd;" horiz-adv-x="603" 
d="M280 310v-44h154v-25h-154v-206l36 -10v-25h-296v25l40 10v206h-40v25h40v44h-40v25h40v330l-40 10v25h365q88 0 148 -43.5t60 -133.5q0 -65 -33.5 -105.5t-90.5 -63.5t-148 -44h-41zM280 335h16q29 0 48 49t19 129q0 72 -15.5 117t-42.5 45l-25 -10v-330z" />
    <glyph glyph-name="uni2113" unicode="&#x2113;" horiz-adv-x="572" 
d="M494 138l9 -14l-258 -142l-148 22v205l-57 -19v25l57 22v360l247 121q88 0 138 -42.5t50 -116.5q0 -78 -62.5 -145.5t-192.5 -130.5v-238zM277 333q41 34 55.5 79t14.5 120q0 78 -12 110.5t-40 32.5l-18 -10v-332z" />
    <glyph glyph-name="uni2116" unicode="&#x2116;" horiz-adv-x="1015" 
d="M31 25l60 10v630l-71 10v25h285l209 -430v430h100v-25l-70 -10v-665h-133l-290 585v-585h-90v25zM680.5 97q-40.5 24 -64 68t-23.5 102q0 68 29.5 110.5t75.5 65.5t113 42q50 0 90.5 -24t64.5 -68.5t24 -102.5q0 -67 -29.5 -109.5t-76 -65.5t-113.5 -42q-50 0 -90.5 24z
M823 136q8 30 8 105q0 103 -14 154.5t-33 51.5q-15 0 -23.5 -30t-8.5 -104q0 -104 14 -155.5t34 -51.5q15 0 23 30zM596 35h391v-35h-391v35z" />
    <glyph glyph-name="trademark" unicode="&#x2122;" horiz-adv-x="997" 
d="M107 329l48 5v352h-27l-63 -105h-15v119h344v-119h-15l-63 105h-28v-352l48 -5v-14h-229v14zM414 329l24 5v347l-24 5v14h170l106 -255l102 255h155v-14l-27 -5v-347l27 -5v-14h-183v14l24 5v303l-131 -325h-64l-137 349v-327l33 -5v-14h-75v14z" />
    <glyph glyph-name="uni2126" unicode="&#x2126;" horiz-adv-x="800" 
d="M75 180h25l10 -65h250v34q-83 8 -153.5 39.5t-113.5 87.5t-43 134q0 119 86.5 196t273.5 109q99 0 176.5 -36.5t120.5 -99.5t43 -139q0 -127 -82.5 -193t-227.5 -95v-37h240l20 65h25v-180h-310v190q32 11 56 61t24 158q0 122 -29 196.5t-77 74.5q-39 0 -61.5 -67.5
t-22.5 -171.5q0 -69 12 -124t31 -88t37 -39v-190h-310v180z" />
    <glyph glyph-name="estimated" unicode="&#x212e;" horiz-adv-x="890" 
d="M235 30.5q-88 45.5 -136.5 125.5t-48.5 179q0 109 39 179t126 116t240 85q172 0 275 -82t110 -243v-58h-564v-87q24 -215 170 -215q66 0 107.5 52.5t52.5 137.5h224q-21 -77 -72.5 -123.5t-128.5 -70.5t-194 -41q-112 0 -200 45.5zM611 400v111q-13 83 -52.5 123.5
t-114.5 40.5t-114.5 -40.5t-53.5 -119.5v-115h335z" />
    <glyph glyph-name="arrowleft" unicode="&#x2190;" horiz-adv-x="610" 
d="M50 295l270 264v-79l-166 -155h406v-60h-406l166 -155v-80z" />
    <glyph glyph-name="arrowup" unicode="&#x2191;" horiz-adv-x="630" 
d="M285 445l-155 -165h-80l265 270l265 -270h-80l-155 165v-405h-60v405z" />
    <glyph glyph-name="arrowright" unicode="&#x2192;" horiz-adv-x="610" 
d="M290 110l166 155h-406v60h406l-166 155v79l270 -264l-270 -265v80z" />
    <glyph glyph-name="arrowdown" unicode="&#x2193;" horiz-adv-x="630" 
d="M50 310h80l155 -165v405h60v-405l155 165h80l-265 -270z" />
    <glyph glyph-name="uni2196" unicode="&#x2196;" horiz-adv-x="482" 
d="M102 380v-231l-52 -56v382h382l-57 -53h-231l288 -287l-43 -42z" />
    <glyph glyph-name="uni2197" unicode="&#x2197;" horiz-adv-x="482" 
d="M50 135l288 287h-231l-57 53h382v-382l-52 56v231l-287 -287z" />
    <glyph glyph-name="uni2198" unicode="&#x2198;" horiz-adv-x="482" 
d="M107 132h231l-288 287l43 42l287 -287v231l52 56v-382h-382z" />
    <glyph glyph-name="uni2199" unicode="&#x2199;" horiz-adv-x="482" 
d="M50 461l52 -56v-231l287 287l43 -42l-288 -287h231l57 -53h-382v382z" />
    <glyph glyph-name="partialdiff" unicode="&#x2202;" 
d="M587 268q0 -86 -32.5 -150t-94 -98.5t-145.5 -34.5q-139 38 -210.5 105t-71.5 185q0 75 37.5 126t117.5 51l165 -103q-4 87 -25 147t-67.5 108.5t-129.5 99.5l7 17q449 -136 449 -453zM354 323l-15 8q-28 15 -44 15q-22 0 -32 -27.5t-10 -92.5q0 -219 53 -219
q16 0 25 19.5t14 66.5t8 136q2 66 1 94z" />
    <glyph glyph-name="emptyset" unicode="&#x2205;" horiz-adv-x="600" 
d="M468 485q21 -26 32.5 -59.5t11.5 -70.5q0 -57 -25.5 -103t-71.5 -72.5t-105 -26.5q-78 0 -131 44l-67 -67l-26 24l68 68q-46 56 -46 133q0 57 25.5 103t71.5 72.5t105 26.5q78 0 134 -46l66 66l26 -24zM182 250l234 234q-45 38 -106 38q-48 0 -85 -22.5t-57 -61
t-20 -83.5q0 -60 34 -105zM440 457l-234 -233q44 -36 104 -36q48 0 85 22.5t57 61t20 83.5q0 59 -32 102z" />
    <glyph glyph-name="uni2206" unicode="&#x2206;" horiz-adv-x="718" 
d="M20 25l329 680h25l324 -680v-25h-678v25zM453 25l-199 431l-208 -431h407z" />
    <glyph glyph-name="product" unicode="&#x220f;" horiz-adv-x="727" 
d="M20 -135l40 10v790l-40 10v25h687v-25l-60 -10v-790l40 -10v-25h-290v25l40 10v800h-167v-800l40 -10v-25h-290v25z" />
    <glyph glyph-name="summation" unicode="&#x2211;" 
d="M33 -140l285 367l-259 433l22 40h489v-205h-25l-100 180h-182l182 -309v-20l-267 -346h341l42 55h25v-215h-533z" />
    <glyph glyph-name="minus" unicode="&#x2212;" 
d="M47 300h525v-35h-525v35z" />
    <glyph glyph-name="radical" unicode="&#x221a;" 
d="M-71 435l-39 10v25h259l132 -355l269 771h180l-8 -30h-152l-301 -847l-152 -29z" />
    <glyph glyph-name="infinity" unicode="&#x221e;" horiz-adv-x="825" 
d="M102 174.5q-42 45.5 -42 115.5q0 57 38.5 104.5t123.5 75.5q101 0 218 -108l26 31q28 33 68 55t75 22q73 0 114.5 -46.5t41.5 -117.5q0 -63 -37 -105.5t-125 -71.5q-58 0 -114 30t-99 72l-30 -31q-28 -30 -69.5 -50.5t-76.5 -20.5q-70 0 -112 45.5zM672.5 287
q28.5 12 28.5 28q0 45 -93 45q-49 0 -87 -21l-34 -19q25 -17 61 -31t65 -14q31 0 59.5 12zM319 258l26 14q-29 20 -66 35t-73 15q-37 0 -59.5 -10.5t-22.5 -30.5q0 -22 23.5 -35.5t65.5 -13.5q58 0 106 26z" />
    <glyph glyph-name="integral" unicode="&#x222b;" 
d="M65 -110h135l3 16q7 42 7 90v474q0 35 26 71t68 66l141 103h110v-125h-135l-3 -16q-7 -42 -7 -90v-474q0 -35 -26 -71t-68 -66l-141 -103h-110v125z" />
    <glyph glyph-name="approxequal" unicode="&#x2248;" 
d="M62 370l98 37l356 -82l53 75h25l-37 -80l-98 -37l-356 82l-53 -75h-25zM62 180l98 37l356 -82l53 75h25l-37 -80l-98 -37l-356 82l-53 -75h-25z" />
    <glyph glyph-name="notequal" unicode="&#x2260;" 
d="M195 130h-148v35h178l134 160h-312v35h342l101 120h41l-101 -120h142v-35h-171l-134 -160h305v-35h-335l-108 -130h-43z" />
    <glyph glyph-name="lessequal" unicode="&#x2264;" 
d="M50 346v30l520 246v-40l-472 -221l472 -221v-40zM50 35h520v-35h-520v35z" />
    <glyph glyph-name="greaterequal" unicode="&#x2265;" 
d="M50 140l472 221l-472 221v40l520 -246v-30l-520 -246v40zM50 35h520v-35h-520v35z" />
    <glyph glyph-name="uni2460" unicode="&#x2460;" horiz-adv-x="822" 
d="M221 30.5q-87 44.5 -139 128.5t-52 197q0 153 101.5 243.5t278.5 115.5q104 -1 191 -45.5t139 -128.5t52 -197q0 -153 -101.5 -243.5t-278.5 -115.5q-104 1 -191 45.5zM559 52q68 40 108.5 115t40.5 177q0 111 -46.5 189t-115 116.5t-134.5 38.5q-80 0 -148 -40
t-109 -115.5t-41 -176.5q0 -111 46.5 -189t115.5 -116.5t134 -38.5q81 0 149 40zM292 183l62 6v309l-67 -16l-5 15l179 64h16v-372l62 -6v-16h-247v16z" />
    <glyph glyph-name="uni2461" unicode="&#x2461;" horiz-adv-x="822" 
d="M221 30.5q-87 44.5 -139 128.5t-52 197q0 153 101.5 243.5t278.5 115.5q104 -1 191 -45.5t139 -128.5t52 -197q0 -153 -101.5 -243.5t-278.5 -115.5q-104 1 -191 45.5zM559 52q68 40 108.5 115t40.5 177q0 111 -46.5 189t-115 116.5t-134.5 38.5q-80 0 -148 -40
t-109 -115.5t-41 -176.5q0 -111 46.5 -189t115.5 -116.5t134 -38.5q81 0 149 40zM241 181l108 120q40 45 65.5 91t25.5 80q0 25 -11 45t-31 20q-5 0 -11 2l-24 -119h-116v80l180 63q78 0 114 -27t36 -72q0 -47 -43.5 -90t-126.5 -77l-77 -32h252v-16l-29 -81h-302z" />
    <glyph glyph-name="uni2462" unicode="&#x2462;" horiz-adv-x="822" 
d="M221 30.5q-87 44.5 -139 128.5t-52 197q0 153 101.5 243.5t278.5 115.5q104 -1 191 -45.5t139 -128.5t52 -197q0 -153 -101.5 -243.5t-278.5 -115.5q-104 1 -191 45.5zM559 52q68 40 108.5 115t40.5 177q0 111 -46.5 189t-115 116.5t-134.5 38.5q-80 0 -148 -40
t-109 -115.5t-41 -176.5q0 -111 46.5 -189t115.5 -116.5t134 -38.5q81 0 149 40zM272 253h170q7 12 9.5 21.5t2.5 24.5q0 29 -24.5 45.5t-66.5 15.5l-6 12l48 36q24 18 32.5 31.5t8.5 40.5q0 23 -11 35t-29 12q-1 0 -5 2l-28 -93h-104v65l187 57q66 0 94.5 -17.5t28.5 -44.5
q0 -24 -29.5 -44.5t-104.5 -26.5q53 0 84.5 -15.5t44 -36t12.5 -36.5q0 -29 -12.5 -46.5t-36.5 -31t-76 -35.5l-156 -67h-33v96z" />
    <glyph glyph-name="uni2463" unicode="&#x2463;" horiz-adv-x="822" 
d="M221 30.5q-87 44.5 -139 128.5t-52 197q0 153 101.5 243.5t278.5 115.5q104 -1 191 -45.5t139 -128.5t52 -197q0 -153 -101.5 -243.5t-278.5 -115.5q-104 1 -191 45.5zM559 52q68 40 108.5 115t40.5 177q0 111 -46.5 189t-115 116.5t-134.5 38.5q-80 0 -148 -40
t-109 -115.5t-41 -176.5q0 -111 46.5 -189t115.5 -116.5t134 -38.5q81 0 149 40zM374 271h-156l-9 12l179 260h157v-16l-318 -241h147v47l123 73v-120h74v-15h-74v-113h-123v113z" />
    <glyph glyph-name="uni2464" unicode="&#x2464;" horiz-adv-x="822" 
d="M221 30.5q-87 44.5 -139 128.5t-52 197q0 153 101.5 243.5t278.5 115.5q104 -1 191 -45.5t139 -128.5t52 -197q0 -153 -101.5 -243.5t-278.5 -115.5q-104 1 -191 45.5zM559 52q68 40 108.5 115t40.5 177q0 111 -46.5 189t-115 116.5t-134.5 38.5q-80 0 -148 -40
t-109 -115.5t-41 -176.5q0 -111 46.5 -189t115.5 -116.5t134 -38.5q81 0 149 40zM272 245h139q16 22 16 47q0 18 -17.5 36t-49.5 18q-15 0 -26 -2.5t-26 -8.5l-20 -8l-8 6l29 203h241l-24 -97h-215l-16 -98l157 77q54 0 81.5 -26.5t27.5 -57.5q0 -34 -27.5 -57.5
t-77.5 -49.5l-152 -79h-32v97z" />
    <glyph glyph-name="uni2465" unicode="&#x2465;" horiz-adv-x="822" 
d="M601 669.5q87 -44.5 139 -128.5t52 -197q0 -153 -101.5 -243.5t-278.5 -115.5q-104 1 -191 45.5t-139 128.5t-52 197q0 153 101.5 243.5t278.5 115.5q104 -1 191 -45.5zM559 52q68 40 108.5 115t40.5 177q0 111 -46.5 189t-115 116.5t-134.5 38.5q-80 0 -148 -40
t-109 -115.5t-41 -176.5q0 -111 46.5 -189t115.5 -116.5t134 -38.5q81 0 149 40zM545.5 386q22.5 -27 22.5 -68q0 -68 -42.5 -104.5t-127.5 -57.5q-78 0 -121.5 41t-43.5 115q0 85 65.5 147t206.5 102l4 -11q-55 -33 -82.5 -59t-38.5 -55.5t-13 -75.5l100 53q48 0 70.5 -27z
M433 290q0 33 -5.5 46t-18.5 13q-16 0 -24 -2l-10 -3v-13q1 -67 3.5 -102t8 -48.5t16.5 -13.5q30 0 30 123z" />
    <glyph glyph-name="uni2466" unicode="&#x2466;" horiz-adv-x="822" 
d="M221 30.5q-87 44.5 -139 128.5t-52 197q0 153 101.5 243.5t278.5 115.5q104 -1 191 -45.5t139 -128.5t52 -197q0 -153 -101.5 -243.5t-278.5 -115.5q-104 1 -191 45.5zM559 52q68 40 108.5 115t40.5 177q0 111 -46.5 189t-115 116.5t-134.5 38.5q-80 0 -148 -40
t-109 -115.5t-41 -176.5q0 -111 46.5 -189t115.5 -116.5t134 -38.5q81 0 149 40zM312 162l215 276h-244v97h289l10 -12l-186 -373h-84v12z" />
    <glyph glyph-name="uni2467" unicode="&#x2467;" horiz-adv-x="822" 
d="M601 669.5q87 -44.5 139 -128.5t52 -197q0 -153 -101.5 -243.5t-278.5 -115.5q-104 1 -191 45.5t-139 128.5t-52 197q0 153 101.5 243.5t278.5 115.5q104 -1 191 -45.5zM559 52q68 40 108.5 115t40.5 177q0 111 -46.5 189t-115 116.5t-134.5 38.5q-80 0 -148 -40
t-109 -115.5t-41 -176.5q0 -111 46.5 -189t115.5 -116.5t134 -38.5q81 0 149 40zM565.5 318q16.5 -23 16.5 -57q0 -46 -39 -71t-129 -41q-77 6 -124 28t-47 70q0 32 22.5 48.5t68.5 28.5l-15 10q-41 30 -59 50.5t-18 53.5q0 50 47 79.5t131 34.5q71 -7 114.5 -28.5
t43.5 -60.5q0 -25 -23.5 -42.5t-77.5 -27.5l39 -28q33 -24 49.5 -47zM363 504q0 -20 15.5 -36t44.5 -37l28 -20q6 17 6 53q0 71 -52 71q-42 0 -42 -31zM456 200q0 22 -11.5 39t-35.5 33l-46 31q-4 -24 -4 -48q0 -56 17 -73.5t42 -17.5q38 0 38 36z" />
    <glyph glyph-name="uni2468" unicode="&#x2468;" horiz-adv-x="822" 
d="M601 669.5q87 -44.5 139 -128.5t52 -197q0 -153 -101.5 -243.5t-278.5 -115.5q-104 1 -191 45.5t-139 128.5t-52 197q0 153 101.5 243.5t278.5 115.5q104 -1 191 -45.5zM559 52q68 40 108.5 115t40.5 177q0 111 -46.5 189t-115 116.5t-134.5 38.5q-80 0 -148 -40
t-109 -115.5t-41 -176.5q0 -111 46.5 -189t115.5 -116.5t134 -38.5q81 0 149 40zM544.5 508q43.5 -39 43.5 -112q0 -86 -67 -151.5t-205 -104.5l-4 10q54 34 81.5 62t38 57.5t11.5 73.5l-94 -55q-48 0 -72 28.5t-24 69.5q0 68 42.5 104t127.5 57q78 0 121.5 -39zM426 351.5
l10 2.5l7 1v33q0 61 -2.5 92t-7.5 43t-15 12q-30 0 -30 -105q0 -45 6 -62.5t21 -17.5q5 0 11 1.5z" />
    <glyph glyph-name="lozenge" unicode="&#x25ca;" 
d="M47 330l262 385h25l239 -346l-255 -385h-25zM454 234l-226 324l-60 -91l226 -324z" />
    <glyph glyph-name="circle" unicode="&#x25cb;" horiz-adv-x="822" 
d="M221 30.5q-87 44.5 -139 128.5t-52 197q0 153 101.5 243.5t278.5 115.5q104 -1 191 -45.5t139 -128.5t52 -197q0 -153 -101.5 -243.5t-278.5 -115.5q-104 1 -191 45.5zM559 52q68 40 108.5 115t40.5 177q0 111 -46.5 189t-115 116.5t-134.5 38.5q-80 0 -148 -40
t-109 -115.5t-41 -176.5q0 -111 46.5 -189t115.5 -116.5t134 -38.5q81 0 149 40z" />
    <glyph glyph-name="uniF8FF" unicode="&#xf8ff;" horiz-adv-x="685" 
d="M462 -28l-24 18h-14l-8 8l7 76l-4 47l-61 1l-3 -52l-2 -56v-20l-15 -6l-8 6l-30 -10h-32l-1 11l11 11l50 21l-6 96l-98 -6l-147 140l-4 115l-13 10l-10 36v26l15 8l-3 78l92 -62l9 47l10 36l22 35l28 35l39 29l78 29h22l-68 22l4 17h7l79 -20l-4 51l16 12h32l19 -5
l29 -25l32 -8l32 -10l15 -13v-20l-20 -31l30 -28l28 -32l18 -34l15 -41l9 -54l-3 -41l-8 -35l-12 -31l-3 -156l-21 -7l-50 70l-27 -7l-19 -140l-32 4l-7 -4l-4 -94l30 -19l16 -14l-3 -15zM243 540l36 24h32l18 -12l8 3l4 14l7 5l10 -4v-18h8l10 22l11 8l-5 6l-3 8l1 21
l-30 -10l-10 -8l-8 5l4 21l14 10l11 11l38 -2l12 13l-4 8h-49l-45 -13l-53 -26l-29 -23l-25 -34l29 12l13 -15l-17 -20l-10 -3l17 -3h5zM421 625l-7 17l-8 -9v-19l12 -6zM479 564l6 6l-9 18l17 28l-15 9v5l-25 7v-20l-13 -5v-9l-9 -6l-3 -12l5 -6l19 11l8 -2l6 -24h13z
M563 418h23l6 11l-18 6l-5 9l9 42h7l14 -20l17 -1l-8 37l-19 50l-20 36l-23 28l-34 21h-11l17 -19l25 -10l11 -11l3 -33l-25 13l-15 -29l12 -8v-19l15 3l-12 26l15 -5l10 -20l-5 -12l-8 -7h-23l-3 11l-12 2l1 -22h-14l14 -18l-7 -10l-21 5l-3 -27l41 6l8 17l22 -2l6 -28
l-16 -13v-15l8 -6zM493 521l-2 9l-8 -4v-9l8 -3zM273 510l-4 12l-55 -24zM399 495l-48 25l-4 -12l49 -17zM102 434l57 -32l7 10l-68 38v18l59 -34l43 -28l28 -14l3 10l-103 64l-13 7l-41 33l2 -78l19 -17v-5h-21l19 -14l1 -11l-20 7l18 -18l-4 -7l3 -97l11 -12v180zM268 437
l16 12l6 12l2 13l-22 -4l6 -10l-12 -13l-14 -1l-6 8l1 4l14 2l-13 6l2 7l-20 -1l3 -19l14 -15l12 -6zM377 440l6 9l5 20l-30 2l7 -5l1 -11l-7 -11h-12l-5 7l11 8l-15 2v6l-23 4l3 -17l8 -14l20 -9l13 -1zM249 134l2 40l41 -3l3 9l-44 6v16l48 -6l1 9l-47 7l1 22l43 -3l3 6
l-45 9l3 94h74l11 10h-79l2 9h74l8 7h-82l2 22l117 4l140 -4v11l-4 7h-205l-66 -3l-7 -9l-6 -44l-48 20l-11 -4l57 -27l1 -45l-5 -73v-91zM564 386l5 7v7l-10 -4v-10h5zM433 336l4 30l-54 5l-3 -35h53zM202 291l4 40l-66 39v-7l-2 -13l1 -27v-48l64 -44zM548 302l20 15
l13 13l11 18l-7 5h-14l-10 3l-14 7l-17 -3l-6 -48q1 1 7.5 -4.5t8.5 -7.5zM511 350l4 9h-48v-13zM491 221l4 36l-15 3l-1 8l20 1l5 3l-28 16l2 5l30 -6l-30 15l5 5l21 -5l4 10l3 19l-54 1l-1 -24v-6l-2 -31l19 -3l-8 -61l-48 3l-8 -6l51 -5l-2 -9h-49l-4 -5l53 -7l-6 -35
l27 -1zM394 302v10h-73v-10h73zM589 312l-6 -3l-33 -27l39 -48v78zM394 281l-72 7l-6 -13l78 -4v10zM384 250v6l-68 4v-10h68zM206 203l-74 50l20 -23l50 -41zM380 214l-64 4v-51l64 -6v53z" />
    <glyph glyph-name="uni00A40301" horiz-adv-x="385" 
d="M202 909h155l-165 -138h-35zM5 -20h102l1 31q2 48 2 84v570l-72 10v25h332v-25l-40 -10v-455q0 -153 -171 -314l-76 -71h-78v155z" />
    <glyph glyph-name="uni006A0301" horiz-adv-x="320" 
d="M-20 -73h89l2 26q4 48 4 128v351l-39 -2l-3 28l216 37h26v-359q0 -68 -8.5 -109.5t-33.5 -77t-76 -81.5l-121 -108h-56v167zM191 710h160l-155 -151h-45z" />
    <glyph glyph-name="zero.zero" horiz-adv-x="631" 
d="M467.5 470q57.5 -30 90.5 -85.5t33 -128.5q0 -84 -40.5 -137t-104.5 -82t-156 -52q-69 0 -126 30t-90.5 85.5t-33.5 128.5q0 84 41 137t104.5 82t154.5 52q70 0 127.5 -30zM258.5 412.5q-11.5 -52.5 -11.5 -157.5q0 -36 2 -92l119 168q-5 65 -19.5 99.5t-42.5 34.5
q-36 0 -47.5 -52.5zM359 70.5q12 52.5 12 157.5q0 53 -2 77l-118 -169q6 -58 20 -88t40 -30q36 0 48 52.5z" />
    <glyph glyph-name="zero.tf" 
d="M158 15q-57 30 -90.5 85.5t-33.5 128.5q0 84 41 137t104.5 82t154.5 52q70 0 127.5 -30t90.5 -85.5t33 -128.5q0 -84 -40.5 -137t-104.5 -82t-156 -52q-69 0 -126 30zM353 70.5q12 52.5 12 157.5q0 116 -13.5 176.5t-51.5 60.5q-36 0 -47.5 -52.5t-11.5 -157.5
q0 -116 13.5 -176.5t50.5 -60.5q36 0 48 52.5z" />
    <glyph glyph-name="one.tf" 
d="M112 25l105 10v362l-113 -34l-8 25l296 112h25v-465l105 -10v-25h-410v25z" />
    <glyph glyph-name="two.tf" 
d="M36 22l179 150q67 56 96 105.5t29 98.5q0 37 -14 61t-39 24h-15l-40 -190h-183v134l286 95q112 0 165.5 -35t53.5 -94q0 -65 -58.5 -112t-182.5 -84l-102 -30h372v-25l-47 -120h-487z" />
    <glyph glyph-name="three.tf" 
d="M53 -68h281q13 21 17.5 40.5t4.5 51.5q0 54 -42.5 86.5t-111.5 30.5l-9 20l79 59q41 32 55.5 60t14.5 77q0 41 -18.5 65.5t-49.5 24.5h-11l-45 -161h-170v114l308 100q95 0 148.5 -30t53.5 -84q0 -53 -58 -89.5t-163 -49.5q67 0 120.5 -20.5t83.5 -57t30 -81.5t-17 -75.5
t-60 -59t-130 -67.5l-255 -114h-56v160z" />
    <glyph glyph-name="four.tf" 
d="M285 -6h-260l-15 20l298 471h256v-25l-525 -440h246v101l200 119v-221h124v-25h-124v-209h-200v209z" />
    <glyph glyph-name="five.tf" 
d="M71 -60h229q19 28 24.5 52.5t5.5 52.5q0 22 -12 45.5t-36.5 39.5t-60.5 16q-27 0 -47 -5.5t-43 -16.5l-33 -16l-13 9l48 368h398l-39 -160h-356l-27 -194l259 135q62 0 102.5 -23.5t59.5 -58.5t19 -70q0 -66 -47.5 -112t-129.5 -90l-246 -132h-55v160z" />
    <glyph glyph-name="six.tf" 
d="M546 404.5q41 -47.5 41 -133.5q0 -110 -70 -178.5t-212 -107.5q-83 0 -144.5 34t-94.5 98t-33 151q0 159 113 273.5t336 179.5l7 -17q-88 -55 -132.5 -100t-64.5 -102.5t-25 -151.5l165 102q73 0 114 -47.5zM353.5 60.5q13.5 53.5 13.5 151.5q0 75 -9 104.5t-34 29.5
q-8 0 -18.5 -4t-24.5 -11l-15 -8q-1 -21 -1 -67q0 -135 11.5 -192t37.5 -57t39.5 53.5z" />
    <glyph glyph-name="seven.tf" 
d="M110 -195l357 520h-406v160h479l16 -20l-309 -680h-137v20z" />
    <glyph glyph-name="eight.tf" 
d="M562 286.5q28 -41.5 28 -100.5q0 -56 -29.5 -93.5t-90 -63t-158.5 -44.5q-282 22 -282 178q0 60 40 92.5t118 55.5l-31 23q-45 34 -70.5 57.5t-41.5 54.5t-16 71q0 86 77 137t216 63q117 -9 189 -48.5t72 -110.5q0 -48 -39.5 -81t-131.5 -54l69 -54q53 -41 81 -82.5z
M247.5 674.5q-21.5 -14.5 -21.5 -48.5q0 -39 28 -71t76 -69l43 -34q13 35 13 107q0 71 -25.5 100.5t-63.5 29.5q-28 0 -49.5 -14.5zM385 86q0 41 -19 72.5t-60 62.5l-76 58q-11 -43 -11 -100q0 -168 100 -168q66 0 66 75z" />
    <glyph glyph-name="nine.tf" 
d="M514 427q72 -73 72 -202q0 -160 -115.5 -279.5t-333.5 -184.5l-7 17q89 57 134.5 104.5t65 105.5t23.5 150l-161 -108q-73 0 -116.5 49.5t-43.5 137.5q0 107 69.5 175.5t212.5 107.5q128 0 200 -73zM353 158q1 19 1 60q0 138 -12.5 199t-38.5 61q-24 0 -37.5 -49
t-13.5 -145q0 -81 11 -115.5t37 -34.5q8 0 15.5 3t13 6.5t8.5 5.5z" />
    <glyph glyph-name="zero.tf.zero" 
d="M461.5 470q57.5 -30 90.5 -85.5t33 -128.5q0 -84 -40.5 -137t-104.5 -82t-156 -52q-69 0 -126 30t-90.5 85.5t-33.5 128.5q0 84 41 137t104.5 82t154.5 52q70 0 127.5 -30zM252.5 412.5q-11.5 -52.5 -11.5 -157.5q0 -36 2 -92l119 168q-5 65 -19.5 99.5t-42.5 34.5
q-36 0 -47.5 -52.5zM353 70.5q12 52.5 12 157.5q0 53 -2 77l-118 -169q6 -58 20 -88t40 -30q36 0 48 52.5z" />
    <glyph glyph-name="dollar.tf" 
d="M509 78q-56 -53 -177 -84v-74h-25v68l-28 -6q-61 0 -112 14t-111 49v215h25l66 -150q35 -46 67.5 -71.5t72.5 -25.5q14 0 20 1v211l-141 104q-58 43 -84.5 82.5t-26.5 99.5q0 74 55 127t197 78v65h25v-63q67 0 99 -5t98 -25v-208h-25l-79 168q-20 23 -41.5 34t-49.5 11
h-2v-204l128 -94q58 -42 81.5 -82t23.5 -101q0 -81 -56 -134zM259 555q16 -23 48 -48v183q-29 -6 -46.5 -26t-17.5 -54q0 -32 16 -55zM373 53q15 22 15 52t-13 53.5t-43 47.5v-185q26 10 41 32z" />
    <glyph glyph-name="cent.tf" 
d="M434 46q-37 -29 -96 -59v-67h-25v66q-65 4 -116 34t-79.5 81t-28.5 115q0 100 62 170.5t162 101.5v62h25v-55l23 5q40 0 82 -14.5t79 -41.5v-136h-162l-28 158q-5 3 -8 3q-11 0 -25 -14t-24.5 -44.5t-10.5 -77.5q0 -60 21 -106.5t58.5 -72t86.5 -25.5q30 0 48 4t45 15
l7 -14q-59 -59 -96 -88z" />
    <glyph glyph-name="sterling.tf" 
d="M547 194v-194h-475v25l40 10v320h-40v25h40v120q0 64 46 109.5t110.5 71t123.5 34.5q93 0 152 -27v-188h-25l-55 147q-15 18 -31 28t-37 10q-43 0 -63.5 -26.5t-20.5 -73.5v-205h121v-25h-121v-176q0 -58 -9.5 -90.5t-33.5 -58.5h168l85 164h25z" />
    <glyph glyph-name="florin.tf" 
d="M65 -110h135l3 16q7 42 7 90v443h-50v25h50v6q0 35 26 71t68 66l141 103h110v-125h-135l-3 -16q-7 -42 -7 -90v-15h122v-25h-122v-434q0 -35 -26 -71t-68 -66l-141 -103h-110v125z" />
    <glyph glyph-name="yen.tf" 
d="M653 675l-53 -10l-175 -393v-8h117v-25h-117v-80h117v-25h-117v-99l82 -10v-25h-385v25l83 10v99h-108v25h108v80h-108v25h108v8l-186 393l-53 10v25h374v-25l-61 -10l141 -341l150 341l-70 10v25h153v-25z" />
    <glyph glyph-name="Euro.tf" 
d="M611 95q-41 -31 -104 -63t-112 -47q-166 0 -257 79t-99 221h-29v25h28v2q0 43 7 78h-35v25h40q28 118 120 194.5t230 105.5q99 0 208 -45v-220h-25l-99 202q-20 21 -38 30.5t-41 9.5q-65 0 -100 -72.5t-37 -204.5h203l-23 -25h-180q0 -30 4 -80h132l-23 -25h-106
q15 -107 58.5 -163.5t109.5 -56.5t156 52z" />
    <glyph glyph-name="percent.tf" 
d="M476 705h34l-378 -710h-36zM78.5 372q-29.5 22 -46 60t-16.5 85q0 65 37 109.5t119 76.5q37 0 66 -21.5t46 -60t17 -85.5q0 -67 -37.5 -111t-119.5 -75q-36 0 -65.5 22zM175.5 411.5q5.5 37.5 5.5 83.5q0 51 -9 109.5t-20 74.5q-5 0 -10.5 -41.5t-5.5 -82.5
q0 -59 7.5 -109t19.5 -72q7 0 12.5 37.5zM381 21.5q-29 21.5 -46 60t-17 85.5q0 65 37 109.5t119 76.5q37 0 66 -21.5t46 -60t17 -85.5q0 -66 -37 -110.5t-119 -75.5q-37 0 -66 21.5zM478 60q5 36 5 85q0 57 -8 109t-20 75q-6 0 -11 -38.5t-5 -85.5q0 -54 8 -106.5t19 -74.5
q7 0 12 36z" />
    <glyph glyph-name="perthousand.tf" horiz-adv-x="600" 
d="M58.5 433.5q-32.5 42.5 -32.5 105.5q0 58 32.5 97t105.5 67q49 0 81.5 -42t32.5 -105q0 -59 -33 -98.5t-106 -66.5q-48 0 -80.5 42.5zM136.5 645q-4.5 -37 -4.5 -73q0 -51 6.5 -95.5t17.5 -64.5q6 0 11 33.5t5 73.5q0 47 -8 98t-18 65q-5 0 -9.5 -37zM538 521l-436 -288
h-74l436 288h74zM541.5 270q32.5 -42 32.5 -106q0 -59 -32.5 -97.5t-105.5 -66.5q-44 0 -72 38q-28 -22 -69 -38q-49 0 -81.5 42t-32.5 105q0 58 33 97t105 68q43 0 72 -39q31 23 69 39q49 0 81.5 -42zM322.5 53q4.5 32 4.5 75q0 49 -7 95.5t-18 66.5q-5 0 -9.5 -34
t-4.5 -75q0 -46 7 -93t17 -67q6 0 10.5 32zM463.5 53q4.5 32 4.5 75q0 49 -7 95.5t-18 66.5q-5 0 -9.5 -34t-4.5 -75q0 -46 7 -93t17 -67q6 0 10.5 32z" />
    <glyph glyph-name="Aogonek.ss01" horiz-adv-x="711" 
d="M415 -70v-25q0 -38 26 -51t65 -13v-20q-105 0 -153 20.5t-48 67.5v40l120 79l-62 206h-213l-66 -199l70 -10v-25h-149v25l40 10l216 624l178 61l227 -685l40 -10v-25h-263zM354 264l-93 305l-101 -305h194z" />
    <glyph glyph-name="Ccedilla.ss01" horiz-adv-x="716" 
d="M562 0.5q-46 -10.5 -111 -16.5l-12 -14q36 -6 62.5 -19.5t26.5 -37.5q0 -27 -26 -41.5t-81 -29.5l-97 -27h-42l46 53h93q11 13 11 24q0 28 -75 28l65 62q-111 0 -199.5 38t-140.5 116t-52 193q0 176 104 271.5t306 117.5q79 0 128 -11t107 -37v-215h-25l-99 193
q-38 44 -95 44q-81 0 -128.5 -86t-47.5 -252q0 -160 46 -252t129 -92q57 0 97 40l99 202h25v-217q-68 -24 -114 -34.5z" />
    <glyph glyph-name="Eogonek.ss01" horiz-adv-x="606" 
d="M280 675v-295h80l55 133h25v-290h-25l-55 132h-80v-330h189l80 184h25v-209h-76l-28 -70v-25q0 -38 26 -51t65 -13v-20q-105 0 -153 20.5t-48 67.5v40l78 51h-418v25l40 10v630l-40 10v25h561v-200h-25l-87 175h-189z" />
    <glyph glyph-name="Gcommaaccent.ss01" horiz-adv-x="735" 
d="M207 24q-80 42 -128.5 120.5t-48.5 182.5q0 178 105 273.5t312 117.5q74 0 122 -11t106 -37v-215h-25l-102 193q-19 23 -41.5 33.5t-55.5 10.5q-48 0 -87 -38.5t-61.5 -112.5t-22.5 -176q0 -164 32.5 -258.5t101.5 -94.5q14 0 23 3.5t18 11.5v266l-60 10v30h325v-30
l-45 -10v-253q-64 -24 -128 -36.5t-167 -21.5q-93 0 -173 42zM354 -175l38 52l-76 42v31h170v-65l-114 -69z" />
    <glyph glyph-name="Iogonek.ss01" horiz-adv-x="340" 
d="M280 665v-630l40 -10v-25h-119l-28 -70v-25q0 -38 26 -51t65 -13v-20q-105 0 -153 20.5t-48 67.5v40l78 51h-121v25l40 10v630l-40 10v25h300v-25z" />
    <glyph glyph-name="Kcommaaccent.ss01" horiz-adv-x="764" 
d="M20 25l40 10v630l-40 10v25h295v-25l-35 -10v-299l298 299l-90 11v24h228v-24l-98 -11l-290 -287l156 59l243 -402l27 -10v-25h-265l-209 342v-307l35 -10v-25h-295v25zM353 -175l38 52l-76 42v31h170v-65l-114 -69z" />
    <glyph glyph-name="Lcommaaccent.ss01" horiz-adv-x="591" 
d="M20 25l40 10v630l-40 10v25h300v-25l-40 -10v-630h168l108 179h25v-214h-561v25zM259 -175l38 52l-76 42v31h170v-65l-114 -69z" />
    <glyph glyph-name="Ncommaaccent.ss01" horiz-adv-x="667" 
d="M90 626v-591l55 -10v-25h-125v25l40 10v630l-40 10v25h297l270 -391v356l-55 10v25h125v-25l-40 -10v-670h-109zM287 -175l38 52l-76 42v31h170v-65l-114 -69z" />
    <glyph glyph-name="Eng.ss01" horiz-adv-x="667" 
d="M353 -57h159l52 42l28 10h-84l-418 631v-591l55 -10v-25h-125v25l40 10v630l-40 10v25h297l270 -391v356l-55 10v25h125v-25l-40 -10v-670l-107 -170h-157v118z" />
    <glyph glyph-name="Rcommaaccent.ss01" horiz-adv-x="687" 
d="M682 25v-25h-254l-133 330h-15v-295l36 -10v-25h-296v25l40 10v630l-40 10v25h385q88 0 145.5 -44t57.5 -127q0 -88 -73 -138.5t-221 -57.5l223 -43l114 -255zM351.5 399.5q21.5 44.5 21.5 119.5q0 65 -19.5 110.5t-48.5 45.5l-25 -10v-310h11q39 0 60.5 44.5zM279 -50
h170v-65l-114 -69l-18 9l38 52l-76 42v31z" />
    <glyph glyph-name="Scedilla.ss01" horiz-adv-x="566" 
d="M473 68q-68 -56 -214 -85l-11 -13q36 -6 62.5 -19.5t26.5 -37.5q0 -27 -26 -41.5t-81 -29.5l-97 -27h-42l46 53h93q11 13 11 24q0 28 -75 28l65 62q-52 2 -98.5 16.5t-100.5 46.5v215h25l66 -150q35 -46 67.5 -71.5t72.5 -25.5q45 0 73 25t28 67q0 33 -16.5 59t-57.5 56
l-148 109q-58 43 -84.5 82.5t-26.5 99.5q0 76 58 129.5t207 77.5q76 0 108.5 -4.5t100.5 -25.5v-208h-25l-79 168q-20 23 -41.5 34t-49.5 11q-39 0 -65 -20.5t-26 -62.5q0 -34 18.5 -58.5t56.5 -52.5l142 -104q58 -42 81.5 -82t23.5 -101q0 -88 -68 -144z" />
    <glyph glyph-name="Scommaaccent.ss01" horiz-adv-x="566" 
d="M143 -4q-51 14 -111 49v215h25l66 -150q35 -46 67.5 -71.5t72.5 -25.5q45 0 73 25t28 67q0 33 -16.5 59t-57.5 56l-148 109q-58 43 -84.5 82.5t-26.5 99.5q0 76 58 129.5t207 77.5q76 0 108.5 -4.5t100.5 -25.5v-208h-25l-79 168q-20 23 -41.5 34t-49.5 11
q-39 0 -65 -20.5t-26 -62.5q0 -34 18.5 -58.5t56.5 -52.5l142 -104q58 -42 81.5 -82t23.5 -101q0 -89 -69 -145t-217 -85q-61 0 -112 14zM216 -175l38 52l-76 42v31h170v-65l-114 -69z" />
    <glyph glyph-name="uni0162.ss01" horiz-adv-x="592" 
d="M582 483h-25l-105 192h-46v-640l80 -10v-25h-179l-26 -30q36 -6 62.5 -19.5t26.5 -37.5q0 -27 -26 -41.5t-81 -29.5l-97 -27h-42l46 53h93q11 13 11 24q0 28 -75 28l84 80h-177v25l80 10v640h-46l-105 -192h-25v217h572v-217z" />
    <glyph glyph-name="uni021A.ss01" horiz-adv-x="592" 
d="M106 25l80 10v640h-46l-105 -192h-25v217h572v-217h-25l-105 192h-46v-640l80 -10v-25h-380v25zM249 -175l38 52l-76 42v31h170v-65l-114 -69z" />
    <glyph glyph-name="Uogonek.ss01" horiz-adv-x="658" 
d="M648 675l-40 -10v-438q0 -67 -24 -116t-87 -83l-39 -98v-25q0 -38 26 -51t65 -13v-20q-105 0 -153 20.5t-48 67.5v40l73 48q-32 -9 -59 -15q-148 0 -230 67.5t-82 184.5v431l-40 10v25h300v-25l-40 -10v-440q0 -77 41.5 -125t107.5 -48t107.5 48t41.5 125v440l-45 10v25
h125v-25z" />
    <glyph glyph-name="Aacute.ss02" horiz-adv-x="711" 
d="M351 851h168l-159 -104h-47zM5 25l40 10l216 624l178 61l227 -685l40 -10v-25h-352v25l70 10l-61 199h-213l-66 -199l70 -10v-25h-149v25zM354 264l-93 305l-101 -305h194z" />
    <glyph glyph-name="Abreve.ss02" horiz-adv-x="711" 
d="M265.5 765q-46.5 32 -69.5 79l19 15q24 -25 59.5 -43.5t83.5 -18.5t79.5 17.5t58.5 44.5l19 -15q-22 -43 -49.5 -65.5t-92.5 -45.5q-61 0 -107.5 32zM5 25l40 10l216 624l178 61l227 -685l40 -10v-25h-352v25l70 10l-61 199h-213l-66 -199l70 -10v-25h-149v25zM354 264
l-93 305l-101 -305h194z" />
    <glyph glyph-name="Acircumflex.ss02" horiz-adv-x="711" 
d="M316 861h80l120 -114h-47l-113 52l-113 -52h-47zM5 25l40 10l216 624l178 61l227 -685l40 -10v-25h-352v25l70 10l-61 199h-213l-66 -199l70 -10v-25h-149v25zM354 264l-93 305l-101 -305h194z" />
    <glyph glyph-name="Adieresis.ss02" horiz-adv-x="711" 
d="M212 745l-6 60l11 50l74 6l30 -6l8 -59l-13 -51l-72 -6zM389 745l-6 60l12 50l73 6l30 -6l8 -59l-13 -51l-72 -6zM5 25l40 10l216 624l178 61l227 -685l40 -10v-25h-352v25l70 10l-61 199h-213l-66 -199l70 -10v-25h-149v25zM354 264l-93 305l-101 -305h194z" />
    <glyph glyph-name="Agrave.ss02" horiz-adv-x="711" 
d="M170 851h168l44 -104h-53zM5 25l40 10l216 624l178 61l227 -685l40 -10v-25h-352v25l70 10l-61 199h-213l-66 -199l70 -10v-25h-149v25zM354 264l-93 305l-101 -305h194z" />
    <glyph glyph-name="Amacron.ss02" horiz-adv-x="711" 
d="M206 833h300v-59h-300v59zM5 25l40 10l216 624l178 61l227 -685l40 -10v-25h-352v25l70 10l-61 199h-213l-66 -199l70 -10v-25h-149v25zM354 264l-93 305l-101 -305h194z" />
    <glyph glyph-name="Aring.ss02" horiz-adv-x="711" 
d="M294.5 726q-27.5 18 -27.5 56q0 33 23.5 49t65.5 28q39 0 64 -18t25 -59q0 -25 -11.5 -39.5t-28 -20.5t-47.5 -14q-36 0 -63.5 18zM393 747q14 13 14 35q0 21 -14.5 36t-35.5 15q-22 0 -36.5 -15t-14.5 -36t14.5 -34.5t36.5 -13.5t36 13zM5 25l40 10l216 624l178 61
l227 -685l40 -10v-25h-352v25l70 10l-61 199h-213l-66 -199l70 -10v-25h-149v25zM354 264l-93 305l-101 -305h194z" />
    <glyph glyph-name="Atilde.ss02" horiz-adv-x="711" 
d="M236 854l33 10l205 -44l49 44h17l-63 -122l-34 -8l-207 47l-47 -47h-17zM5 25l40 10l216 624l178 61l227 -685l40 -10v-25h-352v25l70 10l-61 199h-213l-66 -199l70 -10v-25h-149v25zM354 264l-93 305l-101 -305h194z" />
    <glyph glyph-name="AEacute.ss02" horiz-adv-x="1017" 
d="M660 851h168l-159 -104h-47zM5 25l40 10l433 665h514v-200h-25l-87 175h-189v-325h80l55 133h25v-290h-25l-55 132h-80v-300h189l80 184h25v-209h-554v25l40 10v290h-197l-185 -290l70 -10v-25h-154v25zM471 350v284l-181 -284h181z" />
    <glyph glyph-name="Cacute.ss02" horiz-adv-x="716" 
d="M422 851h168l-159 -104h-47zM223 20q-89 38 -141 116t-52 193q0 176 104 271.5t306 117.5q79 0 128 -11t107 -37v-215h-25l-99 193q-38 44 -95 44q-81 0 -128.5 -86t-47.5 -252q0 -160 46 -252t129 -92q57 0 97 40l99 202h25v-217q-73 -25 -123 -36t-130 -17
q-111 0 -200 38z" />
    <glyph glyph-name="Ccaron.ss02" horiz-adv-x="716" 
d="M263 850h44l116 -59l116 59h44l-117 -114h-86zM223 20q-89 38 -141 116t-52 193q0 176 104 271.5t306 117.5q79 0 128 -11t107 -37v-215h-25l-99 193q-38 44 -95 44q-81 0 -128.5 -86t-47.5 -252q0 -160 46 -252t129 -92q57 0 97 40l99 202h25v-217q-73 -25 -123 -36
t-130 -17q-111 0 -200 38z" />
    <glyph glyph-name="Ccircumflex.ss02" horiz-adv-x="716" 
d="M383 861h80l120 -114h-47l-113 52l-113 -52h-47zM223 20q-89 38 -141 116t-52 193q0 176 104 271.5t306 117.5q79 0 128 -11t107 -37v-215h-25l-99 193q-38 44 -95 44q-81 0 -128.5 -86t-47.5 -252q0 -160 46 -252t129 -92q57 0 97 40l99 202h25v-217q-73 -25 -123 -36
t-130 -17q-111 0 -200 38z" />
    <glyph glyph-name="Cdotaccent.ss02" horiz-adv-x="716" 
d="M367 745l-6 60l12 50l73 6l30 -6l8 -59l-13 -51l-72 -6zM223 20q-89 38 -141 116t-52 193q0 176 104 271.5t306 117.5q79 0 128 -11t107 -37v-215h-25l-99 193q-38 44 -95 44q-81 0 -128.5 -86t-47.5 -252q0 -160 46 -252t129 -92q57 0 97 40l99 202h25v-217
q-73 -25 -123 -36t-130 -17q-111 0 -200 38z" />
    <glyph glyph-name="Dcaron.ss02" horiz-adv-x="735" 
d="M178 850h44l116 -59l116 59h44l-117 -114h-86zM20 25l40 10v630l-40 10v25h345q170 0 255 -88t85 -242q0 -161 -82.5 -255.5t-263.5 -114.5h-339v25zM400.5 68.5q36.5 43.5 55.5 120.5t19 176q0 139 -39.5 224.5t-120.5 85.5l-35 -10v-630l35 -10q49 0 85.5 43.5z" />
    <glyph glyph-name="Eacute.ss02" horiz-adv-x="606" 
d="M318 851h168l-159 -104h-47zM20 25l40 10v630l-40 10v25h561v-200h-25l-87 175h-189v-295h80l55 133h25v-290h-25l-55 132h-80v-330h189l80 184h25v-209h-554v25z" />
    <glyph glyph-name="Ebreve.ss02" horiz-adv-x="606" 
d="M232.5 765q-46.5 32 -69.5 79l19 15q24 -25 59.5 -43.5t83.5 -18.5t79.5 17.5t58.5 44.5l19 -15q-22 -43 -49.5 -65.5t-92.5 -45.5q-61 0 -107.5 32zM20 25l40 10v630l-40 10v25h561v-200h-25l-87 175h-189v-295h80l55 133h25v-290h-25l-55 132h-80v-330h189l80 184h25
v-209h-554v25z" />
    <glyph glyph-name="Ecaron.ss02" horiz-adv-x="606" 
d="M163 850h44l116 -59l116 59h44l-117 -114h-86zM20 25l40 10v630l-40 10v25h561v-200h-25l-87 175h-189v-295h80l55 133h25v-290h-25l-55 132h-80v-330h189l80 184h25v-209h-554v25z" />
    <glyph glyph-name="Ecircumflex.ss02" horiz-adv-x="606" 
d="M283 861h80l120 -114h-47l-113 52l-113 -52h-47zM20 25l40 10v630l-40 10v25h561v-200h-25l-87 175h-189v-295h80l55 133h25v-290h-25l-55 132h-80v-330h189l80 184h25v-209h-554v25z" />
    <glyph glyph-name="Edieresis.ss02" horiz-adv-x="606" 
d="M179 745l-6 60l11 50l74 6l30 -6l8 -59l-13 -51l-72 -6zM356 745l-6 60l12 50l73 6l30 -6l8 -59l-13 -51l-72 -6zM20 25l40 10v630l-40 10v25h561v-200h-25l-87 175h-189v-295h80l55 133h25v-290h-25l-55 132h-80v-330h189l80 184h25v-209h-554v25z" />
    <glyph glyph-name="Edotaccent.ss02" horiz-adv-x="606" 
d="M267 745l-6 60l12 50l73 6l30 -6l8 -59l-13 -51l-72 -6zM20 25l40 10v630l-40 10v25h561v-200h-25l-87 175h-189v-295h80l55 133h25v-290h-25l-55 132h-80v-330h189l80 184h25v-209h-554v25z" />
    <glyph glyph-name="Egrave.ss02" horiz-adv-x="606" 
d="M137 851h168l44 -104h-53zM20 25l40 10v630l-40 10v25h561v-200h-25l-87 175h-189v-295h80l55 133h25v-290h-25l-55 132h-80v-330h189l80 184h25v-209h-554v25z" />
    <glyph glyph-name="Emacron.ss02" horiz-adv-x="606" 
d="M173 833h300v-59h-300v59zM20 25l40 10v630l-40 10v25h561v-200h-25l-87 175h-189v-295h80l55 133h25v-290h-25l-55 132h-80v-330h189l80 184h25v-209h-554v25z" />
    <glyph glyph-name="Gbreve.ss02" horiz-adv-x="735" 
d="M341.5 765q-46.5 32 -69.5 79l19 15q24 -25 59.5 -43.5t83.5 -18.5t79.5 17.5t58.5 44.5l19 -15q-22 -43 -49.5 -65.5t-92.5 -45.5q-61 0 -107.5 32zM207 24q-80 42 -128.5 120.5t-48.5 182.5q0 178 105 273.5t312 117.5q74 0 122 -11t106 -37v-215h-25l-102 193
q-19 23 -41.5 33.5t-55.5 10.5q-48 0 -87 -38.5t-61.5 -112.5t-22.5 -176q0 -164 32.5 -258.5t101.5 -94.5q14 0 23 3.5t18 11.5v266l-60 10v30h325v-30l-45 -10v-253q-64 -24 -128 -36.5t-167 -21.5q-93 0 -173 42z" />
    <glyph glyph-name="Gcircumflex.ss02" horiz-adv-x="735" 
d="M392 861h80l120 -114h-47l-113 52l-113 -52h-47zM207 24q-80 42 -128.5 120.5t-48.5 182.5q0 178 105 273.5t312 117.5q74 0 122 -11t106 -37v-215h-25l-102 193q-19 23 -41.5 33.5t-55.5 10.5q-48 0 -87 -38.5t-61.5 -112.5t-22.5 -176q0 -164 32.5 -258.5t101.5 -94.5
q14 0 23 3.5t18 11.5v266l-60 10v30h325v-30l-45 -10v-253q-64 -24 -128 -36.5t-167 -21.5q-93 0 -173 42z" />
    <glyph glyph-name="Gdotaccent.ss02" horiz-adv-x="735" 
d="M376 745l-6 60l12 50l73 6l30 -6l8 -59l-13 -51l-72 -6zM207 24q-80 42 -128.5 120.5t-48.5 182.5q0 178 105 273.5t312 117.5q74 0 122 -11t106 -37v-215h-25l-102 193q-19 23 -41.5 33.5t-55.5 10.5q-48 0 -87 -38.5t-61.5 -112.5t-22.5 -176q0 -164 32.5 -258.5
t101.5 -94.5q14 0 23 3.5t18 11.5v266l-60 10v30h325v-30l-45 -10v-253q-64 -24 -128 -36.5t-167 -21.5q-93 0 -173 42z" />
    <glyph glyph-name="Hcircumflex.ss02" horiz-adv-x="730" 
d="M325 861h80l120 -114h-47l-113 52l-113 -52h-47zM20 25l40 10v630l-40 10v25h295v-25l-35 -10v-287h170v287l-35 10v25h295v-25l-40 -10v-630l40 -10v-25h-295v25l35 10v313h-170v-313l35 -10v-25h-295v25z" />
    <glyph glyph-name="Iacute.ss02" horiz-adv-x="340" 
d="M165 851h168l-159 -104h-47zM20 25l40 10v630l-40 10v25h300v-25l-40 -10v-630l40 -10v-25h-300v25z" />
    <glyph glyph-name="Ibreve.ss02" horiz-adv-x="340" 
d="M79.5 765q-46.5 32 -69.5 79l19 15q24 -25 59.5 -43.5t83.5 -18.5t79.5 17.5t58.5 44.5l19 -15q-22 -43 -49.5 -65.5t-92.5 -45.5q-61 0 -107.5 32zM20 25l40 10v630l-40 10v25h300v-25l-40 -10v-630l40 -10v-25h-300v25z" />
    <glyph glyph-name="Icircumflex.ss02" horiz-adv-x="340" 
d="M130 861h80l120 -114h-47l-113 52l-113 -52h-47zM20 25l40 10v630l-40 10v25h300v-25l-40 -10v-630l40 -10v-25h-300v25z" />
    <glyph glyph-name="Idieresis.ss02" horiz-adv-x="340" 
d="M26 745l-6 60l11 50l74 6l30 -6l8 -59l-13 -51l-72 -6zM203 745l-6 60l12 50l73 6l30 -6l8 -59l-13 -51l-72 -6zM20 25l40 10v630l-40 10v25h300v-25l-40 -10v-630l40 -10v-25h-300v25z" />
    <glyph glyph-name="Idotaccent.ss02" horiz-adv-x="340" 
d="M114 745l-6 60l12 50l73 6l30 -6l8 -59l-13 -51l-72 -6zM20 25l40 10v630l-40 10v25h300v-25l-40 -10v-630l40 -10v-25h-300v25z" />
    <glyph glyph-name="Igrave.ss02" horiz-adv-x="340" 
d="M-16 851h168l44 -104h-53zM20 25l40 10v630l-40 10v25h300v-25l-40 -10v-630l40 -10v-25h-300v25z" />
    <glyph glyph-name="Imacron.ss02" horiz-adv-x="340" 
d="M20 833h300v-59h-300v59zM20 25l40 10v630l-40 10v25h300v-25l-40 -10v-630l40 -10v-25h-300v25z" />
    <glyph glyph-name="Itilde.ss02" horiz-adv-x="340" 
d="M50 854l33 10l205 -44l49 44h17l-63 -122l-34 -8l-207 47l-47 -47h-17zM20 25l40 10v630l-40 10v25h300v-25l-40 -10v-630l40 -10v-25h-300v25z" />
    <glyph glyph-name="Jcircumflex.ss02" horiz-adv-x="385" 
d="M153 861h80l120 -114h-47l-113 52l-113 -52h-47zM5 -20h102l1 31q2 48 2 84v570l-72 10v25h332v-25l-40 -10v-455q0 -153 -171 -314l-76 -71h-78v155z" />
    <glyph glyph-name="Lacute.ss02" horiz-adv-x="591" 
d="M191 851h168l-159 -104h-47zM20 25l40 10v630l-40 10v25h300v-25l-40 -10v-630h168l108 179h25v-214h-561v25z" />
    <glyph glyph-name="Nacute.ss02" horiz-adv-x="667" 
d="M329 851h168l-159 -104h-47zM90 626v-591l55 -10v-25h-125v25l40 10v630l-40 10v25h297l270 -391v356l-55 10v25h125v-25l-40 -10v-670h-109z" />
    <glyph glyph-name="Ncaron.ss02" horiz-adv-x="667" 
d="M174 850h44l116 -59l116 59h44l-117 -114h-86zM90 626v-591l55 -10v-25h-125v25l40 10v630l-40 10v25h297l270 -391v356l-55 10v25h125v-25l-40 -10v-670h-109z" />
    <glyph glyph-name="Ntilde.ss02" horiz-adv-x="667" 
d="M214 854l33 10l205 -44l49 44h17l-63 -122l-34 -8l-207 47l-47 -47h-17zM90 626v-591l55 -10v-25h-125v25l40 10v630l-40 10v25h297l270 -391v356l-55 10v25h125v-25l-40 -10v-670h-109z" />
    <glyph glyph-name="Oacute.ss02" horiz-adv-x="785" 
d="M388 851h168l-159 -104h-47zM194 25q-79 43 -121.5 123t-42.5 189q0 106 39 179t121 121t215 81q107 0 186 -43t121.5 -123t42.5 -189q0 -106 -39 -179t-121 -121t-215 -81q-107 0 -186 43zM484 101.5q21 86.5 21 218.5q0 107 -16.5 190t-46 129t-68.5 46
q-51 0 -72.5 -87t-21.5 -217q0 -108 16.5 -191t46 -129t68.5 -46q52 0 73 86.5z" />
    <glyph glyph-name="Obreve.ss02" horiz-adv-x="785" 
d="M302.5 765q-46.5 32 -69.5 79l19 15q24 -25 59.5 -43.5t83.5 -18.5t79.5 17.5t58.5 44.5l19 -15q-22 -43 -49.5 -65.5t-92.5 -45.5q-61 0 -107.5 32zM194 25q-79 43 -121.5 123t-42.5 189q0 106 39 179t121 121t215 81q107 0 186 -43t121.5 -123t42.5 -189
q0 -106 -39 -179t-121 -121t-215 -81q-107 0 -186 43zM484 101.5q21 86.5 21 218.5q0 107 -16.5 190t-46 129t-68.5 46q-51 0 -72.5 -87t-21.5 -217q0 -108 16.5 -191t46 -129t68.5 -46q52 0 73 86.5z" />
    <glyph glyph-name="Ocircumflex.ss02" horiz-adv-x="785" 
d="M353 861h80l120 -114h-47l-113 52l-113 -52h-47zM194 25q-79 43 -121.5 123t-42.5 189q0 106 39 179t121 121t215 81q107 0 186 -43t121.5 -123t42.5 -189q0 -106 -39 -179t-121 -121t-215 -81q-107 0 -186 43zM484 101.5q21 86.5 21 218.5q0 107 -16.5 190t-46 129
t-68.5 46q-51 0 -72.5 -87t-21.5 -217q0 -108 16.5 -191t46 -129t68.5 -46q52 0 73 86.5z" />
    <glyph glyph-name="Odieresis.ss02" horiz-adv-x="785" 
d="M249 745l-6 60l11 50l74 6l30 -6l8 -59l-13 -51l-72 -6zM426 745l-6 60l12 50l73 6l30 -6l8 -59l-13 -51l-72 -6zM194 25q-79 43 -121.5 123t-42.5 189q0 106 39 179t121 121t215 81q107 0 186 -43t121.5 -123t42.5 -189q0 -106 -39 -179t-121 -121t-215 -81
q-107 0 -186 43zM484 101.5q21 86.5 21 218.5q0 107 -16.5 190t-46 129t-68.5 46q-51 0 -72.5 -87t-21.5 -217q0 -108 16.5 -191t46 -129t68.5 -46q52 0 73 86.5z" />
    <glyph glyph-name="Ograve.ss02" horiz-adv-x="785" 
d="M207 851h168l44 -104h-53zM194 25q-79 43 -121.5 123t-42.5 189q0 106 39 179t121 121t215 81q107 0 186 -43t121.5 -123t42.5 -189q0 -106 -39 -179t-121 -121t-215 -81q-107 0 -186 43zM484 101.5q21 86.5 21 218.5q0 107 -16.5 190t-46 129t-68.5 46q-51 0 -72.5 -87
t-21.5 -217q0 -108 16.5 -191t46 -129t68.5 -46q52 0 73 86.5z" />
    <glyph glyph-name="Ohungarumlaut.ss02" horiz-adv-x="785" 
d="M331 850h155l-168 -103h-50zM531 850h155l-168 -103h-50zM194 25q-79 43 -121.5 123t-42.5 189q0 106 39 179t121 121t215 81q107 0 186 -43t121.5 -123t42.5 -189q0 -106 -39 -179t-121 -121t-215 -81q-107 0 -186 43zM484 101.5q21 86.5 21 218.5q0 107 -16.5 190
t-46 129t-68.5 46q-51 0 -72.5 -87t-21.5 -217q0 -108 16.5 -191t46 -129t68.5 -46q52 0 73 86.5z" />
    <glyph glyph-name="Omacron.ss02" horiz-adv-x="785" 
d="M243 833h300v-59h-300v59zM194 25q-79 43 -121.5 123t-42.5 189q0 106 39 179t121 121t215 81q107 0 186 -43t121.5 -123t42.5 -189q0 -106 -39 -179t-121 -121t-215 -81q-107 0 -186 43zM484 101.5q21 86.5 21 218.5q0 107 -16.5 190t-46 129t-68.5 46q-51 0 -72.5 -87
t-21.5 -217q0 -108 16.5 -191t46 -129t68.5 -46q52 0 73 86.5z" />
    <glyph glyph-name="Oslashacute.ss02" horiz-adv-x="785" 
d="M397 747h-47l38 104h168zM731.5 508.5q23.5 -65.5 23.5 -145.5q0 -106 -39 -179t-121 -121t-215 -81q-125 0 -212 59l-48 -56h-47l67 78q-54 46 -82 115.5t-28 158.5q0 106 39 179t121 121t215 81q143 0 233 -75l62 72h45l-81 -95q44 -46 67.5 -111.5zM289 236l205 240
q-14 97 -46 153t-74 56q-51 0 -72.5 -87t-21.5 -217q0 -79 9 -145zM484 101.5q21 86.5 21 218.5q0 52 -5 109l-204 -238q17 -83 46.5 -129.5t68.5 -46.5q52 0 73 86.5z" />
    <glyph glyph-name="Otilde.ss02" horiz-adv-x="785" 
d="M273 854l33 10l205 -44l49 44h17l-63 -122l-34 -8l-207 47l-47 -47h-17zM194 25q-79 43 -121.5 123t-42.5 189q0 106 39 179t121 121t215 81q107 0 186 -43t121.5 -123t42.5 -189q0 -106 -39 -179t-121 -121t-215 -81q-107 0 -186 43zM484 101.5q21 86.5 21 218.5
q0 107 -16.5 190t-46 129t-68.5 46q-51 0 -72.5 -87t-21.5 -217q0 -108 16.5 -191t46 -129t68.5 -46q52 0 73 86.5z" />
    <glyph glyph-name="Racute.ss02" horiz-adv-x="687" 
d="M328 747h-47l38 104h168zM682 25v-25h-254l-133 330h-15v-295l36 -10v-25h-296v25l40 10v630l-40 10v25h385q88 0 145.5 -44t57.5 -127q0 -88 -73 -138.5t-221 -57.5l223 -43l114 -255zM351.5 399.5q21.5 44.5 21.5 119.5q0 65 -19.5 110.5t-48.5 45.5l-25 -10v-310h11
q39 0 60.5 44.5z" />
    <glyph glyph-name="Rcaron.ss02" horiz-adv-x="687" 
d="M281 736l-117 114h44l116 -59l116 59h44l-117 -114h-86zM682 25v-25h-254l-133 330h-15v-295l36 -10v-25h-296v25l40 10v630l-40 10v25h385q88 0 145.5 -44t57.5 -127q0 -88 -73 -138.5t-221 -57.5l223 -43l114 -255zM351.5 399.5q21.5 44.5 21.5 119.5q0 65 -19.5 110.5
t-48.5 45.5l-25 -10v-310h11q39 0 60.5 44.5z" />
    <glyph glyph-name="Sacute.ss02" horiz-adv-x="566" 
d="M296 851h168l-159 -104h-47zM143 -4q-51 14 -111 49v215h25l66 -150q35 -46 67.5 -71.5t72.5 -25.5q45 0 73 25t28 67q0 33 -16.5 59t-57.5 56l-148 109q-58 43 -84.5 82.5t-26.5 99.5q0 76 58 129.5t207 77.5q76 0 108.5 -4.5t100.5 -25.5v-208h-25l-79 168
q-20 23 -41.5 34t-49.5 11q-39 0 -65 -20.5t-26 -62.5q0 -34 18.5 -58.5t56.5 -52.5l142 -104q58 -42 81.5 -82t23.5 -101q0 -89 -69 -145t-217 -85q-61 0 -112 14z" />
    <glyph glyph-name="Scaron.ss02" horiz-adv-x="566" 
d="M141 850h44l116 -59l116 59h44l-117 -114h-86zM143 -4q-51 14 -111 49v215h25l66 -150q35 -46 67.5 -71.5t72.5 -25.5q45 0 73 25t28 67q0 33 -16.5 59t-57.5 56l-148 109q-58 43 -84.5 82.5t-26.5 99.5q0 76 58 129.5t207 77.5q76 0 108.5 -4.5t100.5 -25.5v-208h-25
l-79 168q-20 23 -41.5 34t-49.5 11q-39 0 -65 -20.5t-26 -62.5q0 -34 18.5 -58.5t56.5 -52.5l142 -104q58 -42 81.5 -82t23.5 -101q0 -89 -69 -145t-217 -85q-61 0 -112 14z" />
    <glyph glyph-name="Scircumflex.ss02" horiz-adv-x="566" 
d="M261 861h80l120 -114h-47l-113 52l-113 -52h-47zM143 -4q-51 14 -111 49v215h25l66 -150q35 -46 67.5 -71.5t72.5 -25.5q45 0 73 25t28 67q0 33 -16.5 59t-57.5 56l-148 109q-58 43 -84.5 82.5t-26.5 99.5q0 76 58 129.5t207 77.5q76 0 108.5 -4.5t100.5 -25.5v-208h-25
l-79 168q-20 23 -41.5 34t-49.5 11q-39 0 -65 -20.5t-26 -62.5q0 -34 18.5 -58.5t56.5 -52.5l142 -104q58 -42 81.5 -82t23.5 -101q0 -89 -69 -145t-217 -85q-61 0 -112 14z" />
    <glyph glyph-name="Tcaron.ss02" horiz-adv-x="592" 
d="M136 850h44l116 -59l116 59h44l-117 -114h-86zM106 25l80 10v640h-46l-105 -192h-25v217h572v-217h-25l-105 192h-46v-640l80 -10v-25h-380v25z" />
    <glyph glyph-name="Uacute.ss02" horiz-adv-x="658" 
d="M387 851h168l-159 -104h-47zM132 49.5q-82 67.5 -82 184.5v431l-40 10v25h300v-25l-40 -10v-440q0 -77 41.5 -125t107.5 -48t107.5 48t41.5 125v440l-45 10v25h125v-25l-40 -10v-438q0 -62 -19.5 -107.5t-73.5 -81t-153 -56.5q-148 0 -230 67.5z" />
    <glyph glyph-name="Ubreve.ss02" horiz-adv-x="658" 
d="M301.5 765q-46.5 32 -69.5 79l19 15q24 -25 59.5 -43.5t83.5 -18.5t79.5 17.5t58.5 44.5l19 -15q-22 -43 -49.5 -65.5t-92.5 -45.5q-61 0 -107.5 32zM132 49.5q-82 67.5 -82 184.5v431l-40 10v25h300v-25l-40 -10v-440q0 -77 41.5 -125t107.5 -48t107.5 48t41.5 125v440
l-45 10v25h125v-25l-40 -10v-438q0 -62 -19.5 -107.5t-73.5 -81t-153 -56.5q-148 0 -230 67.5z" />
    <glyph glyph-name="Ucircumflex.ss02" horiz-adv-x="658" 
d="M352 861h80l120 -114h-47l-113 52l-113 -52h-47zM132 49.5q-82 67.5 -82 184.5v431l-40 10v25h300v-25l-40 -10v-440q0 -77 41.5 -125t107.5 -48t107.5 48t41.5 125v440l-45 10v25h125v-25l-40 -10v-438q0 -62 -19.5 -107.5t-73.5 -81t-153 -56.5q-148 0 -230 67.5z" />
    <glyph glyph-name="Udieresis.ss02" horiz-adv-x="658" 
d="M248 745l-6 60l11 50l74 6l30 -6l8 -59l-13 -51l-72 -6zM425 745l-6 60l12 50l73 6l30 -6l8 -59l-13 -51l-72 -6zM132 49.5q-82 67.5 -82 184.5v431l-40 10v25h300v-25l-40 -10v-440q0 -77 41.5 -125t107.5 -48t107.5 48t41.5 125v440l-45 10v25h125v-25l-40 -10v-438
q0 -62 -19.5 -107.5t-73.5 -81t-153 -56.5q-148 0 -230 67.5z" />
    <glyph glyph-name="Ugrave.ss02" horiz-adv-x="658" 
d="M206 851h168l44 -104h-53zM132 49.5q-82 67.5 -82 184.5v431l-40 10v25h300v-25l-40 -10v-440q0 -77 41.5 -125t107.5 -48t107.5 48t41.5 125v440l-45 10v25h125v-25l-40 -10v-438q0 -62 -19.5 -107.5t-73.5 -81t-153 -56.5q-148 0 -230 67.5z" />
    <glyph glyph-name="Uhungarumlaut.ss02" horiz-adv-x="658" 
d="M330 850h155l-168 -103h-50zM530 850h155l-168 -103h-50zM132 49.5q-82 67.5 -82 184.5v431l-40 10v25h300v-25l-40 -10v-440q0 -77 41.5 -125t107.5 -48t107.5 48t41.5 125v440l-45 10v25h125v-25l-40 -10v-438q0 -62 -19.5 -107.5t-73.5 -81t-153 -56.5
q-148 0 -230 67.5z" />
    <glyph glyph-name="Umacron.ss02" horiz-adv-x="658" 
d="M242 833h300v-59h-300v59zM132 49.5q-82 67.5 -82 184.5v431l-40 10v25h300v-25l-40 -10v-440q0 -77 41.5 -125t107.5 -48t107.5 48t41.5 125v440l-45 10v25h125v-25l-40 -10v-438q0 -62 -19.5 -107.5t-73.5 -81t-153 -56.5q-148 0 -230 67.5z" />
    <glyph glyph-name="Uring.ss02" horiz-adv-x="658" 
d="M330.5 726q-27.5 18 -27.5 56q0 33 23.5 49t65.5 28q39 0 64 -18t25 -59q0 -25 -11.5 -39.5t-28 -20.5t-47.5 -14q-36 0 -63.5 18zM429 747q14 13 14 35q0 21 -14.5 36t-35.5 15q-22 0 -36.5 -15t-14.5 -36t14.5 -34.5t36.5 -13.5t36 13zM132 49.5q-82 67.5 -82 184.5
v431l-40 10v25h300v-25l-40 -10v-440q0 -77 41.5 -125t107.5 -48t107.5 48t41.5 125v440l-45 10v25h125v-25l-40 -10v-438q0 -62 -19.5 -107.5t-73.5 -81t-153 -56.5q-148 0 -230 67.5z" />
    <glyph glyph-name="Utilde.ss02" horiz-adv-x="658" 
d="M272 854l33 10l205 -44l49 44h17l-63 -122l-34 -8l-207 47l-47 -47h-17zM132 49.5q-82 67.5 -82 184.5v431l-40 10v25h300v-25l-40 -10v-440q0 -77 41.5 -125t107.5 -48t107.5 48t41.5 125v440l-45 10v25h125v-25l-40 -10v-438q0 -62 -19.5 -107.5t-73.5 -81t-153 -56.5
q-148 0 -230 67.5z" />
    <glyph glyph-name="Wacute.ss02" horiz-adv-x="1086" 
d="M538 851h168l-159 -104h-47zM49 665l-39 10v25h342v-25l-61 -10l147 -504l75 307l-64 197l-39 10v25h342v-25l-61 -10l147 -504l146 504l-66 10v25h158v-25l-53 -10l-192 -648l-160 -35l-140 429l-98 -394l-162 -35z" />
    <glyph glyph-name="Wcircumflex.ss02" horiz-adv-x="1086" 
d="M503 861h80l120 -114h-47l-113 52l-113 -52h-47zM49 665l-39 10v25h342v-25l-61 -10l147 -504l75 307l-64 197l-39 10v25h342v-25l-61 -10l147 -504l146 504l-66 10v25h158v-25l-53 -10l-192 -648l-160 -35l-140 429l-98 -394l-162 -35z" />
    <glyph glyph-name="Wdieresis.ss02" horiz-adv-x="1086" 
d="M399 745l-6 60l11 50l74 6l30 -6l8 -59l-13 -51l-72 -6zM576 745l-6 60l12 50l73 6l30 -6l8 -59l-13 -51l-72 -6zM49 665l-39 10v25h342v-25l-61 -10l147 -504l75 307l-64 197l-39 10v25h342v-25l-61 -10l147 -504l146 504l-66 10v25h158v-25l-53 -10l-192 -648l-160 -35
l-140 429l-98 -394l-162 -35z" />
    <glyph glyph-name="Wgrave.ss02" horiz-adv-x="1086" 
d="M357 851h168l44 -104h-53zM49 665l-39 10v25h342v-25l-61 -10l147 -504l75 307l-64 197l-39 10v25h342v-25l-61 -10l147 -504l146 504l-66 10v25h158v-25l-53 -10l-192 -648l-160 -35l-140 429l-98 -394l-162 -35z" />
    <glyph glyph-name="Yacute.ss02" horiz-adv-x="715" 
d="M433 851h168l-159 -104h-47zM176 25l83 10v237l-201 393l-53 10v25h376v-25l-66 -10l156 -342l156 342l-70 10v25h153v-25l-53 -10l-178 -391v-239l82 -10v-25h-385v25z" />
    <glyph glyph-name="Ycircumflex.ss02" horiz-adv-x="715" 
d="M398 861h80l120 -114h-47l-113 52l-113 -52h-47zM176 25l83 10v237l-201 393l-53 10v25h376v-25l-66 -10l156 -342l156 342l-70 10v25h153v-25l-53 -10l-178 -391v-239l82 -10v-25h-385v25z" />
    <glyph glyph-name="Ydieresis.ss02" horiz-adv-x="715" 
d="M294 745l-6 60l11 50l74 6l30 -6l8 -59l-13 -51l-72 -6zM471 745l-6 60l12 50l73 6l30 -6l8 -59l-13 -51l-72 -6zM176 25l83 10v237l-201 393l-53 10v25h376v-25l-66 -10l156 -342l156 342l-70 10v25h153v-25l-53 -10l-178 -391v-239l82 -10v-25h-385v25z" />
    <glyph glyph-name="Ygrave.ss02" horiz-adv-x="715" 
d="M252 851h168l44 -104h-53zM176 25l83 10v237l-201 393l-53 10v25h376v-25l-66 -10l156 -342l156 342l-70 10v25h153v-25l-53 -10l-178 -391v-239l82 -10v-25h-385v25z" />
    <glyph glyph-name="Zacute.ss02" 
d="M305 851h168l-159 -104h-47zM10 15l344 660h-182l-107 -194h-25v219h570v-15l-342 -660h170l122 199h20v-224h-570v15z" />
    <glyph glyph-name="Zcaron.ss02" 
d="M150 850h44l116 -59l116 59h44l-117 -114h-86zM10 15l344 660h-182l-107 -194h-25v219h570v-15l-342 -660h170l122 199h20v-224h-570v15z" />
    <glyph glyph-name="Zdotaccent.ss02" 
d="M254 745l-6 60l12 50l73 6l30 -6l8 -59l-13 -51l-72 -6zM10 15l344 660h-182l-107 -194h-25v219h570v-15l-342 -660h170l122 199h20v-224h-570v15z" />
    <glyph glyph-name="aogonek.ss01" horiz-adv-x="572" 
d="M381 -146q26 -13 65 -13v-20q-105 0 -153 20.5t-48 67.5v40l91 60l-21 56l-134 -80q-66 0 -111 33.5t-45 98.5q0 35 13.5 66t42.5 51l228 62v120q0 32 -6 43t-25 11q-13 0 -25 -4l-16 -150h-188v102l236 82q80 0 127.5 -8t77 -39.5t29.5 -97.5v-217q0 -42 9 -81l36 3
l3 -25l-186 -39l-26 -66v-25q0 -38 26 -51zM309 272l-40 -14q-31 -30 -31 -94q0 -39 11 -62t29 -23q15 0 28 9l3 2v182z" />
    <glyph glyph-name="ccedilla.ss01" horiz-adv-x="491" 
d="M320.5 -49.5q26.5 -13.5 26.5 -37.5q0 -27 -26 -41.5t-81 -29.5l-97 -27h-42l46 53h93q11 13 11 24q0 28 -75 28l69 66q-64 5 -114 35.5t-78 81t-28 113.5q0 76 36.5 135t98 96.5t137.5 52.5q40 0 82 -14.5t79 -41.5v-136h-162l-28 158q-5 3 -8 3q-11 0 -25 -14
t-24.5 -44.5t-10.5 -77.5q0 -60 21 -106.5t58.5 -72t86.5 -25.5q30 0 48 4t45 15l7 -14q-59 -59 -97 -89t-98 -60l-13 -15q36 -6 62.5 -19.5z" />
    <glyph glyph-name="eogonek.ss01" horiz-adv-x="514" 
d="M489 268h-281q15 -61 55.5 -95.5t100.5 -34.5q34 0 56.5 5.5t50.5 19.5l14 -19q-68 -76 -142 -122l-37 -92v-25q0 -38 26 -51t65 -13v-20q-105 0 -153 20.5t-48 67.5v40l56 37q-66 4 -117.5 34t-80.5 81t-29 115q0 75 36 134.5t97 97.5t136 52q46 0 90.5 -18.5t74.5 -59
t30 -103.5v-51zM284 368q0 53 -9.5 74t-29.5 21q-23 0 -34.5 -27.5t-11.5 -92.5q0 -29 4 -50h81v75z" />
    <glyph glyph-name="g.ss01" horiz-adv-x="585" 
d="M81.5 -164.5q-66.5 16.5 -66.5 72.5v17l117 75q-49 6 -73.5 34t-24.5 82l103 89q-46 21 -71.5 57.5t-25.5 81.5q1 64 60.5 99.5t177.5 56.5q84 0 141 -34.5t66 -88.5l35 123h60v-155h-94v-7q0 -59 -59 -94t-174 -62q-45 0 -89 13l-10 -13q0 -11 10 -18t26 -7h230
q57 0 91 -28.5t34 -89.5q0 -70 -71.5 -129.5t-204.5 -90.5q-121 0 -187.5 16.5zM292.5 232.5q5.5 26.5 5.5 99.5q0 84 -9 114.5t-29 30.5q-19 0 -24.5 -26.5t-5.5 -99.5q0 -84 9 -114.5t29 -30.5q19 0 24.5 26.5zM430 -59q35 3 45.5 9t10.5 17q0 16 -9.5 22t-33.5 6h-283
q-10 -11 -10 -27q0 -13 16 -19.5t51 -8.5t106 -2q72 0 107 3z" />
    <glyph glyph-name="gbreve.ss01" horiz-adv-x="585" 
d="M81.5 -164.5q-66.5 16.5 -66.5 72.5v17l117 75q-49 6 -73.5 34t-24.5 82l103 89q-46 21 -71.5 57.5t-25.5 81.5q1 64 60.5 99.5t177.5 56.5q84 0 141 -34.5t66 -88.5l35 123h60v-155h-94v-7q0 -59 -59 -94t-174 -62q-45 0 -89 13l-10 -13q0 -11 10 -18t26 -7h230
q57 0 91 -28.5t34 -89.5q0 -70 -71.5 -129.5t-204.5 -90.5q-121 0 -187.5 16.5zM292.5 232.5q5.5 26.5 5.5 99.5q0 84 -9 114.5t-29 30.5q-19 0 -24.5 -26.5t-5.5 -99.5q0 -84 9 -114.5t29 -30.5q19 0 24.5 26.5zM430 -59q35 3 45.5 9t10.5 17q0 16 -9.5 22t-33.5 6h-283
q-10 -11 -10 -27q0 -13 16 -19.5t51 -8.5t106 -2q72 0 107 3zM202.5 600q-46.5 36 -69.5 90l19 15q62 -59 143 -59q48 0 79 16.5t59 42.5l19 -15q-22 -47 -49 -72t-93 -54q-61 0 -107.5 36z" />
    <glyph glyph-name="gcircumflex.ss01" horiz-adv-x="585" 
d="M81.5 -164.5q-66.5 16.5 -66.5 72.5v17l117 75q-49 6 -73.5 34t-24.5 82l103 89q-46 21 -71.5 57.5t-25.5 81.5q1 64 60.5 99.5t177.5 56.5q84 0 141 -34.5t66 -88.5l35 123h60v-155h-94v-7q0 -59 -59 -94t-174 -62q-45 0 -89 13l-10 -13q0 -11 10 -18t26 -7h230
q57 0 91 -28.5t34 -89.5q0 -70 -71.5 -129.5t-204.5 -90.5q-121 0 -187.5 16.5zM292.5 232.5q5.5 26.5 5.5 99.5q0 84 -9 114.5t-29 30.5q-19 0 -24.5 -26.5t-5.5 -99.5q0 -84 9 -114.5t29 -30.5q19 0 24.5 26.5zM430 -59q35 3 45.5 9t10.5 17q0 16 -9.5 22t-33.5 6h-283
q-10 -11 -10 -27q0 -13 16 -19.5t51 -8.5t106 -2q72 0 107 3zM248 710h90l117 -151h-55l-107 82l-107 -82h-55z" />
    <glyph glyph-name="gcommaaccent.ss01" horiz-adv-x="585" 
d="M81.5 -164.5q-66.5 16.5 -66.5 72.5v17l117 75q-49 6 -73.5 34t-24.5 82l103 89q-46 21 -71.5 57.5t-25.5 81.5q1 64 60.5 99.5t177.5 56.5q84 0 141 -34.5t66 -88.5l35 123h60v-155h-94v-7q0 -59 -59 -94t-174 -62q-45 0 -89 13l-10 -13q0 -11 10 -18t26 -7h230
q57 0 91 -28.5t34 -89.5q0 -70 -71.5 -129.5t-204.5 -90.5q-121 0 -187.5 16.5zM292.5 232.5q5.5 26.5 5.5 99.5q0 84 -9 114.5t-29 30.5q-19 0 -24.5 -26.5t-5.5 -99.5q0 -84 9 -114.5t29 -30.5q19 0 24.5 26.5zM430 -59q35 3 45.5 9t10.5 17q0 16 -9.5 22t-33.5 6h-283
q-10 -11 -10 -27q0 -13 16 -19.5t51 -8.5t106 -2q72 0 107 3zM208 629l146 90l24 -5l-58 -68l58 -52v-35h-170v70z" />
    <glyph glyph-name="gdotaccent.ss01" horiz-adv-x="585" 
d="M81.5 -164.5q-66.5 16.5 -66.5 72.5v17l117 75q-49 6 -73.5 34t-24.5 82l103 89q-46 21 -71.5 57.5t-25.5 81.5q1 64 60.5 99.5t177.5 56.5q84 0 141 -34.5t66 -88.5l35 123h60v-155h-94v-7q0 -59 -59 -94t-174 -62q-45 0 -89 13l-10 -13q0 -11 10 -18t26 -7h230
q57 0 91 -28.5t34 -89.5q0 -70 -71.5 -129.5t-204.5 -90.5q-121 0 -187.5 16.5zM292.5 232.5q5.5 26.5 5.5 99.5q0 84 -9 114.5t-29 30.5q-19 0 -24.5 -26.5t-5.5 -99.5q0 -84 9 -114.5t29 -30.5q19 0 24.5 26.5zM430 -59q35 3 45.5 9t10.5 17q0 16 -9.5 22t-33.5 6h-283
q-10 -11 -10 -27q0 -13 16 -19.5t51 -8.5t106 -2q72 0 107 3zM221 569l-7 69l13 60l103 6l34 -6l8 -71l-15 -58l-101 -8z" />
    <glyph glyph-name="ij.ss01" horiz-adv-x="652" 
d="M32 25l40 10v397l-39 -2l-3 28l217 37h25v-460l40 -10v-25h-280v25zM91 544l-10 90l15 70l115 9l44 -9l7 -82l-15 -78l-116 -8zM312 -13h89l2 26q4 48 4 116v303l-39 -2l-3 28l216 37h26v-299q0 -68 -8.5 -109.5t-33.5 -77t-76 -81.5l-121 -108h-56v167zM431 544l-10 90
l15 70l115 9l44 -9l7 -82l-15 -78l-116 -8z" />
    <glyph glyph-name="iogonek.ss01" horiz-adv-x="332" 
d="M91 544l-10 90l15 70l115 9l44 -9l7 -82l-15 -78l-116 -8zM171 -70v-25q0 -38 26 -51t65 -13v-20q-105 0 -153 20.5t-48 67.5v40l78 51h-107v25l40 10v397l-39 -2l-3 28l217 37h25v-460l40 -10v-25h-113z" />
    <glyph glyph-name="j.ss01" horiz-adv-x="320" 
d="M-20 -13h89l2 26q4 48 4 116v303l-39 -2l-3 28l216 37h26v-299q0 -68 -8.5 -109.5t-33.5 -77t-76 -81.5l-121 -108h-56v167zM99 544l-10 90l15 70l115 9l44 -9l7 -82l-15 -78l-116 -8z" />
    <glyph glyph-name="uni0237.ss01" horiz-adv-x="320" 
d="M-20 -13h89l2 26q4 48 4 116v303l-39 -2l-3 28l216 37h26v-299q0 -68 -8.5 -109.5t-33.5 -77t-76 -81.5l-121 -108h-56v167z" />
    <glyph glyph-name="kcommaaccent.ss01" horiz-adv-x="653" 
d="M32 25l40 10v624l-39 -2l-3 28l217 25h25v-430l226 170l-66 10v25h191v-25l-70 -10l-233 -164l141 33l164 -284l23 -10v-25h-248l-128 263v-228l40 -10v-25h-280v25zM280 -175l38 52l-76 42v31h170v-65l-114 -69z" />
    <glyph glyph-name="lcommaaccent.ss01" horiz-adv-x="327" 
d="M32 25l40 10v624l-39 -2l-3 28l217 25h25v-675l40 -10v-25h-280v25zM117 -175l38 52l-76 42v31h170v-65l-114 -69z" />
    <glyph glyph-name="ncommaaccent.ss01" horiz-adv-x="627" 
d="M32 25l40 10v397l-39 -2l-3 28l217 37h25v-101l171 106q54 0 81.5 -14t37.5 -45t10 -87v-319l40 -10v-25h-275v25l25 10v323q0 16 -7 25.5t-20 9.5q-14 0 -24 -4t-24 -12l-15 -9v-333l25 -10v-25h-265v25zM267 -175l38 52l-76 42v31h170v-65l-114 -69z" />
    <glyph glyph-name="eng.ss01" horiz-adv-x="632" 
d="M267 -43h89l2 24q4 50 4 137v240q0 16 -7 25.5t-20 9.5q-14 0 -24 -4t-24 -12l-15 -9v-333l25 -10v-25h-265v25l40 10v397l-39 -2l-3 28l217 37h25v-101l171 106q54 0 81.5 -14t37.5 -45t10 -87v-218q0 -80 -40.5 -135t-96.5 -98l-102 -78h-66v132z" />
    <glyph glyph-name="p.ss01" horiz-adv-x="596" 
d="M17 -145l40 10v570l-39 -2l-3 25l203 37h25l11 -97l129 102q53 0 95.5 -27t67.5 -79.5t25 -125.5q0 -109 -45 -179.5t-166 -103.5q-62 0 -103 27v-147l60 -10v-25h-300v25zM334.5 72q16.5 43 16.5 126q0 184 -61 184q-15 0 -28 -7l-5 -3v-337q8 -6 22 -6q39 0 55.5 43z
" />
    <glyph glyph-name="thorn.ss01" horiz-adv-x="581" 
d="M22 -145l40 10v794l-39 -2l-3 28l217 25h25v-310l126 100q53 0 95.5 -27t67.5 -79.5t25 -125.5q0 -109 -45 -179.5t-166 -103.5q-62 0 -103 27v-147l60 -10v-25h-300v25zM339.5 72q16.5 43 16.5 126q0 184 -61 184q-15 0 -28 -7l-5 -3v-337q8 -6 22 -6q39 0 55.5 43z" />
    <glyph glyph-name="q.ss01" horiz-adv-x="592" 
d="M281 -145l58 10v224l-134 -104q-51 0 -92 25t-64.5 73.5t-23.5 115.5q0 112 65.5 193t207.5 108q116 0 179 -30l37 30h25v-635l48 -10v-25h-306v25zM319 102.5q8 3.5 14 7.5l6 4v347q-10 10 -27 10q-38 0 -52.5 -48.5t-14.5 -148.5q0 -83 12 -129t45 -46q9 0 17 3.5z" />
    <glyph glyph-name="rcommaaccent.ss01" horiz-adv-x="450" 
d="M32 25l40 10v400l-39 -2l-3 25l202 37h25l13 -183l69 183h96v-192h-151l-12 -25v-242l74 -11v-25h-314v25zM138 -175l38 52l-76 42v31h170v-65l-114 -69z" />
    <glyph glyph-name="scedilla.ss01" horiz-adv-x="447" 
d="M219 -18l-10 -12q36 -6 62.5 -19.5t26.5 -37.5q0 -27 -26 -41.5t-81 -29.5l-97 -27h-42l46 53h93q11 13 11 24q0 28 -75 28l66 63q-104 6 -159 31v172h25l72 -133q27 -26 44.5 -35.5t42.5 -9.5t41.5 13t16.5 30q0 18 -12 31t-48 38l-116 81q-36 25 -55.5 55.5t-19.5 73.5
q0 59 50 105.5t148 64.5q63 0 97 -5.5t79 -24.5v-155h-25l-91 136q-14 14 -26.5 19.5t-29.5 5.5q-19 0 -32 -11.5t-13 -30.5q0 -20 13 -35.5t53 -43.5l114 -79q34 -23 49.5 -50.5t15.5 -66.5q0 -60 -46 -107t-147 -70h-15z" />
    <glyph glyph-name="scommaaccent.ss01" horiz-adv-x="447" 
d="M121 -9.5q-53 8.5 -87 23.5v172h25l72 -133q27 -26 44.5 -35.5t42.5 -9.5t41.5 13t16.5 30q0 18 -12 31t-48 38l-116 81q-36 25 -55.5 55.5t-19.5 73.5q0 59 50 105.5t148 64.5q63 0 97 -5.5t79 -24.5v-155h-25l-91 136q-14 14 -26.5 19.5t-29.5 5.5q-19 0 -32 -11.5
t-13 -30.5q0 -20 13 -35.5t53 -43.5l114 -79q34 -23 49.5 -50.5t15.5 -66.5q0 -60 -46 -107t-147 -70q-60 0 -113 8.5zM177 -175l38 52l-76 42v31h170v-65l-114 -69z" />
    <glyph glyph-name="uni0163.ss01" horiz-adv-x="392" 
d="M253.5 -49.5q26.5 -13.5 26.5 -37.5q0 -27 -26 -41.5t-81 -29.5l-97 -27h-42l46 53h93q11 13 11 24q0 28 -75 28l68 65q-53 2 -85 38.5t-32 99.5v316h-55v25h55v56l200 105v-161h109v-25h-109v-298q0 -25 14.5 -38.5t34.5 -13.5q17 0 30.5 3.5t37.5 13.5l10 -23l-169 -81
l-27 -32q36 -6 62.5 -19.5z" />
    <glyph glyph-name="uni021B.ss01" horiz-adv-x="392" 
d="M94 21.5q-34 36.5 -34 101.5v316h-55v25h55v56l200 105v-161h109v-25h-109v-298q0 -25 14.5 -38.5t34.5 -13.5q17 0 30.5 3.5t37.5 13.5l10 -23l-203 -98q-56 0 -90 36.5zM159 -175l38 52l-76 42v31h170v-65l-114 -69z" />
    <glyph glyph-name="uogonek.ss01" horiz-adv-x="608" 
d="M405 -146q26 -13 65 -13v-20q-105 0 -153 20.5t-48 67.5v40l97 64l-16 75l-166 -103q-54 0 -83 15.5t-40 48t-11 87.5v295l-35 -2v25l220 41h25v-360q0 -39 37 -39q16 0 42 14l6 3v318l-35 -2v25l211 41h24v-353q0 -28 2 -44.5t7 -36.5h31l3 -25l-181 -37l-28 -69v-25
q0 -38 26 -51z" />
    <glyph glyph-name="y.ss01" horiz-adv-x="570" 
d="M69 -8h187l106 115l-180 -59l-152 402l-25 10v25h294v-25l-46 -10l122 -324l120 324l-46 10v25h116v-25l-31 -10l-133 -350l-157 -275h-175v167z" />
    <glyph glyph-name="yacute.ss01" horiz-adv-x="570" 
d="M69 -8h187l106 115l-180 -59l-152 402l-25 10v25h294v-25l-46 -10l122 -324l120 324l-46 10v25h116v-25l-31 -10l-133 -350l-157 -275h-175v167zM391 710h160l-155 -151h-45z" />
    <glyph glyph-name="ycircumflex.ss01" horiz-adv-x="570" 
d="M69 -8h187l106 115l-180 -59l-152 402l-25 10v25h294v-25l-46 -10l122 -324l120 324l-46 10v25h116v-25l-31 -10l-133 -350l-157 -275h-175v167zM329 710h90l117 -151h-55l-107 82l-107 -82h-55z" />
    <glyph glyph-name="ydieresis.ss01" horiz-adv-x="570" 
d="M69 -8h187l106 115l-180 -59l-152 402l-25 10v25h294v-25l-46 -10l122 -324l120 324l-46 10v25h116v-25l-31 -10l-133 -350l-157 -275h-175v167zM209 564l-7 70l13 58l86 7l35 -7l9 -69l-15 -59l-84 -7zM409 564l-7 70l13 58l86 7l35 -7l9 -69l-15 -59l-84 -7z" />
    <glyph glyph-name="ygrave.ss01" horiz-adv-x="570" 
d="M69 -8h187l106 115l-180 -59l-152 402l-25 10v25h294v-25l-46 -10l122 -324l120 324l-46 10v25h116v-25l-31 -10l-133 -350l-157 -275h-175v167zM195 710h160l40 -151h-45z" />
    <glyph glyph-name="hcircumflex.ss02" horiz-adv-x="627" 
d="M133 861h80l120 -114h-47l-113 52l-113 -52h-47zM32 25l40 10v624l-39 -2l-3 28l217 25h25v-317l171 107q51 0 78.5 -12.5t39 -44t11.5 -89.5v-319l40 -10v-25h-275v25l25 10v323q0 16 -7 25.5t-20 9.5q-14 0 -24 -4t-24 -12l-15 -9v-333l25 -10v-25h-265v25z" />
    <glyph glyph-name="lacute.ss02" horiz-adv-x="327" 
d="M159 851h168l-159 -104h-47zM32 25l40 10v624l-39 -2l-3 28l217 25h25v-675l40 -10v-25h-280v25z" />
    <glyph glyph-name="f_f_j.ss01.liga" horiz-adv-x="1020" 
d="M680 -73h89l2 26q4 48 4 128v358h-150v-404l70 -10v-25h-320v25l50 10v404h-150v-404l60 -10v-25h-310v25l50 10v404h-50v25h50v6q0 35 26 71t68 66l141 103h234l-164 -125h-95l-3 -16q-7 -42 -7 -90v-15h150v6q0 35 26 71t68 66l141 103h315v-170h-25l-150 45h-165
l-3 -16q-7 -42 -7 -90v-15h150l175 31h25v-359q0 -68 -8.5 -109.5t-33.5 -77t-76 -81.5l-121 -108h-56v167z" />
    <glyph glyph-name="f_j.ss01.liga" horiz-adv-x="670" 
d="M330 -28h89l2 26q4 48 4 128v313h-150v-404l55 -10v-25h-305v25l50 10v404h-50v25h50v6q0 35 26 71t68 66l141 103h315v-170h-25l-150 45h-165l-3 -16q-7 -42 -7 -90v-15h150l175 31h25v-294q0 -68 -8.5 -109.5t-33.5 -77t-76 -81.5l-121 -108h-56v147z" />
    <glyph glyph-name="f_y.ss01.liga" horiz-adv-x="885" 
d="M384 -8h187l107 116l-185 -50l-152 402h-66v-425l70 -10v-25h-320v25l50 10v425h-50v25h50v6q0 28 25.5 56t68.5 60l141 103h110v-125h-135l-3 -16q-3 -15 -5 -35t-2 -36v-13h339v-25l-46 -10l122 -324l120 324l-46 10v25h116v-25l-31 -10l-133 -350l-157 -275h-175v167z
" />
    <glyph glyph-name="g_g.ss01.liga" horiz-adv-x="1116" 
d="M75.5 -167q-60.5 17 -60.5 70v20l118 74q-48 11 -73.5 35.5t-25.5 59.5v30l110 80q-50 21 -77 53.5t-27 73.5q1 71 60 109t178 62q80 0 136 -34t70 -89l36 123h60l-40 -155h-51v-5q-1 -45 -28 -73.5t-76 -47t-132 -38.5q-48 0 -85 12l-22 -14q0 -9 8.5 -14.5t23.5 -5.5
h246q51 0 78 -32t27 -81q0 -56 -28 -95t-85 -70t-154 -65q-126 0 -186.5 17zM618 -167q-58 17 -58 70v20l114 74q-46 11 -71 35.5t-25 59.5v30l104 80q-53 21 -82 53.5t-29 73.5q1 71 60 109t178 62q80 0 136 -34t70 -89l36 123h60v-155h-91v-5q-1 -45 -28 -73.5t-76 -47
t-132 -38.5q-40 0 -78 12l-22 -14q0 -9 8.5 -14.5t23.5 -5.5h255q51 0 78 -32t27 -81q0 -82 -68 -135t-215 -95q-117 0 -175 17zM292.5 230.5q5.5 25.5 5.5 91.5q0 90 -9 123t-29 33q-19 0 -24.5 -29.5t-5.5 -107.5q0 -79 9 -107.5t29 -28.5q19 0 24.5 25.5zM823.5 230.5
q5.5 25.5 5.5 91.5q0 90 -9 123t-29 33q-19 0 -24.5 -29.5t-5.5 -107.5q0 -79 9 -107.5t29 -28.5q19 0 24.5 25.5zM440 -56.5q36 6.5 36 26.5q0 24 -37 24h-282q-7 -7 -7 -19q0 -20 39.5 -29t121.5 -9q93 0 129 6.5zM983.5 -56.5q39.5 6.5 39.5 26.5q0 24 -37 24h-288
q-7 -7 -7 -19q0 -20 37 -29t114 -9q102 0 141.5 6.5z" />
    <glyph glyph-name="k_y.ss01.liga" horiz-adv-x="1143" 
d="M648 -28h181l106 135l-180 -59l-154 407h-48l-233 -169l141 33l164 -284l23 -10v-25h-248l-128 264v-229l40 -10v-25h-280v25l40 10v624l-39 -2l-3 28l217 25h25v-429l226 169l-66 10v25h440v-25l-46 -10l122 -324l120 324l-46 10v25h116v-25l-31 -10l-133 -350
l-157 -275h-169v147z" />
    <glyph glyph-name="t_y.ss01.liga" horiz-adv-x="899" 
d="M398 -8h184l113 115l-183 -61l-157 414h-95v-319q0 -25 14.5 -38.5t34.5 -13.5q17 0 30.5 3.5t37.5 13.5l10 -23l-203 -98q-56 0 -90 36.5t-34 101.5v337h-55v25h55v35l200 105v-140h368v-25l-46 -10l120 -323l122 323l-46 10v25h116v-25l-31 -10l-137 -364l-146 -261
h-182v167z" />
    <glyph glyph-name="a.sc" horiz-adv-x="652" 
d="M24 24l31 8l184 443l163 53l195 -496l31 -8v-24h-310v24l59 8l-51 132h-180l-55 -132l59 -8v-24h-126v24zM318 191l-78 207l-85 -207h163z" />
    <glyph glyph-name="aacute.sc" horiz-adv-x="652" 
d="M344 710h160l-155 -141h-45zM24 24l31 8l184 443l163 53l195 -496l31 -8v-24h-310v24l59 8l-51 132h-180l-55 -132l59 -8v-24h-126v24zM318 191l-78 207l-85 -207h163z" />
    <glyph glyph-name="abreve.sc" horiz-adv-x="652" 
d="M236.5 600q-46.5 36 -69.5 90l19 15q62 -59 143 -59q48 0 79 16.5t59 42.5l19 -15q-22 -47 -49 -72t-93 -54q-61 0 -107.5 36zM24 24l31 8l184 443l163 53l195 -496l31 -8v-24h-310v24l59 8l-51 132h-180l-55 -132l59 -8v-24h-126v24zM318 191l-78 207l-85 -207h163z" />
    <glyph glyph-name="acircumflex.sc" horiz-adv-x="652" 
d="M282 710h90l107 -141h-45l-107 64l-107 -64h-45zM24 24l31 8l184 443l163 53l195 -496l31 -8v-24h-310v24l59 8l-51 132h-180l-55 -132l59 -8v-24h-126v24zM318 191l-78 207l-85 -207h163z" />
    <glyph glyph-name="adieresis.sc" horiz-adv-x="652" 
d="M162 576l-7 70l13 58l86 7l35 -7l9 -69l-15 -59l-84 -7zM362 576l-7 70l13 58l86 7l35 -7l9 -69l-15 -59l-84 -7zM24 24l31 8l184 443l163 53l195 -496l31 -8v-24h-310v24l59 8l-51 132h-180l-55 -132l59 -8v-24h-126v24zM318 191l-78 207l-85 -207h163z" />
    <glyph glyph-name="agrave.sc" horiz-adv-x="652" 
d="M149 710h160l40 -141h-45zM24 24l31 8l184 443l163 53l195 -496l31 -8v-24h-310v24l59 8l-51 132h-180l-55 -132l59 -8v-24h-126v24zM318 191l-78 207l-85 -207h163z" />
    <glyph glyph-name="amacron.sc" horiz-adv-x="652" 
d="M177 680h300v-80h-300v80zM24 24l31 8l184 443l163 53l195 -496l31 -8v-24h-310v24l59 8l-51 132h-180l-55 -132l59 -8v-24h-126v24zM318 191l-78 207l-85 -207h163z" />
    <glyph glyph-name="aogonek.sc" horiz-adv-x="652" 
d="M388 -103v-50q0 -39 20 -62t83 -23v-15q-116 0 -165.5 24.5t-49.5 76.5v74l109 89l-59 153h-180l-55 -132l59 -8v-24h-126v24l31 8l184 443l163 53l195 -496l31 -8v-24h-207zM318 191l-78 207l-85 -207h163z" />
    <glyph glyph-name="aring.sc" horiz-adv-x="652" 
d="M241 577q-37 27 -37 85q0 44 33.5 70t89.5 42q57 0 90 -25.5t33 -86.5q0 -46 -32 -72.5t-88 -39.5q-52 0 -89 27zM383 607.5q23 21.5 23 54.5t-23 55t-56 22t-55.5 -22t-22.5 -55t22.5 -54.5t55.5 -21.5t56 21.5zM24 24l31 8l184 443l163 53l195 -496l31 -8v-24h-310v24
l59 8l-51 132h-180l-55 -132l59 -8v-24h-126v24zM318 191l-78 207l-85 -207h163z" />
    <glyph glyph-name="atilde.sc" horiz-adv-x="652" 
d="M206 608l-48 -54h-20l49 141l33 9l227 -54l48 54h20l-49 -141l-33 -9zM24 24l31 8l184 443l163 53l195 -496l31 -8v-24h-310v24l59 8l-51 132h-180l-55 -132l59 -8v-24h-126v24zM318 191l-78 207l-85 -207h163z" />
    <glyph glyph-name="ae.sc" horiz-adv-x="920" 
d="M24 24l31 8l374 479h450v-152h-23l-77 130h-157v-231h64l49 102h23v-226h-23l-49 101h-64v-213h157l70 138h23v-160h-480v24l30 8v203h-168l-159 -203l59 -8v-24h-130v24zM422 258v191l-154 -191h154z" />
    <glyph glyph-name="aeacute.sc" horiz-adv-x="920" 
d="M609 710h160l-155 -141h-45zM24 24l31 8l374 479h450v-152h-23l-77 130h-157v-231h64l49 102h23v-226h-23l-49 101h-64v-213h157l70 138h23v-160h-480v24l30 8v203h-168l-159 -203l59 -8v-24h-130v24zM422 258v191l-154 -191h154z" />
    <glyph glyph-name="b.sc" horiz-adv-x="595" 
d="M36 24l31 8v447l-31 8v24h332q53 0 91.5 -16.5t58 -42.5t19.5 -53q0 -53 -51.5 -85.5t-171.5 -38.5q125 -4 180.5 -41.5t55.5 -87.5q0 -121 -217 -146h-297v24zM278 284q24 0 41.5 31.5t17.5 82.5q0 89 -51 89l-19 -8v-195h11zM331.5 59q18.5 35 18.5 87q0 57 -21.5 86.5
t-51.5 29.5h-10v-230l20 -8q26 0 44.5 35z" />
    <glyph glyph-name="c.sc" horiz-adv-x="660" 
d="M140.5 49q-95.5 63 -95.5 189q0 131 89.5 200t267.5 87q71 0 112.5 -7.5t90.5 -26.5v-174h-23l-89 159q-27 26 -76 26q-67 0 -106 -62t-39 -181q0 -121 37.5 -185t105.5 -64q27 0 45 4t34 18l89 165h23v-176q-63 -17 -106 -24t-113 -11q-151 0 -246.5 63z" />
    <glyph glyph-name="cacute.sc" horiz-adv-x="660" 
d="M404 710h160l-155 -141h-45zM140.5 49q-95.5 63 -95.5 189q0 131 89.5 200t267.5 87q71 0 112.5 -7.5t90.5 -26.5v-174h-23l-89 159q-27 26 -76 26q-67 0 -106 -62t-39 -181q0 -121 37.5 -185t105.5 -64q27 0 45 4t34 18l89 165h23v-176q-63 -17 -106 -24t-113 -11
q-151 0 -246.5 63z" />
    <glyph glyph-name="ccaron.sc" horiz-adv-x="660" 
d="M280 710l107 -64l107 64h45l-107 -141h-90l-107 141h45zM140.5 49q-95.5 63 -95.5 189q0 131 89.5 200t267.5 87q71 0 112.5 -7.5t90.5 -26.5v-174h-23l-89 159q-27 26 -76 26q-67 0 -106 -62t-39 -181q0 -121 37.5 -185t105.5 -64q27 0 45 4t34 18l89 165h23v-176
q-63 -17 -106 -24t-113 -11q-151 0 -246.5 63z" />
    <glyph glyph-name="ccedilla.sc" horiz-adv-x="660" 
d="M509 -1q-38 -7 -91 -11l-13 -18q44 -7 64.5 -29.5t20.5 -49.5q0 -25 -18 -43t-39 -28t-72 -30l-86 -35h-32l41 65h91q13 19 13 40q0 27 -11.5 36t-35.5 14l52 76h-6q-151 0 -246.5 63t-95.5 189q0 131 89.5 200t267.5 87q71 0 112.5 -7.5t90.5 -26.5v-174h-23l-89 159
q-27 26 -76 26q-67 0 -106 -62t-39 -181q0 -121 37.5 -185t105.5 -64q27 0 45 4t34 18l89 165h23v-176q-59 -15 -97 -22z" />
    <glyph glyph-name="ccircumflex.sc" horiz-adv-x="660" 
d="M342 710h90l107 -141h-45l-107 64l-107 -64h-45zM140.5 49q-95.5 63 -95.5 189q0 131 89.5 200t267.5 87q71 0 112.5 -7.5t90.5 -26.5v-174h-23l-89 159q-27 26 -76 26q-67 0 -106 -62t-39 -181q0 -121 37.5 -185t105.5 -64q27 0 45 4t34 18l89 165h23v-176
q-63 -17 -106 -24t-113 -11q-151 0 -246.5 63z" />
    <glyph glyph-name="cdotaccent.sc" horiz-adv-x="612" 
d="M299 554l-6 64l13 56l97 6l31 -6l7 -66l-13 -54l-96 -7zM118 48.5q-93 62.5 -93 188.5q0 132 87 200.5t262 87.5q69 0 109 -7t88 -26v-179h-23l-88 159q-18 17 -33.5 23t-37.5 6q-64 0 -100.5 -61.5t-36.5 -180.5q0 -122 35.5 -185t99.5 -63q22 0 39.5 5.5t34.5 19.5
l87 165h24v-181q-60 -17 -102 -23.5t-111 -10.5q-148 0 -241 62.5z" />
    <glyph glyph-name="d.sc" horiz-adv-x="673" 
d="M36 24l30 8v447l-30 8v24h299q147 0 220 -64.5t73 -174.5q0 -117 -70 -184.5t-228 -87.5h-294v24zM384 92q35 68 35 177q0 97 -32.5 157.5t-97.5 60.5l-23 -8v-447l22 -8q61 0 96 68z" />
    <glyph glyph-name="eth.sc" horiz-adv-x="630" 
d="M555 446.5q73 -64.5 73 -174.5q0 -117 -70 -184.5t-228 -87.5h-294v24l30 8v222h-42v20h42v205l-30 8v24h299q147 0 220 -64.5zM384 92q35 68 35 177q0 97 -32.5 157.5t-97.5 60.5l-23 -8v-205h54v-20h-54v-222l22 -8q61 0 96 68z" />
    <glyph glyph-name="dcaron.sc" horiz-adv-x="673" 
d="M205 710l107 -64l107 64h45l-107 -141h-90l-107 141h45zM36 24l30 8v447l-30 8v24h299q147 0 220 -64.5t73 -174.5q0 -117 -70 -184.5t-228 -87.5h-294v24zM384 92q35 68 35 177q0 97 -32.5 157.5t-97.5 60.5l-23 -8v-447l22 -8q61 0 96 68z" />
    <glyph glyph-name="dcroat.sc" horiz-adv-x="630" 
d="M555 446.5q73 -64.5 73 -174.5q0 -117 -70 -184.5t-228 -87.5h-294v24l30 8v222h-42v20h42v205l-30 8v24h299q147 0 220 -64.5zM384 92q35 68 35 177q0 97 -32.5 157.5t-97.5 60.5l-23 -8v-205h54v-20h-54v-222l22 -8q61 0 96 68z" />
    <glyph glyph-name="e.sc" horiz-adv-x="561" 
d="M36 24l31 8v447l-31 8v24h485v-152h-23l-77 130h-154v-209h61l48 102h23v-226h-23l-48 102h-61v-236h153l71 138h23v-160h-478v24z" />
    <glyph glyph-name="eacute.sc" horiz-adv-x="561" 
d="M315 710h160l-155 -141h-45zM36 24l31 8v447l-31 8v24h485v-152h-23l-77 130h-154v-209h61l48 102h23v-226h-23l-48 102h-61v-236h153l71 138h23v-160h-478v24z" />
    </font>
</defs>
</svg>
