<?xml version="1.0" standalone="no"?>
<!DOCTYPE svg PUBLIC "-//W3C//DTD SVG 1.1//EN" "http://www.w3.org/Graphics/SVG/1.1/DTD/svg11.dtd" >
<svg xmlns="http://www.w3.org/2000/svg" xmlns:xlink="http://www.w3.org/1999/xlink" version="1.1">
<metadata>
Created by FontForge 20170731 at Tue Dec 17 12:33:25 2002
 By Aleksey,,,
(c) 2001 House Industries/Brand Design Co., Inc. All Rights Reserved.
</metadata>
<defs>
<font id="NeutraDisp-Light" horiz-adv-x="142" >
  <font-face 
    font-family="Neutra Display"
    font-weight="300"
    font-stretch="normal"
    units-per-em="1000"
    panose-1="2 0 0 0 0 0 0 0 0 0"
    ascent="780"
    descent="-220"
    x-height="318"
    cap-height="680"
    bbox="-24 -223 1091 882"
    underline-thickness="20"
    underline-position="-173"
    unicode-range="U+000D-FB04"
  />
<missing-glyph horiz-adv-x="500" 
 />
    <glyph glyph-name="ff" unicode="ff" horiz-adv-x="411" 
d="M296 292v-292h-30v292h-159v-292h-30v292h-45v26h45v311q0 43 21.5 66t56.5 23q43 0 67 -32l-20 -19q-19 24 -47 24q-48 0 -48 -66v-307h159v311q0 43 21.5 66t56.5 23q43 0 67 -32l-20 -19q-19 24 -47 24q-48 0 -48 -66v-307h83v-26h-83z" />
    <glyph glyph-name="fi" unicode="fi" horiz-adv-x="360" 
d="M281 460q-10 0 -17.5 7.5t-7.5 17.5t7.5 17.5t17.5 7.5t17.5 -7.5t7.5 -17.5t-7.5 -17.5t-17.5 -7.5zM107 292v-292h-30v292h-45v26h45v311q0 43 21.5 66t56.5 23q43 0 67 -32l-20 -19q-19 24 -47 24q-48 0 -48 -66v-307h189v-318h-30v292h-159z" />
    <glyph glyph-name="fl" unicode="fl" horiz-adv-x="360" 
d="M107 292v-292h-30v292h-45v26h45v282q0 56 31 87t79 31q49 0 79 -30.5t30 -87.5v-600h-30v596q0 95 -79 95q-80 0 -80 -95v-278h83v-26h-83z" />
    <glyph glyph-name="ffi" unicode="ffi" horiz-adv-x="549" 
d="M470 460q-10 0 -17.5 7.5t-7.5 17.5t7.5 17.5t17.5 7.5t17.5 -7.5t7.5 -17.5t-7.5 -17.5t-17.5 -7.5zM296 292v-292h-30v292h-159v-292h-30v292h-45v26h45v311q0 43 21.5 66t56.5 23q43 0 67 -32l-20 -19q-19 24 -47 24q-48 0 -48 -66v-307h159v311q0 43 21.5 66t56.5 23
q43 0 67 -32l-20 -19q-19 24 -47 24q-48 0 -48 -66v-307h189v-318h-30v292h-159z" />
    <glyph glyph-name="ffl" unicode="ffl" horiz-adv-x="549" 
d="M296 292v-292h-30v292h-159v-292h-30v292h-45v26h45v311q0 43 21.5 66t56.5 23q43 0 67 -32l-20 -19q-19 24 -47 24q-48 0 -48 -66v-307h159v282q0 56 31 87t79 31q49 0 79 -30.5t30 -87.5v-600h-30v596q0 95 -79 95q-80 0 -80 -95v-278h83v-26h-83z" />
    <glyph glyph-name="LA" unicode="LA" horiz-adv-x="1130" 
d="M619 137l-54 -137h-32l277 697h4l277 -697h-33l-54 137h-385zM99 0v680h32v-652h333l-11 -28h-354zM993 165l-181 458l-182 -458h363z" />
    <glyph glyph-name="fb" unicode="fb" horiz-adv-x="623" 
d="M107 292v-292h-30v292h-45v26h45v282q0 56 31 87t79 31q49 0 79 -30.5t30 -87.5v-351q42 77 130 77q70 0 116.5 -48t46.5 -119t-46.5 -119t-116.5 -48q-88 0 -130 77v-69h-30v596q0 95 -79 95q-80 0 -80 -95v-278h83v-26h-83zM426 19q58 0 95 39.5t37 100.5t-37 100.5
t-95 39.5t-95 -39.5t-37 -100.5t37 -100.5t95 -39.5z" />
    <glyph glyph-name="fh" unicode="fh" horiz-adv-x="594" 
d="M107 318h83v-26h-83v-292h-30v292h-45v26h45v282q0 56 31 87t79 31q49 0 79 -30.5t30 -87.5v-342q40 68 118 68q55 0 89.5 -32.5t34.5 -95.5v-198h-30v193q0 106 -95 106q-52 0 -84.5 -32t-32.5 -86v-181h-30v596q0 95 -79 95q-80 0 -80 -95v-278z" />
    <glyph glyph-name="fj" unicode="fj" horiz-adv-x="360" 
d="M281 460q-10 0 -17.5 7.5t-7.5 17.5t7.5 17.5t17.5 7.5t17.5 -7.5t7.5 -17.5t-7.5 -17.5t-17.5 -7.5zM107 292v-292h-30v292h-45v26h45v311q0 43 21.5 66t56.5 23q43 0 67 -32l-20 -19q-19 24 -47 24q-48 0 -48 -66v-307h189v-457q0 -39 -19 -60t-53 -21q-27 0 -46 16
l15 22q14 -11 31 -11q42 0 42 57v428h-159z" />
    <glyph glyph-name="fk" unicode="fk" horiz-adv-x="536" 
d="M107 318h83v-26h-83v-292h-30v292h-45v26h45v282q0 56 31 87t79 31q49 0 79 -30.5t30 -87.5v-468l163 186h35l-124 -141l151 -177h-38l-132 155l-55 -63v-92h-30v596q0 95 -79 95q-80 0 -80 -95v-278z" />
    <glyph glyph-name="ffb" unicode="ffb" horiz-adv-x="812" 
d="M77 292h-45v26h45v311q0 43 21.5 66t56.5 23q43 0 67 -32l-20 -19q-19 24 -47 24q-48 0 -48 -66v-307h159v282q0 56 31 87t79 31q49 0 79 -30.5t30 -87.5v-351q42 77 130 77q70 0 116.5 -48t46.5 -119t-46.5 -119t-116.5 -48q-88 0 -130 77v-69h-30v596q0 95 -79 95
q-80 0 -80 -95v-278h83v-26h-83v-292h-30v292h-159v-292h-30v292zM615 19q58 0 95 39.5t37 100.5t-37 100.5t-95 39.5t-95 -39.5t-37 -100.5t37 -100.5t95 -39.5z" />
    <glyph glyph-name="fff" unicode="fff" horiz-adv-x="600" 
d="M296 292v-292h-30v292h-159v-292h-30v292h-45v26h45v311q0 43 21.5 66t56.5 23q43 0 67 -32l-20 -19q-19 24 -47 24q-48 0 -48 -66v-307h159v311q0 43 21.5 66t56.5 23q43 0 67 -32l-20 -19q-19 24 -47 24q-48 0 -48 -66v-307h159v311q0 43 21.5 66t56.5 23q43 0 67 -32
l-20 -19q-19 24 -47 24q-48 0 -48 -66v-307h83v-26h-83v-292h-30v292h-159z" />
    <glyph glyph-name="ffh" unicode="ffh" horiz-adv-x="783" 
d="M296 292v-292h-30v292h-159v-292h-30v292h-45v26h45v311q0 43 21.5 66t56.5 23q43 0 67 -32l-20 -19q-19 24 -47 24q-48 0 -48 -66v-307h159v282q0 56 31 87t79 31q49 0 79 -30.5t30 -87.5v-342q40 68 118 68q55 0 89.5 -32.5t34.5 -95.5v-198h-30v193q0 106 -95 106
q-52 0 -84.5 -32t-32.5 -86v-181h-30v596q0 95 -79 95q-80 0 -80 -95v-278h83v-26h-83z" />
    <glyph glyph-name="ffj" unicode="ffj" horiz-adv-x="549" 
d="M470 460q-10 0 -17.5 7.5t-7.5 17.5t7.5 17.5t17.5 7.5t17.5 -7.5t7.5 -17.5t-7.5 -17.5t-17.5 -7.5zM296 292v-292h-30v292h-159v-292h-30v292h-45v26h45v311q0 43 21.5 66t56.5 23q43 0 67 -32l-20 -19q-19 24 -47 24q-48 0 -48 -66v-307h159v311q0 43 21.5 66t56.5 23
q43 0 67 -32l-20 -19q-19 24 -47 24q-48 0 -48 -66v-307h189v-457q0 -39 -19 -60t-53 -21q-27 0 -46 16l15 22q14 -11 31 -11q42 0 42 57v428h-159z" />
    <glyph glyph-name="ffk" unicode="ffk" horiz-adv-x="725" 
d="M540 155l-55 -63v-92h-30v596q0 95 -79 95q-80 0 -80 -95v-278h83v-26h-83v-292h-30v292h-159v-292h-30v292h-45v26h45v311q0 43 21.5 66t56.5 23q43 0 67 -32l-20 -19q-19 24 -47 24q-48 0 -48 -66v-307h159v282q0 56 31 87t79 31q49 0 79 -30.5t30 -87.5v-468l163 186
h35l-124 -141l151 -177h-38z" />
    <glyph glyph-name=".notdef" horiz-adv-x="500" 
 />
    <glyph glyph-name=".notdef" horiz-adv-x="500" 
 />
    <glyph glyph-name=".null" horiz-adv-x="0" 
 />
    <glyph glyph-name="nonmarkingreturn" horiz-adv-x="333" 
 />
    <glyph glyph-name="CR" unicode="&#xd;" horiz-adv-x="182" 
 />
    <glyph glyph-name="space" unicode=" " horiz-adv-x="182" 
 />
    <glyph glyph-name="exclam" unicode="!" horiz-adv-x="202" 
d="M85 157v523h32v-523h-32zM101 -6q-11 0 -19.5 8t-8.5 20t8.5 20t19.5 8t19.5 -8t8.5 -20t-8.5 -20t-19.5 -8z" />
    <glyph glyph-name="quotedbl" unicode="&#x22;" horiz-adv-x="211" 
d="M140 534l-5 146h34l-5 -146h-24zM47 534l-5 146h34l-5 -146h-24z" />
    <glyph glyph-name="numbersign" unicode="#" horiz-adv-x="406" 
d="M133 355h-83v26h89l30 119h28l-30 -119h116l30 119h28l-30 -119h75v-26h-81l-33 -132h84v-26h-91l-28 -113h-28l28 113h-116l-28 -113h-28l28 113h-73v26h80zM277 355h-116l-33 -132h116z" />
    <glyph glyph-name="dollar" unicode="$" horiz-adv-x="400" 
d="M178 -7q-59 4 -101.5 34t-59.5 79l27 11q36 -91 134 -97v232l-14 4q-59 17 -89.5 47t-30.5 85q0 53 39.5 85.5t94.5 34.5v94h29v-95q90 -9 127 -85l-24 -12q-33 64 -103 70v-206l23 -7q69 -21 100.5 -54t31.5 -88q0 -57 -42.5 -93t-112.5 -39v-109h-29v109zM178 481
q-45 -2 -74.5 -25t-29.5 -68q0 -46 22.5 -67.5t74.5 -36.5l7 -2v199zM207 19q56 3 90.5 31.5t34.5 74.5q0 48 -25 72t-85 42l-15 4v0v0v0v-1v0v0v-1v0v-1v0v-1v0v-1v-1v-1v-1v-1v-1v-1v-1v-1v-1v-1v-1v-1v-1v-1v-1v-1v-1v-1v-1v-1v-1v-1v-1v-1v-1v-1v-1v-1v-1v-1v-1v-1v-1
v-1v-1v-1v-1v-1v-1v-1v-1v-1v-2v-1v-1v-1v-1v-1v-1v-2v-1v-1v-1v-1v-2v-1v-1v-1v-2v-1v-1v-1v-2v-1v-1v-2v-1v-1v-2v-1v-1v-2v-1v-1v-2v-1v-1v-2v-1v-2v-1v-2v-1v-1v-2v-1v-2v-1v-2v-1v-2v-1v-2v-1v-2v-1v-2v-1v-2v-1v-2v-1v-2v-2v-1v-2v-1v-2v-2v-1v-2v-1v-2v-2v-1v-2v-1
v-2v-2v-1v-2v-2v-1v-2v-2v-2v-1v-2v-2v-1v-2v-2v-2v-1v-2v-2v-2v-1v-2v-2v-2v-1v-2v-2v-2v-2v-1v-2v-2v-2v-2v-1v-2v-9z" />
    <glyph glyph-name="percent" unicode="%" horiz-adv-x="697" 
d="M172 226q-57 0 -99 40.5t-42 100.5t42 100.5t99 40.5t99 -40.5t42 -100.5t-42 -100.5t-99 -40.5zM178 0l309 500h32l-309 -500h-32zM525 -8q-57 0 -99 40.5t-42 100.5t42 100.5t99 40.5t99 -40.5t42 -100.5t-42 -100.5t-99 -40.5zM172 253q47 0 79 32t32 82t-32 82
t-79 32t-79 -32t-32 -82t32 -82t79 -32zM525 19q47 0 79 32t32 82t-32 82t-79 32t-79 -32t-32 -82t32 -82t79 -32z" />
    <glyph glyph-name="ampersand" unicode="&#x26;" horiz-adv-x="626" 
d="M275 395l181 -216q30 79 30 193h30q0 -126 -39 -218l129 -154h-40l-104 124q-73 -132 -219 -132q-84 0 -142.5 49.5t-58.5 130.5q0 29 6.5 54.5t23 47.5t29.5 37t41.5 34.5t41.5 27.5t47 28l-26 30q-55 65 -55 129q0 56 36.5 92t92.5 36q54 0 87.5 -37t33.5 -91
q0 -87 -125 -165zM257 416q112 70 112 144q0 44 -25 71.5t-65 27.5q-43 0 -70.5 -27t-27.5 -72q0 -54 45 -107zM442 148l-193 231q-89 -53 -117 -79q-58 -53 -58 -128q0 -68 49 -109.5t120 -41.5q136 0 199 127z" />
    <glyph glyph-name="quotesingle" unicode="'" horiz-adv-x="118" 
d="M47 534l-5 146h34l-5 -146h-24z" />
    <glyph glyph-name="parenleft" unicode="(" horiz-adv-x="254" 
d="M203 -136q-163 177 -163 427t163 427l21 -19q-152 -172 -152 -408t152 -408z" />
    <glyph glyph-name="parenright" unicode=")" horiz-adv-x="254" 
d="M51 -136l-21 19q152 172 152 408t-152 408l21 19q163 -177 163 -427t-163 -427z" />
    <glyph glyph-name="asterisk" unicode="*" horiz-adv-x="344" 
d="M157 446l5 100l-80 -52l-14 26l84 43l-84 43l14 26l80 -52l-5 100h30l-5 -100l80 52l14 -26l-84 -43l84 -43l-14 -26l-80 52l5 -100h-30z" />
    <glyph glyph-name="plus" unicode="+" horiz-adv-x="312" 
d="M171 229v-113h-30v113h-102v28h102v113h30v-113h102v-28h-102z" />
    <glyph glyph-name="comma" unicode="," 
d="M44 -70l18 66q-19 4 -19 26q0 12 8.5 20t19.5 8t19.5 -8t8.5 -20q0 -8 -3 -14l-33 -78h-19z" />
    <glyph glyph-name="hyphen" unicode="-" horiz-adv-x="222" 
d="M39 160v26h144v-26h-144z" />
    <glyph glyph-name="hyphen" unicode="&#xad;" horiz-adv-x="222" 
d="M39 160v26h144v-26h-144z" />
    <glyph glyph-name="period" unicode="." 
d="M71 -6q-11 0 -19.5 8t-8.5 20t8.5 20t19.5 8t19.5 -8t8.5 -20t-8.5 -20t-19.5 -8z" />
    <glyph glyph-name="slash" unicode="/" horiz-adv-x="403" 
d="M13 -128l310 838h32l-310 -838h-32z" />
    <glyph glyph-name="zero" unicode="0" horiz-adv-x="596" 
d="M298 -8q-108 0 -183.5 74t-75.5 184t75.5 184t183.5 74t183.5 -74t75.5 -184t-75.5 -184t-183.5 -74zM298 20q97 0 162 65.5t65 164.5t-65 164.5t-162 65.5t-162 -65.5t-65 -164.5t65 -164.5t162 -65.5z" />
    <glyph glyph-name="one" unicode="1" horiz-adv-x="246" 
d="M126 0v472h-89v28h120v-500h-31z" />
    <glyph glyph-name="two" unicode="2" horiz-adv-x="408" 
d="M20 0v4l174 166q30 29 47 46.5t40.5 46t34.5 54.5t11 52q0 57 -34 84t-83 27q-96 0 -130 -104l-27 9q17 58 59.5 90.5t97.5 32.5q59 0 103.5 -35t44.5 -104q0 -28 -12 -57.5t-37 -60t-45 -51t-53 -51.5l-130 -122h288v-27h-349z" />
    <glyph glyph-name="three" unicode="3" horiz-adv-x="415" 
d="M194 -8q-59 0 -107.5 29.5t-70.5 80.5l27 13q46 -95 151 -95q64 0 104.5 39t40.5 104q0 66 -39 104t-108 38q-34 0 -72 -16l-2 3l170 181h-238v27h295v-4l-154 -165q80 2 130 -44.5t50 -123.5t-50.5 -124t-126.5 -47z" />
    <glyph glyph-name="four" unicode="4" horiz-adv-x="438" 
d="M338 130h69v-27h-69v-103h-30v103h-290v4l316 405h4v-382zM308 130v307l-237 -307h237z" />
    <glyph glyph-name="five" unicode="5" horiz-adv-x="418" 
d="M198 -8q-58 0 -101.5 23.5t-65.5 60.5l25 17q42 -73 142 -73q63 0 102.5 41t39.5 107q0 67 -38.5 107t-109.5 40q-74 0 -129 -47l-3 1v231h273v-27h-244v-158q43 28 103 28q81 0 130.5 -48.5t49.5 -126.5t-49 -127t-125 -49z" />
    <glyph glyph-name="six" unicode="6" horiz-adv-x="431" 
d="M216 -8q-75 0 -126 49.5t-51 122.5q0 55 51 129l143 207h34l-131 -190q33 27 85 27q72 0 121.5 -50t49.5 -123q0 -72 -50.5 -122t-125.5 -50zM216 20q64 0 104 40.5t40 103.5q0 66 -38.5 105.5t-103.5 39.5q-64 0 -105.5 -43t-41.5 -102q0 -63 40 -103.5t105 -40.5z" />
    <glyph glyph-name="seven" unicode="7" horiz-adv-x="406" 
d="M95 0l246 473h-307v27h352v-4l-258 -496h-33z" />
    <glyph glyph-name="eight" unicode="8" horiz-adv-x="422" 
d="M148 291q-64 31 -64 101q0 49 36 82.5t91 33.5t91 -33.5t36 -82.5q0 -70 -64 -101q50 -16 80 -54.5t30 -89.5q0 -66 -48 -110.5t-125 -44.5t-125 44.5t-48 110.5q0 51 30 89.5t80 54.5zM211 302q43 0 69.5 24.5t26.5 64.5t-27 65t-69 25t-69 -25t-27 -65t26.5 -64.5
t69.5 -24.5zM211 19q61 0 101 36.5t40 92.5q0 57 -38.5 92.5t-102.5 35.5t-102.5 -35.5t-38.5 -92.5q0 -56 40 -92.5t101 -36.5z" />
    <glyph glyph-name="nine" unicode="9" horiz-adv-x="431" 
d="M164 0l131 190q-33 -27 -85 -27q-72 0 -121.5 50t-49.5 123q0 72 50.5 122t125.5 50t126 -49.5t51 -122.5q0 -55 -51 -129l-143 -207h-34zM213 191q64 0 105.5 43t41.5 102q0 63 -40 103.5t-105 40.5q-64 0 -104 -40.5t-40 -103.5q0 -66 38.5 -105.5t103.5 -39.5z" />
    <glyph glyph-name="colon" unicode=":" horiz-adv-x="146" 
d="M73 222q-11 0 -19.5 8t-8.5 20t8.5 20t19.5 8t19.5 -8t8.5 -20t-8.5 -20t-19.5 -8zM73 -6q-11 0 -19.5 8t-8.5 20t8.5 20t19.5 8t19.5 -8t8.5 -20t-8.5 -20t-19.5 -8z" />
    <glyph glyph-name="semicolon" unicode=";" horiz-adv-x="146" 
d="M73 222q-11 0 -19.5 8t-8.5 20t8.5 20t19.5 8t19.5 -8t8.5 -20t-8.5 -20t-19.5 -8zM46 -70l18 66q-19 4 -19 26q0 12 8.5 20t19.5 8t19.5 -8t8.5 -20q0 -8 -3 -14l-33 -78h-19z" />
    <glyph glyph-name="semicolon" unicode="&#x37e;" horiz-adv-x="146" 
d="M73 222q-11 0 -19.5 8t-8.5 20t8.5 20t19.5 8t19.5 -8t8.5 -20t-8.5 -20t-19.5 -8zM46 -70l18 66q-19 4 -19 26q0 12 8.5 20t19.5 8t19.5 -8t8.5 -20q0 -8 -3 -14l-33 -78h-19z" />
    <glyph glyph-name="less" unicode="&#x3c;" horiz-adv-x="312" 
d="M273 119l-241 123v4l241 121v-31l-185 -93l185 -93v-31z" />
    <glyph glyph-name="equal" unicode="=" horiz-adv-x="312" 
d="M39 279v28h234v-28h-234zM39 179v28h234v-28h-234z" />
    <glyph glyph-name="greater" unicode="&#x3e;" horiz-adv-x="312" 
d="M39 119v31l185 93l-185 93v31l241 -123v-4z" />
    <glyph glyph-name="question" unicode="?" horiz-adv-x="436" 
d="M176 157v201h24q68 0 110 43.5t42 107.5q0 73 -40 112t-107 39q-99 0 -150 -97l-24 14q55 111 174 111q81 0 129.5 -49t48.5 -130q0 -74 -51 -125.5t-128 -52.5v-174h-28zM190 -6q-11 0 -19.5 8t-8.5 20t8.5 20t19.5 8t19.5 -8t8.5 -20t-8.5 -20t-19.5 -8z" />
    <glyph glyph-name="at" unicode="@" horiz-adv-x="710" 
d="M355 -172q-134 0 -224.5 95t-90.5 231t90.5 230.5t224.5 94.5q138 0 226.5 -91.5t88.5 -221.5q0 -85 -33 -131.5t-81 -46.5q-38 0 -61.5 22.5t-28.5 60.5q-38 -79 -121 -79q-62 0 -104.5 45.5t-42.5 111.5t42.5 112.5t104.5 46.5q83 0 119 -77v69h30v-206q0 -79 62 -79
q37 0 60.5 39t23.5 112q0 119 -78.5 202.5t-206.5 83.5q-124 0 -204.5 -87t-80.5 -211q0 -125 80.5 -212t204.5 -87q78 0 139 38l14 -23q-68 -42 -153 -42zM345 18q50 0 85 38.5t35 92.5q0 55 -35 94t-85 39t-83 -39t-33 -94q0 -54 33 -92.5t83 -38.5z" />
    <glyph glyph-name="A" unicode="A" horiz-adv-x="636" 
d="M125 137l-54 -137h-32l277 697h4l277 -697h-33l-54 137h-385zM499 165l-181 458l-182 -458h363z" />
    <glyph glyph-name="B" unicode="B" horiz-adv-x="594" 
d="M99 0v680h207q88 0 136.5 -45t48.5 -116q0 -103 -91 -142q70 -17 110 -66t40 -118q0 -84 -55 -138.5t-157 -54.5h-239zM131 386h192q69 0 102.5 36.5t33.5 96.5t-39 96.5t-117 36.5h-172v-266zM131 28h202q92 0 138.5 45.5t46.5 119.5t-47.5 119.5t-137.5 45.5h-202v-330
z" />
    <glyph glyph-name="C" unicode="C" horiz-adv-x="709" 
d="M392 -8q-148 0 -248.5 98.5t-99.5 249.5t99 249.5t243 98.5q162 0 264 -124l-24 -18q-91 113 -240 113q-132 0 -220.5 -91t-88.5 -228t90 -228t225 -91q79 0 144.5 33t109.5 91l24 -18q-49 -64 -121 -99.5t-157 -35.5z" />
    <glyph glyph-name="D" unicode="D" horiz-adv-x="660" 
d="M99 0v680h152q168 0 264 -93.5t96 -246.5q0 -154 -95.5 -247t-264.5 -93h-152zM131 29h115q161 0 246.5 84.5t85.5 226.5t-85.5 226.5t-246.5 84.5h-115v-622z" />
    <glyph glyph-name="E" unicode="E" horiz-adv-x="557" 
d="M99 0v680h392v-28h-360v-387h323v-28h-323v-209h374v-28h-406z" />
    <glyph glyph-name="F" unicode="F" horiz-adv-x="542" 
d="M99 0v680h392v-28h-360v-387h327v-28h-327v-237h-32z" />
    <glyph glyph-name="G" unicode="G" horiz-adv-x="725" 
d="M393 -8q-147 0 -248 99t-101 249q0 149 100 248.5t242 99.5q159 0 254 -106l-23 -21q-86 98 -231 98q-132 0 -220.5 -91t-88.5 -228t90.5 -228t225.5 -91q152 0 241 84v132h-224v28h256v-172q-109 -101 -273 -101z" />
    <glyph glyph-name="H" unicode="H" horiz-adv-x="668" 
d="M537 265v415h32v-680h-32v237h-406v-237h-32v680h32v-415h406z" />
    <glyph glyph-name="I" unicode="I" horiz-adv-x="238" 
d="M103 0v680h32v-680h-32z" />
    <glyph glyph-name="J" unicode="J" horiz-adv-x="450" 
d="M193 -8q-102 0 -155 89l25 17q42 -77 130 -77q61 0 97 35t36 105v519h32v-521q0 -81 -46 -124t-119 -43z" />
    <glyph glyph-name="K" unicode="K" horiz-adv-x="568" 
d="M131 247l341 433h37l-265 -337l289 -343h-41l-268 320l-93 -117v-203h-32v680h32v-433z" />
    <glyph glyph-name="L" unicode="L" horiz-adv-x="494" 
d="M99 0v680h32v-652h329v-28h-361z" />
    <glyph glyph-name="M" unicode="M" horiz-adv-x="826" 
d="M99 0v694h4l310 -407l310 407h4v-694h-30v610l-284 -369h-3l-281 369v-610h-30z" />
    <glyph glyph-name="N" unicode="N" horiz-adv-x="707" 
d="M604 -17l-476 632v-615h-29v697h4l476 -632v615h29v-697h-4z" />
    <glyph glyph-name="O" unicode="O" horiz-adv-x="784" 
d="M392 -8q-146 0 -247 99.5t-101 248.5t101 248.5t247 99.5t247 -99.5t101 -248.5t-101 -248.5t-247 -99.5zM392 21q135 0 225 91t90 228t-90 228t-225 91t-225 -91t-90 -228t90 -228t225 -91z" />
    <glyph glyph-name="P" unicode="P" horiz-adv-x="548" 
d="M131 177v-177h-32v680h123q132 0 202 -71t70 -181t-70 -180.5t-202 -70.5h-91zM131 205h87q125 0 184.5 61.5t59.5 161.5t-59.5 162t-184.5 62h-87v-447z" />
    <glyph glyph-name="Q" unicode="Q" horiz-adv-x="784" 
d="M407 -8v-116h-30v116q-141 6 -237 104.5t-96 243.5q0 149 101 248.5t247 99.5t247 -99.5t101 -248.5q0 -145 -96 -243.5t-237 -104.5zM377 21v137h30v-137q130 6 215 96t85 223q0 137 -90 228t-225 91t-225 -91t-90 -228q0 -133 85 -223t215 -96z" />
    <glyph glyph-name="R" unicode="R" horiz-adv-x="560" 
d="M320 188l158 -188h-40l-152 181q-36 -4 -59 -4h-96v-177h-32v680h128q131 0 201.5 -71t70.5 -181q0 -87 -46 -152t-133 -88zM131 205h92q124 0 184 62t60 161t-61 161.5t-183 62.5h-92v-447z" />
    <glyph glyph-name="S" unicode="S" horiz-adv-x="521" 
d="M35 125l27 15q30 -56 81 -87.5t116 -31.5q80 0 125.5 38.5t45.5 102.5q0 60 -33 99t-111 76l-62 30q-80 39 -114 74.5t-34 96.5q0 67 47 108.5t117 41.5q118 0 178 -96l-24 -14q-51 82 -154 82q-58 0 -95.5 -34.5t-37.5 -87.5q0 -52 28.5 -80.5t102.5 -64.5l61 -30
q87 -43 124.5 -88t37.5 -113q0 -77 -54 -123.5t-148 -46.5q-153 0 -224 133z" />
    <glyph glyph-name="T" unicode="T" horiz-adv-x="520" 
d="M244 0v652h-218v28h468v-28h-218v-652h-32z" />
    <glyph glyph-name="U" unicode="U" horiz-adv-x="634" 
d="M316 -8q-99 0 -161.5 61t-62.5 171v456h32v-453q0 -98 52.5 -152.5t139.5 -54.5t140.5 54.5t53.5 152.5v453h32v-456q0 -110 -63 -171t-163 -61z" />
    <glyph glyph-name="V" unicode="V" horiz-adv-x="636" 
d="M316 -17l-277 697h33l247 -625l247 625h31l-277 -697h-4z" />
    <glyph glyph-name="W" unicode="W" horiz-adv-x="935" 
d="M248 -17l-212 697h32l184 -611l214 628h4l214 -628l184 611h31l-212 -697h-4l-215 629l-216 -629h-4z" />
    <glyph glyph-name="X" unicode="X" horiz-adv-x="606" 
d="M286 367l-203 313h35q185 -285 185 -286l187 286h33l-203 -311l240 -369h-35q-222 342 -223 342l-223 -342h-33z" />
    <glyph glyph-name="Y" unicode="Y" horiz-adv-x="612" 
d="M290 210l-258 470h34l240 -438l241 438h33l-258 -470v0v0v0v-1v0v0v-1v0v-1v0v-1v-1v-1v-1v-1v-1v-1v-1v-1v-1v-1v-1v-1v-1v-1v-1v-1v-1v-1v-1v-1v-1v-1v-1v-1v-1v-1v-1v-1v-1v-2v-1v-1v-1v-1v-1v-1v-1v-1v-1v-1v-1v-2v-1v-1v-1v-1v-1v-2v-1v-1v-1v-1v-2v-1v-1v-1v-2v-1
v-1v-2v-1v-1v-2v-1v-1v-2v-1v-1v-2v-1v-1v-2v-1v-2v-1v-1v-2v-1v-2v-1v-2v-1v-2v-1v-2v-1v-2v-1v-2v-1v-2v-1v-2v-1v-2v-1v-2v-2v-1v-2v-1v-2v-2v-1v-2v-2v-1v-2v-1v-2v-2v-1v-2v-2v-1v-2v-2v-2v-1v-2v-2v-1v-2v-2v-2v-1v-2v-2v-2v-2v-1v-2v-2v-2v-2v-1v-2v-2v-2v-2v-1v-2
v-10h-32v210z" />
    <glyph glyph-name="Z" unicode="Z" horiz-adv-x="564" 
d="M35 0v3l426 649h-382v28h433v-3l-426 -649h440v-28h-491z" />
    <glyph glyph-name="bracketleft" unicode="[" horiz-adv-x="265" 
d="M84 -128v838h141v-27h-110v-784h110v-27h-141z" />
    <glyph glyph-name="backslash" unicode="\" horiz-adv-x="403" 
d="M358 -128l-310 838h32l310 -838h-32z" />
    <glyph glyph-name="bracketright" unicode="]" horiz-adv-x="265" 
d="M40 -128v27h110v784h-110v27h141v-838h-141z" />
    <glyph glyph-name="asciicircum" unicode="^" horiz-adv-x="262" 
d="M39 237v28h184v-28h-184z" />
    <glyph glyph-name="underscore" unicode="_" horiz-adv-x="240" 
d="M-2 -128v26h244v-26h-244z" />
    <glyph glyph-name="grave" unicode="`" horiz-adv-x="500" 
d="M240 376l-68 132h33l60 -132h-25z" />
    <glyph glyph-name="a" unicode="a" horiz-adv-x="360" 
d="M274 190v12q0 98 -89 98q-66 0 -101 -55l-22 15q44 66 123 66q56 0 87.5 -30.5t31.5 -91.5v-204h-30v42q-36 -50 -109 -50q-54 0 -89 26.5t-35 74.5t36 72.5t89 24.5h108zM274 164h-104q-43 0 -71 -17t-28 -54q0 -74 98 -74q43 0 74 22.5t31 64.5v58z" />
    <glyph glyph-name="b" unicode="b" horiz-adv-x="418" 
d="M221 -8q-88 0 -130 77v-69h-30v710h30v-461q42 77 130 77q70 0 116.5 -48t46.5 -119t-46.5 -119t-116.5 -48zM221 19q58 0 95 39.5t37 100.5t-37 100.5t-95 39.5t-95 -39.5t-37 -100.5t37 -100.5t95 -39.5z" />
    <glyph glyph-name="c" unicode="c" horiz-adv-x="349" 
d="M194 -8q-68 0 -114 48.5t-46 118.5q0 71 46.5 119t114.5 48q74 0 119 -48l-21 -18q-36 40 -98 40q-57 0 -93.5 -40t-36.5 -101t36 -101t93 -40q70 0 109 46l21 -18q-45 -54 -130 -54z" />
    <glyph glyph-name="d" unicode="d" horiz-adv-x="419" 
d="M197 -8q-70 0 -116.5 48t-46.5 119t46.5 119t116.5 48q88 0 130 -77v461h30v-710h-30v69q-42 -77 -130 -77zM197 19q58 0 95 39.5t37 100.5t-37 100.5t-95 39.5t-95 -39.5t-37 -100.5t37 -100.5t95 -39.5z" />
    <glyph glyph-name="e" unicode="e" horiz-adv-x="386" 
d="M65 153q2 -62 40.5 -98.5t95.5 -36.5q73 0 114 51l20 -18q-46 -59 -134 -59q-73 0 -120 48t-47 119q0 70 47 118.5t113 48.5q70 0 112.5 -48t44.5 -125h-286zM66 179h254q-6 54 -38 87.5t-88 33.5q-52 0 -87 -34t-41 -87z" />
    <glyph glyph-name="f" unicode="f" horiz-adv-x="222" 
d="M107 292v-292h-30v292h-45v26h45v311q0 43 21.5 66t56.5 23q43 0 67 -32l-20 -19q-19 24 -47 24q-48 0 -48 -66v-307h83v-26h-83z" />
    <glyph glyph-name="g" unicode="g" horiz-adv-x="341" 
d="M213 318h114v-26h-74q39 -37 39 -89q0 -53 -36 -88t-88 -35q-34 0 -60 15q-39 -6 -39 -34q0 -21 20 -30.5t87 -11.5q82 -3 123 -34.5t41 -82.5q0 -57 -49 -91t-121 -34q-73 0 -118.5 31.5t-45.5 88.5q0 81 91 106q-55 8 -55 57q0 19 12 32.5t31 18.5q-41 36 -41 92
q0 53 36 88t88 35q23 0 45 -8zM168 105q42 0 68.5 27.5t26.5 70.5t-26.5 70.5t-68.5 27.5t-68.5 -27.5t-26.5 -70.5t26.5 -70.5t68.5 -27.5zM170 -197q60 0 100 26t40 73q0 89 -143 89q-66 0 -99 -26t-33 -68q0 -46 37 -70t98 -24z" />
    <glyph glyph-name="h" unicode="h" horiz-adv-x="389" 
d="M61 0v710h30v-452q40 68 118 68q55 0 89.5 -32.5t34.5 -95.5v-198h-30v193q0 106 -95 106q-52 0 -84.5 -32t-32.5 -86v-181h-30z" />
    <glyph glyph-name="i" unicode="i" horiz-adv-x="158" 
d="M79 460q-10 0 -17.5 7.5t-7.5 17.5t7.5 17.5t17.5 7.5t17.5 -7.5t7.5 -17.5t-7.5 -17.5t-17.5 -7.5zM64 0v318h30v-318h-30z" />
    <glyph glyph-name="j" unicode="j" horiz-adv-x="158" 
d="M79 460q-10 0 -17.5 7.5t-7.5 17.5t7.5 17.5t17.5 7.5t17.5 -7.5t7.5 -17.5t-7.5 -17.5t-17.5 -7.5zM22 -220q-27 0 -46 16l15 22q14 -11 31 -11q42 0 42 57v454h30v-457q0 -39 -19 -60t-53 -21z" />
    <glyph glyph-name="k" unicode="k" horiz-adv-x="331" 
d="M91 92v-92h-30v710h30v-578l163 186h35l-124 -141l151 -177h-38l-132 155z" />
    <glyph glyph-name="l" unicode="l" horiz-adv-x="158" 
d="M64 0v710h30v-710h-30z" />
    <glyph glyph-name="m" unicode="m" horiz-adv-x="571" 
d="M61 0v318h30v-49q12 26 38.5 41.5t60.5 15.5q73 0 103 -64q35 64 110 64q48 0 80 -30.5t32 -84.5v-211h-30v206q0 45 -22 69t-60 24q-47 0 -73.5 -27t-26.5 -76v-196h-30v205q0 46 -21.5 70t-61.5 24q-46 0 -72.5 -27.5t-26.5 -78.5v-193h-30z" />
    <glyph glyph-name="n" unicode="n" horiz-adv-x="389" 
d="M61 0v318h30v-60q16 32 47.5 50t70.5 18q55 0 89.5 -32.5t34.5 -95.5v-198h-30v193q0 106 -95 106q-52 0 -84.5 -32t-32.5 -86v-181h-30z" />
    <glyph glyph-name="o" unicode="o" horiz-adv-x="396" 
d="M198 -8q-68 0 -116 48.5t-48 118.5t48 118.5t116 48.5t116 -48.5t48 -118.5t-48 -118.5t-116 -48.5zM198 18q57 0 95 40.5t38 100.5t-38 100.5t-95 40.5t-95 -40.5t-38 -100.5t38 -100.5t95 -40.5z" />
    <glyph glyph-name="p" unicode="p" horiz-adv-x="418" 
d="M61 -212v530h30v-69q42 77 130 77q70 0 116.5 -48t46.5 -119t-46.5 -119t-116.5 -48q-88 0 -130 77v-281h-30zM221 19q58 0 95 39.5t37 100.5t-37 100.5t-95 39.5t-95 -39.5t-37 -100.5t37 -100.5t95 -39.5z" />
    <glyph glyph-name="q" unicode="q" horiz-adv-x="419" 
d="M327 -212v281q-42 -77 -130 -77q-70 0 -116.5 48t-46.5 119t46.5 119t116.5 48q88 0 130 -77v69h30v-530h-30zM197 19q58 0 95 39.5t37 100.5t-37 100.5t-95 39.5t-95 -39.5t-37 -100.5t37 -100.5t95 -39.5z" />
    <glyph glyph-name="r" unicode="r" horiz-adv-x="249" 
d="M61 0v318h30v-56q33 64 95 64q29 0 49 -11l-11 -25q-13 8 -40 8q-38 0 -65.5 -33t-27.5 -81v-184h-30z" />
    <glyph glyph-name="s" unicode="s" horiz-adv-x="310" 
d="M163 -8q-96 0 -131 79l26 11q27 -64 105 -64q36 0 58 16.5t22 45.5t-21.5 44.5t-70.5 31.5q-51 17 -74 36t-23 56q0 35 26 56.5t68 21.5q70 0 100 -56l-25 -13q-25 43 -75 43q-29 0 -47 -14t-18 -38q0 -14 4.5 -24t17 -17.5t22 -11.5t31.5 -11q59 -19 87 -40t28 -63
t-30.5 -65.5t-79.5 -23.5z" />
    <glyph glyph-name="t" unicode="t" horiz-adv-x="231" 
d="M77 292h-45v26h45v191h30v-191h83v-26h-83v-223q0 -50 40 -50q21 0 41 16l15 -22q-23 -21 -56 -21t-51.5 20t-18.5 53v227z" />
    <glyph glyph-name="u" unicode="u" horiz-adv-x="389" 
d="M180 -8q-57 0 -90.5 32t-33.5 96v198h30v-193q0 -106 95 -106q52 0 84.5 32t32.5 86v181h30v-318h-30v60q-16 -32 -47.5 -50t-70.5 -18z" />
    <glyph glyph-name="v" unicode="v" horiz-adv-x="330" 
d="M167 -12l-151 330h32l121 -268l115 268h30l-143 -330h-4z" />
    <glyph glyph-name="w" unicode="w" horiz-adv-x="517" 
d="M142 -12l-126 330h32l98 -262l111 274h3l113 -273l98 261h30l-126 -330h-4l-112 273l-113 -273h-4z" />
    <glyph glyph-name="x" unicode="x" horiz-adv-x="343" 
d="M154 172l-105 146h35l88 -122l89 122h33l-105 -145l125 -173h-35l-108 150l-109 -150h-33z" />
    <glyph glyph-name="y" unicode="y" horiz-adv-x="325" 
d="M151 21l-135 297h33q117 -260 117 -261l112 261h31l-227 -530h-31z" />
    <glyph glyph-name="z" unicode="z" horiz-adv-x="318" 
d="M29 0v3l207 289h-184v26h235v-3l-207 -289h206v-26h-257z" />
    <glyph glyph-name="braceleft" unicode="{" horiz-adv-x="310" 
d="M251 -128q-118 0 -118 145v148q0 41 -15 57t-45 16h-47v27h47q30 0 45 16t15 56v228q0 145 118 145h19v-27h-19q-43 0 -65 -26t-22 -92v-228q0 -71 -50 -85q50 -12 50 -87v-148q0 -66 22 -92t65 -26h19v-27h-19z" />
    <glyph glyph-name="bar" unicode="|" horiz-adv-x="217" 
d="M93 -128v838h31v-838h-31z" />
    <glyph glyph-name="braceright" unicode="}" horiz-adv-x="310" 
d="M40 -128v27h19q43 0 65 26t22 92v149q0 71 50 85q-50 13 -50 87v227q0 66 -22 92t-65 26h-19v27h19q118 0 118 -145v-227q0 -41 15 -57t45 -16h47v-27h-47q-30 0 -45 -16t-15 -56v-149q0 -145 -118 -145h-19z" />
    <glyph glyph-name="asciitilde" unicode="~" horiz-adv-x="326" 
d="M216 226q-22 0 -57.5 22t-49.5 22q-26 0 -38 -42l-26 5q12 66 65 66q22 0 57.5 -22t49.5 -22q26 0 38 42l26 -5q-12 -66 -65 -66z" />
    <glyph glyph-name="nbspace" unicode="&#xa0;" horiz-adv-x="182" 
 />
    <glyph glyph-name="exclamdown" unicode="&#xa1;" horiz-adv-x="202" 
d="M101 630q-11 0 -19.5 8t-8.5 20t8.5 20t19.5 8t19.5 -8t8.5 -20t-8.5 -20t-19.5 -8zM85 0v523h32v-523h-32z" />
    <glyph glyph-name="cent" unicode="&#xa2;" horiz-adv-x="345" 
d="M174 -7q-60 8 -100 54.5t-40 111.5t39.5 111t100.5 54v100h29v-98q69 -3 111 -48l-21 -18q-33 37 -90 40v-282q64 3 100 46l21 -18q-42 -51 -121 -54v-98h-29v99zM174 298q-49 -7 -79 -46t-30 -93q0 -55 30 -94t79 -46v279z" />
    <glyph glyph-name="sterling" unicode="&#xa3;" horiz-adv-x="428" 
d="M108 238h-72v27h60q-21 54 -21 99q0 63 42.5 103.5t112.5 40.5q107 0 156 -94l-26 -13q-40 79 -130 79q-58 0 -90.5 -32t-32.5 -85q0 -45 21 -98h164v-27h-153q38 -88 38 -151v-1q1 -1 17 -14.5t20 -16.5t18 -12.5t22.5 -12.5t21.5 -6.5t26 -3.5q53 0 90 44l22 -20
q-47 -52 -112 -52q-27 0 -53.5 11.5t-38.5 21t-38 31.5q-8 -27 -29 -45.5t-52 -18.5q-32 0 -53 18.5t-21 47.5t20.5 48t52.5 19q31 0 59 -18q-4 46 -41 131zM149 75q-31 24 -59 24q-19 0 -31.5 -11t-12.5 -30t12.5 -29.5t32.5 -10.5q25 0 39.5 17t18.5 40z" />
    <glyph glyph-name="yen" unicode="&#xa5;" horiz-adv-x="523" 
d="M240 168l-47 77h-136v27h119l-138 228h36l188 -313l188 313h35l-139 -228h114v-27h-130l-47 -77h177v-27h-183v-141h-31v141h-189v27h183z" />
    <glyph glyph-name="brokenbar" unicode="&#xa6;" 
d="M71 186q-11 0 -19.5 8t-8.5 20t8.5 20t19.5 8t19.5 -8t8.5 -20t-8.5 -20t-19.5 -8z" />
    <glyph glyph-name="section" unicode="&#xa7;" horiz-adv-x="469" 
d="M96 303q-17 29 -17 70q0 59 42 97t108 38q107 0 160 -90l-25 -14q-43 76 -135 76q-53 0 -86 -30t-33 -77t22.5 -71t73.5 -45l117 -47q115 -46 115 -134q0 -66 -73 -94q25 -31 25 -73q0 -56 -39.5 -91.5t-112.5 -35.5q-113 0 -178 78l22 19q61 -69 156 -69q58 0 89.5 27
t31.5 72q0 41 -25 66t-78 46l-114 46q-57 23 -84 54t-27 77q0 69 65 105zM348 0q60 21 60 76q0 38 -20.5 61.5t-74.5 45.5l-117 47q-60 24 -86 54q-49 -25 -49 -86q0 -39 21 -61.5t70 -42.5l114 -46q52 -20 82 -48z" />
    <glyph glyph-name="dieresis" unicode="&#xa8;" horiz-adv-x="500" 
d="M302 381q-9 0 -16.5 7t-7.5 17t7.5 17t16.5 7t16.5 -7t7.5 -17t-7.5 -17t-16.5 -7zM198 381q-9 0 -16.5 7t-7.5 17t7.5 17t16.5 7t16.5 -7t7.5 -17t-7.5 -17t-16.5 -7z" />
    <glyph glyph-name="copyright" unicode="&#xa9;" horiz-adv-x="600" 
d="M300 -8q-108 0 -183.5 74t-75.5 184t75.5 184t183.5 74t183.5 -74t75.5 -184t-75.5 -184t-183.5 -74zM300 19q98 0 163.5 66t65.5 165q0 100 -65.5 165.5t-163.5 65.5t-163.5 -65.5t-65.5 -165.5q0 -99 65.5 -165t163.5 -66zM298 83q-68 0 -114 48.5t-46 118.5
q0 71 46.5 119t114.5 48q72 0 119 -50l-22 -19q-37 42 -97 42q-56 0 -92 -40t-36 -100t35.5 -100t91.5 -40q67 0 108 48l22 -19q-47 -56 -130 -56z" />
    <glyph glyph-name="ordfeminine" unicode="&#xaa;" horiz-adv-x="324" 
d="M247 384v11q0 50 -20.5 69t-60.5 19q-54 0 -91 -50l-19 15q36 60 110 60q110 0 110 -109v-184h-29v38q-32 -45 -99 -45q-49 0 -80 23t-31 66t32 65t80 22h98zM247 359h-94q-87 0 -87 -62q0 -64 86 -64q39 0 67 19.5t28 57.5v49z" />
    <glyph glyph-name="guillemotleft" unicode="&#xab;" horiz-adv-x="277" 
d="M211 32l-77 123v4l77 121h34l-77 -123l77 -125h-34zM109 32l-77 123v4l77 121h34l-77 -123l77 -125h-34z" />
    <glyph glyph-name="logicalnot" unicode="&#xac;" 
d="M71 186q-11 0 -19.5 8t-8.5 20t8.5 20t19.5 8t19.5 -8t8.5 -20t-8.5 -20t-19.5 -8z" />
    <glyph glyph-name="registered" unicode="&#xae;" horiz-adv-x="371" 
d="M185 391q-63 0 -106.5 42.5t-43.5 105.5t43.5 106t106.5 43t107 -43t44 -106t-44 -105.5t-107 -42.5zM185 413q55 0 90.5 35t35.5 91t-35.5 91.5t-90.5 35.5t-90 -35.5t-35 -91.5t35 -91t90 -35zM214 503l35 -48h-28l-30 42q-4 -1 -14 -1h-20v-41h-24v171h44
q37 0 55.5 -18.5t18.5 -47.5q0 -40 -37 -57zM157 516h19q50 0 50 44q0 46 -50 46h-19v-90z" />
    <glyph glyph-name="macron" unicode="&#xaf;" horiz-adv-x="500" 
d="M176 383v26h148v-26h-148z" />
    <glyph glyph-name="macron" unicode="&#x2c9;" horiz-adv-x="500" 
d="M176 383v26h148v-26h-148z" />
    <glyph glyph-name="degree" unicode="&#xb0;" horiz-adv-x="303" 
d="M151 311q-41 0 -70 28.5t-29 68.5q0 41 29 69.5t70 28.5t69.5 -28.5t28.5 -69.5q0 -40 -28.5 -68.5t-69.5 -28.5zM151 336q31 0 50.5 20.5t19.5 51.5t-19.5 52t-50.5 21t-51 -21t-20 -52t20 -51.5t51 -20.5z" />
    <glyph glyph-name="twosuperior" unicode="&#xb2;" 
d="M71 186q-11 0 -19.5 8t-8.5 20t8.5 20t19.5 8t19.5 -8t8.5 -20t-8.5 -20t-19.5 -8z" />
    <glyph glyph-name="threesuperior" unicode="&#xb3;" 
d="M71 186q-11 0 -19.5 8t-8.5 20t8.5 20t19.5 8t19.5 -8t8.5 -20t-8.5 -20t-19.5 -8z" />
    <glyph glyph-name="acute" unicode="&#xb4;" horiz-adv-x="500" 
d="M235 376l60 132h33l-68 -132h-25z" />
    <glyph glyph-name="mu" unicode="&#xb5;" 
d="M71 186q-11 0 -19.5 8t-8.5 20t8.5 20t19.5 8t19.5 -8t8.5 -20t-8.5 -20t-19.5 -8z" />
    <glyph glyph-name="mu" unicode="&#x3bc;" 
d="M71 186q-11 0 -19.5 8t-8.5 20t8.5 20t19.5 8t19.5 -8t8.5 -20t-8.5 -20t-19.5 -8z" />
    <glyph glyph-name="paragraph" unicode="&#xb6;" horiz-adv-x="520" 
d="M299 338h-86q-76 0 -123.5 49t-47.5 122t47.5 122t123.5 49h239v-680h-32v652h-89v-652h-32v338zM299 366v286h-86q-66 0 -102 -40.5t-36 -102.5t36 -102.5t102 -40.5h86z" />
    <glyph glyph-name="periodcentered" unicode="&#xb7;" 
d="M71 186q-11 0 -19.5 8t-8.5 20t8.5 20t19.5 8t19.5 -8t8.5 -20t-8.5 -20t-19.5 -8z" />
    <glyph glyph-name="periodcentered" unicode="&#x2219;" 
d="M71 186q-11 0 -19.5 8t-8.5 20t8.5 20t19.5 8t19.5 -8t8.5 -20t-8.5 -20t-19.5 -8z" />
    <glyph glyph-name="cedilla" unicode="&#xb8;" horiz-adv-x="500" 
d="M254 -186q-53 0 -72 45l22 12q14 -32 50 -32q17 0 28.5 10t11.5 29q0 44 -49 44h-9v78h25v-55q26 -2 43.5 -20.5t17.5 -46.5q0 -30 -20 -47t-48 -17z" />
    <glyph glyph-name="onesuperior" unicode="&#xb9;" 
d="M71 186q-11 0 -19.5 8t-8.5 20t8.5 20t19.5 8t19.5 -8t8.5 -20t-8.5 -20t-19.5 -8z" />
    <glyph glyph-name="ordmasculine" unicode="&#xba;" horiz-adv-x="356" 
d="M178 208q-62 0 -104.5 43t-42.5 107t42.5 107t104.5 43t105 -43.5t43 -106.5t-43 -106.5t-105 -43.5zM178 232q51 0 84.5 36t33.5 90t-33.5 90t-84.5 36t-84.5 -36t-33.5 -90t33.5 -90t84.5 -36z" />
    <glyph glyph-name="guillemotright" unicode="&#xbb;" horiz-adv-x="277" 
d="M134 32l77 123l-77 125h34l77 -123v-4l-77 -121h-34zM32 32l77 123l-77 125h34l77 -123v-4l-77 -121h-34z" />
    <glyph glyph-name="onequarter" unicode="&#xbc;" 
d="M71 186q-11 0 -19.5 8t-8.5 20t8.5 20t19.5 8t19.5 -8t8.5 -20t-8.5 -20t-19.5 -8z" />
    <glyph glyph-name="onehalf" unicode="&#xbd;" 
d="M71 186q-11 0 -19.5 8t-8.5 20t8.5 20t19.5 8t19.5 -8t8.5 -20t-8.5 -20t-19.5 -8z" />
    <glyph glyph-name="threequarters" unicode="&#xbe;" 
d="M71 186q-11 0 -19.5 8t-8.5 20t8.5 20t19.5 8t19.5 -8t8.5 -20t-8.5 -20t-19.5 -8z" />
    <glyph glyph-name="questiondown" unicode="&#xbf;" horiz-adv-x="436" 
d="M246 630q-11 0 -19.5 8t-8.5 20t8.5 20t19.5 8t19.5 -8t8.5 -20t-8.5 -20t-19.5 -8zM231 -8q-81 0 -129.5 49t-48.5 130q0 74 51 125.5t128 52.5v174h28v-201h-24q-68 0 -110 -43.5t-42 -107.5q0 -73 40 -112t107 -39q99 0 150 97l24 -14q-55 -111 -174 -111z" />
    <glyph glyph-name="Agrave" unicode="&#xc0;" horiz-adv-x="636" 
d="M125 137l-54 -137h-32l277 697h4l277 -697h-33l-54 137h-385zM499 165l-181 458l-182 -458h363zM305 744l-68 132h33l60 -132h-25z" />
    <glyph glyph-name="Aacute" unicode="&#xc1;" horiz-adv-x="636" 
d="M125 137l-54 -137h-32l277 697h4l277 -697h-33l-54 137h-385zM499 165l-181 458l-182 -458h363zM307 744l60 132h33l-68 -132h-25z" />
    <glyph glyph-name="Acircumflex" unicode="&#xc2;" horiz-adv-x="636" 
d="M125 137l-54 -137h-32l277 697h4l277 -697h-33l-54 137h-385zM499 165l-181 458l-182 -458h363zM224 744l92 112h3l92 -112h-26l-67 70l-68 -70h-26z" />
    <glyph glyph-name="Atilde" unicode="&#xc3;" horiz-adv-x="636" 
d="M125 137l-54 -137h-32l277 697h4l277 -697h-33l-54 137h-385zM499 165l-181 458l-182 -458h363zM361 739q-21 0 -48 21t-39 21t-18 -9.5t-11 -30.5l-25 4q12 63 55 63q21 0 48 -21t39 -21t18 9.5t11 30.5l25 -4q-12 -63 -55 -63z" />
    <glyph glyph-name="Adieresis" unicode="&#xc4;" horiz-adv-x="636" 
d="M450 638q-9 0 -16.5 7t-7.5 17t7.5 17t16.5 7t16.5 -7t7.5 -17t-7.5 -17t-16.5 -7zM186 638q-9 0 -16.5 7t-7.5 17t7.5 17t16.5 7t16.5 -7t7.5 -17t-7.5 -17t-16.5 -7zM125 137l-54 -137h-32l277 697h4l277 -697h-33l-54 137h-385zM499 165l-181 458l-182 -458h363z" />
    <glyph glyph-name="Aring" unicode="&#xc5;" horiz-adv-x="636" 
d="M510 137h-385l-54 -137h-32l269 677q-26 3 -44 23t-18 47q0 29 21 50.5t51 21.5t51 -21.5t21 -50.5q0 -27 -17.5 -46.5t-44.5 -23.5l269 -677h-33zM318 700q20 0 32.5 13t12.5 34t-12.5 34.5t-32.5 13.5t-32.5 -13.5t-12.5 -34.5t12.5 -34t32.5 -13zM136 165h363
l-181 458z" />
    <glyph glyph-name="AE" unicode="&#xc6;" horiz-adv-x="916" 
d="M28 0l446 680h376v-28h-360v-387h323v-28h-323v-209h374v-28h-406v137h-306l-90 -137h-34zM170 165h288v439z" />
    <glyph glyph-name="Ccedilla" unicode="&#xc7;" horiz-adv-x="709" 
d="M373 -8q-142 7 -236 104.5t-93 243.5q1 151 99 249.5t243 98.5q162 0 264 -124l-24 -18q-91 113 -240 113q-132 0 -220.5 -91t-88.5 -228t90 -228t225 -91q79 0 144.5 33t109.5 91l24 -18q-48 -62 -118.5 -98t-153.5 -37v-47q26 -2 43.5 -20.5t17.5 -46.5q0 -30 -20 -47
t-48 -17q-53 0 -72 45l22 12q14 -32 50 -32q17 0 28.5 10t11.5 29q0 44 -49 44h-9v70z" />
    <glyph glyph-name="Egrave" unicode="&#xc8;" horiz-adv-x="557" 
d="M99 0v680h392v-28h-360v-387h323v-28h-323v-209h374v-28h-406zM293 744l-68 132h33l60 -132h-25z" />
    <glyph glyph-name="Eacute" unicode="&#xc9;" horiz-adv-x="557" 
d="M99 0v680h392v-28h-360v-387h323v-28h-323v-209h374v-28h-406zM283 744l60 132h33l-68 -132h-25z" />
    <glyph glyph-name="Ecircumflex" unicode="&#xca;" horiz-adv-x="557" 
d="M99 0v680h392v-28h-360v-387h323v-28h-323v-209h374v-28h-406zM206 744l92 112h3l92 -112h-26l-67 70l-68 -70h-26z" />
    <glyph glyph-name="Edieresis" unicode="&#xcb;" horiz-adv-x="557" 
d="M99 0v680h392v-28h-360v-387h323v-28h-323v-209h374v-28h-406zM349 749q-9 0 -16.5 7t-7.5 17t7.5 17t16.5 7t16.5 -7t7.5 -17t-7.5 -17t-16.5 -7zM245 749q-9 0 -16.5 7t-7.5 17t7.5 17t16.5 7t16.5 -7t7.5 -17t-7.5 -17t-16.5 -7z" />
    <glyph glyph-name="Igrave" unicode="&#xcc;" horiz-adv-x="238" 
d="M103 0v680h32v-680h-32zM109 744l-68 132h33l60 -132h-25z" />
    <glyph glyph-name="Iacute" unicode="&#xcd;" horiz-adv-x="238" 
d="M103 0v680h32v-680h-32zM104 744l60 132h33l-68 -132h-25z" />
    <glyph glyph-name="Icircumflex" unicode="&#xce;" horiz-adv-x="238" 
d="M103 0v680h32v-680h-32zM25 744l92 112h3l92 -112h-26l-67 70l-68 -70h-26z" />
    <glyph glyph-name="Idieresis" unicode="&#xcf;" horiz-adv-x="238" 
d="M103 0v680h32v-680h-32zM171 749q-9 0 -16.5 7t-7.5 17t7.5 17t16.5 7t16.5 -7t7.5 -17t-7.5 -17t-16.5 -7zM67 749q-9 0 -16.5 7t-7.5 17t7.5 17t16.5 7t16.5 -7t7.5 -17t-7.5 -17t-16.5 -7z" />
    <glyph glyph-name="Eth" unicode="&#xd0;" horiz-adv-x="655" 
d="M99 237h-78v28h78v415h152q168 0 264 -93.5t96 -246.5q0 -154 -95.5 -247t-264.5 -93h-152v237zM131 265h188v-28h-188v-208h115q161 0 246.5 84.5t85.5 226.5t-85.5 226.5t-246.5 84.5h-115v-386z" />
    <glyph glyph-name="Ntilde" unicode="&#xd1;" horiz-adv-x="707" 
d="M604 -17l-476 632v-615h-29v697h4l476 -632v615h29v-697h-4zM403 739q-21 0 -48 21t-39 21t-18 -9.5t-11 -30.5l-25 4q12 63 55 63q21 0 48 -21t39 -21t18 9.5t11 30.5l25 -4q-12 -63 -55 -63z" />
    <glyph glyph-name="Ograve" unicode="&#xd2;" horiz-adv-x="784" 
d="M392 -8q-146 0 -247 99.5t-101 248.5t101 248.5t247 99.5t247 -99.5t101 -248.5t-101 -248.5t-247 -99.5zM392 21q135 0 225 91t90 228t-90 228t-225 91t-225 -91t-90 -228t90 -228t225 -91zM382 744l-68 132h33l60 -132h-25z" />
    <glyph glyph-name="Oacute" unicode="&#xd3;" horiz-adv-x="784" 
d="M392 -8q-146 0 -247 99.5t-101 248.5t101 248.5t247 99.5t247 -99.5t101 -248.5t-101 -248.5t-247 -99.5zM392 21q135 0 225 91t90 228t-90 228t-225 91t-225 -91t-90 -228t90 -228t225 -91zM377 744l60 132h33l-68 -132h-25z" />
    <glyph glyph-name="Ocircumflex" unicode="&#xd4;" horiz-adv-x="784" 
d="M392 -8q-146 0 -247 99.5t-101 248.5t101 248.5t247 99.5t247 -99.5t101 -248.5t-101 -248.5t-247 -99.5zM392 21q135 0 225 91t90 228t-90 228t-225 91t-225 -91t-90 -228t90 -228t225 -91zM298 744l92 112h3l92 -112h-26l-67 70l-68 -70h-26z" />
    <glyph glyph-name="Otilde" unicode="&#xd5;" horiz-adv-x="784" 
d="M392 -8q-146 0 -247 99.5t-101 248.5t101 248.5t247 99.5t247 -99.5t101 -248.5t-101 -248.5t-247 -99.5zM392 21q135 0 225 91t90 228t-90 228t-225 91t-225 -91t-90 -228t90 -228t225 -91zM435 739q-21 0 -48 21t-39 21t-18 -9.5t-11 -30.5l-25 4q12 63 55 63
q21 0 48 -21t39 -21t18 9.5t11 30.5l25 -4q-12 -63 -55 -63z" />
    <glyph glyph-name="Odieresis" unicode="&#xd6;" horiz-adv-x="784" 
d="M684 638q-9 0 -16.5 7t-7.5 17t7.5 17t16.5 7t16.5 -7t7.5 -17t-7.5 -17t-16.5 -7zM100 638q-9 0 -16.5 7t-7.5 17t7.5 17t16.5 7t16.5 -7t7.5 -17t-7.5 -17t-16.5 -7zM392 -8q-146 0 -247 99.5t-101 248.5t101 248.5t247 99.5t247 -99.5t101 -248.5t-101 -248.5
t-247 -99.5zM392 21q135 0 225 91t90 228t-90 228t-225 91t-225 -91t-90 -228t90 -228t225 -91z" />
    <glyph glyph-name="multiply" unicode="&#xd7;" 
d="M71 186q-11 0 -19.5 8t-8.5 20t8.5 20t19.5 8t19.5 -8t8.5 -20t-8.5 -20t-19.5 -8z" />
    <glyph glyph-name="Oslash" unicode="&#xd8;" horiz-adv-x="784" 
d="M647 580q93 -98 93 -240q0 -149 -101 -248.5t-247 -99.5q-136 0 -235 89l-89 -91l-20 19l89 91q-93 98 -93 240q0 149 101 248.5t247 99.5q136 0 235 -89l88 90l20 -19zM158 121l448 457q-87 81 -214 81q-135 0 -225 -91t-90 -228q0 -130 81 -219zM626 559
q-448 -457 -449 -457q89 -81 215 -81q135 0 225 91t90 228q0 130 -81 219z" />
    <glyph glyph-name="Ugrave" unicode="&#xd9;" horiz-adv-x="634" 
d="M316 -8q-99 0 -161.5 61t-62.5 171v456h32v-453q0 -98 52.5 -152.5t139.5 -54.5t140.5 54.5t53.5 152.5v453h32v-456q0 -110 -63 -171t-163 -61zM307 744l-68 132h33l60 -132h-25z" />
    <glyph glyph-name="Uacute" unicode="&#xda;" horiz-adv-x="634" 
d="M316 -8q-99 0 -161.5 61t-62.5 171v456h32v-453q0 -98 52.5 -152.5t139.5 -54.5t140.5 54.5t53.5 152.5v453h32v-456q0 -110 -63 -171t-163 -61zM302 744l60 132h33l-68 -132h-25z" />
    <glyph glyph-name="Ucircumflex" unicode="&#xdb;" horiz-adv-x="634" 
d="M316 -8q-99 0 -161.5 61t-62.5 171v456h32v-453q0 -98 52.5 -152.5t139.5 -54.5t140.5 54.5t53.5 152.5v453h32v-456q0 -110 -63 -171t-163 -61zM223 744l92 112h3l92 -112h-26l-67 70l-68 -70h-26z" />
    <glyph glyph-name="Udieresis" unicode="&#xdc;" horiz-adv-x="634" 
d="M369 638q-9 0 -16.5 7t-7.5 17t7.5 17t16.5 7t16.5 -7t7.5 -17t-7.5 -17t-16.5 -7zM265 638q-9 0 -16.5 7t-7.5 17t7.5 17t16.5 7t16.5 -7t7.5 -17t-7.5 -17t-16.5 -7zM316 -8q-99 0 -161.5 61t-62.5 171v456h32v-453q0 -98 52.5 -152.5t139.5 -54.5t140.5 54.5
t53.5 152.5v453h32v-456q0 -110 -63 -171t-163 -61z" />
    <glyph glyph-name="Yacute" unicode="&#xdd;" horiz-adv-x="612" 
d="M290 210l-258 470h34l240 -438l241 438h33l-258 -470v0v0v0v-1v0v0v-1v0v-1v0v-1v-1v-1v-1v-1v-1v-1v-1v-1v-1v-1v-1v-1v-1v-1v-1v-1v-1v-1v-1v-1v-1v-1v-1v-1v-1v-1v-1v-1v-1v-2v-1v-1v-1v-1v-1v-1v-1v-1v-1v-1v-1v-2v-1v-1v-1v-1v-1v-2v-1v-1v-1v-1v-2v-1v-1v-1v-2v-1
v-1v-2v-1v-1v-2v-1v-1v-2v-1v-1v-2v-1v-1v-2v-1v-2v-1v-1v-2v-1v-2v-1v-2v-1v-2v-1v-2v-1v-2v-1v-2v-1v-2v-1v-2v-1v-2v-1v-2v-2v-1v-2v-1v-2v-2v-1v-2v-2v-1v-2v-1v-2v-2v-1v-2v-2v-1v-2v-2v-2v-1v-2v-2v-1v-2v-2v-2v-1v-2v-2v-2v-2v-1v-2v-2v-2v-2v-1v-2v-2v-2v-2v-1v-2
v-10h-32v210zM298 744l60 132h33l-68 -132h-25z" />
    <glyph glyph-name="Thorn" unicode="&#xde;" horiz-adv-x="534" 
d="M131 597h91q132 0 202 -71t70 -181t-70 -180.5t-202 -70.5h-91v-94h-32v680h32v-83zM131 122h87q125 0 184.5 61.5t59.5 161.5t-59.5 162t-184.5 62h-87v-447z" />
    <glyph glyph-name="germandbls" unicode="&#xdf;" horiz-adv-x="400" 
d="M268 -8q-83 0 -119 74l24 13q17 -31 38.5 -46t56.5 -15q34 0 52.5 16.5t18.5 44.5q0 33 -15.5 47.5t-56.5 29.5q-50 17 -73 38t-23 58q0 59 77 78v252q0 109 -79 109q-78 0 -78 -104v-587h-30v591q0 64 31 95.5t77 31.5q48 0 78 -35t30 -100v-275q-77 -10 -77 -56
q0 -27 18 -41.5t56 -26.5q48 -16 71.5 -38.5t23.5 -65.5q0 -41 -26.5 -64.5t-74.5 -23.5z" />
    <glyph glyph-name="agrave" unicode="&#xe0;" horiz-adv-x="360" 
d="M274 190v12q0 98 -89 98q-66 0 -101 -55l-22 15q44 66 123 66q56 0 87.5 -30.5t31.5 -91.5v-204h-30v42q-36 -50 -109 -50q-54 0 -89 26.5t-35 74.5t36 72.5t89 24.5h108zM274 164h-104q-43 0 -71 -17t-28 -54q0 -74 98 -74q43 0 74 22.5t31 64.5v58zM170 376l-68 132h33
l60 -132h-25z" />
    <glyph glyph-name="aacute" unicode="&#xe1;" horiz-adv-x="360" 
d="M274 190v12q0 98 -89 98q-66 0 -101 -55l-22 15q44 66 123 66q56 0 87.5 -30.5t31.5 -91.5v-204h-30v42q-36 -50 -109 -50q-54 0 -89 26.5t-35 74.5t36 72.5t89 24.5h108zM274 164h-104q-43 0 -71 -17t-28 -54q0 -74 98 -74q43 0 74 22.5t31 64.5v58zM171 376l60 132h33
l-68 -132h-25z" />
    <glyph glyph-name="acircumflex" unicode="&#xe2;" horiz-adv-x="360" 
d="M274 190v12q0 98 -89 98q-66 0 -101 -55l-22 15q44 66 123 66q56 0 87.5 -30.5t31.5 -91.5v-204h-30v42q-36 -50 -109 -50q-54 0 -89 26.5t-35 74.5t36 72.5t89 24.5h108zM274 164h-104q-43 0 -71 -17t-28 -54q0 -74 98 -74q43 0 74 22.5t31 64.5v58zM95 376l92 112h3
l92 -112h-26l-67 70l-68 -70h-26z" />
    <glyph glyph-name="atilde" unicode="&#xe3;" horiz-adv-x="360" 
d="M274 190v12q0 98 -89 98q-66 0 -101 -55l-22 15q44 66 123 66q56 0 87.5 -30.5t31.5 -91.5v-204h-30v42q-36 -50 -109 -50q-54 0 -89 26.5t-35 74.5t36 72.5t89 24.5h108zM274 164h-104q-43 0 -71 -17t-28 -54q0 -74 98 -74q43 0 74 22.5t31 64.5v58zM223 371
q-21 0 -48 21t-39 21t-18 -9.5t-11 -30.5l-25 4q12 63 55 63q21 0 48 -21t39 -21t18 9.5t11 30.5l25 -4q-12 -63 -55 -63z" />
    <glyph glyph-name="adieresis" unicode="&#xe4;" horiz-adv-x="360" 
d="M274 190v12q0 98 -89 98q-66 0 -101 -55l-22 15q44 66 123 66q56 0 87.5 -30.5t31.5 -91.5v-204h-30v42q-36 -50 -109 -50q-54 0 -89 26.5t-35 74.5t36 72.5t89 24.5h108zM274 164h-104q-43 0 -71 -17t-28 -54q0 -74 98 -74q43 0 74 22.5t31 64.5v58zM241 381
q-9 0 -16.5 7t-7.5 17t7.5 17t16.5 7t16.5 -7t7.5 -17t-7.5 -17t-16.5 -7zM137 381q-9 0 -16.5 7t-7.5 17t7.5 17t16.5 7t16.5 -7t7.5 -17t-7.5 -17t-16.5 -7z" />
    <glyph glyph-name="aring" unicode="&#xe5;" horiz-adv-x="360" 
d="M274 190v12q0 98 -89 98q-66 0 -101 -55l-22 15q44 66 123 66q56 0 87.5 -30.5t31.5 -91.5v-204h-30v42q-36 -50 -109 -50q-54 0 -89 26.5t-35 74.5t36 72.5t89 24.5h108zM274 164h-104q-43 0 -71 -17t-28 -54q0 -74 98 -74q43 0 74 22.5t31 64.5v58zM185 371
q-30 0 -51 21t-21 50t21 50.5t51 21.5t51 -21.5t21 -50.5t-21 -50t-51 -21zM185 395q20 0 32.5 13t12.5 34t-12.5 34.5t-32.5 13.5t-32.5 -13.5t-12.5 -34.5t12.5 -34t32.5 -13z" />
    <glyph glyph-name="ae" unicode="&#xe6;" horiz-adv-x="625" 
d="M297 240q20 40 56 63t80 23q69 0 111.5 -46.5t45.5 -121.5h-286q0 -64 38.5 -102t97.5 -38q73 0 114 51l20 -18q-46 -59 -134 -59q-50 0 -87.5 23.5t-57.5 64.5q-9 -34 -33 -54.5t-47.5 -27t-49.5 -6.5q-54 0 -89 26t-35 72q0 48 35 71t88 23h110v18q0 98 -89 98
q-66 0 -101 -55l-22 15q44 66 123 66q96 0 112 -86zM306 184h253q-8 52 -39 84t-87 32q-50 0 -84.5 -32.5t-42.5 -83.5zM274 158h-106q-97 0 -97 -68q0 -35 27 -53t71 -18q42 0 73.5 24t31.5 66v49z" />
    <glyph glyph-name="ccedilla" unicode="&#xe7;" horiz-adv-x="349" 
d="M172 -7q-60 8 -99 55t-39 111q0 71 46.5 119t114.5 48q74 0 119 -48l-21 -18q-36 40 -98 40q-57 0 -93.5 -40t-36.5 -101t36 -101t93 -40q70 0 109 46l21 -18q-43 -52 -127 -54v-47q26 -2 43.5 -20.5t17.5 -46.5q0 -30 -20 -47t-48 -17q-53 0 -72 45l22 12q14 -32 50 -32
q17 0 28.5 10t11.5 29q0 44 -49 44h-9v71z" />
    <glyph glyph-name="egrave" unicode="&#xe8;" horiz-adv-x="386" 
d="M65 153q2 -62 40.5 -98.5t95.5 -36.5q73 0 114 51l20 -18q-46 -59 -134 -59q-73 0 -120 48t-47 119q0 70 47 118.5t113 48.5q70 0 112.5 -48t44.5 -125h-286zM66 179h254q-6 54 -38 87.5t-88 33.5q-52 0 -87 -34t-41 -87zM183 376l-68 132h33l60 -132h-25z" />
    <glyph glyph-name="eacute" unicode="&#xe9;" horiz-adv-x="386" 
d="M65 153q2 -62 40.5 -98.5t95.5 -36.5q73 0 114 51l20 -18q-46 -59 -134 -59q-73 0 -120 48t-47 119q0 70 47 118.5t113 48.5q70 0 112.5 -48t44.5 -125h-286zM66 179h254q-6 54 -38 87.5t-88 33.5q-52 0 -87 -34t-41 -87zM178 376l60 132h33l-68 -132h-25z" />
    <glyph glyph-name="ecircumflex" unicode="&#xea;" horiz-adv-x="386" 
d="M65 153q2 -62 40.5 -98.5t95.5 -36.5q73 0 114 51l20 -18q-46 -59 -134 -59q-73 0 -120 48t-47 119q0 70 47 118.5t113 48.5q70 0 112.5 -48t44.5 -125h-286zM66 179h254q-6 54 -38 87.5t-88 33.5q-52 0 -87 -34t-41 -87zM99 376l92 112h3l92 -112h-26l-67 70l-68 -70
h-26z" />
    <glyph glyph-name="edieresis" unicode="&#xeb;" horiz-adv-x="386" 
d="M65 153q2 -62 40.5 -98.5t95.5 -36.5q73 0 114 51l20 -18q-46 -59 -134 -59q-73 0 -120 48t-47 119q0 70 47 118.5t113 48.5q70 0 112.5 -48t44.5 -125h-286zM66 179h254q-6 54 -38 87.5t-88 33.5q-52 0 -87 -34t-41 -87zM245 381q-9 0 -16.5 7t-7.5 17t7.5 17t16.5 7
t16.5 -7t7.5 -17t-7.5 -17t-16.5 -7zM141 381q-9 0 -16.5 7t-7.5 17t7.5 17t16.5 7t16.5 -7t7.5 -17t-7.5 -17t-16.5 -7z" />
    <glyph glyph-name="igrave" unicode="&#xec;" horiz-adv-x="158" 
d="M64 0v318h30v-318h-30zM69 376l-68 132h33l60 -132h-25z" />
    <glyph glyph-name="iacute" unicode="&#xed;" horiz-adv-x="158" 
d="M64 0v318h30v-318h-30zM64 376l60 132h33l-68 -132h-25z" />
    <glyph glyph-name="icircumflex" unicode="&#xee;" horiz-adv-x="158" 
d="M64 0v318h30v-318h-30zM-15 376l92 112h3l92 -112h-26l-67 70l-68 -70h-26z" />
    <glyph glyph-name="idieresis" unicode="&#xef;" horiz-adv-x="158" 
d="M64 0v318h30v-318h-30zM131 381q-9 0 -16.5 7t-7.5 17t7.5 17t16.5 7t16.5 -7t7.5 -17t-7.5 -17t-16.5 -7zM27 381q-9 0 -16.5 7t-7.5 17t7.5 17t16.5 7t16.5 -7t7.5 -17t-7.5 -17t-16.5 -7z" />
    <glyph glyph-name="eth" unicode="&#xf0;" horiz-adv-x="396" 
d="M215 552l-15 -12l-30 -26l-16 -13l-16 19l62 52q-43 53 -102 107l16 20q62 -56 107 -110l60 51l16 -19l-61 -51q126 -166 126 -390q0 -92 -45.5 -140t-118.5 -48q-68 0 -116 48.5t-48 118.5t48 118.5t116 48.5q90 0 131 -79q-14 172 -114 305zM198 18q57 0 95 40.5
t38 100.5t-38 100.5t-95 40.5t-95 -40.5t-38 -100.5t38 -100.5t95 -40.5z" />
    <glyph glyph-name="ntilde" unicode="&#xf1;" horiz-adv-x="389" 
d="M61 0v318h30v-60q16 32 47.5 50t70.5 18q55 0 89.5 -32.5t34.5 -95.5v-198h-30v193q0 106 -95 106q-52 0 -84.5 -32t-32.5 -86v-181h-30zM237 371q-21 0 -48 21t-39 21t-18 -9.5t-11 -30.5l-25 4q12 63 55 63q21 0 48 -21t39 -21t18 9.5t11 30.5l25 -4q-12 -63 -55 -63z
" />
    <glyph glyph-name="ograve" unicode="&#xf2;" horiz-adv-x="396" 
d="M198 -8q-68 0 -116 48.5t-48 118.5t48 118.5t116 48.5t116 -48.5t48 -118.5t-48 -118.5t-116 -48.5zM198 18q57 0 95 40.5t38 100.5t-38 100.5t-95 40.5t-95 -40.5t-38 -100.5t38 -100.5t95 -40.5zM188 376l-68 132h33l60 -132h-25z" />
    <glyph glyph-name="oacute" unicode="&#xf3;" horiz-adv-x="396" 
d="M198 -8q-68 0 -116 48.5t-48 118.5t48 118.5t116 48.5t116 -48.5t48 -118.5t-48 -118.5t-116 -48.5zM198 18q57 0 95 40.5t38 100.5t-38 100.5t-95 40.5t-95 -40.5t-38 -100.5t38 -100.5t95 -40.5zM183 376l60 132h33l-68 -132h-25z" />
    <glyph glyph-name="ocircumflex" unicode="&#xf4;" horiz-adv-x="396" 
d="M198 -8q-68 0 -116 48.5t-48 118.5t48 118.5t116 48.5t116 -48.5t48 -118.5t-48 -118.5t-116 -48.5zM198 18q57 0 95 40.5t38 100.5t-38 100.5t-95 40.5t-95 -40.5t-38 -100.5t38 -100.5t95 -40.5zM104 376l92 112h3l92 -112h-26l-67 70l-68 -70h-26z" />
    <glyph glyph-name="otilde" unicode="&#xf5;" horiz-adv-x="396" 
d="M198 -8q-68 0 -116 48.5t-48 118.5t48 118.5t116 48.5t116 -48.5t48 -118.5t-48 -118.5t-116 -48.5zM198 18q57 0 95 40.5t38 100.5t-38 100.5t-95 40.5t-95 -40.5t-38 -100.5t38 -100.5t95 -40.5zM241 371q-21 0 -48 21t-39 21t-18 -9.5t-11 -30.5l-25 4q12 63 55 63
q21 0 48 -21t39 -21t18 9.5t11 30.5l25 -4q-12 -63 -55 -63z" />
    <glyph glyph-name="odieresis" unicode="&#xf6;" horiz-adv-x="396" 
d="M198 -8q-68 0 -116 48.5t-48 118.5t48 118.5t116 48.5t116 -48.5t48 -118.5t-48 -118.5t-116 -48.5zM198 18q57 0 95 40.5t38 100.5t-38 100.5t-95 40.5t-95 -40.5t-38 -100.5t38 -100.5t95 -40.5zM250 381q-9 0 -16.5 7t-7.5 17t7.5 17t16.5 7t16.5 -7t7.5 -17t-7.5 -17
t-16.5 -7zM146 381q-9 0 -16.5 7t-7.5 17t7.5 17t16.5 7t16.5 -7t7.5 -17t-7.5 -17t-16.5 -7z" />
    <glyph glyph-name="divide" unicode="&#xf7;" 
d="M71 186q-11 0 -19.5 8t-8.5 20t8.5 20t19.5 8t19.5 -8t8.5 -20t-8.5 -20t-19.5 -8z" />
    <glyph glyph-name="oslash" unicode="&#xf8;" horiz-adv-x="396" 
d="M327 262q35 -45 35 -103q0 -70 -48 -118.5t-116 -48.5q-65 0 -113 45l-49 -46l-17 18l50 46q-35 46 -35 104q0 70 48 118.5t116 48.5q65 0 112 -45l50 46l17 -18q-50 -46 -50 -47zM89 74l202 189q-35 37 -93 37q-57 0 -95 -40.5t-38 -100.5q0 -48 24 -85zM307 244
l-202 -189q35 -37 93 -37q57 0 95 40.5t38 100.5q0 48 -24 85z" />
    <glyph glyph-name="ugrave" unicode="&#xf9;" horiz-adv-x="389" 
d="M180 -8q-57 0 -90.5 32t-33.5 96v198h30v-193q0 -106 95 -106q52 0 84.5 32t32.5 86v181h30v-318h-30v60q-16 -32 -47.5 -50t-70.5 -18zM184 376l-68 132h33l60 -132h-25z" />
    <glyph glyph-name="uacute" unicode="&#xfa;" horiz-adv-x="389" 
d="M180 -8q-57 0 -90.5 32t-33.5 96v198h30v-193q0 -106 95 -106q52 0 84.5 32t32.5 86v181h30v-318h-30v60q-16 -32 -47.5 -50t-70.5 -18zM179 376l60 132h33l-68 -132h-25z" />
    <glyph glyph-name="ucircumflex" unicode="&#xfb;" horiz-adv-x="389" 
d="M180 -8q-57 0 -90.5 32t-33.5 96v198h30v-193q0 -106 95 -106q52 0 84.5 32t32.5 86v181h30v-318h-30v60q-16 -32 -47.5 -50t-70.5 -18zM100 376l92 112h3l92 -112h-26l-67 70l-68 -70h-26z" />
    <glyph glyph-name="udieresis" unicode="&#xfc;" horiz-adv-x="389" 
d="M180 -8q-57 0 -90.5 32t-33.5 96v198h30v-193q0 -106 95 -106q52 0 84.5 32t32.5 86v181h30v-318h-30v60q-16 -32 -47.5 -50t-70.5 -18zM246 381q-9 0 -16.5 7t-7.5 17t7.5 17t16.5 7t16.5 -7t7.5 -17t-7.5 -17t-16.5 -7zM142 381q-9 0 -16.5 7t-7.5 17t7.5 17t16.5 7
t16.5 -7t7.5 -17t-7.5 -17t-16.5 -7z" />
    <glyph glyph-name="yacute" unicode="&#xfd;" horiz-adv-x="325" 
d="M151 21l-135 297h33q117 -260 117 -261l112 261h31l-227 -530h-31zM147 376l60 132h33l-68 -132h-25z" />
    <glyph glyph-name="thorn" unicode="&#xfe;" horiz-adv-x="418" 
d="M61 -212v922h30v-461q42 77 130 77q70 0 116.5 -48t46.5 -119t-46.5 -119t-116.5 -48q-88 0 -130 77v-281h-30zM221 19q58 0 95 39.5t37 100.5t-37 100.5t-95 39.5t-95 -39.5t-37 -100.5t37 -100.5t95 -39.5z" />
    <glyph glyph-name="ydieresis" unicode="&#xff;" horiz-adv-x="325" 
d="M151 21l-135 297h33q117 -260 117 -261l112 261h31l-227 -530h-31zM216 381q-9 0 -16.5 7t-7.5 17t7.5 17t16.5 7t16.5 -7t7.5 -17t-7.5 -17t-16.5 -7zM112 381q-9 0 -16.5 7t-7.5 17t7.5 17t16.5 7t16.5 -7t7.5 -17t-7.5 -17t-16.5 -7z" />
    <glyph glyph-name="Amacron" unicode="&#x100;" horiz-adv-x="636" 
d="M244 751v26h148v-26h-148zM125 137l-54 -137h-32l277 697h4l277 -697h-33l-54 137h-385zM499 165l-181 458l-182 -458h363z" />
    <glyph glyph-name="amacron" unicode="&#x101;" horiz-adv-x="360" 
d="M113 383v26h148v-26h-148zM274 190v12q0 98 -89 98q-66 0 -101 -55l-22 15q44 66 123 66q56 0 87.5 -30.5t31.5 -91.5v-204h-30v42q-36 -50 -109 -50q-54 0 -89 26.5t-35 74.5t36 72.5t89 24.5h108zM274 164h-104q-43 0 -71 -17t-28 -54q0 -74 98 -74q43 0 74 22.5
t31 64.5v58z" />
    <glyph glyph-name="Abreve" unicode="&#x102;" horiz-adv-x="636" 
d="M318 737q-33 0 -56.5 17.5t-32.5 47.5l26 9q15 -46 63 -46t63 46l27 -9q-9 -30 -33 -47.5t-57 -17.5zM125 137l-54 -137h-32l277 697h4l277 -697h-33l-54 137h-385zM499 165l-181 458l-182 -458h363z" />
    <glyph glyph-name="abreve" unicode="&#x103;" horiz-adv-x="360" 
d="M180 369q-33 0 -56.5 17.5t-32.5 47.5l26 9q15 -46 63 -46t63 46l27 -9q-9 -30 -33 -47.5t-57 -17.5zM274 190v12q0 98 -89 98q-66 0 -101 -55l-22 15q44 66 123 66q56 0 87.5 -30.5t31.5 -91.5v-204h-30v42q-36 -50 -109 -50q-54 0 -89 26.5t-35 74.5t36 72.5t89 24.5
h108zM274 164h-104q-43 0 -71 -17t-28 -54q0 -74 98 -74q43 0 74 22.5t31 64.5v58z" />
    <glyph glyph-name="Aogonek" unicode="&#x104;" horiz-adv-x="636" 
d="M510 137h-385l-54 -137h-32l277 697h4l277 -697l-26 -41q-32 -50 -32 -82q0 -19 11 -28.5t27 -9.5q28 0 45 31l22 -13q-20 -43 -67 -43q-27 0 -46.5 16.5t-19.5 45.5q0 42 37 92l19 26zM136 165h363l-181 458z" />
    <glyph glyph-name="aogonek" unicode="&#x105;" horiz-adv-x="360" 
d="M278 -41q-32 -50 -32 -82q0 -19 11 -28.5t27 -9.5q28 0 45 31l22 -13q-20 -43 -67 -43q-27 0 -46.5 16.5t-19.5 45.5q0 40 37 92l19 26v48q-36 -50 -109 -50q-54 0 -89 26.5t-35 74.5t36 72.5t89 24.5h108v12q0 98 -89 98q-66 0 -101 -55l-22 15q44 66 123 66
q56 0 87.5 -30.5t31.5 -91.5v-204zM274 164h-104q-43 0 -71 -17t-28 -54q0 -74 98 -74q43 0 74 22.5t31 64.5v58z" />
    <glyph glyph-name="Cacute" unicode="&#x106;" horiz-adv-x="709" 
d="M375 744l60 132h33l-68 -132h-25zM77 340q0 -137 90 -228t225 -91q79 0 144.5 33t109.5 91l24 -18q-49 -64 -121 -99.5t-157 -35.5q-148 0 -248.5 98.5t-99.5 249.5t99 249.5t243 98.5q162 0 264 -124l-24 -18q-91 113 -240 113q-132 0 -220.5 -91t-88.5 -228z" />
    <glyph glyph-name="cacute" unicode="&#x107;" horiz-adv-x="349" 
d="M172 376l60 132h33l-68 -132h-25zM194 -8q-68 0 -114 48.5t-46 118.5q0 71 46.5 119t114.5 48q74 0 119 -48l-21 -18q-36 40 -98 40q-57 0 -93.5 -40t-36.5 -101t36 -101t93 -40q70 0 109 46l21 -18q-45 -54 -130 -54z" />
    <glyph glyph-name="Ccircumflex" unicode="&#x108;" horiz-adv-x="709" 
d="M284 744l92 112h3l92 -112h-26l-67 70l-68 -70h-26zM392 -8q-148 0 -248.5 98.5t-99.5 249.5t99 249.5t243 98.5q162 0 264 -124l-24 -18q-91 113 -240 113q-132 0 -220.5 -91t-88.5 -228t90 -228t225 -91q79 0 144.5 33t109.5 91l24 -18q-49 -64 -121 -99.5t-157 -35.5z
" />
    <glyph glyph-name="ccircumflex" unicode="&#x109;" horiz-adv-x="349" 
d="M96 376l92 112h3l92 -112h-26l-67 70l-68 -70h-26zM194 -8q-68 0 -114 48.5t-46 118.5q0 71 46.5 119t114.5 48q74 0 119 -48l-21 -18q-36 40 -98 40q-57 0 -93.5 -40t-36.5 -101t36 -101t93 -40q70 0 109 46l21 -18q-45 -54 -130 -54z" />
    <glyph glyph-name="Ccaron" unicode="&#x10c;" horiz-adv-x="709" 
d="M376 737l-92 112h26l67 -70l68 70h26l-92 -112h-3zM77 340q0 -137 90 -228t225 -91q79 0 144.5 33t109.5 91l24 -18q-49 -64 -121 -99.5t-157 -35.5q-148 0 -248.5 98.5t-99.5 249.5t99 249.5t243 98.5q162 0 264 -124l-24 -18q-91 113 -240 113q-132 0 -220.5 -91
t-88.5 -228z" />
    <glyph glyph-name="ccaron" unicode="&#x10d;" horiz-adv-x="349" 
d="M188 369l-92 112h26l67 -70l68 70h26l-92 -112h-3zM194 -8q-68 0 -114 48.5t-46 118.5q0 71 46.5 119t114.5 48q74 0 119 -48l-21 -18q-36 40 -98 40q-57 0 -93.5 -40t-36.5 -101t36 -101t93 -40q70 0 109 46l21 -18q-45 -54 -130 -54z" />
    <glyph glyph-name="Dcaron" unicode="&#x10e;" horiz-adv-x="660" 
d="M260 737l-92 112h26l67 -70l68 70h26l-92 -112h-3zM99 0v680h152q168 0 264 -93.5t96 -246.5q0 -154 -95.5 -247t-264.5 -93h-152zM131 29h115q161 0 246.5 84.5t85.5 226.5t-85.5 226.5t-246.5 84.5h-115v-622z" />
    <glyph glyph-name="dcaron" unicode="&#x10f;" horiz-adv-x="460" 
d="M428 571l18 61q-19 4 -19 26q0 12 8.5 20t19.5 8t19.5 -8t8.5 -20q0 -6 -3 -14l-33 -73h-19zM197 -8q-70 0 -116.5 48t-46.5 119t46.5 119t116.5 48q88 0 130 -77v461h30v-710h-30v69q-42 -77 -130 -77zM197 19q58 0 95 39.5t37 100.5t-37 100.5t-95 39.5t-95 -39.5
t-37 -100.5t37 -100.5t95 -39.5z" />
    <glyph glyph-name="Dcroat" unicode="&#x110;" horiz-adv-x="655" 
d="M99 237h-78v28h78v415h152q168 0 264 -93.5t96 -246.5q0 -154 -95.5 -247t-264.5 -93h-152v237zM131 265h188v-28h-188v-208h115q161 0 246.5 84.5t85.5 226.5t-85.5 226.5t-246.5 84.5h-115v-386z" />
    <glyph glyph-name="dcroat" unicode="&#x111;" horiz-adv-x="419" 
d="M327 474h-106v26h106v210h30v-210h68v-26h-68v-474h-30v69q-42 -77 -130 -77q-70 0 -116.5 48t-46.5 119t46.5 119t116.5 48q88 0 130 -77v225zM197 19q58 0 95 39.5t37 100.5t-37 100.5t-95 39.5t-95 -39.5t-37 -100.5t37 -100.5t95 -39.5z" />
    <glyph glyph-name="Emacron" unicode="&#x112;" horiz-adv-x="557" 
d="M225 751v26h148v-26h-148zM99 0v680h392v-28h-360v-387h323v-28h-323v-209h374v-28h-406z" />
    <glyph glyph-name="emacron" unicode="&#x113;" horiz-adv-x="386" 
d="M122 383v26h148v-26h-148zM65 153q2 -62 40.5 -98.5t95.5 -36.5q73 0 114 51l20 -18q-46 -59 -134 -59q-73 0 -120 48t-47 119q0 70 47 118.5t113 48.5q70 0 112.5 -48t44.5 -125h-286zM66 179h254q-6 54 -38 87.5t-88 33.5q-52 0 -87 -34t-41 -87z" />
    <glyph glyph-name="Edotaccent" unicode="&#x116;" horiz-adv-x="557" 
d="M294 754q-9 0 -16.5 7t-7.5 17t7.5 17t16.5 7t16.5 -7t7.5 -17t-7.5 -17t-16.5 -7zM99 0v680h392v-28h-360v-387h323v-28h-323v-209h374v-28h-406z" />
    <glyph glyph-name="edotaccent" unicode="&#x117;" horiz-adv-x="386" 
d="M197 386q-9 0 -16.5 7t-7.5 17t7.5 17t16.5 7t16.5 -7t7.5 -17t-7.5 -17t-16.5 -7zM65 153q2 -62 40.5 -98.5t95.5 -36.5q73 0 114 51l20 -18q-46 -59 -134 -59q-73 0 -120 48t-47 119q0 70 47 118.5t113 48.5q70 0 112.5 -48t44.5 -125h-286zM66 179h254q-6 54 -38 87.5
t-88 33.5q-52 0 -87 -34t-41 -87z" />
    <glyph glyph-name="Eogonek" unicode="&#x118;" horiz-adv-x="557" 
d="M99 0v680h392v-28h-360v-387h323v-28h-323v-209h374v-28h-37l-26 -41q-32 -50 -32 -82q0 -19 11 -28.5t27 -9.5q28 0 45 31l22 -13q-20 -43 -67 -43q-27 0 -46.5 16.5t-19.5 45.5q0 40 37 92l23 32h-343z" />
    <glyph glyph-name="eogonek" unicode="&#x119;" horiz-adv-x="386" 
d="M226 -7l-22 -34q-32 -50 -32 -82q0 -19 11 -28.5t27 -9.5q28 0 45 31l22 -13q-20 -43 -67 -43q-27 0 -46.5 16.5t-19.5 45.5q0 40 37 92l17 24q-71 1 -117.5 49t-46.5 118t47 118.5t113 48.5q70 0 112.5 -48t44.5 -125h-286q2 -62 40.5 -98.5t95.5 -36.5q73 0 114 51
l20 -18q-38 -49 -109 -58zM66 179h254q-6 54 -38 87.5t-88 33.5q-52 0 -87 -34t-41 -87z" />
    <glyph glyph-name="Ecaron" unicode="&#x11a;" horiz-adv-x="557" 
d="M294 737l-92 112h26l67 -70l68 70h26l-92 -112h-3zM99 0v680h392v-28h-360v-387h323v-28h-323v-209h374v-28h-406z" />
    <glyph glyph-name="ecaron" unicode="&#x11b;" horiz-adv-x="386" 
d="M194 369l-92 112h26l67 -70l68 70h26l-92 -112h-3zM65 153q2 -62 40.5 -98.5t95.5 -36.5q73 0 114 51l20 -18q-46 -59 -134 -59q-73 0 -120 48t-47 119q0 70 47 118.5t113 48.5q70 0 112.5 -48t44.5 -125h-286zM66 179h254q-6 54 -38 87.5t-88 33.5q-52 0 -87 -34
t-41 -87z" />
    <glyph glyph-name="Gcircumflex" unicode="&#x11c;" horiz-adv-x="725" 
d="M283 744l92 112h3l92 -112h-26l-67 70l-68 -70h-26zM393 -8q-147 0 -248 99t-101 249q0 149 100 248.5t242 99.5q159 0 254 -106l-23 -21q-86 98 -231 98q-132 0 -220.5 -91t-88.5 -228t90.5 -228t225.5 -91q152 0 241 84v132h-224v28h256v-172q-109 -101 -273 -101z" />
    <glyph glyph-name="gcircumflex" unicode="&#x11d;" horiz-adv-x="341" 
d="M84 376l92 112h3l92 -112h-26l-67 70l-68 -70h-26zM213 318h114v-26h-74q39 -37 39 -89q0 -53 -36 -88t-88 -35q-34 0 -60 15q-39 -6 -39 -34q0 -21 20 -30.5t87 -11.5q82 -3 123 -34.5t41 -82.5q0 -57 -49 -91t-121 -34q-73 0 -118.5 31.5t-45.5 88.5q0 81 91 106
q-55 8 -55 57q0 19 12 32.5t31 18.5q-41 36 -41 92q0 53 36 88t88 35q23 0 45 -8zM168 105q42 0 68.5 27.5t26.5 70.5t-26.5 70.5t-68.5 27.5t-68.5 -27.5t-26.5 -70.5t26.5 -70.5t68.5 -27.5zM170 -197q60 0 100 26t40 73q0 89 -143 89q-66 0 -99 -26t-33 -68q0 -46 37 -70
t98 -24z" />
    <glyph glyph-name="Gbreve" unicode="&#x11e;" horiz-adv-x="725" 
d="M380 737q-33 0 -56.5 17.5t-32.5 47.5l26 9q15 -46 63 -46t63 46l27 -9q-9 -30 -33 -47.5t-57 -17.5zM393 -8q-147 0 -248 99t-101 249q0 149 100 248.5t242 99.5q159 0 254 -106l-23 -21q-86 98 -231 98q-132 0 -220.5 -91t-88.5 -228t90.5 -228t225.5 -91q152 0 241 84
v132h-224v28h256v-172q-109 -101 -273 -101z" />
    <glyph glyph-name="gbreve" unicode="&#x11f;" horiz-adv-x="341" 
d="M170 369q-33 0 -56.5 17.5t-32.5 47.5l26 9q15 -46 63 -46t63 46l27 -9q-9 -30 -33 -47.5t-57 -17.5zM213 318h114v-26h-74q39 -37 39 -89q0 -53 -36 -88t-88 -35q-34 0 -60 15q-39 -6 -39 -34q0 -21 20 -30.5t87 -11.5q82 -3 123 -34.5t41 -82.5q0 -57 -49 -91t-121 -34
q-73 0 -118.5 31.5t-45.5 88.5q0 81 91 106q-55 8 -55 57q0 19 12 32.5t31 18.5q-41 36 -41 92q0 53 36 88t88 35q23 0 45 -8zM168 105q42 0 68.5 27.5t26.5 70.5t-26.5 70.5t-68.5 27.5t-68.5 -27.5t-26.5 -70.5t26.5 -70.5t68.5 -27.5zM170 -197q60 0 100 26t40 73
q0 89 -143 89q-66 0 -99 -26t-33 -68q0 -46 37 -70t98 -24z" />
    <glyph glyph-name="Gcommaaccent" unicode="&#x122;" horiz-adv-x="725" 
d="M393 -8q-147 0 -248 99t-101 249q0 149 100 248.5t242 99.5q159 0 254 -106l-23 -21q-86 98 -231 98q-132 0 -220.5 -91t-88.5 -228t90.5 -228t225.5 -91q152 0 241 84v132h-224v28h256v-172q-109 -101 -273 -101zM355 -157l16 59q-17 4 -17 24q0 10 7.5 17.5t17.5 7.5
q9 0 17 -7.5t8 -17.5q0 -7 -3 -13l-29 -70h-17z" />
    <glyph glyph-name="gcommaaccent" unicode="&#x123;" horiz-adv-x="341" 
d="M197 496l-18 -61q19 -4 19 -26q0 -12 -8.5 -20t-19.5 -8t-19.5 8t-8.5 20q0 7 3 14l33 73h19zM213 318h114v-26h-74q39 -37 39 -89q0 -53 -36 -88t-88 -35q-34 0 -60 15q-39 -6 -39 -34q0 -21 20 -30.5t87 -11.5q82 -3 123 -34.5t41 -82.5q0 -57 -49 -91t-121 -34
q-73 0 -118.5 31.5t-45.5 88.5q0 81 91 106q-55 8 -55 57q0 19 12 32.5t31 18.5q-41 36 -41 92q0 53 36 88t88 35q23 0 45 -8zM168 105q42 0 68.5 27.5t26.5 70.5t-26.5 70.5t-68.5 27.5t-68.5 -27.5t-26.5 -70.5t26.5 -70.5t68.5 -27.5zM170 -197q60 0 100 26t40 73
q0 89 -143 89q-66 0 -99 -26t-33 -68q0 -46 37 -70t98 -24z" />
    <glyph glyph-name="Hcircumflex" unicode="&#x124;" horiz-adv-x="668" 
d="M240 744l92 112h3l92 -112h-26l-67 70l-68 -70h-26zM537 265v415h32v-680h-32v237h-406v-237h-32v680h32v-415h406z" />
    <glyph glyph-name="hcircumflex" unicode="&#x125;" horiz-adv-x="389" 
d="M96 744l92 112h3l92 -112h-26l-67 70l-68 -70h-26zM61 0v710h30v-452q40 68 118 68q55 0 89.5 -32.5t34.5 -95.5v-198h-30v193q0 106 -95 106q-52 0 -84.5 -32t-32.5 -86v-181h-30z" />
    <glyph glyph-name="Imacron" unicode="&#x12a;" horiz-adv-x="238" 
d="M45 751v26h148v-26h-148zM103 0v680h32v-680h-32z" />
    <glyph glyph-name="imacron" unicode="&#x12b;" horiz-adv-x="158" 
d="M5 383v26h148v-26h-148zM64 0v318h30v-318h-30z" />
    <glyph glyph-name="Iogonek" unicode="&#x12e;" horiz-adv-x="238" 
d="M103 -8v688h32v-680l-26 -41q-32 -50 -32 -82q0 -19 11 -28.5t27 -9.5q28 0 45 31l22 -13q-20 -43 -67 -43q-27 0 -46.5 16.5t-19.5 45.5q0 40 37 92z" />
    <glyph glyph-name="iogonek" unicode="&#x12f;" horiz-adv-x="158" 
d="M79 460q-10 0 -17.5 7.5t-7.5 17.5t7.5 17.5t17.5 7.5t17.5 -7.5t7.5 -17.5t-7.5 -17.5t-17.5 -7.5zM64 -6v324h30v-318l-26 -41q-32 -50 -32 -82q0 -19 11 -28.5t27 -9.5q28 0 45 31l22 -13q-20 -43 -67 -43q-27 0 -46.5 16.5t-19.5 45.5q0 40 37 92z" />
    <glyph glyph-name="Idotaccent" unicode="&#x130;" horiz-adv-x="238" 
d="M119 754q-9 0 -16.5 7t-7.5 17t7.5 17t16.5 7t16.5 -7t7.5 -17t-7.5 -17t-16.5 -7zM103 0v680h32v-680h-32z" />
    <glyph glyph-name="dotlessi" unicode="&#x131;" horiz-adv-x="158" 
d="M64 0v318h30v-318h-30z" />
    <glyph glyph-name="Jcircumflex" unicode="&#x134;" horiz-adv-x="450" 
d="M241 744l92 112h3l92 -112h-26l-67 70l-68 -70h-26zM193 -8q-102 0 -155 89l25 17q42 -77 130 -77q61 0 97 35t36 105v519h32v-521q0 -81 -46 -124t-119 -43z" />
    <glyph glyph-name="jcircumflex" unicode="&#x135;" horiz-adv-x="158" 
d="M-16 376l92 112h3l92 -112h-26l-67 70l-68 -70h-26zM22 -220q-27 0 -46 16l15 22q14 -11 31 -11q42 0 42 57v454h30v-457q0 -39 -19 -60t-53 -21z" />
    <glyph glyph-name="Kcommaaccent" unicode="&#x136;" horiz-adv-x="568" 
d="M131 247l341 433h37l-265 -337l289 -343h-41l-268 320l-93 -117v-203h-32v680h32v-433zM260 -157l16 59q-17 4 -17 24q0 10 7.5 17.5t17.5 7.5q9 0 17 -7.5t8 -17.5q0 -7 -3 -13l-29 -70h-17z" />
    <glyph glyph-name="kcommaaccent" unicode="&#x137;" horiz-adv-x="331" 
d="M91 92v-92h-30v710h30v-578l163 186h35l-124 -141l151 -177h-38l-132 155zM154 -157l16 59q-17 4 -17 24q0 10 7.5 17.5t17.5 7.5q9 0 17 -7.5t8 -17.5q0 -7 -3 -13l-29 -70h-17z" />
    <glyph glyph-name="Lacute" unicode="&#x139;" horiz-adv-x="494" 
d="M108 744l60 132h33l-68 -132h-25zM99 0v680h32v-652h329v-28h-361z" />
    <glyph glyph-name="lacute" unicode="&#x13a;" horiz-adv-x="158" 
d="M66 744l60 132h33l-68 -132h-25zM64 0v710h30v-710h-30z" />
    <glyph glyph-name="Lcommaaccent" unicode="&#x13b;" horiz-adv-x="494" 
d="M99 0v680h32v-652h329v-28h-361zM253 -157l16 59q-17 4 -17 24q0 10 7.5 17.5t17.5 7.5q9 0 17 -7.5t8 -17.5q0 -7 -3 -13l-29 -70h-17z" />
    <glyph glyph-name="lcommaaccent" unicode="&#x13c;" horiz-adv-x="158" 
d="M64 0v710h30v-710h-30zM55 -157l16 59q-17 4 -17 24q0 10 7.5 17.5t17.5 7.5q9 0 17 -7.5t8 -17.5q0 -7 -3 -13l-29 -70h-17z" />
    <glyph glyph-name="Lcaron" unicode="&#x13d;" horiz-adv-x="494" 
d="M270 571l18 61q-19 4 -19 26q0 12 8.5 20t19.5 8t19.5 -8t8.5 -20q0 -6 -3 -14l-33 -73h-19zM99 0v680h32v-652h329v-28h-361z" />
    <glyph glyph-name="lcaron" unicode="&#x13e;" horiz-adv-x="187" 
d="M155 571l18 61q-19 4 -19 26q0 12 8.5 20t19.5 8t19.5 -8t8.5 -20q0 -6 -3 -14l-33 -73h-19zM64 0v710h30v-710h-30z" />
    <glyph glyph-name="Lslash" unicode="&#x141;" horiz-adv-x="494" 
d="M131 218v-190h329v-28h-361v207l-19 -6q-20 -6 -40 -13l-19 -6v29l78 25v444h32v-434l198 65v-29z" />
    <glyph glyph-name="lslash" unicode="&#x142;" horiz-adv-x="188" 
d="M109 221v-221h-30v203l-65 -40v30l65 40v477h30v-459l69 42v-30z" />
    <glyph glyph-name="Nacute" unicode="&#x143;" horiz-adv-x="707" 
d="M343 744l60 132h33l-68 -132h-25zM604 -17l-476 632v-615h-29v697h4l476 -632v615h29v-697h-4z" />
    <glyph glyph-name="nacute" unicode="&#x144;" horiz-adv-x="389" 
d="M188 376l60 132h33l-68 -132h-25zM61 0v318h30v-60q16 32 47.5 50t70.5 18q55 0 89.5 -32.5t34.5 -95.5v-198h-30v193q0 106 -95 106q-52 0 -84.5 -32t-32.5 -86v-181h-30z" />
    <glyph glyph-name="Ncommaaccent" unicode="&#x145;" horiz-adv-x="707" 
d="M604 -17l-476 632v-615h-29v697h4l476 -632v615h29v-697h-4zM314 -157l16 59q-17 4 -17 24q0 10 7.5 17.5t17.5 7.5q9 0 17 -7.5t8 -17.5q0 -7 -3 -13l-29 -70h-17z" />
    <glyph glyph-name="ncommaaccent" unicode="&#x146;" horiz-adv-x="389" 
d="M61 0v318h30v-60q16 32 47.5 50t70.5 18q55 0 89.5 -32.5t34.5 -95.5v-198h-30v193q0 106 -95 106q-52 0 -84.5 -32t-32.5 -86v-181h-30zM170 -157l16 59q-17 4 -17 24q0 10 7.5 17.5t17.5 7.5q9 0 17 -7.5t8 -17.5q0 -7 -3 -13l-29 -70h-17z" />
    <glyph glyph-name="Ncaron" unicode="&#x147;" horiz-adv-x="707" 
d="M363 737l-92 112h26l67 -70l68 70h26l-92 -112h-3zM604 -17l-476 632v-615h-29v697h4l476 -632v615h29v-697h-4z" />
    <glyph glyph-name="ncaron" unicode="&#x148;" horiz-adv-x="389" 
d="M193 369l-92 112h26l67 -70l68 70h26l-92 -112h-3zM61 0v318h30v-60q16 32 47.5 50t70.5 18q55 0 89.5 -32.5t34.5 -95.5v-198h-30v193q0 106 -95 106q-52 0 -84.5 -32t-32.5 -86v-181h-30z" />
    <glyph glyph-name="Omacron" unicode="&#x14c;" horiz-adv-x="784" 
d="M318 751v26h148v-26h-148zM392 -8q-146 0 -247 99.5t-101 248.5t101 248.5t247 99.5t247 -99.5t101 -248.5t-101 -248.5t-247 -99.5zM392 21q135 0 225 91t90 228t-90 228t-225 91t-225 -91t-90 -228t90 -228t225 -91z" />
    <glyph glyph-name="omacron" unicode="&#x14d;" horiz-adv-x="396" 
d="M124 383v26h148v-26h-148zM198 -8q-68 0 -116 48.5t-48 118.5t48 118.5t116 48.5t116 -48.5t48 -118.5t-48 -118.5t-116 -48.5zM198 18q57 0 95 40.5t38 100.5t-38 100.5t-95 40.5t-95 -40.5t-38 -100.5t38 -100.5t95 -40.5z" />
    <glyph glyph-name="Ohungarumlaut" unicode="&#x150;" horiz-adv-x="784" 
d="M423 744l60 132h32l-67 -132h-25zM341 744l60 132h32l-67 -132h-25zM392 -8q-146 0 -247 99.5t-101 248.5t101 248.5t247 99.5t247 -99.5t101 -248.5t-101 -248.5t-247 -99.5zM392 21q135 0 225 91t90 228t-90 228t-225 91t-225 -91t-90 -228t90 -228t225 -91z" />
    <glyph glyph-name="ohungarumlaut" unicode="&#x151;" horiz-adv-x="396" 
d="M226 376l60 132h32l-67 -132h-25zM144 376l60 132h32l-67 -132h-25zM198 -8q-68 0 -116 48.5t-48 118.5t48 118.5t116 48.5t116 -48.5t48 -118.5t-48 -118.5t-116 -48.5zM198 18q57 0 95 40.5t38 100.5t-38 100.5t-95 40.5t-95 -40.5t-38 -100.5t38 -100.5t95 -40.5z" />
    <glyph glyph-name="OE" unicode="&#x152;" horiz-adv-x="962" 
d="M404 0q-168 0 -264 93.5t-96 246.5q0 154 95.5 247t264.5 93h492v-28h-360v-387h323v-28h-323v-209h374v-28h-506zM409 29h95v622h-95q-161 0 -246.5 -84.5t-85.5 -226.5t85.5 -226.5t246.5 -84.5z" />
    <glyph glyph-name="oe" unicode="&#x153;" horiz-adv-x="683" 
d="M346 96q-17 -47 -56.5 -75.5t-91.5 -28.5q-68 0 -116 48.5t-48 118.5t48 118.5t116 48.5q52 0 91.5 -29t56.5 -76q17 47 56 76t89 29q70 0 112.5 -48t44.5 -125h-286q2 -62 40.5 -98.5t95.5 -36.5q73 0 114 51l20 -18q-46 -59 -134 -59q-55 0 -95 28t-57 76zM363 179h254
q-6 54 -38 87.5t-88 33.5q-52 0 -87 -34t-41 -87zM198 18q57 0 95 40.5t38 100.5t-38 100.5t-95 40.5t-95 -40.5t-38 -100.5t38 -100.5t95 -40.5z" />
    <glyph glyph-name="Racute" unicode="&#x154;" horiz-adv-x="560" 
d="M235 744l60 132h33l-68 -132h-25zM320 188l158 -188h-40l-152 181q-36 -4 -59 -4h-96v-177h-32v680h128q131 0 201.5 -71t70.5 -181q0 -87 -46 -152t-133 -88zM131 205h92q124 0 184 62t60 161t-61 161.5t-183 62.5h-92v-447z" />
    <glyph glyph-name="racute" unicode="&#x155;" horiz-adv-x="249" 
d="M124 376l60 132h33l-68 -132h-25zM61 0v318h30v-56q33 64 95 64q29 0 49 -11l-11 -25q-13 8 -40 8q-38 0 -65.5 -33t-27.5 -81v-184h-30z" />
    <glyph glyph-name="Rcommaaccent" unicode="&#x156;" horiz-adv-x="560" 
d="M320 188l158 -188h-40l-152 181q-36 -4 -59 -4h-96v-177h-32v680h128q131 0 201.5 -71t70.5 -181q0 -87 -46 -152t-133 -88zM246 -157l16 59q-17 4 -17 24q0 10 7.5 17.5t17.5 7.5q9 0 17 -7.5t8 -17.5q0 -7 -3 -13l-29 -70h-17zM131 205h92q124 0 184 62t60 161
t-61 161.5t-183 62.5h-92v-447z" />
    <glyph glyph-name="rcommaaccent" unicode="&#x157;" horiz-adv-x="249" 
d="M61 0v318h30v-56q33 64 95 64q29 0 49 -11l-11 -25q-13 8 -40 8q-38 0 -65.5 -33t-27.5 -81v-184h-30zM53 -157l16 59q-17 4 -17 24q0 10 7.5 17.5t17.5 7.5q9 0 17 -7.5t8 -17.5q0 -7 -3 -13l-29 -70h-17z" />
    <glyph glyph-name="Rcaron" unicode="&#x158;" horiz-adv-x="560" 
d="M259 737l-92 112h26l67 -70l68 70h26l-92 -112h-3zM320 188l158 -188h-40l-152 181q-36 -4 -59 -4h-96v-177h-32v680h128q131 0 201.5 -71t70.5 -181q0 -87 -46 -152t-133 -88zM131 205h92q124 0 184 62t60 161t-61 161.5t-183 62.5h-92v-447z" />
    <glyph glyph-name="rcaron" unicode="&#x159;" horiz-adv-x="249" 
d="M141 369l-92 112h26l67 -70l68 70h26l-92 -112h-3zM61 0v318h30v-56q33 64 95 64q29 0 49 -11l-11 -25q-13 8 -40 8q-38 0 -65.5 -33t-27.5 -81v-184h-30z" />
    <glyph glyph-name="Sacute" unicode="&#x15a;" horiz-adv-x="521" 
d="M233 744l60 132h33l-68 -132h-25zM35 125l27 15q30 -56 81 -87.5t116 -31.5q80 0 125.5 38.5t45.5 102.5q0 60 -33 99t-111 76l-62 30q-80 39 -114 74.5t-34 96.5q0 67 47 108.5t117 41.5q118 0 178 -96l-24 -14q-51 82 -154 82q-58 0 -95.5 -34.5t-37.5 -87.5
q0 -52 28.5 -80.5t102.5 -64.5l61 -30q87 -43 124.5 -88t37.5 -113q0 -77 -54 -123.5t-148 -46.5q-153 0 -224 133z" />
    <glyph glyph-name="sacute" unicode="&#x15b;" horiz-adv-x="310" 
d="M135 376l60 132h33l-68 -132h-25zM248 270l-25 -13q-25 43 -75 43q-29 0 -47 -14t-18 -38q0 -14 4.5 -24t17 -17.5t22 -11.5t31.5 -11q59 -19 87 -40t28 -63t-30.5 -65.5t-79.5 -23.5q-96 0 -131 79l26 11q27 -64 105 -64q36 0 58 16.5t22 45.5t-21.5 44.5t-70.5 31.5
q-51 17 -74 36t-23 56q0 35 26 56.5t68 21.5q70 0 100 -56z" />
    <glyph glyph-name="Scircumflex" unicode="&#x15c;" horiz-adv-x="521" 
d="M156 744l92 112h3l92 -112h-26l-67 70l-68 -70h-26zM35 125l27 15q30 -56 81 -87.5t116 -31.5q80 0 125.5 38.5t45.5 102.5q0 60 -33 99t-111 76l-62 30q-80 39 -114 74.5t-34 96.5q0 67 47 108.5t117 41.5q118 0 178 -96l-24 -14q-51 82 -154 82q-58 0 -95.5 -34.5
t-37.5 -87.5q0 -52 28.5 -80.5t102.5 -64.5l61 -30q87 -43 124.5 -88t37.5 -113q0 -77 -54 -123.5t-148 -46.5q-153 0 -224 133z" />
    <glyph glyph-name="scircumflex" unicode="&#x15d;" horiz-adv-x="310" 
d="M59 376l92 112h3l92 -112h-26l-67 70l-68 -70h-26zM163 -8q-96 0 -131 79l26 11q27 -64 105 -64q36 0 58 16.5t22 45.5t-21.5 44.5t-70.5 31.5q-51 17 -74 36t-23 56q0 35 26 56.5t68 21.5q70 0 100 -56l-25 -13q-25 43 -75 43q-29 0 -47 -14t-18 -38q0 -14 4.5 -24
t17 -17.5t22 -11.5t31.5 -11q59 -19 87 -40t28 -63t-30.5 -65.5t-79.5 -23.5z" />
    <glyph glyph-name="Scaron" unicode="&#x160;" horiz-adv-x="521" 
d="M35 125l27 15q30 -56 81 -87.5t116 -31.5q80 0 125.5 38.5t45.5 102.5q0 60 -33 99t-111 76l-62 30q-80 39 -114 74.5t-34 96.5q0 67 47 108.5t117 41.5q118 0 178 -96l-24 -14q-51 82 -154 82q-58 0 -95.5 -34.5t-37.5 -87.5q0 -52 28.5 -80.5t102.5 -64.5l61 -30
q87 -43 124.5 -88t37.5 -113q0 -77 -54 -123.5t-148 -46.5q-153 0 -224 133zM243 737l-92 112h26l67 -70l68 70h26l-92 -112h-3z" />
    <glyph glyph-name="scaron" unicode="&#x161;" horiz-adv-x="310" 
d="M163 -8q-96 0 -131 79l26 11q27 -64 105 -64q36 0 58 16.5t22 45.5t-21.5 44.5t-70.5 31.5q-51 17 -74 36t-23 56q0 35 26 56.5t68 21.5q70 0 100 -56l-25 -13q-25 43 -75 43q-29 0 -47 -14t-18 -38q0 -14 4.5 -24t17 -17.5t22 -11.5t31.5 -11q59 -19 87 -40t28 -63
t-30.5 -65.5t-79.5 -23.5zM151 369l-92 112h26l67 -70l68 70h26l-92 -112h-3z" />
    <glyph glyph-name="Tcommaaccent" unicode="&#x162;" horiz-adv-x="520" 
d="M244 0v652h-218v28h468v-28h-218v-652h-32zM236 -157l16 59q-17 4 -17 24q0 10 7.5 17.5t17.5 7.5q9 0 17 -7.5t8 -17.5q0 -7 -3 -13l-29 -70h-17z" />
    <glyph glyph-name="Tcommaaccent" unicode="&#x21a;" horiz-adv-x="520" 
d="M244 0v652h-218v28h468v-28h-218v-652h-32zM236 -157l16 59q-17 4 -17 24q0 10 7.5 17.5t17.5 7.5q9 0 17 -7.5t8 -17.5q0 -7 -3 -13l-29 -70h-17z" />
    <glyph glyph-name="tcommaaccent" unicode="&#x163;" horiz-adv-x="231" 
d="M77 292h-45v26h45v191h30v-191h83v-26h-83v-223q0 -50 40 -50q21 0 41 16l15 -22q-23 -21 -56 -21t-51.5 20t-18.5 53v227zM111 -157l16 59q-17 4 -17 24q0 10 7.5 17.5t17.5 7.5q9 0 17 -7.5t8 -17.5q0 -7 -3 -13l-29 -70h-17z" />
    <glyph glyph-name="tcommaaccent" unicode="&#x21b;" horiz-adv-x="231" 
d="M77 292h-45v26h45v191h30v-191h83v-26h-83v-223q0 -50 40 -50q21 0 41 16l15 -22q-23 -21 -56 -21t-51.5 20t-18.5 53v227zM111 -157l16 59q-17 4 -17 24q0 10 7.5 17.5t17.5 7.5q9 0 17 -7.5t8 -17.5q0 -7 -3 -13l-29 -70h-17z" />
    <glyph glyph-name="Tcaron" unicode="&#x164;" horiz-adv-x="520" 
d="M259 737l-92 112h26l67 -70l68 70h26l-92 -112h-3zM244 0v652h-218v28h468v-28h-218v-652h-32z" />
    <glyph glyph-name="tcaron" unicode="&#x165;" horiz-adv-x="231" 
d="M186 571l18 61q-19 4 -19 26q0 12 8.5 20t19.5 8t19.5 -8t8.5 -20q0 -6 -3 -14l-33 -73h-19zM77 292h-45v26h45v191h30v-191h83v-26h-83v-223q0 -50 40 -50q21 0 41 16l15 -22q-23 -21 -56 -21t-51.5 20t-18.5 53v227z" />
    <glyph glyph-name="Umacron" unicode="&#x16a;" horiz-adv-x="634" 
d="M243 751v26h148v-26h-148zM316 -8q-99 0 -161.5 61t-62.5 171v456h32v-453q0 -98 52.5 -152.5t139.5 -54.5t140.5 54.5t53.5 152.5v453h32v-456q0 -110 -63 -171t-163 -61z" />
    <glyph glyph-name="umacron" unicode="&#x16b;" horiz-adv-x="389" 
d="M120 383v26h148v-26h-148zM180 -8q-57 0 -90.5 32t-33.5 96v198h30v-193q0 -106 95 -106q52 0 84.5 32t32.5 86v181h30v-318h-30v60q-16 -32 -47.5 -50t-70.5 -18z" />
    <glyph glyph-name="Ubreve" unicode="&#x16c;" horiz-adv-x="634" 
d="M317 729q-33 0 -56.5 17.5t-32.5 47.5l26 9q15 -46 63 -46t63 46l27 -9q-9 -30 -33 -47.5t-57 -17.5zM316 -8q-99 0 -161.5 61t-62.5 171v456h32v-453q0 -98 52.5 -152.5t139.5 -54.5t140.5 54.5t53.5 152.5v453h32v-456q0 -110 -63 -171t-163 -61z" />
    <glyph glyph-name="ubreve" unicode="&#x16d;" horiz-adv-x="389" 
d="M194 361q-33 0 -56.5 17.5t-32.5 47.5l26 9q15 -46 63 -46t63 46l27 -9q-9 -30 -33 -47.5t-57 -17.5zM180 -8q-57 0 -90.5 32t-33.5 96v198h30v-193q0 -106 95 -106q52 0 84.5 32t32.5 86v181h30v-318h-30v60q-16 -32 -47.5 -50t-70.5 -18z" />
    <glyph glyph-name="Uring" unicode="&#x16e;" horiz-adv-x="634" 
d="M317 739q-30 0 -51 21t-21 50t21 50.5t51 21.5t51 -21.5t21 -50.5t-21 -50t-51 -21zM316 -8q-99 0 -161.5 61t-62.5 171v456h32v-453q0 -98 52.5 -152.5t139.5 -54.5t140.5 54.5t53.5 152.5v453h32v-456q0 -110 -63 -171t-163 -61zM317 763q20 0 32.5 13t12.5 34
t-12.5 34.5t-32.5 13.5t-32.5 -13.5t-12.5 -34.5t12.5 -34t32.5 -13z" />
    <glyph glyph-name="uring" unicode="&#x16f;" horiz-adv-x="389" 
d="M194 371q-30 0 -51 21t-21 50t21 50.5t51 21.5t51 -21.5t21 -50.5t-21 -50t-51 -21zM180 -8q-57 0 -90.5 32t-33.5 96v198h30v-193q0 -106 95 -106q52 0 84.5 32t32.5 86v181h30v-318h-30v60q-16 -32 -47.5 -50t-70.5 -18zM194 395q20 0 32.5 13t12.5 34t-12.5 34.5
t-32.5 13.5t-32.5 -13.5t-12.5 -34.5t12.5 -34t32.5 -13z" />
    <glyph glyph-name="Uhungarumlaut" unicode="&#x170;" horiz-adv-x="634" 
d="M348 744l60 132h32l-67 -132h-25zM266 744l60 132h32l-67 -132h-25zM316 -8q-99 0 -161.5 61t-62.5 171v456h32v-453q0 -98 52.5 -152.5t139.5 -54.5t140.5 54.5t53.5 152.5v453h32v-456q0 -110 -63 -171t-163 -61z" />
    <glyph glyph-name="uhungarumlaut" unicode="&#x171;" horiz-adv-x="389" 
d="M225 376l60 132h32l-67 -132h-25zM143 376l60 132h32l-67 -132h-25zM180 -8q-57 0 -90.5 32t-33.5 96v198h30v-193q0 -106 95 -106q52 0 84.5 32t32.5 86v181h30v-318h-30v60q-16 -32 -47.5 -50t-70.5 -18z" />
    <glyph glyph-name="Uogonek" unicode="&#x172;" horiz-adv-x="634" 
d="M316 -8q-99 0 -161.5 61t-62.5 171v456h32v-453q0 -98 52.5 -152.5t139.5 -54.5t140.5 54.5t53.5 152.5v453h32v-456q0 -102 -54.5 -162t-143.5 -69l-22 -34q-32 -50 -32 -82q0 -19 11 -28.5t27 -9.5q28 0 45 31l22 -13q-20 -43 -67 -43q-27 0 -46.5 16.5t-19.5 45.5
q0 40 37 92z" />
    <glyph glyph-name="uogonek" unicode="&#x173;" horiz-adv-x="389" 
d="M298 -6v66q-16 -32 -47.5 -50t-70.5 -18q-57 0 -90.5 32t-33.5 96v198h30v-193q0 -106 95 -106q52 0 84.5 32t32.5 86v181h30v-318l-26 -41q-32 -50 -32 -82q0 -19 11 -28.5t27 -9.5q28 0 45 31l22 -13q-20 -43 -67 -43q-27 0 -46.5 16.5t-19.5 45.5q0 40 37 92z" />
    <glyph glyph-name="Ydieresis" unicode="&#x178;" horiz-adv-x="612" 
d="M365 638q-9 0 -16.5 7t-7.5 17t7.5 17t16.5 7t16.5 -7t7.5 -17t-7.5 -17t-16.5 -7zM261 638q-9 0 -16.5 7t-7.5 17t7.5 17t16.5 7t16.5 -7t7.5 -17t-7.5 -17t-16.5 -7zM290 210l-258 470h34l240 -438l241 438h33l-258 -470v0v0v0v-1v0v0v-1v0v-1v0v-1v-1v-1v-1v-1v-1v-1
v-1v-1v-1v-1v-1v-1v-1v-1v-1v-1v-1v-1v-1v-1v-1v-1v-1v-1v-1v-1v-1v-1v-1v-2v-1v-1v-1v-1v-1v-1v-1v-1v-1v-1v-1v-2v-1v-1v-1v-1v-1v-2v-1v-1v-1v-1v-2v-1v-1v-1v-2v-1v-1v-2v-1v-1v-2v-1v-1v-2v-1v-1v-2v-1v-1v-2v-1v-2v-1v-1v-2v-1v-2v-1v-2v-1v-2v-1v-2v-1v-2v-1v-2v-1
v-2v-1v-2v-1v-2v-1v-2v-2v-1v-2v-1v-2v-2v-1v-2v-2v-1v-2v-1v-2v-2v-1v-2v-2v-1v-2v-2v-2v-1v-2v-2v-1v-2v-2v-2v-1v-2v-2v-2v-2v-1v-2v-2v-2v-2v-1v-2v-2v-2v-2v-1v-2v-10h-32v210z" />
    <glyph glyph-name="Zacute" unicode="&#x179;" horiz-adv-x="564" 
d="M278 744l60 132h33l-68 -132h-25zM35 0v3l426 649h-382v28h433v-3l-426 -649h440v-28h-491z" />
    <glyph glyph-name="zacute" unicode="&#x17a;" horiz-adv-x="318" 
d="M150 376l60 132h33l-68 -132h-25zM29 0v3l207 289h-184v26h235v-3l-207 -289h206v-26h-257z" />
    <glyph glyph-name="Zdotaccent" unicode="&#x17b;" horiz-adv-x="564" 
d="M282 754q-9 0 -16.5 7t-7.5 17t7.5 17t16.5 7t16.5 -7t7.5 -17t-7.5 -17t-16.5 -7zM35 0v3l426 649h-382v28h433v-3l-426 -649h440v-28h-491z" />
    <glyph glyph-name="zdotaccent" unicode="&#x17c;" horiz-adv-x="318" 
d="M166 386q-9 0 -16.5 7t-7.5 17t7.5 17t16.5 7t16.5 -7t7.5 -17t-7.5 -17t-16.5 -7zM29 0v3l207 289h-184v26h235v-3l-207 -289h206v-26h-257z" />
    <glyph glyph-name="Zcaron" unicode="&#x17d;" horiz-adv-x="564" 
d="M35 0v3l426 649h-382v28h433v-3l-426 -649h440v-28h-491zM291 737l-92 112h26l67 -70l68 70h26l-92 -112h-3z" />
    <glyph glyph-name="zcaron" unicode="&#x17e;" horiz-adv-x="318" 
d="M29 0v3l207 289h-184v26h235v-3l-207 -289h206v-26h-257zM165 369l-92 112h26l67 -70l68 70h26l-92 -112h-3z" />
    <glyph glyph-name="florin" unicode="&#x192;" horiz-adv-x="322" 
d="M120 221h-74v27h77l19 171q5 45 29.5 67t59.5 22q47 0 75 -39l-23 -18q-22 29 -52 29q-52 0 -60 -65l-19 -167h92v-27h-95l-48 -433h-29z" />
    <glyph glyph-name="Scommaaccent" unicode="&#x218;" horiz-adv-x="521" 
d="M35 125l27 15q30 -56 81 -87.5t116 -31.5q80 0 125.5 38.5t45.5 102.5q0 60 -33 99t-111 76l-62 30q-80 39 -114 74.5t-34 96.5q0 67 47 108.5t117 41.5q118 0 178 -96l-24 -14q-51 82 -154 82q-58 0 -95.5 -34.5t-37.5 -87.5q0 -52 28.5 -80.5t102.5 -64.5l61 -30
q87 -43 124.5 -88t37.5 -113q0 -77 -54 -123.5t-148 -46.5q-153 0 -224 133zM236 -157l16 59q-17 4 -17 24q0 10 7.5 17.5t17.5 7.5q9 0 17 -7.5t8 -17.5q0 -7 -3 -13l-29 -70h-17z" />
    <glyph glyph-name="scommaaccent" unicode="&#x219;" horiz-adv-x="310" 
d="M248 270l-25 -13q-25 43 -75 43q-29 0 -47 -14t-18 -38q0 -14 4.5 -24t17 -17.5t22 -11.5t31.5 -11q59 -19 87 -40t28 -63t-30.5 -65.5t-79.5 -23.5q-96 0 -131 79l26 11q27 -64 105 -64q36 0 58 16.5t22 45.5t-21.5 44.5t-70.5 31.5q-51 17 -74 36t-23 56q0 35 26 56.5
t68 21.5q70 0 100 -56zM131 -157l16 59q-17 4 -17 24q0 10 7.5 17.5t17.5 7.5q9 0 17 -7.5t8 -17.5q0 -7 -3 -13l-29 -70h-17z" />
    <glyph glyph-name="circumflex" unicode="&#x2c6;" horiz-adv-x="500" 
d="M156 376l92 112h3l92 -112h-26l-67 70l-68 -70h-26z" />
    <glyph glyph-name="caron" unicode="&#x2c7;" horiz-adv-x="500" 
d="M249 369l-92 112h26l67 -70l68 70h26l-92 -112h-3z" />
    <glyph glyph-name="breve" unicode="&#x2d8;" horiz-adv-x="500" 
d="M250 361q-33 0 -56.5 17.5t-32.5 47.5l26 9q15 -46 63 -46t63 46l27 -9q-9 -30 -33 -47.5t-57 -17.5z" />
    <glyph glyph-name="dotaccent" unicode="&#x2d9;" horiz-adv-x="500" 
d="M250 386q-9 0 -16.5 7t-7.5 17t7.5 17t16.5 7t16.5 -7t7.5 -17t-7.5 -17t-16.5 -7z" />
    <glyph glyph-name="ring" unicode="&#x2da;" horiz-adv-x="500" 
d="M250 371q-30 0 -51 21t-21 50t21 50.5t51 21.5t51 -21.5t21 -50.5t-21 -50t-51 -21zM250 395q20 0 32.5 13t12.5 34t-12.5 34.5t-32.5 13.5t-32.5 -13.5t-12.5 -34.5t12.5 -34t32.5 -13z" />
    <glyph glyph-name="ogonek" unicode="&#x2db;" horiz-adv-x="500" 
d="M235 -186q-27 0 -46.5 16.5t-19.5 45.5q0 40 37 92l23 32h26l-26 -41q-32 -50 -32 -82q0 -19 11 -28.5t27 -9.5q28 0 45 31l22 -13q-20 -43 -67 -43z" />
    <glyph glyph-name="tilde" unicode="&#x2dc;" horiz-adv-x="500" 
d="M293 371q-21 0 -48 21t-39 21t-18 -9.5t-11 -30.5l-25 4q12 63 55 63q21 0 48 -21t39 -21t18 9.5t11 30.5l25 -4q-12 -63 -55 -63z" />
    <glyph glyph-name="hungarumlaut" unicode="&#x2dd;" horiz-adv-x="500" 
d="M269 376l60 132h32l-67 -132h-25zM187 376l60 132h32l-67 -132h-25z" />
    <glyph glyph-name="Delta" unicode="&#x394;" 
d="M71 186q-11 0 -19.5 8t-8.5 20t8.5 20t19.5 8t19.5 -8t8.5 -20t-8.5 -20t-19.5 -8z" />
    <glyph glyph-name="Delta" unicode="&#x2206;" 
d="M71 186q-11 0 -19.5 8t-8.5 20t8.5 20t19.5 8t19.5 -8t8.5 -20t-8.5 -20t-19.5 -8z" />
    <glyph glyph-name="Omega" unicode="&#x3a9;" 
d="M71 186q-11 0 -19.5 8t-8.5 20t8.5 20t19.5 8t19.5 -8t8.5 -20t-8.5 -20t-19.5 -8z" />
    <glyph glyph-name="Omega" unicode="&#x2126;" 
d="M71 186q-11 0 -19.5 8t-8.5 20t8.5 20t19.5 8t19.5 -8t8.5 -20t-8.5 -20t-19.5 -8z" />
    <glyph glyph-name="pi" unicode="&#x3c0;" 
d="M71 186q-11 0 -19.5 8t-8.5 20t8.5 20t19.5 8t19.5 -8t8.5 -20t-8.5 -20t-19.5 -8z" />
    <glyph glyph-name="endash" unicode="&#x2013;" horiz-adv-x="387" 
d="M39 160v26h309v-26h-309z" />
    <glyph glyph-name="emdash" unicode="&#x2014;" horiz-adv-x="602" 
d="M39 160v26h524v-26h-524z" />
    <glyph glyph-name="quoteleft" unicode="&#x2018;" 
d="M98 680l-18 -61q19 -4 19 -26q0 -12 -8.5 -20t-19.5 -8t-19.5 8t-8.5 20q0 7 3 14l33 73h19z" />
    <glyph glyph-name="quoteright" unicode="&#x2019;" 
d="M44 571l18 61q-19 4 -19 26q0 12 8.5 20t19.5 8t19.5 -8t8.5 -20q0 -6 -3 -14l-33 -73h-19z" />
    <glyph glyph-name="quotesinglbase" unicode="&#x201a;" 
d="M44 -65l18 61q-19 4 -19 26q0 12 8.5 20t19.5 8t19.5 -8t8.5 -20q0 -6 -3 -14l-33 -73h-19z" />
    <glyph glyph-name="quotedblleft" unicode="&#x201c;" horiz-adv-x="244" 
d="M200 680l-18 -61q19 -4 19 -26q0 -12 -8.5 -20t-19.5 -8t-19.5 8t-8.5 20q0 7 3 14l33 73h19zM98 680l-18 -61q19 -4 19 -26q0 -12 -8.5 -20t-19.5 -8t-19.5 8t-8.5 20q0 7 3 14l33 73h19z" />
    <glyph glyph-name="quotedblright" unicode="&#x201d;" horiz-adv-x="244" 
d="M146 571l18 61q-19 4 -19 26q0 12 8.5 20t19.5 8t19.5 -8t8.5 -20q0 -6 -3 -14l-33 -73h-19zM44 571l18 61q-19 4 -19 26q0 12 8.5 20t19.5 8t19.5 -8t8.5 -20q0 -6 -3 -14l-33 -73h-19z" />
    <glyph glyph-name="quotedblbase" unicode="&#x201e;" horiz-adv-x="244" 
d="M146 -65l18 61q-19 4 -19 26q0 12 8.5 20t19.5 8t19.5 -8t8.5 -20q0 -6 -3 -14l-33 -73h-19zM44 -65l18 61q-19 4 -19 26q0 12 8.5 20t19.5 8t19.5 -8t8.5 -20q0 -6 -3 -14l-33 -73h-19z" />
    <glyph glyph-name="dagger" unicode="&#x2020;" horiz-adv-x="246" 
d="M108 554h-78v26h78v100h30v-100h78v-26h-78v-220h-30v220z" />
    <glyph glyph-name="daggerdbl" unicode="&#x2021;" horiz-adv-x="246" 
d="M108 554h-78v26h78v100h30v-100h78v-26h-78v-94h78v-26h-78v-100h-30v100h-78v26h78v94z" />
    <glyph glyph-name="bullet" unicode="&#x2022;" horiz-adv-x="248" 
d="M124 150q-29 0 -49.5 20.5t-20.5 49.5q0 30 20.5 50t49.5 20t49.5 -20t20.5 -50q0 -29 -20.5 -49.5t-49.5 -20.5z" />
    <glyph glyph-name="ellipsis" unicode="&#x2026;" horiz-adv-x="434" 
d="M363 -6q-11 0 -19.5 8t-8.5 20t8.5 20t19.5 8t19.5 -8t8.5 -20t-8.5 -20t-19.5 -8zM217 -6q-11 0 -19.5 8t-8.5 20t8.5 20t19.5 8t19.5 -8t8.5 -20t-8.5 -20t-19.5 -8zM71 -6q-11 0 -19.5 8t-8.5 20t8.5 20t19.5 8t19.5 -8t8.5 -20t-8.5 -20t-19.5 -8z" />
    <glyph glyph-name="perthousand" unicode="&#x2030;" horiz-adv-x="1026" 
d="M172 226q-57 0 -99 40.5t-42 100.5t42 100.5t99 40.5t99 -40.5t42 -100.5t-42 -100.5t-99 -40.5zM178 0l309 500h32l-309 -500h-32zM854 -8q-57 0 -99 40.5t-42 100.5t42 100.5t99 40.5t99 -40.5t42 -100.5t-42 -100.5t-99 -40.5zM525 -8q-57 0 -99 40.5t-42 100.5
t42 100.5t99 40.5t99 -40.5t42 -100.5t-42 -100.5t-99 -40.5zM172 253q47 0 79 32t32 82t-32 82t-79 32t-79 -32t-32 -82t32 -82t79 -32zM854 19q47 0 79 32t32 82t-32 82t-79 32t-79 -32t-32 -82t32 -82t79 -32zM525 19q47 0 79 32t32 82t-32 82t-79 32t-79 -32t-32 -82
t32 -82t79 -32z" />
    <glyph glyph-name="guilsinglleft" unicode="&#x2039;" horiz-adv-x="175" 
d="M109 32l-77 123v4l77 121h34l-77 -123l77 -125h-34z" />
    <glyph glyph-name="guilsinglright" unicode="&#x203a;" horiz-adv-x="175" 
d="M32 32l77 123l-77 125h34l77 -123v-4l-77 -121h-34z" />
    <glyph glyph-name="fraction" unicode="&#x2044;" horiz-adv-x="321" 
d="M-10 0l309 500h32l-309 -500h-32z" />
    <glyph glyph-name="fraction" unicode="&#x2215;" horiz-adv-x="321" 
d="M-10 0l309 500h32l-309 -500h-32z" />
    <glyph glyph-name="Euro" unicode="&#x20ac;" horiz-adv-x="614" 
d="M121 286h-82v27h87q20 86 89 140.5t158 54.5q117 0 195 -91l-22 -18q-70 81 -173 81q-78 0 -136.5 -46t-78.5 -121h272v-27h-277q-2 -24 -2 -36q0 -22 3 -41h276v-27h-270q20 -73 78 -117.5t135 -44.5q54 0 101 23.5t77 63.5l22 -17q-76 -98 -200 -98q-88 0 -155.5 52.5
t-90.5 137.5h-88v27h83q-3 20 -3 41q0 12 2 36z" />
    <glyph glyph-name="trademark" unicode="&#x2122;" horiz-adv-x="507" 
d="M230 462v221h3l105 -121l105 121h3v-221h-26v160l-82 -97l-82 97v-160h-26zM95 655h-63v25h152v-25h-62v-193h-27v193z" />
    <glyph glyph-name="partialdiff" unicode="&#x2202;" 
d="M71 186q-11 0 -19.5 8t-8.5 20t8.5 20t19.5 8t19.5 -8t8.5 -20t-8.5 -20t-19.5 -8z" />
    <glyph glyph-name="product" unicode="&#x220f;" 
d="M71 186q-11 0 -19.5 8t-8.5 20t8.5 20t19.5 8t19.5 -8t8.5 -20t-8.5 -20t-19.5 -8z" />
    <glyph glyph-name="minus" unicode="&#x2212;" 
d="M71 186q-11 0 -19.5 8t-8.5 20t8.5 20t19.5 8t19.5 -8t8.5 -20t-8.5 -20t-19.5 -8z" />
    <glyph glyph-name="radical" unicode="&#x221a;" 
d="M71 186q-11 0 -19.5 8t-8.5 20t8.5 20t19.5 8t19.5 -8t8.5 -20t-8.5 -20t-19.5 -8z" />
    <glyph glyph-name="integral" unicode="&#x222b;" 
d="M71 186q-11 0 -19.5 8t-8.5 20t8.5 20t19.5 8t19.5 -8t8.5 -20t-8.5 -20t-19.5 -8z" />
    <glyph glyph-name="approxequal" unicode="&#x2248;" 
d="M71 186q-11 0 -19.5 8t-8.5 20t8.5 20t19.5 8t19.5 -8t8.5 -20t-8.5 -20t-19.5 -8z" />
    <glyph glyph-name="lessequal" unicode="&#x2264;" 
d="M71 186q-11 0 -19.5 8t-8.5 20t8.5 20t19.5 8t19.5 -8t8.5 -20t-8.5 -20t-19.5 -8z" />
    <glyph glyph-name="greaterequal" unicode="&#x2265;" 
d="M71 186q-11 0 -19.5 8t-8.5 20t8.5 20t19.5 8t19.5 -8t8.5 -20t-8.5 -20t-19.5 -8z" />
    <glyph glyph-name="lozenge" unicode="&#x25ca;" 
d="M71 186q-11 0 -19.5 8t-8.5 20t8.5 20t19.5 8t19.5 -8t8.5 -20t-8.5 -20t-19.5 -8z" />
    <glyph glyph-name="plusminus" horiz-adv-x="549" 
d="M296 292v-292h-30v292h-159v-292h-30v292h-45v26h45v311q0 43 21.5 66t56.5 23q43 0 67 -32l-20 -19q-19 24 -47 24q-48 0 -48 -66v-307h159v282q0 56 31 87t79 31q49 0 79 -30.5t30 -87.5v-600h-30v596q0 95 -79 95q-80 0 -80 -95v-278h83v-26h-83z" />
    <glyph glyph-name="Q.alt1" horiz-adv-x="784" 
d="M376 -5q27 -19 56 -41q28 -22 47 -34t52 -23.5t68 -11.5q56 0 100 36l19 -22q-47 -43 -119 -43q-87 0 -186 78q-32 26 -54 41t-58 29.5t-69 14.5q-67 0 -114 -57l-21 17q47 57 111 64q-75 44 -119.5 122.5t-44.5 174.5q0 149 101 248.5t247 99.5t247 -99.5t101 -248.5
q0 -150 -100.5 -248t-250.5 -98q-8 0 -13 1zM392 21q135 0 225 91t90 228t-90 228t-225 91t-225 -91t-90 -228t90 -228t225 -91z" />
    <glyph glyph-name="apple" 
d="M71 186q-11 0 -19.5 8t-8.5 20t8.5 20t19.5 8t19.5 -8t8.5 -20t-8.5 -20t-19.5 -8z" />
    <glyph glyph-name="G.alt" horiz-adv-x="766" 
d="M393 -8q-147 0 -248 98.5t-101 249.5q0 149 100 248.5t245 99.5q184 0 283 -135l-25 -18q-89 124 -258 124q-134 0 -223 -91t-89 -228t90.5 -228t225.5 -91q67 0 121.5 19t88.5 51.5t55 69t30 76.5h-283v28h318q-16 -119 -102.5 -196t-227.5 -77z" />
    <glyph glyph-name="K.alt" horiz-adv-x="552" 
d="M131 258l338 422h37q-339 -424 -340 -424l351 -256h-48l-338 247v-247h-32v680h32v-422z" />
    <glyph glyph-name="M.alt" horiz-adv-x="815" 
d="M77 0l76 694h4l250 -500l251 500h4l76 -694h-30l-66 599l-235 -465h-3l-232 466l-66 -600h-29z" />
    <glyph glyph-name="Q.alt" horiz-adv-x="784" 
d="M634 86l30 -31q30 -31 60 -63l31 -31l-22 -20l-122 126q-92 -75 -219 -75q-146 0 -247 99.5t-101 248.5t101 248.5t247 99.5t247 -99.5t101 -248.5q0 -151 -106 -254zM591 88l-87 91l22 20l87 -91q94 91 94 232q0 137 -90 228t-225 91t-225 -91t-90 -228t90 -228t225 -91
q114 0 199 67z" />
    <glyph glyph-name="W.alt" horiz-adv-x="929" 
d="M450 401l-113 279h32l97 -239l96 239h30l-112 -276l140 -346l239 622h31l-267 -697h-4q-154 382 -155 382l-154 -382h-4l-267 697h32l240 -623z" />
    <glyph glyph-name="a.alt" horiz-adv-x="411" 
d="M194 -8q-69 0 -114.5 48t-45.5 119t45.5 119t114.5 48q84 0 126 -77v69h30v-318h-30v69q-42 -77 -126 -77zM194 19q57 0 92.5 39.5t35.5 100.5t-35.5 100.5t-92.5 39.5t-93 -39.5t-36 -100.5t36 -100.5t93 -39.5z" />
    <glyph glyph-name="g.alt" horiz-adv-x="418" 
d="M205 -222q-56 0 -97 26t-59 69l27 10q15 -36 49.5 -56.5t79.5 -20.5q57 0 89.5 35.5t32.5 97.5v130q-42 -77 -130 -77q-70 0 -116.5 48t-46.5 119t46.5 119t116.5 48q88 0 130 -77v69h30v-381q0 -72 -41 -115.5t-111 -43.5zM197 19q58 0 95 39.5t37 100.5t-37 100.5
t-95 39.5t-95 -39.5t-37 -100.5t37 -100.5t95 -39.5z" />
    <glyph glyph-name="k.alt" horiz-adv-x="324" 
d="M91 141v-141h-30v710h30v-555l163 163h38l-169 -168l47 -38l92 -74l46 -38h-45z" />
    <glyph glyph-name="u.alt" horiz-adv-x="380" 
d="M190 -8q-57 0 -95.5 35.5t-38.5 106.5v184h30v-179q0 -120 104 -120t104 120v179h30v-184q0 -71 -38.5 -106.5t-95.5 -35.5z" />
    <glyph glyph-name="aacute.alt" horiz-adv-x="411" 
d="M194 -8q-69 0 -114.5 48t-45.5 119t45.5 119t114.5 48q84 0 126 -77v69h30v-318h-30v69q-42 -77 -126 -77zM194 19q57 0 92.5 39.5t35.5 100.5t-35.5 100.5t-92.5 39.5t-93 -39.5t-36 -100.5t36 -100.5t93 -39.5zM181 376l60 132h33l-68 -132h-25z" />
    <glyph glyph-name="agrave.alt" horiz-adv-x="411" 
d="M194 -8q-69 0 -114.5 48t-45.5 119t45.5 119t114.5 48q84 0 126 -77v69h30v-318h-30v69q-42 -77 -126 -77zM194 19q57 0 92.5 39.5t35.5 100.5t-35.5 100.5t-92.5 39.5t-93 -39.5t-36 -100.5t36 -100.5t93 -39.5zM180 376l-68 132h33l60 -132h-25z" />
    <glyph glyph-name="acircumflex.alt" horiz-adv-x="411" 
d="M194 -8q-69 0 -114.5 48t-45.5 119t45.5 119t114.5 48q84 0 126 -77v69h30v-318h-30v69q-42 -77 -126 -77zM194 19q57 0 92.5 39.5t35.5 100.5t-35.5 100.5t-92.5 39.5t-93 -39.5t-36 -100.5t36 -100.5t93 -39.5zM102 376l92 112h3l92 -112h-26l-67 70l-68 -70h-26z" />
    <glyph glyph-name="adieresis.alt" horiz-adv-x="411" 
d="M194 -8q-69 0 -114.5 48t-45.5 119t45.5 119t114.5 48q84 0 126 -77v69h30v-318h-30v69q-42 -77 -126 -77zM194 19q57 0 92.5 39.5t35.5 100.5t-35.5 100.5t-92.5 39.5t-93 -39.5t-36 -100.5t36 -100.5t93 -39.5zM246 381q-9 0 -16.5 7t-7.5 17t7.5 17t16.5 7t16.5 -7
t7.5 -17t-7.5 -17t-16.5 -7zM142 381q-9 0 -16.5 7t-7.5 17t7.5 17t16.5 7t16.5 -7t7.5 -17t-7.5 -17t-16.5 -7z" />
    <glyph glyph-name="atilde.alt" horiz-adv-x="411" 
d="M194 -8q-69 0 -114.5 48t-45.5 119t45.5 119t114.5 48q84 0 126 -77v69h30v-318h-30v69q-42 -77 -126 -77zM194 19q57 0 92.5 39.5t35.5 100.5t-35.5 100.5t-92.5 39.5t-93 -39.5t-36 -100.5t36 -100.5t93 -39.5zM239 371q-20 0 -47.5 21t-39.5 21t-18 -9.5t-11 -30.5
l-25 4q12 63 55 63q21 0 48 -21t39 -21t18 9.5t11 30.5l25 -4q-12 -63 -55 -63z" />
    <glyph glyph-name="aring.alt" horiz-adv-x="411" 
d="M194 -8q-69 0 -114.5 48t-45.5 119t45.5 119t114.5 48q84 0 126 -77v69h30v-318h-30v69q-42 -77 -126 -77zM194 19q57 0 92.5 39.5t35.5 100.5t-35.5 100.5t-92.5 39.5t-93 -39.5t-36 -100.5t36 -100.5t93 -39.5zM193 371q-30 0 -51 21t-21 50t21 50.5t51 21.5t51 -21.5
t21 -50.5t-21 -50t-51 -21zM193 395q20 0 32.5 13t12.5 34t-12.5 34.5t-32.5 13.5t-32.5 -13.5t-12.5 -34.5t12.5 -34t32.5 -13z" />
    <glyph glyph-name="uacute.alt" horiz-adv-x="380" 
d="M190 -8q-57 0 -95.5 35.5t-38.5 106.5v184h30v-179q0 -120 104 -120t104 120v179h30v-184q0 -71 -38.5 -106.5t-95.5 -35.5zM175 376l60 132h33l-68 -132h-25z" />
    <glyph glyph-name="ugrave.alt" horiz-adv-x="380" 
d="M190 -8q-57 0 -95.5 35.5t-38.5 106.5v184h30v-179q0 -120 104 -120t104 120v179h30v-184q0 -71 -38.5 -106.5t-95.5 -35.5zM180 376l-68 132h33l60 -132h-25z" />
    <glyph glyph-name="ucircumflex.alt" horiz-adv-x="380" 
d="M190 -8q-57 0 -95.5 35.5t-38.5 106.5v184h30v-179q0 -120 104 -120t104 120v179h30v-184q0 -71 -38.5 -106.5t-95.5 -35.5zM96 376l92 112h3l92 -112h-26l-67 70l-68 -70h-26z" />
    <glyph glyph-name="udieresis.alt" horiz-adv-x="380" 
d="M190 -8q-57 0 -95.5 35.5t-38.5 106.5v184h30v-179q0 -120 104 -120t104 120v179h30v-184q0 -71 -38.5 -106.5t-95.5 -35.5zM242 381q-9 0 -16.5 7t-7.5 17t7.5 17t16.5 7t16.5 -7t7.5 -17t-7.5 -17t-16.5 -7zM138 381q-9 0 -16.5 7t-7.5 17t7.5 17t16.5 7t16.5 -7
t7.5 -17t-7.5 -17t-16.5 -7z" />
    <glyph glyph-name="zero.up" horiz-adv-x="784" 
d="M392 -8q-146 0 -247 99.5t-101 248.5t101 248.5t247 99.5t247 -99.5t101 -248.5t-101 -248.5t-247 -99.5zM392 21q135 0 225 91t90 228t-90 228t-225 91t-225 -91t-90 -228t90 -228t225 -91z" />
    <glyph glyph-name="one.up" horiz-adv-x="276" 
d="M136 0v652h-94v28h126v-680h-32z" />
    <glyph glyph-name="two.up" horiz-adv-x="507" 
d="M38 0v4l277 297q52 55 78.5 103t26.5 107q0 66 -41.5 107t-111.5 41q-64 0 -109 -37.5t-62 -98.5l-29 9q20 70 73 113t127 43q84 0 134.5 -49.5t50.5 -127.5q0 -65 -31.5 -118.5t-87.5 -113.5l-234 -251h360v-28h-421z" />
    <glyph glyph-name="three.up" horiz-adv-x="535" 
d="M253 -8q-75 0 -134 34.5t-88 88.5l25 15q60 -109 197 -109q96 0 152 57t56 145q0 87 -55.5 141t-150.5 54q-42 0 -75 -13l-2 4l223 243h-317v28h377v-4l-212 -231q109 3 176.5 -60.5t67.5 -161.5q0 -99 -66.5 -165t-173.5 -66z" />
    <glyph glyph-name="four.up" horiz-adv-x="541" 
d="M439 170h69v-28h-69v-142h-31v142h-390v4l417 551h4v-527zM408 170v445l-337 -445h337z" />
    <glyph glyph-name="five.up" horiz-adv-x="521" 
d="M250 -8q-69 0 -128 30.5t-91 84.5l27 14q26 -46 78 -73t114 -27q90 0 143.5 58.5t53.5 146.5t-55.5 147t-146.5 59q-92 0 -151 -53l-4 2v299h347v-28h-318v-226q56 35 126 35q103 0 168.5 -67.5t65.5 -167.5q0 -102 -62 -168t-167 -66z" />
    <glyph glyph-name="six.up" horiz-adv-x="530" 
d="M267 -8q-97 0 -160 64.5t-63 158.5q0 77 51 147l227 318h35l-201 -280q49 39 114 39q95 0 157.5 -65t62.5 -159t-63 -158.5t-160 -64.5zM267 21q85 0 138 56.5t53 137.5q0 82 -52.5 138.5t-138.5 56.5q-85 0 -138 -56t-53 -139q0 -81 53 -137.5t138 -56.5z" />
    <glyph glyph-name="seven.up" horiz-adv-x="520" 
d="M113 0l335 652h-416v28h461v-4l-347 -676h-33z" />
    <glyph glyph-name="eight.up" horiz-adv-x="550" 
d="M204 380q-51 16 -81 54t-30 91q0 70 51.5 116.5t130.5 46.5t131 -46.5t52 -116.5q0 -53 -30.5 -91t-81.5 -54q75 -17 119.5 -66t44.5 -120q0 -88 -66.5 -145t-168.5 -57q-101 0 -168 57t-67 145q0 71 45 120t119 66zM275 393q69 0 110 36.5t41 95.5q0 58 -41.5 96
t-109.5 38t-109 -38t-41 -96q0 -59 40.5 -95.5t109.5 -36.5zM275 21q91 0 147 48.5t56 124.5t-55.5 123.5t-147.5 47.5q-91 0 -147 -47.5t-56 -123.5t56 -124.5t147 -48.5z" />
    <glyph glyph-name="nine.up" horiz-adv-x="539" 
d="M196 0l185 272q-51 -40 -117 -40q-97 0 -160.5 66.5t-63.5 162.5q0 95 64.5 161t162.5 66q99 0 163.5 -66t64.5 -161q0 -73 -52 -150l-212 -311h-35zM267 261q87 0 141.5 57.5t54.5 142.5q0 83 -53.5 140.5t-142.5 57.5q-88 0 -141.5 -57.5t-53.5 -140.5q0 -84 52.5 -142
t142.5 -58z" />
    <glyph glyph-name="numbersign.up" horiz-adv-x="455" 
d="M157 535h-96v26h102l30 119h28l-30 -119h126l30 119h28l-30 -119h88v-26h-94l-42 -167h97v-26h-104l-28 -113h-28l28 113h-126l-28 -113h-28l28 113h-86v26h93zM311 535h-126l-42 -167h126z" />
    <glyph glyph-name="dollar.up" horiz-adv-x="516" 
d="M235 -7q-140 8 -202 134l27 13q29 -55 69.5 -85.5t105.5 -34.5v339l-16 8q-77 38 -112.5 77.5t-35.5 101.5q0 65 48 103t116 39v85h30v-87q91 -10 143 -92l-24 -17q-45 73 -119 81v-281l29 -14q87 -43 124.5 -88t37.5 -113q0 -75 -50.5 -121t-140.5 -49v-108h-30v109z
M235 660q-60 -1 -96.5 -31t-36.5 -83q0 -52 30 -85t101 -68l2 -1v268zM265 20q76 3 118 41t42 101q0 60 -33 99t-111 76q-1 1 -2.5 1.5t-5 2t-5.5 2.5l-3 1v-324z" />
    <glyph glyph-name="percent.up" horiz-adv-x="695" 
d="M191 374q-63 0 -109.5 45t-46.5 112t46.5 112t109.5 45t109.5 -45t46.5 -112t-46.5 -112t-109.5 -45zM116 0l430 680h33l-430 -680h-33zM504 -8q-63 0 -109.5 45t-46.5 112t46.5 112t109.5 45t109.5 -45t46.5 -112t-46.5 -112t-109.5 -45zM191 402q53 0 89.5 36t36.5 93
t-36.5 93t-89.5 36t-89.5 -36t-36.5 -93t36.5 -93t89.5 -36zM504 20q53 0 89.5 36t36.5 93t-36.5 93t-89.5 36t-89.5 -36t-36.5 -93t36.5 -93t89.5 -36z" />
    <glyph glyph-name="parenleft.up" horiz-adv-x="254" 
d="M203 -136q-163 177 -163 427t163 427l21 -19q-152 -172 -152 -408t152 -408z" />
    <glyph glyph-name="parenright.up" horiz-adv-x="254" 
d="M51 -136l-21 19q152 172 152 408t-152 408l21 19q163 -177 163 -427t-163 -427z" />
    <glyph glyph-name="plus.up" horiz-adv-x="312" 
d="M171 309v-113h-30v113h-102v28h102v113h30v-113h102v-28h-102z" />
    <glyph glyph-name="comma.up" 
d="M44 -70l18 66q-19 4 -19 26q0 12 8.5 20t19.5 8t19.5 -8t8.5 -20q0 -8 -3 -14l-33 -78h-19z" />
    <glyph glyph-name="less.up" horiz-adv-x="312" 
d="M273 199l-241 123v4l241 121v-31l-185 -93l185 -93v-31z" />
    <glyph glyph-name="equal.up" horiz-adv-x="312" 
d="M39 359v28h234v-28h-234zM39 259v28h234v-28h-234z" />
    <glyph glyph-name="greater.up" horiz-adv-x="312" 
d="M39 199v31l185 93l-185 93v31l241 -123v-4z" />
    <glyph glyph-name="degree.up" horiz-adv-x="317" 
d="M159 436q-53 0 -90 36.5t-37 88.5q0 54 37 90.5t90 36.5t89.5 -36.5t36.5 -90.5q0 -53 -36.5 -89t-89.5 -36zM159 464q43 0 69 27.5t26 69.5q0 43 -26 71t-69 28t-69.5 -28t-26.5 -71q0 -42 26.5 -69.5t69.5 -27.5z" />
    <glyph glyph-name="sterling.up" horiz-adv-x="517" 
d="M162 238h-113v28h103q-4 12 -15.5 42t-16.5 46t-12.5 41.5t-10.5 49t-3 47.5q0 84 56.5 140t145.5 56q131 0 188 -119l-27 -13q-51 103 -161 103q-76 0 -122.5 -47.5t-46.5 -119.5q0 -30 6 -63.5t11.5 -52t19.5 -59t18 -51.5h178v-28h-168q20 -67 20 -129v-5
q1 -1 15.5 -14t17.5 -15t16.5 -13t19 -13.5t18.5 -10t22.5 -9.5t23 -4.5t27.5 -2.5q38 0 62 12.5t48 37.5l22 -20q-29 -30 -58 -45t-74 -15q-34 0 -68 15t-49.5 27t-48.5 39q-11 -34 -37 -57.5t-63 -23.5t-63 22t-26 59t25 59t62 22q40 0 79 -27q-3 55 -21 111zM181 93
q-42 33 -77 33q-24 0 -40.5 -14t-16.5 -39q0 -24 17 -38t42 -14q29 0 49.5 22t25.5 50z" />
    <glyph glyph-name="section.up" horiz-adv-x="540" 
d="M119 440q-25 38 -25 88q0 70 50 115t124 45q65 0 111 -29t66 -73l-27 -13q-41 86 -150 86q-63 0 -102.5 -37t-39.5 -94q0 -55 28 -86t83 -55l127 -54q73 -31 104.5 -68t31.5 -89q0 -39 -23 -69.5t-62 -47.5q30 -38 30 -87q0 -69 -46 -110.5t-127 -41.5q-78 0 -130 33.5
t-77 83.5l27 14q51 -102 180 -102q65 0 103 33.5t38 89.5q0 49 -30.5 79.5t-88.5 55.5l-122 52q-71 30 -101.5 65.5t-30.5 94.5q0 80 79 121zM397 78q33 13 52.5 39.5t19.5 58.5q0 44 -26 73t-91 57l-127 54q-59 25 -91 60q-63 -33 -63 -101q0 -50 26 -78.5t87 -54.5
l122 -52q59 -25 91 -56z" />
    <glyph glyph-name="germandbls.up" horiz-adv-x="400" 
d="M268 -8q-83 0 -119 74l24 13q17 -31 38.5 -46t56.5 -15q34 0 52.5 16.5t18.5 44.5q0 33 -15.5 47.5t-56.5 29.5q-54 19 -78.5 45.5t-13.5 81.5l58 299q10 52 -8 80.5t-56 28.5q-78 0 -78 -104v-587h-30v591q0 64 31 95.5t77 31.5q49 0 76.5 -38t15.5 -102l-57 -295
q-3 -13 -3.5 -24.5t2.5 -20t5 -15t9.5 -12t11 -8.5t14 -7.5t14.5 -6t17 -5.5q48 -16 71.5 -38.5t23.5 -65.5q0 -41 -26.5 -64.5t-74.5 -23.5z" />
    <glyph glyph-name="copyright.up" horiz-adv-x="786" 
d="M393 -8q-143 0 -246 100t-103 248t103 248t246 100t246 -100t103 -248t-103 -248t-246 -100zM393 20q133 0 225.5 91.5t92.5 228.5t-92.5 228.5t-225.5 91.5t-225.5 -91.5t-92.5 -228.5t92.5 -228.5t225.5 -91.5zM400 124q-90 0 -153 61t-63 153t63 153.5t153 61.5
q52 0 95 -21t69 -59l-23 -17q-48 69 -141 69q-78 0 -131.5 -53.5t-53.5 -133.5t53.5 -133t131.5 -53q95 0 145 72l24 -16q-27 -40 -71.5 -62t-97.5 -22z" />
    <glyph glyph-name="yen.up" horiz-adv-x="586" 
d="M277 202l-17 35h-189v28h175l-207 415h35l220 -441l220 441h33l-207 -415h175v-28h-189l-17 -34v-32h206v-28h-206v-143h-32v143h-206v28h206v31z" />
    <glyph glyph-name="ordfeminine.up" horiz-adv-x="360" 
d="M274 552v10q0 57 -22.5 78t-66.5 21q-61 0 -102 -55l-21 15q41 67 123 67q119 0 119 -121v-205h-30v42q-36 -50 -109 -50q-54 0 -89 26.5t-35 74.5t36 72.5t89 24.5h108zM274 526h-104q-43 0 -71 -17t-28 -54q0 -74 98 -74q43 0 74 22.5t31 64.5v58z" />
    <glyph glyph-name="ordmasculine.up" horiz-adv-x="396" 
d="M198 354q-68 0 -116 48.5t-48 118.5t48 118.5t116 48.5t116 -48.5t48 -118.5t-48 -118.5t-116 -48.5zM198 380q57 0 95 40.5t38 100.5t-38 100.5t-95 40.5t-95 -40.5t-38 -100.5t38 -100.5t95 -40.5z" />
    <glyph glyph-name="florin.up" horiz-adv-x="344" 
d="M130 271h-76v27h79l33 301q5 45 29.5 67t59.5 22q47 0 75 -39l-23 -18q-22 29 -52 29q-51 0 -59 -65l-33 -297h89v-27h-92l-54 -483h-30z" />
    <glyph glyph-name="fraction.up" horiz-adv-x="423" 
d="M-20 0l431 680h32l-431 -680h-32z" />
    <glyph glyph-name="Euro.up" horiz-adv-x="779" 
d="M114 341h-93v28h94q10 139 107.5 229t233.5 90q87 0 149.5 -30.5t113.5 -93.5l-24 -18q-46 57 -102 85t-137 28q-126 0 -212 -82t-96 -208h352v-28h-353v-1q0 -37 8 -75h345v-28h-338q30 -98 110.5 -157t187.5 -59q170 0 258 122l24 -18q-96 -133 -282 -133
q-117 0 -208.5 67.5t-123.5 177.5h-107v28h100q-7 42 -7 75v1z" />
    <glyph glyph-name="perthousand.up" horiz-adv-x="1061" 
d="M191 374q-63 0 -109.5 45t-46.5 112t46.5 112t109.5 45t109.5 -45t46.5 -112t-46.5 -112t-109.5 -45zM116 0l430 680h33l-430 -680h-33zM870 -8q-63 0 -109.5 45t-46.5 112t46.5 112t109.5 45t109.5 -45t46.5 -112t-46.5 -112t-109.5 -45zM504 -8q-63 0 -109.5 45
t-46.5 112t46.5 112t109.5 45t109.5 -45t46.5 -112t-46.5 -112t-109.5 -45zM191 402q53 0 89.5 36t36.5 93t-36.5 93t-89.5 36t-89.5 -36t-36.5 -93t36.5 -93t89.5 -36zM870 20q53 0 89.5 36t36.5 93t-36.5 93t-89.5 36t-89.5 -36t-36.5 -93t36.5 -93t89.5 -36zM504 20
q53 0 89.5 36t36.5 93t-36.5 93t-89.5 36t-89.5 -36t-36.5 -93t36.5 -93t89.5 -36z" />
    <glyph glyph-name="AE.alt" horiz-adv-x="910" 
d="M483 237l74 -209h322v-28h-345l-48 137v0v0v0v0h-1v0v0h-1v0h-1v0h-1v0h-1v0h-1v0h-1h-1h-1h-1h-1h-1h-1h-1h-1h-1h-1h-1h-1h-1h-1h-1h-1h-1h-1h-1h-1h-1h-1h-1h-1h-1h-1h-1h-1h-1h-1h-1h-1h-1h-1h-1h-1h-1h-1h-1h-1h-1h-1h-1h-1h-1h-1h-1h-1h-1h-1h-1h-1h-1h-1h-1h-1h-1
h-1h-2h-1h-1h-1h-1h-1h-1h-1h-1h-1h-1h-2h-1h-1h-1h-1h-1h-1h-2h-1h-1h-1h-1h-1h-2h-1h-1h-1h-2h-1h-1h-1h-1h-2h-1h-1h-1h-2h-1h-1h-2h-1h-1h-1h-2h-1h-1h-2h-1h-1h-2h-1h-1h-2h-1h-1h-2h-1h-1h-2h-1h-2h-1h-1h-2h-1h-2h-1h-1h-2h-1h-2h-1h-1h-2h-1h-2h-1h-2h-1h-2h-1h-2
h-1h-1h-2h-1h-2h-1h-2h-1h-2h-1h-2h-1h-2h-2h-1h-2h-1h-2h-1h-2h-1h-2h-1h-2h-2h-1h-2h-1h-2h-2h-1h-2h-1h-2h-2h-1h-2h-1h-2h-2h-1h-2h-2h-1h-2h-2h-1h-2h-2h-1h-2h-2h-1h-2h-2h-1h-2h-2h-1h-2h-2h-1h-2h-2h-2h-1h-2h-2h-2h-1h-2h-2h-2h-1h-2h-2h-2h-1h-2h-2h-2h-2h-1h-2
h-2h-2h-2h-1h-2h-2h-2h-2h-1h-2h-2h-2h-2h-2h-1h-2h-2h-2h-2h-2h-2h-1h-2h-10l-54 -137h-32l270 680h347v-28h-320l137 -387h275v-28h-265zM476 165l-158 458l-182 -458v0v0v0h1v0v0h1v0h1v0h1v0h1v0h1h1v0h1h1h1h1h1h1h1h1h1h1h1h1h1h1h1h1h1h1h1h1h1h1h1h1h1h1h1h1h1h1h1
h1h1h1h1h1h1h1h1h1h1h1h1h1h1h1h1h1h1h1h1h1h1h1h2h1h1h1h1h1h1h1h1h1h2h1h1h1h1h1h1h2h1h1h1h1h1h2h1h1h1h2h1h1h1h2h1h1h1h2h1h1h1h2h1h1h2h1h1h2h1h1h2h1h1h2h1h1h2h1h1h2h1h2h1h1h2h1h2h1h1h2h1h2h1h2h1h2h1h1h2h1h2h1h2h1h2h1h2h1h2h1h2h1h2h1h2h2h1h2h1h2h1h2h1h2h2h1
h2h1h2h2h1h2h1h2h2h1h2h2h1h2h2h1h2h2h1h2h2h1h2h2h1h2h2h1h2h2h1h2h2h2h1h2h2h2h1h2h2h2h1h2h2h2h1h2h2h2h2h1h2h2h2h2h1h2h2h2h2h2h2h1h2h2h2h2h2h2h1h2h2h2h10z" />
    <glyph glyph-name="fl.alt" horiz-adv-x="360" 
d="M107 292v-292h-30v292h-45v26h45v315q0 41 21 63t53 22q39 0 62 -29l-21 -18q-13 20 -41 20q-44 0 -44 -62v-311h83v-26h-83zM266 0v710h30v-710h-30z" />
    <glyph glyph-name="ffl.alt" horiz-adv-x="549" 
d="M296 292v-292h-30v292h-159v-292h-30v292h-45v26h45v311q0 43 21.5 66t56.5 23q43 0 67 -32l-20 -19q-19 24 -47 24q-48 0 -48 -66v-307h159v315q0 41 21 63t53 22q39 0 62 -29l-21 -18q-13 20 -41 20q-44 0 -44 -62v-311h83v-26h-83zM455 0v710h30v-710h-30z" />
    <glyph glyph-name="at.up" horiz-adv-x="759" 
d="M379 -8q-143 0 -239 102t-96 247q0 144 96 245.5t239 101.5q146 0 241 -97.5t95 -236.5q0 -91 -35.5 -140.5t-86.5 -49.5q-41 0 -66 24t-30 66q-40 -86 -129 -86q-66 0 -111 49t-45 118q0 71 45 120.5t111 49.5q43 0 76 -22.5t51 -61.5v75h31v-219q0 -37 16 -60.5
t51 -23.5q40 0 65.5 41.5t25.5 119.5q0 126 -84 216t-221 90q-132 0 -218 -93.5t-86 -225.5q0 -134 86 -227.5t218 -93.5q84 0 148 41l15 -25q-74 -44 -163 -44zM368 195q54 0 91 41t37 99q0 60 -37 101.5t-91 41.5q-53 0 -88.5 -41.5t-35.5 -101.5q0 -58 35.5 -99t88.5 -41
z" />
    <glyph glyph-name="fb.alt" horiz-adv-x="623" 
d="M107 292v-292h-30v292h-45v26h45v315q0 41 21 63t53 22q39 0 62 -29l-21 -18q-13 20 -41 20q-44 0 -44 -62v-311h83v-26h-83zM426 -8q-88 0 -130 77v-69h-30v710h30v-461q42 77 130 77q70 0 116.5 -48t46.5 -119t-46.5 -119t-116.5 -48zM426 19q58 0 95 39.5t37 100.5
t-37 100.5t-95 39.5t-95 -39.5t-37 -100.5t37 -100.5t95 -39.5z" />
    <glyph glyph-name="fh.alt" horiz-adv-x="594" 
d="M107 292v-292h-30v292h-45v26h45v315q0 41 21 63t53 22q39 0 62 -29l-21 -18q-13 20 -41 20q-44 0 -44 -62v-311h83v-26h-83zM266 0v710h30v-452q40 68 118 68q55 0 89.5 -32.5t34.5 -95.5v-198h-30v193q0 106 -95 106q-52 0 -84.5 -32t-32.5 -86v-181h-30z" />
    <glyph glyph-name="fk.alt" horiz-adv-x="529" 
d="M107 292v-292h-30v292h-45v26h45v315q0 41 21 63t53 22q39 0 62 -29l-21 -18q-13 20 -41 20q-44 0 -44 -62v-311h83v-26h-83zM296 141v-141h-30v710h30v-555l163 163h38l-169 -168l46 -38l92 -74l47 -38h-45z" />
    <glyph glyph-name="ffb.alt" horiz-adv-x="812" 
d="M296 292v-292h-30v292h-159v-292h-30v292h-45v26h45v311q0 43 21.5 66t56.5 23q43 0 67 -32l-20 -19q-19 24 -47 24q-48 0 -48 -66v-307h159v315q0 41 21 63t53 22q39 0 62 -29l-21 -18q-13 20 -41 20q-44 0 -44 -62v-311h83v-26h-83zM615 -8q-88 0 -130 77v-69h-30v710
h30v-461q42 77 130 77q70 0 116.5 -48t46.5 -119t-46.5 -119t-116.5 -48zM615 19q58 0 95 39.5t37 100.5t-37 100.5t-95 39.5t-95 -39.5t-37 -100.5t37 -100.5t95 -39.5z" />
    <glyph glyph-name="ffh.alt" horiz-adv-x="783" 
d="M296 292v-292h-30v292h-159v-292h-30v292h-45v26h45v311q0 43 21.5 66t56.5 23q43 0 67 -32l-20 -19q-19 24 -47 24q-48 0 -48 -66v-307h159v315q0 41 21 63t53 22q39 0 62 -29l-21 -18q-13 20 -41 20q-44 0 -44 -62v-311h83v-26h-83zM455 0v710h30v-452q40 68 118 68
q55 0 89.5 -32.5t34.5 -95.5v-198h-30v193q0 106 -95 106q-52 0 -84.5 -32t-32.5 -86v-181h-30z" />
    <glyph glyph-name="ffk.alt" horiz-adv-x="718" 
d="M296 292v-292h-30v292h-159v-292h-30v292h-45v26h45v311q0 43 21.5 66t56.5 23q43 0 67 -32l-20 -19q-19 24 -47 24q-48 0 -48 -66v-307h159v315q0 41 21 63t53 22q39 0 62 -29l-21 -18q-13 20 -41 20q-44 0 -44 -62v-311h83v-26h-83zM485 141v-141h-30v710h30v-555
l163 163h38l-169 -168l47 -38l92 -74l46 -38h-45z" />
    <glyph glyph-name="endash.up" horiz-adv-x="422" 
d="M39 237v28h344v-28h-344z" />
    <glyph glyph-name="emdash.up" horiz-adv-x="647" 
d="M39 237v28h569v-28h-569z" />
    <glyph glyph-name="Gbreve.alt" horiz-adv-x="766" 
d="M383 729q-33 0 -56.5 17.5t-32.5 47.5l26 9q15 -46 63 -46t63 46l27 -9q-9 -30 -33 -47.5t-57 -17.5zM393 -8q-147 0 -248 98.5t-101 249.5q0 149 100 248.5t245 99.5q184 0 283 -135l-25 -18q-89 124 -258 124q-134 0 -223 -91t-89 -228t90.5 -228t225.5 -91
q67 0 121.5 19t88.5 51.5t55 69t30 76.5h-283v28h318q-16 -119 -102.5 -196t-227.5 -77z" />
    <glyph glyph-name="Gcircumflex.alt" horiz-adv-x="766" 
d="M293 744l92 112h3l92 -112h-26l-67 70l-68 -70h-26zM393 -8q-147 0 -248 98.5t-101 249.5q0 149 100 248.5t245 99.5q184 0 283 -135l-25 -18q-89 124 -258 124q-134 0 -223 -91t-89 -228t90.5 -228t225.5 -91q67 0 121.5 19t88.5 51.5t55 69t30 76.5h-283v28h318
q-16 -119 -102.5 -196t-227.5 -77z" />
    <glyph glyph-name="Gcommaaccent.alt" horiz-adv-x="766" 
d="M393 -8q-147 0 -248 98.5t-101 249.5q0 149 100 248.5t245 99.5q184 0 283 -135l-25 -18q-89 124 -258 124q-134 0 -223 -91t-89 -228t90.5 -228t225.5 -91q67 0 121.5 19t88.5 51.5t55 69t30 76.5h-283v28h318q-16 -119 -102.5 -196t-227.5 -77zM359 -146l16 59
q-17 4 -17 24q0 10 7.5 17.5t17.5 7.5q9 0 17 -7.5t8 -17.5q0 -7 -3 -13l-29 -70h-17z" />
    <glyph glyph-name="Kcommaaccent.alt" horiz-adv-x="552" 
d="M131 258l338 422h37q-339 -424 -340 -424l351 -256h-48l-338 247v-247h-32v680h32v-422zM252 -146l16 59q-17 4 -17 24q0 10 7.5 17.5t17.5 7.5q9 0 17 -7.5t8 -17.5q0 -7 -3 -13l-29 -70h-17z" />
    <glyph glyph-name="abreve.alt" horiz-adv-x="411" 
d="M205 361q-33 0 -56.5 17.5t-32.5 47.5l26 9q15 -46 63 -46t63 46l27 -9q-9 -30 -33 -47.5t-57 -17.5zM194 -8q-69 0 -114.5 48t-45.5 119t45.5 119t114.5 48q84 0 126 -77v69h30v-318h-30v69q-42 -77 -126 -77zM194 19q57 0 92.5 39.5t35.5 100.5t-35.5 100.5t-92.5 39.5
t-93 -39.5t-36 -100.5t36 -100.5t93 -39.5z" />
    <glyph glyph-name="amacron.alt" horiz-adv-x="411" 
d="M131 383v26h148v-26h-148zM194 -8q-69 0 -114.5 48t-45.5 119t45.5 119t114.5 48q84 0 126 -77v69h30v-318h-30v69q-42 -77 -126 -77zM194 19q57 0 92.5 39.5t35.5 100.5t-35.5 100.5t-92.5 39.5t-93 -39.5t-36 -100.5t36 -100.5t93 -39.5z" />
    <glyph glyph-name="aogonek.alt" horiz-adv-x="411" 
d="M320 -6v75q-42 -77 -126 -77q-69 0 -114.5 48t-45.5 119t45.5 119t114.5 48q84 0 126 -77v69h30v-318l-26 -41q-32 -50 -32 -82q0 -19 11 -28.5t27 -9.5q28 0 45 31l22 -13q-20 -43 -67 -43q-27 0 -46.5 16.5t-19.5 45.5q0 40 37 92zM194 19q57 0 92.5 39.5t35.5 100.5
t-35.5 100.5t-92.5 39.5t-93 -39.5t-36 -100.5t36 -100.5t93 -39.5z" />
    <glyph glyph-name="gbreve.alt" horiz-adv-x="418" 
d="M209 361q-33 0 -56.5 17.5t-32.5 47.5l26 9q15 -46 63 -46t63 46l27 -9q-9 -30 -33 -47.5t-57 -17.5zM49 -127l27 10q15 -36 49.5 -56.5t79.5 -20.5q57 0 89.5 35.5t32.5 97.5v130q-42 -77 -130 -77q-70 0 -116.5 48t-46.5 119t46.5 119t116.5 48q88 0 130 -77v69h30
v-381q0 -72 -41 -115.5t-111 -43.5q-56 0 -97 26t-59 69zM197 19q58 0 95 39.5t37 100.5t-37 100.5t-95 39.5t-95 -39.5t-37 -100.5t37 -100.5t95 -39.5z" />
    <glyph glyph-name="gcircumflex.alt" horiz-adv-x="418" 
d="M107 376l92 112h3l92 -112h-26l-67 70l-68 -70h-26zM205 -222q-56 0 -97 26t-59 69l27 10q15 -36 49.5 -56.5t79.5 -20.5q57 0 89.5 35.5t32.5 97.5v130q-42 -77 -130 -77q-70 0 -116.5 48t-46.5 119t46.5 119t116.5 48q88 0 130 -77v69h30v-381q0 -72 -41 -115.5
t-111 -43.5zM197 19q58 0 95 39.5t37 100.5t-37 100.5t-95 39.5t-95 -39.5t-37 -100.5t37 -100.5t95 -39.5z" />
    <glyph glyph-name="gcommaaccent.alt" horiz-adv-x="418" 
d="M236 680l-18 -61q19 -4 19 -26q0 -12 -8.5 -20t-19.5 -8t-19.5 8t-8.5 20q0 7 3 14l33 73h19zM49 -127l27 10q15 -36 49.5 -56.5t79.5 -20.5q57 0 89.5 35.5t32.5 97.5v130q-42 -77 -130 -77q-70 0 -116.5 48t-46.5 119t46.5 119t116.5 48q88 0 130 -77v69h30v-381
q0 -72 -41 -115.5t-111 -43.5q-56 0 -97 26t-59 69zM197 19q58 0 95 39.5t37 100.5t-37 100.5t-95 39.5t-95 -39.5t-37 -100.5t37 -100.5t95 -39.5z" />
    <glyph glyph-name="kcommaaccent.alt" horiz-adv-x="324" 
d="M91 141v-141h-30v710h30v-555l163 163h38l-169 -168l47 -38l92 -74l46 -38h-45zM138 -146l16 59q-17 4 -17 24q0 10 7.5 17.5t17.5 7.5q9 0 17 -7.5t8 -17.5q0 -7 -3 -13l-29 -70h-17z" />
    <glyph glyph-name="ubreve.alt" horiz-adv-x="380" 
d="M190 361q-33 0 -56.5 17.5t-32.5 47.5l26 9q15 -46 63 -46t63 46l27 -9q-9 -30 -33 -47.5t-57 -17.5zM190 -8q-57 0 -95.5 35.5t-38.5 106.5v184h30v-179q0 -120 104 -120t104 120v179h30v-184q0 -71 -38.5 -106.5t-95.5 -35.5z" />
    <glyph glyph-name="uhungarumlaut.alt" horiz-adv-x="380" 
d="M209 376l60 132h32l-67 -132h-25zM127 376l60 132h32l-67 -132h-25zM190 -8q-57 0 -95.5 35.5t-38.5 106.5v184h30v-179q0 -120 104 -120t104 120v179h30v-184q0 -71 -38.5 -106.5t-95.5 -35.5z" />
    <glyph glyph-name="umacron.alt" horiz-adv-x="380" 
d="M116 383v26h148v-26h-148zM190 -8q-57 0 -95.5 35.5t-38.5 106.5v184h30v-179q0 -120 104 -120t104 120v179h30v-184q0 -71 -38.5 -106.5t-95.5 -35.5z" />
    <glyph glyph-name="uogonek.alt" horiz-adv-x="380" 
d="M165 -6q-48 7 -78.5 42t-30.5 98v184h30v-179q0 -120 104 -120t104 120v179h30v-184q0 -71 -38.5 -106.5t-95.5 -35.5l-21 -33q-32 -50 -32 -82q0 -19 11 -28.5t27 -9.5q28 0 45 31l22 -13q-20 -43 -67 -43q-27 0 -46.5 16.5t-19.5 45.5q0 40 37 92z" />
    <glyph glyph-name="uring.alt" horiz-adv-x="380" 
d="M190 371q-30 0 -51 21t-21 50t21 50.5t51 21.5t51 -21.5t21 -50.5t-21 -50t-51 -21zM190 -8q-57 0 -95.5 35.5t-38.5 106.5v184h30v-179q0 -120 104 -120t104 120v179h30v-184q0 -71 -38.5 -106.5t-95.5 -35.5zM190 395q20 0 32.5 13t12.5 34t-12.5 34.5t-32.5 13.5
t-32.5 -13.5t-12.5 -34.5t12.5 -34t32.5 -13z" />
    <glyph glyph-name="idotaccent" horiz-adv-x="158" 
d="M79 460q-10 0 -17.5 7.5t-7.5 17.5t7.5 17.5t17.5 7.5t17.5 -7.5t7.5 -17.5t-7.5 -17.5t-17.5 -7.5zM64 0v318h30v-318h-30z" />
    <glyph glyph-name="space.up" horiz-adv-x="222" 
 />
    <glyph glyph-name="hyphen.up" horiz-adv-x="222" 
d="M39 240v26h144v-26h-144z" />
    <glyph glyph-name="infinity" horiz-adv-x="549" 
d="M470 460q-10 0 -17.5 7.5t-7.5 17.5t7.5 17.5t17.5 7.5t17.5 -7.5t7.5 -17.5t-7.5 -17.5t-17.5 -7.5zM296 292v-292h-30v292h-159v-292h-30v292h-45v26h45v311q0 43 21.5 66t56.5 23q43 0 67 -32l-20 -19q-19 24 -47 24q-48 0 -48 -66v-307h159v311q0 43 21.5 66t56.5 23
q43 0 67 -32l-20 -19q-19 24 -47 24q-48 0 -48 -66v-307h189v-318h-30v292h-159z" />
    <glyph glyph-name="notequal" horiz-adv-x="411" 
d="M296 292v-292h-30v292h-159v-292h-30v292h-45v26h45v311q0 43 21.5 66t56.5 23q43 0 67 -32l-20 -19q-19 24 -47 24q-48 0 -48 -66v-307h159v311q0 43 21.5 66t56.5 23q43 0 67 -32l-20 -19q-19 24 -47 24q-48 0 -48 -66v-307h83v-26h-83z" />
    </font>
</defs>
</svg>
