<?xml version="1.0" standalone="no"?>
<!DOCTYPE svg PUBLIC "-//W3C//DTD SVG 1.1//EN" "http://www.w3.org/Graphics/SVG/1.1/DTD/svg11.dtd" >
<svg xmlns="http://www.w3.org/2000/svg" xmlns:xlink="http://www.w3.org/1999/xlink" version="1.1">
<metadata>
Created by FontForge 20170731 at Sun Oct 29 13:05:39 2017
 By Aleksey,,,
Copyright 2017 The EB Garamond Project Authors (https://github.com/octaviopardo/EBGaramond12)
</metadata>
<defs>
<font id="EBGaramond-ExtraBold" horiz-adv-x="0" >
  <font-face 
    font-family="EB Garamond ExtraBold"
    font-weight="800"
    font-stretch="normal"
    units-per-em="1000"
    panose-1="0 0 9 0 0 0 0 0 0 0"
    ascent="800"
    descent="-200"
    x-height="427"
    cap-height="655"
    bbox="-318 -329 2730 1047"
    underline-thickness="50"
    underline-position="-150"
    unicode-range="U+000D-1F44D"
  />
<missing-glyph horiz-adv-x="516" 
d="M25 552h466v-551h-466v551zM387 117v319h-258v-319h258z" />
    <glyph glyph-name="f_f" unicode="ff" horiz-adv-x="683" 
d="M761.5 686.5q31.5 -19.5 31.5 -62.5q0 -24 -11 -38t-30 -14q-15 0 -37 29q-24 26 -46.5 42t-51.5 16q-39 0 -58.5 -33.5t-19.5 -106.5v-81q0 -15 17 -15h110q8 0 12.5 -5t4.5 -12q0 -9 -2.5 -19.5t-6.5 -17.5q-5 -8 -8 -8h-87q-23 0 -31.5 -5.5t-8.5 -19.5v-245
q0 -19 4.5 -29t18 -16.5t42.5 -12.5q10 -2 14.5 -6.5t4.5 -12.5q0 -6 -5 -11.5t-11 -5.5q-34 0 -73 3q-50 2 -65 2q-16 0 -54 -2q-30 -3 -61 -3q-7 0 -13.5 4.5t-6.5 10.5q0 13 18 20q28 9 35 15.5t7 23.5v285h-129q-40 0 -40 -25v-256q0 -19 13 -27.5t41 -14.5
q8 -2 13.5 -8t5.5 -13q0 -6 -5 -10.5t-11 -4.5q-33 0 -68 3q-42 2 -59 2q-16 0 -54 -2q-30 -3 -61 -3q-7 0 -13.5 4.5t-6.5 10.5q0 13 23 21q19 6 28 13t9 25v285q-31 0 -52 2q-6 1 -10 12t-4 20q0 7 10 10q6 2 23.5 8.5t32.5 14.5q7 84 49 141t100.5 83.5t115.5 26.5
q49 0 84 -11t51 -31q38 38 85.5 56t93.5 18q71 0 102.5 -19.5zM394 423q4 67 27 122q-11 11 -20 24q-20 23 -40 36t-51 13q-39 0 -62 -39.5t-23 -114.5v-19q0 -22 25 -22h144z" />
    <glyph glyph-name="f_f_i" unicode="ffi" horiz-adv-x="921" 
d="M906.5 24q4.5 -4 4.5 -12q0 -14 -15 -14q-19 0 -65 2q-44 2 -60 2q-17 0 -57 -2q-31 -3 -63 -3q-6 0 -11 4t-5 10q0 15 17 20q28 7 38 14.5t10 22.5v229q0 35 -10.5 49.5t-32.5 14.5l-38 1l-40 -1q-40 0 -40 -25v-261q0 -19 13 -27.5t41 -14.5q8 -2 13.5 -8t5.5 -13
q0 -6 -5 -10.5t-11 -4.5q-33 0 -68 3q-42 2 -59 2q-16 0 -54 -2q-30 -3 -61 -3q-7 0 -13.5 4.5t-6.5 10.5q0 13 23 21q19 6 28 13t9 25v285h-129q-40 0 -40 -25v-256q0 -19 13 -27.5t41 -14.5q8 -2 13.5 -8t5.5 -13q0 -6 -5 -10.5t-11 -4.5q-33 0 -68 3q-42 2 -59 2
q-16 0 -54 -2q-30 -3 -61 -3q-7 0 -13.5 4.5t-6.5 10.5q0 13 23 21q19 6 28 13t9 25v285q-31 0 -52 2q-6 1 -10 12t-4 20q0 7 10 10q6 2 23.5 8.5t32.5 14.5q7 84 49 141t100.5 83.5t115.5 26.5q52 0 87.5 -12t49.5 -33q40 39 92 58t102 19q71 0 106.5 -21t35.5 -61
q0 -34 -16 -56t-43 -22q-12 0 -25.5 12t-24.5 32q-12 21 -35 39t-53 18q-38 0 -60 -38t-22 -113v-51q0 -12 6.5 -16.5t18.5 -5.5q75 -5 128 -5q39 0 81 3l49 22q18 8 22 8q7 0 10.5 -4t3.5 -10l-5 -44q-8 -68 -8 -105v-219q0 -13 10 -21t38 -17q9 -3 13.5 -7zM394 423
q4 69 29 121q-6 4 -13 13t-9 12q-20 23 -40 36t-51 13q-39 0 -62 -39.5t-23 -114.5v-19q0 -22 25 -22h144z" />
    <glyph glyph-name="f_f_l" unicode="ffl" horiz-adv-x="937" 
d="M922 14q0 -7 -5 -11t-15 -4q-22 0 -62 2l-54 1q-17 0 -51 -2q-27 -3 -58 -3q-10 0 -15 4t-5 11q0 13 23 21q3 1 14.5 5t17 11.5t5.5 21.5v265q0 25 -31 25h-107q-40 0 -40 -25v-261q0 -19 13 -27.5t41 -14.5q8 -2 13.5 -8t5.5 -13q0 -6 -5 -10.5t-11 -4.5q-33 0 -68 3
q-42 2 -59 2q-16 0 -54 -2q-30 -3 -61 -3q-7 0 -13.5 4.5t-6.5 10.5q0 13 23 21q19 6 28 13t9 25v285h-129q-40 0 -40 -25v-256q0 -19 13 -27.5t41 -14.5q8 -2 13.5 -8t5.5 -13q0 -6 -5 -10.5t-11 -4.5q-33 0 -68 3q-42 2 -59 2q-16 0 -54 -2q-30 -3 -61 -3q-7 0 -13.5 4.5
t-6.5 10.5q0 13 23 21q19 6 28 13t9 25v285q-31 0 -52 2q-6 1 -10 12t-4 20q0 7 10 10q6 2 23.5 8.5t32.5 14.5q7 84 49 141t100.5 83.5t115.5 26.5q49 0 83 -10.5t50 -29.5q37 37 83 54.5t91 17.5q62 0 97 -22q11 -6 19 -6q7 0 23 6l50 18q9 3 14 3q11 0 11 -13l-2 -23
l-3 -31l1 -565q0 -17 7 -24t17 -10t13 -4q23 -8 23 -21zM717 562q0 44 -14 66t-50 22q-51 0 -82.5 -41.5t-31.5 -126.5v-37q0 -22 25 -22h128q25 0 25 22v117zM394 423q4 67 27 122q-4 3 -20 24q-20 23 -40 36t-51 13q-39 0 -62 -39.5t-23 -114.5v-19q0 -22 25 -22h144z" />
    <glyph glyph-name="f_i" unicode="fi" horiz-adv-x="607" 
d="M26.5 1.5q-6.5 4.5 -6.5 10.5q0 13 23 21q19 6 28 13t9 25v285q-31 0 -52 2q-6 1 -10 12t-4 20q0 7 10 10q5 2 22.5 8t33.5 15q7 99 51.5 162.5t106.5 92t124 28.5q71 0 106.5 -21t35.5 -61q0 -34 -16 -56t-43 -22q-12 0 -25.5 12t-24.5 32q-12 21 -35 39t-53 18
q-38 0 -60 -38t-22 -113v-51q0 -12 6.5 -16.5t18.5 -5.5q75 -5 128 -5q39 0 81 3l49 22q18 8 22 8q7 0 10.5 -4t3.5 -10l-5 -44q-8 -68 -8 -105v-219q0 -13 10 -21t38 -17q9 -3 13.5 -7t4.5 -12q0 -14 -15 -14q-19 0 -65 2q-44 2 -60 2q-17 0 -57 -2q-31 -3 -63 -3
q-6 0 -11 4t-5 10q0 15 17 20q28 7 38 14.5t10 22.5v229q0 35 -10.5 49.5t-32.5 14.5l-38 1l-40 -1q-40 0 -40 -25v-261q0 -19 13 -27.5t41 -14.5q8 -2 13.5 -8t5.5 -13q0 -6 -5 -10.5t-11 -4.5q-33 0 -68 3q-42 2 -59 2q-16 0 -54 -2q-30 -3 -61 -3q-7 0 -13.5 4.5z" />
    <glyph glyph-name="f_l" unicode="fl" horiz-adv-x="623" 
d="M26.5 1.5q-6.5 4.5 -6.5 10.5q0 13 23 21q19 6 28 13t9 25v285q-31 0 -52 2q-6 1 -10 12t-4 20q0 7 10 10q6 2 23.5 8.5t32.5 14.5q7 99 47 162.5t96.5 92t114.5 28.5q62 0 97 -22q11 -6 19 -6q7 0 23 6l50 18q9 3 14 3q11 0 11 -13l-2 -23l-3 -31l1 -565q0 -17 7 -24
t17 -10t13 -4q23 -8 23 -21q0 -7 -5 -11t-15 -4q-22 0 -62 2l-54 1q-17 0 -51 -2q-27 -3 -58 -3q-10 0 -15 4t-5 11q0 13 23 21q3 1 14.5 5t17 11.5t5.5 21.5v265q0 25 -31 25h-107q-40 0 -40 -25v-261q0 -19 13 -27.5t41 -14.5q8 -2 13.5 -8t5.5 -13q0 -6 -5 -10.5
t-11 -4.5q-33 0 -68 3q-42 2 -59 2q-16 0 -54 -2q-30 -3 -61 -3q-7 0 -13.5 4.5zM378 423q25 0 25 22v117q0 44 -14 66t-50 22q-51 0 -82.5 -41.5t-31.5 -126.5v-37q0 -22 25 -22h128z" />
    <glyph glyph-name=".notdef" horiz-adv-x="516" 
d="M25 552h466v-551h-466v551zM387 117v319h-258v-319h258z" />
    <glyph glyph-name=".null" 
 />
    <glyph glyph-name="nonmarkingreturn" unicode="&#xd;" horiz-adv-x="245" 
 />
    <glyph glyph-name="NULL" 
 />
    <glyph glyph-name="space" unicode=" " horiz-adv-x="245" 
 />
    <glyph glyph-name="exclam" unicode="!" horiz-adv-x="299" 
d="M125.5 184q-7.5 12 -11.5 41l-12 73q-17 100 -24 155t-7 104q0 36 23.5 64t57.5 28t55.5 -27t21.5 -65t-6.5 -81t-19.5 -113q-3 -19 -10.5 -60.5t-13.5 -77.5q-9 -53 -32 -53q-14 0 -21.5 12zM92 8q-22 22 -22 53t22 53t53 22t53 -22t22 -53t-22 -53t-53 -22t-53 22z" />
    <glyph glyph-name="quotedbl" unicode="&#x22;" horiz-adv-x="413" 
d="M69 429q1 16 -1 40l-1 27q0 6 -3 69q-3 29 -3 52q0 25 30 43q21 14 34 19.5t31 5.5q12 0 19.5 -11.5t7.5 -26.5q0 -43 -22.5 -105.5t-47.5 -109.5q-6 -11 -16.5 -21.5t-15.5 -10.5q-12 0 -12 29zM237 429q1 16 -1 40l-1 27q0 6 -3 69q-3 29 -3 52q0 25 30 43
q21 14 34 19.5t31 5.5q12 0 19.5 -11.5t7.5 -26.5q0 -43 -22.5 -105.5t-47.5 -109.5q-6 -11 -16.5 -21.5t-15.5 -10.5q-12 0 -12 29z" />
    <glyph glyph-name="numbersign" unicode="#" horiz-adv-x="488" 
d="M60.5 -90q-4.5 6 -4.5 13v5l39 157l-57 -2q-10 -1 -16.5 6t-6.5 15q0 71 39 73l64 3l26 106l-67 -3q-10 -1 -16.5 6t-6.5 15q0 71 39 73l75 3l35 143q3 16 12.5 21.5t28.5 5.5q6 0 9.5 -6t3.5 -13q0 -3 -1 -4.5t-1 -3.5l-34 -140l114 4l36 147q3 16 12.5 21.5t28.5 5.5
q6 0 9.5 -6t3.5 -13q0 -3 -1 -4.5t-1 -3.5l-35 -144l59 3q12 1 19.5 -5.5t7.5 -16.5q0 -26 -13.5 -48.5t-28.5 -23.5l-68 -3l-26 -107l70 3q12 1 19.5 -5.5t7.5 -16.5q0 -26 -13.5 -48.5t-28.5 -23.5l-78 -3l-37 -151q-4 -15 -12 -19.5t-25 -4.5q-7 0 -11.5 6t-4.5 13v5
l37 148l-114 -4l-39 -160q-4 -15 -12 -19.5t-25 -4.5q-7 0 -11.5 6zM285 186l26 107l-113 -4l-27 -107z" />
    <glyph glyph-name="dollar" unicode="$" horiz-adv-x="465" 
d="M159.5 -74q-5.5 8 -4.5 20l6 61q1 6 -5 7q-51 9 -98 37q-16 9 -21 23q-17 43 -17 110q0 20 1 30q0 12 18 12q8 0 12 -2.5t8 -9.5q15 -50 41 -86.5t60 -52.5q1 -1 4 -1q5 0 6 7l18 163v3q0 9 -9 14q-67 38 -104 81t-37 112q0 71 52.5 120.5t131.5 58.5q10 2 10 9l5 51
q1 9 11.5 14t25.5 5q9 0 13.5 -8t2.5 -20l-5 -43q0 -7 8 -9q42 -6 84 -24q11 -5 16 -10t9 -20q10 -36 10 -110q0 -5 -5 -8t-13 -3t-15.5 4t-9.5 10q-30 89 -83 107h-2q-4 0 -6 -6l-17 -145q-1 -9 4.5 -15t24.5 -18q78 -47 109 -90.5t31 -105.5q0 -89 -56 -136t-153 -52
q-5 0 -6 -6l-8 -74q-1 -6 -9 -9t-20 -3q-13 0 -18.5 8zM209 449.5q2 0.5 2 4.5l13 115v3q0 8 -6 6q-46 -13 -46 -70q0 -30 33 -57q2 -2 4 -1.5zM278.5 90q14.5 21 14.5 48t-11 46t-35 37q-4 2 -5.5 1.5t-2.5 -6.5l-16 -142v-3q0 -8 11 -8q30 6 44.5 27z" />
    <glyph glyph-name="percent" unicode="%" horiz-adv-x="713" 
d="M99.5 284.5q-32.5 21.5 -51 61t-18.5 90.5q0 82 40.5 131t108.5 49q63 0 102.5 -48t39.5 -124q0 -88 -41.5 -134.5t-107.5 -46.5q-40 0 -72.5 21.5zM206.5 336q8.5 39 8.5 99q0 59 -11.5 102.5t-32.5 43.5q-18 0 -26 -38t-8 -99q0 -59 11.5 -103t31.5 -44q18 0 26.5 39z
M558.5 659q12.5 5 31.5 5q7 0 13 -6t6 -12q0 -4 -1 -5l-404 -636q-13 -20 -48 -20q-8 0 -15.5 5t-7.5 11q0 3 1 4l404 636q8 13 20.5 18zM461.5 4.5q-32.5 21.5 -51 61t-18.5 90.5q0 82 40.5 131t108.5 49q63 0 102.5 -48t39.5 -124q0 -88 -41.5 -134.5t-107.5 -46.5
q-40 0 -72.5 21.5zM568.5 56q8.5 39 8.5 99q0 59 -11.5 102.5t-32.5 43.5q-18 0 -26 -38t-8 -99q0 -59 11.5 -103t31.5 -44q18 0 26.5 39z" />
    <glyph glyph-name="ampersand" unicode="&#x26;" horiz-adv-x="809" 
d="M125 0.5q-41 16.5 -68 50t-27 80.5q0 57 41 113t114 91l21 10l-7 7l-22.5 22.5t-32.5 46t-13 53.5q0 35 24 64t67.5 45.5t99.5 16.5q70 0 115.5 -29.5t45.5 -76.5q0 -44 -26 -69.5t-80 -45.5l-24 -9l22 -23q16 -15 29 -29t25 -26l53 -55l20 -20l13 12q26 24 40 51t14 47
q0 14 -7.5 21.5t-21.5 13.5q-12 5 -17 8.5t-5 11.5q0 10 7.5 12.5t23.5 2.5q12 0 44 -4q36 -4 57 -4q25 0 75 12q42 11 62 11q8 0 12.5 -4.5t4.5 -9.5q0 -9 -9.5 -17.5t-25.5 -11.5q-30 -5 -52.5 -20t-43.5 -36t-49.5 -45t-39.5 -34q-38 -32 -57 -49l19 -22q38 -46 64 -68
t52 -22q40 0 79 14q4 1 11.5 4t12.5 3q9 0 13.5 -3t4.5 -12q0 -17 -23 -39.5t-62 -38.5t-86 -16q-57 0 -93.5 19.5t-78.5 65.5l-19 21l-5 -6q-42 -50 -96.5 -75.5t-112.5 -25.5q-41 0 -82 16.5zM342 406q11 11 16.5 35t5.5 51q0 30 -11.5 50t-35.5 20q-17 0 -30 -14.5
t-13 -36.5q0 -58 37 -95l21 -20zM342.5 90q22.5 5 41.5 24l7 7l-16 19l-67 79q-63 75 -67 79l-12 14l-17 -11q-19 -12 -28.5 -34.5t-9.5 -51.5q0 -61 31 -95.5t85 -34.5q30 0 52.5 5z" />
    <glyph glyph-name="quotesingle" unicode="'" horiz-adv-x="245" 
d="M69 429q1 16 -1 40l-1 27q0 6 -3 69q-3 29 -3 52q0 25 30 43q21 14 34 19.5t31 5.5q12 0 19.5 -11.5t7.5 -26.5q0 -43 -22.5 -105.5t-47.5 -109.5q-6 -11 -16.5 -21.5t-15.5 -10.5q-12 0 -12 29z" />
    <glyph glyph-name="parenleft" unicode="(" horiz-adv-x="302" 
d="M208 -202q-35 36 -76 117t-69 177t-28 175t26 162t65 151t76 106q9 9 22.5 14.5t27.5 5.5q11 0 25.5 -9t14.5 -20q0 -4 -23 -35q-43 -56 -76 -155t-33 -217q0 -71 14.5 -154.5t38 -153t48.5 -101.5q2 -3 14.5 -18t12.5 -17q0 -19 -15 -30t-34 -11q-18 0 -31 13z" />
    <glyph glyph-name="parenright" unicode=")" horiz-adv-x="302" 
d="M29 -204q-15 11 -15 30q0 2 12.5 17t14.5 18q25 32 48.5 101.5t38 153t14.5 154.5q0 118 -33 217t-76 155q-23 31 -23 35q0 11 14.5 20t25.5 9q14 0 27.5 -5.5t22.5 -14.5q37 -38 76 -106t65 -151t26 -162t-28 -175t-69 -177t-76 -117q-13 -13 -31 -13q-19 0 -34 11z" />
    <glyph glyph-name="asterisk" unicode="*" horiz-adv-x="361" 
d="M176 357.5q-10 9.5 -12 24.5l-13 68q-4 -1 -41 -23q-7 -5 -21 -13q-14 -7 -25 -7q-12 0 -21 8t-9 21q0 9 4.5 18t12.5 14l53 42q-3 3 -35 19l-26 14q-10 5 -16.5 14.5t-6.5 20.5q0 13 9 21.5t23 8.5q5 0 19 -4l63 -25q-2 24 -2 69q0 16 8.5 28t24.5 13q13 -1 22.5 -11
t11.5 -24l9 -67q6 3 24 16l33 22q14 9 26 9t21 -9t9 -22q0 -18 -15 -31l-52 -44q5 -3 12.5 -6t14.5 -7l35 -16q11 -6 18 -14.5t7 -18.5q0 -15 -9.5 -23.5t-25.5 -8.5q-5 0 -15 2l-64 22l1 -20q3 -48 3 -52q0 -16 -8 -27t-24 -11q-13 0 -23 9.5z" />
    <glyph glyph-name="plus" unicode="+" horiz-adv-x="604" 
d="M275 -7q-4 5 -4 12v201q0 13 -13 13h-211q-7 0 -12 4t-5 9q0 15 7.5 32.5t21.5 17.5h198q9 0 11.5 3t2.5 11v182q0 13 16.5 23.5t30.5 10.5q7 0 11.5 -7t4.5 -16v-193q0 -14 13 -14h204q9 0 16 -4.5t7 -11.5q0 -14 -10.5 -30.5t-23.5 -16.5h-193q-13 0 -13 -13v-189
q0 -14 -17.5 -21.5t-32.5 -7.5q-5 0 -9 5z" />
    <glyph glyph-name="comma" unicode="," horiz-adv-x="251" 
d="M29.5 -163.5q-7.5 4.5 -7.5 12.5q0 7 5 10t19 7q41 11 62.5 33t21.5 51q0 18 -11.5 28t-30.5 16q-18 6 -30 21t-12 40q0 26 22.5 45.5t50.5 19.5q47 0 76 -29t29 -76q0 -52 -25 -94t-65.5 -65.5t-84.5 -23.5q-12 0 -19.5 4.5z" />
    <glyph glyph-name="hyphen" unicode="-" horiz-adv-x="325" 
d="M34 163q-9 0 -9 11q0 32 6 47t18 17q119 20 234 29h3q14 0 14 -17q0 -32 -4 -43t-16 -13q-147 -22 -244 -31h-2z" />
    <glyph glyph-name="period" unicode="." horiz-adv-x="251" 
d="M63.5 -8.5q-25.5 25.5 -25.5 60.5q0 37 25.5 63t60.5 26q38 0 63.5 -25.5t25.5 -63.5q0 -35 -26 -60.5t-63 -25.5q-35 0 -60.5 25.5z" />
    <glyph glyph-name="slash" unicode="/" horiz-adv-x="407" 
d="M18.5 -56q-6.5 6 -3.5 14l312 687q6 13 17 17.5t30 4.5q13 0 19 -7.5t3 -14.5l-313 -687q-5 -12 -17 -16t-30 -4q-11 0 -17.5 6z" />
    <glyph glyph-name="zero" unicode="0" horiz-adv-x="540" 
d="M131 32.5q-55 46.5 -82 119t-27 150.5q0 82 27 157t84.5 123.5t142.5 48.5q78 0 132.5 -46.5t82 -119t27.5 -148.5q0 -81 -27.5 -157t-84.5 -125t-142 -49q-78 0 -133 46.5zM342 110q21 75 21 189q0 71 -12 136.5t-35.5 106.5t-55.5 41q-43 0 -62.5 -74.5t-19.5 -189.5
q0 -114 26.5 -199t74.5 -85q42 0 63 75z" />
    <glyph glyph-name="one" unicode="1" horiz-adv-x="540" 
d="M107 1.5q-6 4.5 -6 10.5q0 17 19 22q47 12 66.5 23.5t19.5 39.5v358q0 34 -21.5 46.5t-64.5 20.5q-26 5 -26 24q0 13 9 19.5t23 7.5q59 4 108 18t102 41q8 4 12 4q8 0 15 -3t7 -8q0 -4 -2 -22q-4 -26 -4 -51v-454q0 -25 22.5 -37.5t72.5 -26.5q10 -3 14.5 -7.5t4.5 -13.5
q0 -15 -16 -15l-89 2l-84 2l-81 -2q-49 -3 -89 -3q-6 0 -12 4.5z" />
    <glyph glyph-name="two" unicode="2" horiz-adv-x="540" 
d="M412 -3q-150 3 -177 3q-52 0 -98 -1.5t-51 -1.5q-4 0 -12 5.5t-8 11.5q0 11 6.5 17t7.5 7l140 159q53 60 77.5 117t24.5 126q0 42 -19.5 69t-56.5 27q-54 0 -116 -60q-22 -22 -36 -22q-8 0 -10.5 5.5t-2.5 16.5q0 24 31 61.5t80.5 65t104.5 27.5q50 0 86.5 -23
t55.5 -61.5t19 -83.5q0 -40 -25.5 -92t-56.5 -86q-42 -45 -118 -115q-53 -49 -53 -52q0 -4 15 -6q33 -4 91 -4q47 0 83 4q32 4 54 19t35 45q3 8 11.5 14.5t17.5 6.5q8 0 11.5 -7t0.5 -15q-16 -45 -31 -95.5t-15 -60.5q0 -9 -8.5 -15.5t-12.5 -6.5z" />
    <glyph glyph-name="three" unicode="3" horiz-adv-x="540" 
d="M107.5 -23.5q-31.5 14.5 -31.5 35.5q0 24 9 44t24 20q13 0 25 -14q19 -25 37.5 -40.5t38.5 -15.5q47 0 78 38.5t31 104.5q0 63 -25 100t-69 37q-19 0 -32 -5t-21.5 -10.5t-11.5 -7.5q-4 -2 -8 -2q-8 0 -14 5t-5 12q9 37 45 56q68 36 92.5 67.5t24.5 81.5q0 31 -21 52
t-54 21t-56 -17.5t-43 -43.5q-15 -18 -19 -18q-8 0 -15 8.5t-7 17.5q0 15 22 46t68 55.5t113 24.5q63 0 106.5 -34t43.5 -89q0 -25 -15.5 -55t-47.5 -54.5t-79 -32.5q-3 -2 -3 -4t4 -2q82 0 133.5 -41.5t51.5 -114.5q0 -71 -42 -125.5t-111.5 -84.5t-148.5 -30
q-36 0 -67.5 14.5z" />
    <glyph glyph-name="four" unicode="4" horiz-adv-x="540" 
d="M201 1.5q-8 4.5 -8 10.5q0 16 24 22q39 8 52.5 20.5t13.5 42.5v49q0 5 -5 7.5t-12 2.5q-27 0 -107 -4q-86 -4 -122 -4q-16 0 -16 8q0 4 6 12l28 39l243 398q10 15 23.5 26t24.5 11h6q6 0 9 -3.5t3 -8.5t-3 -10l-227 -370q-3 -4 -3 -8q0 -7 12 -7h133q3 0 5 2t2 4v113
q0 19 3 26t15 12q25 12 57.5 17t52.5 5q21 0 25.5 -16.5t4.5 -62.5v-100q0 -2 1.5 -4.5t3.5 -2.5q17 -1 35 -1q9 0 57 2q5 0 8.5 -2t3.5 -5q0 -13 -8.5 -41t-14.5 -28l-47 1q-7 0 -25 -2q-4 -1 -8.5 -3t-5.5 -3v-48q0 -28 13 -40.5t52 -23.5q13 -4 19 -8t6 -13q0 -7 -7 -11
t-15 -4q-23 0 -77 2t-72 2q-19 0 -69 -2q-39 -3 -75 -3q-7 0 -15 4.5z" />
    <glyph glyph-name="five" unicode="5" horiz-adv-x="540" 
d="M87 -22q0 11 10.5 15t31.5 7q56 8 101 31.5t71 56t26 66.5q0 55 -41.5 90.5t-136.5 64.5q-35 10 -47.5 21.5t-12.5 32.5q0 26 34 151l8 29q10 43 50 52q36 8 125 21.5t104 13.5q6 0 11 -6.5t5 -13.5q0 -16 -16 -52l-4.5 -9t-4.5 -12q-8 -21 -26.5 -35.5t-42.5 -15.5
l-85 -3q-14 0 -42 -1t-36 -2q-9 -1 -14 -11t-5 -18q0 -10 10 -12q50 -8 90 -22t86 -35q63 -29 92.5 -76.5t29.5 -103.5t-34 -108t-90 -83q-33 -18 -89 -33.5t-107 -15.5t-51 16z" />
    <glyph glyph-name="six" unicode="6" horiz-adv-x="540" 
d="M123 42q-53 56 -53 151q0 94 33 159.5t78 119.5q36 43 103.5 87t146.5 72q21 8 38 8q14 0 14 -7q0 -10 -8.5 -17t-29.5 -17q-50 -24 -85 -57t-67 -83q-29 -47 -52.5 -115.5t-23.5 -144.5q0 -52 12 -90t31.5 -57.5t40.5 -19.5q29 0 47 32t18 89q0 29 -10 54t-25.5 40
t-31.5 15q-17 0 -31 -6q-8 -4 -15 -4q-12 0 -12 11q0 10 9 20q6 6 22 20q20 17 50.5 31.5t53.5 14.5q37 0 70.5 -19.5t53.5 -53.5t20 -73q0 -52 -29 -102t-83 -82t-125 -32q-107 0 -160 56z" />
    <glyph glyph-name="seven" unicode="7" horiz-adv-x="540" 
d="M155 -19.5q-9 9.5 -9 23.5q0 8 18 36l10 17l232 415q3 5 3 7q0 7 -14 7h-217q-26 0 -40 -7.5t-29 -28.5q-3 -4 -12.5 -18.5t-20.5 -26t-21 -11.5q-7 0 -12.5 5t-5.5 12q0 9 5.5 29t6.5 23q6 30 10 46q16 72 16 100q0 11 8 15t16 3q7 0 14 -1l14 -2q48 -7 71 -8l185 -2
q95 0 143 3q4 0 7.5 -7.5t3.5 -15.5q0 -5 -17 -32l-20 -33l-300 -525q-6 -11 -13 -22t-10 -11q-13 0 -22 9.5z" />
    <glyph glyph-name="eight" unicode="8" horiz-adv-x="540" 
d="M163.5 7q-48.5 20 -76.5 56t-28 81q0 29 15.5 51t37.5 37t59 35l30 17q7 4 7 7q0 5 -11 11q-54 42 -85.5 84t-31.5 94q0 45 31.5 78.5t82 52t106.5 18.5q48 0 92 -18t70.5 -51t26.5 -74q0 -36 -17.5 -62t-44.5 -38q-37 -17 -42 -20q-17 -10 -17 -16q0 -5 11 -11
q67 -43 99 -78t32 -85q0 -57 -32 -100t-86.5 -66t-121.5 -23q-58 0 -106.5 20zM345 427.5q6 29.5 6 62.5q0 41 -15.5 66.5t-49.5 25.5q-29 0 -48 -20t-19 -52q0 -35 23 -63t64 -61q8 -6 13 -6q4 0 9 5q11 13 17 42.5zM344 57.5q22 24.5 22 60.5q0 58 -101 137q-2 2 -6.5 6
t-8.5 4q-2 0 -6.5 -3t-6.5 -5q-19 -18 -26 -43t-7 -65q0 -46 23.5 -81t60.5 -35q34 0 56 24.5z" />
    <glyph glyph-name="nine" unicode="9" horiz-adv-x="540" 
d="M62 -48.5q-7 5.5 -7 11.5q0 12 9 18.5t22 8.5q53 7 107 48t96 96q99 129 99 255q0 44 -14 87t-36.5 71t-47.5 28q-70 0 -70 -112q0 -30 10 -58t26 -46t33 -18q18 0 35 7q9 4 17 4q12 0 12 -11q0 -9 -10 -21q-4 -6 -10 -11.5t-9 -9.5q-14 -13 -42.5 -26.5t-52.5 -13.5
q-38 0 -75.5 20t-61.5 55.5t-24 79.5t34.5 94.5t90.5 85.5t118 35q59 0 109 -32t79.5 -84.5t29.5 -112.5q0 -85 -45 -164.5t-104 -134.5q-33 -30 -89 -67t-113 -62.5t-94 -25.5q-15 0 -22 5.5z" />
    <glyph glyph-name="colon" unicode=":" horiz-adv-x="289" 
d="M73.5 267.5q-25.5 25.5 -25.5 60.5q0 37 25.5 63t60.5 26q38 0 63.5 -25.5t25.5 -63.5q0 -35 -26 -60.5t-63 -25.5q-35 0 -60.5 25.5zM73.5 -8.5q-25.5 25.5 -25.5 60.5q0 37 25.5 63t60.5 26q38 0 63.5 -25.5t25.5 -63.5q0 -35 -26 -60.5t-63 -25.5q-35 0 -60.5 25.5z
" />
    <glyph glyph-name="semicolon" unicode=";" horiz-adv-x="251" 
d="M53.5 268.5q-25.5 25.5 -25.5 60.5q0 37 25.5 63t60.5 26q38 0 63.5 -25.5t25.5 -63.5q0 -35 -26 -60.5t-63 -25.5q-35 0 -60.5 25.5zM29.5 -163.5q-7.5 4.5 -7.5 12.5q0 7 5 10t19 7q41 11 62.5 33t21.5 51q0 18 -11.5 28t-30.5 16q-18 6 -30 21t-12 40q0 26 22.5 45.5
t50.5 19.5q47 0 76 -29t29 -76q0 -52 -25 -94t-65.5 -65.5t-84.5 -23.5q-12 0 -19.5 4.5z" />
    <glyph glyph-name="less" unicode="&#x3c;" horiz-adv-x="537" 
d="M85 188q-50 24 -50 32q0 10 12 28t28 24l403 197q4 2 7 2q17 0 17 -24q0 -15 -10 -28.5t-27 -21.5l-328 -158q-4 -2 -4.5 -5t4.5 -5l328 -157q17 -8 27 -21.5t10 -28.5t-7.5 -21t-16.5 -1z" />
    <glyph glyph-name="equal" unicode="=" horiz-adv-x="643" 
d="M50 320.5q-5 4.5 -5 8.5q0 13 7 29t21 16h502q10 0 16.5 -4.5t6.5 -11.5q0 -13 -10 -27.5t-22 -14.5h-505q-6 0 -11 4.5zM50 137.5q-5 4.5 -5 8.5q0 13 7 29t21 16h502q10 0 16.5 -4.5t6.5 -11.5q0 -13 -10 -27.5t-22 -14.5h-505q-6 0 -11 4.5z" />
    <glyph glyph-name="greater" unicode="&#x3e;" horiz-adv-x="537" 
d="M452 277q50 -24 50 -32q0 -10 -12 -28t-28 -24l-403 -197q-4 -2 -7 -2q-17 0 -17 24q0 15 10 28.5t27 21.5l328 158q4 2 4.5 5t-4.5 5l-328 157q-17 8 -27 21.5t-10 28.5t7.5 21t16.5 1z" />
    <glyph glyph-name="question" unicode="?" horiz-adv-x="399" 
d="M113 202q-25 44 -25 89q0 36 28.5 62.5t92.5 55.5q33 15 49 32.5t16 44.5q0 24 -20.5 37t-49.5 13q-21 0 -31.5 -3t-23.5 -9q-17 -7 -35 -7q-22 0 -42.5 32t-20.5 60q0 19 23 35.5t52 16.5q81 0 155 -79q34 -37 53.5 -81.5t19.5 -88.5q0 -38 -14.5 -63t-35.5 -35
q-6 -3 -51 -28q-26 -16 -40 -23q-22 -11 -30 -24.5t-12 -43.5q-3 -24 -23 -24q-16 0 -35 31zM91 8q-22 22 -22 53t22 53t53 22t53 -22t22 -53t-22 -53t-53 -22t-53 22z" />
    <glyph glyph-name="at" unicode="@" horiz-adv-x="788" 
d="M217.5 -114q-85.5 44 -136.5 122t-51 177q0 113 54 194t145 122.5t200 41.5q88 0 163.5 -39t120.5 -107.5t45 -152.5q0 -62 -30.5 -113t-79.5 -80t-101 -29q-27 0 -42.5 9t-26 21t-14.5 12q-2 0 -20 -9q-27 -16 -56.5 -27t-64.5 -11q-64 0 -105 35t-41 96q0 72 32.5 127
t88.5 85t123 30q29 0 73 -11q7 -2 16.5 -5.5t12.5 -3.5q6 0 14.5 13.5t15.5 13.5q8 0 21.5 -3t13.5 -8q-8 -21 -16 -51t-12 -50l-24 -137q-1 -4 -2 -11.5t-1 -13.5q0 -29 18 -29q55 0 93.5 36.5t38.5 95.5q0 76 -33 133.5t-93.5 89.5t-141.5 32q-84 0 -155 -35t-113.5 -100
t-42.5 -150q0 -81 42.5 -148t113.5 -105.5t154 -38.5q47 0 108.5 20t102.5 48q27 18 37 18q27 0 27 -19q0 -17 -48 -48.5t-115.5 -56t-123.5 -24.5q-99 0 -184.5 44zM420 95q9 7 14.5 18.5t9.5 33.5l22 117q1 2 1 12q0 28 -21.5 47t-51.5 19q-28 0 -53 -19.5t-40 -56
t-15 -85.5q0 -52 23.5 -79t54.5 -27q28 0 56 20z" />
    <glyph glyph-name="A" unicode="A" horiz-adv-x="726" 
d="M-5 12q0 9 5.5 13.5t16.5 8.5q30 8 51.5 25t31.5 39q95 221 171 434q12 33 19 59.5t9 26.5q43 10 75 21q17 6 32 16t23 19q8 4 10 4q5 0 8 -7q7 -15 11 -28q62 -202 137 -430l37 -115q14 -46 80 -64q11 -4 16.5 -8t5.5 -13q0 -7 -5.5 -11t-13.5 -4q-20 0 -80 2
q-62 2 -86 2q-20 0 -76 -2q-46 -3 -84 -3q-9 0 -15 4t-6 11q0 17 22 22q35 7 51.5 17.5t16.5 29.5q0 10 -2 16l-31 116q-2 9 -5.5 13t-10.5 4h-174q-8 0 -11 -4t-6 -13l-14 -43q-3 -11 -9 -29t-10 -32q-4 -13 -4 -26q0 -19 14.5 -29.5t51.5 -19.5q22 -5 22 -22
q0 -14 -21 -14q-23 0 -59 2l-54 1q-28 0 -55 -3q-9 -1 -27 -2t-32 -1q-26 0 -26 17zM388 288q15 0 15 7q0 1 -2 11l-64 221q-3 10 -6 10q-2 0 -6 -10l-77 -221q-2 -4 -2 -8q0 -5 5 -7.5t12 -2.5h125z" />
    <glyph glyph-name="B" unicode="B" horiz-adv-x="635" 
d="M21 0q-5 5 -5 11t5.5 12t14.5 9q35 10 47.5 22t12.5 41v456q0 32 -12 45.5t-48 21.5q-21 5 -21 21q0 7 5.5 11.5t14.5 4.5q36 0 80 -4q40 -4 63 -4q20 0 58 4q48 6 91 6q123 0 183.5 -34.5t60.5 -114.5q0 -30 -14.5 -57.5t-39.5 -48.5q-33 -28 -74 -37q-4 -1 -4 -5t4 -5
q70 -13 117 -48t47 -113q0 -52 -16.5 -85t-38 -50t-51.5 -32q-65 -31 -175 -31q-25 0 -73 2t-74 2q-33 0 -74 -3q-50 -2 -70 -2q-9 0 -14 5zM347 374q18 6 35 21q10 10 19.5 32.5t9.5 57.5q0 66 -23.5 95.5t-70.5 29.5q-51 0 -51 -42v-165q0 -16 12.5 -25.5t26.5 -9.5
q24 0 42 6zM374.5 71.5q23.5 17.5 37.5 47.5t14 67q0 75 -45 112q-9 8 -28 15t-43 7q-16 0 -30 -8t-14 -24v-172q0 -30 15 -46t42 -16q28 0 51.5 17.5z" />
    <glyph glyph-name="C" unicode="C" horiz-adv-x="709" 
d="M212.5 27.5q-86.5 41.5 -137 116.5t-50.5 171q0 92 49 172t141.5 128.5t217.5 48.5q44 0 95.5 -10.5t88.5 -25.5q20 -9 22 -27q8 -55 8 -121q0 -9 -5 -13.5t-12 -4.5t-13.5 4.5t-9.5 13.5q-10 29 -18 47t-23 33q-47 49 -142 49q-65 0 -114 -36.5t-75.5 -97.5t-26.5 -131
q0 -139 55 -220t161 -81q74 0 120 30.5t77 98.5q7 17 22 17q7 0 11.5 -4.5t4.5 -12.5q0 -46 -21 -118q-5 -20 -26 -30q-84 -38 -208 -38q-105 0 -191.5 41.5z" />
    <glyph glyph-name="D" unicode="D" horiz-adv-x="769" 
d="M235 -2l-52 2l-72 -1q-54 -2 -78 -2q-6 0 -12 4.5t-6 10.5q0 17 19 22q39 8 52.5 20.5t13.5 42.5v454q0 32 -13 45t-53 22q-19 5 -19 22q0 6 6 10.5t12 4.5q37 0 78 -3q54 -2 72 -2q16 0 90 4q110 5 121 5q93 0 173.5 -41t128.5 -115t48 -168q0 -90 -42 -168.5
t-123.5 -126t-193.5 -47.5q-45 0 -150 5zM513 116.5q48 68.5 48 189.5q0 136 -51 215.5t-151 79.5q-51 0 -70 -5.5t-19 -27.5v-434q0 -46 23.5 -66t75.5 -20q96 0 144 68.5z" />
    <glyph glyph-name="E" unicode="E" horiz-adv-x="577" 
d="M21 0q-5 5 -5 11t5.5 12t14.5 9q35 10 47.5 22t12.5 41v456q0 32 -12 45.5t-48 21.5q-21 5 -21 21q0 7 5.5 11.5t14.5 4.5q36 0 75 -3q50 -2 69 -2q134 0 233 3q31 0 52.5 4t24.5 4q9 0 17 -5t9 -16q3 -33 9 -61q8 -56 8 -74q0 -9 -3.5 -14.5t-9.5 -5.5t-11.5 4.5
t-9.5 12.5q-15 37 -22 51t-17 24q-14 14 -31 23t-42 9h-63q-25 0 -41 -12.5t-16 -33.5v-184q0 -24 26 -24h85q23 0 34.5 15t23.5 47q8 18 21 18q5 0 9 -6.5t3 -16.5q-5 -48 -5 -83q0 -43 4 -83v-8q0 -20 -10 -20q-7 0 -14 7t-10 17q-9 34 -21 50t-30 16h-94q-22 0 -22 -23
v-189q0 -27 11.5 -39t37.5 -12h89q46 0 73 23q29 24 57 80q6 12 19 12q10 0 10 -20q0 -18 -5 -39t-16 -55l-11 -38q-4 -12 -24 -12l-39 1q-195 3 -289 3q-34 0 -73 -3q-52 -2 -71 -2q-9 0 -14 5z" />
    <glyph glyph-name="F" unicode="F" horiz-adv-x="554" 
d="M21 1.5q-6 4.5 -6 10.5q0 17 19 22q39 8 52.5 20.5t13.5 42.5v454q0 32 -12 45.5t-48 21.5q-21 5 -21 21q0 7 5.5 11.5t14.5 4.5q36 0 75 -3q50 -2 69 -2h186q28 0 89 7q36 4 47 4q9 0 17 -5t9 -16q5 -85 5 -142q0 -9 -3.5 -14.5t-9.5 -5.5t-12.5 4.5t-8.5 12.5
q-9 30 -17.5 50t-20.5 33q-26 26 -74 26h-63q-25 0 -41 -12.5t-16 -33.5v-81v-97q0 -24 26 -24h93q24 0 35.5 13t22.5 41q8 18 21 18q5 0 9 -6.5t3 -16.5q-5 -48 -5 -76q0 -29 4 -69v-8q0 -20 -10 -20q-7 0 -14 7t-10 17q-9 30 -20.5 41.5t-30.5 11.5h-46h-58q-22 0 -22 -23
l1 -94q1 -32 1 -94q0 -30 16.5 -42t61.5 -22q10 -2 14.5 -7t4.5 -14q0 -15 -16 -15l-87 2l-81 2q-18 0 -72 -2q-40 -3 -78 -3q-6 0 -12 4.5z" />
    <glyph glyph-name="G" unicode="G" horiz-adv-x="717" 
d="M198.5 27.5q-80.5 41.5 -127 116.5t-46.5 171q0 91 46.5 171.5t133 129t200.5 48.5q41 0 103.5 -11t97.5 -25q19 -8 22 -27q12 -82 12 -121q0 -10 -4.5 -15t-12.5 -5q-11 0 -17 5t-11 15q-26 56 -52 82q-22 22 -50 34.5t-70 12.5q-68 0 -117 -36.5t-73.5 -97
t-24.5 -131.5q0 -141 45.5 -221t139.5 -80q26 0 57 22q10 7 15.5 23.5t6.5 38.5q2 34 2 88q0 26 -26 36q-30 12 -57 18q-10 3 -17.5 9t-7.5 14q0 7 6.5 11t15.5 4q38 0 83 -3q58 -2 76 -2q19 0 63 2q46 2 68 2q16 0 16 -15q0 -9 -4.5 -14t-14.5 -7q-29 -8 -40 -18t-15 -31
q-7 -34 -7 -75v-34q0 -6 6.5 -12.5l7.5 -7.5q10 -10 10 -22q0 -8 -5 -14.5t-16 -7.5q-7 -1 -28 -11q-45 -21 -95 -36t-117 -15q-97 0 -177.5 41.5z" />
    <glyph glyph-name="H" unicode="H" horiz-adv-x="799" 
d="M21 1.5q-6 4.5 -6 10.5q0 17 19 22q35 9 47.5 21t12.5 42v454q0 32 -12 45t-48 22q-19 5 -19 22q0 6 6 10.5t12 4.5q36 0 75 -3q50 -2 69 -2t75 2q58 2 80 2q16 0 16 -15q0 -9 -4.5 -13.5t-14.5 -7.5q-41 -12 -53 -25t-12 -43v-177q0 -15 16 -15h241q14 0 14 15v177
q0 30 -12 43t-53 25q-10 3 -14.5 7.5t-4.5 13.5q0 15 16 15q22 0 80 -2q56 -2 75 -2t69 2q39 3 75 3q7 0 12.5 -4.5t5.5 -10.5q0 -17 -19 -22q-36 -9 -48 -22t-12 -45v-454q0 -30 12.5 -42t47.5 -21q19 -5 19 -22q0 -6 -5.5 -10.5t-12.5 -4.5q-18 0 -70 2q-40 3 -74 3
q-19 0 -75 -2q-58 -2 -80 -2q-16 0 -16 15q0 9 4.5 13.5t14.5 7.5q39 11 52 23.5t13 40.5v186q0 17 -14 17h-241q-16 0 -16 -17v-186q0 -28 13 -40.5t52 -23.5q10 -3 14.5 -7.5t4.5 -13.5q0 -15 -16 -15q-22 0 -80 2q-56 2 -75 2q-33 0 -74 -3q-52 -2 -70 -2q-6 0 -12 4.5z
" />
    <glyph glyph-name="I" unicode="I" horiz-adv-x="369" 
d="M21 1.5q-6 4.5 -6 10.5q0 17 19 22q39 8 52.5 20.5t13.5 42.5v454q0 32 -13 45t-53 22q-19 5 -19 22q0 6 6 10.5t12 4.5q37 0 78 -3q54 -2 72 -2q19 0 75 2q58 2 80 2q16 0 16 -15q0 -9 -4.5 -13.5t-14.5 -7.5q-41 -12 -53 -25t-12 -43v-452q0 -28 13 -40.5t52 -23.5
q10 -3 14.5 -7.5t4.5 -13.5q0 -15 -16 -15q-22 0 -80 2q-56 2 -75 2q-18 0 -72 -2q-40 -3 -78 -3q-6 0 -12 4.5z" />
    <glyph glyph-name="J" unicode="J" horiz-adv-x="376" 
d="M-48 -184.5q-37 15.5 -37 44.5q0 21 18 40.5t36 19.5q20 0 41 -23q11 -12 23 -30q2 -2 7.5 -10t10 -11.5t9.5 -3.5q62 0 62 167v542q0 32 -13 45t-53 22q-19 5 -19 22q0 6 6 10.5t12 4.5q37 0 78 -3q54 -2 72 -2q19 0 75 2q58 2 80 2q16 0 16 -15q0 -9 -4.5 -13.5
t-14.5 -7.5q-41 -12 -53 -25t-12 -43v-456q0 -36 -22.5 -89.5t-58.5 -101.5q-35 -47 -73.5 -75t-75.5 -28q-73 0 -110 15.5z" />
    <glyph glyph-name="K" unicode="K" horiz-adv-x="781" 
d="M24.5 -0.5q-9.5 5.5 -9.5 12.5q0 17 25 22q38 7 49 19.5t11 43.5v454q0 32 -13 45t-53 22q-19 5 -19 22q0 6 6 10.5t12 4.5q37 0 78 -3q54 -2 72 -2q19 0 75 2q58 2 80 2q16 0 16 -15q0 -9 -4.5 -13.5t-14.5 -7.5q-41 -12 -53 -25t-12 -43v-207q0 -15 11 -15q6 0 14 6.5
t10 8.5l191 208q19 21 19 31q0 22 -46 32q-19 5 -19 22q0 6 6 10.5t12 4.5h72l94 1q68 2 112 2q11 0 19 -4t8 -11q0 -9 -9 -14t-21 -7q-50 -6 -86.5 -21.5t-67.5 -39.5q-24 -18 -52 -44.5t-55 -52.5l-62 -60q-7 -6 -7 -15t7 -17l239 -270q21 -23 43 -38.5t58 -25.5
q2 -1 11 -3.5t14.5 -7t5.5 -10.5q0 -8 -10.5 -13t-30.5 -5q-30 0 -53 1t-38 2q-64 4 -96 4q-36 0 -69 -3q-42 -2 -66 -2q-6 0 -12 4.5t-6 10.5q0 17 19 22q42 8 44 29q0 14 -17 34l-152 180q-13 16 -24 16t-11 -16q0 -119 3 -179q1 -21 4.5 -31.5t15 -18t37.5 -14.5
q13 -4 19 -8t6 -13q0 -7 -9 -12t-19 -5q-26 0 -89 5q-11 1 -24.5 2t-29.5 1q-15 0 -51 -4q-46 -6 -89 -6q-9 0 -18.5 5.5z" />
    <glyph glyph-name="L" unicode="L" horiz-adv-x="586" 
d="M25 0q-5 5 -5 11t5.5 12t14.5 9q35 10 47.5 22t12.5 41v456q0 32 -13 45t-53 22q-19 5 -19 22q0 6 6 10.5t12 4.5q37 0 78 -3q54 -2 72 -2q19 0 75 2q58 2 80 2q16 0 16 -15q0 -9 -4.5 -13.5t-14.5 -7.5q-41 -12 -53 -25t-12 -43v-445q0 -27 11.5 -39t37.5 -12h97
q38 0 69 28q28 26 54 81q10 21 15.5 26.5t12.5 5.5t10.5 -6.5t3.5 -14.5q0 -3 -1.5 -9.5t-2.5 -13.5q-15 -53 -21 -78t-9 -59q-2 -19 -17 -19l-87 1q-152 4 -260 4q-34 0 -73 -3q-52 -2 -71 -2q-9 0 -14 5z" />
    <glyph glyph-name="M" unicode="M" horiz-adv-x="921" 
d="M20 12q0 6 4.5 9t11.5 5t11 4q25 10 41.5 30t20.5 49q8 57 19.5 192.5t14.5 168.5l4 46q1 6 1 34q0 35 -26 49q-28 15 -52 21q-27 7 -27 22q0 16 26 16l74 -2q117 -3 125 -3q7 0 14.5 -6t9.5 -12q17 -47 28 -73l144 -339q2 -4 4.5 -4t3.5 4l131 315q14 75 21 96
q4 13 17 13h45q30 1 53 3t38 3q52 5 78 5t26 -16q0 -8 -5.5 -12t-17.5 -8q-7 -2 -12.5 -5t-8.5 -4q-32 -15 -44.5 -32.5t-10.5 -53.5q8 -182 22 -388l3 -41q4 -45 72 -64q11 -4 16.5 -8t5.5 -13q0 -7 -5.5 -11t-13.5 -4l-84 2l-78 2q-18 0 -72 -2q-40 -3 -78 -3q-9 0 -15 4
t-6 11q0 17 22 22q39 9 53 21.5t13 41.5q-4 66 -8 212q-1 58 -5 147q0 5 -3 5t-6 -7l-182 -451q-5 -13 -15 -13t-16 11q-22 49 -41.5 89.5t-34.5 73.5q-89 186 -129 285q-3 7 -8 7q-8 0 -10 -16q-3 -52 -3 -124l1 -116q1 -35 1 -96q0 -28 18 -44t58 -26q27 -7 27 -21
q0 -7 -7.5 -11t-16.5 -4q-30 0 -60 2l-43 1q-29 0 -64.5 -1.5t-46.5 -2.5q-23 0 -23 15z" />
    <glyph glyph-name="N" unicode="N" horiz-adv-x="813" 
d="M636.5 -1.5q-29.5 17.5 -59.5 53.5l-389 413q-7 10 -11 10q-7 0 -7 -19q0 -73 3 -165q1 -36 2 -82t1 -96q0 -33 20.5 -51t62.5 -28q27 -7 27 -21q0 -7 -7.5 -11t-16.5 -4q-32 0 -66 2l-49 1q-29 0 -57 -1.5t-36 -2.5q-7 0 -15 4.5t-8 10.5q0 8 6 12.5t18 9.5q45 18 50 81
q21 222 21 393q0 47 -22.5 71t-66.5 41q-27 7 -27 22q0 16 26 16l76 -2q120 -3 127 -3q13 0 20 -10l369 -409q10 -12 14 -12q8 0 8 14v105q0 156 -3 212q-1 28 -19 41t-59 24q-23 6 -23 21q0 6 6.5 10.5t14.5 4.5l65 -1q13 -1 41 -1l46 1q32 2 60 2q11 0 17.5 -4t6.5 -11
q0 -16 -25 -21q-36 -7 -51 -20.5t-15 -42.5q0 -60 -7 -228q-5 -98 -5 -158q0 -23 3.5 -56.5t4.5 -43.5q4 -38 4 -40q0 -49 -29 -49q-17 0 -46.5 17.5z" />
    <glyph glyph-name="O" unicode="O" horiz-adv-x="759" 
d="M201.5 27.5q-80.5 41.5 -128.5 116.5t-48 171q0 92 42 172t123.5 128.5t193.5 48.5q93 0 173.5 -41.5t128.5 -116.5t48 -171q0 -92 -42 -172t-123.5 -128.5t-193.5 -48.5q-93 0 -173.5 41.5zM511.5 101q41.5 68 41.5 182q0 85 -20.5 161t-63 124t-105.5 48
q-77 0 -117.5 -68t-40.5 -181q0 -84 20.5 -160.5t62.5 -125t104 -48.5q77 0 118.5 68z" />
    <glyph glyph-name="P" unicode="P" horiz-adv-x="619" 
d="M21 1.5q-6 4.5 -6 10.5q0 17 19 22q39 8 52.5 20.5t13.5 42.5v454q0 32 -12 45.5t-48 21.5q-21 5 -21 21q0 7 5.5 11.5t14.5 4.5q36 0 75 -3q50 -2 69 -2t55 4q44 6 89 6q123 0 195 -52.5t72 -143.5q0 -65 -28 -118.5t-83 -85t-135 -31.5q-26 0 -40.5 8t-14.5 20
q0 7 6.5 11.5t12.5 4.5q8 0 19.5 -2.5t20.5 -2.5q37 0 57 45.5t20 121.5q0 93 -26 135.5t-76 42.5q-56 0 -56 -53l-1 -462q0 -30 16.5 -42t61.5 -22q10 -2 14.5 -7t4.5 -14q0 -15 -16 -15l-87 2l-81 2q-18 0 -72 -2q-40 -3 -78 -3q-6 0 -12 4.5z" />
    <glyph glyph-name="Q" unicode="Q" horiz-adv-x="759" 
d="M601 -227.5q-66 20.5 -117 57.5q-43 30 -70.5 51.5t-57.5 48.5q-6 5 -24.5 23t-41 33.5t-47.5 24.5q-85 30 -151.5 103t-66.5 201q0 92 42 172t123.5 128.5t193.5 48.5q93 0 173.5 -41.5t128.5 -116.5t48 -171q0 -104 -53 -190.5t-150 -128.5q-11 -3 -11 -11q0 -5 5 -10
q46 -45 104 -92q91 -76 171 -76q15 0 31 2t23 2q31 0 31 -23q0 -9 -4.5 -15.5t-15.5 -13.5q-20 -13 -56.5 -20t-82.5 -7q-59 0 -125 20.5zM512 101q41 65 41 182q0 87 -20.5 162t-63 121t-105.5 46q-77 0 -117.5 -64.5t-40.5 -180.5q0 -87 20 -162.5t62.5 -122t104.5 -46.5
q78 0 119 65z" />
    <glyph glyph-name="R" unicode="R" horiz-adv-x="770" 
d="M526 5q-44 26 -80 74q-36 49 -64 94t-54 102q-10 22 -24 30q-11 7 -24 7q-10 0 -10 -20v-194q0 -30 16.5 -42t61.5 -22q10 -2 14.5 -7t4.5 -14q0 -15 -16 -15l-87 2l-81 2q-18 0 -72 -2q-40 -3 -78 -3q-6 0 -12 4.5t-6 10.5q0 17 19 22q39 8 52.5 20.5t13.5 42.5v454
q0 32 -12 45.5t-48 21.5q-21 5 -21 21q0 7 5.5 11.5t14.5 4.5q36 0 80 -4q40 -4 63 -4q19 0 55 4q44 6 89 6q120 0 183.5 -40t63.5 -120q0 -61 -38 -98.5t-93 -53.5q-3 -1 -3 -5t2 -7q50 -75 92 -130t82 -93q31 -29 64.5 -37t80.5 -8q15 0 15 -19q0 -67 -128 -67
q-77 0 -121 26zM383.5 380q26.5 34 26.5 93q0 70 -26 103.5t-75 33.5q-21 0 -30 -18.5t-9 -73.5v-134q0 -38 35 -38q52 0 78.5 34z" />
    <glyph glyph-name="S" unicode="S" horiz-adv-x="500" 
d="M61 27q-17 10 -23 25q-18 47 -18 122q0 21 1 32q0 13 19 13q10 0 14 -2.5t8 -10.5q24 -78 69 -125t104 -47q43 0 66 28.5t23 63.5q0 42 -25 68t-89 61q-56 30 -90 55t-57.5 64.5t-23.5 94.5q0 58 32 102.5t87 68.5t120 24q36 0 72.5 -7.5t60.5 -17.5q13 -5 18 -11t10 -22
q10 -40 10 -121q0 -5 -5 -9t-14 -4t-16 4.5t-9 11.5q-16 61 -50 93t-83 32q-89 0 -89 -85q0 -31 31.5 -58.5t102.5 -69.5q85 -51 116.5 -97.5t31.5 -113.5q0 -103 -64.5 -153t-178.5 -50q-93 0 -161 41z" />
    <glyph glyph-name="T" unicode="T" horiz-adv-x="701" 
d="M190 1.5q-7 4.5 -7 10.5q0 17 22 22q40 9 55.5 21.5t15.5 41.5v418q0 52 -3.5 66.5t-11.5 19.5q-12 7 -41 7h-17q-32 0 -62 -16.5t-49 -41.5q-17 -23 -31 -38t-27 -15q-16 0 -16 18q0 13 7 27q21 42 30 69.5t12 62.5q3 26 26 26q6 0 18 -16q8 -12 16 -18q9 -7 32.5 -11.5
t39.5 -4.5l382 1q21 0 38 4.5t25 9.5q6 3 23 18q16 16 27 16q12 0 12 -16q0 -5 -2 -19q-2 -7 -9 -32t-10.5 -45t-3.5 -36v-21q0 -19 -4 -28t-13 -9q-10 0 -16.5 9t-13.5 30q-13 41 -35.5 58.5t-64.5 17.5h-41q-18 0 -27.5 -8t-14.5 -31t-5 -66v-405q0 -27 14.5 -39.5
t55.5 -24.5q11 -4 16.5 -8t5.5 -13q0 -7 -5.5 -11t-13.5 -4q-21 0 -83 2l-77 2q-18 0 -74 -2q-43 -3 -81 -3q-7 0 -14 4.5z" />
    <glyph glyph-name="U" unicode="U" horiz-adv-x="746" 
d="M160.5 58.5q-73.5 72.5 -73.5 197.5v280q0 28 -13.5 51.5t-38.5 30.5q-27 7 -27 22q0 7 7.5 11t18.5 4q35 0 72 -3q46 -2 65 -2t71 2q54 2 76 2q26 0 26 -15q0 -8 -8 -13t-20.5 -9.5t-20.5 -8.5q-37 -18 -37 -78v-258q0 -94 43 -142.5t109 -48.5q89 0 132.5 51t43.5 159
q0 42 1 65l1 75q0 32 -1 46q-1 48 -6.5 73.5t-16.5 39t-33 24.5q-7 4 -18 7.5t-17 7.5t-6 10q0 15 30 15q31 0 63 -2l38 -1q18 0 44 2t48 2q25 0 25 -15q0 -14 -26 -22q-34 -10 -48 -31t-16 -60q-5 -121 -5 -262q0 -81 -36 -144.5t-97.5 -99t-136.5 -35.5
q-139 0 -212.5 72.5z" />
    <glyph glyph-name="V" unicode="V" horiz-adv-x="714" 
d="M332 0q-4 8 -17 38t-21 54l-199 459q-11 25 -28 42t-45 25q-11 4 -16.5 8t-5.5 13q0 7 5.5 11t13.5 4q21 0 79 -2q54 -2 73 -2l80 2q48 3 87 3q9 0 18 -4.5t9 -10.5q0 -15 -28 -22q-32 -7 -44 -15t-12 -25q0 -7 4 -23l126 -358q3 -8 5 -8t5 9l112 295q13 32 13 60
q0 56 -61 65q-11 2 -20.5 8t-9.5 14q0 6 9 10t20 4q22 0 50 -2l45 -1q28 0 52 3q8 0 25.5 1.5t31.5 1.5q30 0 30 -17q0 -8 -5.5 -11.5t-12 -5.5t-8.5 -3q-30 -8 -48 -29.5t-39 -70.5l-144 -343q-32 -75 -80 -177q-5 -10 -10 -14t-16 -4q-15 0 -23 18z" />
    <glyph glyph-name="W" unicode="W" horiz-adv-x="1043" 
d="M1047 640q0 -7 -6.5 -11t-14 -6t-10.5 -3q-28 -8 -44 -24t-28 -42l-245 -551q-5 -10 -9 -14t-12 -4q-16 0 -25 19l-16 32q-57 114 -95 198q-3 6 -7 6q-5 0 -8 -6q-86 -158 -127 -229q-6 -12 -10 -17t-12 -5q-9 0 -12.5 5.5t-10.5 19.5l-260 546q-13 27 -26.5 41.5
t-40.5 22.5q-14 5 -21 9t-7 12q0 7 8 11t17 4q22 0 74 -2q50 -2 69 -2t61 2q33 3 67 3q8 0 12 -1h1q21 0 79 -2q54 -2 73 -2t61 2q46 2 68 2q16 0 25 -3.5t9 -10.5q0 -9 -8 -13.5t-27 -8.5q-26 -5 -26 -26q0 -8 3 -16l12 -31q17 -51 36 -94q5 -12 9 -12q3 0 5.5 5l3.5 7
q6 12 28 68l18 46q5 10 5 22q0 11 -7.5 17.5t-21.5 12.5q-2 1 -8.5 4.5t-10 7.5t-3.5 9q0 8 3.5 11.5t17.5 3.5q22 0 36 -1.5t24 -1.5q6 0 20 2q39 3 56 3q30 0 30 -17q0 -8 -5.5 -11.5t-12 -5.5t-8.5 -3q-27 -7 -41.5 -22.5t-29.5 -43.5q-36 -69 -71 -142q-5 -12 -5 -21
q0 -13 8 -32l71 -158q3 -7 6 -7t7 8q89 197 145 339q14 36 14 46q0 26 -29 33q-30 7 -30 22q0 6 9 10t20 4q23 0 39 -1.5t25 -1.5q7 0 27 2q26 4 54 4q35 0 35 -17zM506 301q0 5 -5 17l-113 236q-19 48 -76 64q-4 2 -7 2q-2 0 -10 -2q-16 -3 -19.5 -9.5t-3.5 -20.5
q0 -6 1.5 -13.5t3.5 -12.5q18 -43 56 -129q77 -179 99 -234q5 -12 8 -12q4 0 9 11l50 85q7 12 7 18z" />
    <glyph glyph-name="X" unicode="X" horiz-adv-x="760" 
d="M-5 10q0 8 5.5 11.5t12 5.5t8.5 3q31 10 58.5 30.5t60.5 63.5l121 157q13 18 13 34q0 17 -14 37l-144 202q-20 28 -34.5 42.5t-41.5 21.5q-11 4 -16.5 8t-5.5 13q0 7 5.5 11t13.5 4q21 0 50 -1t44 -2q45 -3 92 -3q16 0 37.5 1t32.5 2q48 4 77 4q9 0 18 -4.5t9 -10.5
q0 -15 -28 -22q-33 -7 -47 -15.5t-14 -25.5q0 -5 4 -13.5t9 -15.5l96 -131q11 -14 19 -14q7 0 16 12l77 108q24 33 24 56q0 14 -10 23t-34 16q-30 9 -30 22q0 7 9 10.5t23 3.5q23 0 49 -2q24 -2 44 -2q13 0 27 1.5t21 1.5q28 4 51 4q13 0 23 -4t10 -13q0 -7 -6 -11t-13 -6
t-10 -3q-22 -7 -44.5 -22.5t-37.5 -33.5l-142 -177q-11 -14 -11 -25q0 -12 12 -30l170 -240q34 -48 65 -56q12 -3 24 -10t12 -16q0 -7 -7 -11t-18 -4q-30 0 -63 1.5t-47 1.5q-43 3 -85 3l-65 -1q-46 -2 -70 -2q-9 0 -18 4.5t-9 10.5q0 15 28 22q27 6 43.5 14.5t16.5 23.5
q0 8 -8 21l-110 154q-16 23 -26 23t-23 -20l-85 -126q-19 -30 -19 -52q0 -16 11.5 -27t34.5 -14q11 -2 20.5 -8t9.5 -14q0 -6 -9 -10t-20 -4q-31 0 -71 2l-34 1q-27 0 -51 -3q-8 0 -24.5 -1.5t-31.5 -1.5q-30 0 -30 17z" />
    <glyph glyph-name="Y" unicode="Y" horiz-adv-x="671" 
d="M175 -1q-8 5 -8 12q0 16 29 22q37 7 51.5 26t14.5 51v136q0 34 -8 56.5t-25 50.5l-131 201q-17 26 -33 41.5t-43 22.5q-11 4 -16.5 8t-5.5 13q0 7 5.5 11t13.5 4q22 0 48.5 -1.5t39.5 -1.5q41 -3 84 -3q15 0 34.5 1t30.5 2q44 4 70 4q9 0 18 -4.5t9 -10.5q0 -15 -28 -22
q-32 -7 -44 -15t-12 -25q0 -16 11 -35l105 -179q7 -13 16 -13q7 0 15 13q53 95 89 174q10 22 10 38q0 19 -17 29.5t-40 12.5q-11 1 -20.5 7.5t-9.5 14.5q0 6 9 10t20 4q29 0 56 -3q34 -2 52 -2q14 0 46 4t55 4q30 0 30 -17q0 -8 -5.5 -11.5t-12 -5.5t-8.5 -3
q-29 -8 -51.5 -24.5t-34.5 -38.5q-34 -56 -52 -83q-54 -89 -72 -119q-28 -49 -28 -99v-145q0 -38 13 -52.5t53 -25.5q15 -4 22 -8t7 -13q0 -7 -7.5 -12t-18.5 -5q-21 0 -81 4q-56 4 -75 4q-18 0 -72 -4q-45 -5 -78 -5q-12 0 -20 5z" />
    <glyph glyph-name="Z" unicode="Z" horiz-adv-x="595" 
d="M483 -3l-219 3l-151 -3l-77 -2q-10 0 -14.5 13.5t-0.5 18.5q40 64 58 95q40 71 93.5 158t72.5 118q48 76 108 176q6 12 6 18q0 11 -15 11h-63h-64q-82 0 -135 -87q-10 -16 -20 -25.5t-24 -9.5q-16 0 -16 18q0 13 7 27q17 36 21 58t9 75q2 16 6.5 22.5t16.5 6.5
q7 0 29 -14q18 -12 27 -16q15 -6 29.5 -7t31.5 -1h25h116l108 2q70 3 118 3q7 0 13.5 -10.5t4.5 -14.5l-70 -114q-44 -72 -112 -192q-85 -152 -136 -231q-12 -19 -12 -29q0 -6 6 -8.5t19 -3.5q30 -2 67 -2q47 0 76.5 4t51.5 15q22 12 39 34t33 60q6 12 19 12q6 0 10.5 -4
t4.5 -11q0 -30 -24 -112l-9 -32q-6 -20 -29 -20z" />
    <glyph glyph-name="bracketleft" unicode="[" horiz-adv-x="362" 
d="M124 -198.5q-8 2.5 -11 14t-3 39.5v790q0 28 3 39.5t11 14t28 2.5l176 -1q10 0 17 -3t7 -14q0 -15 -36 -22l-81 -12q-9 -1 -13.5 -8t-4.5 -15l-1 -751q0 -7 4.5 -13.5t12.5 -7.5l76 -12q39 -7 39 -21q0 -21 -20 -21l-176 -1q-20 0 -28 2.5z" />
    <glyph glyph-name="backslash" unicode="\" horiz-adv-x="407" 
d="M341 -58q-12 4 -17 16l-313 687q-1 2 -1 5q0 7 6 12t17 5q19 0 30 -4.5t17 -17.5l312 -687l1 -4q0 -7 -6 -11.5t-16 -4.5q-18 0 -30 4z" />
    <glyph glyph-name="bracketright" unicode="]" horiz-adv-x="362" 
d="M238 -198.5q8 2.5 11 14t3 39.5v790q0 28 -3 39.5t-11 14t-28 2.5l-176 -1q-10 0 -17 -3t-7 -14q0 -15 36 -22l81 -12q9 -1 13.5 -8t4.5 -15l1 -751q0 -7 -4.5 -13.5t-12.5 -7.5l-76 -12q-39 -7 -39 -21q0 -21 20 -21l176 -1q20 0 28 2.5z" />
    <glyph glyph-name="asciicircum" unicode="^" horiz-adv-x="517" 
d="M30 259q0 3 2 7l221 343h8l224 -343q2 -6 2 -8q0 -6 -6.5 -11t-17.5 -5q-26 0 -50 37l-151 221q-3 5 -5 4.5t-5 -4.5l-148 -221q-24 -37 -50 -37q-24 0 -24 17z" />
    <glyph glyph-name="underscore" unicode="_" horiz-adv-x="610" 
d="M602 -131.5q7 -4.5 7 -11.5q0 -14 -10.5 -29.5t-23.5 -15.5h-558q-6 0 -11.5 4.5t-5.5 9.5q0 13 7.5 30t21.5 17h556q10 0 17 -4.5z" />
    <glyph glyph-name="grave" unicode="`" horiz-adv-x="245" 
d="M174 467q-45 45 -106 115l-25 28q-10 11 -10 25q0 12 17.5 18.5t43.5 6.5q20 0 30.5 -5.5t18.5 -21.5q10 -21 29.5 -66t33.5 -80q5 -12 5 -22q0 -13 -11 -13t-26 15z" />
    <glyph glyph-name="a" unicode="a" horiz-adv-x="447" 
d="M57.5 13.5q-30.5 27.5 -30.5 66.5q0 34 21.5 58t66.5 44l86 38q20 9 25 16t5 27l1 55q2 60 -40 60q-12 0 -25 -5.5t-19 -12.5q-5 -6 -5 -19q0 -7 1 -15.5t1 -15.5q0 -10 -35 -25.5t-59 -15.5q-8 0 -13.5 6.5t-5.5 16.5q0 16 11 31t37 36q40 32 90.5 54.5t84.5 22.5
q57 0 90.5 -36.5t32.5 -97.5l-5 -194q-1 -23 7.5 -39.5t21.5 -16.5q18 0 32 13q3 3 6 3q5 0 8.5 -3.5t3.5 -8.5q0 -12 -20 -32q-38 -38 -87 -38q-31 0 -54 14t-43 44h-2q-33 -32 -59 -45t-55 -13q-44 0 -74.5 27.5zM220 68q6 8 6 23l3 77q0 14 -10 14q-4 0 -10 -3
q-28 -15 -38.5 -29t-10.5 -46q0 -26 10 -37.5t24 -11.5q16 0 26 13z" />
    <glyph glyph-name="b" unicode="b" horiz-adv-x="548" 
d="M178 2q-34 9 -46 9q-20 0 -38 -13q-11 -7 -16 -7q-9 0 -14 3.5t-5 9.5q0 7 6 36.5t5 69.5l-5 436q0 32 -7 50t-30 22q-12 2 -12 16q0 13 11 15q43 8 98.5 29t61.5 23q10 4 15 4q12 0 12 -13q0 -8 -2.5 -25.5t-2.5 -28.5l-1 -216q0 -12 2.5 -19.5t6.5 -7.5q65 41 124 41
q52 0 94.5 -27.5t67 -75t24.5 -106.5q0 -71 -31.5 -125.5t-87.5 -85t-129 -30.5q-47 0 -101 16zM351.5 80.5q21.5 49.5 21.5 119.5q0 69 -23.5 123t-69.5 54q-16 0 -37.5 -4.5t-34.5 -13.5v-217q0 -47 26 -79t61 -32t56.5 49.5z" />
    <glyph glyph-name="c" unicode="c" horiz-adv-x="412" 
d="M114.5 15q-43.5 29 -68.5 79t-25 111q0 63 30 116t82 84t114 31q41 0 78 -15t63 -43q8 -10 8 -18q0 -9 -19 -28.5t-30 -19.5q-9 0 -16.5 4.5t-19.5 14.5q-27 23 -53.5 36.5t-46.5 13.5q-36 0 -52.5 -29.5t-16.5 -98.5q0 -74 32 -115t93 -41q28 0 50.5 9t48.5 29
q2 2 7.5 6t10.5 4q12 0 12 -16q0 -13 -6 -27q-9 -23 -35.5 -50t-64.5 -46.5t-79 -19.5q-53 0 -96.5 29z" />
    <glyph glyph-name="d" unicode="d" horiz-adv-x="563" 
d="M544 62q5 0 7 -2t2 -9q0 -8 -6.5 -17.5t-11.5 -9.5q-86 -10 -159 -37q-12 -6 -18 -6q-3 0 -9 7t-6 11q4 22 6 52v6q-22 -33 -58 -52t-75 -19q-54 0 -99 27.5t-70.5 75.5t-25.5 107q0 69 31 123t86 84t126 30q29 0 59 -8l13 -3q4 0 4 11v113q0 36 -8 52t-29 20
q-12 3 -12 16t11 15q36 7 78.5 20.5t70.5 25.5q22 10 26 10q5 0 8.5 -3.5t3.5 -8.5q-1 -4 -2.5 -20.5t-2.5 -34.5l-6 -516q0 -35 5 -49t18 -14l39 3h4zM489 692v1v-1zM307 65q21 7 33 19l-1 231q0 14 -13 30.5t-32.5 27.5t-35.5 11q-36 0 -59.5 -45t-23.5 -115
q0 -73 27 -119.5t69 -46.5q15 0 36 7z" />
    <glyph glyph-name="e" unicode="e" horiz-adv-x="423" 
d="M114.5 15q-43.5 29 -68.5 79t-25 111q0 63 30 116t81.5 84t112.5 31q42 0 77.5 -19t56.5 -51t21 -71q0 -20 -7.5 -29.5t-23.5 -9.5h-198q-14 0 -20.5 -8t-6.5 -27q0 -55 35 -92t90 -37q27 0 51 10.5t52 30.5q9 7 14 7q11 0 11 -13q0 -9 -6 -27q-15 -45 -63.5 -79.5
t-116.5 -34.5q-53 0 -96.5 29zM224 300q24 0 35.5 1t20.5 4q4 1 7.5 10t3.5 20q0 26 -16.5 42.5t-42.5 16.5q-30 0 -54 -25t-22 -54q0 -7 4 -11t11 -4h53z" />
    <glyph glyph-name="f" unicode="f" horiz-adv-x="369" 
d="M26.5 1.5q-6.5 4.5 -6.5 10.5q0 13 18 20q28 9 35 15.5t7 23.5v285q-31 0 -52 2q-6 1 -10 12t-4 20q0 7 10 10q19 7 56 23q7 99 48.5 162.5t100 92t116.5 28.5q71 0 102.5 -19.5t31.5 -62.5q0 -24 -11 -38t-30 -14q-15 0 -37 29q-24 26 -46.5 42t-51.5 16
q-39 0 -58.5 -33.5t-19.5 -106.5v-81q0 -15 17 -15h110q8 0 12.5 -5t4.5 -12q0 -9 -2.5 -19.5t-6.5 -17.5q-5 -8 -8 -8h-87q-23 0 -31.5 -5.5t-8.5 -19.5v-245q0 -19 4.5 -29t18 -16.5t42.5 -12.5q10 -2 14.5 -6.5t4.5 -12.5q0 -6 -5 -11.5t-11 -5.5q-34 0 -73 3
q-50 2 -65 2q-16 0 -54 -2q-30 -3 -61 -3q-7 0 -13.5 4.5z" />
    <glyph glyph-name="g" unicode="g" horiz-adv-x="514" 
d="M515.5 407.5q4.5 -6.5 4.5 -17.5q0 -8 -4 -20t-10 -20q-6 -7 -13 -7h-27q-26 0 -36 -8q-1 -1 -3 -2t-2 -12.5v-32.5q0 -52 -27.5 -96.5t-74.5 -71t-101 -26.5q-33 0 -70 13q-16 -13 -16 -23q0 -15 29.5 -22t115.5 -14q112 -9 161.5 -33.5t49.5 -71.5q0 -55 -40.5 -109
t-104 -88.5t-127.5 -34.5q-100 0 -156 30t-56 83q0 33 7.5 50.5t33.5 36.5l54 40q-68 32 -68 94q0 22 28 40q34 22 53 41q-38 23 -60.5 58.5t-22.5 78.5q0 50 29 89.5t77 62t102 22.5q17 0 37 -3t40 -7l48 -9q42 -7 82 -7q14 0 34 2l21 1q8 0 12.5 -6.5zM281.5 174.5
q17.5 34.5 17.5 93.5q0 57 -18.5 91t-49.5 34q-28 0 -47 -34t-19 -86q0 -57 20 -95t49 -38q30 0 47.5 34.5zM347.5 -106q-10.5 9 -37 15t-78.5 12q-46 5 -76 13q-54 -33 -54 -76q0 -41 34 -67.5t87 -26.5q71 0 98 27q17 17 27 38t10 41q0 15 -10.5 24z" />
    <glyph glyph-name="h" unicode="h" horiz-adv-x="569" 
d="M21 1q-5 4 -5 11q0 13 23 21q3 1 14.5 5t17 11.5t5.5 21.5v475q0 31 -7.5 49t-30.5 23q-11 2 -11 16q0 13 10 15q42 8 142 45l21 8q9 3 14 3q11 0 11 -13l-2 -23l-3 -31v-244q0 -23 5 -27q37 32 68.5 50.5t76.5 18.5q56 0 92 -38.5t36 -104.5v-220q0 -19 8 -26t27 -14
q11 -4 16 -8.5t5 -12.5q0 -6 -5.5 -10.5t-16.5 -4.5q-34 0 -58 3q-30 2 -50 2q-22 0 -48 -2q-19 -3 -52 -3q-25 0 -25 16q0 14 20 20q16 5 25 13.5t9 28.5v196q0 31 -17 53t-41 22q-34 0 -64 -22q-6 -4 -8 -10t-2 -18v-223q0 -18 8 -25.5t24 -13.5q20 -8 20 -21
q0 -7 -4.5 -11.5t-12.5 -4.5q-30 0 -59 3q-36 2 -52 2q-17 0 -51 -2q-27 -3 -58 -3q-10 0 -15 4z" />
    <glyph glyph-name="i" unicode="i" horiz-adv-x="306" 
d="M25 1q-5 4 -5 10q0 15 17 20q28 7 38 14.5t10 22.5v216q0 34 -10 47.5t-33 16.5q-6 1 -9 6.5t-3 12.5t3.5 12t8.5 6q46 9 82 23t83 35q18 8 22 8q7 0 10.5 -4t3.5 -10l-5 -44q-8 -68 -8 -105v-219q0 -13 10 -21t38 -17q9 -3 13.5 -7t4.5 -12q0 -14 -15 -14q-19 0 -65 2
q-44 2 -60 2q-17 0 -57 -2q-32 -3 -63 -3q-6 0 -11 4zM93 513q-25 25 -25 59q0 37 24.5 62t59.5 25q37 0 62 -25t25 -62q0 -35 -25 -59.5t-62 -24.5q-34 0 -59 25z" />
    <glyph glyph-name="j" unicode="j" horiz-adv-x="275" 
d="M-40 -270q0 7 4.5 12t16.5 10q19 9 31 20t24 35q17 36 24 106t7 135v236q0 34 -10 47.5t-33 16.5q-6 1 -9 6.5t-3 12.5t3.5 12t8.5 6q46 9 82 23t83 35q18 8 22 8q7 0 10.5 -4t3.5 -10l-5 -44q-8 -68 -8 -105l1 -197q0 -66 -8 -128t-32 -115q-24 -52 -74.5 -93.5
t-93.5 -41.5q-45 0 -45 17zM77 513q-25 25 -25 59q0 37 24.5 62t59.5 25q37 0 62 -25t25 -62q0 -35 -25 -59.5t-62 -24.5q-34 0 -59 25z" />
    <glyph glyph-name="k" unicode="k" horiz-adv-x="563" 
d="M20 1q-5 4 -5 11q0 13 23 21q3 1 14.5 5t17 11.5t5.5 21.5v475q0 31 -7.5 49t-30.5 23q-11 2 -11 16q0 13 10 15q42 8 142 45l21 8q9 3 14 3q11 0 11 -13l-2 -23l-3 -31l1 -384q0 -13 9 -13q5 0 12 5q33 29 63.5 63t41.5 52q9 14 9 18q0 6 -8.5 11t-24.5 7q-12 2 -12 12
q0 14 22 14h49q25 0 74.5 3t80.5 6q11 0 11 -12q0 -16 -23 -21q-39 -9 -91 -39q-63 -34 -103 -74q-5 -5 -5 -11q0 -4 3 -7.5t4 -4.5q19 -25 43 -60q6 -8 32.5 -45t56.5 -71q15 -17 39.5 -33t42.5 -23q2 -1 10 -3.5t12.5 -6.5t4.5 -9q0 -15 -22 -15q-49 0 -133 2l-101 1
q-10 0 -15 4t-5 11q0 13 23 21q13 5 14 14q0 6 -13 24l-91 133l-4 2q-6 -2 -6 -8v-61v-70q0 -15 6.5 -23t22.5 -13q20 -8 20 -21q0 -7 -4.5 -11.5t-12.5 -4.5q-29 0 -58 3q-34 2 -50 2q-17 0 -51 -2q-27 -3 -58 -3q-10 0 -15 4z" />
    <glyph glyph-name="l" unicode="l" horiz-adv-x="295" 
d="M20 1q-5 4 -5 11q0 13 23 21q3 1 14.5 5t17 11.5t5.5 21.5v475q0 31 -7.5 49t-30.5 23q-11 2 -11 16q0 13 10 15q38 7 88.5 25.5t56.5 20.5l19 7q9 3 14 3q11 0 11 -13l-2 -23l-3 -31v-565q0 -17 7 -24t17 -10t13 -4q23 -8 23 -21q0 -7 -5 -11t-15 -4q-22 0 -62 2l-54 1
q-17 0 -51 -2q-27 -3 -58 -3q-10 0 -15 4z" />
    <glyph glyph-name="m" unicode="m" horiz-adv-x="813" 
d="M26.5 1.5q-6.5 4.5 -6.5 10.5q0 13 23 21q19 6 28 13t9 25v232q0 47 -29 52q-12 2 -12 19q0 15 11 18q117 29 160 53q10 6 13 6q10 0 10 -12l-2 -22q-3 -36 -3 -37q0 -10 2 -12h2q34 33 69.5 50.5t77.5 17.5q29 0 56 -22.5t39 -56.5h5q62 79 149 79q48 0 80.5 -38.5
t32.5 -105.5v-222q0 -18 8.5 -24.5t28.5 -12.5q20 -7 20 -21q0 -6 -5.5 -10.5t-11.5 -4.5q-31 0 -60 3q-36 2 -52 2q-15 0 -47 -2q-24 -3 -53 -3q-6 0 -11 4.5t-5 10.5q0 14 19 21q13 4 18.5 10t5.5 20v204q0 36 -13.5 57t-36.5 22q-11 0 -25 -6t-27 -17q-6 -6 -8.5 -13.5
t-2.5 -21.5v-218q0 -19 5.5 -25.5t21.5 -11.5q20 -7 20 -21q0 -6 -5.5 -10.5t-11.5 -4.5q-30 0 -54 3q-32 2 -48 2q-15 0 -47 -2q-24 -3 -53 -3q-6 0 -11 4.5t-5 10.5q0 14 19 21q13 4 18.5 10t5.5 20v204q0 36 -13 56.5t-36 21.5q-25 0 -54 -21q-10 -7 -10 -32v-222
q0 -18 4.5 -25.5t19.5 -11.5q19 -7 19 -21q0 -6 -5 -10.5t-11 -4.5q-30 0 -54 3q-30 2 -47 2q-16 0 -52 -2q-28 -3 -59 -3q-7 0 -13.5 4.5z" />
    <glyph glyph-name="n" unicode="n" horiz-adv-x="574" 
d="M26.5 1.5q-6.5 4.5 -6.5 10.5q0 13 23 21q19 6 28 13t9 25v232q0 47 -30 52q-4 1 -7.5 6t-3.5 13q0 15 10 18q38 9 82 22.5t72 27.5q2 1 9 5t11 4q10 0 10 -13l-2 -21q-3 -33 -3 -35q0 -13 2 -15q38 35 71 52t76 17q55 0 90 -39t35 -105v-222q0 -18 8.5 -24.5t28.5 -12.5
q20 -7 20 -21q0 -6 -5.5 -10.5t-11.5 -4.5q-31 0 -60 3q-36 2 -52 2q-17 0 -51 -2q-28 -3 -59 -3q-6 0 -11 4.5t-5 10.5q0 14 19 21q19 6 26.5 12.5t7.5 24.5v197q0 37 -16 58t-42 21q-18 0 -33 -5.5t-33 -17.5q-8 -5 -8 -18v-235q0 -18 7.5 -24t26.5 -13t19 -21
q0 -6 -5 -10.5t-11 -4.5q-30 0 -57 3q-34 2 -50 2t-54 -2q-30 -3 -61 -3q-7 0 -13.5 4.5z" />
    <glyph glyph-name="o" unicode="o" horiz-adv-x="505" 
d="M128 13q-50 27 -78.5 75.5t-28.5 108.5q0 65 32 120t86.5 87.5t120.5 32.5q61 0 112.5 -29t81.5 -77.5t30 -104.5q0 -67 -28 -121.5t-83.5 -86.5t-134.5 -32q-60 0 -110 27zM310 62q22 37 22 140q0 83 -24 135.5t-63 52.5q-26 0 -43 -17t-23.5 -53.5t-6.5 -97.5
q0 -48 11 -91.5t30.5 -70.5t43.5 -27q35 0 53 29z" />
    <glyph glyph-name="p" unicode="p" horiz-adv-x="558" 
d="M21 -253q-6 4 -6 11q0 14 23 21q22 7 29.5 14.5t7.5 23.5v473q0 20 -11.5 35.5t-29.5 18.5q-7 2 -10 6t-3 13q0 15 12 18q37 8 79.5 22t70.5 28q2 1 9 5t11 4q10 0 10 -13l-2 -22q-1 -6 -2 -15t-1 -21q0 -10 2 -12q20 21 68 46t90 25q51 0 90 -28t59.5 -73.5t20.5 -95.5
q0 -62 -31.5 -120t-85 -94t-116.5 -36q-16 0 -40 5.5t-42 13.5q-4 0 -4 -11v-161q0 -21 11.5 -31t40.5 -19q22 -6 22 -20q0 -6 -4.5 -10.5t-11.5 -4.5q-34 0 -68 3q-42 2 -59 2q-16 0 -54 -2q-30 -3 -61 -3q-8 0 -14 4zM334 47.5q20 16.5 35 53t15 93.5q0 94 -28.5 127
t-61.5 33q-25 0 -49.5 -16t-24.5 -29l-1 -168q0 -22 9 -48t26.5 -44t43.5 -18q16 0 36 16.5z" />
    <glyph glyph-name="q" unicode="q" horiz-adv-x="539" 
d="M268.5 -282.5q-4.5 4.5 -4.5 10.5q0 14 22 20q29 9 40.5 19t11.5 31l1 217q0 10 -2 16t-5 6l-9 -5q-26 -18 -58.5 -32t-57.5 -14q-53 0 -95.5 28t-67 76.5t-24.5 105.5q0 64 27.5 119t83.5 88.5t137 33.5q48 0 105 -17q34 -8 42 -8q20 0 38 13q11 7 16 7q9 0 14 -3.5
t5 -9.5q0 -7 -5.5 -36.5t-5.5 -69.5l2 -526q0 -16 7.5 -23.5t29.5 -14.5q23 -7 23 -21q0 -7 -6 -11t-14 -4q-31 0 -60 3q-36 2 -53 2t-59 -2q-35 -3 -67 -3q-7 0 -11.5 4.5zM339 81v200q0 47 -26 79t-61 32t-56.5 -49.5t-21.5 -119.5q0 -67 23.5 -117t69.5 -50q51 0 72 25z
" />
    <glyph glyph-name="r" unicode="r" horiz-adv-x="432" 
d="M26 1.5q-6 4.5 -6 10.5q0 14 23 21q22 7 29.5 14.5t7.5 23.5v233q0 21 -5.5 32.5t-21.5 16.5q-7 2 -10.5 6t-3.5 13q0 15 13 18q36 8 76 21t68 26q19 11 25 11q10 0 10 -12l-1 -30l-2 -50q0 -10 4 -10q27 37 61 64t69 27q67 0 67 -50q0 -26 -20 -54.5t-42 -28.5
q-9 0 -20 4.5t-22 10.5q-28 14 -38 14q-29 0 -45.5 -21.5t-16.5 -75.5v-154q0 -21 11.5 -31t40.5 -19q22 -6 22 -20q0 -6 -4.5 -10.5t-11.5 -4.5q-33 0 -68 3q-44 2 -60 2t-54 -2q-30 -3 -61 -3q-8 0 -14 4.5z" />
    <glyph glyph-name="s" unicode="s" horiz-adv-x="368" 
d="M46 19q-10 15 -14.5 48.5t-2.5 73.5q0 6 6 9.5t15 3.5q8 0 14.5 -5.5t9.5 -11.5q24 -49 47.5 -76t57.5 -27q24 0 37.5 15t13.5 36q0 23 -18.5 40t-48.5 32q-53 26 -85.5 59.5t-32.5 87.5q0 59 48 96t118 37q31 0 61 -7t43 -15q8 -10 12.5 -38t4.5 -65q0 -5 -5.5 -8
t-14.5 -3q-7 0 -15 5.5t-10 10.5q-13 39 -33.5 59.5t-44.5 20.5q-23 0 -40 -14.5t-17 -36.5q0 -18 18 -34t50 -33q68 -36 95 -68t27 -84q0 -68 -43.5 -104.5t-128.5 -36.5q-74 0 -124 33z" />
    <glyph glyph-name="t" unicode="t" horiz-adv-x="388" 
d="M122.5 19.5q-34.5 33.5 -34.5 96.5v230q0 9 -7 13t-24 5h-15q-6 0 -11.5 12t-5.5 23q0 7 6 9q53 17 158 107q2 1 7.5 5.5t10 6.5t9.5 2q10 0 13.5 -4.5t2.5 -17.5l-7 -62q-3 -22 25 -22h120q2 0 5 -7t3 -12q0 -16 -4 -29.5t-9 -13.5h-92q-21 0 -30.5 -6t-9.5 -19v-187
q0 -46 17 -69t47 -23q20 0 32 3t20.5 7t12.5 6t7 2q5 0 8 -6.5t3 -15.5q0 -7 -23.5 -23.5t-59 -30t-71.5 -13.5q-69 0 -103.5 33.5z" />
    <glyph glyph-name="u" unicode="u" horiz-adv-x="556" 
d="M333 -11q0 15 3 33l2 30q0 10 -2 12q-25 -33 -68.5 -56t-87.5 -23q-30 0 -55.5 19.5t-40 52.5t-14.5 73v184q0 25 -8.5 38.5t-30.5 17.5q-7 1 -11.5 6t-4.5 13q0 7 4 12t11 6q40 2 75.5 8t80.5 17q17 5 24 5q14 0 13 -14q-8 -41 -8 -77v-191q0 -36 15.5 -57t40.5 -22
q34 0 56 22q6 6 10 21.5t4 38.5v156q0 25 -13 40.5t-38 16.5q-25 2 -25 23q0 11 7 16t18 5q83 5 116.5 8.5t61.5 10.5q12 3 14 3q15 0 15 -12q0 -3 -4 -17q-2 -12 -4.5 -34.5t-2.5 -35.5v-232q0 -36 18 -36l24 -1q10 0 15 -5t5 -14q0 -11 -4 -16.5t-14 -6.5q-74 -7 -161 -41
q-18 -7 -27 -7t-9 10z" />
    <glyph glyph-name="v" unicode="v" horiz-adv-x="493" 
d="M234 -12q-5 9 -17 36l-21 48l-15 36q-53 114 -62 132l-45 94q-12 27 -23 41t-28 20q-10 4 -14 8.5t-4 13.5q0 12 25 12q18 0 33.5 -1.5t21.5 -1.5q21 -3 49 -3q29 0 56 3q9 0 28.5 1.5t36.5 1.5q9 0 16.5 -3.5t7.5 -10.5t-4 -10t-9.5 -5.5t-8.5 -3.5q-24 -10 -24 -43v-10
q0 -15 4 -23l64 -155h3l56 150q5 13 5 30q0 18 -8.5 31t-24.5 19q-12 4 -17 7.5t-5 11.5q0 7 7.5 10.5t16.5 3.5l68 -2q32 0 71 2q25 0 25 -12q0 -9 -4 -13.5t-14 -8.5q-40 -14 -58 -61l-78 -198q-6 -13 -31 -67l-8 -18q-23 -54 -32 -71h-27q-7 0 -12 9z" />
    <glyph glyph-name="w" unicode="w" horiz-adv-x="767" 
d="M220 -21l-146 355q-10 25 -21.5 40t-29.5 21q-10 4 -14 8.5t-4 13.5q0 12 25 12q18 0 33.5 -1.5t21.5 -1.5q20 -3 48 -3t49 3q6 0 22.5 1.5t34.5 1.5q9 0 16.5 -3.5t7.5 -10.5t-4 -10t-9.5 -5.5t-8.5 -3.5q-12 -5 -16.5 -13t-4.5 -26q0 -19 7 -38l54 -146q0 -1 2 -1t2 1
l66 156q5 18 5 25q0 10 -10 22t-26 18q-10 4 -14 8.5t-4 13.5q0 12 28 12q34 0 61 -3l30 -1q15 0 47 2t56 2q9 0 16.5 -3.5t7.5 -10.5t-4 -10t-9.5 -5.5t-8.5 -3.5q-12 -5 -17.5 -12t-5.5 -20q0 -19 9 -44l56 -148q0 -1 2 -1t2 1l51 136q8 24 7 42q0 16 -7 27.5t-21 16.5
q-12 4 -17 7.5t-5 11.5q0 7 7.5 10.5t16.5 3.5l68 -2q27 0 66 2q25 0 25 -12q0 -9 -4 -13.5t-14 -8.5q-40 -14 -58 -61l-142 -352q-1 -4 -6.5 -6.5t-11.5 -2.5q-12 0 -17 9l-130 293q0 1 -2 1t-2 -1l-119 -293q-2 -5 -7.5 -8t-11.5 -3q-14 0 -18 11z" />
    <glyph glyph-name="x" unicode="x" horiz-adv-x="521" 
d="M5 8q0 9 4 13.5t14 8.5q11 4 22 14t29 35l96 130q6 8 6 13t-5 13l-74 108q-17 26 -26 36.5t-24 15.5q-10 4 -14 8.5t-4 13.5q0 12 25 12q18 0 33.5 -1.5t21.5 -1.5q21 -3 49 -3t52 3q51 3 60 3t16.5 -3.5t7.5 -10.5q0 -6 -4 -9.5t-10.5 -6t-9.5 -3.5q-14 -5 -21.5 -10.5
t-7.5 -15.5t13 -30l46 -67q2 -3 4.5 -3.5t4.5 3.5l26 48q15 29 14 49q0 17 -19 24q-2 1 -8 3.5t-9 6t-3 9.5q0 7 7.5 10.5t16.5 3.5l68 -1q18 0 33 1l31 2q25 0 25 -12q0 -9 -4 -13.5t-14 -8.5t-21 -14t-30 -35l-74 -96q-7 -10 -7 -16q0 -5 6 -14l81 -126q14 -21 32.5 -37.5
t36.5 -23.5q10 -4 14 -8.5t4 -13.5q0 -12 -25 -12q-18 0 -37 1.5t-27 1.5q-28 3 -58 3q-29 0 -56 -3q-9 0 -28.5 -1.5t-36.5 -1.5q-12 0 -18 4t-6 10q0 8 5 11.5t17 7.5q14 4 21.5 13t7.5 28q0 12 -2.5 20t-10.5 20l-49 70q-1 1 -3 1t-3 -1l-43 -79q-16 -27 -16 -44
q0 -23 19 -31q3 -1 9.5 -3.5t9.5 -6t3 -9.5q0 -7 -7.5 -10.5t-16.5 -3.5l-40 1q-9 1 -23 1q-32 0 -71 -2q-25 0 -25 12z" />
    <glyph glyph-name="y" unicode="y" horiz-adv-x="491" 
d="M36 -262.5q-25 20.5 -25 47.5q0 23 10.5 41t31.5 18q11 0 33 -6q5 -1 14.5 -3t16.5 -2q19 0 26.5 6t17.5 26q3 6 13 22t29 58q14 31 14 54q0 14 -4 25.5t-12 30.5l-124 277q-12 27 -23 41t-28 20q-10 4 -14 8.5t-4 13.5q0 12 25 12q31 0 67 -2q26 -2 35 -2q20 0 54 2
q36 2 62 2q9 0 16.5 -3.5t7.5 -10.5t-4 -10t-9.5 -5.5t-8.5 -3.5q-12 -5 -18 -13.5t-6 -25.5q0 -21 12 -50l58 -141q1 -2 2 -2t2 2l48 147q7 19 7 40q0 16 -10 27.5t-23 15.5q-12 4 -17 7.5t-5 11.5q0 7 7.5 10.5t16.5 3.5l49 -3l24 -1q5 0 31 2l40 2q25 0 25 -12
q0 -9 -4 -13.5t-14 -8.5q-38 -14 -58 -61l-152 -366q-10 -25 -55 -130l-24 -56q-13 -31 -39 -47t-60 -16q-29 0 -54 20.5z" />
    <glyph glyph-name="z" unicode="z" horiz-adv-x="450" 
d="M30 5.5q-10 10.5 -10 19.5q0 7 8.5 20t17.5 26q4 6 8 11.5t8 11.5l46 72q58 92 121 195q2 4 2 6q0 6 -13 6h-45q-15 0 -25 -4t-20 -14q-9 -9 -52 -71l-16 -23q-5 -5 -12 -5q-8 0 -15 4.5t-6 10.5q1 4 13.5 55t12.5 88q0 11 7.5 19t16.5 8q10 0 20 -10q8 -7 49 -7l42 1
q125 0 216 4q9 0 16 -11.5t7 -22.5q0 -5 -3 -10q-17 -20 -43 -56l-160 -261q-3 -4 -3 -8q0 -7 18 -7h51q16 0 28 5t24 18q13 14 22.5 29.5t17.5 30t13 23.5q6 11 18 11q8 0 14 -4.5t6 -11.5q0 -15 -10.5 -59t-22.5 -84q-2 -7 -7.5 -11.5t-12.5 -4.5l-52 2q-20 0 -76.5 2
t-113.5 2q-20 0 -56 -4l-34 -2q-5 0 -15 10.5z" />
    <glyph glyph-name="braceleft" unicode="{" horiz-adv-x="372" 
d="M185 -121.5q-59 30.5 -59 92.5q0 22 12 86q1 6 7 39.5t6 60.5q0 28 -5 44.5t-20.5 29.5t-48.5 26q-5 2 -14 5t-13.5 7t-4.5 11q0 9 7 14t14.5 8t10.5 4q27 13 39 21.5t21 27t9 51.5q0 32 -12 90q-8 42 -10 63q-4 45 25 80.5t78.5 55t105.5 19.5q17 0 23 -4t6 -14
q0 -8 -8 -12t-17.5 -7t-13.5 -4q-33 -10 -47 -22t-16.5 -26.5t-2.5 -46.5q0 -18 11 -68q13 -65 13 -86q0 -50 -45.5 -89.5t-104.5 -51.5q-6 -1 2 -4q77 -27 114.5 -63t37.5 -86q0 -22 -15 -86q-12 -54 -12 -68q0 -34 5 -51t19 -26t45 -14q34 -6 34 -22q0 -9 -6.5 -12
t-19.5 -3q-91 0 -150 30.5z" />
    <glyph glyph-name="bar" unicode="|" horiz-adv-x="279" 
d="M87 -280.5q-7 8.5 -7 19.5v905q0 19 18.5 33t41 21t31.5 7q11 0 19.5 -8t8.5 -18v-920q0 -27 -33.5 -37.5t-61.5 -10.5q-10 0 -17 8.5z" />
    <glyph glyph-name="braceright" unicode="}" horiz-adv-x="372" 
d="M187 -121.5q59 30.5 59 92.5q0 22 -12 86q-1 6 -7 39.5t-6 60.5q0 28 5 44.5t20.5 29.5t48.5 26q5 2 14 5t13.5 7t4.5 11q0 9 -7 14t-14.5 8t-10.5 4q-27 13 -39 21.5t-21 27t-9 51.5q0 32 12 90q8 42 10 63q4 45 -25 80.5t-78.5 55t-105.5 19.5q-17 0 -23 -4t-6 -14
q0 -8 8 -12t17.5 -7t13.5 -4q33 -10 47 -22t16.5 -26.5t2.5 -46.5q0 -18 -11 -68q-13 -65 -13 -86q0 -50 45.5 -89.5t104.5 -51.5q6 -1 -2 -4q-77 -27 -114.5 -63t-37.5 -86q0 -22 15 -86q12 -54 12 -68q0 -34 -5 -51t-19 -26t-45 -14q-34 -6 -34 -22q0 -9 6.5 -12t19.5 -3
q91 0 150 30.5z" />
    <glyph glyph-name="asciitilde" unicode="~" horiz-adv-x="555" 
d="M329.5 254.5q-21.5 7.5 -49.5 22.5q-36 18 -60 26.5t-50 8.5t-50 -14t-42 -29t-20 -15q-7 0 -15 13.5t-8 19.5q0 20 21.5 50.5t54 53.5t65.5 23q22 0 44.5 -8t53.5 -23q37 -18 61.5 -26.5t49.5 -8.5q26 0 50 14t42 29t20 15q10 0 16.5 -11t6.5 -22q0 -20 -23 -50.5
t-57.5 -53t-68.5 -22.5q-20 0 -41.5 7.5z" />
    <glyph glyph-name="uni00A0" unicode="&#xa0;" horiz-adv-x="245" 
 />
    <glyph glyph-name="exclamdown" unicode="&#xa1;" horiz-adv-x="299" 
d="M125.5 296q-7.5 -12 -11.5 -41l-12 -73q-17 -100 -24 -155t-7 -104q0 -36 23.5 -64t57.5 -28t55.5 27t21.5 65t-6.5 81t-19.5 113q-3 19 -10.5 60.5t-13.5 77.5q-9 53 -32 53q-14 0 -21.5 -12zM92 472q-22 -22 -22 -53t22 -53t53 -22t53 22t22 53t-22 53t-53 22t-53 -22z
" />
    <glyph glyph-name="cent" unicode="&#xa2;" horiz-adv-x="437" 
d="M190.5 -99.5q-6.5 5.5 -5.5 14.5l6 74q-47 8 -85.5 36t-61.5 74.5t-23 105.5q0 58 27.5 108.5t76.5 83.5t111 39l7 62q1 10 9.5 16t19.5 6q7 0 12.5 -7t4.5 -15l-7 -62q35 -3 69 -17.5t60 -40.5q9 -9 9 -18q0 -23 -18 -38.5t-41 -15.5q-25 0 -38 17q-28 35 -47 46
l-26 -251q18 -2 28 -2q38 0 70 14t45 37q6 10 15 10q13 0 13 -16q0 -9 -6 -27q-47 -140 -178 -148l-6 -71q-2 -9 -9.5 -14.5t-15.5 -5.5q-9 0 -15.5 5.5zM231 380h-1q-88 0 -88 -127q0 -87 64 -121z" />
    <glyph glyph-name="sterling" unicode="&#xa3;" horiz-adv-x="585" 
d="M558 198q14 -19 14 -49q0 -43 -31.5 -86.5t-82 -71.5t-104.5 -28q-40 0 -69.5 16.5t-70.5 47.5q-20 15 -45 29.5t-33 14.5q-6 0 -24 -22.5t-32 -43.5q-11 -15 -25 -23t-27 -8q-15 1 -25 13.5t-10 36.5q0 38 31.5 70.5t79.5 37.5q8 1 12 5t8 12q12 37 20 150l-89 -6h-2
q-7 0 -12.5 5t-5.5 12q0 10 10 19.5t23 10.5l80 5q0 10 2 26q10 106 73 182t194 76q59 0 91.5 -27.5t32.5 -70.5q0 -21 -13.5 -39t-32.5 -29t-34 -11q-9 0 -15.5 6.5t-6.5 14.5q0 7 2 18.5t2 21.5q0 33 -9.5 53.5t-29.5 20.5q-34 0 -54.5 -50.5t-38.5 -176.5q0 -3 -1 -4
l135 9h1q7 0 12 -5.5t5 -11.5q0 -8 -14 -18.5t-29 -11.5l-118 -8q-11 -56 -32 -94.5t-57 -59.5q-2 -2 -2 -5t1.5 -5.5t3.5 -2.5q77 0 159 -41l26 -13q29 -14 45 -20.5t29 -6.5q17 0 24.5 7.5t7.5 26.5q0 16 -10 52q-9 29 -9 41q0 13 7.5 20.5t22.5 7.5q26 0 40 -19z" />
    <glyph glyph-name="currency" unicode="&#xa4;" horiz-adv-x="510" 
d="M38.5 55.5q-13.5 13.5 -13.5 24.5q0 5 4 9l57 57q-37 53 -37 119t39 123l-59 58q-4 4 -4 9q0 12 13.5 25t25.5 13q6 0 9 -4l58 -57q58 45 130 45q67 0 123 -40l53 52q4 4 9 4q13 0 26 -13t13 -26q0 -4 -3 -9l-53 -52q43 -56 43 -128q0 -70 -41 -125l51 -50q3 -4 3 -9
q0 -13 -13 -26t-26 -13q-5 0 -9 4l-50 49q-55 -41 -126 -41q-74 0 -133 46l-55 -54q-3 -4 -9 -4q-12 0 -25.5 13.5zM336.5 135q34.5 20 54.5 54.5t20 75.5t-20 76t-54.5 55t-75.5 20t-76 -20t-55 -55t-20 -76t20 -75.5t55 -54.5t76 -20t75.5 20z" />
    <glyph glyph-name="yen" unicode="&#xa5;" horiz-adv-x="671" 
d="M175 -1q-8 5 -8 12q0 16 29 22q37 7 51.5 26t14.5 51v71h-110q-8 0 -13.5 5t-5.5 12q0 10 11 22.5t24 12.5l94 -1v14q0 11 -2 27h-108q-8 0 -13.5 5t-5.5 12q0 10 11 22.5t24 12.5h77l-147 229q-17 26 -33 41.5t-43 22.5q-11 4 -16.5 8t-5.5 13q0 7 5.5 11t13.5 4
q22 0 48.5 -1.5t39.5 -1.5q41 -3 84 -3q15 0 34.5 1t30.5 2q44 4 70 4q9 0 18 -4.5t9 -10.5q0 -15 -28 -22q-32 -7 -44 -15t-12 -25q0 -16 11 -35l90 -177q7 -13 16 -13q7 0 15 13l94 173q10 18 10 38q0 19 -16 28.5t-40 12.5q-11 1 -20.5 7.5t-9.5 14.5q0 6 9 10t20 4
q29 0 56 -3q34 -2 53 -2q21 0 55 4t54 4q30 0 30 -17q0 -8 -5.5 -11.5t-12 -5.5t-8.5 -3q-29 -8 -51.5 -24.5t-34.5 -38.5l-124 -204q-9 -15 -14 -29l95 -1q7 0 12.5 -6t4.5 -12q-1 -9 -15.5 -21t-29.5 -12h-81v-40l109 -1q7 0 12.5 -6t4.5 -12q-1 -9 -15.5 -21t-29.5 -12
h-81v-69q0 -38 13 -52.5t53 -25.5q15 -4 22 -8t7 -13q0 -7 -7.5 -12t-18.5 -5q-21 0 -81 4q-56 4 -75 4q-18 0 -72 -4q-45 -5 -78 -5q-12 0 -20 5z" />
    <glyph glyph-name="brokenbar" unicode="&#xa6;" horiz-adv-x="281" 
d="M87 259.5q-7 8.5 -7 19.5v365q0 19 18.5 33t41 21t31.5 7q11 0 19.5 -8t8.5 -18v-380q0 -27 -33.5 -37.5t-61.5 -10.5q-10 0 -17 8.5zM89 -281.5q-7 8.5 -7 19.5v386q0 19 18.5 33t41 21t31.5 7q11 0 19.5 -8t8.5 -18v-401q0 -27 -33.5 -37.5t-61.5 -10.5q-10 0 -17 8.5z
" />
    <glyph glyph-name="section" unicode="&#xa7;" horiz-adv-x="453" 
d="M87 -136q-24 12 -24 30q0 13 8.5 33t28.5 34q4 3 8 3q11 0 23 -10q17 -15 43 -23.5t50 -8.5q25 0 38 17t13 49q0 30 -28 61t-85 80q1 -1 -23 20q-55 48 -82 92t-27 88q0 60 21.5 96.5t62.5 74.5q17 60 63 100t103 40q28 0 59 -8.5t42 -19.5q8 -7 12 -12.5t4 -12.5
q0 -5 -8.5 -22t-20.5 -31.5t-23 -14.5q-8 0 -17 8q-18 19 -42.5 33t-39.5 14q-58 0 -58 -57q0 -24 32.5 -59t92.5 -86q53 -45 81.5 -95.5t28.5 -125.5q0 -101 -51.5 -174t-150.5 -111q-34 -14 -73 -14q-37 0 -61 12zM339.5 62.5q3.5 0.5 4.5 3.5q6 24 6 62q0 39 -26.5 80.5
t-69.5 80.5q-33 32 -68.5 74t-46.5 66q-1 3 -3.5 3t-5.5 -3q-16 -18 -16 -62q0 -35 25.5 -76.5t67.5 -79.5q111 -108 128 -145q1 -4 4.5 -3.5z" />
    <glyph glyph-name="dieresis" unicode="&#xa8;" horiz-adv-x="367" 
d="M28.5 513.5q-22.5 22.5 -22.5 53.5q0 33 22 55t54 22q34 0 57 -22t23 -55q0 -31 -23.5 -53.5t-56.5 -22.5q-31 0 -53.5 22.5zM226.5 513.5q-22.5 22.5 -22.5 53.5q0 33 22 55t54 22q34 0 57 -22t23 -55q0 -31 -23.5 -53.5t-56.5 -22.5q-31 0 -53.5 22.5z" />
    <glyph glyph-name="copyright" unicode="&#xa9;" horiz-adv-x="684" 
d="M185 57q-71 42 -113 113.5t-42 156.5t42 156.5t113.5 113.5t156.5 42t156.5 -42t113.5 -113.5t42 -156.5t-42.5 -156.5t-114 -113.5t-156.5 -42t-156 42zM469 103q58 35 92 94.5t34 129.5q0 68 -34 126.5t-92 92.5t-127 34t-127 -34t-92 -92.5t-34 -126.5
q0 -70 34 -129.5t91.5 -94.5t126.5 -35q70 0 128 35zM251 158q-46 24 -72.5 66.5t-26.5 96.5q0 51 25.5 94.5t75 70t117.5 26.5q27 0 55.5 -6.5t49.5 -17.5q12 -4 13 -16q4 -32 4 -77q0 -10 -6 -16t-14 -5q-15 0 -19 16q-9 27 -19 39q-24 28 -68 28q-48 0 -71.5 -35.5
t-23.5 -90.5q0 -70 21.5 -106.5t73.5 -36.5q36 0 57 15t35 51q4 9 10.5 12t12.5 1q14 -3 14 -20q0 -19 -3 -36t-8 -36q-2 -6 -7.5 -7.5t-8.5 -3.5q-58 -30 -113 -30q-58 0 -104 24z" />
    <glyph glyph-name="ordfeminine" unicode="&#xaa;" horiz-adv-x="359" 
d="M60.5 304.5q-23.5 18.5 -23.5 45.5q0 23 15.5 39t48.5 29l57 22q14 6 17.5 11t3.5 17v29q0 19 -5 27t-18 8q-17 0 -27 -10q-3 -3 -3 -10q0 -6 1 -10.5t1 -8.5q0 -8 -27.5 -19t-48.5 -14h-3q-9 0 -9 11q0 2 2 10q7 16 13.5 25.5t21.5 22.5q21 17 56.5 31.5t64.5 14.5
q45 0 73.5 -27.5t27.5 -74.5l-4 -105q0 -12 5.5 -23t13.5 -11q9 0 20 9l4 2q4 0 6.5 -2.5t2.5 -6.5q0 -9 -16 -25q-25 -25 -64 -25q-26 0 -43 10t-31 29h-1q-14 -17 -31 -28t-43 -11q-34 0 -57.5 18.5zM172 342q3 3 3 6l2 57q0 5 -3.5 6.5t-7.5 -0.5q-15 -7 -19.5 -15.5
t-4.5 -30.5q0 -17 5.5 -22t14.5 -5q4 0 10 4zM310 201q6 -5 6 -11l-1 -4q-15 -27 -40 -27h-230q-7 0 -12.5 5.5t-5.5 10.5q0 9 10 20t21 11h240q6 0 12 -5z" />
    <glyph glyph-name="guillemotleft" unicode="&#xab;" horiz-adv-x="580" 
d="M298.5 25q-10.5 10 -12.5 11q-61 56 -98 81t-113 62q-30 15 -30 40q0 12 12 17q94 56 131 83t98 83q2 1 12.5 11t23.5 10q3 0 5 -3t2 -8t-6 -17q-49 -72 -75 -102.5t-64 -65.5q-7 -6 -7 -8t7 -8q38 -35 64 -65.5t75 -102.5q6 -10 6 -16q0 -5 -2 -8.5t-5 -3.5
q-13 0 -23.5 10zM509.5 25q-10.5 10 -12.5 11q-61 56 -98 81t-113 62q-30 15 -30 40q0 12 12 17q94 56 131 83t98 83q2 1 12.5 11t23.5 10q3 0 5 -3t2 -8t-6 -17q-49 -72 -75 -102.5t-64 -65.5q-7 -6 -7 -8t7 -8q38 -35 64 -65.5t75 -102.5q6 -10 6 -16q0 -5 -2 -8.5
t-5 -3.5q-13 0 -23.5 10z" />
    <glyph glyph-name="logicalnot" unicode="&#xac;" horiz-adv-x="626" 
d="M487 48q-5 6 -5 14v237q0 16 -15 16h-417q-7 0 -13.5 5t-6.5 10q0 18 9 38.5t26 20.5h473q18 0 18 -21v-292q0 -17 -20 -25.5t-39 -8.5q-5 0 -10 6z" />
    <glyph glyph-name="uni00AD" unicode="&#xad;" horiz-adv-x="325" 
d="M34 163q-9 0 -9 11q0 32 6 47t18 17q119 20 234 29h3q14 0 14 -17q0 -32 -4 -43t-16 -13q-147 -22 -244 -31h-2z" />
    <glyph glyph-name="registered" unicode="&#xae;" horiz-adv-x="690" 
d="M188 57q-71 42 -113 113.5t-42 156.5t42 156.5t113.5 113.5t156.5 42t156.5 -42t113.5 -113.5t42 -156.5t-42.5 -156.5t-114 -113.5t-156.5 -42t-156 42zM472 103q58 35 92 94.5t34 129.5q0 68 -34 126.5t-92 92.5t-127 34t-127 -34t-92 -92.5t-34 -126.5
q0 -70 34 -129.5t91.5 -94.5t126.5 -35q70 0 128 35zM398 211q-40 41 -66 97q-5 10 -13 10q-6 0 -6 -9v-82q0 -14 8.5 -20t32.5 -12q12 -2 12 -13q0 -5 -3.5 -9t-7.5 -4l-45 2l-43 1l-37 -1q-30 -2 -41 -2q-3 0 -7 4.5t-4 8.5q0 11 12 13q21 5 27.5 11t6.5 21v214
q0 16 -6.5 22.5t-24.5 11.5q-11 1 -11 11q0 2 3 4.5t7 2.5q18 0 42 -2q20 -2 33 -2q10 0 28 2q22 2 46 2q130 0 130 -80q0 -30 -16.5 -48t-44.5 -31q-3 -1 -1 -7q24 -58 59.5 -87t61.5 -29q7 0 7 -9q0 -14 -17 -23t-51 -9q-31 0 -71 41zM373.5 368q14.5 13 14.5 34
q0 29 -12.5 41.5t-39.5 12.5q-14 0 -20 -4.5t-6 -13.5v-68q0 -15 20 -15q29 0 43.5 13z" />
    <glyph glyph-name="macron" unicode="&#xaf;" horiz-adv-x="367" 
d="M24 515.5q-6 5.5 -6 13.5q0 29 12.5 48t27.5 19h270q9 0 14.5 -5.5t5.5 -13.5q0 -26 -13 -46.5t-30 -20.5h-266q-9 0 -15 5.5z" />
    <glyph glyph-name="degree" unicode="&#xb0;" horiz-adv-x="359" 
d="M100.5 398q-35.5 22 -55.5 57.5t-20 75.5q0 39 19.5 72t55.5 52.5t81 19.5q44 0 79 -19.5t54.5 -52.5t19.5 -72q0 -40 -19.5 -75.5t-54.5 -57.5t-79 -22q-45 0 -80.5 22zM238.5 461.5q24.5 25.5 24.5 63.5t-24.5 63t-58.5 25q-36 0 -60 -24.5t-24 -63.5t24 -64t60 -25
q34 0 58.5 25.5z" />
    <glyph glyph-name="plusminus" unicode="&#xb1;" horiz-adv-x="602" 
d="M275 131q-4 5 -4 12v201q0 13 -13 13h-211q-7 0 -12 4t-5 9q0 15 7.5 30.5t21.5 15.5h198q9 0 11.5 3t2.5 11v170q0 13 14.5 23.5t28.5 10.5q7 0 11.5 -7t4.5 -16v-181q0 -14 13 -14h204q9 0 16 -4.5t7 -11.5q0 -14 -10.5 -28.5t-23.5 -14.5h-193q-13 0 -13 -13v-189
q0 -14 -15.5 -21.5t-30.5 -7.5q-5 0 -9 5zM36 34q-6 5 -6 10q0 15 8.5 32t24.5 17h482q11 0 19 -5t8 -13q0 -15 -11.5 -30.5t-26.5 -15.5h-485q-7 0 -13 5z" />
    <glyph glyph-name="uni00B2" unicode="&#xb2;" horiz-adv-x="350" 
d="M257 439q-54 2 -105 2q-37 0 -75 -1.5t-39 -1.5q-4 0 -7.5 2.5t-3.5 5.5q0 5 4 9l37 43l30 35q42 49 60 77.5t18 62.5q0 18 -13 30.5t-34 12.5q-18 0 -32.5 -11.5t-23.5 -25.5q-4 -6 -10 -10.5t-10 -4.5q-12 0 -12 19q0 18 16.5 40t47 37.5t68.5 15.5q48 0 80 -26t32 -62
q0 -42 -40 -85q-16 -18 -76 -61q-34 -25 -34 -27q1 -1 3 -2t6 -1h99q16 0 30.5 11.5t23.5 28.5q5 12 17 12q8 0 11 -5t0 -11q-13 -30 -20 -59t-9 -37q-1 -5 -5 -9.5t-8 -4.5q-14 0 -26 1z" />
    <glyph glyph-name="uni00B3" unicode="&#xb3;" horiz-adv-x="298" 
d="M51.5 443q-18.5 8 -18.5 20q0 13 5 25t13 12q7 0 13 -8q8 -11 21.5 -21t24.5 -10q24 0 39 21t15 57q0 24 -13.5 43t-37.5 19q-27 0 -34 -7l-7 -7q-19 0 -17 9q4 20 35 35q40 21 52.5 36t12.5 36q0 10 -11.5 19t-28.5 9q-16 0 -31.5 -7.5t-23.5 -16.5q-3 -3 -6.5 -7
t-5.5 -4q-4 0 -8.5 5t-4.5 10q0 6 13 22t38.5 29t62.5 13t65.5 -18.5t28.5 -47.5q0 -19 -15.5 -38t-48.5 -28q-2 -1 -2 -2t2 -1q36 0 61 -22t25 -61q0 -36 -24 -63.5t-63 -43t-82 -15.5q-26 0 -44.5 8z" />
    <glyph glyph-name="acute" unicode="&#xb4;" horiz-adv-x="245" 
d="M34 465q0 10 5 22q14 35 33.5 80t29.5 66q8 16 18.5 21.5t30.5 5.5q26 0 43.5 -6.5t17.5 -18.5q0 -14 -10 -25l-25 -28q-61 -70 -106 -115q-15 -15 -26 -15t-11 13z" />
    <glyph glyph-name="uni00B5" unicode="&#xb5;" horiz-adv-x="564" 
d="M95 -260.5q-17 24.5 -20 52.5q-1 17 -1 41.5t-1 49.5q0 81 -1 117q0 142 -4 258q-3 62 -3 124q0 29 11 41.5t48 12.5q44 0 65 -10t21 -36q0 -31 -10 -73.5t-26 -97.5q-3 -10 -10 -35.5t-7 -34.5q0 -25 13.5 -38t32.5 -13q63 0 107 168l1 39q2 82 6 103q3 15 10 21.5
t20 6.5q56 0 85 -16.5t29 -40.5q0 -41 -16 -87.5t-48 -118.5q0 -28 23 -45.5t56 -17.5q16 0 29.5 6.5t26 14.5t14.5 8q5 0 9 -4t4 -8q0 -44 -17 -76t-43 -49t-52 -17q-30 0 -53 33.5t-27 80.5v9q0 15 1 23l-3 1q-6 -13 -27.5 -49t-45 -66t-38.5 -30q-18 0 -35.5 14t-32.5 30
t-22 23q-4 4 -16 17t-17 13q-14 0 -14 -25l2 -65q3 -50 3 -88q0 -15 15.5 -29.5t45.5 -33.5q22 -13 34.5 -23.5t12.5 -19.5q0 -16 -15 -36.5t-37 -34.5t-40 -14q-26 0 -43 24.5z" />
    <glyph glyph-name="paragraph" unicode="&#xb6;" horiz-adv-x="635" 
d="M208 -280q-42 37 -42 93q0 37 19.5 64.5t49.5 42.5t59 15q35 0 57.5 -15t22.5 -45q0 -26 -15 -44t-36 -18q-11 0 -20.5 6t-21.5 18l-11.5 11.5t-15.5 9.5q-13 0 -24 -14.5t-11 -39.5q0 -31 25.5 -55t74.5 -24q37 0 65 27t28 77v197q0 11 -3.5 19.5t-12.5 8.5
q-101 0 -189.5 37t-142.5 104t-54 154q0 162 112 230.5t324 68.5q44 0 92.5 -3t64.5 -6q8 -2 12.5 -11t4.5 -19q0 -12 -5 -25.5t-11 -13.5q-5 1 -40 8.5t-79 7.5q-9 0 -15 -8.5t-6 -18.5v-727q0 -34 -16 -68t-50 -57.5t-84 -23.5q-64 0 -106 37z" />
    <glyph glyph-name="periodcentered" unicode="&#xb7;" horiz-adv-x="267" 
d="M71.5 152.5q-25.5 25.5 -25.5 60.5q0 37 25.5 63t60.5 26q38 0 63.5 -25.5t25.5 -63.5q0 -35 -26 -60.5t-63 -25.5q-35 0 -60.5 25.5z" />
    <glyph glyph-name="cedilla" unicode="&#xb8;" horiz-adv-x="290" 
d="M66 -264q-11 10 -11 39q0 15 4 20.5t14 5.5q5 0 23 -6q29 -11 47 -11q27 0 27 39q0 18 -17.5 28.5t-38.5 10.5q-10 0 -20 -5t-14 -5q-8 0 -15.5 7.5t-7.5 18.5q0 4 4.5 12t11.5 15l90 103h47l-35 -41q-6 -8 -6 -11q0 -5 13 -11q26 -12 39.5 -32t13.5 -53q0 -32 -21.5 -63
t-53 -51t-58.5 -20q-25 0 -36 10z" />
    <glyph glyph-name="uni00B9" unicode="&#xb9;" horiz-adv-x="247" 
d="M39.5 442.5q-3.5 2.5 -3.5 6.5q0 11 11 14q21 4 24.5 8t3.5 17v188q0 19 -10.5 30t-23.5 13q-6 1 -8.5 3.5t-2.5 8.5q0 16 16 17q44 3 66.5 7.5t49.5 20.5q2 1 5 3t6 2q9 0 9 -7q0 -5 -1.5 -14.5t-1.5 -23.5v-247v-8t6 -10t21 -8q7 -3 9 -5t2 -8q0 -9 -9 -9l-83 2l-36 -1
q-30 -2 -42 -2q-4 0 -7.5 2.5z" />
    <glyph glyph-name="ordmasculine" unicode="&#xba;" horiz-adv-x="331" 
d="M105.5 303.5q-36.5 17.5 -57.5 48.5t-21 69q0 44 23 79.5t63 55t90 19.5q45 0 83 -18.5t60.5 -49.5t22.5 -67q0 -66 -48 -110t-134 -44q-45 0 -81.5 17.5zM241 425q0 42 -13 76t-34 34q-25 0 -33 -27.5t-8 -70.5t13.5 -77t33.5 -34q41 0 41 99zM313 201q6 -5 6 -11l-1 -4
q-15 -27 -40 -27h-246q-7 0 -12.5 5.5t-5.5 10.5q0 9 10 20t21 11h256q6 0 12 -5z" />
    <glyph glyph-name="guillemotright" unicode="&#xbb;" horiz-adv-x="580" 
d="M281.5 25q10.5 10 12.5 11q61 56 98 81t113 62q30 15 30 40q0 12 -12 17q-94 56 -131 83t-98 83q-2 1 -12.5 11t-23.5 10q-3 0 -5 -3t-2 -8t6 -17q49 -72 75 -102.5t64 -65.5q7 -6 7 -8t-7 -8q-38 -35 -64 -65.5t-75 -102.5q-6 -10 -6 -16q0 -5 2 -8.5t5 -3.5
q13 0 23.5 10zM70.5 25q10.5 10 12.5 11q61 56 98 81t113 62q30 15 30 40q0 12 -12 17q-94 56 -131 83t-98 83q-2 1 -12.5 11t-23.5 10q-3 0 -5 -3t-2 -8t6 -17q49 -72 75 -102.5t64 -65.5q7 -6 7 -8t-7 -8q-38 -35 -64 -65.5t-75 -102.5q-6 -10 -6 -16q0 -5 2 -8.5t5 -3.5
q13 0 23.5 10z" />
    <glyph glyph-name="onequarter" unicode="&#xbc;" horiz-adv-x="642" 
d="M39.5 280.5q-3.5 2.5 -3.5 6.5q0 11 11 14q21 4 24.5 8t3.5 17v188q0 19 -10.5 30t-23.5 13q-6 1 -8.5 3.5t-2.5 8.5q0 16 16 17q44 3 66.5 7.5t49.5 20.5q2 1 5 3t6 2q9 0 9 -7q0 -5 -1.5 -14.5t-1.5 -23.5v-247v-8t6 -10t21 -8q7 -3 9 -5t2 -8q0 -9 -9 -9l-83 2l-36 -1
q-30 -2 -42 -2q-4 0 -7.5 2.5zM530.5 659q12.5 5 31.5 5q7 0 13 -6t6 -12q0 -4 -1 -5l-404 -636q-13 -20 -48 -20q-8 0 -15.5 5t-7.5 11q0 3 1 4l404 636q8 13 20.5 18zM478 -1v84q0 3 -5 4.5t-7 1.5q-47 0 -69 -1l-72 -1q-11 0 -11 4q0 3 3 6q20 26 49.5 57.5t40.5 43.5
l68 75q7 9 50 52l16 16q14 14 22 14q5 0 5 -9l-2 -209q0 -5 6 -5h18l30 1q7 0 7 -7q0 -9 -6 -22t-11 -13h-35q-9 0 -9 -7l1 -53q0 -8 -16 -17t-35.5 -16t-26.5 -7q-11 0 -11 8zM473 133q5 0 5 4v75q0 1 -1 1t-2 -1q-59 -56 -74 -75q-1 -1 0 -2.5t2 -1.5h70z" />
    <glyph glyph-name="onehalf" unicode="&#xbd;" horiz-adv-x="719" 
d="M39.5 280.5q-3.5 2.5 -3.5 6.5q0 11 11 14q21 4 24.5 8t3.5 17v188q0 19 -10.5 30t-23.5 13q-6 1 -8.5 3.5t-2.5 8.5q0 16 16 17q44 3 66.5 7.5t49.5 20.5q2 1 5 3t6 2q9 0 9 -7q0 -5 -1.5 -14.5t-1.5 -23.5v-247v-8t6 -10t21 -8q7 -3 9 -5t2 -8q0 -9 -9 -9l-83 2l-36 -1
q-30 -2 -42 -2q-4 0 -7.5 2.5zM530.5 659q12.5 5 31.5 5q7 0 13 -6t6 -12q0 -4 -1 -5l-404 -636q-13 -20 -48 -20q-8 0 -15.5 5t-7.5 11q0 3 1 4l404 636q8 13 20.5 18zM626 -15q-54 2 -105 2q-37 0 -75 -1.5t-39 -1.5q-4 0 -7.5 2.5t-3.5 5.5q0 5 4 9l37 43l30 35
q42 49 60 77.5t18 62.5q0 18 -13 30.5t-34 12.5q-18 0 -32.5 -11.5t-23.5 -25.5q-4 -6 -10 -10.5t-10 -4.5q-12 0 -12 19q0 18 16.5 40t47 37.5t68.5 15.5q48 0 80 -26t32 -62q0 -42 -40 -85q-16 -18 -76 -61q-34 -25 -34 -27q1 -1 3 -2t6 -1h99q16 0 30.5 11.5t23.5 28.5
q5 12 17 12q8 0 11 -5t0 -11q-13 -30 -20 -59t-9 -37q-1 -5 -5 -9.5t-8 -4.5q-14 0 -26 1z" />
    <glyph glyph-name="threequarters" unicode="&#xbe;" horiz-adv-x="666" 
d="M51.5 283q-18.5 8 -18.5 20q0 13 5 25t13 12q7 0 13 -8q8 -11 21.5 -21t24.5 -10q24 0 39 21t15 57q0 24 -13.5 43t-37.5 19q-27 0 -34 -7l-7 -7q-19 0 -17 9q4 20 35 35q40 21 52.5 36t12.5 36q0 10 -11.5 19t-28.5 9q-16 0 -31.5 -7.5t-23.5 -16.5q-3 -3 -6.5 -7
t-5.5 -4q-4 0 -8.5 5t-4.5 10q0 6 13 22t38.5 29t62.5 13t65.5 -18.5t28.5 -47.5q0 -19 -15.5 -38t-48.5 -28q-2 -1 -2 -2t2 -1q36 0 61 -22t25 -61q0 -36 -24 -63.5t-63 -43t-82 -15.5q-26 0 -44.5 8zM550.5 659q12.5 5 31.5 5q7 0 13 -6t6 -12q0 -4 -1 -5l-404 -636
q-13 -20 -48 -20q-8 0 -15.5 5t-7.5 11q0 3 1 4l404 636q8 13 20.5 18zM502 -1v84q0 3 -5 4.5t-7 1.5q-47 0 -69 -1l-72 -1q-11 0 -11 4q0 3 3 6q20 26 49.5 57.5t40.5 43.5l68 75q7 9 50 52l16 16q14 14 22 14q5 0 5 -9l-2 -209q0 -5 6 -5h18l30 1q7 0 7 -7q0 -9 -6 -22
t-11 -13h-35q-9 0 -9 -7l1 -53q0 -8 -16 -17t-35.5 -16t-26.5 -7q-11 0 -11 8zM497 133q5 0 5 4v75q0 1 -1 1t-2 -1q-59 -56 -74 -75q-1 -1 0 -2.5t2 -1.5h70z" />
    <glyph glyph-name="questiondown" unicode="&#xbf;" horiz-adv-x="399" 
d="M286 278q25 -44 25 -89q0 -36 -28.5 -62.5t-92.5 -55.5q-33 -15 -49 -32.5t-16 -44.5q0 -24 20.5 -37t49.5 -13q21 0 31.5 3t23.5 9q17 7 35 7q22 0 42.5 -32t20.5 -60q0 -19 -23 -35.5t-52 -16.5q-81 0 -155 79q-34 37 -53.5 81.5t-19.5 88.5q0 38 14.5 63t35.5 35
q6 3 51 28q26 16 40 23q22 11 30 24.5t12 43.5q3 24 23 24q16 0 35 -31zM308 472q22 -22 22 -53t-22 -53t-53 -22t-53 22t-22 53t22 53t53 22t53 -22z" />
    <glyph glyph-name="Agrave" unicode="&#xc0;" horiz-adv-x="726" 
d="M-5 12q0 9 5.5 13.5t16.5 8.5q30 8 51.5 25t31.5 39q95 221 171 434q12 33 19 59.5t9 26.5q43 10 75 21q17 6 32 16t23 19q8 4 10 4q5 0 8 -7q7 -15 11 -28q62 -202 137 -430l37 -115q14 -46 80 -64q11 -4 16.5 -8t5.5 -13q0 -7 -5.5 -11t-13.5 -4q-20 0 -80 2
q-62 2 -86 2q-20 0 -76 -2q-46 -3 -84 -3q-9 0 -15 4t-6 11q0 17 22 22q35 7 51.5 17.5t16.5 29.5q0 10 -2 16l-31 116q-2 9 -5.5 13t-10.5 4h-174q-8 0 -11 -4t-6 -13l-14 -43q-3 -11 -9 -29t-10 -32q-4 -13 -4 -26q0 -19 14.5 -29.5t51.5 -19.5q22 -5 22 -22
q0 -14 -21 -14q-23 0 -59 2l-54 1q-28 0 -55 -3q-9 -1 -27 -2t-32 -1q-26 0 -26 17zM388 288q15 0 15 7q0 1 -2 11l-64 221q-3 10 -6 10q-2 0 -6 -10l-77 -221q-2 -4 -2 -8q0 -5 5 -7.5t12 -2.5h125zM405 681q-12 0 -25 8l-77 44q-48 26 -96 55q-17 11 -20 22t27 25t47 16
l8 1q15 0 27 -12q52 -52 112 -127q12 -15 12 -22t-13 -10h-2z" />
    <glyph glyph-name="Aacute" unicode="&#xc1;" horiz-adv-x="726" 
d="M-5 12q0 9 5.5 13.5t16.5 8.5q30 8 51.5 25t31.5 39q95 221 171 434q12 33 19 59.5t9 26.5q43 10 75 21q17 6 32 16t23 19q8 4 10 4q5 0 8 -7q7 -15 11 -28q62 -202 137 -430l37 -115q14 -46 80 -64q11 -4 16.5 -8t5.5 -13q0 -7 -5.5 -11t-13.5 -4q-20 0 -80 2
q-62 2 -86 2q-20 0 -76 -2q-46 -3 -84 -3q-9 0 -15 4t-6 11q0 17 22 22q35 7 51.5 17.5t16.5 29.5q0 10 -2 16l-31 116q-2 9 -5.5 13t-10.5 4h-174q-8 0 -11 -4t-6 -13l-14 -43q-3 -11 -9 -29t-10 -32q-4 -13 -4 -26q0 -19 14.5 -29.5t51.5 -19.5q22 -5 22 -22
q0 -14 -21 -14q-23 0 -59 2l-54 1q-28 0 -55 -3q-9 -1 -27 -2t-32 -1q-26 0 -26 17zM388 288q15 0 15 7q0 1 -2 11l-64 221q-3 10 -6 10q-2 0 -6 -10l-77 -221q-2 -4 -2 -8q0 -5 5 -7.5t12 -2.5h125zM316 691q0 7 12 22q60 75 112 127q14 14 35 11q17 -2 47 -16t27 -25
t-20 -22q-48 -29 -96 -55l-77 -44q-8 -5 -16 -7t-11 -1q-13 3 -13 10z" />
    <glyph glyph-name="Acircumflex" unicode="&#xc2;" horiz-adv-x="726" 
d="M-5 12q0 9 5.5 13.5t16.5 8.5q30 8 51.5 25t31.5 39q95 221 171 434q12 33 19 59.5t9 26.5q43 10 75 21q17 6 32 16t23 19q8 4 10 4q5 0 8 -7q7 -15 11 -28q62 -202 137 -430l37 -115q14 -46 80 -64q11 -4 16.5 -8t5.5 -13q0 -7 -5.5 -11t-13.5 -4q-20 0 -80 2
q-62 2 -86 2q-20 0 -76 -2q-46 -3 -84 -3q-9 0 -15 4t-6 11q0 17 22 22q35 7 51.5 17.5t16.5 29.5q0 10 -2 16l-31 116q-2 9 -5.5 13t-10.5 4h-174q-8 0 -11 -4t-6 -13l-14 -43q-3 -11 -9 -29t-10 -32q-4 -13 -4 -26q0 -19 14.5 -29.5t51.5 -19.5q22 -5 22 -22
q0 -14 -21 -14q-23 0 -59 2l-54 1q-28 0 -55 -3q-9 -1 -27 -2t-32 -1q-26 0 -26 17zM388 288q15 0 15 7q0 1 -2 11l-64 221q-3 10 -6 10q-2 0 -6 -10l-77 -221q-2 -4 -2 -8q0 -5 5 -7.5t12 -2.5h125zM218.5 695.5q-5.5 3.5 -5.5 9.5q0 9 9 16l106 96q20 18 29.5 24t22.5 6
q14 0 23.5 -6t29.5 -24l105 -95q8 -7 8 -17q0 -6 -4.5 -10t-12.5 -4q-14 0 -62.5 17.5t-73.5 31.5q-5 4 -13 4t-13 -4q-23 -13 -72.5 -30.5t-61.5 -17.5q-9 0 -14.5 3.5z" />
    <glyph glyph-name="Atilde" unicode="&#xc3;" horiz-adv-x="726" 
d="M-5 12q0 9 5.5 13.5t16.5 8.5q30 8 51.5 25t31.5 39q95 221 171 434q12 33 19 59.5t9 26.5q43 10 75 21q17 6 32 16t23 19q8 4 10 4q5 0 8 -7q7 -15 11 -28q62 -202 137 -430l37 -115q14 -46 80 -64q11 -4 16.5 -8t5.5 -13q0 -7 -5.5 -11t-13.5 -4q-20 0 -80 2
q-62 2 -86 2q-20 0 -76 -2q-46 -3 -84 -3q-9 0 -15 4t-6 11q0 17 22 22q35 7 51.5 17.5t16.5 29.5q0 10 -2 16l-31 116q-2 9 -5.5 13t-10.5 4h-174q-8 0 -11 -4t-6 -13l-14 -43q-3 -11 -9 -29t-10 -32q-4 -13 -4 -26q0 -19 14.5 -29.5t51.5 -19.5q22 -5 22 -22
q0 -14 -21 -14q-23 0 -59 2l-54 1q-28 0 -55 -3q-9 -1 -27 -2t-32 -1q-26 0 -26 17zM388 288q15 0 15 7q0 1 -2 11l-64 221q-3 10 -6 10q-2 0 -6 -10l-77 -221q-2 -4 -2 -8q0 -5 5 -7.5t12 -2.5h125zM224 697.5q-7 6.5 -7 9.5q0 7 16 33.5t34.5 48.5t26.5 22q14 0 48 -2
q24 -2 38 -2l21 -1q40 -2 67 -2q17 0 35 20q5 6 11.5 14t8.5 8q5 0 14 -7.5t9 -11.5t-5 -12t-13 -19q-16 -24 -23 -36q-5 -8 -9 -14t-7 -11q-9 -14 -31 -14q-10 0 -84 6q-78 6 -91 6q-12 0 -29 -21q-15 -21 -18 -21q-5 0 -12 6.5z" />
    <glyph glyph-name="Adieresis" unicode="&#xc4;" horiz-adv-x="726" 
d="M-5 12q0 9 5.5 13.5t16.5 8.5q30 8 51.5 25t31.5 39q95 221 171 434q12 33 19 59.5t9 26.5q43 10 75 21q17 6 32 16t23 19q8 4 10 4q5 0 8 -7q7 -15 11 -28q62 -202 137 -430l37 -115q14 -46 80 -64q11 -4 16.5 -8t5.5 -13q0 -7 -5.5 -11t-13.5 -4q-20 0 -80 2
q-62 2 -86 2q-20 0 -76 -2q-46 -3 -84 -3q-9 0 -15 4t-6 11q0 17 22 22q35 7 51.5 17.5t16.5 29.5q0 10 -2 16l-31 116q-2 9 -5.5 13t-10.5 4h-174q-8 0 -11 -4t-6 -13l-14 -43q-3 -11 -9 -29t-10 -32q-4 -13 -4 -26q0 -19 14.5 -29.5t51.5 -19.5q22 -5 22 -22
q0 -14 -21 -14q-23 0 -59 2l-54 1q-28 0 -55 -3q-9 -1 -27 -2t-32 -1q-26 0 -26 17zM388 288q15 0 15 7q0 1 -2 11l-64 221q-3 10 -6 10q-2 0 -6 -10l-77 -221q-2 -4 -2 -8q0 -5 5 -7.5t12 -2.5h125zM226.5 708.5q-22.5 22.5 -22.5 53.5q0 33 22 55t54 22q34 0 57 -22
t23 -55q0 -31 -23.5 -53.5t-56.5 -22.5q-31 0 -53.5 22.5zM424.5 708.5q-22.5 22.5 -22.5 53.5q0 33 22 55t54 22q34 0 57 -22t23 -55q0 -31 -23.5 -53.5t-56.5 -22.5q-31 0 -53.5 22.5z" />
    <glyph glyph-name="Aring" unicode="&#xc5;" horiz-adv-x="726" 
d="M-5 12q0 9 5.5 13.5t16.5 8.5q30 8 51.5 25t31.5 39q95 221 171 434q12 33 19 59.5t9 26.5q43 10 75 21q17 6 32 16t23 19q8 4 10 4q5 0 8 -7q7 -15 11 -28q62 -202 137 -430l37 -115q14 -46 80 -64q11 -4 16.5 -8t5.5 -13q0 -7 -5.5 -11t-13.5 -4q-20 0 -80 2
q-62 2 -86 2q-20 0 -76 -2q-46 -3 -84 -3q-9 0 -15 4t-6 11q0 17 22 22q35 7 51.5 17.5t16.5 29.5q0 10 -2 16l-31 116q-2 9 -5.5 13t-10.5 4h-174q-8 0 -11 -4t-6 -13l-14 -43q-3 -11 -9 -29t-10 -32q-4 -13 -4 -26q0 -19 14.5 -29.5t51.5 -19.5q22 -5 22 -22
q0 -14 -21 -14q-23 0 -59 2l-54 1q-28 0 -55 -3q-9 -1 -27 -2t-32 -1q-26 0 -26 17zM388 288q15 0 15 7q0 1 -2 11l-64 221q-3 10 -6 10q-2 0 -6 -10l-77 -221q-2 -4 -2 -8q0 -5 5 -7.5t12 -2.5h125zM463 837q33 -22 33 -59q0 -40 -36.5 -66t-84.5 -26q-46 0 -78.5 22.5
t-32.5 60.5q0 39 36.5 64.5t85.5 25.5q44 0 77 -22zM346.5 734.5q15.5 -15.5 38.5 -15.5q20 0 32 15.5t12 36.5q0 22 -15 37t-38 15q-20 0 -32.5 -15t-12.5 -37q0 -21 15.5 -36.5z" />
    <glyph glyph-name="AE" unicode="&#xc6;" horiz-adv-x="917" 
d="M-5 12q0 9 5.5 13.5t16.5 8.5q28 9 51.5 26.5t35.5 37.5l298 501q2 4 2 6q0 6 -7 7l-21 6q-21 5 -21 21q0 7 5.5 11.5t14.5 4.5q36 0 75 -3q50 -2 69 -2q91 0 274 3l36 1q9 0 16.5 -5t9.5 -16q17 -94 17 -135q0 -9 -3.5 -14.5t-9.5 -5.5t-11.5 4.5t-9.5 12.5q-4 9 -13 32
t-17 37t-17 23q-21 22 -65 22h-63q-25 0 -41 -12.5t-16 -33.5v-185q0 -24 26 -24h85q23 0 34.5 15.5t23.5 47.5q8 18 21 18q5 0 9 -6.5t3 -16.5q-5 -48 -5 -83q0 -43 4 -83v-8q0 -20 -10 -20q-7 0 -14 7t-10 17q-9 34 -21 50t-30 16h-94q-22 0 -22 -23v-189q0 -27 11.5 -39
t37.5 -12h89q39 0 68 21q18 14 32 36.5t28 55.5q5 10 8 13.5t8 3.5q6 0 10.5 -4t4.5 -11q0 -38 -32 -152q-4 -12 -24 -12l-39 1q-195 3 -289 3q-34 0 -73 -3q-52 -2 -71 -2q-9 0 -14 5t-5 11t5.5 12t14.5 9q35 10 47.5 22t12.5 41v140q0 18 -17 18h-141q-9 0 -14 -3t-11 -14
q-23 -43 -52 -127q-6 -18 -6 -30q0 -17 14.5 -27.5t48.5 -17.5q22 -5 22 -22q0 -14 -21 -14q-23 0 -65 2l-59 1q-28 0 -55 -3q-9 -1 -27 -2t-32 -1q-26 0 -26 17zM421 311q5 0 10 4t5 9v217q0 14 -4 14q-3 0 -7 -8l-113 -218q-4 -7 -1 -13q3 -5 16 -5h94z" />
    <glyph glyph-name="Ccedilla" unicode="&#xc7;" horiz-adv-x="709" 
d="M212.5 27.5q-86.5 41.5 -137 116.5t-50.5 171q0 92 49 172t141.5 128.5t217.5 48.5q44 0 95.5 -10.5t88.5 -25.5q20 -9 22 -27q8 -55 8 -121q0 -9 -5 -13.5t-12 -4.5t-13.5 4.5t-9.5 13.5q-10 29 -18 47t-23 33q-47 49 -142 49q-65 0 -114 -36.5t-75.5 -97.5t-26.5 -131
q0 -139 55 -220t161 -81q74 0 120 30.5t77 98.5q7 17 22 17q7 0 11.5 -4.5t4.5 -12.5q0 -46 -21 -118q-5 -20 -26 -30q-84 -38 -208 -38q-105 0 -191.5 41.5zM282.5 -266.5q-12.5 8.5 -12.5 37.5q0 14 6.5 22t14.5 8q2 0 17 -6.5t43 -6.5q18 0 31.5 8.5t13.5 29.5
q0 37 -49 37q-6 0 -13 -3t-11 -3q-14 0 -22 8t-8 15q0 12 7 20l95 108h49l-35 -45q-5 -7 -5 -11q0 -7 9 -10q64 -25 64 -82q0 -34 -24 -65t-60.5 -50.5t-69.5 -19.5q-28 0 -40.5 8.5z" />
    <glyph glyph-name="Egrave" unicode="&#xc8;" horiz-adv-x="577" 
d="M21 0q-5 5 -5 11t5.5 12t14.5 9q35 10 47.5 22t12.5 41v456q0 32 -12 45.5t-48 21.5q-21 5 -21 21q0 7 5.5 11.5t14.5 4.5q36 0 75 -3q50 -2 69 -2q134 0 233 3q31 0 52.5 4t24.5 4q9 0 17 -5t9 -16q3 -33 9 -61q8 -56 8 -74q0 -9 -3.5 -14.5t-9.5 -5.5t-11.5 4.5
t-9.5 12.5q-15 37 -22 51t-17 24q-14 14 -31 23t-42 9h-63q-25 0 -41 -12.5t-16 -33.5v-184q0 -24 26 -24h85q23 0 34.5 15t23.5 47q8 18 21 18q5 0 9 -6.5t3 -16.5q-5 -48 -5 -83q0 -43 4 -83v-8q0 -20 -10 -20q-7 0 -14 7t-10 17q-9 34 -21 50t-30 16h-94q-22 0 -22 -23
v-189q0 -27 11.5 -39t37.5 -12h89q46 0 73 23q29 24 57 80q6 12 19 12q10 0 10 -20q0 -18 -5 -39t-16 -55l-11 -38q-4 -12 -24 -12l-39 1q-195 3 -289 3q-34 0 -73 -3q-52 -2 -71 -2q-9 0 -14 5zM324 681q-12 0 -25 8l-77 44q-48 26 -96 55q-17 11 -20 22t27 25t47 16l8 1
q15 0 27 -12q52 -52 112 -127q12 -15 12 -22t-13 -10h-2z" />
    <glyph glyph-name="Eacute" unicode="&#xc9;" horiz-adv-x="577" 
d="M21 0q-5 5 -5 11t5.5 12t14.5 9q35 10 47.5 22t12.5 41v456q0 32 -12 45.5t-48 21.5q-21 5 -21 21q0 7 5.5 11.5t14.5 4.5q36 0 75 -3q50 -2 69 -2q134 0 233 3q31 0 52.5 4t24.5 4q9 0 17 -5t9 -16q3 -33 9 -61q8 -56 8 -74q0 -9 -3.5 -14.5t-9.5 -5.5t-11.5 4.5
t-9.5 12.5q-15 37 -22 51t-17 24q-14 14 -31 23t-42 9h-63q-25 0 -41 -12.5t-16 -33.5v-184q0 -24 26 -24h85q23 0 34.5 15t23.5 47q8 18 21 18q5 0 9 -6.5t3 -16.5q-5 -48 -5 -83q0 -43 4 -83v-8q0 -20 -10 -20q-7 0 -14 7t-10 17q-9 34 -21 50t-30 16h-94q-22 0 -22 -23
v-189q0 -27 11.5 -39t37.5 -12h89q46 0 73 23q29 24 57 80q6 12 19 12q10 0 10 -20q0 -18 -5 -39t-16 -55l-11 -38q-4 -12 -24 -12l-39 1q-195 3 -289 3q-34 0 -73 -3q-52 -2 -71 -2q-9 0 -14 5zM235 691q0 7 12 22q60 75 112 127q14 14 35 11q17 -2 47 -16t27 -25t-20 -22
q-48 -29 -96 -55l-77 -44q-8 -5 -16 -7t-11 -1q-13 3 -13 10z" />
    <glyph glyph-name="Ecircumflex" unicode="&#xca;" horiz-adv-x="577" 
d="M21 0q-5 5 -5 11t5.5 12t14.5 9q35 10 47.5 22t12.5 41v456q0 32 -12 45.5t-48 21.5q-21 5 -21 21q0 7 5.5 11.5t14.5 4.5q36 0 75 -3q50 -2 69 -2q134 0 233 3q31 0 52.5 4t24.5 4q9 0 17 -5t9 -16q3 -33 9 -61q8 -56 8 -74q0 -9 -3.5 -14.5t-9.5 -5.5t-11.5 4.5
t-9.5 12.5q-15 37 -22 51t-17 24q-14 14 -31 23t-42 9h-63q-25 0 -41 -12.5t-16 -33.5v-184q0 -24 26 -24h85q23 0 34.5 15t23.5 47q8 18 21 18q5 0 9 -6.5t3 -16.5q-5 -48 -5 -83q0 -43 4 -83v-8q0 -20 -10 -20q-7 0 -14 7t-10 17q-9 34 -21 50t-30 16h-94q-22 0 -22 -23
v-189q0 -27 11.5 -39t37.5 -12h89q46 0 73 23q29 24 57 80q6 12 19 12q10 0 10 -20q0 -18 -5 -39t-16 -55l-11 -38q-4 -12 -24 -12l-39 1q-195 3 -289 3q-34 0 -73 -3q-52 -2 -71 -2q-9 0 -14 5zM137.5 695.5q-5.5 3.5 -5.5 9.5q0 9 9 16l106 96q20 18 29.5 24t22.5 6
q14 0 23.5 -6t29.5 -24l105 -95q8 -7 8 -17q0 -6 -4.5 -10t-12.5 -4q-14 0 -62.5 17.5t-73.5 31.5q-5 4 -13 4t-13 -4q-23 -13 -72.5 -30.5t-61.5 -17.5q-9 0 -14.5 3.5z" />
    <glyph glyph-name="Edieresis" unicode="&#xcb;" horiz-adv-x="577" 
d="M21 0q-5 5 -5 11t5.5 12t14.5 9q35 10 47.5 22t12.5 41v456q0 32 -12 45.5t-48 21.5q-21 5 -21 21q0 7 5.5 11.5t14.5 4.5q36 0 75 -3q50 -2 69 -2q134 0 233 3q31 0 52.5 4t24.5 4q9 0 17 -5t9 -16q3 -33 9 -61q8 -56 8 -74q0 -9 -3.5 -14.5t-9.5 -5.5t-11.5 4.5
t-9.5 12.5q-15 37 -22 51t-17 24q-14 14 -31 23t-42 9h-63q-25 0 -41 -12.5t-16 -33.5v-184q0 -24 26 -24h85q23 0 34.5 15t23.5 47q8 18 21 18q5 0 9 -6.5t3 -16.5q-5 -48 -5 -83q0 -43 4 -83v-8q0 -20 -10 -20q-7 0 -14 7t-10 17q-9 34 -21 50t-30 16h-94q-22 0 -22 -23
v-189q0 -27 11.5 -39t37.5 -12h89q46 0 73 23q29 24 57 80q6 12 19 12q10 0 10 -20q0 -18 -5 -39t-16 -55l-11 -38q-4 -12 -24 -12l-39 1q-195 3 -289 3q-34 0 -73 -3q-52 -2 -71 -2q-9 0 -14 5zM145.5 708.5q-22.5 22.5 -22.5 53.5q0 33 22 55t54 22q34 0 57 -22t23 -55
q0 -31 -23.5 -53.5t-56.5 -22.5q-31 0 -53.5 22.5zM343.5 708.5q-22.5 22.5 -22.5 53.5q0 33 22 55t54 22q34 0 57 -22t23 -55q0 -31 -23.5 -53.5t-56.5 -22.5q-31 0 -53.5 22.5z" />
    <glyph glyph-name="Igrave" unicode="&#xcc;" horiz-adv-x="369" 
d="M21 1.5q-6 4.5 -6 10.5q0 17 19 22q39 8 52.5 20.5t13.5 42.5v454q0 32 -13 45t-53 22q-19 5 -19 22q0 6 6 10.5t12 4.5q37 0 78 -3q54 -2 72 -2q19 0 75 2q58 2 80 2q16 0 16 -15q0 -9 -4.5 -13.5t-14.5 -7.5q-41 -12 -53 -25t-12 -43v-452q0 -28 13 -40.5t52 -23.5
q10 -3 14.5 -7.5t4.5 -13.5q0 -15 -16 -15q-22 0 -80 2q-56 2 -75 2q-18 0 -72 -2q-40 -3 -78 -3q-6 0 -12 4.5zM213 681q-12 0 -25 8l-77 44q-48 26 -96 55q-17 11 -20 22t27 25t47 16l8 1q15 0 27 -12q52 -52 112 -127q12 -15 12 -22t-13 -10h-2z" />
    <glyph glyph-name="Iacute" unicode="&#xcd;" horiz-adv-x="369" 
d="M21 1.5q-6 4.5 -6 10.5q0 17 19 22q39 8 52.5 20.5t13.5 42.5v454q0 32 -13 45t-53 22q-19 5 -19 22q0 6 6 10.5t12 4.5q37 0 78 -3q54 -2 72 -2q19 0 75 2q58 2 80 2q16 0 16 -15q0 -9 -4.5 -13.5t-14.5 -7.5q-41 -12 -53 -25t-12 -43v-452q0 -28 13 -40.5t52 -23.5
q10 -3 14.5 -7.5t4.5 -13.5q0 -15 -16 -15q-22 0 -80 2q-56 2 -75 2q-18 0 -72 -2q-40 -3 -78 -3q-6 0 -12 4.5zM124 691q0 7 12 22q60 75 112 127q14 14 35 11q17 -2 47 -16t27 -25t-20 -22q-48 -29 -96 -55l-77 -44q-8 -5 -16 -7t-11 -1q-13 3 -13 10z" />
    <glyph glyph-name="Icircumflex" unicode="&#xce;" horiz-adv-x="369" 
d="M21 1.5q-6 4.5 -6 10.5q0 17 19 22q39 8 52.5 20.5t13.5 42.5v454q0 32 -13 45t-53 22q-19 5 -19 22q0 6 6 10.5t12 4.5q37 0 78 -3q54 -2 72 -2q19 0 75 2q58 2 80 2q16 0 16 -15q0 -9 -4.5 -13.5t-14.5 -7.5q-41 -12 -53 -25t-12 -43v-452q0 -28 13 -40.5t52 -23.5
q10 -3 14.5 -7.5t4.5 -13.5q0 -15 -16 -15q-22 0 -80 2q-56 2 -75 2q-18 0 -72 -2q-40 -3 -78 -3q-6 0 -12 4.5zM26.5 695.5q-5.5 3.5 -5.5 9.5q0 9 9 16l106 96q20 18 29.5 24t22.5 6q14 0 23.5 -6t29.5 -24l105 -95q8 -7 8 -17q0 -6 -4.5 -10t-12.5 -4q-14 0 -62.5 17.5
t-73.5 31.5q-5 4 -13 4t-13 -4q-23 -13 -72.5 -30.5t-61.5 -17.5q-9 0 -14.5 3.5z" />
    <glyph glyph-name="Idieresis" unicode="&#xcf;" horiz-adv-x="369" 
d="M21 1.5q-6 4.5 -6 10.5q0 17 19 22q39 8 52.5 20.5t13.5 42.5v454q0 32 -13 45t-53 22q-19 5 -19 22q0 6 6 10.5t12 4.5q37 0 78 -3q54 -2 72 -2q19 0 75 2q58 2 80 2q16 0 16 -15q0 -9 -4.5 -13.5t-14.5 -7.5q-41 -12 -53 -25t-12 -43v-452q0 -28 13 -40.5t52 -23.5
q10 -3 14.5 -7.5t4.5 -13.5q0 -15 -16 -15q-22 0 -80 2q-56 2 -75 2q-18 0 -72 -2q-40 -3 -78 -3q-6 0 -12 4.5zM34.5 708.5q-22.5 22.5 -22.5 53.5q0 33 22 55t54 22q34 0 57 -22t23 -55q0 -31 -23.5 -53.5t-56.5 -22.5q-31 0 -53.5 22.5zM232.5 708.5
q-22.5 22.5 -22.5 53.5q0 33 22 55t54 22q34 0 57 -22t23 -55q0 -31 -23.5 -53.5t-56.5 -22.5q-31 0 -53.5 22.5z" />
    <glyph glyph-name="Eth" unicode="&#xd0;" horiz-adv-x="769" 
d="M567.5 618q80.5 -41 128.5 -115t48 -168q0 -90 -42 -168.5t-123.5 -126t-193.5 -47.5q-45 0 -150 5l-52 2l-72 -1q-54 -2 -78 -2q-6 0 -12 4.5t-6 10.5q0 17 19 22q39 8 52.5 20.5t13.5 42.5v207h-43q-12 0 -18 9.5t-6 21.5q0 14 8 22.5t21 8.5h38v185q0 32 -13 45
t-53 22q-19 5 -19 22q0 6 6 10.5t12 4.5q37 0 78 -3q54 -2 72 -2q16 0 90 4q110 5 121 5q93 0 173.5 -41zM513 116.5q48 68.5 48 189.5q0 136 -51 215.5t-151 79.5q-51 0 -70 -5.5t-19 -27.5v-202h92q10 0 16.5 -5.5t6.5 -13.5l-1 -5q-3 -15 -14.5 -26.5t-27.5 -11.5h-72
v-170q0 -46 23.5 -66t75.5 -20q96 0 144 68.5z" />
    <glyph glyph-name="Ntilde" unicode="&#xd1;" horiz-adv-x="813" 
d="M636.5 -1.5q-29.5 17.5 -59.5 53.5l-389 413q-7 10 -11 10q-7 0 -7 -19q0 -73 3 -165q1 -36 2 -82t1 -96q0 -33 20.5 -51t62.5 -28q27 -7 27 -21q0 -7 -7.5 -11t-16.5 -4q-32 0 -66 2l-49 1q-29 0 -57 -1.5t-36 -2.5q-7 0 -15 4.5t-8 10.5q0 8 6 12.5t18 9.5q45 18 50 81
q21 222 21 393q0 47 -22.5 71t-66.5 41q-27 7 -27 22q0 16 26 16l76 -2q120 -3 127 -3q13 0 20 -10l369 -409q10 -12 14 -12q8 0 8 14v105q0 156 -3 212q-1 28 -19 41t-59 24q-23 6 -23 21q0 6 6.5 10.5t14.5 4.5l65 -1q13 -1 41 -1l46 1q32 2 60 2q11 0 17.5 -4t6.5 -11
q0 -16 -25 -21q-36 -7 -51 -20.5t-15 -42.5q0 -60 -7 -228q-5 -98 -5 -158q0 -23 3.5 -56.5t4.5 -43.5q4 -38 4 -40q0 -49 -29 -49q-17 0 -46.5 17.5zM273 697.5q-7 6.5 -7 9.5q0 7 16 33.5t34.5 48.5t26.5 22q14 0 48 -2q24 -2 38 -2l21 -1q40 -2 67 -2q17 0 35 20
q5 6 11.5 14t8.5 8q5 0 14 -7.5t9 -11.5t-5 -12t-13 -19q-16 -24 -23 -36q-5 -8 -9 -14t-7 -11q-9 -14 -31 -14q-10 0 -84 6q-78 6 -91 6q-12 0 -29 -21q-15 -21 -18 -21q-5 0 -12 6.5z" />
    <glyph glyph-name="Ograve" unicode="&#xd2;" horiz-adv-x="759" 
d="M201.5 27.5q-80.5 41.5 -128.5 116.5t-48 171q0 92 42 172t123.5 128.5t193.5 48.5q93 0 173.5 -41.5t128.5 -116.5t48 -171q0 -92 -42 -172t-123.5 -128.5t-193.5 -48.5q-93 0 -173.5 41.5zM511.5 101q41.5 68 41.5 182q0 85 -20.5 161t-63 124t-105.5 48
q-77 0 -117.5 -68t-40.5 -181q0 -84 20.5 -160.5t62.5 -125t104 -48.5q77 0 118.5 68zM417 681q-12 0 -25 8l-77 44q-48 26 -96 55q-17 11 -20 22t27 25t47 16l8 1q15 0 27 -12q52 -52 112 -127q12 -15 12 -22t-13 -10h-2z" />
    <glyph glyph-name="Oacute" unicode="&#xd3;" horiz-adv-x="759" 
d="M201.5 27.5q-80.5 41.5 -128.5 116.5t-48 171q0 92 42 172t123.5 128.5t193.5 48.5q93 0 173.5 -41.5t128.5 -116.5t48 -171q0 -92 -42 -172t-123.5 -128.5t-193.5 -48.5q-93 0 -173.5 41.5zM511.5 101q41.5 68 41.5 182q0 85 -20.5 161t-63 124t-105.5 48
q-77 0 -117.5 -68t-40.5 -181q0 -84 20.5 -160.5t62.5 -125t104 -48.5q77 0 118.5 68zM328 691q0 7 12 22q60 75 112 127q14 14 35 11q17 -2 47 -16t27 -25t-20 -22q-48 -29 -96 -55l-77 -44q-8 -5 -16 -7t-11 -1q-13 3 -13 10z" />
    <glyph glyph-name="Ocircumflex" unicode="&#xd4;" horiz-adv-x="759" 
d="M201.5 27.5q-80.5 41.5 -128.5 116.5t-48 171q0 92 42 172t123.5 128.5t193.5 48.5q93 0 173.5 -41.5t128.5 -116.5t48 -171q0 -92 -42 -172t-123.5 -128.5t-193.5 -48.5q-93 0 -173.5 41.5zM511.5 101q41.5 68 41.5 182q0 85 -20.5 161t-63 124t-105.5 48
q-77 0 -117.5 -68t-40.5 -181q0 -84 20.5 -160.5t62.5 -125t104 -48.5q77 0 118.5 68zM230.5 695.5q-5.5 3.5 -5.5 9.5q0 9 9 16l106 96q20 18 29.5 24t22.5 6q14 0 23.5 -6t29.5 -24l105 -95q8 -7 8 -17q0 -6 -4.5 -10t-12.5 -4q-14 0 -62.5 17.5t-73.5 31.5q-5 4 -13 4
t-13 -4q-23 -13 -72.5 -30.5t-61.5 -17.5q-9 0 -14.5 3.5z" />
    <glyph glyph-name="Otilde" unicode="&#xd5;" horiz-adv-x="759" 
d="M201.5 27.5q-80.5 41.5 -128.5 116.5t-48 171q0 92 42 172t123.5 128.5t193.5 48.5q93 0 173.5 -41.5t128.5 -116.5t48 -171q0 -92 -42 -172t-123.5 -128.5t-193.5 -48.5q-93 0 -173.5 41.5zM511.5 101q41.5 68 41.5 182q0 85 -20.5 161t-63 124t-105.5 48
q-77 0 -117.5 -68t-40.5 -181q0 -84 20.5 -160.5t62.5 -125t104 -48.5q77 0 118.5 68zM236 697.5q-7 6.5 -7 9.5q0 7 16 33.5t34.5 48.5t26.5 22q14 0 48 -2q24 -2 38 -2l21 -1q40 -2 67 -2q17 0 35 20q5 6 11.5 14t8.5 8q5 0 14 -7.5t9 -11.5t-5 -12t-13 -19
q-16 -24 -23 -36q-5 -8 -9 -14t-7 -11q-9 -14 -31 -14q-10 0 -84 6q-78 6 -91 6q-12 0 -29 -21q-15 -21 -18 -21q-5 0 -12 6.5z" />
    <glyph glyph-name="Odieresis" unicode="&#xd6;" horiz-adv-x="759" 
d="M201.5 27.5q-80.5 41.5 -128.5 116.5t-48 171q0 92 42 172t123.5 128.5t193.5 48.5q93 0 173.5 -41.5t128.5 -116.5t48 -171q0 -92 -42 -172t-123.5 -128.5t-193.5 -48.5q-93 0 -173.5 41.5zM511.5 101q41.5 68 41.5 182q0 85 -20.5 161t-63 124t-105.5 48
q-77 0 -117.5 -68t-40.5 -181q0 -84 20.5 -160.5t62.5 -125t104 -48.5q77 0 118.5 68zM238.5 708.5q-22.5 22.5 -22.5 53.5q0 33 22 55t54 22q34 0 57 -22t23 -55q0 -31 -23.5 -53.5t-56.5 -22.5q-31 0 -53.5 22.5zM436.5 708.5q-22.5 22.5 -22.5 53.5q0 33 22 55t54 22
q34 0 57 -22t23 -55q0 -31 -23.5 -53.5t-56.5 -22.5q-31 0 -53.5 22.5z" />
    <glyph glyph-name="multiply" unicode="&#xd7;" horiz-adv-x="526" 
d="M412 58l-142 141q-4 4 -9 4t-10 -5l-134 -135q-9 -9 -19 -9q-8 0 -16 14.5t-8 29.5q0 12 6 18l127 126q6 6 6 10t-6 10l-131 133q-6 6 -6 14q0 19 20 42q3 3 8 3q8 0 14 -6l140 -142q5 -5 9 -5t9 5l142 142q6 6 13 6q6 0 9 -3q20 -23 20 -42q0 -8 -6 -14l-133 -134
q-5 -5 -5 -9t5 -9l134 -132q7 -7 7 -19t-7.5 -27.5t-17.5 -15.5t-19 9z" />
    <glyph glyph-name="Oslash" unicode="&#xd8;" horiz-adv-x="759" 
d="M666 533q68 -84 68 -198q0 -92 -42 -172t-123.5 -128.5t-193.5 -48.5q-60 0 -115 17.5t-101 50.5l-64 -61q-7 -7 -17 -7q-19 0 -35 11.5t-16 25.5q0 21 18 37l53 50q-35 42 -54 94t-19 111q0 92 42 172t123.5 128.5t193.5 48.5q63 0 122 -20t107 -57l74 69q7 8 19 8
q8 0 14.5 -4t9.5 -11q6 -16 6 -28q0 -22 -13 -34zM222 224l292 272q-24 56 -61.5 88t-88.5 32q-77 0 -117.5 -68t-40.5 -181q0 -76 16 -143zM540 414l-289 -274q24 -50 59.5 -78.5t82.5 -28.5q77 0 118.5 68t41.5 182q0 70 -13 131z" />
    <glyph glyph-name="Ugrave" unicode="&#xd9;" horiz-adv-x="746" 
d="M160.5 58.5q-73.5 72.5 -73.5 197.5v280q0 28 -13.5 51.5t-38.5 30.5q-27 7 -27 22q0 7 7.5 11t18.5 4q35 0 72 -3q46 -2 65 -2t71 2q54 2 76 2q26 0 26 -15q0 -8 -8 -13t-20.5 -9.5t-20.5 -8.5q-37 -18 -37 -78v-258q0 -94 43 -142.5t109 -48.5q89 0 132.5 51t43.5 159
q0 42 1 65l1 75q0 32 -1 46q-1 48 -6.5 73.5t-16.5 39t-33 24.5q-7 4 -18 7.5t-17 7.5t-6 10q0 15 30 15q31 0 63 -2l38 -1q18 0 44 2t48 2q25 0 25 -15q0 -14 -26 -22q-34 -10 -48 -31t-16 -60q-5 -121 -5 -262q0 -81 -36 -144.5t-97.5 -99t-136.5 -35.5
q-139 0 -212.5 72.5zM435 681q-12 0 -25 8l-77 44q-48 26 -96 55q-17 11 -20 22t27 25t47 16l8 1q15 0 27 -12q52 -52 112 -127q12 -15 12 -22t-13 -10h-2z" />
    <glyph glyph-name="Uacute" unicode="&#xda;" horiz-adv-x="746" 
d="M160.5 58.5q-73.5 72.5 -73.5 197.5v280q0 28 -13.5 51.5t-38.5 30.5q-27 7 -27 22q0 7 7.5 11t18.5 4q35 0 72 -3q46 -2 65 -2t71 2q54 2 76 2q26 0 26 -15q0 -8 -8 -13t-20.5 -9.5t-20.5 -8.5q-37 -18 -37 -78v-258q0 -94 43 -142.5t109 -48.5q89 0 132.5 51t43.5 159
q0 42 1 65l1 75q0 32 -1 46q-1 48 -6.5 73.5t-16.5 39t-33 24.5q-7 4 -18 7.5t-17 7.5t-6 10q0 15 30 15q31 0 63 -2l38 -1q18 0 44 2t48 2q25 0 25 -15q0 -14 -26 -22q-34 -10 -48 -31t-16 -60q-5 -121 -5 -262q0 -81 -36 -144.5t-97.5 -99t-136.5 -35.5
q-139 0 -212.5 72.5zM346 691q0 7 12 22q60 75 112 127q14 14 35 11q17 -2 47 -16t27 -25t-20 -22q-48 -29 -96 -55l-77 -44q-8 -5 -16 -7t-11 -1q-13 3 -13 10z" />
    <glyph glyph-name="Ucircumflex" unicode="&#xdb;" horiz-adv-x="746" 
d="M160.5 58.5q-73.5 72.5 -73.5 197.5v280q0 28 -13.5 51.5t-38.5 30.5q-27 7 -27 22q0 7 7.5 11t18.5 4q35 0 72 -3q46 -2 65 -2t71 2q54 2 76 2q26 0 26 -15q0 -8 -8 -13t-20.5 -9.5t-20.5 -8.5q-37 -18 -37 -78v-258q0 -94 43 -142.5t109 -48.5q89 0 132.5 51t43.5 159
q0 42 1 65l1 75q0 32 -1 46q-1 48 -6.5 73.5t-16.5 39t-33 24.5q-7 4 -18 7.5t-17 7.5t-6 10q0 15 30 15q31 0 63 -2l38 -1q18 0 44 2t48 2q25 0 25 -15q0 -14 -26 -22q-34 -10 -48 -31t-16 -60q-5 -121 -5 -262q0 -81 -36 -144.5t-97.5 -99t-136.5 -35.5
q-139 0 -212.5 72.5zM248.5 695.5q-5.5 3.5 -5.5 9.5q0 9 9 16l106 96q20 18 29.5 24t22.5 6q14 0 23.5 -6t29.5 -24l105 -95q8 -7 8 -17q0 -6 -4.5 -10t-12.5 -4q-14 0 -62.5 17.5t-73.5 31.5q-5 4 -13 4t-13 -4q-23 -13 -72.5 -30.5t-61.5 -17.5q-9 0 -14.5 3.5z" />
    <glyph glyph-name="Udieresis" unicode="&#xdc;" horiz-adv-x="746" 
d="M160.5 58.5q-73.5 72.5 -73.5 197.5v280q0 28 -13.5 51.5t-38.5 30.5q-27 7 -27 22q0 7 7.5 11t18.5 4q35 0 72 -3q46 -2 65 -2t71 2q54 2 76 2q26 0 26 -15q0 -8 -8 -13t-20.5 -9.5t-20.5 -8.5q-37 -18 -37 -78v-258q0 -94 43 -142.5t109 -48.5q89 0 132.5 51t43.5 159
q0 42 1 65l1 75q0 32 -1 46q-1 48 -6.5 73.5t-16.5 39t-33 24.5q-7 4 -18 7.5t-17 7.5t-6 10q0 15 30 15q31 0 63 -2l38 -1q18 0 44 2t48 2q25 0 25 -15q0 -14 -26 -22q-34 -10 -48 -31t-16 -60q-5 -121 -5 -262q0 -81 -36 -144.5t-97.5 -99t-136.5 -35.5
q-139 0 -212.5 72.5zM256.5 708.5q-22.5 22.5 -22.5 53.5q0 33 22 55t54 22q34 0 57 -22t23 -55q0 -31 -23.5 -53.5t-56.5 -22.5q-31 0 -53.5 22.5zM454.5 708.5q-22.5 22.5 -22.5 53.5q0 33 22 55t54 22q34 0 57 -22t23 -55q0 -31 -23.5 -53.5t-56.5 -22.5
q-31 0 -53.5 22.5z" />
    <glyph glyph-name="Yacute" unicode="&#xdd;" horiz-adv-x="671" 
d="M175 -1q-8 5 -8 12q0 16 29 22q37 7 51.5 26t14.5 51v136q0 34 -8 56.5t-25 50.5l-131 201q-17 26 -33 41.5t-43 22.5q-11 4 -16.5 8t-5.5 13q0 7 5.5 11t13.5 4q22 0 48.5 -1.5t39.5 -1.5q41 -3 84 -3q15 0 34.5 1t30.5 2q44 4 70 4q9 0 18 -4.5t9 -10.5q0 -15 -28 -22
q-32 -7 -44 -15t-12 -25q0 -16 11 -35l105 -179q7 -13 16 -13q7 0 15 13q53 95 89 174q10 22 10 38q0 19 -17 29.5t-40 12.5q-11 1 -20.5 7.5t-9.5 14.5q0 6 9 10t20 4q29 0 56 -3q34 -2 52 -2q14 0 46 4t55 4q30 0 30 -17q0 -8 -5.5 -11.5t-12 -5.5t-8.5 -3
q-29 -8 -51.5 -24.5t-34.5 -38.5q-34 -56 -52 -83q-54 -89 -72 -119q-28 -49 -28 -99v-145q0 -38 13 -52.5t53 -25.5q15 -4 22 -8t7 -13q0 -7 -7.5 -12t-18.5 -5q-21 0 -81 4q-56 4 -75 4q-18 0 -72 -4q-45 -5 -78 -5q-12 0 -20 5zM320 691q0 7 12 22q60 75 112 127
q14 14 35 11q17 -2 47 -16t27 -25t-20 -22q-48 -29 -96 -55l-77 -44q-8 -5 -16 -7t-11 -1q-13 3 -13 10z" />
    <glyph glyph-name="Thorn" unicode="&#xde;" horiz-adv-x="597" 
d="M21 1.5q-6 4.5 -6 10.5q0 17 19 22q39 8 52.5 20.5t13.5 42.5v454q0 32 -13 45t-53 22q-19 5 -19 22q0 6 6 10.5t12 4.5q37 0 78 -3q54 -2 72 -2q19 0 75 2q58 2 80 2q16 0 16 -15q0 -9 -4.5 -13.5t-14.5 -7.5q-38 -11 -51 -22t-14 -35v-9q0 -3 1 -5t5 -2q6 1 16.5 3.5
t6.5 2.5q33 8 78 8q55 0 100.5 -23t72.5 -69.5t27 -114.5q0 -69 -34.5 -119.5t-93.5 -77.5t-131 -27q-11 0 -22 1.5t-18 1.5q-8 0 -8 -9v-24q0 -28 13 -40.5t52 -23.5q10 -3 14.5 -7.5t4.5 -13.5q0 -15 -16 -15q-22 0 -80 2q-56 2 -75 2q-18 0 -72 -2q-40 -3 -78 -3
q-6 0 -12 4.5zM385.5 211.5q24.5 41.5 24.5 123.5t-23 129.5t-61 47.5q-27 0 -41.5 -17.5t-14.5 -58.5v-198q0 -68 36 -68q55 0 79.5 41.5z" />
    <glyph glyph-name="germandbls" unicode="&#xdf;" horiz-adv-x="597" 
d="M335 4q-26 18 -26 46q0 21 10 41t26 20q9 0 15.5 -5t20.5 -21q18 -20 31 -29t33 -9q15 0 29 9.5t14 27.5q0 27 -22.5 51.5t-69.5 62.5q-49 40 -74.5 70t-25.5 65q0 26 13.5 44t41.5 43l18 16q52 50 52 108q0 54 -23 87.5t-66 33.5q-55 0 -81 -45t-26 -149v-396
q0 -19 13 -27.5t41 -14.5q8 -2 13.5 -8t5.5 -13q0 -6 -5 -10.5t-11 -4.5q-33 0 -68 3q-42 2 -59 2q-16 0 -54 -2q-30 -3 -61 -3q-7 0 -13.5 4.5t-6.5 10.5q0 13 23 21q19 6 28 13t9 25v285q-31 0 -52 2q-6 1 -10 12t-4 20q0 7 10 10q6 2 23.5 8.5t32.5 14.5q7 98 48.5 161.5
t101 92.5t122.5 29q40 0 74 -15t54 -39.5t20 -51.5q0 -41 -12.5 -67t-33.5 -51q-18 -21 -27 -44.5t-9 -59.5q0 -21 17 -40.5t54 -50.5q42 -34 65 -63t23 -65q0 -45 -28.5 -85t-68 -64t-69.5 -24q-50 0 -76 18z" />
    <glyph glyph-name="agrave" unicode="&#xe0;" horiz-adv-x="447" 
d="M57.5 13.5q-30.5 27.5 -30.5 66.5q0 34 21.5 58t66.5 44l86 38q20 9 25 16t5 27l1 55q2 60 -40 60q-12 0 -25 -5.5t-19 -12.5q-5 -6 -5 -19q0 -7 1 -15.5t1 -15.5q0 -10 -35 -25.5t-59 -15.5q-8 0 -13.5 6.5t-5.5 16.5q0 16 11 31t37 36q40 32 90.5 54.5t84.5 22.5
q57 0 90.5 -36.5t32.5 -97.5l-5 -194q-1 -23 7.5 -39.5t21.5 -16.5q18 0 32 13q3 3 6 3q5 0 8.5 -3.5t3.5 -8.5q0 -12 -20 -32q-38 -38 -87 -38q-31 0 -54 14t-43 44h-2q-33 -32 -59 -45t-55 -13q-44 0 -74.5 27.5zM220 68q6 8 6 23l3 77q0 14 -10 14q-4 0 -10 -3
q-28 -15 -38.5 -29t-10.5 -46q0 -26 10 -37.5t24 -11.5q16 0 26 13zM241 467q-45 45 -106 115l-25 28q-10 11 -10 25q0 12 17.5 18.5t43.5 6.5q20 0 30.5 -5.5t18.5 -21.5q10 -21 29.5 -66t33.5 -80q5 -12 5 -22q0 -13 -11 -13t-26 15z" />
    <glyph glyph-name="aacute" unicode="&#xe1;" horiz-adv-x="447" 
d="M57.5 13.5q-30.5 27.5 -30.5 66.5q0 34 21.5 58t66.5 44l86 38q20 9 25 16t5 27l1 55q2 60 -40 60q-12 0 -25 -5.5t-19 -12.5q-5 -6 -5 -19q0 -7 1 -15.5t1 -15.5q0 -10 -35 -25.5t-59 -15.5q-8 0 -13.5 6.5t-5.5 16.5q0 16 11 31t37 36q40 32 90.5 54.5t84.5 22.5
q57 0 90.5 -36.5t32.5 -97.5l-5 -194q-1 -23 7.5 -39.5t21.5 -16.5q18 0 32 13q3 3 6 3q5 0 8.5 -3.5t3.5 -8.5q0 -12 -20 -32q-38 -38 -87 -38q-31 0 -54 14t-43 44h-2q-33 -32 -59 -45t-55 -13q-44 0 -74.5 27.5zM220 68q6 8 6 23l3 77q0 14 -10 14q-4 0 -10 -3
q-28 -15 -38.5 -29t-10.5 -46q0 -26 10 -37.5t24 -11.5q16 0 26 13zM189 465q0 10 5 22q14 35 33.5 80t29.5 66q8 16 18.5 21.5t30.5 5.5q26 0 43.5 -6.5t17.5 -18.5q0 -14 -10 -25l-25 -28q-61 -70 -106 -115q-15 -15 -26 -15t-11 13z" />
    <glyph glyph-name="acircumflex" unicode="&#xe2;" horiz-adv-x="447" 
d="M57.5 13.5q-30.5 27.5 -30.5 66.5q0 34 21.5 58t66.5 44l86 38q20 9 25 16t5 27l1 55q2 60 -40 60q-12 0 -25 -5.5t-19 -12.5q-5 -6 -5 -19q0 -7 1 -15.5t1 -15.5q0 -10 -35 -25.5t-59 -15.5q-8 0 -13.5 6.5t-5.5 16.5q0 16 11 31t37 36q40 32 90.5 54.5t84.5 22.5
q57 0 90.5 -36.5t32.5 -97.5l-5 -194q-1 -23 7.5 -39.5t21.5 -16.5q18 0 32 13q3 3 6 3q5 0 8.5 -3.5t3.5 -8.5q0 -12 -20 -32q-38 -38 -87 -38q-31 0 -54 14t-43 44h-2q-33 -32 -59 -45t-55 -13q-44 0 -74.5 27.5zM220 68q6 8 6 23l3 77q0 14 -10 14q-4 0 -10 -3
q-28 -15 -38.5 -29t-10.5 -46q0 -26 10 -37.5t24 -11.5q16 0 26 13zM245.5 667q7.5 -9 20.5 -32l30 -51q34 -56 49 -84q6 -12 6 -23q0 -10 -4.5 -16t-11.5 -6t-17 8t-26 26q-42 48 -58 64q-4 4 -6 4t-6 -4q-18 -18 -40 -44q-5 -5 -9.5 -10.5t-8.5 -9.5q-17 -19 -26 -26.5
t-17 -7.5q-18 0 -18 18q0 11 8 27q21 39 48 82l30 51q14 24 22 33.5t17 9.5q10 0 17.5 -9z" />
    <glyph glyph-name="atilde" unicode="&#xe3;" horiz-adv-x="447" 
d="M57.5 13.5q-30.5 27.5 -30.5 66.5q0 34 21.5 58t66.5 44l86 38q20 9 25 16t5 27l1 55q2 60 -40 60q-12 0 -25 -5.5t-19 -12.5q-5 -6 -5 -19q0 -7 1 -15.5t1 -15.5q0 -10 -35 -25.5t-59 -15.5q-8 0 -13.5 6.5t-5.5 16.5q0 16 11 31t37 36q40 32 90.5 54.5t84.5 22.5
q57 0 90.5 -36.5t32.5 -97.5l-5 -194q-1 -23 7.5 -39.5t21.5 -16.5q18 0 32 13q3 3 6 3q5 0 8.5 -3.5t3.5 -8.5q0 -12 -20 -32q-38 -38 -87 -38q-31 0 -54 14t-43 44h-2q-33 -32 -59 -45t-55 -13q-44 0 -74.5 27.5zM220 68q6 8 6 23l3 77q0 14 -10 14q-4 0 -10 -3
q-28 -15 -38.5 -29t-10.5 -46q0 -26 10 -37.5t24 -11.5q16 0 26 13zM83.5 475q-9.5 8 -9.5 12q0 7 20.5 36t43.5 54.5t31 25.5q9 0 27.5 -3t44.5 -5q62 -4 70 -4q18 0 35 20q5 6 12 15.5t11 9.5q5 0 14 -8t9 -12t-8 -15.5t-13 -17.5l-21 -33l-22 -34q-9 -14 -31 -14
q-10 0 -74 4q-55 5 -79 5q-11 0 -19 -11q-11 -15 -18 -24t-10 -9q-4 0 -13.5 8z" />
    <glyph glyph-name="adieresis" unicode="&#xe4;" horiz-adv-x="447" 
d="M57.5 13.5q-30.5 27.5 -30.5 66.5q0 34 21.5 58t66.5 44l86 38q20 9 25 16t5 27l1 55q2 60 -40 60q-12 0 -25 -5.5t-19 -12.5q-5 -6 -5 -19q0 -7 1 -15.5t1 -15.5q0 -10 -35 -25.5t-59 -15.5q-8 0 -13.5 6.5t-5.5 16.5q0 16 11 31t37 36q40 32 90.5 54.5t84.5 22.5
q57 0 90.5 -36.5t32.5 -97.5l-5 -194q-1 -23 7.5 -39.5t21.5 -16.5q18 0 32 13q3 3 6 3q5 0 8.5 -3.5t3.5 -8.5q0 -12 -20 -32q-38 -38 -87 -38q-31 0 -54 14t-43 44h-2q-33 -32 -59 -45t-55 -13q-44 0 -74.5 27.5zM220 68q6 8 6 23l3 77q0 14 -10 14q-4 0 -10 -3
q-28 -15 -38.5 -29t-10.5 -46q0 -26 10 -37.5t24 -11.5q16 0 26 13zM70.5 513.5q-22.5 22.5 -22.5 53.5q0 33 22 55t54 22q34 0 57 -22t23 -55q0 -31 -23.5 -53.5t-56.5 -22.5q-31 0 -53.5 22.5zM268.5 513.5q-22.5 22.5 -22.5 53.5q0 33 22 55t54 22q34 0 57 -22t23 -55
q0 -31 -23.5 -53.5t-56.5 -22.5q-31 0 -53.5 22.5z" />
    <glyph glyph-name="aring" unicode="&#xe5;" horiz-adv-x="447" 
d="M57.5 13.5q-30.5 27.5 -30.5 66.5q0 34 21.5 58t66.5 44l86 38q20 9 25 16t5 27l1 55q2 60 -40 60q-12 0 -25 -5.5t-19 -12.5q-5 -6 -5 -19q0 -7 1 -15.5t1 -15.5q0 -10 -35 -25.5t-59 -15.5q-8 0 -13.5 6.5t-5.5 16.5q0 16 11 31t37 36q40 32 90.5 54.5t84.5 22.5
q57 0 90.5 -36.5t32.5 -97.5l-5 -194q-1 -23 7.5 -39.5t21.5 -16.5q18 0 32 13q3 3 6 3q5 0 8.5 -3.5t3.5 -8.5q0 -12 -20 -32q-38 -38 -87 -38q-31 0 -54 14t-43 44h-2q-33 -32 -59 -45t-55 -13q-44 0 -74.5 27.5zM220 68q6 8 6 23l3 77q0 14 -10 14q-4 0 -10 -3
q-28 -15 -38.5 -29t-10.5 -46q0 -26 10 -37.5t24 -11.5q16 0 26 13zM146 506q-31 26 -31 70q0 45 35 74.5t82 29.5q43 0 74 -26t31 -68q0 -46 -34.5 -76t-81.5 -30q-44 0 -75 26zM261.5 536q11.5 18 11.5 42q0 26 -14.5 43t-36.5 17q-20 0 -31.5 -17.5t-11.5 -42.5
q0 -24 15 -42t37 -18q19 0 30.5 18z" />
    <glyph glyph-name="ae" unicode="&#xe6;" horiz-adv-x="638" 
d="M59.5 13.5q-32.5 27.5 -32.5 66.5q0 35 21.5 60.5t66.5 41.5l86 31q20 9 25 16t5 27l1 60q2 60 -40 60q-11 0 -24.5 -6t-19.5 -13q-5 -6 -5 -19q0 -7 1 -14t1 -14q0 -11 -36 -26t-58 -15q-8 0 -13.5 6.5t-5.5 16.5q0 32 47 70q34 28 83 51.5t88 23.5q26 0 45.5 -6.5
t38.5 -22.5q4 -3 8 -3t8 3q25 14 49 21.5t55 7.5q70 0 115.5 -35t45.5 -88q0 -29 -24 -34q-34 -9 -106.5 -29.5t-99.5 -29.5q-11 -4 -11 -18v-22q0 -21 14 -42.5t37 -36t49 -14.5q30 0 59 13.5t50 39.5q5 7 14 7q11 0 11 -13q0 -15 -6 -27q-31 -59 -75 -90.5t-117 -31.5
q-44 0 -78 13t-64 43q-5 5 -9 5q-3 0 -8 -5q-28 -29 -52.5 -42.5t-62.5 -13.5q-44 0 -76.5 27.5zM490 300q10 3 13 8.5t3 17.5q0 30 -14 49t-45 19q-29 0 -49 -18t-20 -45l-1 -52q0 -8 9 -7q71 18 104 28zM220 68q9 11 9 24v63q0 9 -1 13t-5 4t-10 -3q-28 -13 -40.5 -27.5
t-12.5 -37.5q0 -26 10 -37.5t24 -11.5q16 0 26 13z" />
    <glyph glyph-name="ccedilla" unicode="&#xe7;" horiz-adv-x="412" 
d="M114.5 15q-43.5 29 -68.5 79t-25 111q0 63 30 116t82 84t114 31q41 0 78 -15t63 -43q8 -10 8 -18q0 -9 -19 -28.5t-30 -19.5q-9 0 -16.5 4.5t-19.5 14.5q-27 23 -53.5 36.5t-46.5 13.5q-36 0 -52.5 -29.5t-16.5 -98.5q0 -74 32 -115t93 -41q28 0 50.5 9t48.5 29
q2 2 7.5 6t10.5 4q12 0 12 -16q0 -13 -6 -27q-9 -23 -35.5 -50t-64.5 -46.5t-79 -19.5q-53 0 -96.5 29zM122 -264q-11 10 -11 39q0 15 4 20.5t14 5.5q5 0 23 -6q29 -11 47 -11q27 0 27 39q0 18 -17.5 28.5t-38.5 10.5q-10 0 -20 -5t-14 -5q-8 0 -15.5 7.5t-7.5 18.5
q0 4 4.5 12t11.5 15l90 103h47l-35 -41q-6 -8 -6 -11q0 -5 13 -11q26 -12 39.5 -32t13.5 -53q0 -32 -21.5 -63t-53 -51t-58.5 -20q-25 0 -36 10z" />
    <glyph glyph-name="egrave" unicode="&#xe8;" horiz-adv-x="423" 
d="M114.5 15q-43.5 29 -68.5 79t-25 111q0 63 30 116t81.5 84t112.5 31q42 0 77.5 -19t56.5 -51t21 -71q0 -20 -7.5 -29.5t-23.5 -9.5h-198q-14 0 -20.5 -8t-6.5 -27q0 -55 35 -92t90 -37q27 0 51 10.5t52 30.5q9 7 14 7q11 0 11 -13q0 -9 -6 -27q-15 -45 -63.5 -79.5
t-116.5 -34.5q-53 0 -96.5 29zM224 300q24 0 35.5 1t20.5 4q4 1 7.5 10t3.5 20q0 26 -16.5 42.5t-42.5 16.5q-30 0 -54 -25t-22 -54q0 -7 4 -11t11 -4h53zM252 467q-45 45 -106 115l-25 28q-10 11 -10 25q0 12 17.5 18.5t43.5 6.5q20 0 30.5 -5.5t18.5 -21.5
q10 -21 29.5 -66t33.5 -80q5 -12 5 -22q0 -13 -11 -13t-26 15z" />
    <glyph glyph-name="eacute" unicode="&#xe9;" horiz-adv-x="423" 
d="M114.5 15q-43.5 29 -68.5 79t-25 111q0 63 30 116t81.5 84t112.5 31q42 0 77.5 -19t56.5 -51t21 -71q0 -20 -7.5 -29.5t-23.5 -9.5h-198q-14 0 -20.5 -8t-6.5 -27q0 -55 35 -92t90 -37q27 0 51 10.5t52 30.5q9 7 14 7q11 0 11 -13q0 -9 -6 -27q-15 -45 -63.5 -79.5
t-116.5 -34.5q-53 0 -96.5 29zM224 300q24 0 35.5 1t20.5 4q4 1 7.5 10t3.5 20q0 26 -16.5 42.5t-42.5 16.5q-30 0 -54 -25t-22 -54q0 -7 4 -11t11 -4h53zM200 465q0 10 5 22q14 35 33.5 80t29.5 66q8 16 18.5 21.5t30.5 5.5q26 0 43.5 -6.5t17.5 -18.5q0 -14 -10 -25
l-25 -28q-61 -70 -106 -115q-15 -15 -26 -15t-11 13z" />
    <glyph glyph-name="ecircumflex" unicode="&#xea;" horiz-adv-x="423" 
d="M114.5 15q-43.5 29 -68.5 79t-25 111q0 63 30 116t81.5 84t112.5 31q42 0 77.5 -19t56.5 -51t21 -71q0 -20 -7.5 -29.5t-23.5 -9.5h-198q-14 0 -20.5 -8t-6.5 -27q0 -55 35 -92t90 -37q27 0 51 10.5t52 30.5q9 7 14 7q11 0 11 -13q0 -9 -6 -27q-15 -45 -63.5 -79.5
t-116.5 -34.5q-53 0 -96.5 29zM224 300q24 0 35.5 1t20.5 4q4 1 7.5 10t3.5 20q0 26 -16.5 42.5t-42.5 16.5q-30 0 -54 -25t-22 -54q0 -7 4 -11t11 -4h53zM256.5 667q7.5 -9 20.5 -32l30 -51q34 -56 49 -84q6 -12 6 -23q0 -10 -4.5 -16t-11.5 -6t-17 8t-26 26q-42 48 -58 64
q-4 4 -6 4t-6 -4q-18 -18 -40 -44q-5 -5 -9.5 -10.5t-8.5 -9.5q-17 -19 -26 -26.5t-17 -7.5q-18 0 -18 18q0 11 8 27q21 39 48 82l30 51q14 24 22 33.5t17 9.5q10 0 17.5 -9z" />
    <glyph glyph-name="edieresis" unicode="&#xeb;" horiz-adv-x="423" 
d="M114.5 15q-43.5 29 -68.5 79t-25 111q0 63 30 116t81.5 84t112.5 31q42 0 77.5 -19t56.5 -51t21 -71q0 -20 -7.5 -29.5t-23.5 -9.5h-198q-14 0 -20.5 -8t-6.5 -27q0 -55 35 -92t90 -37q27 0 51 10.5t52 30.5q9 7 14 7q11 0 11 -13q0 -9 -6 -27q-15 -45 -63.5 -79.5
t-116.5 -34.5q-53 0 -96.5 29zM224 300q24 0 35.5 1t20.5 4q4 1 7.5 10t3.5 20q0 26 -16.5 42.5t-42.5 16.5q-30 0 -54 -25t-22 -54q0 -7 4 -11t11 -4h53zM81.5 513.5q-22.5 22.5 -22.5 53.5q0 33 22 55t54 22q34 0 57 -22t23 -55q0 -31 -23.5 -53.5t-56.5 -22.5
q-31 0 -53.5 22.5zM279.5 513.5q-22.5 22.5 -22.5 53.5q0 33 22 55t54 22q34 0 57 -22t23 -55q0 -31 -23.5 -53.5t-56.5 -22.5q-31 0 -53.5 22.5z" />
    <glyph glyph-name="igrave" unicode="&#xec;" horiz-adv-x="306" 
d="M25 1q-5 4 -5 10q0 15 17 20q28 7 38 14.5t10 22.5v216q0 34 -10 47.5t-33 16.5q-6 1 -9 6.5t-3 12.5t3.5 12t8.5 6q46 9 82 23t83 35q18 8 22 8q7 0 10.5 -4t3.5 -10l-5 -44q-8 -68 -8 -105v-219q0 -13 10 -21t38 -17q9 -3 13.5 -7t4.5 -12q0 -14 -15 -14q-19 0 -65 2
q-44 2 -60 2q-17 0 -57 -2q-32 -3 -63 -3q-6 0 -11 4zM166 467q-45 45 -106 115l-25 28q-10 11 -10 25q0 12 17.5 18.5t43.5 6.5q20 0 30.5 -5.5t18.5 -21.5q10 -21 29.5 -66t33.5 -80q5 -12 5 -22q0 -13 -11 -13t-26 15z" />
    <glyph glyph-name="iacute" unicode="&#xed;" horiz-adv-x="306" 
d="M25 1q-5 4 -5 10q0 15 17 20q28 7 38 14.5t10 22.5v216q0 34 -10 47.5t-33 16.5q-6 1 -9 6.5t-3 12.5t3.5 12t8.5 6q46 9 82 23t83 35q18 8 22 8q7 0 10.5 -4t3.5 -10l-5 -44q-8 -68 -8 -105v-219q0 -13 10 -21t38 -17q9 -3 13.5 -7t4.5 -12q0 -14 -15 -14q-19 0 -65 2
q-44 2 -60 2q-17 0 -57 -2q-32 -3 -63 -3q-6 0 -11 4zM114 465q0 10 5 22q14 35 33.5 80t29.5 66q8 16 18.5 21.5t30.5 5.5q26 0 43.5 -6.5t17.5 -18.5q0 -14 -10 -25l-25 -28q-61 -70 -106 -115q-15 -15 -26 -15t-11 13z" />
    <glyph glyph-name="icircumflex" unicode="&#xee;" horiz-adv-x="306" 
d="M25 1q-5 4 -5 10q0 15 17 20q28 7 38 14.5t10 22.5v216q0 34 -10 47.5t-33 16.5q-6 1 -9 6.5t-3 12.5t3.5 12t8.5 6q46 9 82 23t83 35q18 8 22 8q7 0 10.5 -4t3.5 -10l-5 -44q-8 -68 -8 -105v-219q0 -13 10 -21t38 -17q9 -3 13.5 -7t4.5 -12q0 -14 -15 -14q-19 0 -65 2
q-44 2 -60 2q-17 0 -57 -2q-32 -3 -63 -3q-6 0 -11 4zM170.5 667q7.5 -9 20.5 -32l30 -51q34 -56 49 -84q6 -12 6 -23q0 -10 -4.5 -16t-11.5 -6t-17 8t-26 26q-42 48 -58 64q-4 4 -6 4t-6 -4q-18 -18 -40 -44q-5 -5 -9.5 -10.5t-8.5 -9.5q-17 -19 -26 -26.5t-17 -7.5
q-18 0 -18 18q0 11 8 27q21 39 48 82l30 51q14 24 22 33.5t17 9.5q10 0 17.5 -9z" />
    <glyph glyph-name="idieresis" unicode="&#xef;" horiz-adv-x="306" 
d="M25 1q-5 4 -5 10q0 15 17 20q28 7 38 14.5t10 22.5v216q0 34 -10 47.5t-33 16.5q-6 1 -9 6.5t-3 12.5t3.5 12t8.5 6q46 9 82 23t83 35q18 8 22 8q7 0 10.5 -4t3.5 -10l-5 -44q-8 -68 -8 -105v-219q0 -13 10 -21t38 -17q9 -3 13.5 -7t4.5 -12q0 -14 -15 -14q-19 0 -65 2
q-44 2 -60 2q-17 0 -57 -2q-32 -3 -63 -3q-6 0 -11 4zM-4.5 513.5q-22.5 22.5 -22.5 53.5q0 33 22 55t54 22q34 0 57 -22t23 -55q0 -31 -23.5 -53.5t-56.5 -22.5q-31 0 -53.5 22.5zM193.5 513.5q-22.5 22.5 -22.5 53.5q0 33 22 55t54 22q34 0 57 -22t23 -55
q0 -31 -23.5 -53.5t-56.5 -22.5q-31 0 -53.5 22.5z" />
    <glyph glyph-name="eth" unicode="&#xf0;" horiz-adv-x="520" 
d="M135.5 13.5q-52.5 27.5 -84 75.5t-31.5 108q0 65 32.5 120t89.5 87.5t129 32.5q9 0 17 -2q5 -2 4 4q-6 24 -15.5 52t-16.5 46l-119 -62q-4 -3 -10 -3q-7 0 -12.5 5.5t-5.5 11.5q0 17 5 25t18 14l98 50q-50 70 -131 87q-17 3 -26.5 7.5t-9.5 14.5q0 17 47 17
q58 0 112.5 -19.5t100.5 -57.5l109 57q4 3 12 3t13.5 -4t5.5 -11q0 -13 -6 -21.5t-21 -17.5l-73 -40q57 -60 90 -150.5t33 -192.5q0 -61 -28.5 -122.5t-83 -101.5t-129.5 -40q-61 0 -113.5 27.5zM319 78q17 42 17 150q0 27 -6 62.5t-14 59.5q-15 19 -29.5 27.5t-34.5 8.5
q-34 0 -56.5 -44.5t-22.5 -119.5q0 -46 13 -89t34 -70t44 -27q38 0 55 42z" />
    <glyph glyph-name="ntilde" unicode="&#xf1;" horiz-adv-x="574" 
d="M26.5 1.5q-6.5 4.5 -6.5 10.5q0 13 23 21q19 6 28 13t9 25v232q0 47 -30 52q-4 1 -7.5 6t-3.5 13q0 15 10 18q38 9 82 22.5t72 27.5q2 1 9 5t11 4q10 0 10 -13l-2 -21q-3 -33 -3 -35q0 -13 2 -15q38 35 71 52t76 17q55 0 90 -39t35 -105v-222q0 -18 8.5 -24.5t28.5 -12.5
q20 -7 20 -21q0 -6 -5.5 -10.5t-11.5 -4.5q-31 0 -60 3q-36 2 -52 2q-17 0 -51 -2q-28 -3 -59 -3q-6 0 -11 4.5t-5 10.5q0 14 19 21q19 6 26.5 12.5t7.5 24.5v197q0 37 -16 58t-42 21q-18 0 -33 -5.5t-33 -17.5q-8 -5 -8 -18v-235q0 -18 7.5 -24t26.5 -13t19 -21
q0 -6 -5 -10.5t-11 -4.5q-30 0 -57 3q-34 2 -50 2t-54 -2q-30 -3 -61 -3q-7 0 -13.5 4.5zM150.5 475q-9.5 8 -9.5 12q0 7 20.5 36t43.5 54.5t31 25.5q9 0 27.5 -3t44.5 -5q62 -4 70 -4q18 0 35 20q5 6 12 15.5t11 9.5q5 0 14 -8t9 -12t-8 -15.5t-13 -17.5l-21 -33l-22 -34
q-9 -14 -31 -14q-10 0 -74 4q-55 5 -79 5q-11 0 -19 -11q-11 -15 -18 -24t-10 -9q-4 0 -13.5 8z" />
    <glyph glyph-name="ograve" unicode="&#xf2;" horiz-adv-x="505" 
d="M128 13q-50 27 -78.5 75.5t-28.5 108.5q0 65 32 120t86.5 87.5t120.5 32.5q61 0 112.5 -29t81.5 -77.5t30 -104.5q0 -67 -28 -121.5t-83.5 -86.5t-134.5 -32q-60 0 -110 27zM310 62q22 37 22 140q0 83 -24 135.5t-63 52.5q-26 0 -43 -17t-23.5 -53.5t-6.5 -97.5
q0 -48 11 -91.5t30.5 -70.5t43.5 -27q35 0 53 29zM273 467q-45 45 -106 115l-25 28q-10 11 -10 25q0 12 17.5 18.5t43.5 6.5q20 0 30.5 -5.5t18.5 -21.5q10 -21 29.5 -66t33.5 -80q5 -12 5 -22q0 -13 -11 -13t-26 15z" />
    <glyph glyph-name="oacute" unicode="&#xf3;" horiz-adv-x="505" 
d="M128 13q-50 27 -78.5 75.5t-28.5 108.5q0 65 32 120t86.5 87.5t120.5 32.5q61 0 112.5 -29t81.5 -77.5t30 -104.5q0 -67 -28 -121.5t-83.5 -86.5t-134.5 -32q-60 0 -110 27zM310 62q22 37 22 140q0 83 -24 135.5t-63 52.5q-26 0 -43 -17t-23.5 -53.5t-6.5 -97.5
q0 -48 11 -91.5t30.5 -70.5t43.5 -27q35 0 53 29zM221 465q0 10 5 22q14 35 33.5 80t29.5 66q8 16 18.5 21.5t30.5 5.5q26 0 43.5 -6.5t17.5 -18.5q0 -14 -10 -25l-25 -28q-61 -70 -106 -115q-15 -15 -26 -15t-11 13z" />
    <glyph glyph-name="ocircumflex" unicode="&#xf4;" horiz-adv-x="505" 
d="M128 13q-50 27 -78.5 75.5t-28.5 108.5q0 65 32 120t86.5 87.5t120.5 32.5q61 0 112.5 -29t81.5 -77.5t30 -104.5q0 -67 -28 -121.5t-83.5 -86.5t-134.5 -32q-60 0 -110 27zM310 62q22 37 22 140q0 83 -24 135.5t-63 52.5q-26 0 -43 -17t-23.5 -53.5t-6.5 -97.5
q0 -48 11 -91.5t30.5 -70.5t43.5 -27q35 0 53 29zM277.5 667q7.5 -9 20.5 -32l30 -51q34 -56 49 -84q6 -12 6 -23q0 -10 -4.5 -16t-11.5 -6t-17 8t-26 26q-42 48 -58 64q-4 4 -6 4t-6 -4q-18 -18 -40 -44q-5 -5 -9.5 -10.5t-8.5 -9.5q-17 -19 -26 -26.5t-17 -7.5
q-18 0 -18 18q0 11 8 27q21 39 48 82l30 51q14 24 22 33.5t17 9.5q10 0 17.5 -9z" />
    <glyph glyph-name="otilde" unicode="&#xf5;" horiz-adv-x="505" 
d="M128 13q-50 27 -78.5 75.5t-28.5 108.5q0 65 32 120t86.5 87.5t120.5 32.5q61 0 112.5 -29t81.5 -77.5t30 -104.5q0 -67 -28 -121.5t-83.5 -86.5t-134.5 -32q-60 0 -110 27zM310 62q22 37 22 140q0 83 -24 135.5t-63 52.5q-26 0 -43 -17t-23.5 -53.5t-6.5 -97.5
q0 -48 11 -91.5t30.5 -70.5t43.5 -27q35 0 53 29zM111.5 475q-9.5 8 -9.5 12q0 7 20.5 36t43.5 54.5t31 25.5q9 0 27.5 -3t44.5 -5q62 -4 70 -4q18 0 35 20q5 6 12 15.5t11 9.5q5 0 14 -8t9 -12t-8 -15.5t-13 -17.5l-21 -33l-22 -34q-9 -14 -31 -14q-10 0 -74 4q-55 5 -79 5
q-11 0 -19 -11q-11 -15 -18 -24t-10 -9q-4 0 -13.5 8z" />
    <glyph glyph-name="odieresis" unicode="&#xf6;" horiz-adv-x="505" 
d="M128 13q-50 27 -78.5 75.5t-28.5 108.5q0 65 32 120t86.5 87.5t120.5 32.5q61 0 112.5 -29t81.5 -77.5t30 -104.5q0 -67 -28 -121.5t-83.5 -86.5t-134.5 -32q-60 0 -110 27zM310 62q22 37 22 140q0 83 -24 135.5t-63 52.5q-26 0 -43 -17t-23.5 -53.5t-6.5 -97.5
q0 -48 11 -91.5t30.5 -70.5t43.5 -27q35 0 53 29zM102.5 513.5q-22.5 22.5 -22.5 53.5q0 33 22 55t54 22q34 0 57 -22t23 -55q0 -31 -23.5 -53.5t-56.5 -22.5q-31 0 -53.5 22.5zM300.5 513.5q-22.5 22.5 -22.5 53.5q0 33 22 55t54 22q34 0 57 -22t23 -55q0 -31 -23.5 -53.5
t-56.5 -22.5q-31 0 -53.5 22.5z" />
    <glyph glyph-name="divide" unicode="&#xf7;" horiz-adv-x="602" 
d="M253 370.5q-22 21.5 -22 51.5q0 32 22 54t52 22q32 0 54 -22t22 -54q0 -30 -22 -51.5t-54 -21.5q-30 0 -52 21.5zM36 263.5q-6 4.5 -6 8.5q0 13 8.5 29t24.5 16h483q11 0 18.5 -4.5t7.5 -10.5q0 -14 -11 -28.5t-26 -14.5h-486q-7 0 -13 4.5zM254 85.5q-22 21.5 -22 51.5
q0 32 22 54t52 22q32 0 54 -22t22 -54q0 -30 -22 -51.5t-54 -21.5q-30 0 -52 21.5z" />
    <glyph glyph-name="oslash" unicode="&#xf8;" horiz-adv-x="504" 
d="M442 348q42 -57 42 -122q0 -67 -28 -121.5t-83.5 -86.5t-134.5 -32q-73 0 -129 39l-29 -28q-7 -6 -12.5 -9t-14.5 -3q-13 0 -22.5 6.5t-9.5 16.5q0 23 14 34l28 26q-42 57 -42 129q0 65 32 120t86.5 87.5t120.5 32.5q40 0 76.5 -13t65.5 -36l41 39q10 10 23 10
q18 0 18 -25q0 -8 -4 -19t-11 -18zM175 174l143 135q-11 39 -29.5 60t-43.5 21q-26 0 -43 -17t-23.5 -53.5t-6.5 -97.5q0 -24 3 -48zM331 240l-140 -135q12 -33 29 -52.5t37 -19.5q35 0 53 29q22 37 22 140z" />
    <glyph glyph-name="ugrave" unicode="&#xf9;" horiz-adv-x="556" 
d="M333 -11q0 15 3 33l2 30q0 10 -2 12q-25 -33 -68.5 -56t-87.5 -23q-30 0 -55.5 19.5t-40 52.5t-14.5 73v184q0 25 -8.5 38.5t-30.5 17.5q-7 1 -11.5 6t-4.5 13q0 7 4 12t11 6q40 2 75.5 8t80.5 17q17 5 24 5q14 0 13 -14q-8 -41 -8 -77v-191q0 -36 15.5 -57t40.5 -22
q34 0 56 22q6 6 10 21.5t4 38.5v156q0 25 -13 40.5t-38 16.5q-25 2 -25 23q0 11 7 16t18 5q83 5 116.5 8.5t61.5 10.5q12 3 14 3q15 0 15 -12q0 -3 -4 -17q-2 -12 -4.5 -34.5t-2.5 -35.5v-232q0 -36 18 -36l24 -1q10 0 15 -5t5 -14q0 -11 -4 -16.5t-14 -6.5q-74 -7 -161 -41
q-18 -7 -27 -7t-9 10zM303 467q-45 45 -106 115l-25 28q-10 11 -10 25q0 12 17.5 18.5t43.5 6.5q20 0 30.5 -5.5t18.5 -21.5q10 -21 29.5 -66t33.5 -80q5 -12 5 -22q0 -13 -11 -13t-26 15z" />
    <glyph glyph-name="uacute" unicode="&#xfa;" horiz-adv-x="556" 
d="M333 -11q0 15 3 33l2 30q0 10 -2 12q-25 -33 -68.5 -56t-87.5 -23q-30 0 -55.5 19.5t-40 52.5t-14.5 73v184q0 25 -8.5 38.5t-30.5 17.5q-7 1 -11.5 6t-4.5 13q0 7 4 12t11 6q40 2 75.5 8t80.5 17q17 5 24 5q14 0 13 -14q-8 -41 -8 -77v-191q0 -36 15.5 -57t40.5 -22
q34 0 56 22q6 6 10 21.5t4 38.5v156q0 25 -13 40.5t-38 16.5q-25 2 -25 23q0 11 7 16t18 5q83 5 116.5 8.5t61.5 10.5q12 3 14 3q15 0 15 -12q0 -3 -4 -17q-2 -12 -4.5 -34.5t-2.5 -35.5v-232q0 -36 18 -36l24 -1q10 0 15 -5t5 -14q0 -11 -4 -16.5t-14 -6.5q-74 -7 -161 -41
q-18 -7 -27 -7t-9 10zM251 465q0 10 5 22q14 35 33.5 80t29.5 66q8 16 18.5 21.5t30.5 5.5q26 0 43.5 -6.5t17.5 -18.5q0 -14 -10 -25l-25 -28q-61 -70 -106 -115q-15 -15 -26 -15t-11 13z" />
    <glyph glyph-name="ucircumflex" unicode="&#xfb;" horiz-adv-x="556" 
d="M333 -11q0 15 3 33l2 30q0 10 -2 12q-25 -33 -68.5 -56t-87.5 -23q-30 0 -55.5 19.5t-40 52.5t-14.5 73v184q0 25 -8.5 38.5t-30.5 17.5q-7 1 -11.5 6t-4.5 13q0 7 4 12t11 6q40 2 75.5 8t80.5 17q17 5 24 5q14 0 13 -14q-8 -41 -8 -77v-191q0 -36 15.5 -57t40.5 -22
q34 0 56 22q6 6 10 21.5t4 38.5v156q0 25 -13 40.5t-38 16.5q-25 2 -25 23q0 11 7 16t18 5q83 5 116.5 8.5t61.5 10.5q12 3 14 3q15 0 15 -12q0 -3 -4 -17q-2 -12 -4.5 -34.5t-2.5 -35.5v-232q0 -36 18 -36l24 -1q10 0 15 -5t5 -14q0 -11 -4 -16.5t-14 -6.5q-74 -7 -161 -41
q-18 -7 -27 -7t-9 10zM307.5 667q7.5 -9 20.5 -32l30 -51q34 -56 49 -84q6 -12 6 -23q0 -10 -4.5 -16t-11.5 -6t-17 8t-26 26q-42 48 -58 64q-4 4 -6 4t-6 -4q-18 -18 -40 -44q-5 -5 -9.5 -10.5t-8.5 -9.5q-17 -19 -26 -26.5t-17 -7.5q-18 0 -18 18q0 11 8 27q21 39 48 82
l30 51q14 24 22 33.5t17 9.5q10 0 17.5 -9z" />
    <glyph glyph-name="udieresis" unicode="&#xfc;" horiz-adv-x="556" 
d="M333 -11q0 15 3 33l2 30q0 10 -2 12q-25 -33 -68.5 -56t-87.5 -23q-30 0 -55.5 19.5t-40 52.5t-14.5 73v184q0 25 -8.5 38.5t-30.5 17.5q-7 1 -11.5 6t-4.5 13q0 7 4 12t11 6q40 2 75.5 8t80.5 17q17 5 24 5q14 0 13 -14q-8 -41 -8 -77v-191q0 -36 15.5 -57t40.5 -22
q34 0 56 22q6 6 10 21.5t4 38.5v156q0 25 -13 40.5t-38 16.5q-25 2 -25 23q0 11 7 16t18 5q83 5 116.5 8.5t61.5 10.5q12 3 14 3q15 0 15 -12q0 -3 -4 -17q-2 -12 -4.5 -34.5t-2.5 -35.5v-232q0 -36 18 -36l24 -1q10 0 15 -5t5 -14q0 -11 -4 -16.5t-14 -6.5q-74 -7 -161 -41
q-18 -7 -27 -7t-9 10zM132.5 513.5q-22.5 22.5 -22.5 53.5q0 33 22 55t54 22q34 0 57 -22t23 -55q0 -31 -23.5 -53.5t-56.5 -22.5q-31 0 -53.5 22.5zM330.5 513.5q-22.5 22.5 -22.5 53.5q0 33 22 55t54 22q34 0 57 -22t23 -55q0 -31 -23.5 -53.5t-56.5 -22.5
q-31 0 -53.5 22.5z" />
    <glyph glyph-name="yacute" unicode="&#xfd;" horiz-adv-x="491" 
d="M36 -262.5q-25 20.5 -25 47.5q0 23 10.5 41t31.5 18q11 0 33 -6q5 -1 14.5 -3t16.5 -2q19 0 26.5 6t17.5 26q3 6 13 22t29 58q14 31 14 54q0 14 -4 25.5t-12 30.5l-124 277q-12 27 -23 41t-28 20q-10 4 -14 8.5t-4 13.5q0 12 25 12q31 0 67 -2q26 -2 35 -2q20 0 54 2
q36 2 62 2q9 0 16.5 -3.5t7.5 -10.5t-4 -10t-9.5 -5.5t-8.5 -3.5q-12 -5 -18 -13.5t-6 -25.5q0 -21 12 -50l58 -141q1 -2 2 -2t2 2l48 147q7 19 7 40q0 16 -10 27.5t-23 15.5q-12 4 -17 7.5t-5 11.5q0 7 7.5 10.5t16.5 3.5l49 -3l24 -1q5 0 31 2l40 2q25 0 25 -12
q0 -9 -4 -13.5t-14 -8.5q-38 -14 -58 -61l-152 -366q-10 -25 -55 -130l-24 -56q-13 -31 -39 -47t-60 -16q-29 0 -54 20.5zM248 465q0 10 5 22q14 35 33.5 80t29.5 66q8 16 18.5 21.5t30.5 5.5q26 0 43.5 -6.5t17.5 -18.5q0 -14 -10 -25l-25 -28q-61 -70 -106 -115
q-15 -15 -26 -15t-11 13z" />
    <glyph glyph-name="thorn" unicode="&#xfe;" horiz-adv-x="558" 
d="M21 -253q-6 4 -6 11q0 14 23 21q22 7 29.5 14.5t7.5 23.5v729q0 31 -7.5 49t-30.5 23q-11 2 -11 16q0 13 10 15q42 8 142 45l21 8q9 3 14 3q11 0 11 -13l-2 -23l-3 -31l1 -224q0 -32 1 -48q27 22 68.5 42t78.5 20q51 0 90 -28t59.5 -73.5t20.5 -95.5q0 -62 -31.5 -120
t-85 -94t-116.5 -36q-16 0 -40 5.5t-42 13.5q-4 0 -4 -11v-161q0 -21 11.5 -31t40.5 -19q22 -6 22 -20q0 -6 -4.5 -10.5t-11.5 -4.5q-34 0 -68 3q-42 2 -59 2q-16 0 -54 -2q-30 -3 -61 -3q-8 0 -14 4zM334 47.5q20 16.5 35 53t15 93.5q0 94 -28.5 127t-61.5 33
q-32 0 -57 -27q-17 -17 -17 -66v-139q0 -16 4 -36.5t12 -31.5q8 -10 24.5 -16.5t37.5 -6.5q16 0 36 16.5z" />
    <glyph glyph-name="ydieresis" unicode="&#xff;" horiz-adv-x="491" 
d="M36 -262.5q-25 20.5 -25 47.5q0 23 10.5 41t31.5 18q11 0 33 -6q5 -1 14.5 -3t16.5 -2q19 0 26.5 6t17.5 26q3 6 13 22t29 58q14 31 14 54q0 14 -4 25.5t-12 30.5l-124 277q-12 27 -23 41t-28 20q-10 4 -14 8.5t-4 13.5q0 12 25 12q31 0 67 -2q26 -2 35 -2q20 0 54 2
q36 2 62 2q9 0 16.5 -3.5t7.5 -10.5t-4 -10t-9.5 -5.5t-8.5 -3.5q-12 -5 -18 -13.5t-6 -25.5q0 -21 12 -50l58 -141q1 -2 2 -2t2 2l48 147q7 19 7 40q0 16 -10 27.5t-23 15.5q-12 4 -17 7.5t-5 11.5q0 7 7.5 10.5t16.5 3.5l49 -3l24 -1q5 0 31 2l40 2q25 0 25 -12
q0 -9 -4 -13.5t-14 -8.5q-38 -14 -58 -61l-152 -366q-10 -25 -55 -130l-24 -56q-13 -31 -39 -47t-60 -16q-29 0 -54 20.5zM129.5 513.5q-22.5 22.5 -22.5 53.5q0 33 22 55t54 22q34 0 57 -22t23 -55q0 -31 -23.5 -53.5t-56.5 -22.5q-31 0 -53.5 22.5zM327.5 513.5
q-22.5 22.5 -22.5 53.5q0 33 22 55t54 22q34 0 57 -22t23 -55q0 -31 -23.5 -53.5t-56.5 -22.5q-31 0 -53.5 22.5z" />
    <glyph glyph-name="Amacron" unicode="&#x100;" horiz-adv-x="726" 
d="M-5 12q0 9 5.5 13.5t16.5 8.5q30 8 51.5 25t31.5 39q95 221 171 434q12 33 19 59.5t9 26.5q43 10 75 21q17 6 32 16t23 19q8 4 10 4q5 0 8 -7q7 -15 11 -28q62 -202 137 -430l37 -115q14 -46 80 -64q11 -4 16.5 -8t5.5 -13q0 -7 -5.5 -11t-13.5 -4q-20 0 -80 2
q-62 2 -86 2q-20 0 -76 -2q-46 -3 -84 -3q-9 0 -15 4t-6 11q0 17 22 22q35 7 51.5 17.5t16.5 29.5q0 10 -2 16l-31 116q-2 9 -5.5 13t-10.5 4h-174q-8 0 -11 -4t-6 -13l-14 -43q-3 -11 -9 -29t-10 -32q-4 -13 -4 -26q0 -19 14.5 -29.5t51.5 -19.5q22 -5 22 -22
q0 -14 -21 -14q-23 0 -59 2l-54 1q-28 0 -55 -3q-9 -1 -27 -2t-32 -1q-26 0 -26 17zM388 288q15 0 15 7q0 1 -2 11l-64 221q-3 10 -6 10q-2 0 -6 -10l-77 -221q-2 -4 -2 -8q0 -5 5 -7.5t12 -2.5h125zM221 721.5q-6 5.5 -6 13.5q0 29 12.5 48t27.5 19h270q9 0 14.5 -5.5
t5.5 -13.5q0 -26 -13 -46.5t-30 -20.5h-266q-9 0 -15 5.5z" />
    <glyph glyph-name="amacron" unicode="&#x101;" horiz-adv-x="447" 
d="M57.5 13.5q-30.5 27.5 -30.5 66.5q0 34 21.5 58t66.5 44l86 38q20 9 25 16t5 27l1 55q2 60 -40 60q-12 0 -25 -5.5t-19 -12.5q-5 -6 -5 -19q0 -7 1 -15.5t1 -15.5q0 -10 -35 -25.5t-59 -15.5q-8 0 -13.5 6.5t-5.5 16.5q0 16 11 31t37 36q40 32 90.5 54.5t84.5 22.5
q57 0 90.5 -36.5t32.5 -97.5l-5 -194q-1 -23 7.5 -39.5t21.5 -16.5q18 0 32 13q3 3 6 3q5 0 8.5 -3.5t3.5 -8.5q0 -12 -20 -32q-38 -38 -87 -38q-31 0 -54 14t-43 44h-2q-33 -32 -59 -45t-55 -13q-44 0 -74.5 27.5zM220 68q6 8 6 23l3 77q0 14 -10 14q-4 0 -10 -3
q-28 -15 -38.5 -29t-10.5 -46q0 -26 10 -37.5t24 -11.5q16 0 26 13zM69 515.5q-6 5.5 -6 13.5q0 29 12.5 48t27.5 19h270q9 0 14.5 -5.5t5.5 -13.5q0 -26 -13 -46.5t-30 -20.5h-266q-9 0 -15 5.5z" />
    <glyph glyph-name="Abreve" unicode="&#x102;" horiz-adv-x="726" 
d="M-5 12q0 9 5.5 13.5t16.5 8.5q30 8 51.5 25t31.5 39q95 221 171 434q12 33 19 59.5t9 26.5q43 10 75 21q17 6 32 16t23 19q8 4 10 4q5 0 8 -7q7 -15 11 -28q62 -202 137 -430l37 -115q14 -46 80 -64q11 -4 16.5 -8t5.5 -13q0 -7 -5.5 -11t-13.5 -4q-20 0 -80 2
q-62 2 -86 2q-20 0 -76 -2q-46 -3 -84 -3q-9 0 -15 4t-6 11q0 17 22 22q35 7 51.5 17.5t16.5 29.5q0 10 -2 16l-31 116q-2 9 -5.5 13t-10.5 4h-174q-8 0 -11 -4t-6 -13l-14 -43q-3 -11 -9 -29t-10 -32q-4 -13 -4 -26q0 -19 14.5 -29.5t51.5 -19.5q22 -5 22 -22
q0 -14 -21 -14q-23 0 -59 2l-54 1q-28 0 -55 -3q-9 -1 -27 -2t-32 -1q-26 0 -26 17zM388 288q15 0 15 7q0 1 -2 11l-64 221q-3 10 -6 10q-2 0 -6 -10l-77 -221q-2 -4 -2 -8q0 -5 5 -7.5t12 -2.5h125zM299 706q-33 21 -49.5 50.5t-16.5 56.5q0 15 2.5 21t11.5 6q7 0 12 -3.5
t10 -9.5t8 -9q24 -26 46 -36t57 -10t57 10t46 36q3 3 9 9.5t10.5 9.5t10.5 3q9 0 11.5 -6t2.5 -21q0 -27 -16.5 -56.5t-49.5 -50.5t-81 -21t-81 21z" />
    <glyph glyph-name="abreve" unicode="&#x103;" horiz-adv-x="447" 
d="M57.5 13.5q-30.5 27.5 -30.5 66.5q0 34 21.5 58t66.5 44l86 38q20 9 25 16t5 27l1 55q2 60 -40 60q-12 0 -25 -5.5t-19 -12.5q-5 -6 -5 -19q0 -7 1 -15.5t1 -15.5q0 -10 -35 -25.5t-59 -15.5q-8 0 -13.5 6.5t-5.5 16.5q0 16 11 31t37 36q40 32 90.5 54.5t84.5 22.5
q57 0 90.5 -36.5t32.5 -97.5l-5 -194q-1 -23 7.5 -39.5t21.5 -16.5q18 0 32 13q3 3 6 3q5 0 8.5 -3.5t3.5 -8.5q0 -12 -20 -32q-38 -38 -87 -38q-31 0 -54 14t-43 44h-2q-33 -32 -59 -45t-55 -13q-44 0 -74.5 27.5zM220 68q6 8 6 23l3 77q0 14 -10 14q-4 0 -10 -3
q-28 -15 -38.5 -29t-10.5 -46q0 -26 10 -37.5t24 -11.5q16 0 26 13zM151.5 487.5q-29.5 21.5 -41.5 50t-12 52.5q0 17 7.5 26.5t17.5 9.5q17 0 22 -21q7 -28 26.5 -40t56.5 -12t56.5 12t26.5 40q5 21 22 21q10 0 17.5 -9.5t7.5 -26.5q0 -24 -12 -52.5t-41.5 -50t-76.5 -21.5
t-76.5 21.5z" />
    <glyph glyph-name="Aogonek" unicode="&#x104;" horiz-adv-x="726" 
d="M-5 12q0 9 5.5 13.5t16.5 8.5q30 8 51.5 25t31.5 39q95 221 171 434q12 33 19 59.5t9 26.5q43 10 75 21q17 6 32 16t23 19q8 4 10 4q5 0 8 -7q7 -15 11 -28q62 -202 137 -430l37 -115q14 -46 80 -64q11 -4 16.5 -8t5.5 -13q0 -7 -5.5 -11t-13.5 -4q-20 0 -80 2
q-62 2 -86 2q-20 0 -76 -2q-46 -3 -84 -3q-9 0 -15 4t-6 11q0 17 22 22q35 7 51.5 17.5t16.5 29.5q0 10 -2 16l-31 116q-2 9 -5.5 13t-10.5 4h-174q-8 0 -11 -4t-6 -13l-14 -43q-3 -11 -9 -29t-10 -32q-4 -13 -4 -26q0 -19 14.5 -29.5t51.5 -19.5q22 -5 22 -22
q0 -14 -21 -14q-23 0 -59 2l-54 1q-28 0 -55 -3q-9 -1 -27 -2t-32 -1q-26 0 -26 17zM388 288q15 0 15 7q0 1 -2 11l-64 221q-3 10 -6 10q-2 0 -6 -10l-77 -221q-2 -4 -2 -8q0 -5 5 -7.5t12 -2.5h125zM484 -257.5q-32 29.5 -32 83.5q0 57 47 103t123 89h44q-48 -44 -73 -81.5
t-25 -81.5q0 -24 15 -38.5t39 -14.5q19 0 33.5 7t28.5 21q5 5 13 5q14 0 14 -19q0 -25 -19.5 -49t-51.5 -39t-68 -15q-56 0 -88 29.5z" />
    <glyph glyph-name="aogonek" unicode="&#x105;" horiz-adv-x="447" 
d="M57.5 13.5q-30.5 27.5 -30.5 66.5q0 34 21.5 58t66.5 44l86 38q20 9 25 16t5 27l1 55q2 60 -40 60q-12 0 -25 -5.5t-19 -12.5q-5 -6 -5 -19q0 -7 1 -15.5t1 -15.5q0 -10 -35 -25.5t-59 -15.5q-8 0 -13.5 6.5t-5.5 16.5q0 16 11 31t37 36q40 32 90.5 54.5t84.5 22.5
q57 0 90.5 -36.5t32.5 -97.5l-5 -194q-1 -23 7.5 -39.5t21.5 -16.5q18 0 32 13q3 3 6 3q5 0 8.5 -3.5t3.5 -8.5q0 -12 -20 -32q-38 -38 -87 -38q-31 0 -54 14t-43 44h-2q-33 -32 -59 -45t-55 -13q-44 0 -74.5 27.5zM220 68q6 8 6 23l3 77q0 14 -10 14q-4 0 -10 -3
q-28 -15 -38.5 -29t-10.5 -46q0 -26 10 -37.5t24 -11.5q16 0 26 13zM260.5 -257q-27.5 30 -27.5 78q0 55 39 107.5t102 89.5h45q-44 -40 -65 -78.5t-21 -84.5q0 -53 51 -53q14 0 26 6t26 20q6 6 13 6q12 0 12 -18q0 -25 -16 -49t-44 -39t-64 -15q-49 0 -76.5 30z" />
    <glyph glyph-name="Cacute" unicode="&#x106;" horiz-adv-x="709" 
d="M212.5 27.5q-86.5 41.5 -137 116.5t-50.5 171q0 92 49 172t141.5 128.5t217.5 48.5q44 0 95.5 -10.5t88.5 -25.5q20 -9 22 -27q8 -55 8 -121q0 -9 -5 -13.5t-12 -4.5t-13.5 4.5t-9.5 13.5q-10 29 -18 47t-23 33q-47 49 -142 49q-65 0 -114 -36.5t-75.5 -97.5t-26.5 -131
q0 -139 55 -220t161 -81q74 0 120 30.5t77 98.5q7 17 22 17q7 0 11.5 -4.5t4.5 -12.5q0 -46 -21 -118q-5 -20 -26 -30q-84 -38 -208 -38q-105 0 -191.5 41.5zM341 691q0 7 12 22q60 75 112 127q14 14 35 11q17 -2 47 -16t27 -25t-20 -22q-48 -29 -96 -55l-77 -44
q-8 -5 -16 -7t-11 -1q-13 3 -13 10z" />
    <glyph glyph-name="cacute" unicode="&#x107;" horiz-adv-x="412" 
d="M114.5 15q-43.5 29 -68.5 79t-25 111q0 63 30 116t82 84t114 31q41 0 78 -15t63 -43q8 -10 8 -18q0 -9 -19 -28.5t-30 -19.5q-9 0 -16.5 4.5t-19.5 14.5q-27 23 -53.5 36.5t-46.5 13.5q-36 0 -52.5 -29.5t-16.5 -98.5q0 -74 32 -115t93 -41q28 0 50.5 9t48.5 29
q2 2 7.5 6t10.5 4q12 0 12 -16q0 -13 -6 -27q-9 -23 -35.5 -50t-64.5 -46.5t-79 -19.5q-53 0 -96.5 29zM191 465q0 10 5 22q14 35 33.5 80t29.5 66q8 16 18.5 21.5t30.5 5.5q26 0 43.5 -6.5t17.5 -18.5q0 -14 -10 -25l-25 -28q-61 -70 -106 -115q-15 -15 -26 -15t-11 13z
" />
    <glyph glyph-name="Ccircumflex" unicode="&#x108;" horiz-adv-x="709" 
d="M212.5 27.5q-86.5 41.5 -137 116.5t-50.5 171q0 92 49 172t141.5 128.5t217.5 48.5q44 0 95.5 -10.5t88.5 -25.5q20 -9 22 -27q8 -55 8 -121q0 -9 -5 -13.5t-12 -4.5t-13.5 4.5t-9.5 13.5q-10 29 -18 47t-23 33q-47 49 -142 49q-65 0 -114 -36.5t-75.5 -97.5t-26.5 -131
q0 -139 55 -220t161 -81q74 0 120 30.5t77 98.5q7 17 22 17q7 0 11.5 -4.5t4.5 -12.5q0 -46 -21 -118q-5 -20 -26 -30q-84 -38 -208 -38q-105 0 -191.5 41.5zM243.5 695.5q-5.5 3.5 -5.5 9.5q0 9 9 16l106 96q20 18 29.5 24t22.5 6q14 0 23.5 -6t29.5 -24l105 -95
q8 -7 8 -17q0 -6 -4.5 -10t-12.5 -4q-14 0 -62.5 17.5t-73.5 31.5q-5 4 -13 4t-13 -4q-23 -13 -72.5 -30.5t-61.5 -17.5q-9 0 -14.5 3.5z" />
    <glyph glyph-name="ccircumflex" unicode="&#x109;" horiz-adv-x="412" 
d="M114.5 15q-43.5 29 -68.5 79t-25 111q0 63 30 116t82 84t114 31q41 0 78 -15t63 -43q8 -10 8 -18q0 -9 -19 -28.5t-30 -19.5q-9 0 -16.5 4.5t-19.5 14.5q-27 23 -53.5 36.5t-46.5 13.5q-36 0 -52.5 -29.5t-16.5 -98.5q0 -74 32 -115t93 -41q28 0 50.5 9t48.5 29
q2 2 7.5 6t10.5 4q12 0 12 -16q0 -13 -6 -27q-9 -23 -35.5 -50t-64.5 -46.5t-79 -19.5q-53 0 -96.5 29zM247.5 667q7.5 -9 20.5 -32l30 -51q34 -56 49 -84q6 -12 6 -23q0 -10 -4.5 -16t-11.5 -6t-17 8t-26 26q-42 48 -58 64q-4 4 -6 4t-6 -4q-18 -18 -40 -44
q-5 -5 -9.5 -10.5t-8.5 -9.5q-17 -19 -26 -26.5t-17 -7.5q-18 0 -18 18q0 11 8 27q21 39 48 82l30 51q14 24 22 33.5t17 9.5q10 0 17.5 -9z" />
    <glyph glyph-name="Cdotaccent" unicode="&#x10a;" horiz-adv-x="709" 
d="M212.5 27.5q-86.5 41.5 -137 116.5t-50.5 171q0 92 49 172t141.5 128.5t217.5 48.5q44 0 95.5 -10.5t88.5 -25.5q20 -9 22 -27q8 -55 8 -121q0 -9 -5 -13.5t-12 -4.5t-13.5 4.5t-9.5 13.5q-10 29 -18 47t-23 33q-47 49 -142 49q-65 0 -114 -36.5t-75.5 -97.5t-26.5 -131
q0 -139 55 -220t161 -81q74 0 120 30.5t77 98.5q7 17 22 17q7 0 11.5 -4.5t4.5 -12.5q0 -46 -21 -118q-5 -20 -26 -30q-84 -38 -208 -38q-105 0 -191.5 41.5zM342 715.5q-26 23.5 -26 56.5q0 34 26 58t63 24q39 0 66 -24t27 -58q0 -33 -27 -56.5t-66 -23.5q-37 0 -63 23.5z
" />
    <glyph glyph-name="cdotaccent" unicode="&#x10b;" horiz-adv-x="412" 
d="M114.5 15q-43.5 29 -68.5 79t-25 111q0 63 30 116t82 84t114 31q41 0 78 -15t63 -43q8 -10 8 -18q0 -9 -19 -28.5t-30 -19.5q-9 0 -16.5 4.5t-19.5 14.5q-27 23 -53.5 36.5t-46.5 13.5q-36 0 -52.5 -29.5t-16.5 -98.5q0 -74 32 -115t93 -41q28 0 50.5 9t48.5 29
q2 2 7.5 6t10.5 4q12 0 12 -16q0 -13 -6 -27q-9 -23 -35.5 -50t-64.5 -46.5t-79 -19.5q-53 0 -96.5 29zM170 513q-25 25 -25 59q0 37 24.5 62t59.5 25q37 0 62 -25t25 -62q0 -35 -25 -59.5t-62 -24.5q-34 0 -59 25z" />
    <glyph glyph-name="Ccaron" unicode="&#x10c;" horiz-adv-x="709" 
d="M212.5 27.5q-86.5 41.5 -137 116.5t-50.5 171q0 92 49 172t141.5 128.5t217.5 48.5q44 0 95.5 -10.5t88.5 -25.5q20 -9 22 -27q8 -55 8 -121q0 -9 -5 -13.5t-12 -4.5t-13.5 4.5t-9.5 13.5q-10 29 -18 47t-23 33q-47 49 -142 49q-65 0 -114 -36.5t-75.5 -97.5t-26.5 -131
q0 -139 55 -220t161 -81q74 0 120 30.5t77 98.5q7 17 22 17q7 0 11.5 -4.5t4.5 -12.5q0 -46 -21 -118q-5 -20 -26 -30q-84 -38 -208 -38q-105 0 -191.5 41.5zM319.5 835.5q49.5 -17.5 72.5 -30.5q8 -4 13 -4t13 4q25 14 73.5 31.5t62.5 17.5q8 0 12.5 -4t4.5 -10
q0 -10 -8 -17l-105 -95q-20 -18 -29.5 -24t-23.5 -6q-13 0 -22.5 6t-29.5 24l-106 96q-9 8 -9 16q0 6 5.5 9.5t14.5 3.5q12 0 61.5 -17.5z" />
    <glyph glyph-name="ccaron" unicode="&#x10d;" horiz-adv-x="412" 
d="M114.5 15q-43.5 29 -68.5 79t-25 111q0 63 30 116t82 84t114 31q41 0 78 -15t63 -43q8 -10 8 -18q0 -9 -19 -28.5t-30 -19.5q-9 0 -16.5 4.5t-19.5 14.5q-27 23 -53.5 36.5t-46.5 13.5q-36 0 -52.5 -29.5t-16.5 -98.5q0 -74 32 -115t93 -41q28 0 50.5 9t48.5 29
q2 2 7.5 6t10.5 4q12 0 12 -16q0 -13 -6 -27q-9 -23 -35.5 -50t-64.5 -46.5t-79 -19.5q-53 0 -96.5 29zM213 464.5q-8 9.5 -22 33.5l-30 51q-27 43 -48 82q-8 16 -8 27q0 18 18 18q8 0 17 -7.5t26 -26.5q4 -4 8.5 -9.5t9.5 -10.5q22 -26 40 -44q4 -4 6 -4t6 4q16 16 58 64
q16 18 26 26t17 8t11.5 -6t4.5 -16q0 -11 -6 -23q-15 -28 -49 -84l-30 -51q-13 -23 -20.5 -32t-17.5 -9q-9 0 -17 9.5z" />
    <glyph glyph-name="Dcaron" unicode="&#x10e;" horiz-adv-x="769" 
d="M235 -2l-52 2l-72 -1q-54 -2 -78 -2q-6 0 -12 4.5t-6 10.5q0 17 19 22q39 8 52.5 20.5t13.5 42.5v454q0 32 -13 45t-53 22q-19 5 -19 22q0 6 6 10.5t12 4.5q37 0 78 -3q54 -2 72 -2q16 0 90 4q110 5 121 5q93 0 173.5 -41t128.5 -115t48 -168q0 -90 -42 -168.5
t-123.5 -126t-193.5 -47.5q-45 0 -150 5zM513 116.5q48 68.5 48 189.5q0 136 -51 215.5t-151 79.5q-51 0 -70 -5.5t-19 -27.5v-434q0 -46 23.5 -66t75.5 -20q96 0 144 68.5zM295.5 835.5q49.5 -17.5 72.5 -30.5q8 -4 13 -4t13 4q25 14 73.5 31.5t62.5 17.5q8 0 12.5 -4
t4.5 -10q0 -10 -8 -17l-105 -95q-20 -18 -29.5 -24t-23.5 -6q-13 0 -22.5 6t-29.5 24l-106 96q-9 8 -9 16q0 6 5.5 9.5t14.5 3.5q12 0 61.5 -17.5z" />
    <glyph glyph-name="dcaron" unicode="&#x10f;" horiz-adv-x="591" 
d="M544 62q5 0 7 -2t2 -9q0 -8 -6.5 -17.5t-11.5 -9.5q-86 -10 -159 -37q-12 -6 -18 -6q-3 0 -9 7t-6 11q4 22 6 52v6q-22 -33 -58 -52t-75 -19q-54 0 -99 27.5t-70.5 75.5t-25.5 107q0 69 31 123t86 84t126 30q29 0 59 -8l13 -3q4 0 4 11v113q0 36 -8 52t-29 20
q-12 3 -12 16t11 15q36 7 78.5 20.5t70.5 25.5q22 10 26 10q5 0 8.5 -3.5t3.5 -8.5q-1 -4 -2.5 -20.5t-2.5 -34.5l-6 -516q0 -35 5 -49t18 -14l39 3h4zM489 692v1v-1zM307 65q21 7 33 19l-1 231q0 14 -13 30.5t-32.5 27.5t-35.5 11q-36 0 -59.5 -45t-23.5 -115
q0 -73 27 -119.5t69 -46.5q15 0 36 7zM553.5 475q-3.5 8 -3.5 18l2 25q1 11 2 25t1 27q0 22 -5 62q-3 15 -3 27q0 19 28.5 39t55.5 20q15 0 19 -9t4 -28q0 -33 -18 -90t-39 -92q-19 -32 -34 -32q-6 0 -9.5 8z" />
    <glyph glyph-name="Dcroat" unicode="&#x110;" horiz-adv-x="769" 
d="M567.5 618q80.5 -41 128.5 -115t48 -168q0 -90 -42 -168.5t-123.5 -126t-193.5 -47.5q-45 0 -150 5l-52 2l-72 -1q-54 -2 -78 -2q-6 0 -12 4.5t-6 10.5q0 17 19 22q39 8 52.5 20.5t13.5 42.5v207h-43q-12 0 -18 9.5t-6 21.5q0 14 8 22.5t21 8.5h38v185q0 32 -13 45
t-53 22q-19 5 -19 22q0 6 6 10.5t12 4.5q37 0 78 -3q54 -2 72 -2q16 0 90 4q110 5 121 5q93 0 173.5 -41zM513 116.5q48 68.5 48 189.5q0 136 -51 215.5t-151 79.5q-51 0 -70 -5.5t-19 -27.5v-202h92q10 0 16.5 -5.5t6.5 -13.5l-1 -5q-3 -15 -14.5 -26.5t-27.5 -11.5h-72
v-170q0 -46 23.5 -66t75.5 -20q96 0 144 68.5z" />
    <glyph glyph-name="dcroat" unicode="&#x111;" horiz-adv-x="563" 
d="M539 62q6 0 10 -5t4 -13q0 -9 -5 -14.5t-10 -5.5q-44 -5 -87.5 -15.5t-74.5 -21.5q-5 -2 -13.5 -4t-15.5 -2q-4 0 -4 2q0 10 3 30l3 38v6q-19 -28 -53.5 -49.5t-79.5 -21.5q-61 0 -105 29.5t-67 76t-23 97.5q0 64 29.5 116.5t85 82.5t128.5 30q16 0 33 -4.5t29 -9.5
q3 -1 5.5 -3t4.5 -2q4 0 4 11v64h-131q-12 0 -18 9.5t-6 21.5q0 14 8 22.5t21 8.5h126v10q0 32 -7 49.5t-30 22.5q-12 3 -12 16t11 15q37 8 79.5 21t69.5 25q23 10 26 10q12 0 12 -13l-2 -23l-3 -31l-1 -102h47q10 0 16.5 -5.5t6.5 -13.5l-1 -5q-3 -15 -14.5 -26.5
t-27.5 -11.5h-28l-4 -352q0 -34 5 -48.5t18 -14.5q3 0 36 3h2zM340 284q0 33 -24 59t-58 26q-20 0 -39 -16t-31.5 -50t-12.5 -87q0 -63 16.5 -99t38.5 -49t41 -13q28 0 48.5 22.5t20.5 57.5v149z" />
    <glyph glyph-name="Emacron" unicode="&#x112;" horiz-adv-x="577" 
d="M21 0q-5 5 -5 11t5.5 12t14.5 9q35 10 47.5 22t12.5 41v456q0 32 -12 45.5t-48 21.5q-21 5 -21 21q0 7 5.5 11.5t14.5 4.5q36 0 75 -3q50 -2 69 -2q134 0 233 3q31 0 52.5 4t24.5 4q9 0 17 -5t9 -16q3 -33 9 -61q8 -56 8 -74q0 -9 -3.5 -14.5t-9.5 -5.5t-11.5 4.5
t-9.5 12.5q-15 37 -22 51t-17 24q-14 14 -31 23t-42 9h-63q-25 0 -41 -12.5t-16 -33.5v-184q0 -24 26 -24h85q23 0 34.5 15t23.5 47q8 18 21 18q5 0 9 -6.5t3 -16.5q-5 -48 -5 -83q0 -43 4 -83v-8q0 -20 -10 -20q-7 0 -14 7t-10 17q-9 34 -21 50t-30 16h-94q-22 0 -22 -23
v-189q0 -27 11.5 -39t37.5 -12h89q46 0 73 23q29 24 57 80q6 12 19 12q10 0 10 -20q0 -18 -5 -39t-16 -55l-11 -38q-4 -12 -24 -12l-39 1q-195 3 -289 3q-34 0 -73 -3q-52 -2 -71 -2q-9 0 -14 5zM140 721.5q-6 5.5 -6 13.5q0 29 12.5 48t27.5 19h270q9 0 14.5 -5.5
t5.5 -13.5q0 -26 -13 -46.5t-30 -20.5h-266q-9 0 -15 5.5z" />
    <glyph glyph-name="emacron" unicode="&#x113;" horiz-adv-x="423" 
d="M114.5 15q-43.5 29 -68.5 79t-25 111q0 63 30 116t81.5 84t112.5 31q42 0 77.5 -19t56.5 -51t21 -71q0 -20 -7.5 -29.5t-23.5 -9.5h-198q-14 0 -20.5 -8t-6.5 -27q0 -55 35 -92t90 -37q27 0 51 10.5t52 30.5q9 7 14 7q11 0 11 -13q0 -9 -6 -27q-15 -45 -63.5 -79.5
t-116.5 -34.5q-53 0 -96.5 29zM224 300q24 0 35.5 1t20.5 4q4 1 7.5 10t3.5 20q0 26 -16.5 42.5t-42.5 16.5q-30 0 -54 -25t-22 -54q0 -7 4 -11t11 -4h53zM80 515.5q-6 5.5 -6 13.5q0 29 12.5 48t27.5 19h270q9 0 14.5 -5.5t5.5 -13.5q0 -26 -13 -46.5t-30 -20.5h-266
q-9 0 -15 5.5z" />
    <glyph glyph-name="Ebreve" unicode="&#x114;" horiz-adv-x="577" 
d="M21 0q-5 5 -5 11t5.5 12t14.5 9q35 10 47.5 22t12.5 41v456q0 32 -12 45.5t-48 21.5q-21 5 -21 21q0 7 5.5 11.5t14.5 4.5q36 0 75 -3q50 -2 69 -2q134 0 233 3q31 0 52.5 4t24.5 4q9 0 17 -5t9 -16q3 -33 9 -61q8 -56 8 -74q0 -9 -3.5 -14.5t-9.5 -5.5t-11.5 4.5
t-9.5 12.5q-15 37 -22 51t-17 24q-14 14 -31 23t-42 9h-63q-25 0 -41 -12.5t-16 -33.5v-184q0 -24 26 -24h85q23 0 34.5 15t23.5 47q8 18 21 18q5 0 9 -6.5t3 -16.5q-5 -48 -5 -83q0 -43 4 -83v-8q0 -20 -10 -20q-7 0 -14 7t-10 17q-9 34 -21 50t-30 16h-94q-22 0 -22 -23
v-189q0 -27 11.5 -39t37.5 -12h89q46 0 73 23q29 24 57 80q6 12 19 12q10 0 10 -20q0 -18 -5 -39t-16 -55l-11 -38q-4 -12 -24 -12l-39 1q-195 3 -289 3q-34 0 -73 -3q-52 -2 -71 -2q-9 0 -14 5zM218 706q-33 21 -49.5 50.5t-16.5 56.5q0 15 2.5 21t11.5 6q7 0 12 -3.5
t10 -9.5t8 -9q24 -26 46 -36t57 -10t57 10t46 36q3 3 9 9.5t10.5 9.5t10.5 3q9 0 11.5 -6t2.5 -21q0 -27 -16.5 -56.5t-49.5 -50.5t-81 -21t-81 21z" />
    <glyph glyph-name="ebreve" unicode="&#x115;" horiz-adv-x="423" 
d="M114.5 15q-43.5 29 -68.5 79t-25 111q0 63 30 116t81.5 84t112.5 31q42 0 77.5 -19t56.5 -51t21 -71q0 -20 -7.5 -29.5t-23.5 -9.5h-198q-14 0 -20.5 -8t-6.5 -27q0 -55 35 -92t90 -37q27 0 51 10.5t52 30.5q9 7 14 7q11 0 11 -13q0 -9 -6 -27q-15 -45 -63.5 -79.5
t-116.5 -34.5q-53 0 -96.5 29zM224 300q24 0 35.5 1t20.5 4q4 1 7.5 10t3.5 20q0 26 -16.5 42.5t-42.5 16.5q-30 0 -54 -25t-22 -54q0 -7 4 -11t11 -4h53zM162.5 487.5q-29.5 21.5 -41.5 50t-12 52.5q0 17 7.5 26.5t17.5 9.5q17 0 22 -21q7 -28 26.5 -40t56.5 -12t56.5 12
t26.5 40q5 21 22 21q10 0 17.5 -9.5t7.5 -26.5q0 -24 -12 -52.5t-41.5 -50t-76.5 -21.5t-76.5 21.5z" />
    <glyph glyph-name="Edotaccent" unicode="&#x116;" horiz-adv-x="577" 
d="M21 0q-5 5 -5 11t5.5 12t14.5 9q35 10 47.5 22t12.5 41v456q0 32 -12 45.5t-48 21.5q-21 5 -21 21q0 7 5.5 11.5t14.5 4.5q36 0 75 -3q50 -2 69 -2q134 0 233 3q31 0 52.5 4t24.5 4q9 0 17 -5t9 -16q3 -33 9 -61q8 -56 8 -74q0 -9 -3.5 -14.5t-9.5 -5.5t-11.5 4.5
t-9.5 12.5q-15 37 -22 51t-17 24q-14 14 -31 23t-42 9h-63q-25 0 -41 -12.5t-16 -33.5v-184q0 -24 26 -24h85q23 0 34.5 15t23.5 47q8 18 21 18q5 0 9 -6.5t3 -16.5q-5 -48 -5 -83q0 -43 4 -83v-8q0 -20 -10 -20q-7 0 -14 7t-10 17q-9 34 -21 50t-30 16h-94q-22 0 -22 -23
v-189q0 -27 11.5 -39t37.5 -12h89q46 0 73 23q29 24 57 80q6 12 19 12q10 0 10 -20q0 -18 -5 -39t-16 -55l-11 -38q-4 -12 -24 -12l-39 1q-195 3 -289 3q-34 0 -73 -3q-52 -2 -71 -2q-9 0 -14 5zM236 715.5q-26 23.5 -26 56.5q0 34 26 58t63 24q39 0 66 -24t27 -58
q0 -33 -27 -56.5t-66 -23.5q-37 0 -63 23.5z" />
    <glyph glyph-name="edotaccent" unicode="&#x117;" horiz-adv-x="423" 
d="M114.5 15q-43.5 29 -68.5 79t-25 111q0 63 30 116t81.5 84t112.5 31q42 0 77.5 -19t56.5 -51t21 -71q0 -20 -7.5 -29.5t-23.5 -9.5h-198q-14 0 -20.5 -8t-6.5 -27q0 -55 35 -92t90 -37q27 0 51 10.5t52 30.5q9 7 14 7q11 0 11 -13q0 -9 -6 -27q-15 -45 -63.5 -79.5
t-116.5 -34.5q-53 0 -96.5 29zM224 300q24 0 35.5 1t20.5 4q4 1 7.5 10t3.5 20q0 26 -16.5 42.5t-42.5 16.5q-30 0 -54 -25t-22 -54q0 -7 4 -11t11 -4h53zM179 513q-25 25 -25 59q0 37 24.5 62t59.5 25q37 0 62 -25t25 -62q0 -35 -25 -59.5t-62 -24.5q-34 0 -59 25z" />
    <glyph glyph-name="Eogonek" unicode="&#x118;" horiz-adv-x="571" 
d="M21 0q-5 5 -5 11t5.5 12t14.5 9q35 10 47.5 22t12.5 41v456q0 32 -12 45.5t-48 21.5q-21 5 -21 21q0 7 5.5 11.5t14.5 4.5q36 0 75 -3q50 -2 69 -2q134 0 233 3q31 0 52.5 4t24.5 4q9 0 17 -5t9 -16q3 -33 9 -61q8 -56 8 -74q0 -9 -3.5 -14.5t-9.5 -5.5t-11.5 4.5
t-9.5 12.5q-15 37 -22 51t-17 24q-14 14 -31 23t-42 9h-63q-25 0 -41 -12.5t-16 -33.5v-184q0 -24 26 -24h85q23 0 34.5 15t23.5 47q8 18 21 18q5 0 9 -6.5t3 -16.5q-5 -48 -5 -83q0 -43 4 -83v-8q0 -20 -10 -20q-7 0 -14 7t-10 17q-9 34 -21 50t-30 16h-94q-22 0 -22 -23
v-189q0 -27 11.5 -39t37.5 -12h89q46 0 73 23q29 24 57 80q6 12 19 12q10 0 10 -20q0 -18 -5 -39t-16 -55l-11 -38q-4 -12 -24 -12l-39 1q-195 3 -289 3q-34 0 -73 -3q-52 -2 -71 -2q-9 0 -14 5zM313 -257.5q-32 29.5 -32 83.5q0 57 47 103t123 89h44q-48 -44 -73 -81.5
t-25 -81.5q0 -24 15 -38.5t39 -14.5q19 0 33.5 7t28.5 21q5 5 13 5q14 0 14 -19q0 -25 -19.5 -49t-51.5 -39t-68 -15q-56 0 -88 29.5z" />
    <glyph glyph-name="eogonek" unicode="&#x119;" horiz-adv-x="423" 
d="M183.5 -257q-27.5 30 -27.5 78q0 46 28 91t75 81q-21 -7 -48 -7q-49 0 -93 26.5t-70.5 76.5t-26.5 116q0 61 29 114t79 85.5t110 32.5q76 0 118.5 -37t42.5 -96q0 -25 -8.5 -36.5t-29.5 -11.5h-191q-14 0 -20.5 -7.5t-6.5 -27.5q0 -46 35.5 -73t88.5 -27q62 0 104 47
q7 7 14 7q11 0 11 -13q0 -9 -6 -27q-15 -48 -56 -109l-15 -23q-32 -50 -48 -82.5t-16 -65.5q0 -53 51 -53q13 0 24.5 6t27.5 20q6 6 13 6q12 0 12 -18q0 -25 -16 -49t-44 -39t-64 -15q-49 0 -76.5 30zM224 300h18t22 1t16 4q4 2 7.5 10.5t3.5 19.5q0 25 -14 42t-45 17
q-29 0 -49 -22t-20 -55q0 -7 5 -12t12 -5h44z" />
    <glyph glyph-name="Ecaron" unicode="&#x11a;" horiz-adv-x="577" 
d="M21 0q-5 5 -5 11t5.5 12t14.5 9q35 10 47.5 22t12.5 41v456q0 32 -12 45.5t-48 21.5q-21 5 -21 21q0 7 5.5 11.5t14.5 4.5q36 0 75 -3q50 -2 69 -2q134 0 233 3q31 0 52.5 4t24.5 4q9 0 17 -5t9 -16q3 -33 9 -61q8 -56 8 -74q0 -9 -3.5 -14.5t-9.5 -5.5t-11.5 4.5
t-9.5 12.5q-15 37 -22 51t-17 24q-14 14 -31 23t-42 9h-63q-25 0 -41 -12.5t-16 -33.5v-184q0 -24 26 -24h85q23 0 34.5 15t23.5 47q8 18 21 18q5 0 9 -6.5t3 -16.5q-5 -48 -5 -83q0 -43 4 -83v-8q0 -20 -10 -20q-7 0 -14 7t-10 17q-9 34 -21 50t-30 16h-94q-22 0 -22 -23
v-189q0 -27 11.5 -39t37.5 -12h89q46 0 73 23q29 24 57 80q6 12 19 12q10 0 10 -20q0 -18 -5 -39t-16 -55l-11 -38q-4 -12 -24 -12l-39 1q-195 3 -289 3q-34 0 -73 -3q-52 -2 -71 -2q-9 0 -14 5zM213.5 835.5q49.5 -17.5 72.5 -30.5q8 -4 13 -4t13 4q25 14 73.5 31.5
t62.5 17.5q8 0 12.5 -4t4.5 -10q0 -10 -8 -17l-105 -95q-20 -18 -29.5 -24t-23.5 -6q-13 0 -22.5 6t-29.5 24l-106 96q-9 8 -9 16q0 6 5.5 9.5t14.5 3.5q12 0 61.5 -17.5z" />
    <glyph glyph-name="ecaron" unicode="&#x11b;" horiz-adv-x="423" 
d="M114.5 15q-43.5 29 -68.5 79t-25 111q0 63 30 116t81.5 84t112.5 31q42 0 77.5 -19t56.5 -51t21 -71q0 -20 -7.5 -29.5t-23.5 -9.5h-198q-14 0 -20.5 -8t-6.5 -27q0 -55 35 -92t90 -37q27 0 51 10.5t52 30.5q9 7 14 7q11 0 11 -13q0 -9 -6 -27q-15 -45 -63.5 -79.5
t-116.5 -34.5q-53 0 -96.5 29zM224 300q24 0 35.5 1t20.5 4q4 1 7.5 10t3.5 20q0 26 -16.5 42.5t-42.5 16.5q-30 0 -54 -25t-22 -54q0 -7 4 -11t11 -4h53zM222 464.5q-8 9.5 -22 33.5l-30 51q-27 43 -48 82q-8 16 -8 27q0 18 18 18q8 0 17 -7.5t26 -26.5q4 -4 8.5 -9.5
t9.5 -10.5q22 -26 40 -44q4 -4 6 -4t6 4q16 16 58 64q16 18 26 26t17 8t11.5 -6t4.5 -16q0 -11 -6 -23q-15 -28 -49 -84l-30 -51q-13 -23 -20.5 -32t-17.5 -9q-9 0 -17 9.5z" />
    <glyph glyph-name="Gcircumflex" unicode="&#x11c;" horiz-adv-x="717" 
d="M198.5 27.5q-80.5 41.5 -127 116.5t-46.5 171q0 91 46.5 171.5t133 129t200.5 48.5q41 0 103.5 -11t97.5 -25q19 -8 22 -27q12 -82 12 -121q0 -10 -4.5 -15t-12.5 -5q-11 0 -17 5t-11 15q-26 56 -52 82q-22 22 -50 34.5t-70 12.5q-68 0 -117 -36.5t-73.5 -97
t-24.5 -131.5q0 -141 45.5 -221t139.5 -80q26 0 57 22q10 7 15.5 23.5t6.5 38.5q2 34 2 88q0 26 -26 36q-30 12 -57 18q-10 3 -17.5 9t-7.5 14q0 7 6.5 11t15.5 4q38 0 83 -3q58 -2 76 -2q19 0 63 2q46 2 68 2q16 0 16 -15q0 -9 -4.5 -14t-14.5 -7q-29 -8 -40 -18t-15 -31
q-7 -34 -7 -75v-34q0 -6 6.5 -12.5l7.5 -7.5q10 -10 10 -22q0 -8 -5 -14.5t-16 -7.5q-7 -1 -28 -11q-45 -21 -95 -36t-117 -15q-97 0 -177.5 41.5zM252.5 695.5q-5.5 3.5 -5.5 9.5q0 9 9 16l106 96q20 18 29.5 24t22.5 6q14 0 23.5 -6t29.5 -24l105 -95q8 -7 8 -17
q0 -6 -4.5 -10t-12.5 -4q-14 0 -62.5 17.5t-73.5 31.5q-5 4 -13 4t-13 -4q-23 -13 -72.5 -30.5t-61.5 -17.5q-9 0 -14.5 3.5z" />
    <glyph glyph-name="gcircumflex" unicode="&#x11d;" horiz-adv-x="514" 
d="M515.5 407.5q4.5 -6.5 4.5 -17.5q0 -8 -4 -20t-10 -20q-6 -7 -13 -7h-27q-26 0 -36 -8q-1 -1 -3 -2t-2 -12.5v-32.5q0 -52 -27.5 -96.5t-74.5 -71t-101 -26.5q-33 0 -70 13q-16 -13 -16 -23q0 -15 29.5 -22t115.5 -14q112 -9 161.5 -33.5t49.5 -71.5q0 -55 -40.5 -109
t-104 -88.5t-127.5 -34.5q-100 0 -156 30t-56 83q0 33 7.5 50.5t33.5 36.5l54 40q-68 32 -68 94q0 22 28 40q34 22 53 41q-38 23 -60.5 58.5t-22.5 78.5q0 50 29 89.5t77 62t102 22.5q17 0 37 -3t40 -7l48 -9q42 -7 82 -7q14 0 34 2l21 1q8 0 12.5 -6.5zM281.5 174.5
q17.5 34.5 17.5 93.5q0 57 -18.5 91t-49.5 34q-28 0 -47 -34t-19 -86q0 -57 20 -95t49 -38q30 0 47.5 34.5zM347.5 -106q-10.5 9 -37 15t-78.5 12q-46 5 -76 13q-54 -33 -54 -76q0 -41 34 -67.5t87 -26.5q71 0 98 27q17 17 27 38t10 41q0 15 -10.5 24zM265.5 667
q7.5 -9 20.5 -32l30 -51q34 -56 49 -84q6 -12 6 -23q0 -10 -4.5 -16t-11.5 -6t-17 8t-26 26q-42 48 -58 64q-4 4 -6 4t-6 -4q-18 -18 -40 -44q-5 -5 -9.5 -10.5t-8.5 -9.5q-17 -19 -26 -26.5t-17 -7.5q-18 0 -18 18q0 11 8 27q21 39 48 82l30 51q14 24 22 33.5t17 9.5
q10 0 17.5 -9z" />
    <glyph glyph-name="Gbreve" unicode="&#x11e;" horiz-adv-x="717" 
d="M198.5 27.5q-80.5 41.5 -127 116.5t-46.5 171q0 91 46.5 171.5t133 129t200.5 48.5q41 0 103.5 -11t97.5 -25q19 -8 22 -27q12 -82 12 -121q0 -10 -4.5 -15t-12.5 -5q-11 0 -17 5t-11 15q-26 56 -52 82q-22 22 -50 34.5t-70 12.5q-68 0 -117 -36.5t-73.5 -97
t-24.5 -131.5q0 -141 45.5 -221t139.5 -80q26 0 57 22q10 7 15.5 23.5t6.5 38.5q2 34 2 88q0 26 -26 36q-30 12 -57 18q-10 3 -17.5 9t-7.5 14q0 7 6.5 11t15.5 4q38 0 83 -3q58 -2 76 -2q19 0 63 2q46 2 68 2q16 0 16 -15q0 -9 -4.5 -14t-14.5 -7q-29 -8 -40 -18t-15 -31
q-7 -34 -7 -75v-34q0 -6 6.5 -12.5l7.5 -7.5q10 -10 10 -22q0 -8 -5 -14.5t-16 -7.5q-7 -1 -28 -11q-45 -21 -95 -36t-117 -15q-97 0 -177.5 41.5zM333 706q-33 21 -49.5 50.5t-16.5 56.5q0 15 2.5 21t11.5 6q7 0 12 -3.5t10 -9.5t8 -9q24 -26 46 -36t57 -10t57 10t46 36
q3 3 9 9.5t10.5 9.5t10.5 3q9 0 11.5 -6t2.5 -21q0 -27 -16.5 -56.5t-49.5 -50.5t-81 -21t-81 21z" />
    <glyph glyph-name="gbreve" unicode="&#x11f;" horiz-adv-x="514" 
d="M515.5 407.5q4.5 -6.5 4.5 -17.5q0 -8 -4 -20t-10 -20q-6 -7 -13 -7h-27q-26 0 -36 -8q-1 -1 -3 -2t-2 -12.5v-32.5q0 -52 -27.5 -96.5t-74.5 -71t-101 -26.5q-33 0 -70 13q-16 -13 -16 -23q0 -15 29.5 -22t115.5 -14q112 -9 161.5 -33.5t49.5 -71.5q0 -55 -40.5 -109
t-104 -88.5t-127.5 -34.5q-100 0 -156 30t-56 83q0 33 7.5 50.5t33.5 36.5l54 40q-68 32 -68 94q0 22 28 40q34 22 53 41q-38 23 -60.5 58.5t-22.5 78.5q0 50 29 89.5t77 62t102 22.5q17 0 37 -3t40 -7l48 -9q42 -7 82 -7q14 0 34 2l21 1q8 0 12.5 -6.5zM281.5 174.5
q17.5 34.5 17.5 93.5q0 57 -18.5 91t-49.5 34q-28 0 -47 -34t-19 -86q0 -57 20 -95t49 -38q30 0 47.5 34.5zM347.5 -106q-10.5 9 -37 15t-78.5 12q-46 5 -76 13q-54 -33 -54 -76q0 -41 34 -67.5t87 -26.5q71 0 98 27q17 17 27 38t10 41q0 15 -10.5 24zM171.5 487.5
q-29.5 21.5 -41.5 50t-12 52.5q0 17 7.5 26.5t17.5 9.5q17 0 22 -21q7 -28 26.5 -40t56.5 -12t56.5 12t26.5 40q5 21 22 21q10 0 17.5 -9.5t7.5 -26.5q0 -24 -12 -52.5t-41.5 -50t-76.5 -21.5t-76.5 21.5z" />
    <glyph glyph-name="Gdotaccent" unicode="&#x120;" horiz-adv-x="717" 
d="M198.5 27.5q-80.5 41.5 -127 116.5t-46.5 171q0 91 46.5 171.5t133 129t200.5 48.5q41 0 103.5 -11t97.5 -25q19 -8 22 -27q12 -82 12 -121q0 -10 -4.5 -15t-12.5 -5q-11 0 -17 5t-11 15q-26 56 -52 82q-22 22 -50 34.5t-70 12.5q-68 0 -117 -36.5t-73.5 -97
t-24.5 -131.5q0 -141 45.5 -221t139.5 -80q26 0 57 22q10 7 15.5 23.5t6.5 38.5q2 34 2 88q0 26 -26 36q-30 12 -57 18q-10 3 -17.5 9t-7.5 14q0 7 6.5 11t15.5 4q38 0 83 -3q58 -2 76 -2q19 0 63 2q46 2 68 2q16 0 16 -15q0 -9 -4.5 -14t-14.5 -7q-29 -8 -40 -18t-15 -31
q-7 -34 -7 -75v-34q0 -6 6.5 -12.5l7.5 -7.5q10 -10 10 -22q0 -8 -5 -14.5t-16 -7.5q-7 -1 -28 -11q-45 -21 -95 -36t-117 -15q-97 0 -177.5 41.5zM351 715.5q-26 23.5 -26 56.5q0 34 26 58t63 24q39 0 66 -24t27 -58q0 -33 -27 -56.5t-66 -23.5q-37 0 -63 23.5z" />
    <glyph glyph-name="gdotaccent" unicode="&#x121;" horiz-adv-x="514" 
d="M515.5 407.5q4.5 -6.5 4.5 -17.5q0 -8 -4 -20t-10 -20q-6 -7 -13 -7h-27q-26 0 -36 -8q-1 -1 -3 -2t-2 -12.5v-32.5q0 -52 -27.5 -96.5t-74.5 -71t-101 -26.5q-33 0 -70 13q-16 -13 -16 -23q0 -15 29.5 -22t115.5 -14q112 -9 161.5 -33.5t49.5 -71.5q0 -55 -40.5 -109
t-104 -88.5t-127.5 -34.5q-100 0 -156 30t-56 83q0 33 7.5 50.5t33.5 36.5l54 40q-68 32 -68 94q0 22 28 40q34 22 53 41q-38 23 -60.5 58.5t-22.5 78.5q0 50 29 89.5t77 62t102 22.5q17 0 37 -3t40 -7l48 -9q42 -7 82 -7q14 0 34 2l21 1q8 0 12.5 -6.5zM281.5 174.5
q17.5 34.5 17.5 93.5q0 57 -18.5 91t-49.5 34q-28 0 -47 -34t-19 -86q0 -57 20 -95t49 -38q30 0 47.5 34.5zM347.5 -106q-10.5 9 -37 15t-78.5 12q-46 5 -76 13q-54 -33 -54 -76q0 -41 34 -67.5t87 -26.5q71 0 98 27q17 17 27 38t10 41q0 15 -10.5 24zM188 513
q-25 25 -25 59q0 37 24.5 62t59.5 25q37 0 62 -25t25 -62q0 -35 -25 -59.5t-62 -24.5q-34 0 -59 25z" />
    <glyph glyph-name="uni0122" unicode="&#x122;" horiz-adv-x="717" 
d="M198.5 27.5q-80.5 41.5 -127 116.5t-46.5 171q0 91 46.5 171.5t133 129t200.5 48.5q41 0 103.5 -11t97.5 -25q19 -8 22 -27q12 -82 12 -121q0 -10 -4.5 -15t-12.5 -5q-11 0 -17 5t-11 15q-26 56 -52 82q-22 22 -50 34.5t-70 12.5q-68 0 -117 -36.5t-73.5 -97
t-24.5 -131.5q0 -141 45.5 -221t139.5 -80q26 0 57 22q10 7 15.5 23.5t6.5 38.5q2 34 2 88q0 26 -26 36q-30 12 -57 18q-10 3 -17.5 9t-7.5 14q0 7 6.5 11t15.5 4q38 0 83 -3q58 -2 76 -2q19 0 63 2q46 2 68 2q16 0 16 -15q0 -9 -4.5 -14t-14.5 -7q-29 -8 -40 -18t-15 -31
q-7 -34 -7 -75v-34q0 -6 6.5 -12.5l7.5 -7.5q10 -10 10 -22q0 -8 -5 -14.5t-16 -7.5q-7 -1 -28 -11q-45 -21 -95 -36t-117 -15q-97 0 -177.5 41.5zM328 -280q0 6 3.5 9.5t11.5 7.5q52 23 52 67q0 21 -10.5 31.5t-33.5 16.5q-19 5 -28.5 17t-9.5 34q0 20 17.5 34t47.5 14
q45 0 72 -28.5t27 -73.5q0 -43 -23.5 -75t-54.5 -49.5t-48 -17.5q-23 0 -23 13z" />
    <glyph glyph-name="uni0123" unicode="&#x123;" horiz-adv-x="514" 
d="M515.5 407.5q4.5 -6.5 4.5 -17.5q0 -8 -4 -20t-10 -20q-6 -7 -13 -7h-27q-26 0 -36 -8q-1 -1 -3 -2t-2 -12.5v-32.5q0 -52 -27.5 -96.5t-74.5 -71t-101 -26.5q-33 0 -70 13q-16 -13 -16 -23q0 -15 29.5 -22t115.5 -14q112 -9 161.5 -33.5t49.5 -71.5q0 -55 -40.5 -109
t-104 -88.5t-127.5 -34.5q-100 0 -156 30t-56 83q0 33 7.5 50.5t33.5 36.5l54 40q-68 32 -68 94q0 22 28 40q34 22 53 41q-38 23 -60.5 58.5t-22.5 78.5q0 50 29 89.5t77 62t102 22.5q17 0 37 -3t40 -7l48 -9q42 -7 82 -7q14 0 34 2l21 1q8 0 12.5 -6.5zM281.5 174.5
q17.5 34.5 17.5 93.5q0 57 -18.5 91t-49.5 34q-28 0 -47 -34t-19 -86q0 -57 20 -95t49 -38q30 0 47.5 34.5zM347.5 -106q-10.5 9 -37 15t-78.5 12q-46 5 -76 13q-54 -33 -54 -76q0 -41 34 -67.5t87 -26.5q71 0 98 27q17 17 27 38t10 41q0 15 -10.5 24zM177 494.5
q-29 30.5 -29 75.5q0 44 24 74t59.5 44.5t68.5 14.5q27 0 27 -16q0 -6 -4.5 -12t-13.5 -7q-70 -12 -70 -57q0 -18 10 -28t26 -16q39 -16 39 -55q0 -23 -17 -35.5t-49 -12.5q-42 0 -71 30.5z" />
    <glyph glyph-name="Hcircumflex" unicode="&#x124;" horiz-adv-x="799" 
d="M21 1.5q-6 4.5 -6 10.5q0 17 19 22q35 9 47.5 21t12.5 42v454q0 32 -12 45t-48 22q-19 5 -19 22q0 6 6 10.5t12 4.5q36 0 75 -3q50 -2 69 -2t75 2q58 2 80 2q16 0 16 -15q0 -9 -4.5 -13.5t-14.5 -7.5q-41 -12 -53 -25t-12 -43v-177q0 -15 16 -15h241q14 0 14 15v177
q0 30 -12 43t-53 25q-10 3 -14.5 7.5t-4.5 13.5q0 15 16 15q22 0 80 -2q56 -2 75 -2t69 2q39 3 75 3q7 0 12.5 -4.5t5.5 -10.5q0 -17 -19 -22q-36 -9 -48 -22t-12 -45v-454q0 -30 12.5 -42t47.5 -21q19 -5 19 -22q0 -6 -5.5 -10.5t-12.5 -4.5q-18 0 -70 2q-40 3 -74 3
q-19 0 -75 -2q-58 -2 -80 -2q-16 0 -16 15q0 9 4.5 13.5t14.5 7.5q39 11 52 23.5t13 40.5v186q0 17 -14 17h-241q-16 0 -16 -17v-186q0 -28 13 -40.5t52 -23.5q10 -3 14.5 -7.5t4.5 -13.5q0 -15 -16 -15q-22 0 -80 2q-56 2 -75 2q-33 0 -74 -3q-52 -2 -70 -2q-6 0 -12 4.5z
M238.5 695.5q-5.5 3.5 -5.5 9.5q0 9 9 16l106 96q20 18 29.5 24t22.5 6q14 0 23.5 -6t29.5 -24l105 -95q8 -7 8 -17q0 -6 -4.5 -10t-12.5 -4q-14 0 -62.5 17.5t-73.5 31.5q-5 4 -13 4t-13 -4q-23 -13 -72.5 -30.5t-61.5 -17.5q-9 0 -14.5 3.5z" />
    <glyph glyph-name="hcircumflex" unicode="&#x125;" horiz-adv-x="569" 
d="M21 1q-5 4 -5 11q0 13 23 21q3 1 14.5 5t17 11.5t5.5 21.5v475q0 31 -7.5 49t-30.5 23q-11 2 -11 16q0 13 10 15q42 8 142 45l21 8q9 3 14 3q11 0 11 -13l-2 -23l-3 -31v-244q0 -23 5 -27q37 32 68.5 50.5t76.5 18.5q56 0 92 -38.5t36 -104.5v-220q0 -19 8 -26t27 -14
q11 -4 16 -8.5t5 -12.5q0 -6 -5.5 -10.5t-16.5 -4.5q-34 0 -58 3q-30 2 -50 2q-22 0 -48 -2q-19 -3 -52 -3q-25 0 -25 16q0 14 20 20q16 5 25 13.5t9 28.5v196q0 31 -17 53t-41 22q-34 0 -64 -22q-6 -4 -8 -10t-2 -18v-223q0 -18 8 -25.5t24 -13.5q20 -8 20 -21
q0 -7 -4.5 -11.5t-12.5 -4.5q-30 0 -59 3q-36 2 -52 2q-17 0 -51 -2q-27 -3 -58 -3q-10 0 -15 4zM-11.5 740.5q-5.5 3.5 -5.5 9.5q0 9 9 16l94 81q22 19 30.5 24.5t21.5 5.5t21.5 -5.5t30.5 -24.5l94 -81q9 -7 9 -16q0 -6 -5.5 -9.5t-14.5 -3.5q-16 0 -57.5 10t-64.5 23
q-6 3 -11 3q-8 0 -15 -3q-102 -33 -122 -33q-9 0 -14.5 3.5z" />
    <glyph glyph-name="Hbar" unicode="&#x126;" horiz-adv-x="799" 
d="M784 12q0 -6 -5.5 -10.5t-12.5 -4.5q-18 0 -70 2q-40 3 -74 3q-19 0 -75 -2q-58 -2 -80 -2q-16 0 -16 15q0 9 4.5 13.5t14.5 7.5q39 11 52 23.5t13 40.5v186q0 17 -14 17h-241q-16 0 -16 -17v-186q0 -28 13 -40.5t52 -23.5q10 -3 14.5 -7.5t4.5 -13.5q0 -15 -16 -15
q-22 0 -80 2q-56 2 -75 2q-33 0 -74 -3q-52 -2 -70 -2q-6 0 -12 4.5t-6 10.5q0 17 19 22q35 9 47.5 21t12.5 42v350h-50q-11 0 -18.5 9t-7.5 22q0 14 8 22.5t21 8.5h47v42q0 32 -12 45t-48 22q-19 5 -19 22q0 6 6 10.5t12 4.5q36 0 75 -3q50 -2 69 -2t75 2q58 2 80 2
q16 0 16 -15q0 -9 -4.5 -13.5t-14.5 -7.5q-41 -12 -53 -25t-12 -43v-41h271v41q0 30 -12 43t-53 25q-10 3 -14.5 7.5t-4.5 13.5q0 15 16 15q22 0 80 -2q56 -2 75 -2t69 2q39 3 75 3q7 0 12.5 -4.5t5.5 -10.5q0 -17 -19 -22q-36 -9 -48 -22t-12 -45v-42h45q10 0 16.5 -5.5
t6.5 -13.5q0 -15 -13.5 -29t-29.5 -14h-25v-350q0 -30 12.5 -42t47.5 -21q19 -5 19 -22zM535 373v74h-271v-74q0 -15 16 -15h241q14 0 14 15z" />
    <glyph glyph-name="hbar" unicode="&#x127;" horiz-adv-x="571" 
d="M551 24.5q5 -4.5 5 -12.5q0 -6 -5.5 -10.5t-16.5 -4.5q-34 0 -58 3q-30 2 -50 2q-22 0 -48 -2q-19 -3 -52 -3q-25 0 -25 16q0 14 20 20q16 5 25 13.5t9 28.5v176q0 31 -17 53t-41 22q-32 0 -52 -14q-13 -9 -17.5 -21.5t-4.5 -37.5v-180q0 -18 8 -25.5t24 -13.5
q20 -8 20 -21q0 -7 -4.5 -11.5t-12.5 -4.5q-30 0 -59 3q-36 2 -52 2q-17 0 -51 -2q-27 -3 -58 -3q-10 0 -15 4t-5 11q0 13 23 21q3 1 14.5 5t17 11.5t5.5 21.5v419h-38q-12 0 -18 9.5t-6 21.5q0 14 8 22.5t21 8.5h33q-1 28 -9 44.5t-29 21.5q-11 2 -11 16q0 13 10 15
q42 8 142 45l21 8q9 3 14 3q11 0 11 -13l-2 -23l-3 -31v-86h145q10 0 16.5 -5.5t6.5 -13.5l-1 -5q-3 -15 -14.5 -26.5t-27.5 -11.5h-125v-116q0 -23 5 -27q38 31 73.5 50.5t80.5 19.5q52 0 85.5 -41.5t33.5 -102.5v-200q0 -19 8 -26t27 -14q11 -4 16 -8.5z" />
    <glyph glyph-name="Itilde" unicode="&#x128;" horiz-adv-x="369" 
d="M21 1.5q-6 4.5 -6 10.5q0 17 19 22q39 8 52.5 20.5t13.5 42.5v454q0 32 -13 45t-53 22q-19 5 -19 22q0 6 6 10.5t12 4.5q37 0 78 -3q54 -2 72 -2q19 0 75 2q58 2 80 2q16 0 16 -15q0 -9 -4.5 -13.5t-14.5 -7.5q-41 -12 -53 -25t-12 -43v-452q0 -28 13 -40.5t52 -23.5
q10 -3 14.5 -7.5t4.5 -13.5q0 -15 -16 -15q-22 0 -80 2q-56 2 -75 2q-18 0 -72 -2q-40 -3 -78 -3q-6 0 -12 4.5zM32 697.5q-7 6.5 -7 9.5q0 7 16 33.5t34.5 48.5t26.5 22q14 0 48 -2q24 -2 38 -2l21 -1q40 -2 67 -2q17 0 35 20q5 6 11.5 14t8.5 8q5 0 14 -7.5t9 -11.5
t-5 -12t-13 -19q-16 -24 -23 -36q-5 -8 -9 -14t-7 -11q-9 -14 -31 -14q-10 0 -84 6q-78 6 -91 6q-12 0 -29 -21q-15 -21 -18 -21q-5 0 -12 6.5z" />
    <glyph glyph-name="itilde" unicode="&#x129;" horiz-adv-x="306" 
d="M25 1q-5 4 -5 10q0 15 17 20q28 7 38 14.5t10 22.5v216q0 34 -10 47.5t-33 16.5q-6 1 -9 6.5t-3 12.5t3.5 12t8.5 6q46 9 82 23t83 35q18 8 22 8q7 0 10.5 -4t3.5 -10l-5 -44q-8 -68 -8 -105v-219q0 -13 10 -21t38 -17q9 -3 13.5 -7t4.5 -12q0 -14 -15 -14q-19 0 -65 2
q-44 2 -60 2q-17 0 -57 -2q-32 -3 -63 -3q-6 0 -11 4zM8.5 475q-9.5 8 -9.5 12q0 7 20.5 36t43.5 54.5t31 25.5q9 0 27.5 -3t44.5 -5q62 -4 70 -4q18 0 35 20q5 6 12 15.5t11 9.5q5 0 14 -8t9 -12t-8 -15.5t-13 -17.5l-21 -33l-22 -34q-9 -14 -31 -14q-10 0 -74 4
q-55 5 -79 5q-11 0 -19 -11q-11 -15 -18 -24t-10 -9q-4 0 -13.5 8z" />
    <glyph glyph-name="Imacron" unicode="&#x12a;" horiz-adv-x="369" 
d="M21 1.5q-6 4.5 -6 10.5q0 17 19 22q39 8 52.5 20.5t13.5 42.5v454q0 32 -13 45t-53 22q-19 5 -19 22q0 6 6 10.5t12 4.5q37 0 78 -3q54 -2 72 -2q19 0 75 2q58 2 80 2q16 0 16 -15q0 -9 -4.5 -13.5t-14.5 -7.5q-41 -12 -53 -25t-12 -43v-452q0 -28 13 -40.5t52 -23.5
q10 -3 14.5 -7.5t4.5 -13.5q0 -15 -16 -15q-22 0 -80 2q-56 2 -75 2q-18 0 -72 -2q-40 -3 -78 -3q-6 0 -12 4.5zM29 721.5q-6 5.5 -6 13.5q0 29 12.5 48t27.5 19h270q9 0 14.5 -5.5t5.5 -13.5q0 -26 -13 -46.5t-30 -20.5h-266q-9 0 -15 5.5z" />
    <glyph glyph-name="imacron" unicode="&#x12b;" horiz-adv-x="306" 
d="M25 1q-5 4 -5 10q0 15 17 20q28 7 38 14.5t10 22.5v216q0 34 -10 47.5t-33 16.5q-6 1 -9 6.5t-3 12.5t3.5 12t8.5 6q46 9 82 23t83 35q18 8 22 8q7 0 10.5 -4t3.5 -10l-5 -44q-8 -68 -8 -105v-219q0 -13 10 -21t38 -17q9 -3 13.5 -7t4.5 -12q0 -14 -15 -14q-19 0 -65 2
q-44 2 -60 2q-17 0 -57 -2q-32 -3 -63 -3q-6 0 -11 4zM-6 515.5q-6 5.5 -6 13.5q0 29 12.5 48t27.5 19h270q9 0 14.5 -5.5t5.5 -13.5q0 -26 -13 -46.5t-30 -20.5h-266q-9 0 -15 5.5z" />
    <glyph glyph-name="Ibreve" unicode="&#x12c;" horiz-adv-x="369" 
d="M21 1.5q-6 4.5 -6 10.5q0 17 19 22q39 8 52.5 20.5t13.5 42.5v454q0 32 -13 45t-53 22q-19 5 -19 22q0 6 6 10.5t12 4.5q37 0 78 -3q54 -2 72 -2q19 0 75 2q58 2 80 2q16 0 16 -15q0 -9 -4.5 -13.5t-14.5 -7.5q-41 -12 -53 -25t-12 -43v-452q0 -28 13 -40.5t52 -23.5
q10 -3 14.5 -7.5t4.5 -13.5q0 -15 -16 -15q-22 0 -80 2q-56 2 -75 2q-18 0 -72 -2q-40 -3 -78 -3q-6 0 -12 4.5zM107 706q-33 21 -49.5 50.5t-16.5 56.5q0 15 2.5 21t11.5 6q7 0 12 -3.5t10 -9.5t8 -9q24 -26 46 -36t57 -10t57 10t46 36q3 3 9 9.5t10.5 9.5t10.5 3
q9 0 11.5 -6t2.5 -21q0 -27 -16.5 -56.5t-49.5 -50.5t-81 -21t-81 21z" />
    <glyph glyph-name="ibreve" unicode="&#x12d;" horiz-adv-x="306" 
d="M25 1q-5 4 -5 10q0 15 17 20q28 7 38 14.5t10 22.5v216q0 34 -10 47.5t-33 16.5q-6 1 -9 6.5t-3 12.5t3.5 12t8.5 6q46 9 82 23t83 35q18 8 22 8q7 0 10.5 -4t3.5 -10l-5 -44q-8 -68 -8 -105v-219q0 -13 10 -21t38 -17q9 -3 13.5 -7t4.5 -12q0 -14 -15 -14q-19 0 -65 2
q-44 2 -60 2q-17 0 -57 -2q-32 -3 -63 -3q-6 0 -11 4zM76.5 487.5q-29.5 21.5 -41.5 50t-12 52.5q0 17 7.5 26.5t17.5 9.5q17 0 22 -21q7 -28 26.5 -40t56.5 -12t56.5 12t26.5 40q5 21 22 21q10 0 17.5 -9.5t7.5 -26.5q0 -24 -12 -52.5t-41.5 -50t-76.5 -21.5t-76.5 21.5z
" />
    <glyph glyph-name="Iogonek" unicode="&#x12e;" horiz-adv-x="369" 
d="M21 1.5q-6 4.5 -6 10.5q0 17 19 22q39 8 52.5 20.5t13.5 42.5v454q0 32 -13 45t-53 22q-19 5 -19 22q0 6 6 10.5t12 4.5q37 0 78 -3q54 -2 72 -2q19 0 75 2q58 2 80 2q16 0 16 -15q0 -9 -4.5 -13.5t-14.5 -7.5q-41 -12 -53 -25t-12 -43v-452q0 -28 13 -40.5t52 -23.5
q10 -3 14.5 -7.5t4.5 -13.5q0 -15 -16 -15q-22 0 -80 2q-56 2 -75 2q-18 0 -72 -2q-40 -3 -78 -3q-6 0 -12 4.5zM110 -257.5q-32 29.5 -32 83.5q0 57 47 103t123 89h44q-48 -44 -73 -81.5t-25 -81.5q0 -24 15 -38.5t39 -14.5q19 0 33.5 7t28.5 21q5 5 13 5q14 0 14 -19
q0 -25 -19.5 -49t-51.5 -39t-68 -15q-56 0 -88 29.5z" />
    <glyph glyph-name="iogonek" unicode="&#x12f;" horiz-adv-x="306" 
d="M25 1q-5 4 -5 10q0 15 17 20q28 7 38 14.5t10 22.5v216q0 34 -10 47.5t-33 16.5q-6 1 -9 6.5t-3 12.5t3.5 12t8.5 6q46 9 82 23t83 35q18 8 22 8q7 0 10.5 -4t3.5 -10l-5 -44q-8 -68 -8 -105v-219q0 -13 10 -21t38 -17q9 -3 13.5 -7t4.5 -12q0 -14 -15 -14q-19 0 -65 2
q-44 2 -60 2q-17 0 -57 -2q-32 -3 -63 -3q-6 0 -11 4zM93 513q-25 25 -25 59q0 37 24.5 62t59.5 25q37 0 62 -25t25 -62q0 -35 -25 -59.5t-62 -24.5q-34 0 -59 25zM75.5 -257q-27.5 30 -27.5 78q0 55 39 107.5t102 89.5h45q-44 -40 -65 -78.5t-21 -84.5q0 -53 51 -53
q14 0 26 6t26 20q6 6 13 6q12 0 12 -18q0 -25 -16 -49t-44 -39t-64 -15q-49 0 -76.5 30z" />
    <glyph glyph-name="Idotaccent" unicode="&#x130;" horiz-adv-x="369" 
d="M21 1.5q-6 4.5 -6 10.5q0 17 19 22q39 8 52.5 20.5t13.5 42.5v454q0 32 -13 45t-53 22q-19 5 -19 22q0 6 6 10.5t12 4.5q37 0 78 -3q54 -2 72 -2q19 0 75 2q58 2 80 2q16 0 16 -15q0 -9 -4.5 -13.5t-14.5 -7.5q-41 -12 -53 -25t-12 -43v-452q0 -28 13 -40.5t52 -23.5
q10 -3 14.5 -7.5t4.5 -13.5q0 -15 -16 -15q-22 0 -80 2q-56 2 -75 2q-18 0 -72 -2q-40 -3 -78 -3q-6 0 -12 4.5zM125 715.5q-26 23.5 -26 56.5q0 34 26 58t63 24q39 0 66 -24t27 -58q0 -33 -27 -56.5t-66 -23.5q-37 0 -63 23.5z" />
    <glyph glyph-name="dotlessi" unicode="&#x131;" horiz-adv-x="306" 
d="M25 1q-5 4 -5 10q0 15 17 20q28 7 38 14.5t10 22.5v216q0 34 -10 47.5t-33 16.5q-6 1 -9 6.5t-3 12.5t3.5 12t8.5 6q46 9 82 23t83 35q18 8 22 8q7 0 10.5 -4t3.5 -10l-5 -44q-8 -68 -8 -105v-219q0 -13 10 -21t38 -17q9 -3 13.5 -7t4.5 -12q0 -14 -15 -14q-19 0 -65 2
q-44 2 -60 2q-17 0 -57 -2q-32 -3 -63 -3q-6 0 -11 4z" />
    <glyph glyph-name="IJ" unicode="&#x132;" horiz-adv-x="745" 
d="M21 1.5q-6 4.5 -6 10.5q0 17 19 22q39 8 52.5 20.5t13.5 42.5v454q0 32 -13 45t-53 22q-19 5 -19 22q0 6 6 10.5t12 4.5q37 0 78 -3q54 -2 72 -2q19 0 75 2q58 2 80 2q16 0 16 -15q0 -9 -4.5 -13.5t-14.5 -7.5q-41 -12 -53 -25t-12 -43v-452q0 -28 13 -40.5t52 -23.5
q10 -3 14.5 -7.5t4.5 -13.5q0 -15 -16 -15q-22 0 -80 2q-56 2 -75 2q-18 0 -72 -2q-40 -3 -78 -3q-6 0 -12 4.5zM321 -184.5q-37 15.5 -37 44.5q0 21 18 40.5t36 19.5q20 0 41 -23q11 -12 23 -30q2 -2 7.5 -10t10 -11.5t9.5 -3.5q62 0 62 167v542q0 32 -13 45t-53 22
q-19 5 -19 22q0 6 6 10.5t12 4.5q37 0 78 -3q54 -2 72 -2q19 0 75 2q58 2 80 2q16 0 16 -15q0 -9 -4.5 -13.5t-14.5 -7.5q-41 -12 -53 -25t-12 -43v-456q0 -36 -22.5 -89.5t-58.5 -101.5q-35 -47 -73.5 -75t-75.5 -28q-73 0 -110 15.5z" />
    <glyph glyph-name="ij" unicode="&#x133;" horiz-adv-x="567" 
d="M25 1q-5 4 -5 10q0 15 17 20q28 7 38 14.5t10 22.5v216q0 34 -10 47.5t-33 16.5q-6 1 -9 6.5t-3 12.5t3.5 12t8.5 6q46 9 82 23t83 35q18 8 22 8q7 0 10.5 -4t3.5 -10l-5 -44q-8 -68 -8 -105v-219q0 -13 10 -21t38 -17q9 -3 13.5 -7t4.5 -12q0 -14 -15 -14q-19 0 -65 2
q-44 2 -60 2q-17 0 -57 -2q-32 -3 -63 -3q-6 0 -11 4zM93 513q-25 25 -25 59q0 37 24.5 62t59.5 25q37 0 62 -25t25 -62q0 -35 -25 -59.5t-62 -24.5q-34 0 -59 25zM252 -270q0 7 4.5 12t16.5 10q19 9 31 20t24 35q17 36 24 106t7 135v236q0 34 -10 47.5t-33 16.5
q-6 1 -9 6.5t-3 12.5t3.5 12t8.5 6q46 9 82 23t83 35q18 8 22 8q7 0 10.5 -4t3.5 -10l-5 -44q-8 -68 -8 -105l1 -197q0 -66 -8 -128t-32 -115q-24 -52 -74.5 -93.5t-93.5 -41.5q-45 0 -45 17zM369 513q-25 25 -25 59q0 37 24.5 62t59.5 25q37 0 62 -25t25 -62
q0 -35 -25 -59.5t-62 -24.5q-34 0 -59 25z" />
    <glyph glyph-name="Jcircumflex" unicode="&#x134;" horiz-adv-x="376" 
d="M-48 -184.5q-37 15.5 -37 44.5q0 21 18 40.5t36 19.5q20 0 41 -23q11 -12 23 -30q2 -2 7.5 -10t10 -11.5t9.5 -3.5q62 0 62 167v542q0 32 -13 45t-53 22q-19 5 -19 22q0 6 6 10.5t12 4.5q37 0 78 -3q54 -2 72 -2q19 0 75 2q58 2 80 2q16 0 16 -15q0 -9 -4.5 -13.5
t-14.5 -7.5q-41 -12 -53 -25t-12 -43v-456q0 -36 -22.5 -89.5t-58.5 -101.5q-35 -47 -73.5 -75t-75.5 -28q-73 0 -110 15.5zM43.5 695.5q-5.5 3.5 -5.5 9.5q0 9 9 16l106 96q20 18 29.5 24t22.5 6q14 0 23.5 -6t29.5 -24l105 -95q8 -7 8 -17q0 -6 -4.5 -10t-12.5 -4
q-14 0 -62.5 17.5t-73.5 31.5q-5 4 -13 4t-13 -4q-23 -13 -72.5 -30.5t-61.5 -17.5q-9 0 -14.5 3.5z" />
    <glyph glyph-name="jcircumflex" unicode="&#x135;" horiz-adv-x="275" 
d="M-40 -270q0 7 4.5 12t16.5 10q19 9 31 20t24 35q17 36 24 106t7 135v236q0 34 -10 47.5t-33 16.5q-6 1 -9 6.5t-3 12.5t3.5 12t8.5 6q46 9 82 23t83 35q18 8 22 8q7 0 10.5 -4t3.5 -10l-5 -44q-8 -68 -8 -105l1 -197q0 -66 -8 -128t-32 -115q-24 -52 -74.5 -93.5
t-93.5 -41.5q-45 0 -45 17zM154.5 667q7.5 -9 20.5 -32l30 -51q34 -56 49 -84q6 -12 6 -23q0 -10 -4.5 -16t-11.5 -6t-17 8t-26 26q-42 48 -58 64q-4 4 -6 4t-6 -4q-18 -18 -40 -44q-5 -5 -9.5 -10.5t-8.5 -9.5q-17 -19 -26 -26.5t-17 -7.5q-18 0 -18 18q0 11 8 27
q21 39 48 82l30 51q14 24 22 33.5t17 9.5q10 0 17.5 -9z" />
    <glyph glyph-name="uni0136" unicode="&#x136;" horiz-adv-x="781" 
d="M24.5 -0.5q-9.5 5.5 -9.5 12.5q0 17 25 22q38 7 49 19.5t11 43.5v454q0 32 -13 45t-53 22q-19 5 -19 22q0 6 6 10.5t12 4.5q37 0 78 -3q54 -2 72 -2q19 0 75 2q58 2 80 2q16 0 16 -15q0 -9 -4.5 -13.5t-14.5 -7.5q-41 -12 -53 -25t-12 -43v-207q0 -15 11 -15q6 0 14 6.5
t10 8.5l191 208q19 21 19 31q0 22 -46 32q-19 5 -19 22q0 6 6 10.5t12 4.5h72l94 1q68 2 112 2q11 0 19 -4t8 -11q0 -9 -9 -14t-21 -7q-50 -6 -86.5 -21.5t-67.5 -39.5q-24 -18 -52 -44.5t-55 -52.5l-62 -60q-7 -6 -7 -15t7 -17l239 -270q21 -23 43 -38.5t58 -25.5
q2 -1 11 -3.5t14.5 -7t5.5 -10.5q0 -8 -10.5 -13t-30.5 -5q-30 0 -53 1t-38 2q-64 4 -96 4q-36 0 -69 -3q-42 -2 -66 -2q-6 0 -12 4.5t-6 10.5q0 17 19 22q42 8 44 29q0 14 -17 34l-152 180q-13 16 -24 16t-11 -16q0 -119 3 -179q1 -21 4.5 -31.5t15 -18t37.5 -14.5
q13 -4 19 -8t6 -13q0 -7 -9 -12t-19 -5q-26 0 -89 5q-11 1 -24.5 2t-29.5 1q-15 0 -51 -4q-46 -6 -89 -6q-9 0 -18.5 5.5zM314 -280q0 6 3.5 9.5t11.5 7.5q52 23 52 67q0 21 -10.5 31.5t-33.5 16.5q-19 5 -28.5 17t-9.5 34q0 20 17.5 34t47.5 14q45 0 72 -28.5t27 -73.5
q0 -43 -23.5 -75t-54.5 -49.5t-48 -17.5q-23 0 -23 13z" />
    <glyph glyph-name="uni0137" unicode="&#x137;" horiz-adv-x="563" 
d="M20 1q-5 4 -5 11q0 13 23 21q3 1 14.5 5t17 11.5t5.5 21.5v475q0 31 -7.5 49t-30.5 23q-11 2 -11 16q0 13 10 15q42 8 142 45l21 8q9 3 14 3q11 0 11 -13l-2 -23l-3 -31l1 -384q0 -13 9 -13q5 0 12 5q33 29 63.5 63t41.5 52q9 14 9 18q0 6 -8.5 11t-24.5 7q-12 2 -12 12
q0 14 22 14h49q25 0 74.5 3t80.5 6q11 0 11 -12q0 -16 -23 -21q-39 -9 -91 -39q-63 -34 -103 -74q-5 -5 -5 -11q0 -4 3 -7.5t4 -4.5q19 -25 43 -60q6 -8 32.5 -45t56.5 -71q15 -17 39.5 -33t42.5 -23q2 -1 10 -3.5t12.5 -6.5t4.5 -9q0 -15 -22 -15q-49 0 -133 2l-101 1
q-10 0 -15 4t-5 11q0 13 23 21q13 5 14 14q0 6 -13 24l-91 133l-4 2q-6 -2 -6 -8v-61v-70q0 -15 6.5 -23t22.5 -13q20 -8 20 -21q0 -7 -4.5 -11.5t-12.5 -4.5q-29 0 -58 3q-34 2 -50 2q-17 0 -51 -2q-27 -3 -58 -3q-10 0 -15 4zM225 -280q0 6 3.5 9.5t11.5 7.5q52 23 52 67
q0 21 -10.5 31.5t-33.5 16.5q-19 5 -28.5 17t-9.5 34q0 20 17.5 34t47.5 14q45 0 72 -28.5t27 -73.5q0 -43 -23.5 -75t-54.5 -49.5t-48 -17.5q-23 0 -23 13z" />
    <glyph glyph-name="kgreenlandic" unicode="&#x138;" horiz-adv-x="600" 
d="M20 1q-5 4 -5 11q0 13 23 21q3 1 14.5 5t17 11.5t5.5 21.5v213q0 34 -10 47.5t-33 16.5q-6 1 -9 6.5t-3 12.5t3.5 12t8.5 6q46 9 82 23t83 35q18 8 22 8q7 0 10.5 -4t3.5 -10l-5 -44q-8 -68 -8 -105v-34q0 -13 9 -13q5 0 12 5q33 29 63.5 63t41.5 52q9 14 9 18
q0 6 -8.5 11t-24.5 7q-12 2 -12 12q0 14 22 14h49q25 0 74.5 3t80.5 6q11 0 11 -12q0 -16 -23 -21q-29 -6 -70 -31q-81 -50 -114 -92q-5 -5 -5 -11q0 -4 3 -7.5t4 -4.5q28 -38 45 -64q44 -65 77 -102q15 -17 39.5 -33t42.5 -23q2 -1 10 -3.5t12.5 -6.5t4.5 -9q0 -15 -22 -15
q-66 0 -170 2q-22 1 -64 1q-10 0 -15 4t-5 11q0 13 23 21q13 5 14 14q0 6 -13 24l-91 133l-4 2q-2 0 -4 -2.5t-2 -5.5v-131q0 -15 6.5 -23t22.5 -13q20 -8 20 -21q0 -7 -4.5 -11.5t-12.5 -4.5q-29 0 -58 3q-34 2 -50 2q-17 0 -51 -2q-27 -3 -58 -3q-10 0 -15 4z" />
    <glyph glyph-name="Lacute" unicode="&#x139;" horiz-adv-x="586" 
d="M25 0q-5 5 -5 11t5.5 12t14.5 9q35 10 47.5 22t12.5 41v456q0 32 -13 45t-53 22q-19 5 -19 22q0 6 6 10.5t12 4.5q37 0 78 -3q54 -2 72 -2q19 0 75 2q58 2 80 2q16 0 16 -15q0 -9 -4.5 -13.5t-14.5 -7.5q-41 -12 -53 -25t-12 -43v-445q0 -27 11.5 -39t37.5 -12h97
q38 0 69 28q28 26 54 81q10 21 15.5 26.5t12.5 5.5t10.5 -6.5t3.5 -14.5q0 -3 -1.5 -9.5t-2.5 -13.5q-15 -53 -21 -78t-9 -59q-2 -19 -17 -19l-87 1q-152 4 -260 4q-34 0 -73 -3q-52 -2 -71 -2q-9 0 -14 5zM124 691q0 7 12 22q60 75 112 127q14 14 35 11q17 -2 47 -16
t27 -25t-20 -22q-48 -29 -96 -55l-77 -44q-8 -5 -16 -7t-11 -1q-13 3 -13 10z" />
    <glyph glyph-name="lacute" unicode="&#x13a;" horiz-adv-x="295" 
d="M20 1q-5 4 -5 11q0 13 23 21q3 1 14.5 5t17 11.5t5.5 21.5v475q0 31 -7.5 49t-30.5 23q-11 2 -11 16q0 13 10 15q38 7 88.5 25.5t56.5 20.5l19 7q9 3 14 3q11 0 11 -13l-2 -23l-3 -31v-565q0 -17 7 -24t17 -10t13 -4q23 -8 23 -21q0 -7 -5 -11t-15 -4q-22 0 -62 2l-54 1
q-17 0 -51 -2q-27 -3 -58 -3q-10 0 -15 4zM67 741q-6 4 -6 10t3.5 11t14.5 14q58 46 151 105q8 5 19 5q16 0 28.5 -13t19.5 -29t7 -24q0 -15 -11 -19q-16 -5 -30 -10t-25 -9q-82 -27 -118 -37q-3 -1 -15.5 -4.5t-23.5 -3.5q-8 0 -14 4z" />
    <glyph glyph-name="uni013B" unicode="&#x13b;" horiz-adv-x="586" 
d="M25 0q-5 5 -5 11t5.5 12t14.5 9q35 10 47.5 22t12.5 41v456q0 32 -13 45t-53 22q-19 5 -19 22q0 6 6 10.5t12 4.5q37 0 78 -3q54 -2 72 -2q19 0 75 2q58 2 80 2q16 0 16 -15q0 -9 -4.5 -13.5t-14.5 -7.5q-41 -12 -53 -25t-12 -43v-445q0 -27 11.5 -39t37.5 -12h97
q38 0 69 28q28 26 54 81q10 21 15.5 26.5t12.5 5.5t10.5 -6.5t3.5 -14.5q0 -3 -1.5 -9.5t-2.5 -13.5q-15 -53 -21 -78t-9 -59q-2 -19 -17 -19l-87 1q-152 4 -260 4q-34 0 -73 -3q-52 -2 -71 -2q-9 0 -14 5zM233 -280q0 6 3.5 9.5t11.5 7.5q52 23 52 67q0 21 -10.5 31.5
t-33.5 16.5q-19 5 -28.5 17t-9.5 34q0 20 17.5 34t47.5 14q45 0 72 -28.5t27 -73.5q0 -43 -23.5 -75t-54.5 -49.5t-48 -17.5q-23 0 -23 13z" />
    <glyph glyph-name="uni013C" unicode="&#x13c;" horiz-adv-x="295" 
d="M20 1q-5 4 -5 11q0 13 23 21q3 1 14.5 5t17 11.5t5.5 21.5v475q0 31 -7.5 49t-30.5 23q-11 2 -11 16q0 13 10 15q38 7 88.5 25.5t56.5 20.5l19 7q9 3 14 3q11 0 11 -13l-2 -23l-3 -31v-565q0 -17 7 -24t17 -10t13 -4q23 -8 23 -21q0 -7 -5 -11t-15 -4q-22 0 -62 2l-54 1
q-17 0 -51 -2q-27 -3 -58 -3q-10 0 -15 4zM89 -280q0 6 3.5 9.5t11.5 7.5q52 23 52 67q0 21 -10.5 31.5t-33.5 16.5q-19 5 -28.5 17t-9.5 34q0 20 17.5 34t47.5 14q45 0 72 -28.5t27 -73.5q0 -43 -23.5 -75t-54.5 -49.5t-48 -17.5q-23 0 -23 13z" />
    <glyph glyph-name="Lcaron" unicode="&#x13d;" horiz-adv-x="586" 
d="M25 0q-5 5 -5 11t5.5 12t14.5 9q35 10 47.5 22t12.5 41v456q0 32 -13 45t-53 22q-19 5 -19 22q0 6 6 10.5t12 4.5q37 0 78 -3q54 -2 72 -2q19 0 75 2q58 2 80 2q16 0 16 -15q0 -9 -4.5 -13.5t-14.5 -7.5q-41 -12 -53 -25t-12 -43v-445q0 -27 11.5 -39t37.5 -12h97
q38 0 69 28q28 26 54 81q10 21 15.5 26.5t12.5 5.5t10.5 -6.5t3.5 -14.5q0 -3 -1.5 -9.5t-2.5 -13.5q-15 -53 -21 -78t-9 -59q-2 -19 -17 -19l-87 1q-152 4 -260 4q-34 0 -73 -3q-52 -2 -71 -2q-9 0 -14 5zM408.5 431q-3.5 8 -3.5 18l2 25q1 11 2 25t1 27q0 22 -5 62
q-3 15 -3 27q0 19 28.5 39t55.5 20q15 0 19 -9t4 -28q0 -33 -18 -90t-39 -92q-19 -32 -34 -32q-6 0 -9.5 8z" />
    <glyph glyph-name="lcaron" unicode="&#x13e;" horiz-adv-x="320" 
d="M20 1q-5 4 -5 11q0 13 23 21q3 1 14.5 5t17 11.5t5.5 21.5v475q0 31 -7.5 49t-30.5 23q-11 2 -11 16q0 13 10 15q38 7 88.5 25.5t56.5 20.5l19 7q9 3 14 3q11 0 11 -13l-2 -23l-3 -31v-565q0 -17 7 -24t17 -10t13 -4q23 -8 23 -21q0 -7 -5 -11t-15 -4q-22 0 -62 2l-54 1
q-17 0 -51 -2q-27 -3 -58 -3q-10 0 -15 4zM282.5 475q-3.5 8 -3.5 18l2 25q1 11 2 25t1 27q0 22 -5 62q-3 15 -3 27q0 19 28.5 39t55.5 20q15 0 19 -9t4 -28q0 -33 -18 -90t-39 -92q-19 -32 -34 -32q-6 0 -9.5 8z" />
    <glyph glyph-name="Ldot" unicode="&#x13f;" horiz-adv-x="586" 
d="M25 0q-5 5 -5 11t5.5 12t14.5 9q35 10 47.5 22t12.5 41v456q0 32 -13 45t-53 22q-19 5 -19 22q0 6 6 10.5t12 4.5q37 0 78 -3q54 -2 72 -2q19 0 75 2q58 2 80 2q16 0 16 -15q0 -9 -4.5 -13.5t-14.5 -7.5q-41 -12 -53 -25t-12 -43v-445q0 -27 11.5 -39t37.5 -12h97
q38 0 69 28q28 26 54 81q10 21 15.5 26.5t12.5 5.5t10.5 -6.5t3.5 -14.5q0 -3 -1.5 -9.5t-2.5 -13.5q-15 -53 -21 -78t-9 -59q-2 -19 -17 -19l-87 1q-152 4 -260 4q-34 0 -73 -3q-52 -2 -71 -2q-9 0 -14 5zM372 291q-25 25 -25 59q0 37 24.5 62t59.5 25q37 0 62 -25t25 -62
q0 -35 -25 -59.5t-62 -24.5q-34 0 -59 25z" />
    <glyph glyph-name="ldot" unicode="&#x140;" horiz-adv-x="420" 
d="M20 1q-5 4 -5 11q0 13 23 21q3 1 14.5 5t17 11.5t5.5 21.5v475q0 31 -7.5 49t-30.5 23q-11 2 -11 16q0 13 10 15q38 7 88.5 25.5t56.5 20.5l19 7q9 3 14 3q11 0 11 -13l-2 -23l-3 -31v-565q0 -17 7 -24t17 -10t13 -4q23 -8 23 -21q0 -7 -5 -11t-15 -4q-22 0 -62 2l-54 1
q-17 0 -51 -2q-27 -3 -58 -3q-10 0 -15 4zM295.5 252.5q-25.5 25.5 -25.5 60.5q0 37 25.5 63t60.5 26q38 0 63.5 -25.5t25.5 -63.5q0 -35 -26 -60.5t-63 -25.5q-35 0 -60.5 25.5z" />
    <glyph glyph-name="Lslash" unicode="&#x141;" horiz-adv-x="586" 
d="M577.5 188.5q3.5 -6.5 3.5 -14.5q0 -3 -1.5 -9.5t-2.5 -13.5q-15 -53 -21 -78t-9 -59q-2 -19 -17 -19l-87 1q-152 4 -260 4q-34 0 -73 -3q-52 -2 -71 -2q-9 0 -14 5t-5 11t5.5 12t14.5 9q35 10 47.5 22t12.5 41v170l-41 -14q-10 -2 -14 -2q-18 0 -18 14q0 18 7 32.5
t19 18.5l47 16v221q0 32 -13 45t-53 22q-19 5 -19 22q0 6 6 10.5t12 4.5q37 0 78 -3q54 -2 72 -2q19 0 75 2q58 2 80 2q16 0 16 -15q0 -9 -4.5 -13.5t-14.5 -7.5q-41 -12 -53 -25t-12 -43v-173l102 35q3 1 9 1q8 0 13.5 -4.5t5.5 -12.5q0 -20 -7.5 -33t-26.5 -19l-96 -32
v-207q0 -27 11.5 -39t37.5 -12h97q38 0 69 28q28 26 54 81q10 21 15.5 26.5t12.5 5.5t10.5 -6.5z" />
    <glyph glyph-name="lslash" unicode="&#x142;" horiz-adv-x="292" 
d="M226 371v-298q0 -17 7 -24t17 -10t13 -4q23 -8 23 -21q0 -7 -5 -11t-15 -4q-22 0 -62 2l-54 1q-17 0 -51 -2q-27 -3 -58 -3q-10 0 -15 4t-5 11q0 13 23 21q3 1 14.5 5t17 11.5t5.5 21.5v231l-35 -19q-8 -4 -19.5 6t-11.5 19q0 17 21 30l45 24v184q0 31 -7.5 49t-30.5 23
q-11 2 -11 16q0 13 10 15q38 7 88.5 25.5t56.5 20.5l19 7q9 3 14 3q11 0 11 -13l-2 -23l-3 -31v-207l43 23q5 3 11 3q7 0 12 -7.5t5 -23.5q0 -8 -8.5 -17t-19.5 -15z" />
    <glyph glyph-name="Nacute" unicode="&#x143;" horiz-adv-x="813" 
d="M636.5 -1.5q-29.5 17.5 -59.5 53.5l-389 413q-7 10 -11 10q-7 0 -7 -19q0 -73 3 -165q1 -36 2 -82t1 -96q0 -33 20.5 -51t62.5 -28q27 -7 27 -21q0 -7 -7.5 -11t-16.5 -4q-32 0 -66 2l-49 1q-29 0 -57 -1.5t-36 -2.5q-7 0 -15 4.5t-8 10.5q0 8 6 12.5t18 9.5q45 18 50 81
q21 222 21 393q0 47 -22.5 71t-66.5 41q-27 7 -27 22q0 16 26 16l76 -2q120 -3 127 -3q13 0 20 -10l369 -409q10 -12 14 -12q8 0 8 14v105q0 156 -3 212q-1 28 -19 41t-59 24q-23 6 -23 21q0 6 6.5 10.5t14.5 4.5l65 -1q13 -1 41 -1l46 1q32 2 60 2q11 0 17.5 -4t6.5 -11
q0 -16 -25 -21q-36 -7 -51 -20.5t-15 -42.5q0 -60 -7 -228q-5 -98 -5 -158q0 -23 3.5 -56.5t4.5 -43.5q4 -38 4 -40q0 -49 -29 -49q-17 0 -46.5 17.5zM365 691q0 7 12 22q60 75 112 127q14 14 35 11q17 -2 47 -16t27 -25t-20 -22q-48 -29 -96 -55l-77 -44q-8 -5 -16 -7
t-11 -1q-13 3 -13 10z" />
    <glyph glyph-name="nacute" unicode="&#x144;" horiz-adv-x="574" 
d="M26.5 1.5q-6.5 4.5 -6.5 10.5q0 13 23 21q19 6 28 13t9 25v232q0 47 -30 52q-4 1 -7.5 6t-3.5 13q0 15 10 18q38 9 82 22.5t72 27.5q2 1 9 5t11 4q10 0 10 -13l-2 -21q-3 -33 -3 -35q0 -13 2 -15q38 35 71 52t76 17q55 0 90 -39t35 -105v-222q0 -18 8.5 -24.5t28.5 -12.5
q20 -7 20 -21q0 -6 -5.5 -10.5t-11.5 -4.5q-31 0 -60 3q-36 2 -52 2q-17 0 -51 -2q-28 -3 -59 -3q-6 0 -11 4.5t-5 10.5q0 14 19 21q19 6 26.5 12.5t7.5 24.5v197q0 37 -16 58t-42 21q-18 0 -33 -5.5t-33 -17.5q-8 -5 -8 -18v-235q0 -18 7.5 -24t26.5 -13t19 -21
q0 -6 -5 -10.5t-11 -4.5q-30 0 -57 3q-34 2 -50 2t-54 -2q-30 -3 -61 -3q-7 0 -13.5 4.5zM260 465q0 10 5 22q14 35 33.5 80t29.5 66q8 16 18.5 21.5t30.5 5.5q26 0 43.5 -6.5t17.5 -18.5q0 -14 -10 -25l-25 -28q-61 -70 -106 -115q-15 -15 -26 -15t-11 13z" />
    <glyph glyph-name="uni0145" unicode="&#x145;" horiz-adv-x="795" 
d="M636.5 -1.5q-29.5 17.5 -59.5 53.5l-389 413q-7 10 -11 10q-7 0 -7 -19q0 -73 3 -165q1 -36 2 -82t1 -96q0 -33 20.5 -51t62.5 -28q27 -7 27 -21q0 -7 -7.5 -11t-16.5 -4q-32 0 -66 2l-49 1q-29 0 -57 -1.5t-36 -2.5q-7 0 -15 4.5t-8 10.5q0 8 6 12.5t18 9.5q45 18 50 81
q21 222 21 393q0 47 -22.5 71t-66.5 41q-27 7 -27 22q0 16 26 16l76 -2q120 -3 127 -3q13 0 20 -10l369 -409q10 -12 14 -12q8 0 8 14v105q0 156 -3 212q-1 28 -19 41t-59 24q-23 6 -23 21q0 6 6.5 10.5t14.5 4.5l65 -1q13 -1 41 -1l46 1q32 2 60 2q11 0 17.5 -4t6.5 -11
q0 -16 -25 -21q-36 -7 -51 -20.5t-15 -42.5q0 -60 -7 -228q-5 -98 -5 -158q0 -23 3.5 -56.5t4.5 -43.5q4 -38 4 -40q0 -49 -29 -49q-17 0 -46.5 17.5zM335 -280q0 6 3.5 9.5t11.5 7.5q52 23 52 67q0 21 -10.5 31.5t-33.5 16.5q-19 5 -28.5 17t-9.5 34q0 20 17.5 34t47.5 14
q45 0 72 -28.5t27 -73.5q0 -43 -23.5 -75t-54.5 -49.5t-48 -17.5q-23 0 -23 13z" />
    <glyph glyph-name="uni0146" unicode="&#x146;" horiz-adv-x="574" 
d="M26.5 1.5q-6.5 4.5 -6.5 10.5q0 13 23 21q19 6 28 13t9 25v232q0 47 -30 52q-4 1 -7.5 6t-3.5 13q0 15 10 18q38 9 82 22.5t72 27.5q2 1 9 5t11 4q10 0 10 -13l-2 -21q-3 -33 -3 -35q0 -13 2 -15q38 35 71 52t76 17q55 0 90 -39t35 -105v-222q0 -18 8.5 -24.5t28.5 -12.5
q20 -7 20 -21q0 -6 -5.5 -10.5t-11.5 -4.5q-31 0 -60 3q-36 2 -52 2q-17 0 -51 -2q-28 -3 -59 -3q-6 0 -11 4.5t-5 10.5q0 14 19 21q19 6 26.5 12.5t7.5 24.5v197q0 37 -16 58t-42 21q-18 0 -33 -5.5t-33 -17.5q-8 -5 -8 -18v-235q0 -18 7.5 -24t26.5 -13t19 -21
q0 -6 -5 -10.5t-11 -4.5q-30 0 -57 3q-34 2 -50 2t-54 -2q-30 -3 -61 -3q-7 0 -13.5 4.5zM233 -280q0 6 3.5 9.5t11.5 7.5q52 23 52 67q0 21 -10.5 31.5t-33.5 16.5q-19 5 -28.5 17t-9.5 34q0 20 17.5 34t47.5 14q45 0 72 -28.5t27 -73.5q0 -43 -23.5 -75t-54.5 -49.5
t-48 -17.5q-23 0 -23 13z" />
    <glyph glyph-name="Ncaron" unicode="&#x147;" horiz-adv-x="813" 
d="M636.5 -1.5q-29.5 17.5 -59.5 53.5l-389 413q-7 10 -11 10q-7 0 -7 -19q0 -73 3 -165q1 -36 2 -82t1 -96q0 -33 20.5 -51t62.5 -28q27 -7 27 -21q0 -7 -7.5 -11t-16.5 -4q-32 0 -66 2l-49 1q-29 0 -57 -1.5t-36 -2.5q-7 0 -15 4.5t-8 10.5q0 8 6 12.5t18 9.5q45 18 50 81
q21 222 21 393q0 47 -22.5 71t-66.5 41q-27 7 -27 22q0 16 26 16l76 -2q120 -3 127 -3q13 0 20 -10l369 -409q10 -12 14 -12q8 0 8 14v105q0 156 -3 212q-1 28 -19 41t-59 24q-23 6 -23 21q0 6 6.5 10.5t14.5 4.5l65 -1q13 -1 41 -1l46 1q32 2 60 2q11 0 17.5 -4t6.5 -11
q0 -16 -25 -21q-36 -7 -51 -20.5t-15 -42.5q0 -60 -7 -228q-5 -98 -5 -158q0 -23 3.5 -56.5t4.5 -43.5q4 -38 4 -40q0 -49 -29 -49q-17 0 -46.5 17.5zM343.5 835.5q49.5 -17.5 72.5 -30.5q8 -4 13 -4t13 4q25 14 73.5 31.5t62.5 17.5q8 0 12.5 -4t4.5 -10q0 -10 -8 -17
l-105 -95q-20 -18 -29.5 -24t-23.5 -6q-13 0 -22.5 6t-29.5 24l-106 96q-9 8 -9 16q0 6 5.5 9.5t14.5 3.5q12 0 61.5 -17.5z" />
    <glyph glyph-name="ncaron" unicode="&#x148;" horiz-adv-x="574" 
d="M26.5 1.5q-6.5 4.5 -6.5 10.5q0 13 23 21q19 6 28 13t9 25v232q0 47 -30 52q-4 1 -7.5 6t-3.5 13q0 15 10 18q38 9 82 22.5t72 27.5q2 1 9 5t11 4q10 0 10 -13l-2 -21q-3 -33 -3 -35q0 -13 2 -15q38 35 71 52t76 17q55 0 90 -39t35 -105v-222q0 -18 8.5 -24.5t28.5 -12.5
q20 -7 20 -21q0 -6 -5.5 -10.5t-11.5 -4.5q-31 0 -60 3q-36 2 -52 2q-17 0 -51 -2q-28 -3 -59 -3q-6 0 -11 4.5t-5 10.5q0 14 19 21q19 6 26.5 12.5t7.5 24.5v197q0 37 -16 58t-42 21q-18 0 -33 -5.5t-33 -17.5q-8 -5 -8 -18v-235q0 -18 7.5 -24t26.5 -13t19 -21
q0 -6 -5 -10.5t-11 -4.5q-30 0 -57 3q-34 2 -50 2t-54 -2q-30 -3 -61 -3q-7 0 -13.5 4.5zM282 464.5q-8 9.5 -22 33.5l-30 51q-27 43 -48 82q-8 16 -8 27q0 18 18 18q8 0 17 -7.5t26 -26.5q4 -4 8.5 -9.5t9.5 -10.5q22 -26 40 -44q4 -4 6 -4t6 4q16 16 58 64q16 18 26 26
t17 8t11.5 -6t4.5 -16q0 -11 -6 -23q-15 -28 -49 -84l-30 -51q-13 -23 -20.5 -32t-17.5 -9q-9 0 -17 9.5z" />
    <glyph glyph-name="napostrophe" unicode="&#x149;" horiz-adv-x="678" 
d="M130.5 1.5q-6.5 4.5 -6.5 10.5q0 13 23 21q19 6 28 13t9 25v232q0 47 -30 52q-4 1 -7.5 6t-3.5 13q0 15 10 18q38 9 82 22.5t72 27.5q2 1 9 5t11 4q10 0 10 -13l-2 -21q-3 -33 -3 -35q0 -13 2 -15q38 35 71 52t76 17q55 0 90 -39t35 -105v-222q0 -18 8.5 -24.5
t28.5 -12.5q20 -7 20 -21q0 -6 -5.5 -10.5t-11.5 -4.5q-31 0 -60 3q-36 2 -52 2q-17 0 -51 -2q-28 -3 -59 -3q-6 0 -11 4.5t-5 10.5q0 14 19 21q19 6 26.5 12.5t7.5 24.5v197q0 37 -16 58t-42 21q-18 0 -33 -5.5t-33 -17.5q-8 -5 -8 -18v-235q0 -18 7.5 -24t26.5 -13t19 -21
q0 -6 -5 -10.5t-11 -4.5q-30 0 -57 3q-34 2 -50 2t-54 -2q-30 -3 -61 -3q-7 0 -13.5 4.5zM-7.5 409.5q-7.5 4.5 -7.5 12.5q0 7 5 10t19 7q41 11 62.5 33t21.5 51q0 18 -11.5 28t-30.5 16q-18 6 -30 21t-12 40q0 26 22.5 45.5t50.5 19.5q47 0 76 -29t29 -76q0 -52 -25 -94
t-65.5 -65.5t-84.5 -23.5q-12 0 -19.5 4.5z" />
    <glyph glyph-name="Eng" unicode="&#x14a;" horiz-adv-x="795" 
d="M464 -251q-24 24 -24 62q0 16 6.5 21t26.5 7q86 5 118.5 29.5t32.5 70.5q0 29 -21 54q-72 85 -187 213q-24 27 -94 106.5t-115 132.5q-7 10 -11 10q-7 0 -7 -19q-4 -180 -4 -323q0 -33 20.5 -51t62.5 -28q27 -7 27 -21q0 -7 -7.5 -11t-16.5 -4q-32 0 -66 2l-49 1
q-29 0 -61 -1.5t-41 -2.5q-7 0 -15 4.5t-8 10.5q0 8 6 12.5t18 9.5q45 18 50 81q6 65 11 173.5t5 221.5q0 48 -20.5 70.5t-63.5 39.5q-27 7 -27 22q0 16 26 16l78 -2q126 -3 131 -3q13 0 20 -10q59 -69 167 -201l167 -202q10 -12 14 -12q8 0 8 14v44q2 104 2 261
q0 29 -17 45.5t-55 25.5q-23 6 -23 21q0 6 6.5 10.5t14.5 4.5l65 -1q13 -1 41 -1l46 1q32 2 60 2q11 0 17.5 -4t6.5 -11q0 -16 -25 -21q-36 -7 -51 -20.5t-15 -42.5l-3 -521q0 -80 -21 -151.5t-59 -115t-84 -43.5q-39 0 -63 24z" />
    <glyph glyph-name="eng" unicode="&#x14b;" horiz-adv-x="560" 
d="M247.5 -275q-17.5 10 -17.5 25q0 19 9 34.5t19 15.5q4 0 15 -5t16 -7q30 -13 37 -13q8 0 11 11q10 38 16 99.5t5 135.5l-1 246q0 36 -15.5 57t-42.5 22q-35 0 -59 -19q-15 -12 -15 -60v-197q0 -18 7.5 -24t26.5 -13t19 -21q0 -6 -5 -10.5t-11 -4.5q-30 0 -57 3
q-34 2 -50 2t-54 -2q-30 -3 -61 -3q-7 0 -13.5 4.5t-6.5 10.5q0 13 23 21q19 6 28 13t9 25v232q0 47 -30 52q-4 1 -7.5 6t-3.5 13q0 15 10 18q38 9 82 22.5t72 27.5q2 1 9 5t11 4q10 0 10 -13l-2 -21q-3 -33 -3 -35q0 -13 2 -15q38 34 77 52t83 18q48 0 80 -42t32 -103v-276
q0 -60 -37 -131t-88 -120.5t-87 -49.5q-25 0 -42.5 10z" />
    <glyph glyph-name="Omacron" unicode="&#x14c;" horiz-adv-x="759" 
d="M201.5 27.5q-80.5 41.5 -128.5 116.5t-48 171q0 92 42 172t123.5 128.5t193.5 48.5q93 0 173.5 -41.5t128.5 -116.5t48 -171q0 -92 -42 -172t-123.5 -128.5t-193.5 -48.5q-93 0 -173.5 41.5zM511.5 101q41.5 68 41.5 182q0 85 -20.5 161t-63 124t-105.5 48
q-77 0 -117.5 -68t-40.5 -181q0 -84 20.5 -160.5t62.5 -125t104 -48.5q77 0 118.5 68zM233 721.5q-6 5.5 -6 13.5q0 29 12.5 48t27.5 19h270q9 0 14.5 -5.5t5.5 -13.5q0 -26 -13 -46.5t-30 -20.5h-266q-9 0 -15 5.5z" />
    <glyph glyph-name="omacron" unicode="&#x14d;" horiz-adv-x="505" 
d="M128 13q-50 27 -78.5 75.5t-28.5 108.5q0 65 32 120t86.5 87.5t120.5 32.5q61 0 112.5 -29t81.5 -77.5t30 -104.5q0 -67 -28 -121.5t-83.5 -86.5t-134.5 -32q-60 0 -110 27zM310 62q22 37 22 140q0 83 -24 135.5t-63 52.5q-26 0 -43 -17t-23.5 -53.5t-6.5 -97.5
q0 -48 11 -91.5t30.5 -70.5t43.5 -27q35 0 53 29zM101 515.5q-6 5.5 -6 13.5q0 29 12.5 48t27.5 19h270q9 0 14.5 -5.5t5.5 -13.5q0 -26 -13 -46.5t-30 -20.5h-266q-9 0 -15 5.5z" />
    <glyph glyph-name="Obreve" unicode="&#x14e;" horiz-adv-x="759" 
d="M201.5 27.5q-80.5 41.5 -128.5 116.5t-48 171q0 92 42 172t123.5 128.5t193.5 48.5q93 0 173.5 -41.5t128.5 -116.5t48 -171q0 -92 -42 -172t-123.5 -128.5t-193.5 -48.5q-93 0 -173.5 41.5zM511.5 101q41.5 68 41.5 182q0 85 -20.5 161t-63 124t-105.5 48
q-77 0 -117.5 -68t-40.5 -181q0 -84 20.5 -160.5t62.5 -125t104 -48.5q77 0 118.5 68zM311 706q-33 21 -49.5 50.5t-16.5 56.5q0 15 2.5 21t11.5 6q7 0 12 -3.5t10 -9.5t8 -9q24 -26 46 -36t57 -10t57 10t46 36q3 3 9 9.5t10.5 9.5t10.5 3q9 0 11.5 -6t2.5 -21
q0 -27 -16.5 -56.5t-49.5 -50.5t-81 -21t-81 21z" />
    <glyph glyph-name="obreve" unicode="&#x14f;" horiz-adv-x="505" 
d="M128 13q-50 27 -78.5 75.5t-28.5 108.5q0 65 32 120t86.5 87.5t120.5 32.5q61 0 112.5 -29t81.5 -77.5t30 -104.5q0 -67 -28 -121.5t-83.5 -86.5t-134.5 -32q-60 0 -110 27zM310 62q22 37 22 140q0 83 -24 135.5t-63 52.5q-26 0 -43 -17t-23.5 -53.5t-6.5 -97.5
q0 -48 11 -91.5t30.5 -70.5t43.5 -27q35 0 53 29zM183.5 487.5q-29.5 21.5 -41.5 50t-12 52.5q0 17 7.5 26.5t17.5 9.5q17 0 22 -21q7 -28 26.5 -40t56.5 -12t56.5 12t26.5 40q5 21 22 21q10 0 17.5 -9.5t7.5 -26.5q0 -24 -12 -52.5t-41.5 -50t-76.5 -21.5t-76.5 21.5z" />
    <glyph glyph-name="Ohungarumlaut" unicode="&#x150;" horiz-adv-x="759" 
d="M201.5 27.5q-80.5 41.5 -128.5 116.5t-48 171q0 92 42 172t123.5 128.5t193.5 48.5q93 0 173.5 -41.5t128.5 -116.5t48 -171q0 -92 -42 -172t-123.5 -128.5t-193.5 -48.5q-93 0 -173.5 41.5zM511.5 101q41.5 68 41.5 182q0 85 -20.5 161t-63 124t-105.5 48
q-77 0 -117.5 -68t-40.5 -181q0 -84 20.5 -160.5t62.5 -125t104 -48.5q77 0 118.5 68zM404 691q0 7 12 22q60 75 112 127q14 14 35 11q17 -2 47 -16t27 -25t-20 -22q-48 -29 -96 -55l-77 -44q-8 -5 -16 -7t-11 -1q-13 3 -13 10zM236 691q0 7 12 22q60 75 112 127
q14 14 35 11q17 -2 47 -16t27 -25t-20 -22q-48 -29 -96 -55l-77 -44q-8 -5 -16 -7t-11 -1q-13 3 -13 10z" />
    <glyph glyph-name="ohungarumlaut" unicode="&#x151;" horiz-adv-x="505" 
d="M128 13q-50 27 -78.5 75.5t-28.5 108.5q0 65 32 120t86.5 87.5t120.5 32.5q61 0 112.5 -29t81.5 -77.5t30 -104.5q0 -67 -28 -121.5t-83.5 -86.5t-134.5 -32q-60 0 -110 27zM310 62q22 37 22 140q0 83 -24 135.5t-63 52.5q-26 0 -43 -17t-23.5 -53.5t-6.5 -97.5
q0 -48 11 -91.5t30.5 -70.5t43.5 -27q35 0 53 29zM159 463q-3 4 -3 10q0 15 8 37q7 19 16.5 43t18.5 47l17 43q12 31 42 31q34 0 51 -6t17 -21q0 -7 -8 -20q-17 -27 -38.5 -53t-65.5 -76l-22 -24q-13 -15 -26 -15q-4 0 -7 4zM305 462.5q-3 3.5 -3 10.5q0 13 10 34l23 49
q45 96 41 88q14 27 40 27q32 0 50.5 -8t18.5 -23q0 -9 -10 -22q-33 -44 -115 -124l-23 -23q-12 -12 -25 -12q-4 0 -7 3.5z" />
    <glyph glyph-name="OE" unicode="&#x152;" horiz-adv-x="995" 
d="M981 140q0 -18 -5 -39t-16 -55l-11 -38q-4 -12 -24 -12l-39 1q-195 3 -289 3q-35 0 -77 -3q-38 -2 -55 -2q-42 -9 -90 -9q-93 0 -173.5 41.5t-128.5 116.5t-48 171q0 92 42 172t123.5 128.5t193.5 48.5q44 0 84 -9q19 0 59 -2q37 -3 70 -3q134 0 233 3q31 0 52.5 4
t24.5 4q9 0 17 -5t9 -16q3 -33 9 -61q8 -56 8 -74q0 -9 -3.5 -14.5t-9.5 -5.5t-11.5 4.5t-9.5 12.5q-15 37 -22 51t-17 24q-14 14 -31 23t-42 9h-63q-25 0 -41 -12.5t-16 -33.5v-184q0 -24 26 -24h85q23 0 34.5 15t23.5 47q8 18 21 18q5 0 9 -6.5t3 -16.5q-5 -48 -5 -83
q0 -43 4 -83v-8q0 -20 -10 -20q-7 0 -14 7t-10 17q-9 34 -21 50t-30 16h-94q-22 0 -22 -23v-189q0 -27 11.5 -39t37.5 -12h89q46 0 73 23q29 24 57 80q6 12 19 12q10 0 10 -20zM254.5 124.5q46.5 -82.5 131.5 -82.5q65 0 96.5 22.5t31.5 84.5v314q0 78 -39 111t-104 33
q-79 0 -121 -70t-42 -193q0 -137 46.5 -219.5z" />
    <glyph glyph-name="oe" unicode="&#x153;" horiz-adv-x="763" 
d="M128 13q-50 27 -78.5 75.5t-28.5 108.5q0 65 32 120t86.5 87.5t120.5 32.5q61 0 112.5 -29t81.5 -77.5t30 -104.5q0 -67 -28 -121.5t-83.5 -86.5t-134.5 -32q-60 0 -110 27zM310 62q22 37 22 140q0 83 -24 135.5t-63 52.5q-26 0 -43 -17t-23.5 -53.5t-6.5 -97.5
q0 -48 11 -91.5t30.5 -70.5t43.5 -27q35 0 53 29zM454.5 15q-43.5 29 -68.5 79t-25 111q0 63 30 116t81.5 84t112.5 31q42 0 77.5 -19t56.5 -51t21 -71q0 -20 -7.5 -29.5t-23.5 -9.5h-198q-14 0 -20.5 -8t-6.5 -27q0 -55 35 -92t90 -37q27 0 51 10.5t52 30.5q9 7 14 7
q11 0 11 -13q0 -9 -6 -27q-15 -45 -63.5 -79.5t-116.5 -34.5q-53 0 -96.5 29zM564 300q24 0 35.5 1t20.5 4q4 1 7.5 10t3.5 20q0 26 -16.5 42.5t-42.5 16.5q-30 0 -54 -25t-22 -54q0 -7 4 -11t11 -4h53z" />
    <glyph glyph-name="Racute" unicode="&#x154;" horiz-adv-x="770" 
d="M526 5q-44 26 -80 74q-36 49 -64 94t-54 102q-10 22 -24 30q-11 7 -24 7q-10 0 -10 -20v-194q0 -30 16.5 -42t61.5 -22q10 -2 14.5 -7t4.5 -14q0 -15 -16 -15l-87 2l-81 2q-18 0 -72 -2q-40 -3 -78 -3q-6 0 -12 4.5t-6 10.5q0 17 19 22q39 8 52.5 20.5t13.5 42.5v454
q0 32 -12 45.5t-48 21.5q-21 5 -21 21q0 7 5.5 11.5t14.5 4.5q36 0 80 -4q40 -4 63 -4q19 0 55 4q44 6 89 6q120 0 183.5 -40t63.5 -120q0 -61 -38 -98.5t-93 -53.5q-3 -1 -3 -5t2 -7q50 -75 92 -130t82 -93q31 -29 64.5 -37t80.5 -8q15 0 15 -19q0 -67 -128 -67
q-77 0 -121 26zM383.5 380q26.5 34 26.5 93q0 70 -26 103.5t-75 33.5q-21 0 -30 -18.5t-9 -73.5v-134q0 -38 35 -38q52 0 78.5 34zM259 691q0 7 12 22q60 75 112 127q14 14 35 11q17 -2 47 -16t27 -25t-20 -22q-48 -29 -96 -55l-77 -44q-8 -5 -16 -7t-11 -1q-13 3 -13 10z
" />
    <glyph glyph-name="racute" unicode="&#x155;" horiz-adv-x="432" 
d="M26 1.5q-6 4.5 -6 10.5q0 14 23 21q22 7 29.5 14.5t7.5 23.5v233q0 21 -5.5 32.5t-21.5 16.5q-7 2 -10.5 6t-3.5 13q0 15 13 18q36 8 76 21t68 26q19 11 25 11q10 0 10 -12l-1 -30l-2 -50q0 -10 4 -10q27 37 61 64t69 27q67 0 67 -50q0 -26 -20 -54.5t-42 -28.5
q-9 0 -20 4.5t-22 10.5q-28 14 -38 14q-29 0 -45.5 -21.5t-16.5 -75.5v-154q0 -21 11.5 -31t40.5 -19q22 -6 22 -20q0 -6 -4.5 -10.5t-11.5 -4.5q-33 0 -68 3q-44 2 -60 2t-54 -2q-30 -3 -61 -3q-8 0 -14 4.5zM234 465q0 10 5 22q14 35 33.5 80t29.5 66q8 16 18.5 21.5
t30.5 5.5q26 0 43.5 -6.5t17.5 -18.5q0 -14 -10 -25l-25 -28q-61 -70 -106 -115q-15 -15 -26 -15t-11 13z" />
    <glyph glyph-name="uni0156" unicode="&#x156;" horiz-adv-x="770" 
d="M526 5q-44 26 -80 74q-36 49 -64 94t-54 102q-10 22 -24 30q-11 7 -24 7q-10 0 -10 -20v-194q0 -30 16.5 -42t61.5 -22q10 -2 14.5 -7t4.5 -14q0 -15 -16 -15l-87 2l-81 2q-18 0 -72 -2q-40 -3 -78 -3q-6 0 -12 4.5t-6 10.5q0 17 19 22q39 8 52.5 20.5t13.5 42.5v454
q0 32 -12 45.5t-48 21.5q-21 5 -21 21q0 7 5.5 11.5t14.5 4.5q36 0 80 -4q40 -4 63 -4q19 0 55 4q44 6 89 6q120 0 183.5 -40t63.5 -120q0 -61 -38 -98.5t-93 -53.5q-3 -1 -3 -5t2 -7q50 -75 92 -130t82 -93q31 -29 64.5 -37t80.5 -8q15 0 15 -19q0 -67 -128 -67
q-77 0 -121 26zM383.5 380q26.5 34 26.5 93q0 70 -26 103.5t-75 33.5q-21 0 -30 -18.5t-9 -73.5v-134q0 -38 35 -38q52 0 78.5 34zM309 -280q0 6 3.5 9.5t11.5 7.5q52 23 52 67q0 21 -10.5 31.5t-33.5 16.5q-19 5 -28.5 17t-9.5 34q0 20 17.5 34t47.5 14q45 0 72 -28.5
t27 -73.5q0 -43 -23.5 -75t-54.5 -49.5t-48 -17.5q-23 0 -23 13z" />
    <glyph glyph-name="uni0157" unicode="&#x157;" horiz-adv-x="432" 
d="M26 1.5q-6 4.5 -6 10.5q0 14 23 21q22 7 29.5 14.5t7.5 23.5v233q0 21 -5.5 32.5t-21.5 16.5q-7 2 -10.5 6t-3.5 13q0 15 13 18q36 8 76 21t68 26q19 11 25 11q10 0 10 -12l-1 -30l-2 -50q0 -10 4 -10q27 37 61 64t69 27q67 0 67 -50q0 -26 -20 -54.5t-42 -28.5
q-9 0 -20 4.5t-22 10.5q-28 14 -38 14q-29 0 -45.5 -21.5t-16.5 -75.5v-154q0 -21 11.5 -31t40.5 -19q22 -6 22 -20q0 -6 -4.5 -10.5t-11.5 -4.5q-33 0 -68 3q-44 2 -60 2t-54 -2q-30 -3 -61 -3q-8 0 -14 4.5zM106 -280q0 6 3.5 9.5t11.5 7.5q52 23 52 67q0 21 -10.5 31.5
t-33.5 16.5q-19 5 -28.5 17t-9.5 34q0 20 17.5 34t47.5 14q45 0 72 -28.5t27 -73.5q0 -43 -23.5 -75t-54.5 -49.5t-48 -17.5q-23 0 -23 13z" />
    <glyph glyph-name="Rcaron" unicode="&#x158;" horiz-adv-x="770" 
d="M526 5q-44 26 -80 74q-36 49 -64 94t-54 102q-10 22 -24 30q-11 7 -24 7q-10 0 -10 -20v-194q0 -30 16.5 -42t61.5 -22q10 -2 14.5 -7t4.5 -14q0 -15 -16 -15l-87 2l-81 2q-18 0 -72 -2q-40 -3 -78 -3q-6 0 -12 4.5t-6 10.5q0 17 19 22q39 8 52.5 20.5t13.5 42.5v454
q0 32 -12 45.5t-48 21.5q-21 5 -21 21q0 7 5.5 11.5t14.5 4.5q36 0 80 -4q40 -4 63 -4q19 0 55 4q44 6 89 6q120 0 183.5 -40t63.5 -120q0 -61 -38 -98.5t-93 -53.5q-3 -1 -3 -5t2 -7q50 -75 92 -130t82 -93q31 -29 64.5 -37t80.5 -8q15 0 15 -19q0 -67 -128 -67
q-77 0 -121 26zM383.5 380q26.5 34 26.5 93q0 70 -26 103.5t-75 33.5q-21 0 -30 -18.5t-9 -73.5v-134q0 -38 35 -38q52 0 78.5 34zM237.5 835.5q49.5 -17.5 72.5 -30.5q8 -4 13 -4t13 4q25 14 73.5 31.5t62.5 17.5q8 0 12.5 -4t4.5 -10q0 -10 -8 -17l-105 -95
q-20 -18 -29.5 -24t-23.5 -6q-13 0 -22.5 6t-29.5 24l-106 96q-9 8 -9 16q0 6 5.5 9.5t14.5 3.5q12 0 61.5 -17.5z" />
    <glyph glyph-name="rcaron" unicode="&#x159;" horiz-adv-x="432" 
d="M26 1.5q-6 4.5 -6 10.5q0 14 23 21q22 7 29.5 14.5t7.5 23.5v233q0 21 -5.5 32.5t-21.5 16.5q-7 2 -10.5 6t-3.5 13q0 15 13 18q36 8 76 21t68 26q19 11 25 11q10 0 10 -12l-1 -30l-2 -50q0 -10 4 -10q27 37 61 64t69 27q67 0 67 -50q0 -26 -20 -54.5t-42 -28.5
q-9 0 -20 4.5t-22 10.5q-28 14 -38 14q-29 0 -45.5 -21.5t-16.5 -75.5v-154q0 -21 11.5 -31t40.5 -19q22 -6 22 -20q0 -6 -4.5 -10.5t-11.5 -4.5q-33 0 -68 3q-44 2 -60 2t-54 -2q-30 -3 -61 -3q-8 0 -14 4.5zM256 464.5q-8 9.5 -22 33.5l-30 51q-27 43 -48 82q-8 16 -8 27
q0 18 18 18q8 0 17 -7.5t26 -26.5q4 -4 8.5 -9.5t9.5 -10.5q22 -26 40 -44q4 -4 6 -4t6 4q16 16 58 64q16 18 26 26t17 8t11.5 -6t4.5 -16q0 -11 -6 -23q-15 -28 -49 -84l-30 -51q-13 -23 -20.5 -32t-17.5 -9q-9 0 -17 9.5z" />
    <glyph glyph-name="Sacute" unicode="&#x15a;" horiz-adv-x="500" 
d="M61 27q-17 10 -23 25q-18 47 -18 122q0 21 1 32q0 13 19 13q10 0 14 -2.5t8 -10.5q24 -78 69 -125t104 -47q43 0 66 28.5t23 63.5q0 42 -25 68t-89 61q-56 30 -90 55t-57.5 64.5t-23.5 94.5q0 58 32 102.5t87 68.5t120 24q36 0 72.5 -7.5t60.5 -17.5q13 -5 18 -11t10 -22
q10 -40 10 -121q0 -5 -5 -9t-14 -4t-16 4.5t-9 11.5q-16 61 -50 93t-83 32q-89 0 -89 -85q0 -31 31.5 -58.5t102.5 -69.5q85 -51 116.5 -97.5t31.5 -113.5q0 -103 -64.5 -153t-178.5 -50q-93 0 -161 41zM210 691q0 7 12 22q60 75 112 127q14 14 35 11q17 -2 47 -16t27 -25
t-20 -22q-48 -29 -96 -55l-77 -44q-8 -5 -16 -7t-11 -1q-13 3 -13 10z" />
    <glyph glyph-name="sacute" unicode="&#x15b;" horiz-adv-x="368" 
d="M46 19q-10 15 -14.5 48.5t-2.5 73.5q0 6 6 9.5t15 3.5q8 0 14.5 -5.5t9.5 -11.5q24 -49 47.5 -76t57.5 -27q24 0 37.5 15t13.5 36q0 23 -18.5 40t-48.5 32q-53 26 -85.5 59.5t-32.5 87.5q0 59 48 96t118 37q31 0 61 -7t43 -15q8 -10 12.5 -38t4.5 -65q0 -5 -5.5 -8
t-14.5 -3q-7 0 -15 5.5t-10 10.5q-13 39 -33.5 59.5t-44.5 20.5q-23 0 -40 -14.5t-17 -36.5q0 -18 18 -34t50 -33q68 -36 95 -68t27 -84q0 -68 -43.5 -104.5t-128.5 -36.5q-74 0 -124 33zM164 465q0 10 5 22q14 35 33.5 80t29.5 66q8 16 18.5 21.5t30.5 5.5q26 0 43.5 -6.5
t17.5 -18.5q0 -14 -10 -25l-25 -28q-61 -70 -106 -115q-15 -15 -26 -15t-11 13z" />
    <glyph glyph-name="Scircumflex" unicode="&#x15c;" horiz-adv-x="500" 
d="M61 27q-17 10 -23 25q-18 47 -18 122q0 21 1 32q0 13 19 13q10 0 14 -2.5t8 -10.5q24 -78 69 -125t104 -47q43 0 66 28.5t23 63.5q0 42 -25 68t-89 61q-56 30 -90 55t-57.5 64.5t-23.5 94.5q0 58 32 102.5t87 68.5t120 24q36 0 72.5 -7.5t60.5 -17.5q13 -5 18 -11t10 -22
q10 -40 10 -121q0 -5 -5 -9t-14 -4t-16 4.5t-9 11.5q-16 61 -50 93t-83 32q-89 0 -89 -85q0 -31 31.5 -58.5t102.5 -69.5q85 -51 116.5 -97.5t31.5 -113.5q0 -103 -64.5 -153t-178.5 -50q-93 0 -161 41zM112.5 695.5q-5.5 3.5 -5.5 9.5q0 9 9 16l106 96q20 18 29.5 24
t22.5 6q14 0 23.5 -6t29.5 -24l105 -95q8 -7 8 -17q0 -6 -4.5 -10t-12.5 -4q-14 0 -62.5 17.5t-73.5 31.5q-5 4 -13 4t-13 -4q-23 -13 -72.5 -30.5t-61.5 -17.5q-9 0 -14.5 3.5z" />
    <glyph glyph-name="scircumflex" unicode="&#x15d;" horiz-adv-x="368" 
d="M46 19q-10 15 -14.5 48.5t-2.5 73.5q0 6 6 9.5t15 3.5q8 0 14.5 -5.5t9.5 -11.5q24 -49 47.5 -76t57.5 -27q24 0 37.5 15t13.5 36q0 23 -18.5 40t-48.5 32q-53 26 -85.5 59.5t-32.5 87.5q0 59 48 96t118 37q31 0 61 -7t43 -15q8 -10 12.5 -38t4.5 -65q0 -5 -5.5 -8
t-14.5 -3q-7 0 -15 5.5t-10 10.5q-13 39 -33.5 59.5t-44.5 20.5q-23 0 -40 -14.5t-17 -36.5q0 -18 18 -34t50 -33q68 -36 95 -68t27 -84q0 -68 -43.5 -104.5t-128.5 -36.5q-74 0 -124 33zM220.5 667q7.5 -9 20.5 -32l30 -51q34 -56 49 -84q6 -12 6 -23q0 -10 -4.5 -16
t-11.5 -6t-17 8t-26 26q-42 48 -58 64q-4 4 -6 4t-6 -4q-18 -18 -40 -44q-5 -5 -9.5 -10.5t-8.5 -9.5q-17 -19 -26 -26.5t-17 -7.5q-18 0 -18 18q0 11 8 27q21 39 48 82l30 51q14 24 22 33.5t17 9.5q10 0 17.5 -9z" />
    <glyph glyph-name="Scedilla" unicode="&#x15e;" horiz-adv-x="490" 
d="M61 27q-17 10 -23 25q-18 47 -18 122q0 21 1 32q0 13 19 13q10 0 14 -2.5t8 -10.5q24 -78 69 -125t104 -47q43 0 66 28.5t23 63.5q0 42 -25 68t-89 61q-56 30 -90 55t-57.5 64.5t-23.5 94.5q0 58 32 102.5t87 68.5t120 24q36 0 72.5 -7.5t60.5 -17.5q13 -5 18 -11t10 -22
q10 -40 10 -121q0 -5 -5 -9t-14 -4t-16 4.5t-9 11.5q-16 61 -50 93t-83 32q-89 0 -89 -85q0 -31 31.5 -58.5t102.5 -69.5q85 -51 116.5 -97.5t31.5 -113.5q0 -103 -64.5 -153t-178.5 -50q-93 0 -161 41zM140.5 -266.5q-12.5 8.5 -12.5 37.5q0 14 6.5 22t14.5 8q2 0 17 -6.5
t43 -6.5q18 0 31.5 8.5t13.5 29.5q0 37 -49 37q-6 0 -13 -3t-11 -3q-14 0 -22 8t-8 15q0 12 7 20l95 108h49l-35 -45q-5 -7 -5 -11q0 -7 9 -10q64 -25 64 -82q0 -34 -24 -65t-60.5 -50.5t-69.5 -19.5q-28 0 -40.5 8.5z" />
    <glyph glyph-name="scedilla" unicode="&#x15f;" horiz-adv-x="368" 
d="M46 19q-10 15 -14.5 48.5t-2.5 73.5q0 6 6 9.5t15 3.5q8 0 14.5 -5.5t9.5 -11.5q24 -49 47.5 -76t57.5 -27q24 0 37.5 15t13.5 36q0 23 -18.5 40t-48.5 32q-53 26 -85.5 59.5t-32.5 87.5q0 59 48 96t118 37q31 0 61 -7t43 -15q8 -10 12.5 -38t4.5 -65q0 -5 -5.5 -8
t-14.5 -3q-7 0 -15 5.5t-10 10.5q-13 39 -33.5 59.5t-44.5 20.5q-23 0 -40 -14.5t-17 -36.5q0 -18 18 -34t50 -33q68 -36 95 -68t27 -84q0 -68 -43.5 -104.5t-128.5 -36.5q-74 0 -124 33zM103 -264q-11 10 -11 39q0 15 4 20.5t14 5.5q5 0 23 -6q29 -11 47 -11q27 0 27 39
q0 18 -17.5 28.5t-38.5 10.5q-10 0 -20 -5t-14 -5q-8 0 -15.5 7.5t-7.5 18.5q0 4 4.5 12t11.5 15l90 103h47l-35 -41q-6 -8 -6 -11q0 -5 13 -11q26 -12 39.5 -32t13.5 -53q0 -32 -21.5 -63t-53 -51t-58.5 -20q-25 0 -36 10z" />
    <glyph glyph-name="Scaron" unicode="&#x160;" horiz-adv-x="500" 
d="M61 27q-17 10 -23 25q-18 47 -18 122q0 21 1 32q0 13 19 13q10 0 14 -2.5t8 -10.5q24 -78 69 -125t104 -47q43 0 66 28.5t23 63.5q0 42 -25 68t-89 61q-56 30 -90 55t-57.5 64.5t-23.5 94.5q0 58 32 102.5t87 68.5t120 24q36 0 72.5 -7.5t60.5 -17.5q13 -5 18 -11t10 -22
q10 -40 10 -121q0 -5 -5 -9t-14 -4t-16 4.5t-9 11.5q-16 61 -50 93t-83 32q-89 0 -89 -85q0 -31 31.5 -58.5t102.5 -69.5q85 -51 116.5 -97.5t31.5 -113.5q0 -103 -64.5 -153t-178.5 -50q-93 0 -161 41zM188.5 835.5q49.5 -17.5 72.5 -30.5q8 -4 13 -4t13 4q25 14 73.5 31.5
t62.5 17.5q8 0 12.5 -4t4.5 -10q0 -10 -8 -17l-105 -95q-20 -18 -29.5 -24t-23.5 -6q-13 0 -22.5 6t-29.5 24l-106 96q-9 8 -9 16q0 6 5.5 9.5t14.5 3.5q12 0 61.5 -17.5z" />
    <glyph glyph-name="scaron" unicode="&#x161;" horiz-adv-x="368" 
d="M46 19q-10 15 -14.5 48.5t-2.5 73.5q0 6 6 9.5t15 3.5q8 0 14.5 -5.5t9.5 -11.5q24 -49 47.5 -76t57.5 -27q24 0 37.5 15t13.5 36q0 23 -18.5 40t-48.5 32q-53 26 -85.5 59.5t-32.5 87.5q0 59 48 96t118 37q31 0 61 -7t43 -15q8 -10 12.5 -38t4.5 -65q0 -5 -5.5 -8
t-14.5 -3q-7 0 -15 5.5t-10 10.5q-13 39 -33.5 59.5t-44.5 20.5q-23 0 -40 -14.5t-17 -36.5q0 -18 18 -34t50 -33q68 -36 95 -68t27 -84q0 -68 -43.5 -104.5t-128.5 -36.5q-74 0 -124 33zM186 464.5q-8 9.5 -22 33.5l-30 51q-27 43 -48 82q-8 16 -8 27q0 18 18 18
q8 0 17 -7.5t26 -26.5q4 -4 8.5 -9.5t9.5 -10.5q22 -26 40 -44q4 -4 6 -4t6 4q16 16 58 64q16 18 26 26t17 8t11.5 -6t4.5 -16q0 -11 -6 -23q-15 -28 -49 -84l-30 -51q-13 -23 -20.5 -32t-17.5 -9q-9 0 -17 9.5z" />
    <glyph glyph-name="uni0162" unicode="&#x162;" horiz-adv-x="701" 
d="M190 1.5q-7 4.5 -7 10.5q0 17 22 22q40 9 55.5 21.5t15.5 41.5v418q0 52 -3.5 66.5t-11.5 19.5q-12 7 -41 7h-17q-32 0 -62 -16.5t-49 -41.5q-17 -23 -31 -38t-27 -15q-16 0 -16 18q0 13 7 27q21 42 30 69.5t12 62.5q3 26 26 26q6 0 18 -16q8 -12 16 -18q9 -7 32.5 -11.5
t39.5 -4.5l382 1q21 0 38 4.5t25 9.5q6 3 23 18q16 16 27 16q12 0 12 -16q0 -5 -2 -19q-2 -7 -9 -32t-10.5 -45t-3.5 -36v-21q0 -19 -4 -28t-13 -9q-10 0 -16.5 9t-13.5 30q-13 41 -35.5 58.5t-64.5 17.5h-41q-18 0 -27.5 -8t-14.5 -31t-5 -66v-405q0 -27 14.5 -39.5
t55.5 -24.5q11 -4 16.5 -8t5.5 -13q0 -7 -5.5 -11t-13.5 -4q-21 0 -83 2l-77 2q-18 0 -74 -2q-43 -3 -81 -3q-7 0 -14 4.5zM248.5 -266.5q-12.5 8.5 -12.5 37.5q0 14 6.5 22t14.5 8q2 0 17 -6.5t43 -6.5q18 0 31.5 8.5t13.5 29.5q0 37 -49 37q-6 0 -13 -3t-11 -3
q-14 0 -22 8t-8 15q0 12 7 20l95 108h49l-35 -45q-5 -7 -5 -11q0 -7 9 -10q64 -25 64 -82q0 -34 -24 -65t-60.5 -50.5t-69.5 -19.5q-28 0 -40.5 8.5z" />
    <glyph glyph-name="uni0163" unicode="&#x163;" horiz-adv-x="388" 
d="M122.5 19.5q-34.5 33.5 -34.5 96.5v230q0 9 -7 13t-24 5h-15q-6 0 -11.5 12t-5.5 23q0 7 6 9q53 17 158 107q2 1 7.5 5.5t10 6.5t9.5 2q10 0 13.5 -4.5t2.5 -17.5l-7 -62q-3 -22 25 -22h120q2 0 5 -7t3 -12q0 -16 -4 -29.5t-9 -13.5h-92q-21 0 -30.5 -6t-9.5 -19v-187
q0 -46 17 -69t47 -23q20 0 32 3t20.5 7t12.5 6t7 2q5 0 8 -6.5t3 -15.5q0 -7 -23.5 -23.5t-59 -30t-71.5 -13.5q-69 0 -103.5 33.5zM120 -264q-11 10 -11 39q0 15 4 20.5t14 5.5q5 0 23 -6q29 -11 47 -11q27 0 27 39q0 18 -17.5 28.5t-38.5 10.5q-10 0 -20 -5t-14 -5
q-8 0 -15.5 7.5t-7.5 18.5q0 4 4.5 12t11.5 15l90 103h47l-35 -41q-6 -8 -6 -11q0 -5 13 -11q26 -12 39.5 -32t13.5 -53q0 -32 -21.5 -63t-53 -51t-58.5 -20q-25 0 -36 10z" />
    <glyph glyph-name="Tcaron" unicode="&#x164;" horiz-adv-x="701" 
d="M190 1.5q-7 4.5 -7 10.5q0 17 22 22q40 9 55.5 21.5t15.5 41.5v418q0 52 -3.5 66.5t-11.5 19.5q-12 7 -41 7h-17q-32 0 -62 -16.5t-49 -41.5q-17 -23 -31 -38t-27 -15q-16 0 -16 18q0 13 7 27q21 42 30 69.5t12 62.5q3 26 26 26q6 0 18 -16q8 -12 16 -18q9 -7 32.5 -11.5
t39.5 -4.5l382 1q21 0 38 4.5t25 9.5q6 3 23 18q16 16 27 16q12 0 12 -16q0 -5 -2 -19q-2 -7 -9 -32t-10.5 -45t-3.5 -36v-21q0 -19 -4 -28t-13 -9q-10 0 -16.5 9t-13.5 30q-13 41 -35.5 58.5t-64.5 17.5h-41q-18 0 -27.5 -8t-14.5 -31t-5 -66v-405q0 -27 14.5 -39.5
t55.5 -24.5q11 -4 16.5 -8t5.5 -13q0 -7 -5.5 -11t-13.5 -4q-21 0 -83 2l-77 2q-18 0 -74 -2q-43 -3 -81 -3q-7 0 -14 4.5zM274.5 835.5q49.5 -17.5 72.5 -30.5q8 -4 13 -4t13 4q25 14 73.5 31.5t62.5 17.5q8 0 12.5 -4t4.5 -10q0 -10 -8 -17l-105 -95q-20 -18 -29.5 -24
t-23.5 -6q-13 0 -22.5 6t-29.5 24l-106 96q-9 8 -9 16q0 6 5.5 9.5t14.5 3.5q12 0 61.5 -17.5z" />
    <glyph glyph-name="tcaron" unicode="&#x165;" horiz-adv-x="388" 
d="M122.5 19.5q-34.5 33.5 -34.5 96.5v230q0 9 -7 13t-24 5h-15q-6 0 -11.5 12t-5.5 23q0 7 6 9q53 17 158 107q2 1 7.5 5.5t10 6.5t9.5 2q10 0 13.5 -4.5t2.5 -17.5l-7 -62q-3 -22 25 -22h120q2 0 5 -7t3 -12q0 -16 -4 -29.5t-9 -13.5h-92q-21 0 -30.5 -6t-9.5 -19v-187
q0 -46 17 -69t47 -23q20 0 32 3t20.5 7t12.5 6t7 2q5 0 8 -6.5t3 -15.5q0 -7 -23.5 -23.5t-59 -30t-71.5 -13.5q-69 0 -103.5 33.5zM297.5 507q-3.5 8 -3.5 18l2 25q1 11 2 25t1 27q0 22 -5 62q-3 15 -3 27q0 19 28.5 39t55.5 20q15 0 19 -9t4 -28q0 -33 -18 -90t-39 -92
q-19 -32 -34 -32q-6 0 -9.5 8z" />
    <glyph glyph-name="Tbar" unicode="&#x166;" horiz-adv-x="701" 
d="M706 683q0 -5 -2 -19q-2 -7 -9 -32t-10.5 -45t-3.5 -36v-21q0 -19 -4 -28t-13 -9q-10 0 -16.5 9t-13.5 30q-13 41 -35.5 58.5t-64.5 17.5h-41q-18 0 -27.5 -8t-14.5 -31t-5 -66v-114h89q10 0 16.5 -5.5t6.5 -13.5q0 -15 -13.5 -29t-29.5 -14h-69v-229q0 -27 14.5 -39.5
t55.5 -24.5q11 -4 16.5 -8t5.5 -13q0 -7 -5.5 -11t-13.5 -4q-21 0 -83 2l-77 2q-18 0 -74 -2q-43 -3 -81 -3q-7 0 -14 4.5t-7 10.5q0 17 22 22q40 9 55.5 21.5t15.5 41.5v230h-91q-11 0 -18.5 9t-7.5 22q0 14 8 22.5t21 8.5h88v126q0 52 -3.5 66.5t-11.5 19.5q-12 7 -41 7
h-17q-32 0 -62 -16.5t-49 -41.5q-17 -23 -31 -38t-27 -15q-16 0 -16 18q0 13 7 27q21 42 30 69.5t12 62.5q3 26 26 26q6 0 18 -16q8 -12 16 -18q9 -7 32.5 -11.5t39.5 -4.5l382 1q21 0 38 4.5t25 9.5q6 3 23 18q16 16 27 16q12 0 12 -16z" />
    <glyph glyph-name="tbar" unicode="&#x167;" horiz-adv-x="398" 
d="M382 68.5q3 -6.5 3 -15.5q0 -7 -23.5 -23.5t-59 -30t-71.5 -13.5q-69 0 -103.5 33.5t-34.5 96.5v87h-38q-12 0 -18 9.5t-6 21.5q0 14 8 22.5t21 8.5h33v81q0 9 -7 13t-24 5h-15q-6 0 -11.5 12t-5.5 23q0 7 6 9q53 17 158 107q2 1 7.5 5.5t10 6.5t9.5 2q10 0 13.5 -4.5
t2.5 -17.5l-7 -62q-3 -22 25 -22h120q2 0 5 -7t3 -12q0 -16 -4 -29.5t-9 -13.5h-92q-21 0 -30.5 -6t-9.5 -19v-71h122q10 0 16.5 -5.5t6.5 -13.5l-1 -5q-3 -15 -14.5 -26.5t-27.5 -11.5h-102v-54q0 -46 17 -69t47 -23q20 0 32 3t20.5 7t12.5 6t7 2q5 0 8 -6.5z" />
    <glyph glyph-name="Utilde" unicode="&#x168;" horiz-adv-x="746" 
d="M160.5 58.5q-73.5 72.5 -73.5 197.5v280q0 28 -13.5 51.5t-38.5 30.5q-27 7 -27 22q0 7 7.5 11t18.5 4q35 0 72 -3q46 -2 65 -2t71 2q54 2 76 2q26 0 26 -15q0 -8 -8 -13t-20.5 -9.5t-20.5 -8.5q-37 -18 -37 -78v-258q0 -94 43 -142.5t109 -48.5q89 0 132.5 51t43.5 159
q0 42 1 65l1 75q0 32 -1 46q-1 48 -6.5 73.5t-16.5 39t-33 24.5q-7 4 -18 7.5t-17 7.5t-6 10q0 15 30 15q31 0 63 -2l38 -1q18 0 44 2t48 2q25 0 25 -15q0 -14 -26 -22q-34 -10 -48 -31t-16 -60q-5 -121 -5 -262q0 -81 -36 -144.5t-97.5 -99t-136.5 -35.5
q-139 0 -212.5 72.5zM254 697.5q-7 6.5 -7 9.5q0 7 16 33.5t34.5 48.5t26.5 22q14 0 48 -2q24 -2 38 -2l21 -1q40 -2 67 -2q17 0 35 20q5 6 11.5 14t8.5 8q5 0 14 -7.5t9 -11.5t-5 -12t-13 -19q-16 -24 -23 -36q-5 -8 -9 -14t-7 -11q-9 -14 -31 -14q-10 0 -84 6q-78 6 -91 6
q-12 0 -29 -21q-15 -21 -18 -21q-5 0 -12 6.5z" />
    <glyph glyph-name="utilde" unicode="&#x169;" horiz-adv-x="556" 
d="M333 -11q0 15 3 33l2 30q0 10 -2 12q-25 -33 -68.5 -56t-87.5 -23q-30 0 -55.5 19.5t-40 52.5t-14.5 73v184q0 25 -8.5 38.5t-30.5 17.5q-7 1 -11.5 6t-4.5 13q0 7 4 12t11 6q40 2 75.5 8t80.5 17q17 5 24 5q14 0 13 -14q-8 -41 -8 -77v-191q0 -36 15.5 -57t40.5 -22
q34 0 56 22q6 6 10 21.5t4 38.5v156q0 25 -13 40.5t-38 16.5q-25 2 -25 23q0 11 7 16t18 5q83 5 116.5 8.5t61.5 10.5q12 3 14 3q15 0 15 -12q0 -3 -4 -17q-2 -12 -4.5 -34.5t-2.5 -35.5v-232q0 -36 18 -36l24 -1q10 0 15 -5t5 -14q0 -11 -4 -16.5t-14 -6.5q-74 -7 -161 -41
q-18 -7 -27 -7t-9 10zM141.5 475q-9.5 8 -9.5 12q0 7 20.5 36t43.5 54.5t31 25.5q9 0 27.5 -3t44.5 -5q62 -4 70 -4q18 0 35 20q5 6 12 15.5t11 9.5q5 0 14 -8t9 -12t-8 -15.5t-13 -17.5l-21 -33l-22 -34q-9 -14 -31 -14q-10 0 -74 4q-55 5 -79 5q-11 0 -19 -11
q-11 -15 -18 -24t-10 -9q-4 0 -13.5 8z" />
    </font>
</defs>
</svg>
